<svg width="28" height="28" viewBox="0 0 28 28" fill="none" xmlns="http://www.w3.org/2000/svg">
<path d="M20.5311 24.7078C19.2637 25.9363 17.88 25.7423 16.548 25.1604C15.1383 24.5655 13.8451 24.5396 12.3579 25.1604C10.4956 25.9622 9.5128 25.7294 8.40062 24.7078C2.08967 18.2028 3.02079 8.29669 10.1853 7.93459C11.9311 8.02512 13.1468 8.89158 14.1684 8.96917C15.6944 8.6588 17.1558 7.76647 18.7852 7.88286C20.738 8.03805 22.2123 8.81398 23.1822 10.2107C19.1473 12.629 20.1043 17.9442 23.803 19.4314C23.0658 21.3712 22.1088 23.2981 20.5182 24.7207L20.5311 24.7078ZM14.0391 7.857C13.8451 4.9731 16.1859 2.59356 18.8758 2.36078C19.2508 5.69731 15.8496 8.1803 14.0391 7.857Z" fill="#010101"/>
</svg>
