<svg width="17" height="18" viewBox="0 0 17 18" fill="none" xmlns="http://www.w3.org/2000/svg">
<path d="M1 6.41667H15.5833M4.42583 2.66667V1M12.1342 2.66667V1M12.6667 2.66667H3.91667C3.14312 2.66667 2.40125 2.97396 1.85427 3.52094C1.30729 4.06792 1 4.80979 1 5.58333V13.5C1 14.2735 1.30729 15.0154 1.85427 15.5624C2.40125 16.1094 3.14312 16.4167 3.91667 16.4167H12.6667C13.4402 16.4167 14.1821 16.1094 14.7291 15.5624C15.276 15.0154 15.5833 14.2735 15.5833 13.5V5.58333C15.5833 4.80979 15.276 4.06792 14.7291 3.52094C14.1821 2.97396 13.4402 2.66667 12.6667 2.66667Z" stroke="#010101" stroke-width="2" stroke-linecap="round" stroke-linejoin="round"/>
</svg>
