<svg width="393" height="393" viewBox="0 0 393 393" fill="none" xmlns="http://www.w3.org/2000/svg">
<path d="M140.694 285.837C95.4049 278.999 104.538 238.095 115.833 214.68C129.895 185.543 143.838 165.06 140.694 130.955C138.234 103.658 128.519 70.9994 160.494 56.5134C186.707 44.637 217.541 59.5788 234.613 81.7597C249.799 101.496 250.113 125.815 266.344 145.481C276.751 158.057 289.743 169.391 297.596 183.39C306.084 198.52 303.349 215.403 294.043 228.152C277.859 250.302 246.883 249.374 220.945 257.887C195.864 266.14 170.334 290.325 140.694 285.837Z" fill="#E3DFF1"/>
<path d="M196.5 336.062C280.667 336.062 348.898 332.079 348.898 327.165C348.898 322.251 280.667 318.267 196.5 318.267C112.333 318.267 44.1025 322.251 44.1025 327.165C44.1025 332.079 112.333 336.062 196.5 336.062Z" fill="#F5F5F5"/>
<path d="M99.5155 155.266C94.32 155.266 91.8756 150.04 91.7734 149.819C91.6844 149.575 91.6907 149.306 91.791 149.065C91.8913 148.825 92.0782 148.631 92.3147 148.522C92.5512 148.414 92.8199 148.398 93.0677 148.478C93.3154 148.558 93.5239 148.728 93.6519 148.955C93.6519 149.026 95.7191 153.309 99.6727 153.199C99.9326 153.214 100.177 153.326 100.359 153.512C100.54 153.699 100.645 153.947 100.651 154.208C100.658 154.468 100.567 154.721 100.396 154.917C100.225 155.113 99.9864 155.238 99.7277 155.266H99.5155Z" fill="#6348EC"/>
<path d="M167.418 82.6793C166.966 82.6813 166.514 82.6524 166.066 82.5929C165.932 82.5727 165.803 82.5264 165.687 82.4564C165.57 82.3865 165.469 82.2943 165.388 82.1852C165.308 82.0761 165.249 81.9522 165.217 81.8205C165.184 81.6888 165.177 81.552 165.197 81.4178C165.218 81.2836 165.264 81.1547 165.334 81.0384C165.404 80.9222 165.496 80.8208 165.605 80.7402C165.714 80.6595 165.838 80.6012 165.97 80.5684C166.102 80.5356 166.238 80.5292 166.373 80.5493C166.42 80.5493 171.151 81.2174 173.226 77.8454C173.297 77.7298 173.39 77.6293 173.5 77.5495C173.609 77.4698 173.733 77.4124 173.865 77.3806C173.997 77.3489 174.133 77.3434 174.267 77.3645C174.401 77.3856 174.53 77.4328 174.645 77.5035C174.761 77.5742 174.861 77.667 174.941 77.7766C175.021 77.8861 175.078 78.0103 175.11 78.1421C175.142 78.2738 175.147 78.4105 175.126 78.5444C175.105 78.6783 175.058 78.8067 174.987 78.9223C172.92 82.192 169.344 82.6793 167.418 82.6793Z" fill="#6348EC"/>
<path opacity="0.6" d="M167.418 82.6793C166.966 82.6813 166.514 82.6524 166.066 82.5929C165.932 82.5727 165.803 82.5264 165.687 82.4564C165.57 82.3865 165.469 82.2943 165.388 82.1852C165.308 82.0761 165.249 81.9522 165.217 81.8205C165.184 81.6888 165.177 81.552 165.197 81.4178C165.218 81.2836 165.264 81.1547 165.334 81.0384C165.404 80.9222 165.496 80.8208 165.605 80.7402C165.714 80.6595 165.838 80.6012 165.97 80.5684C166.102 80.5356 166.238 80.5292 166.373 80.5493C166.42 80.5493 171.151 81.2174 173.226 77.8454C173.297 77.7298 173.39 77.6293 173.5 77.5495C173.609 77.4698 173.733 77.4124 173.865 77.3806C173.997 77.3489 174.133 77.3434 174.267 77.3645C174.401 77.3856 174.53 77.4328 174.645 77.5035C174.761 77.5742 174.861 77.667 174.941 77.7766C175.021 77.8861 175.078 78.0103 175.11 78.1421C175.142 78.2738 175.147 78.4105 175.126 78.5444C175.105 78.6783 175.058 78.8067 174.987 78.9223C172.92 82.192 169.344 82.6793 167.418 82.6793Z" fill="white"/>
<path d="M50.7755 122.042C48.7814 121.974 46.8447 121.357 45.1792 120.258C45.0617 120.183 44.9608 120.084 44.8825 119.969C44.8042 119.853 44.7501 119.723 44.7237 119.586C44.6973 119.449 44.699 119.308 44.7287 119.172C44.7584 119.035 44.8155 118.907 44.8966 118.793C44.9777 118.679 45.081 118.583 45.2002 118.511C45.3195 118.439 45.4523 118.391 45.5904 118.372C45.7286 118.352 45.8693 118.361 46.004 118.397C46.1387 118.434 46.2645 118.497 46.3739 118.584C46.4132 118.584 50.3747 121.264 53.7152 119.134C53.8296 119.051 53.9598 118.992 54.0978 118.961C54.2358 118.93 54.3787 118.927 54.5177 118.954C54.6568 118.98 54.7889 119.034 54.9061 119.113C55.0234 119.193 55.1232 119.295 55.1994 119.414C55.2756 119.533 55.3267 119.667 55.3494 119.806C55.3721 119.946 55.3661 120.089 55.3316 120.226C55.2971 120.363 55.235 120.492 55.1489 120.604C55.0629 120.716 54.9548 120.81 54.8313 120.879C53.6204 121.651 52.2115 122.055 50.7755 122.042Z" fill="#6348EC"/>
<path opacity="0.6" d="M50.7755 122.042C48.7814 121.974 46.8447 121.357 45.1792 120.258C45.0617 120.183 44.9608 120.084 44.8825 119.969C44.8042 119.853 44.7501 119.723 44.7237 119.586C44.6973 119.449 44.699 119.308 44.7287 119.172C44.7584 119.035 44.8155 118.907 44.8966 118.793C44.9777 118.679 45.081 118.583 45.2002 118.511C45.3195 118.439 45.4523 118.391 45.5904 118.372C45.7286 118.352 45.8693 118.361 46.004 118.397C46.1387 118.434 46.2645 118.497 46.3739 118.584C46.4132 118.584 50.3747 121.264 53.7152 119.134C53.8296 119.051 53.9598 118.992 54.0978 118.961C54.2358 118.93 54.3787 118.927 54.5177 118.954C54.6568 118.98 54.7889 119.034 54.9061 119.113C55.0234 119.193 55.1232 119.295 55.1994 119.414C55.2756 119.533 55.3267 119.667 55.3494 119.806C55.3721 119.946 55.3661 120.089 55.3316 120.226C55.2971 120.363 55.235 120.492 55.1489 120.604C55.0629 120.716 54.9548 120.81 54.8313 120.879C53.6204 121.651 52.2115 122.055 50.7755 122.042Z" fill="white"/>
<path d="M320.397 94.4772C318.406 94.4235 316.468 93.8255 314.793 92.748C314.568 92.5927 314.413 92.3543 314.364 92.0853C314.315 91.8163 314.374 91.5387 314.53 91.3136C314.685 91.0884 314.923 90.9342 315.192 90.8848C315.461 90.8354 315.739 90.8949 315.964 91.0502C316.003 91.0502 319.973 93.7226 323.313 91.6004C323.427 91.5277 323.554 91.4781 323.688 91.4545C323.821 91.4309 323.957 91.4338 324.09 91.463C324.222 91.4922 324.347 91.5471 324.458 91.6246C324.568 91.7022 324.663 91.8008 324.736 91.9148C324.809 92.0289 324.858 92.1562 324.882 92.2894C324.905 92.4226 324.902 92.5592 324.873 92.6913C324.844 92.8234 324.789 92.9485 324.712 93.0593C324.634 93.1702 324.535 93.2647 324.421 93.3375C323.219 94.0996 321.821 94.4956 320.397 94.4772Z" fill="#6348EC"/>
<path opacity="0.6" d="M320.397 94.4772C318.406 94.4235 316.468 93.8255 314.793 92.748C314.568 92.5927 314.413 92.3543 314.364 92.0853C314.315 91.8163 314.374 91.5387 314.53 91.3136C314.685 91.0884 314.923 90.9342 315.192 90.8848C315.461 90.8354 315.739 90.8949 315.964 91.0502C316.003 91.0502 319.973 93.7226 323.313 91.6004C323.427 91.5277 323.554 91.4781 323.688 91.4545C323.821 91.4309 323.957 91.4338 324.09 91.463C324.222 91.4922 324.347 91.5471 324.458 91.6246C324.568 91.7022 324.663 91.8008 324.736 91.9148C324.809 92.0289 324.858 92.1562 324.882 92.2894C324.905 92.4226 324.902 92.5592 324.873 92.6913C324.844 92.8234 324.789 92.9485 324.712 93.0593C324.634 93.1702 324.535 93.2647 324.421 93.3375C323.219 94.0996 321.821 94.4956 320.397 94.4772Z" fill="white"/>
<path d="M193.993 175.663C189.175 175.663 186.549 170.994 186.431 170.782C186.299 170.542 186.267 170.26 186.343 169.997C186.419 169.734 186.596 169.511 186.836 169.379C187.076 169.247 187.358 169.215 187.622 169.291C187.885 169.367 188.107 169.544 188.239 169.784C188.239 169.847 190.597 173.965 194.527 173.565C194.79 173.555 195.046 173.646 195.245 173.819C195.443 173.992 195.568 174.234 195.595 174.495C195.622 174.757 195.549 175.019 195.39 175.228C195.231 175.438 194.999 175.579 194.739 175.624C194.504 175.647 194.244 175.663 193.993 175.663Z" fill="#6348EC"/>
<path opacity="0.6" d="M193.993 175.663C189.175 175.663 186.549 170.994 186.431 170.782C186.299 170.542 186.267 170.26 186.343 169.997C186.419 169.734 186.596 169.511 186.836 169.379C187.076 169.247 187.358 169.215 187.622 169.291C187.885 169.367 188.107 169.544 188.239 169.784C188.239 169.847 190.597 173.965 194.527 173.565C194.79 173.555 195.046 173.646 195.245 173.819C195.443 173.992 195.568 174.234 195.595 174.495C195.622 174.757 195.549 175.019 195.39 175.228C195.231 175.438 194.999 175.579 194.739 175.624C194.504 175.647 194.244 175.663 193.993 175.663Z" fill="white"/>
<path d="M62.0937 196.657C61.8434 196.655 61.6025 196.562 61.4159 196.395C61.2293 196.228 61.11 195.999 61.0801 195.75C61.0502 195.502 61.1119 195.251 61.2536 195.045C61.3954 194.838 61.6074 194.691 61.8501 194.629C61.8972 194.629 66.511 193.411 67.1398 189.497C67.1615 189.363 67.2093 189.235 67.2805 189.12C67.3517 189.005 67.4448 188.905 67.5547 188.825C67.6645 188.746 67.7889 188.689 67.9207 188.658C68.0525 188.627 68.1891 188.622 68.3228 188.644C68.4564 188.666 68.5845 188.713 68.6997 188.785C68.8149 188.856 68.915 188.949 68.9942 189.059C69.0734 189.169 69.1301 189.293 69.1613 189.425C69.1924 189.557 69.1973 189.693 69.1756 189.827C68.3346 195.101 62.5889 196.571 62.3452 196.634C62.2623 196.649 62.1781 196.657 62.0937 196.657Z" fill="#6348EC"/>
<path opacity="0.6" d="M62.0937 196.657C61.8434 196.655 61.6025 196.562 61.4159 196.395C61.2293 196.228 61.11 195.999 61.0801 195.75C61.0502 195.502 61.1119 195.251 61.2536 195.045C61.3954 194.838 61.6074 194.691 61.8501 194.629C61.8972 194.629 66.511 193.411 67.1398 189.497C67.1615 189.363 67.2093 189.235 67.2805 189.12C67.3517 189.005 67.4448 188.905 67.5547 188.825C67.6645 188.746 67.7889 188.689 67.9207 188.658C68.0525 188.627 68.1891 188.622 68.3228 188.644C68.4564 188.666 68.5845 188.713 68.6997 188.785C68.8149 188.856 68.915 188.949 68.9942 189.059C69.0734 189.169 69.1301 189.293 69.1613 189.425C69.1924 189.557 69.1973 189.693 69.1756 189.827C68.3346 195.101 62.5889 196.571 62.3452 196.634C62.2623 196.649 62.1781 196.657 62.0937 196.657Z" fill="#010101"/>
<path d="M291.606 125.013C291.349 125.022 291.098 124.934 290.902 124.767C290.706 124.6 290.58 124.366 290.549 124.11C290.517 123.855 290.582 123.597 290.732 123.388C290.881 123.178 291.103 123.032 291.354 122.978C291.402 122.978 296.015 121.767 296.644 117.853C296.657 117.711 296.699 117.574 296.767 117.449C296.836 117.324 296.929 117.215 297.041 117.127C297.154 117.04 297.283 116.977 297.421 116.942C297.559 116.907 297.702 116.9 297.843 116.923C297.983 116.946 298.118 116.997 298.237 117.074C298.357 117.151 298.46 117.251 298.539 117.369C298.618 117.488 298.672 117.621 298.698 117.761C298.724 117.901 298.72 118.044 298.688 118.183C297.839 123.457 292.093 124.927 291.85 124.982C291.77 125.004 291.688 125.014 291.606 125.013Z" fill="#6348EC"/>
<path opacity="0.6" d="M291.606 125.013C291.349 125.022 291.098 124.934 290.902 124.767C290.706 124.6 290.58 124.366 290.549 124.11C290.517 123.855 290.582 123.597 290.732 123.388C290.881 123.178 291.103 123.032 291.354 122.978C291.402 122.978 296.015 121.767 296.644 117.853C296.657 117.711 296.699 117.574 296.767 117.449C296.836 117.324 296.929 117.215 297.041 117.127C297.154 117.04 297.283 116.977 297.421 116.942C297.559 116.907 297.702 116.9 297.843 116.923C297.983 116.946 298.118 116.997 298.237 117.074C298.357 117.151 298.46 117.251 298.539 117.369C298.618 117.488 298.672 117.621 298.698 117.761C298.724 117.901 298.72 118.044 298.688 118.183C297.839 123.457 292.093 124.927 291.85 124.982C291.77 125.004 291.688 125.014 291.606 125.013Z" fill="#010101"/>
<path d="M333.838 164.203H333.665C333.413 164.156 327.581 163.087 326.379 157.915C326.348 157.782 326.343 157.644 326.366 157.509C326.389 157.374 326.438 157.245 326.511 157.129C326.584 157.014 326.68 156.914 326.792 156.836C326.904 156.757 327.031 156.702 327.165 156.673C327.298 156.643 327.436 156.64 327.57 156.663C327.705 156.686 327.834 156.736 327.949 156.809C328.064 156.882 328.164 156.977 328.243 157.088C328.321 157.2 328.377 157.326 328.407 157.459C329.303 161.311 333.987 162.175 334.034 162.175C334.282 162.228 334.502 162.37 334.652 162.574C334.802 162.777 334.873 163.029 334.851 163.281C334.829 163.533 334.715 163.769 334.531 163.943C334.348 164.117 334.107 164.218 333.854 164.227L333.838 164.203Z" fill="#6348EC"/>
<path d="M315.414 202.096C313.614 202.125 311.863 201.509 310.478 200.359C310.362 200.277 310.265 200.171 310.192 200.049C310.12 199.927 310.073 199.792 310.055 199.651C310.037 199.51 310.049 199.367 310.089 199.231C310.129 199.094 310.197 198.968 310.288 198.859C310.379 198.75 310.492 198.662 310.62 198.599C310.747 198.536 310.886 198.5 311.028 198.493C311.169 198.486 311.311 198.509 311.444 198.559C311.576 198.61 311.697 198.688 311.798 198.787C314.84 201.318 319.108 199.196 319.155 199.172C319.399 199.047 319.683 199.024 319.944 199.108C320.205 199.192 320.422 199.376 320.547 199.62C320.672 199.864 320.695 200.148 320.611 200.409C320.527 200.67 320.343 200.887 320.099 201.012C318.634 201.708 317.036 202.078 315.414 202.096Z" fill="#6348EC"/>
<path d="M267.24 73.098C267.061 73.0994 266.884 73.0533 266.729 72.9644C266.517 72.8465 261.384 69.8754 262.013 64.5699C262.044 64.2979 262.182 64.0494 262.397 63.8791C262.611 63.7089 262.884 63.6308 263.156 63.6621C263.428 63.6933 263.677 63.8314 263.847 64.0459C264.017 64.2603 264.096 64.5336 264.064 64.8057C263.616 68.7357 267.735 71.1487 267.774 71.1723C267.974 71.2854 268.131 71.4622 268.219 71.6745C268.307 71.8869 268.321 72.1226 268.26 72.3441C268.198 72.5656 268.064 72.7601 267.88 72.8967C267.695 73.0334 267.47 73.1042 267.24 73.098Z" fill="#6348EC"/>
<path d="M61.9288 77.2874C61.7936 77.2931 61.6585 77.272 61.5315 77.2255C61.4044 77.179 61.2877 77.108 61.188 77.0164C61.0884 76.9248 61.0078 76.8144 60.9508 76.6917C60.8938 76.5689 60.8616 76.4362 60.8559 76.301C60.8502 76.1657 60.8712 76.0307 60.9177 75.9036C60.9642 75.7765 61.0353 75.6598 61.1269 75.5602C61.2185 75.4606 61.3288 75.38 61.4516 75.323C61.5743 75.266 61.7071 75.2337 61.8423 75.2281C65.7723 74.8822 67.3443 70.3706 67.3443 70.3234C67.4356 70.0726 67.6207 69.867 67.8607 69.7501C68.1006 69.6331 68.3766 69.6139 68.6304 69.6964C68.8842 69.779 69.0961 69.9569 69.2213 70.1927C69.3465 70.4284 69.3752 70.7036 69.3015 70.9601C69.2307 71.2037 67.3443 76.8236 62.0231 77.2481L61.9288 77.2874Z" fill="#6348EC"/>
<path d="M138.619 108.389C135.829 109.694 133.369 115.966 134.17 124.974C134.972 133.982 116.312 127.662 113.774 137.754C109.191 156.021 139.916 167.001 153.011 156.021C161.114 149.23 168.731 126.845 167.615 114.63C166.42 101.496 146.047 92.6851 138.619 108.389Z" fill="#263238"/>
<path d="M168.102 131.435C168.448 131.333 168.951 131.183 169.383 131.042L170.735 130.586C171.639 130.272 172.535 129.926 173.423 129.556C175.193 128.83 176.92 128.003 178.595 127.08C181.879 125.329 184.833 123.02 187.328 120.258C189.552 117.617 191.148 114.017 192.397 110.323C193.034 108.468 193.568 106.558 194.024 104.617C194.48 102.675 194.913 100.687 195.243 98.7766L198.45 98.9731C198.455 103.224 197.994 107.462 197.074 111.612C196.606 113.738 195.973 115.825 195.18 117.853C194.358 119.993 193.256 122.015 191.902 123.866C189.134 127.415 185.7 130.392 181.794 132.63C179.912 133.742 177.958 134.73 175.946 135.585C174.94 136.009 173.926 136.371 172.889 136.756C172.378 136.937 171.859 137.11 171.317 137.267C170.774 137.424 170.295 137.574 169.65 137.731L168.102 131.435Z" fill="#7F3E3B"/>
<path d="M198.434 100.05L199.77 95.2475L194.464 95.6562C194.464 95.6562 194.087 98.8002 195.918 100.694L198.434 100.05Z" fill="#7F3E3B"/>
<path d="M200.564 89.659L195.722 90.9245L194.464 95.6562L199.77 95.2475L200.564 89.659Z" fill="#7F3E3B"/>
<path d="M162.097 132.661C164.541 130.437 170.743 128.731 170.743 128.731L177.542 138.949C177.542 138.949 169.784 144.129 166.491 142.926C163.064 141.732 159.818 134.728 162.097 132.661Z" fill="#6348EC"/>
<path d="M139.704 278L143.94 282.653L156.1 273.992L151.863 269.339L139.704 278Z" fill="#7F3E3B"/>
<path d="M115.794 296.385L121.477 299.207L129.832 286.953L124.149 284.131L115.794 296.385Z" fill="#7F3E3B"/>
<path d="M122.381 298.507L117.995 292.887C117.921 292.789 117.814 292.722 117.694 292.697C117.574 292.672 117.449 292.692 117.342 292.754L112.398 295.583C112.276 295.658 112.171 295.758 112.09 295.876C112.009 295.994 111.954 296.129 111.929 296.27C111.904 296.411 111.909 296.556 111.944 296.695C111.978 296.834 112.042 296.964 112.131 297.077C113.703 299.01 114.544 299.867 116.478 302.343C117.657 303.86 120.062 307.397 121.697 309.495C123.332 311.594 125.501 310.093 125.006 309.071C122.789 304.489 122.648 301.769 122.726 299.584C122.742 299.195 122.62 298.814 122.381 298.507Z" fill="#263238"/>
<path d="M145.206 282.74L142.314 275.792C142.262 275.667 142.171 275.563 142.055 275.496C141.938 275.43 141.802 275.403 141.669 275.422L135.538 276.208C135.392 276.224 135.252 276.274 135.129 276.354C135.006 276.434 134.904 276.542 134.831 276.67C134.759 276.797 134.717 276.94 134.71 277.087C134.703 277.233 134.731 277.379 134.792 277.513C135.845 279.926 136.481 281.05 137.755 284.108C138.541 285.986 140.364 290.922 141.441 293.54C142.518 296.157 145.285 295.536 145.08 294.388C144.161 289.248 144.475 285.931 145.237 283.911C145.31 283.723 145.344 283.523 145.339 283.322C145.333 283.121 145.288 282.923 145.206 282.74Z" fill="#263238"/>
<path opacity="0.2" d="M156.092 273.992L149.827 278.456L145.088 274.165L151.855 269.339L156.092 273.992Z" fill="#010101"/>
<path opacity="0.2" d="M124.149 284.131L129.832 286.953L125.517 293.272L119.834 290.443L124.149 284.131Z" fill="#010101"/>
<path d="M170.657 133.455C170.657 133.455 170.845 133.172 167.403 170.727L141.7 172.527C141.402 162.042 142.188 154.638 137.291 133.093C140.902 132.366 144.562 131.904 148.24 131.71C152.135 131.45 156.044 131.471 159.936 131.773C164.958 132.252 170.657 133.455 170.657 133.455Z" fill="#6348EC"/>
<path d="M139.224 139.318C137.314 138.438 135.64 137.495 133.903 136.497C132.166 135.499 130.523 134.43 128.888 133.298C125.561 131.039 122.467 128.453 119.653 125.579L118.615 124.455L118.348 124.172C118.195 123.996 118.051 123.813 117.916 123.622C117.673 123.275 117.462 122.907 117.287 122.522C116.767 121.293 116.499 119.973 116.501 118.639C116.518 116.515 116.804 114.403 117.35 112.351C118.348 108.511 119.733 104.781 121.484 101.221L124.487 102.384C124.023 104.169 123.583 106.024 123.19 107.839C122.797 109.655 122.467 111.486 122.247 113.278C121.991 114.963 121.923 116.671 122.042 118.372C122.082 118.96 122.231 119.536 122.482 120.069C122.482 120.124 122.561 120.187 122.585 120.195L122.828 120.423L123.795 121.343C126.493 123.786 129.385 126.007 132.441 127.984C133.974 128.998 135.585 129.926 137.157 130.861C138.729 131.796 140.419 132.685 141.952 133.463L139.224 139.318Z" fill="#7F3E3B"/>
<path d="M147.406 134.532C144.49 130.468 138.76 130.531 138.76 130.531L131.852 140.749C131.852 140.749 139.562 146 142.856 144.828C146.345 143.586 149.206 137.031 147.406 134.532Z" fill="#6348EC"/>
<path d="M159.936 131.773L148.24 131.71C146.448 132.433 145.41 137.094 157.279 141.04C165.508 136.363 161.13 132.205 159.936 131.773Z" fill="white"/>
<path d="M149.466 118.545C150.181 122.309 150.881 129.211 148.24 131.71C148.24 131.71 149.262 135.538 157.279 141.04C162.899 135.404 159.935 131.773 159.935 131.773C155.746 130.743 155.872 127.631 156.618 124.699L149.466 118.545Z" fill="#7F3E3B"/>
<path d="M173.706 155.927H173.58C173.166 155.893 172.782 155.696 172.512 155.379C172.242 155.062 172.109 154.651 172.142 154.237C172.425 150.731 169.784 148.082 166.75 145.009C163.268 141.496 159.314 137.511 159.157 131.309C159.147 130.892 159.302 130.488 159.59 130.186C159.877 129.884 160.273 129.708 160.69 129.698C161.107 129.687 161.511 129.843 161.813 130.13C162.115 130.418 162.291 130.814 162.301 131.231C162.427 136.182 165.76 139.546 168.982 142.8C172.205 146.055 175.671 149.544 175.27 154.488C175.237 154.88 175.058 155.245 174.768 155.512C174.478 155.778 174.1 155.926 173.706 155.927Z" fill="#263238"/>
<path d="M150.732 163.881C150.604 163.881 150.478 163.865 150.354 163.834C149.95 163.733 149.602 163.477 149.387 163.12C149.172 162.764 149.107 162.336 149.207 161.932C150.724 155.769 148.735 150.928 146.629 145.834C144.742 141.26 142.793 136.528 143.736 130.995C143.818 130.594 144.052 130.241 144.389 130.01C144.727 129.779 145.141 129.689 145.544 129.759C145.947 129.828 146.307 130.052 146.548 130.383C146.788 130.713 146.891 131.124 146.833 131.529C146.047 136.167 147.737 140.285 149.529 144.64C151.635 149.741 154.017 155.526 152.256 162.718C152.166 163.053 151.968 163.348 151.692 163.559C151.416 163.769 151.078 163.883 150.732 163.881Z" fill="#263238"/>
<path opacity="0.2" d="M155.141 123.402L151.997 123.771C152.149 124.618 152.453 125.43 152.893 126.169C153.514 127.104 154.897 127.513 156.265 127.552C156.264 126.58 156.396 125.612 156.658 124.675L155.141 123.402Z" fill="#010101"/>
<path d="M142.51 114.756C144.813 120.62 145.654 123.15 149.67 125.241C155.707 128.385 162.403 124.29 161.9 117.861C161.452 112.068 157.766 103.453 151.14 102.966C149.681 102.852 148.217 103.113 146.887 103.724C145.557 104.335 144.405 105.276 143.54 106.457C142.676 107.638 142.127 109.02 141.947 110.472C141.766 111.925 141.96 113.399 142.51 114.756Z" fill="#7F3E3B"/>
<path d="M148.821 102.117C153.294 104.868 149.466 121.052 141.897 120.195C134.327 119.338 142.211 98.0535 148.821 102.117Z" fill="#263238"/>
<path d="M148.656 102.18C145.284 104.42 147.587 108.319 158.953 106.008C158.953 106 154.253 98.4544 148.656 102.18Z" fill="#263238"/>
<path d="M143.327 120.454C143.824 121.565 144.739 122.435 145.874 122.875C147.391 123.441 148.279 122.089 147.98 120.62C147.705 119.275 146.589 117.35 145.017 117.428C144.674 117.452 144.341 117.56 144.05 117.744C143.759 117.928 143.519 118.182 143.351 118.483C143.183 118.784 143.093 119.121 143.089 119.466C143.085 119.81 143.167 120.15 143.327 120.454Z" fill="#7F3E3B"/>
<path d="M167.418 170.727C167.418 170.727 181.173 215.631 182.281 234.951C183.429 255.049 153.584 278.896 153.584 278.896L146.157 270.746C146.157 270.746 170.405 250.152 167.08 235.234C162.482 214.672 148.554 172.048 148.554 172.048L167.418 170.727Z" fill="#263238"/>
<path opacity="0.2" d="M158.843 185.425C157.585 181.495 154.787 184.136 153.812 188.302C155.754 194.59 158.002 201.947 160.14 209.312C160.965 202.788 161.303 193.128 158.843 185.425Z" fill="#010101"/>
<path d="M144.145 270.353L153.569 280.075L157.593 277.851L147.634 267.012L144.145 270.353Z" fill="#6348EC"/>
<path d="M160.619 171.207C160.619 171.207 156.689 215.223 152.759 239.738C149.576 259.545 127.953 291.897 127.953 291.897L120.03 288.21C120.03 288.21 134.563 253.571 136.827 240.107C144.09 197.011 134.28 184.576 141.708 172.511L160.619 171.207Z" fill="#263238"/>
<path d="M119.472 288.297L128.409 292.683L131.341 289.044L120.887 284.115L119.472 288.297Z" fill="#6348EC"/>
<path d="M141.213 171.049L140.215 173.407C140.136 173.588 140.356 173.761 140.655 173.737L167.615 171.851C167.843 171.851 168.031 171.71 168.031 171.56L168.102 169.202C168.102 169.045 167.898 168.927 167.646 168.943L141.614 170.766C141.527 170.769 141.442 170.798 141.371 170.848C141.3 170.898 141.245 170.968 141.213 171.049Z" fill="white"/>
<path d="M144.907 173.706L144.215 173.753C144.074 173.753 143.964 173.698 143.964 173.612L144.082 170.601C144.082 170.515 144.208 170.428 144.341 170.421L145.041 170.373C145.182 170.373 145.292 170.428 145.284 170.515L145.166 173.525C145.166 173.627 145.049 173.706 144.907 173.706Z" fill="#263238"/>
<path d="M165.673 172.26L164.974 172.307C164.832 172.307 164.722 172.252 164.73 172.165L164.848 169.155C164.848 169.069 164.966 168.99 165.107 168.974L165.799 168.927C165.94 168.927 166.05 168.982 166.05 169.069L165.932 172.087C165.925 172.173 165.846 172.252 165.673 172.26Z" fill="#263238"/>
<path d="M155.29 172.991L154.591 173.038C154.457 173.038 154.347 172.983 154.347 172.896L154.465 169.878C154.465 169.792 154.583 169.713 154.724 169.705L155.424 169.658C155.558 169.658 155.668 169.713 155.668 169.8L155.55 172.81C155.55 172.92 155.432 172.975 155.29 172.991Z" fill="#263238"/>
<path d="M151.981 112.555C151.604 112.681 151.446 113.247 151.635 113.829L153.011 113.388C152.822 112.807 152.358 112.398 151.981 112.555Z" fill="#263238"/>
<path d="M157.986 110.653C157.601 110.779 157.444 111.353 157.632 111.934L159.016 111.486C158.772 110.905 158.324 110.535 157.986 110.653Z" fill="#263238"/>
<path d="M157.79 110.74L159.055 109.891C159.055 109.891 158.693 111.211 157.79 110.74Z" fill="#263238"/>
<path d="M156.414 113.027C157.204 113.998 158.125 114.854 159.149 115.573C158.959 115.831 158.715 116.044 158.434 116.198C158.153 116.351 157.842 116.441 157.522 116.462L156.414 113.027Z" fill="#630F0F"/>
<path d="M156.509 118.906C156.532 118.886 156.548 118.86 156.557 118.831C156.565 118.801 156.565 118.77 156.556 118.741C156.543 118.704 156.516 118.673 156.481 118.655C156.445 118.637 156.405 118.634 156.367 118.647C155.766 118.855 155.124 118.919 154.493 118.835C153.863 118.75 153.261 118.519 152.736 118.159C152.722 118.145 152.705 118.134 152.687 118.127C152.669 118.119 152.649 118.115 152.63 118.115C152.61 118.115 152.59 118.119 152.572 118.127C152.554 118.134 152.537 118.145 152.523 118.159C152.508 118.173 152.496 118.189 152.488 118.207C152.48 118.226 152.476 118.245 152.476 118.265C152.476 118.286 152.48 118.305 152.488 118.324C152.496 118.342 152.508 118.358 152.523 118.372C153.085 118.774 153.736 119.034 154.421 119.13C155.105 119.226 155.803 119.155 156.453 118.922L156.509 118.906Z" fill="#263238"/>
<path d="M149.993 112.202C150.032 112.168 150.062 112.125 150.079 112.076C150.187 111.71 150.382 111.376 150.648 111.102C150.914 110.828 151.242 110.623 151.604 110.504C151.642 110.494 151.678 110.478 151.71 110.455C151.742 110.431 151.768 110.402 151.789 110.369C151.809 110.335 151.823 110.298 151.829 110.259C151.835 110.22 151.833 110.18 151.824 110.142C151.815 110.104 151.798 110.068 151.775 110.036C151.752 110.005 151.722 109.978 151.689 109.957C151.655 109.937 151.618 109.923 151.579 109.917C151.54 109.911 151.501 109.913 151.463 109.922C151.007 110.066 150.592 110.316 150.253 110.652C149.914 110.989 149.66 111.401 149.513 111.856C149.488 111.931 149.494 112.013 149.53 112.083C149.565 112.154 149.627 112.208 149.702 112.233C149.749 112.255 149.8 112.263 149.852 112.258C149.903 112.252 149.952 112.233 149.993 112.202Z" fill="#263238"/>
<path d="M159.409 108.319C159.426 108.31 159.439 108.296 159.448 108.279C159.474 108.249 159.492 108.213 159.504 108.175C159.515 108.137 159.518 108.097 159.514 108.057C159.51 108.018 159.497 107.979 159.478 107.945C159.459 107.91 159.433 107.879 159.401 107.855C159.033 107.551 158.598 107.339 158.132 107.236C157.666 107.134 157.182 107.144 156.721 107.265C156.683 107.278 156.648 107.298 156.618 107.324C156.587 107.35 156.563 107.382 156.545 107.418C156.528 107.454 156.517 107.493 156.515 107.533C156.513 107.573 156.519 107.613 156.532 107.651C156.559 107.724 156.613 107.785 156.683 107.82C156.754 107.855 156.834 107.862 156.91 107.839C157.275 107.745 157.658 107.74 158.026 107.825C158.394 107.91 158.736 108.082 159.024 108.327C159.079 108.371 159.147 108.394 159.218 108.393C159.288 108.392 159.356 108.365 159.409 108.319Z" fill="#263238"/>
<path d="M127.922 103.54C127.731 103.539 127.543 103.488 127.379 103.39L103.469 88.6608C103.259 88.5064 103.116 88.2789 103.066 88.0233C103.016 87.7678 103.065 87.5029 103.201 87.2813C103.338 87.0596 103.552 86.8974 103.803 86.8268C104.054 86.7562 104.322 86.7824 104.554 86.9002L128.464 101.63C128.657 101.747 128.806 101.924 128.888 102.134C128.971 102.343 128.982 102.575 128.92 102.791C128.859 103.008 128.728 103.199 128.547 103.334C128.367 103.469 128.147 103.542 127.922 103.54Z" fill="#6348EC"/>
<path d="M108.885 90.2878C110.229 90.2328 111.612 90.1699 111.793 88.9595C111.974 87.749 110.677 87.2853 109.435 86.8294L109.097 86.7037C109.097 86.5858 109.042 86.4679 109.011 86.3578L109.286 86.0513C110.166 85.0766 111.086 84.0706 110.37 83.1116C109.655 82.1527 108.429 82.7186 107.226 83.2767L106.857 83.4496C106.755 83.3789 106.653 83.3239 106.542 83.261C106.432 83.1981 106.542 83.0095 106.542 82.8994C106.48 81.5632 106.417 80.1799 105.214 79.9991C104.012 79.8183 103.54 81.1152 103.084 82.3571C103.045 82.4593 103.005 82.5772 102.958 82.6951L102.605 82.7815L102.306 82.5143C101.331 81.6261 100.325 80.7143 99.3663 81.4217C98.4074 82.1291 98.9733 83.3632 99.5314 84.5657L99.7043 84.9352C99.6357 85.0337 99.5728 85.1361 99.5156 85.2417H99.1541C97.8179 85.3046 96.4267 85.3675 96.2459 86.5779C96.0651 87.7883 97.3699 88.2521 98.6039 88.708L98.9419 88.8337C98.9419 88.9516 98.9969 89.0695 99.0283 89.1796C98.934 89.2896 98.8397 89.3996 98.7532 89.4861C97.8729 90.4607 96.9611 91.459 97.6685 92.4257C98.3759 93.3925 99.61 92.8109 100.813 92.2607L101.19 92.0878L101.496 92.2764C101.496 92.4022 101.496 92.5279 101.496 92.638C101.559 93.9742 101.622 95.3575 102.825 95.5383C104.027 95.7191 104.507 94.4222 104.963 93.1803C104.963 93.086 105.041 92.9681 105.081 92.8423C105.2 92.8209 105.318 92.7921 105.434 92.7559L105.741 93.031C106.708 93.9113 107.714 94.8309 108.68 94.1235C109.647 93.4161 109.066 92.1821 108.507 90.9795C108.46 90.8773 108.397 90.7437 108.342 90.6101L108.531 90.3035L108.885 90.2878Z" fill="#6348EC"/>
<path opacity="0.7" d="M108.885 90.2878C110.229 90.2328 111.612 90.1699 111.793 88.9595C111.974 87.749 110.677 87.2853 109.435 86.8294L109.097 86.7037C109.097 86.5858 109.042 86.4679 109.011 86.3578L109.286 86.0513C110.166 85.0766 111.086 84.0706 110.37 83.1116C109.655 82.1527 108.429 82.7186 107.226 83.2767L106.857 83.4496C106.755 83.3789 106.653 83.3239 106.542 83.261C106.432 83.1981 106.542 83.0095 106.542 82.8994C106.48 81.5632 106.417 80.1799 105.214 79.9991C104.012 79.8183 103.54 81.1152 103.084 82.3571C103.045 82.4593 103.005 82.5772 102.958 82.6951L102.605 82.7815L102.306 82.5143C101.331 81.6261 100.325 80.7143 99.3663 81.4217C98.4074 82.1291 98.9733 83.3632 99.5314 84.5657L99.7043 84.9352C99.6357 85.0337 99.5728 85.1361 99.5156 85.2417H99.1541C97.8179 85.3046 96.4267 85.3675 96.2459 86.5779C96.0651 87.7883 97.3699 88.2521 98.6039 88.708L98.9419 88.8337C98.9419 88.9516 98.9969 89.0695 99.0283 89.1796C98.934 89.2896 98.8397 89.3996 98.7532 89.4861C97.8729 90.4607 96.9611 91.459 97.6685 92.4257C98.3759 93.3925 99.61 92.8109 100.813 92.2607L101.19 92.0878L101.496 92.2764C101.496 92.4022 101.496 92.5279 101.496 92.638C101.559 93.9742 101.622 95.3575 102.825 95.5383C104.027 95.7191 104.507 94.4222 104.963 93.1803C104.963 93.086 105.041 92.9681 105.081 92.8423C105.2 92.8209 105.318 92.7921 105.434 92.7559L105.741 93.031C106.708 93.9113 107.714 94.8309 108.68 94.1235C109.647 93.4161 109.066 92.1821 108.507 90.9795C108.46 90.8773 108.397 90.7437 108.342 90.6101L108.531 90.3035L108.885 90.2878Z" fill="white"/>
<path d="M120.785 103.791L119.802 97.5033L126.216 100.647C125.974 101.706 125.428 102.67 124.644 103.422C124.321 103.789 123.902 104.058 123.433 104.197C122.964 104.336 122.466 104.34 121.995 104.208L120.785 103.791Z" fill="#7F3E3B"/>
<path d="M123.402 94.4222L126.688 97.3068L126.216 100.608L119.802 97.4954L123.402 94.4222Z" fill="#7F3E3B"/>
<path d="M124.44 301.517C124.507 301.47 124.57 301.417 124.629 301.36C124.696 301.299 124.745 301.221 124.772 301.133C124.798 301.046 124.8 300.953 124.778 300.865C124.589 300.079 122.42 299.293 122.176 299.238C122.149 299.226 122.119 299.224 122.091 299.231C122.063 299.238 122.037 299.254 122.019 299.277C122.003 299.302 121.994 299.331 121.994 299.36C121.994 299.389 122.003 299.418 122.019 299.442C122.373 300.228 123.08 301.517 123.874 301.651C124.073 301.681 124.275 301.633 124.44 301.517ZM122.42 299.647C123.277 299.969 124.385 300.519 124.487 300.936C124.494 300.975 124.491 301.015 124.477 301.053C124.463 301.09 124.44 301.123 124.408 301.148C124.349 301.224 124.27 301.284 124.181 301.321C124.091 301.358 123.994 301.372 123.898 301.36C123.465 301.282 122.931 300.653 122.42 299.647Z" fill="#6348EC"/>
<path d="M124.841 299.419C124.892 299.388 124.937 299.348 124.974 299.301C125.051 299.208 125.093 299.091 125.093 298.971C125.093 298.85 125.051 298.734 124.974 298.641C124.916 298.541 124.836 298.456 124.741 298.391C124.646 298.326 124.538 298.282 124.424 298.263C123.52 298.098 122.066 299.214 122.011 299.262C121.991 299.279 121.975 299.301 121.965 299.325C121.956 299.35 121.952 299.377 121.956 299.403C121.96 299.428 121.97 299.452 121.985 299.472C122 299.493 122.02 299.509 122.042 299.521C122.957 299.827 123.951 299.791 124.841 299.419ZM122.483 299.301C123.021 298.862 123.684 298.603 124.377 298.562C124.449 298.571 124.518 298.597 124.578 298.638C124.639 298.679 124.688 298.734 124.723 298.798C124.825 298.963 124.778 299.049 124.723 299.104C124.44 299.442 123.151 299.505 122.435 299.325L122.483 299.301Z" fill="#6348EC"/>
<path d="M145.347 286.3C145.507 286.792 145.818 287.221 146.235 287.527C146.353 287.596 146.484 287.638 146.62 287.651C146.756 287.663 146.893 287.645 147.021 287.597C147.098 287.576 147.167 287.534 147.221 287.475C147.275 287.417 147.312 287.345 147.328 287.267C147.493 286.481 145.434 284.54 145.017 284.123C144.991 284.106 144.961 284.097 144.931 284.097C144.9 284.097 144.87 284.106 144.844 284.123C144.817 284.138 144.795 284.161 144.782 284.19C144.769 284.218 144.766 284.25 144.773 284.28C144.889 284.973 145.082 285.65 145.347 286.3ZM146.982 286.89C147.027 286.98 147.046 287.081 147.037 287.181C147.037 287.22 147.037 287.259 146.927 287.291C146.835 287.326 146.737 287.34 146.639 287.332C146.541 287.324 146.446 287.294 146.361 287.244C145.882 286.961 145.441 286.018 145.158 284.681C145.874 285.321 146.489 286.066 146.982 286.89Z" fill="#6348EC"/>
<path d="M144.805 284.335C144.803 284.351 144.803 284.367 144.805 284.383C145.449 285.035 147.375 286.088 147.996 285.727C148.13 285.648 148.271 285.475 148.161 285.098C147.76 283.652 145.017 284.108 144.884 284.131C144.856 284.135 144.83 284.146 144.809 284.164C144.788 284.183 144.773 284.207 144.766 284.233C144.766 284.271 144.78 284.307 144.805 284.335ZM147.87 285.082L147.91 285.176C147.91 285.334 147.91 285.428 147.91 285.467C147.548 285.672 146.094 284.996 145.324 284.383C145.968 284.312 147.524 284.249 147.87 285.082Z" fill="#6348EC"/>
<path d="M151.824 112.642L153.089 111.785C153.089 111.785 152.728 113.113 151.824 112.642Z" fill="#263238"/>
<path d="M254.578 318.542L248.486 318.55L246.843 304.449L252.935 304.441L254.578 318.542Z" fill="#FFC3BD"/>
<path d="M307.011 292.368L302.398 296.353L291.952 286.741L296.558 282.756L307.011 292.368Z" fill="#FFC3BD"/>
<path d="M301.502 296.196L307.114 291.339C307.206 291.263 307.321 291.221 307.44 291.221C307.559 291.221 307.675 291.263 307.766 291.339L312.042 294.75C312.146 294.838 312.23 294.947 312.288 295.071C312.345 295.194 312.375 295.329 312.375 295.465C312.375 295.602 312.345 295.736 312.288 295.86C312.23 295.983 312.146 296.093 312.042 296.181C310.211 297.713 308.804 298.743 306.54 300.708C305.141 301.918 301.038 305.723 299.105 307.397C297.171 309.071 295.34 307.302 295.961 306.438C298.869 302.571 300.677 299.144 300.96 297.108C301.029 296.75 301.221 296.428 301.502 296.196Z" fill="#263238"/>
<path d="M248.525 317.843H255.183C255.304 317.843 255.421 317.885 255.515 317.96C255.609 318.036 255.675 318.141 255.702 318.259L256.912 323.675C256.942 323.805 256.941 323.941 256.911 324.071C256.881 324.202 256.822 324.324 256.738 324.428C256.654 324.532 256.548 324.616 256.427 324.674C256.306 324.731 256.173 324.76 256.04 324.759C253.634 324.72 250.168 324.587 247.15 324.587C243.629 324.587 241.561 324.681 237.427 324.689C234.928 324.689 234.228 322.166 235.273 321.938C240.037 320.884 242.945 320.877 247.063 318.33C247.496 318.035 248.002 317.866 248.525 317.843Z" fill="#263238"/>
<path d="M228.726 143.453C227.5 142.981 226.447 142.549 225.346 142.046C224.246 141.543 223.185 141.048 222.116 140.521C219.983 139.473 217.887 138.305 215.828 137.016C213.755 135.745 211.763 134.349 209.862 132.834C209.383 132.441 208.895 132.048 208.424 131.647L207.025 130.366C206.561 129.942 206.121 129.454 205.673 128.998C205.445 128.747 205.248 128.566 204.989 128.267C204.73 127.969 204.478 127.678 204.25 127.379C203.391 126.243 202.66 125.014 202.073 123.716C201.527 122.531 201.062 121.31 200.682 120.061C199.959 117.704 199.433 115.29 199.11 112.846C198.49 108.14 198.371 103.382 198.756 98.6508H203.331C203.645 100.781 203.975 103.021 204.407 105.175C204.84 107.328 205.296 109.482 205.854 111.557C206.381 113.584 207.048 115.572 207.85 117.507C208.515 119.218 209.452 120.81 210.625 122.223L211.01 122.616C211.128 122.742 211.363 122.93 211.536 123.088C211.914 123.41 212.259 123.748 212.66 124.054C213.446 124.683 214.232 125.304 215.113 125.901C216.81 127.08 218.603 128.204 220.473 129.258C222.344 130.311 224.254 131.309 226.195 132.252C227.17 132.732 228.152 133.203 229.135 133.644C230.117 134.084 231.147 134.547 232.027 134.925L228.726 143.453Z" fill="#FFC3BD"/>
<path d="M229.701 148.64C226.232 146.484 222.955 144.033 219.907 141.315L222.336 128.904C226.852 130.189 231.443 131.191 236.083 131.907C243.747 132.897 235.163 151.894 229.701 148.64Z" fill="#263238"/>
<path d="M203.488 99.7198L203.92 91.962L197.475 94.0292C197.475 94.0292 195.973 99.5862 200.155 101.048L203.488 99.7198Z" fill="#FFC3BD"/>
<path d="M203.142 87.7883L197.82 90.0048L197.475 94.0292L203.92 91.962L203.142 87.7883Z" fill="#FFC3BD"/>
<path opacity="0.2" d="M246.851 304.449L247.692 311.72L253.784 311.712L252.943 304.441L246.851 304.449Z" fill="#010101"/>
<path opacity="0.2" d="M296.565 282.756L291.952 286.741L297.344 291.692L301.95 287.707L296.565 282.756Z" fill="#010101"/>
<path d="M259.506 131.655C259.519 131.224 259.447 130.794 259.294 130.39C259.141 129.987 258.909 129.618 258.612 129.304C258.316 128.991 257.96 128.739 257.565 128.564C257.171 128.389 256.746 128.293 256.314 128.283C238.928 127.961 227.618 132.834 226.839 133.148C226.549 133.265 226.294 133.455 226.097 133.698C225.9 133.942 225.769 134.231 225.715 134.54C224.992 138.894 222.941 157.145 232.994 185.708L265.22 181.094C264.788 176.339 258.782 154.52 259.506 131.655Z" fill="#263238"/>
<path d="M233.442 130.955C231.532 133.51 230.667 139.397 236.995 143.704C244.776 137.896 248.785 131.647 249.972 128.393C244.388 128.673 238.848 129.532 233.442 130.955Z" fill="white"/>
<path d="M231.996 133.345C231.579 133.345 231.179 133.179 230.884 132.884C230.589 132.59 230.424 132.19 230.424 131.773C230.424 130.476 231.548 129.36 232.499 128.629C235.69 126.271 241.931 124.471 249.791 126.742C250.177 126.87 250.499 127.142 250.689 127.502C250.878 127.862 250.921 128.281 250.808 128.672C250.695 129.063 250.435 129.394 250.083 129.597C249.731 129.8 249.313 129.859 248.918 129.761C239.801 127.128 234.181 130.869 233.576 131.946C233.533 132.333 233.347 132.691 233.055 132.95C232.763 133.208 232.386 133.349 231.996 133.345Z" fill="#6348EC"/>
<path d="M245.059 113.451C244.823 117.986 245.114 126.192 248.62 128.692C246.56 131.419 243.817 134.618 238.606 135.554C235.462 136.112 234.385 134.948 234.251 133.479C234.207 132.77 234.364 132.062 234.703 131.438C235.042 130.814 235.55 130.298 236.169 129.949C239.557 127.984 238.881 124.825 237.663 121.838L245.059 113.451Z" fill="#FFC3BD"/>
<path d="M231.516 169.407C231.339 169.406 231.163 169.374 230.997 169.312C230.605 169.173 230.283 168.884 230.103 168.509C229.923 168.133 229.9 167.701 230.038 167.308C230.257 166.758 230.358 166.169 230.337 165.577C230.315 164.986 230.171 164.406 229.913 163.873L229.748 163.425C229.479 162.897 229.123 162.419 228.694 162.01C227.775 161.273 227.138 160.24 226.893 159.086C226.649 157.933 226.81 156.731 227.35 155.683C227.544 155.234 227.658 154.756 227.688 154.268C227.538 153.708 227.297 153.177 226.973 152.696C226.324 151.769 225.941 150.682 225.865 149.552C225.954 148.371 226.382 147.241 227.099 146.298C227.369 145.941 227.581 145.543 227.728 145.119C227.733 144.682 227.648 144.248 227.476 143.846C227.098 142.953 227.005 141.964 227.209 141.016C227.528 139.947 228.184 139.01 229.08 138.344C229.332 138.153 229.553 137.922 229.732 137.66C229.844 137.28 229.844 136.876 229.732 136.497C229.493 135.586 229.62 134.619 230.086 133.801C230.636 132.936 230.581 132.716 230.534 132.535C230.454 132.26 230.42 131.973 230.431 131.686C230.431 131.269 230.597 130.87 230.892 130.575C231.187 130.28 231.587 130.114 232.003 130.114C232.42 130.114 232.82 130.28 233.115 130.575C233.41 130.87 233.575 131.269 233.575 131.686V131.734C233.796 132.622 233.858 133.683 232.789 135.42C232.802 135.605 232.826 135.788 232.86 135.97C233.097 136.835 233.062 137.751 232.76 138.595C232.457 139.439 231.902 140.169 231.17 140.686C230.667 141.126 230.384 141.394 230.274 141.779C230.258 142.142 230.331 142.503 230.486 142.832C230.82 143.673 230.952 144.58 230.872 145.481C230.698 146.384 230.321 147.235 229.771 147.972C229.406 148.432 229.154 148.97 229.032 149.544C229.159 150.095 229.392 150.615 229.716 151.077C230.281 151.922 230.664 152.874 230.84 153.875C230.884 154.821 230.72 155.766 230.361 156.642C230.105 157.201 229.984 157.812 230.007 158.426C230.255 158.971 230.61 159.461 231.052 159.865C231.78 160.576 232.357 161.426 232.75 162.364L232.892 162.773C233.665 164.53 233.713 166.522 233.025 168.314C232.923 168.633 232.721 168.911 232.45 169.108C232.178 169.304 231.851 169.409 231.516 169.407Z" fill="#6348EC"/>
<path d="M259.215 131.396C260.072 132.182 260.787 132.842 261.51 133.596C262.233 134.351 262.941 135.082 263.64 135.837C265.039 137.346 266.36 138.933 267.633 140.553C270.286 143.908 272.507 147.584 274.243 151.494C274.681 152.539 275.064 153.607 275.391 154.693C275.556 155.243 275.697 155.817 275.831 156.398L275.878 156.61L275.949 156.98C275.996 157.224 276.02 157.483 276.043 157.766C276.081 158.29 276.065 158.817 275.996 159.338C275.88 160.277 275.595 161.188 275.155 162.026C274.787 162.724 274.342 163.378 273.827 163.975C272.975 164.948 271.994 165.8 270.911 166.506C269.062 167.716 267.072 168.693 264.984 169.414C263.994 169.776 262.996 170.083 261.99 170.342C260.984 170.601 260.009 170.845 258.916 171.026L257.502 166.679C258.288 166.239 259.129 165.775 259.922 165.304C260.716 164.832 261.494 164.337 262.28 163.842C263.742 162.918 265.117 161.866 266.391 160.698C266.88 160.227 267.31 159.699 267.672 159.126C267.947 158.678 267.924 158.379 267.845 158.473C267.84 158.499 267.84 158.526 267.845 158.552L267.798 158.41C267.68 158.049 267.57 157.679 267.413 157.302C267.122 156.535 266.789 155.785 266.415 155.054C265.626 153.502 264.727 152.007 263.727 150.582C262.728 149.104 261.628 147.658 260.465 146.243C259.301 144.828 258.107 143.437 256.841 142.062C256.22 141.378 255.584 140.71 254.939 140.049C254.295 139.389 253.619 138.698 253.045 138.147L259.215 131.396Z" fill="#FFC3BD"/>
<path d="M257.187 128.417C260.74 128.943 266.312 137.849 266.312 137.849L257.265 149.977C257.265 149.977 252.439 145.379 251.033 141.331C248.376 133.565 250.207 127.395 257.187 128.417Z" fill="#263238"/>
<path d="M252.447 158.945C252.174 158.942 251.907 158.868 251.671 158.73C251.436 158.592 251.24 158.395 251.103 158.159C250.563 157.102 250.329 155.915 250.427 154.732C250.469 154.244 250.427 153.752 250.302 153.278C249.987 152.79 249.591 152.359 249.13 152.005C248.225 151.331 247.522 150.423 247.095 149.379C246.803 148.232 246.855 147.024 247.244 145.905C247.387 145.479 247.464 145.034 247.472 144.585C247.274 144.045 246.987 143.543 246.623 143.099C245.813 142.267 245.339 141.165 245.291 140.005C245.243 138.844 245.625 137.707 246.364 136.811C246.577 136.491 246.749 136.145 246.875 135.781C246.834 135.185 246.69 134.6 246.45 134.052C246.001 133.125 245.847 132.083 246.01 131.065C246.303 129.619 247.033 128.296 248.101 127.277L248.203 127.175C248.496 126.896 248.886 126.741 249.29 126.743C249.695 126.744 250.084 126.901 250.375 127.182C250.667 127.462 250.839 127.844 250.856 128.248C250.873 128.653 250.734 129.048 250.467 129.352L250.286 129.533C249.643 130.152 249.212 130.958 249.052 131.836C249.137 132.23 249.255 132.617 249.406 132.991C249.818 133.943 250.024 134.972 250.011 136.009C249.889 136.87 249.568 137.691 249.075 138.407C248.735 138.871 248.511 139.41 248.423 139.979C248.608 140.465 248.874 140.917 249.209 141.315C249.844 142.104 250.307 143.017 250.569 143.995C250.689 144.907 250.6 145.834 250.309 146.707C250.11 147.26 250.038 147.851 250.097 148.436C250.396 148.918 250.782 149.339 251.237 149.678C252.036 150.306 252.697 151.093 253.178 151.989C253.518 152.872 253.658 153.82 253.587 154.763C253.529 155.375 253.607 155.993 253.815 156.571C254.028 156.929 254.091 157.356 253.989 157.76C253.888 158.164 253.63 158.511 253.273 158.725C253.023 158.873 252.737 158.949 252.447 158.945Z" fill="#6348EC"/>
<path opacity="0.2" d="M242.041 116.87L237.671 121.83C238 122.592 238.263 123.381 238.457 124.188C240.296 123.646 242.583 121.217 242.505 119.22C242.493 118.416 242.335 117.62 242.041 116.87Z" fill="#010101"/>
<path d="M232.852 100.553C230.911 103.933 232.153 108.743 232.153 108.743C232.674 109.082 233.276 109.275 233.896 109.302C234.517 109.33 235.133 109.191 235.682 108.9L235.132 99.9399L232.852 100.553Z" fill="#263238"/>
<path d="M248.156 109.136C246.671 115 246.097 118.505 242.528 120.981C237.16 124.707 230.353 120.604 230.062 114.418C229.795 108.845 232.271 100.199 238.528 98.9417C239.904 98.6566 241.33 98.7284 242.671 99.1502C244.012 99.572 245.222 100.33 246.187 101.352C247.152 102.373 247.84 103.625 248.184 104.988C248.529 106.35 248.519 107.778 248.156 109.136Z" fill="#FFC3BD"/>
<path d="M231.037 115.959H230.825L217.502 113.137C216.778 112.984 216.144 112.549 215.74 111.928C215.336 111.308 215.195 110.552 215.349 109.828C215.502 109.103 215.936 108.47 216.557 108.066C217.178 107.662 217.933 107.521 218.658 107.674C218.789 107.702 218.914 107.756 219.025 107.832C219.136 107.909 219.231 108.007 219.304 108.12C219.377 108.233 219.427 108.36 219.451 108.492C219.475 108.625 219.472 108.761 219.444 108.892C219.385 109.158 219.224 109.389 218.996 109.536C218.768 109.683 218.491 109.735 218.225 109.678C218.132 109.656 218.034 109.653 217.939 109.671C217.844 109.688 217.754 109.726 217.675 109.781C217.595 109.832 217.526 109.899 217.473 109.977C217.419 110.056 217.381 110.144 217.361 110.237C217.326 110.426 217.362 110.622 217.463 110.787C217.572 110.943 217.734 111.055 217.919 111.101L231.241 113.923C231.489 113.977 231.708 114.12 231.857 114.325C232.005 114.531 232.073 114.784 232.047 115.036C232.02 115.288 231.902 115.521 231.714 115.692C231.527 115.862 231.283 115.957 231.029 115.959H231.037Z" fill="#6348EC"/>
<path d="M230.982 116.194L229.371 115.849L229.882 113.491L231.454 113.829C231.771 113.896 232.049 114.088 232.226 114.36C232.403 114.633 232.464 114.965 232.397 115.283C232.318 115.584 232.129 115.846 231.867 116.015C231.605 116.184 231.289 116.248 230.982 116.194Z" fill="white"/>
<path d="M244.517 105.913C244.517 103.681 242.835 102.054 237.223 102.487C232.64 102.832 230.408 100.694 231.721 97.7155C235.431 99.6491 234.817 97.1182 241.891 96.8116C248.965 96.5051 251.017 99.1696 251.764 103.312C256.095 109.733 248.62 112.398 248.62 112.398L245.696 114.952C245.09 115.09 244.458 115.063 243.867 114.874C243.275 114.684 242.745 114.34 242.332 113.876C242.332 113.876 241.758 108.664 244.517 105.913Z" fill="#263238"/>
<path d="M237.003 95.7033L236.822 95.7977C236.654 95.8872 236.512 96.0195 236.411 96.1812C236.31 96.3429 236.254 96.5283 236.248 96.7188C236.241 96.9092 236.285 97.098 236.375 97.266C236.465 97.4341 236.597 97.5756 236.759 97.6762L253.171 107.823C253.325 107.918 253.501 107.973 253.681 107.982C253.862 107.991 254.043 107.955 254.206 107.877C254.369 107.799 254.51 107.681 254.616 107.535C254.723 107.388 254.79 107.217 254.813 107.037C254.89 106.531 254.816 106.012 254.601 105.547C254.386 105.082 254.039 104.69 253.603 104.42L239.612 95.7741C239.221 95.5357 238.775 95.4038 238.317 95.3914C237.859 95.379 237.406 95.4865 237.003 95.7033Z" fill="#6348EC"/>
<path d="M239.958 96.788L244.155 90.6415C244.275 90.4663 244.458 90.3435 244.665 90.2983C244.872 90.253 245.089 90.2886 245.271 90.3978L256.857 97.3382C256.958 97.3975 257.046 97.4777 257.114 97.5736C257.182 97.6694 257.229 97.7786 257.251 97.894C257.273 98.0093 257.271 98.128 257.243 98.2423C257.216 98.3566 257.165 98.4637 257.093 98.5565L252.07 105.19L239.958 96.788Z" fill="#6348EC"/>
<path d="M239.958 96.788L241.632 93.7934L254.57 102.345L252.07 105.19L239.958 96.788Z" fill="#6348EC"/>
<path opacity="0.6" d="M239.958 96.788L241.632 93.7934L254.57 102.345L252.07 105.19L239.958 96.788Z" fill="white"/>
<path d="M248.903 116.328C247.753 117.112 246.343 117.417 244.973 117.177C243.188 116.831 243.188 115.023 244.422 113.742C245.531 112.587 247.802 111.384 249.233 112.382C250.663 113.381 250.325 115.346 248.903 116.328Z" fill="#FFC3BD"/>
<path d="M245.405 310.321H255.717C255.717 310.321 254.098 273.646 251.874 254.798C251.198 249.06 251.929 241.2 251.999 232.42C252.094 221.361 252.605 209.312 253.108 199.856C253.642 189.898 254.09 182.721 254.09 182.721L232.994 185.732C232.994 185.732 230.903 237.946 234.181 256.244C237.592 275.249 245.405 310.321 245.405 310.321Z" fill="#6348EC"/>
<path opacity="0.2" d="M251.999 232.397C252.094 221.338 252.605 209.288 253.108 199.833L249.964 195.628C246.081 202.898 248.777 222.257 251.999 232.397Z" fill="#010101"/>
<path d="M243.047 184.27C243.047 184.27 256.149 236.012 262.375 252.746C269.189 271.06 294.286 292.471 294.286 292.471L300.629 285.491C300.629 285.491 287.354 264.796 277.568 244.886C272.891 219.035 265.251 181.094 265.251 181.094L243.047 184.27Z" fill="#6348EC"/>
<path d="M293.437 293.524L303.38 284.933L300.81 281.97L289.531 291.378L293.437 293.524Z" fill="#263238"/>
<path d="M244.108 310.556L256.401 310.541L256.393 306.571L242.662 306.383L244.108 310.556Z" fill="#263238"/>
<path d="M239.101 107.989C238.708 107.871 238.244 108.248 238.056 108.837L239.455 109.285C239.643 108.696 239.486 108.114 239.101 107.989Z" fill="#263238"/>
<path d="M232.971 106.833C232.57 106.833 232.185 107.289 232.185 107.91L233.647 108.004C233.67 107.383 233.379 106.896 232.971 106.833Z" fill="#263238"/>
<path d="M235.085 108.625C234.228 109.992 233.189 111.235 231.996 112.319C232.283 112.617 232.631 112.849 233.016 112.998C233.402 113.147 233.815 113.211 234.228 113.184L235.085 108.625Z" fill="#ED847E"/>
<path d="M241.097 107.36C241.146 107.371 241.198 107.371 241.247 107.36C241.319 107.336 241.38 107.285 241.415 107.218C241.45 107.15 241.458 107.071 241.435 106.998C241.313 106.557 241.086 106.152 240.775 105.816C240.463 105.481 240.075 105.226 239.643 105.072C239.607 105.061 239.569 105.056 239.531 105.06C239.493 105.063 239.457 105.075 239.423 105.093C239.39 105.112 239.361 105.137 239.338 105.167C239.315 105.197 239.299 105.232 239.29 105.269C239.279 105.305 239.275 105.343 239.28 105.38C239.284 105.418 239.295 105.454 239.313 105.487C239.332 105.52 239.356 105.549 239.386 105.572C239.416 105.596 239.45 105.613 239.486 105.623C239.828 105.754 240.133 105.965 240.376 106.239C240.62 106.512 240.794 106.84 240.885 107.195C240.906 107.236 240.935 107.273 240.972 107.302C241.009 107.33 241.052 107.35 241.097 107.36Z" fill="#263238"/>
<path d="M231.155 106.008C231.202 106.016 231.25 106.012 231.295 105.997C231.34 105.982 231.381 105.956 231.414 105.921C231.651 105.648 231.949 105.435 232.283 105.299C232.618 105.162 232.98 105.106 233.34 105.135C233.416 105.147 233.493 105.127 233.555 105.082C233.617 105.036 233.658 104.968 233.67 104.892C233.681 104.818 233.663 104.742 233.618 104.682C233.574 104.621 233.508 104.581 233.434 104.569C232.978 104.524 232.518 104.589 232.093 104.759C231.668 104.929 231.289 105.198 230.99 105.544C230.962 105.57 230.94 105.602 230.925 105.637C230.91 105.672 230.902 105.71 230.902 105.748C230.902 105.787 230.91 105.824 230.925 105.86C230.94 105.895 230.962 105.926 230.99 105.953C231.039 105.986 231.096 106.005 231.155 106.008Z" fill="#263238"/>
<path d="M300.637 298.35C301.037 297.984 301.395 297.576 301.706 297.132C301.721 297.108 301.73 297.081 301.73 297.053C301.73 297.025 301.721 296.998 301.706 296.974C301.694 296.948 301.673 296.927 301.648 296.914C301.622 296.901 301.593 296.897 301.564 296.904C301.313 296.904 299.073 297.273 298.782 297.988C298.75 298.067 298.739 298.152 298.75 298.236C298.761 298.32 298.794 298.4 298.845 298.468C298.919 298.589 299.023 298.689 299.147 298.759C299.271 298.829 299.41 298.867 299.552 298.869C299.963 298.826 300.346 298.643 300.637 298.35ZM301.266 297.249C300.613 298.09 299.985 298.578 299.56 298.578C299.464 298.575 299.37 298.548 299.287 298.498C299.204 298.449 299.136 298.379 299.089 298.295C299.07 298.267 299.061 298.234 299.061 298.201C299.061 298.167 299.07 298.134 299.089 298.106C299.199 297.737 300.37 297.407 301.266 297.249Z" fill="#6348EC"/>
<path d="M301.682 297.163C301.703 297.143 301.719 297.119 301.729 297.092C301.741 297.069 301.747 297.044 301.747 297.018C301.747 296.992 301.741 296.966 301.729 296.943C301.674 296.888 300.472 295.607 299.576 295.615C299.466 295.615 299.358 295.638 299.258 295.683C299.157 295.727 299.068 295.793 298.994 295.874C298.911 295.946 298.855 296.045 298.835 296.153C298.815 296.262 298.832 296.374 298.884 296.471C299.206 297.084 300.959 297.336 301.651 297.194L301.682 297.163ZM299.214 296.031C299.306 295.952 299.424 295.91 299.544 295.913C300.118 295.913 300.904 296.581 301.281 296.935C300.495 296.974 299.293 296.691 299.096 296.33C299.096 296.291 299.041 296.212 299.167 296.078L299.214 296.031Z" fill="#6348EC"/>
<path d="M247.928 318.692C247.953 318.683 247.976 318.667 247.992 318.646C248.009 318.625 248.02 318.6 248.023 318.574C248.029 318.544 248.026 318.514 248.013 318.487C248 318.46 247.979 318.438 247.952 318.424C247.669 318.283 245.224 317.041 244.486 317.458C244.415 317.495 244.355 317.55 244.312 317.617C244.269 317.685 244.245 317.763 244.242 317.843C244.226 317.973 244.242 318.105 244.29 318.227C244.338 318.35 244.416 318.458 244.517 318.542C245.185 319.132 246.93 318.888 247.912 318.692H247.928ZM244.674 317.685C245.138 317.528 246.466 318.031 247.433 318.471C246.089 318.699 245.075 318.644 244.706 318.306C244.64 318.25 244.59 318.178 244.559 318.097C244.529 318.016 244.52 317.928 244.533 317.843C244.533 317.811 244.542 317.781 244.558 317.754C244.575 317.728 244.599 317.707 244.627 317.693L244.674 317.685Z" fill="#6348EC"/>
<path d="M247.928 318.692H247.967C247.988 318.676 248.004 318.655 248.015 318.632C248.026 318.609 248.031 318.584 248.03 318.558C248.03 318.495 247.85 316.852 247.079 316.2C246.972 316.108 246.846 316.039 246.711 315.997C246.576 315.956 246.434 315.942 246.293 315.956C245.892 315.956 245.782 316.2 245.759 316.357C245.649 317.049 247.103 318.361 247.842 318.715C247.872 318.716 247.902 318.708 247.928 318.692ZM246.16 316.263H246.309C246.414 316.251 246.52 316.262 246.62 316.294C246.721 316.327 246.813 316.38 246.891 316.451C247.339 316.979 247.614 317.632 247.677 318.322C246.93 317.874 245.932 316.844 246.002 316.428C246.018 316.373 246.018 316.302 246.16 316.263Z" fill="#6348EC"/>
<path d="M258.241 166.27L252.377 168.125L256.928 172.653C256.928 172.653 262.241 170.35 260.575 168.007L258.241 166.27Z" fill="#FFC3BD"/>
<path d="M249.964 173.297L254.138 175.828L256.928 172.653L252.377 168.125L249.964 173.297Z" fill="#FFC3BD"/>
</svg>
