<svg width="20" height="22" viewBox="0 0 20 22" fill="none" xmlns="http://www.w3.org/2000/svg">
<path fill-rule="evenodd" clip-rule="evenodd" d="M12.75 7.5721e-08H8.694C6.856 7.5721e-08 5.4 7.45058e-08 4.261 0.153C3.089 0.311 2.14 0.643 1.391 1.391C0.643 2.14 0.311 3.089 0.153 4.261C1.93715e-07 5.401 7.5721e-08 6.856 7.5721e-08 8.694V14.75C-0.00017939 15.6435 0.31866 16.5077 0.899098 17.1869C1.47954 17.8662 2.28343 18.3159 3.166 18.455C3.303 19.219 3.568 19.871 4.098 20.402C4.7 21.004 5.458 21.262 6.358 21.384C7.225 21.5 8.328 21.5 9.695 21.5H12.805C14.172 21.5 15.275 21.5 16.142 21.384C17.042 21.262 17.8 21.004 18.402 20.402C19.004 19.8 19.262 19.042 19.384 18.142C19.5 17.275 19.5 16.172 19.5 14.805V9.695C19.5 8.328 19.5 7.225 19.384 6.358C19.262 5.458 19.004 4.7 18.402 4.098C17.871 3.568 17.219 3.303 16.455 3.166C16.3159 2.28343 15.8662 1.47954 15.1869 0.899098C14.5077 0.31866 13.6435 -0.00017939 12.75 7.5721e-08ZM14.88 3.021C14.7279 2.577 14.4409 2.19166 14.0589 1.91893C13.677 1.64619 13.2193 1.49971 12.75 1.5H8.75C6.843 1.5 5.489 1.502 4.46 1.64C3.455 1.775 2.875 2.029 2.452 2.452C2.029 2.875 1.775 3.455 1.64 4.46C1.502 5.489 1.5 6.843 1.5 8.75V14.75C1.49971 15.2193 1.64619 15.677 1.91892 16.0589C2.19166 16.4408 2.577 16.7279 3.021 16.88C3 16.27 3 15.58 3 14.805V9.695C3 8.328 3 7.225 3.117 6.358C3.237 5.458 3.497 4.7 4.098 4.098C4.7 3.496 5.458 3.238 6.358 3.117C7.225 3 8.328 3 9.695 3H12.805C13.58 3 14.27 3 14.88 3.021ZM5.158 5.16C5.435 4.883 5.823 4.703 6.558 4.604C7.312 4.503 8.314 4.501 9.749 4.501H12.749C14.184 4.501 15.185 4.503 15.941 4.604C16.675 4.703 17.063 4.884 17.34 5.16C17.617 5.437 17.797 5.825 17.896 6.56C17.997 7.314 17.999 8.316 17.999 9.751V14.751C17.999 16.186 17.997 17.187 17.896 17.943C17.797 18.677 17.616 19.065 17.34 19.342C17.063 19.619 16.675 19.799 15.94 19.898C15.185 19.999 14.184 20.001 12.749 20.001H9.749C8.314 20.001 7.312 19.999 6.557 19.898C5.823 19.799 5.435 19.618 5.158 19.342C4.881 19.065 4.701 18.677 4.602 17.942C4.501 17.187 4.499 16.186 4.499 14.751V9.751C4.499 8.316 4.501 7.314 4.602 6.559C4.701 5.825 4.882 5.437 5.158 5.16Z" fill="#010101"/>
</svg>
