<svg width="36" height="46" viewBox="0 0 36 46" fill="none" xmlns="http://www.w3.org/2000/svg">
<path d="M21.7444 44.8613C21.7178 44.4941 21.7907 43.6587 22.0344 42.4863C22.2904 41.2555 22.7336 39.6484 23.4465 37.8115C24.8728 34.137 27.3785 29.5413 31.6204 25.1973C32.9621 23.823 33.879 21.9289 34.4993 19.7803C35.1194 17.6317 35.442 15.2312 35.5959 12.8477C35.902 8.10703 35.5417 3.44474 35.5374 0.958984L20.8401 0.936523C21.5686 6.15287 22.0341 9.36467 21.9465 11.334C21.9025 12.3225 21.7197 13.0071 21.3528 13.4756C20.9849 13.9454 20.4384 14.1903 19.6877 14.3154C18.5852 14.5017 17.7662 14.5382 17.134 14.2852C16.4979 14.0305 16.0601 13.4872 15.7083 12.54C15.3568 11.5939 15.0874 10.2371 14.7942 8.34375C14.5021 6.45765 14.1857 4.03329 13.7385 0.947266H3.14771C3.32936 2.43475 3.38236 4.39623 3.40356 6.54785C3.42502 8.72508 3.4147 11.0976 3.4729 13.376C3.53111 15.6544 3.65725 17.8367 3.95337 19.6318C4.10143 20.5293 4.29195 21.3291 4.53638 21.9951C4.78089 22.6613 5.07891 23.191 5.44067 23.5518C10.0769 28.1726 12.9451 32.798 14.634 36.624C16.3039 40.4069 16.8207 43.412 16.7532 44.8613H21.7444Z" fill="#6348EC" stroke="#5038C3" stroke-width="0.0902967"/>
<mask id="mask0_1_2485" style="mask-type:luminance" maskUnits="userSpaceOnUse" x="3" y="0" width="33" height="45">
<path d="M21.7444 44.8613C21.7178 44.4941 21.7907 43.6587 22.0344 42.4863C22.2904 41.2555 22.7336 39.6484 23.4465 37.8115C24.8728 34.137 27.3785 29.5413 31.6204 25.1973C32.9622 23.823 33.879 21.9289 34.4993 19.7803C35.1194 17.6318 35.442 15.2312 35.5959 12.8477C35.902 8.10711 35.5417 3.44478 35.5374 0.958984L20.8401 0.936523C21.5686 6.15286 22.0341 9.36468 21.9465 11.334C21.9025 12.3225 21.7197 13.0071 21.3528 13.4756C20.9849 13.9453 20.4384 14.1903 19.6877 14.3154C18.5852 14.5017 17.7662 14.5381 17.134 14.2852C16.498 14.0305 16.0601 13.4871 15.7083 12.54C15.3568 11.5939 15.0874 10.2363 14.7942 8.34277C14.5021 6.45676 14.1856 4.03299 13.7385 0.947266H3.14771C3.32935 2.43478 3.38237 4.39625 3.40356 6.54785C3.42501 8.7251 3.41374 11.0975 3.47192 13.376C3.53011 15.6544 3.65726 17.8367 3.95337 19.6318C4.10143 20.5293 4.29194 21.3291 4.53638 21.9951C4.78091 22.6614 5.07888 23.191 5.44067 23.5518C10.077 28.1727 12.9451 32.798 14.634 36.624C16.3039 40.4069 16.8208 43.4119 16.7532 44.8613H21.7444Z" fill="white" stroke="white" stroke-width="0.0902967"/>
</mask>
<g mask="url(#mask0_1_2485)">
<path d="M19.4307 2.60991C16.8842 -0.587307 25.0637 6.60606 29.2128 12.3111C29.3584 12.4565 29.6494 12.6021 29.795 12.7476C30.2314 13.3296 30.668 13.9116 31.1045 14.3482C31.8321 14.9303 32.4141 15.6579 33.1418 16.2399C37.3616 20.6052 41.2902 24.825 45.3837 29.2122" stroke="#5038C3" stroke-width="0.804183" stroke-miterlimit="10" stroke-linecap="round" stroke-linejoin="round"/>
</g>
<mask id="mask1_1_2485" style="mask-type:luminance" maskUnits="userSpaceOnUse" x="3" y="0" width="33" height="45">
<path d="M21.7441 44.8613C21.7175 44.4941 21.7904 43.6587 22.0342 42.4863C22.2901 41.2555 22.7333 39.6484 23.4463 37.8115C24.8725 34.137 27.3782 29.5413 31.6201 25.1973C32.9619 23.823 33.8788 21.9289 34.499 19.7803C35.1192 17.6318 35.4418 15.2312 35.5957 12.8477C35.9018 8.10711 35.5415 3.44478 35.5371 0.958984L20.8398 0.936523C21.5684 6.15286 22.0339 9.36468 21.9463 11.334C21.9023 12.3225 21.7194 13.0071 21.3525 13.4756C20.9846 13.9453 20.4381 14.1903 19.6875 14.3154C18.585 14.5017 17.7659 14.5381 17.1338 14.2852C16.4977 14.0305 16.0599 13.4871 15.708 12.54C15.3565 11.5939 15.0872 10.2363 14.7939 8.34277C14.5019 6.45676 14.1854 4.03299 13.7383 0.947266H3.14746C3.3291 2.43478 3.38213 4.39625 3.40332 6.54785C3.42476 8.7251 3.4135 11.0975 3.47168 13.376C3.52987 15.6544 3.65701 17.8367 3.95312 19.6318C4.10118 20.5293 4.2917 21.3291 4.53613 21.9951C4.78066 22.6614 5.07863 23.191 5.44043 23.5518C10.0768 28.1727 12.9448 32.798 14.6338 36.624C16.3037 40.4069 16.8205 43.4119 16.7529 44.8613H21.7441Z" fill="white" stroke="white" stroke-width="0.0902967"/>
</mask>
<g mask="url(#mask1_1_2485)">
<path d="M23.3984 -3.87422C24.5388 -2.44237 32.0165 4.22632 33.1805 5.82698C33.3261 5.97242 33.6171 6.118 33.7626 6.26344C34.1992 6.84547 34.6358 7.4275 35.0722 7.8641C35.7998 8.44614 36.3819 9.17375 37.1095 9.75579C41.3293 14.121 45.258 18.3409 49.3515 22.728" stroke="#5038C3" stroke-width="0.804183" stroke-miterlimit="10" stroke-linecap="round" stroke-linejoin="round"/>
</g>
<mask id="mask2_1_2485" style="mask-type:luminance" maskUnits="userSpaceOnUse" x="3" y="0" width="33" height="45">
<path d="M21.7441 44.8613C21.7175 44.4941 21.7904 43.6587 22.0342 42.4863C22.2901 41.2555 22.7333 39.6484 23.4463 37.8115C24.8725 34.137 27.3782 29.5413 31.6201 25.1973C32.9619 23.823 33.8788 21.9289 34.499 19.7803C35.1192 17.6318 35.4418 15.2312 35.5957 12.8477C35.9018 8.10711 35.5415 3.44478 35.5371 0.958984L20.8398 0.936523C21.5684 6.15286 22.0339 9.36468 21.9463 11.334C21.9023 12.3225 21.7194 13.0071 21.3525 13.4756C20.9846 13.9453 20.4381 14.1903 19.6875 14.3154C18.585 14.5017 17.7659 14.5381 17.1338 14.2852C16.4977 14.0305 16.0599 13.4871 15.708 12.54C15.3565 11.5939 15.0872 10.2363 14.7939 8.34277C14.5019 6.45676 14.1854 4.03299 13.7383 0.947266H3.14746C3.3291 2.43478 3.38213 4.39625 3.40332 6.54785C3.42476 8.7251 3.4135 11.0975 3.47168 13.376C3.52987 15.6544 3.65701 17.8367 3.95312 19.6318C4.10118 20.5293 4.2917 21.3291 4.53613 21.9951C4.78066 22.6614 5.07863 23.191 5.44043 23.5518C10.0768 28.1727 12.9448 32.798 14.6338 36.624C16.3037 40.4069 16.8205 43.4119 16.7529 44.8613H21.7441Z" fill="white" stroke="white" stroke-width="0.0902967"/>
</mask>
<g mask="url(#mask2_1_2485)">
<path d="M7.21899 1.19018C14.9891 9.30205 30.5223 24.3896 38.5255 32.5383C38.8165 32.9749 39.1075 33.4113 39.3985 33.7023C40.417 34.4299 40.999 35.594 41.9622 36.2708" stroke="#5038C3" stroke-width="0.804183" stroke-miterlimit="10" stroke-linecap="round" stroke-linejoin="round"/>
</g>
<mask id="mask3_1_2485" style="mask-type:luminance" maskUnits="userSpaceOnUse" x="3" y="0" width="33" height="45">
<path d="M21.7444 44.8613C21.7178 44.4941 21.7907 43.6587 22.0344 42.4863C22.2904 41.2555 22.7336 39.6484 23.4465 37.8115C24.8728 34.137 27.3785 29.5413 31.6204 25.1973C32.9622 23.823 33.879 21.9289 34.4993 19.7803C35.1194 17.6318 35.442 15.2312 35.5959 12.8477C35.902 8.10711 35.5417 3.44478 35.5374 0.958984L20.8401 0.936523C21.5686 6.15286 22.0341 9.36468 21.9465 11.334C21.9025 12.3225 21.7197 13.0071 21.3528 13.4756C20.9849 13.9453 20.4384 14.1903 19.6877 14.3154C18.5852 14.5017 17.7662 14.5381 17.134 14.2852C16.498 14.0305 16.0601 13.4871 15.7083 12.54C15.3568 11.5939 15.0874 10.2363 14.7942 8.34277C14.5021 6.45676 14.1856 4.03299 13.7385 0.947266H3.14771C3.32935 2.43478 3.38237 4.39625 3.40356 6.54785C3.42501 8.7251 3.41374 11.0975 3.47192 13.376C3.53011 15.6544 3.65726 17.8367 3.95337 19.6318C4.10143 20.5293 4.29194 21.3291 4.53638 21.9951C4.78091 22.6614 5.07888 23.191 5.44067 23.5518C10.077 28.1727 12.9451 32.798 14.634 36.624C16.3039 40.4069 16.8208 43.4119 16.7532 44.8613H21.7444Z" fill="white" stroke="white" stroke-width="0.0902967"/>
</mask>
<g mask="url(#mask3_1_2485)">
<path d="M1.92749 5.30901C5.55292 9.10532 12.4297 16.1909 21.0636 24.8248C21.5002 25.4068 21.9366 25.8434 22.3732 26.4255C27.0297 31.3728 31.3949 35.8836 36.0512 40.831C36.9244 41.7041 37.6518 42.4316 38.5403 43.3267" stroke="#5038C3" stroke-width="0.804183" stroke-miterlimit="10" stroke-linecap="round" stroke-linejoin="round"/>
</g>
<mask id="mask4_1_2485" style="mask-type:luminance" maskUnits="userSpaceOnUse" x="3" y="0" width="33" height="45">
<path d="M21.7444 44.8613C21.7178 44.4941 21.7907 43.6587 22.0344 42.4863C22.2904 41.2555 22.7336 39.6484 23.4465 37.8115C24.8728 34.137 27.3785 29.5413 31.6204 25.1973C32.9622 23.823 33.879 21.9289 34.4993 19.7803C35.1194 17.6318 35.442 15.2312 35.5959 12.8477C35.902 8.10711 35.5417 3.44478 35.5374 0.958984L20.8401 0.936523C21.5686 6.15286 22.0341 9.36468 21.9465 11.334C21.9025 12.3225 21.7197 13.0071 21.3528 13.4756C20.9849 13.9453 20.4384 14.1903 19.6877 14.3154C18.5852 14.5017 17.7662 14.5381 17.134 14.2852C16.498 14.0305 16.0601 13.4871 15.7083 12.54C15.3568 11.5939 15.0874 10.2363 14.7942 8.34277C14.5021 6.45676 14.1856 4.03299 13.7385 0.947266H3.14771C3.32935 2.43478 3.38237 4.39625 3.40356 6.54785C3.42501 8.7251 3.41374 11.0975 3.47192 13.376C3.53011 15.6544 3.65726 17.8367 3.95337 19.6318C4.10143 20.5293 4.29194 21.3291 4.53638 21.9951C4.78091 22.6614 5.07888 23.191 5.44067 23.5518C10.077 28.1727 12.9451 32.798 14.634 36.624C16.3039 40.4069 16.8208 43.4119 16.7532 44.8613H21.7444Z" fill="white" stroke="white" stroke-width="0.0902967"/>
</mask>
<g mask="url(#mask4_1_2485)">
<path d="M-3.23291 10.0665L35.1193 50.3845" stroke="#5038C3" stroke-width="0.804183" stroke-miterlimit="10" stroke-linecap="round" stroke-linejoin="round"/>
</g>
<mask id="mask5_1_2485" style="mask-type:luminance" maskUnits="userSpaceOnUse" x="3" y="0" width="33" height="45">
<path d="M21.7444 44.8613C21.7178 44.4941 21.7907 43.6587 22.0344 42.4863C22.2904 41.2555 22.7336 39.6484 23.4465 37.8115C24.8728 34.137 27.3785 29.5413 31.6204 25.1973C32.9622 23.823 33.879 21.9289 34.4993 19.7803C35.1194 17.6318 35.442 15.2312 35.5959 12.8477C35.902 8.10711 35.5417 3.44478 35.5374 0.958984L20.8401 0.936523C21.5686 6.15286 22.0341 9.36468 21.9465 11.334C21.9025 12.3225 21.7197 13.0071 21.3528 13.4756C20.9849 13.9453 20.4384 14.1903 19.6877 14.3154C18.5852 14.5017 17.7662 14.5381 17.134 14.2852C16.498 14.0305 16.0601 13.4871 15.7083 12.54C15.3568 11.5939 15.0874 10.2363 14.7942 8.34277C14.5021 6.45676 14.1856 4.03299 13.7385 0.947266H3.14771C3.32935 2.43478 3.38237 4.39625 3.40356 6.54785C3.42501 8.7251 3.41374 11.0975 3.47192 13.376C3.53011 15.6544 3.65726 17.8367 3.95337 19.6318C4.10143 20.5293 4.29194 21.3291 4.53638 21.9951C4.78091 22.6614 5.07888 23.191 5.44067 23.5518C10.077 28.1727 12.9451 32.798 14.634 36.624C16.3039 40.4069 16.8208 43.4119 16.7532 44.8613H21.7444Z" fill="white" stroke="white" stroke-width="0.0902967"/>
</mask>
<g mask="url(#mask5_1_2485)">
<path d="M-6.65454 17.1242L31.6976 57.4421" stroke="#5038C3" stroke-width="0.804183" stroke-miterlimit="10" stroke-linecap="round" stroke-linejoin="round"/>
</g>
<mask id="mask6_1_2485" style="mask-type:luminance" maskUnits="userSpaceOnUse" x="3" y="0" width="33" height="45">
<path d="M21.7444 44.8613C21.7178 44.4941 21.7907 43.6587 22.0344 42.4863C22.2904 41.2555 22.7336 39.6484 23.4465 37.8115C24.8728 34.137 27.3785 29.5413 31.6204 25.1973C32.9622 23.823 33.879 21.9289 34.4993 19.7803C35.1194 17.6318 35.442 15.2312 35.5959 12.8477C35.902 8.10711 35.5417 3.44478 35.5374 0.958984L20.8401 0.936523C21.5686 6.15286 22.0341 9.36468 21.9465 11.334C21.9025 12.3225 21.7197 13.0071 21.3528 13.4756C20.9849 13.9453 20.4384 14.1903 19.6877 14.3154C18.5852 14.5017 17.7662 14.5381 17.134 14.2852C16.498 14.0305 16.0601 13.4871 15.7083 12.54C15.3568 11.5939 15.0874 10.2363 14.7942 8.34277C14.5021 6.45676 14.1856 4.03299 13.7385 0.947266H3.14771C3.32935 2.43478 3.38237 4.39625 3.40356 6.54785C3.42501 8.7251 3.41374 11.0975 3.47192 13.376C3.53011 15.6544 3.65726 17.8367 3.95337 19.6318C4.10143 20.5293 4.29194 21.3291 4.53638 21.9951C4.78091 22.6614 5.07888 23.191 5.44067 23.5518C10.077 28.1727 12.9451 32.798 14.634 36.624C16.3039 40.4069 16.8208 43.4119 16.7532 44.8613H21.7444Z" fill="white" stroke="white" stroke-width="0.0902967"/>
</mask>
<g mask="url(#mask6_1_2485)">
<path d="M13.2761 8.26011C9.56845 12.4567 5.63964 16.2401 1.71084 20.3143C1.41982 20.7508 1.1288 21.1874 0.837787 21.4784C-1.78137 23.9521 -4.10965 26.5712 -6.65454 29.2122" stroke="#5038C3" stroke-width="0.804183" stroke-miterlimit="10" stroke-linecap="round" stroke-linejoin="round"/>
</g>
<mask id="mask7_1_2485" style="mask-type:luminance" maskUnits="userSpaceOnUse" x="3" y="0" width="33" height="45">
<path d="M21.7444 44.8613C21.7178 44.4941 21.7907 43.6587 22.0344 42.4863C22.2904 41.2555 22.7336 39.6484 23.4465 37.8115C24.8728 34.137 27.3785 29.5413 31.6204 25.1973C32.9622 23.823 33.879 21.9289 34.4993 19.7803C35.1194 17.6318 35.442 15.2312 35.5959 12.8477C35.902 8.10711 35.5417 3.44478 35.5374 0.958984L20.8401 0.936523C21.5686 6.15286 22.0341 9.36468 21.9465 11.334C21.9025 12.3225 21.7197 13.0071 21.3528 13.4756C20.9849 13.9453 20.4384 14.1903 19.6877 14.3154C18.5852 14.5017 17.7662 14.5381 17.134 14.2852C16.498 14.0305 16.0601 13.4871 15.7083 12.54C15.3568 11.5939 15.0874 10.2363 14.7942 8.34277C14.5021 6.45676 14.1856 4.03299 13.7385 0.947266H3.14771C3.32935 2.43478 3.38237 4.39625 3.40356 6.54785C3.42501 8.7251 3.41374 11.0975 3.47192 13.376C3.53011 15.6544 3.65726 17.8367 3.95337 19.6318C4.10143 20.5293 4.29194 21.3291 4.53638 21.9951C4.78091 22.6614 5.07888 23.191 5.44067 23.5518C10.077 28.1727 12.9451 32.798 14.634 36.624C16.3039 40.4069 16.8208 43.4119 16.7532 44.8613H21.7444Z" fill="white" stroke="white" stroke-width="0.0902967"/>
</mask>
<g mask="url(#mask7_1_2485)">
<path d="M13.2761 -2.21548C9.56845 1.98111 5.63964 5.76448 1.71084 9.83872C1.41982 10.2752 1.1288 10.7118 0.837787 11.0028C-1.78137 13.4765 -4.10965 16.0957 -6.65454 18.7366" stroke="#5038C3" stroke-width="0.804183" stroke-miterlimit="10" stroke-linecap="round" stroke-linejoin="round"/>
</g>
<mask id="mask8_1_2485" style="mask-type:luminance" maskUnits="userSpaceOnUse" x="3" y="0" width="33" height="45">
<path d="M21.7444 44.8613C21.7178 44.4941 21.7907 43.6587 22.0344 42.4863C22.2904 41.2555 22.7336 39.6484 23.4465 37.8115C24.8728 34.137 27.3785 29.5413 31.6204 25.1973C32.9622 23.823 33.879 21.9289 34.4993 19.7803C35.1194 17.6318 35.442 15.2312 35.5959 12.8477C35.902 8.10711 35.5417 3.44478 35.5374 0.958984L20.8401 0.936523C21.5686 6.15286 22.0341 9.36468 21.9465 11.334C21.9025 12.3225 21.7197 13.0071 21.3528 13.4756C20.9849 13.9453 20.4384 14.1903 19.6877 14.3154C18.5852 14.5017 17.7662 14.5381 17.134 14.2852C16.498 14.0305 16.0601 13.4871 15.7083 12.54C15.3568 11.5939 15.0874 10.2363 14.7942 8.34277C14.5021 6.45676 14.1856 4.03299 13.7385 0.947266H3.14771C3.32935 2.43478 3.38237 4.39625 3.40356 6.54785C3.42501 8.7251 3.41374 11.0975 3.47192 13.376C3.53011 15.6544 3.65726 17.8367 3.95337 19.6318C4.10143 20.5293 4.29194 21.3291 4.53638 21.9951C4.78091 22.6614 5.07888 23.191 5.44067 23.5518C10.077 28.1727 12.9451 32.798 14.634 36.624C16.3039 40.4069 16.8208 43.4119 16.7532 44.8613H21.7444Z" fill="white" stroke="white" stroke-width="0.0902967"/>
</mask>
<g mask="url(#mask8_1_2485)">
<path d="M31.6978 -0.451452C26.4155 5.01096 12.1319 20.1066 1.711 30.936C0.110476 32.8277 -1.63577 34.4284 -3.23291 36.269" stroke="#5038C3" stroke-width="0.804183" stroke-miterlimit="10" stroke-linecap="round" stroke-linejoin="round"/>
</g>
<mask id="mask9_1_2485" style="mask-type:luminance" maskUnits="userSpaceOnUse" x="3" y="0" width="33" height="45">
<path d="M21.7444 44.8613C21.7178 44.4941 21.7907 43.6587 22.0344 42.4863C22.2904 41.2555 22.7336 39.6484 23.4465 37.8115C24.8728 34.137 27.3785 29.5413 31.6204 25.1973C32.9622 23.823 33.879 21.9289 34.4993 19.7803C35.1194 17.6318 35.442 15.2312 35.5959 12.8477C35.902 8.10711 35.5417 3.44478 35.5374 0.958984L20.8401 0.936523C21.5686 6.15286 22.0341 9.36468 21.9465 11.334C21.9025 12.3225 21.7197 13.0071 21.3528 13.4756C20.9849 13.9453 20.4384 14.1903 19.6877 14.3154C18.5852 14.5017 17.7662 14.5381 17.134 14.2852C16.498 14.0305 16.0601 13.4871 15.7083 12.54C15.3568 11.5939 15.0874 10.2363 14.7942 8.34277C14.5021 6.45676 14.1856 4.03299 13.7385 0.947266H3.14771C3.32935 2.43478 3.38237 4.39625 3.40356 6.54785C3.42501 8.7251 3.41374 11.0975 3.47192 13.376C3.53011 15.6544 3.65726 17.8367 3.95337 19.6318C4.10143 20.5293 4.29194 21.3291 4.53638 21.9951C4.78091 22.6614 5.07888 23.191 5.44067 23.5518C10.077 28.1727 12.9451 32.798 14.634 36.624C16.3039 40.4069 16.8208 43.4119 16.7532 44.8613H21.7444Z" fill="white" stroke="white" stroke-width="0.0902967"/>
</mask>
<g mask="url(#mask9_1_2485)">
<path d="M37.2498 4.17181C34.3825 6.90214 29.2202 11.8834 26.4556 14.6481C20.4895 20.6141 14.2249 28.6092 8.40445 34.5751C8.11343 35.0115 7.82242 35.4481 7.5314 35.7391C4.91225 38.2129 2.72954 40.832 0.188477 43.3276" stroke="#5038C3" stroke-width="0.804183" stroke-miterlimit="10" stroke-linecap="round" stroke-linejoin="round"/>
</g>
<mask id="mask10_1_2485" style="mask-type:luminance" maskUnits="userSpaceOnUse" x="3" y="0" width="33" height="45">
<path d="M21.7441 44.8613C21.7175 44.4941 21.7904 43.6587 22.0342 42.4863C22.2901 41.2555 22.7333 39.6484 23.4463 37.8115C24.8725 34.137 27.3782 29.5413 31.6201 25.1973C32.9619 23.823 33.8788 21.9289 34.499 19.7803C35.1192 17.6318 35.4418 15.2312 35.5957 12.8477C35.9018 8.10711 35.5415 3.44478 35.5371 0.958984L20.8398 0.936523C21.5684 6.15286 22.0339 9.36468 21.9463 11.334C21.9023 12.3225 21.7194 13.0071 21.3525 13.4756C20.9846 13.9453 20.4381 14.1903 19.6875 14.3154C18.585 14.5017 17.7659 14.5381 17.1338 14.2852C16.4977 14.0305 16.0599 13.4871 15.708 12.54C15.3565 11.5939 15.0872 10.2363 14.7939 8.34277C14.5019 6.45676 14.1854 4.03299 13.7383 0.947266H3.14746C3.3291 2.43478 3.38213 4.39625 3.40332 6.54785C3.42476 8.7251 3.4135 11.0975 3.47168 13.376C3.52987 15.6544 3.65701 17.8367 3.95312 19.6318C4.10118 20.5293 4.2917 21.3291 4.53613 21.9951C4.78066 22.6614 5.07863 23.191 5.44043 23.5518C10.0768 28.1727 12.9448 32.798 14.6338 36.624C16.3037 40.4069 16.8205 43.4119 16.7529 44.8613H21.7441Z" fill="white" stroke="white" stroke-width="0.0902967"/>
</mask>
<g mask="url(#mask10_1_2485)">
<path d="M41.9623 10.0665L3.61011 50.3845" stroke="#5038C3" stroke-width="0.804183" stroke-miterlimit="10" stroke-linecap="round" stroke-linejoin="round"/>
</g>
<mask id="mask11_1_2485" style="mask-type:luminance" maskUnits="userSpaceOnUse" x="3" y="0" width="33" height="45">
<path d="M21.7441 44.8613C21.7175 44.4941 21.7904 43.6587 22.0342 42.4863C22.2901 41.2555 22.7333 39.6484 23.4463 37.8115C24.8725 34.137 27.3782 29.5413 31.6201 25.1973C32.9619 23.823 33.8788 21.9289 34.499 19.7803C35.1192 17.6318 35.4418 15.2312 35.5957 12.8477C35.9018 8.10711 35.5415 3.44478 35.5371 0.958984L20.8398 0.936523C21.5684 6.15286 22.0339 9.36468 21.9463 11.334C21.9023 12.3225 21.7194 13.0071 21.3525 13.4756C20.9846 13.9453 20.4381 14.1903 19.6875 14.3154C18.585 14.5017 17.7659 14.5381 17.1338 14.2852C16.4977 14.0305 16.0599 13.4871 15.708 12.54C15.3565 11.5939 15.0872 10.2363 14.7939 8.34277C14.5019 6.45676 14.1854 4.03299 13.7383 0.947266H3.14746C3.3291 2.43478 3.38213 4.39625 3.40332 6.54785C3.42476 8.7251 3.4135 11.0975 3.47168 13.376C3.52987 15.6544 3.65701 17.8367 3.95312 19.6318C4.10118 20.5293 4.2917 21.3291 4.53613 21.9951C4.78066 22.6614 5.07863 23.191 5.44043 23.5518C10.0768 28.1727 12.9448 32.798 14.6338 36.624C16.3037 40.4069 16.8205 43.4119 16.7529 44.8613H21.7441Z" fill="white" stroke="white" stroke-width="0.0902967"/>
</mask>
<g mask="url(#mask11_1_2485)">
<path d="M45.3837 17.1242L7.03149 57.4421" stroke="#5038C3" stroke-width="0.804183" stroke-miterlimit="10" stroke-linecap="round" stroke-linejoin="round"/>
</g>
<mask id="path-26-inside-1_1_2485" fill="white">
<path d="M18.3319 1.01445C18.4095 1.57134 18.4504 1.83295 18.4697 1.93177C18.4792 2.04045 18.4925 2.18309 18.51 2.36749C18.7051 4.41623 18.8154 6.25895 18.8152 7.83036C18.8152 8.75341 18.7772 9.58263 18.6983 10.3008C18.6392 10.8393 18.5572 11.315 18.455 11.7187C18.3783 12.0212 18.2901 12.2828 18.1954 12.4996C18.0534 12.8256 17.8973 13.0445 17.7568 13.1748C17.686 13.2406 17.619 13.2866 17.551 13.3209C17.4826 13.355 17.4124 13.3783 17.3275 13.3929L17.3256 13.3931C17.1568 13.4217 17.0049 13.4344 16.869 13.4342C16.7009 13.4342 16.5575 13.4153 16.4302 13.3822C16.1923 13.3184 16.0014 13.2116 15.7986 13.02C15.623 12.8525 15.4445 12.6135 15.2729 12.291C14.971 11.728 14.6994 10.9143 14.466 9.88496C14.1128 8.34003 13.8375 6.31586 13.5396 3.88597C13.2408 1.45519 13.5703 3.97302 13.1067 0.774921C13.043 0.335674 12.6686 0.0117073 12.2248 0.0117073H0.89115C0.636308 0.0117073 0.391473 0.122154 0.222951 0.31303C0.0545759 0.503902 -0.0246991 0.760509 0.00677017 1.01315C0.0954429 1.72106 0.154571 2.56749 0.193099 3.50554C0.261037 5.14782 0.266908 7.07126 0.277055 9.07C0.292789 12.0699 0.316317 15.2364 0.584982 17.9382C0.72027 19.2905 0.915408 20.5269 1.21613 21.589C1.36715 22.1202 1.5448 22.6088 1.76347 23.0497C1.98272 23.4898 2.24315 23.8854 2.57401 24.216C6.97456 28.6018 9.74019 32.979 11.4045 36.6297C12.2364 38.4546 12.7926 40.0982 13.1387 41.4642C13.3121 42.1468 13.4325 42.7602 13.5093 43.2896C13.5861 43.8182 13.6187 44.2642 13.6186 44.6032C13.6186 44.6961 13.6162 44.7808 13.6118 44.8563C13.598 45.1007 13.6856 45.3408 13.8537 45.5189C14.0219 45.6967 14.2568 45.7979 14.5016 45.7979H19.5859C19.8405 45.7979 20.0808 45.6904 20.2505 45.5004C20.4202 45.3105 20.4999 45.0598 20.4713 44.8067C20.4699 44.8002 20.4674 44.7597 20.4675 44.7008C20.4675 44.5272 20.49 44.2023 20.5499 43.7806C20.654 43.0391 20.8679 41.9842 21.239 40.7165C21.7955 38.8139 22.7051 36.4287 24.1262 33.8553C25.5476 31.2816 27.4797 28.519 30.0839 25.8519C31.0518 24.8604 31.7984 23.6519 32.3807 22.3183C33.2532 20.3163 33.7627 18.0259 34.0631 15.6772C34.3625 13.3286 34.4493 10.9204 34.4494 8.6912C34.4494 7.07656 34.4035 5.55604 34.358 4.22551C34.3125 2.89615 34.2677 1.7534 34.2678 0.914165C34.2678 0.422127 33.8702 0.0239182 33.378 0.023037L18.5835 0.000236511C18.3256 0.000236511 18.2963 0.759026 18.3319 1.01445ZM18.4761 14.8461C18.7054 14.7146 18.9117 14.5484 19.0923 14.3595C19.4089 14.0276 19.6489 13.6297 19.8403 13.1857C20.1264 12.5184 20.3081 11.74 20.4272 10.8471C20.5453 9.95437 20.5974 8.94663 20.5975 7.83036C20.5974 6.17661 20.4827 4.28477 20.2842 2.19868C20.2678 2.02825 20.2511 1.89221 20.2337 1.78501L32.4972 1.80399C32.5136 2.52969 32.5454 3.36525 32.5769 4.28654C32.6223 5.61119 32.6673 7.11009 32.6673 8.6912C32.6673 11.6001 32.513 14.7895 31.9398 17.6482C31.654 19.0771 31.2638 20.4222 30.7472 21.6054C30.2308 22.7894 29.5893 23.8082 28.8088 24.6068C24.6538 28.8623 22.1279 33.3543 20.6391 37.0335C19.8948 38.8737 19.4092 40.5112 19.1077 41.8221C18.9573 42.4778 18.8526 43.0518 18.7849 43.5322C18.7607 43.706 18.741 43.8669 18.7258 44.0157H15.3798C15.3595 43.7146 15.3242 43.3872 15.273 43.0336C15.1213 41.988 14.8283 40.7137 14.3504 39.2589C12.9171 34.8988 9.81312 28.9155 3.8322 22.9537C3.71574 22.8379 3.59235 22.6762 3.47162 22.4666C3.24443 22.0742 3.03268 21.5162 2.85916 20.8374C2.553 19.6488 2.35917 18.0977 2.24462 16.381C2.07124 13.8038 2.0689 10.8501 2.05434 8.07697C2.04684 6.68996 2.03611 5.34752 1.99832 4.11374C1.97273 3.28569 1.93508 2.50719 1.87684 1.79384H11.455C11.572 2.57602 11.5783 2.5544 11.5788 2.53278C11.5802 2.50852 11.5732 2.48455 11.7061 3.57583C11.9179 5.31473 12.1145 6.87069 12.3377 8.23798C12.5051 9.26368 12.6871 10.183 12.9055 10.9987C13.0695 11.6106 13.2539 12.1644 13.4737 12.6626C13.639 13.0362 13.8244 13.3789 14.0406 13.6885C14.3635 14.1517 14.7631 14.5448 15.2489 14.8142C15.7333 15.085 16.292 15.2183 16.869 15.2167C17.1156 15.2167 17.3666 15.1937 17.6225 15.1503H17.6204C17.9228 15.1003 18.2142 14.9964 18.4761 14.8456"/>
</mask>
<path d="M18.3319 1.01445C18.4095 1.57134 18.4504 1.83295 18.4697 1.93177C18.4792 2.04045 18.4925 2.18309 18.51 2.36749C18.7051 4.41623 18.8154 6.25895 18.8152 7.83036C18.8152 8.75341 18.7772 9.58263 18.6983 10.3008C18.6392 10.8393 18.5572 11.315 18.455 11.7187C18.3783 12.0212 18.2901 12.2828 18.1954 12.4996C18.0534 12.8256 17.8973 13.0445 17.7568 13.1748C17.686 13.2406 17.619 13.2866 17.551 13.3209C17.4826 13.355 17.4124 13.3783 17.3275 13.3929L17.3256 13.3931C17.1568 13.4217 17.0049 13.4344 16.869 13.4342C16.7009 13.4342 16.5575 13.4153 16.4302 13.3822C16.1923 13.3184 16.0014 13.2116 15.7986 13.02C15.623 12.8525 15.4445 12.6135 15.2729 12.291C14.971 11.728 14.6994 10.9143 14.466 9.88496C14.1128 8.34003 13.8375 6.31586 13.5396 3.88597C13.2408 1.45519 13.5703 3.97302 13.1067 0.774921C13.043 0.335674 12.6686 0.0117073 12.2248 0.0117073H0.89115C0.636308 0.0117073 0.391473 0.122154 0.222951 0.31303C0.0545759 0.503902 -0.0246991 0.760509 0.00677017 1.01315C0.0954429 1.72106 0.154571 2.56749 0.193099 3.50554C0.261037 5.14782 0.266908 7.07126 0.277055 9.07C0.292789 12.0699 0.316317 15.2364 0.584982 17.9382C0.72027 19.2905 0.915408 20.5269 1.21613 21.589C1.36715 22.1202 1.5448 22.6088 1.76347 23.0497C1.98272 23.4898 2.24315 23.8854 2.57401 24.216C6.97456 28.6018 9.74019 32.979 11.4045 36.6297C12.2364 38.4546 12.7926 40.0982 13.1387 41.4642C13.3121 42.1468 13.4325 42.7602 13.5093 43.2896C13.5861 43.8182 13.6187 44.2642 13.6186 44.6032C13.6186 44.6961 13.6162 44.7808 13.6118 44.8563C13.598 45.1007 13.6856 45.3408 13.8537 45.5189C14.0219 45.6967 14.2568 45.7979 14.5016 45.7979H19.5859C19.8405 45.7979 20.0808 45.6904 20.2505 45.5004C20.4202 45.3105 20.4999 45.0598 20.4713 44.8067C20.4699 44.8002 20.4674 44.7597 20.4675 44.7008C20.4675 44.5272 20.49 44.2023 20.5499 43.7806C20.654 43.0391 20.8679 41.9842 21.239 40.7165C21.7955 38.8139 22.7051 36.4287 24.1262 33.8553C25.5476 31.2816 27.4797 28.519 30.0839 25.8519C31.0518 24.8604 31.7984 23.6519 32.3807 22.3183C33.2532 20.3163 33.7627 18.0259 34.0631 15.6772C34.3625 13.3286 34.4493 10.9204 34.4494 8.6912C34.4494 7.07656 34.4035 5.55604 34.358 4.22551C34.3125 2.89615 34.2677 1.7534 34.2678 0.914165C34.2678 0.422127 33.8702 0.0239182 33.378 0.023037L18.5835 0.000236511C18.3256 0.000236511 18.2963 0.759026 18.3319 1.01445ZM18.4761 14.8461C18.7054 14.7146 18.9117 14.5484 19.0923 14.3595C19.4089 14.0276 19.6489 13.6297 19.8403 13.1857C20.1264 12.5184 20.3081 11.74 20.4272 10.8471C20.5453 9.95437 20.5974 8.94663 20.5975 7.83036C20.5974 6.17661 20.4827 4.28477 20.2842 2.19868C20.2678 2.02825 20.2511 1.89221 20.2337 1.78501L32.4972 1.80399C32.5136 2.52969 32.5454 3.36525 32.5769 4.28654C32.6223 5.61119 32.6673 7.11009 32.6673 8.6912C32.6673 11.6001 32.513 14.7895 31.9398 17.6482C31.654 19.0771 31.2638 20.4222 30.7472 21.6054C30.2308 22.7894 29.5893 23.8082 28.8088 24.6068C24.6538 28.8623 22.1279 33.3543 20.6391 37.0335C19.8948 38.8737 19.4092 40.5112 19.1077 41.8221C18.9573 42.4778 18.8526 43.0518 18.7849 43.5322C18.7607 43.706 18.741 43.8669 18.7258 44.0157H15.3798C15.3595 43.7146 15.3242 43.3872 15.273 43.0336C15.1213 41.988 14.8283 40.7137 14.3504 39.2589C12.9171 34.8988 9.81312 28.9155 3.8322 22.9537C3.71574 22.8379 3.59235 22.6762 3.47162 22.4666C3.24443 22.0742 3.03268 21.5162 2.85916 20.8374C2.553 19.6488 2.35917 18.0977 2.24462 16.381C2.07124 13.8038 2.0689 10.8501 2.05434 8.07697C2.04684 6.68996 2.03611 5.34752 1.99832 4.11374C1.97273 3.28569 1.93508 2.50719 1.87684 1.79384H11.455C11.572 2.57602 11.5783 2.5544 11.5788 2.53278C11.5802 2.50852 11.5732 2.48455 11.7061 3.57583C11.9179 5.31473 12.1145 6.87069 12.3377 8.23798C12.5051 9.26368 12.6871 10.183 12.9055 10.9987C13.0695 11.6106 13.2539 12.1644 13.4737 12.6626C13.639 13.0362 13.8244 13.3789 14.0406 13.6885C14.3635 14.1517 14.7631 14.5448 15.2489 14.8142C15.7333 15.085 16.292 15.2183 16.869 15.2167C17.1156 15.2167 17.3666 15.1937 17.6225 15.1503H17.6204C17.9228 15.1003 18.2142 14.9964 18.4761 14.8456" fill="url(#paint0_linear_1_2485)"/>
<path d="M33.3767 0.914165L33.4218 0.91423L33.4218 0.959312H33.3767V0.914165ZM33.3767 0.914165L33.3315 0.914097L33.3329 0.0229683L33.378 0.023037L33.4232 0.0231018L33.4218 0.91423L33.3767 0.914165ZM33.3767 0.914165V0.959312H32.4855V0.914165V0.869015H33.3767V0.914165ZM18.3319 1.01445L18.2425 1.02692L18.2425 1.02692L18.3319 1.01445ZM18.4697 1.93177L18.5588 1.9144L18.5596 1.92386L18.4697 1.93177ZM18.51 2.36749L18.4201 2.37606L18.4201 2.37603L18.51 2.36749ZM18.8152 7.83036H18.7249V7.83035L18.8152 7.83036ZM18.6983 10.3008L18.7881 10.3107V10.3107L18.6983 10.3008ZM18.455 11.7187L18.5425 11.7409L18.5425 11.7409L18.455 11.7187ZM18.1954 12.4996L18.1126 12.4635L18.1127 12.4634L18.1954 12.4996ZM17.7568 13.1748L17.6953 13.1087L17.6954 13.1086L17.7568 13.1748ZM17.551 13.3209L17.5917 13.4015L17.5913 13.4017L17.551 13.3209ZM17.3275 13.3929L17.3428 13.4823L17.3343 13.4829L17.3275 13.3929ZM17.3256 13.3931L17.3104 13.3036L17.3188 13.303L17.3256 13.3931ZM16.869 13.4342V13.3439H16.8691L16.869 13.4342ZM16.4302 13.3822L16.4075 13.4696L16.4068 13.4694L16.4302 13.3822ZM15.7986 13.02L15.7366 13.0856L15.7363 13.0853L15.7986 13.02ZM15.2729 12.291L15.3525 12.2484L15.3526 12.2486L15.2729 12.291ZM14.466 9.88496L14.554 9.86484L14.5541 9.865L14.466 9.88496ZM13.5396 3.88597L13.6292 3.87495L13.6292 3.87498L13.5396 3.88597ZM13.1067 0.774921L13.0173 0.787876L13.1067 0.774921ZM0.222951 0.31303L0.155236 0.253296L0.155261 0.253265L0.222951 0.31303ZM0.00677017 1.01315L-0.0828264 1.02437L-0.0828341 1.02431L0.00677017 1.01315ZM0.193099 3.50554L0.102879 3.50927L0.102878 3.50924L0.193099 3.50554ZM0.277055 9.07L0.186759 9.07047L0.186759 9.07046L0.277055 9.07ZM0.584982 17.9382L0.495134 17.9471L0.495128 17.9471L0.584982 17.9382ZM1.21613 21.589L1.12928 21.6137L1.12925 21.6136L1.21613 21.589ZM1.76347 23.0497L1.68264 23.09L1.68257 23.0898L1.76347 23.0497ZM2.57401 24.216L2.51027 24.2799L2.51019 24.2799L2.57401 24.216ZM11.4045 36.6297L11.4867 36.5923L11.4867 36.5923L11.4045 36.6297ZM13.1387 41.4642L13.0512 41.4864L13.0512 41.4864L13.1387 41.4642ZM13.5093 43.2896L13.4199 43.3026L13.4199 43.3025L13.5093 43.2896ZM13.6186 44.6032H13.5283V44.6032L13.6186 44.6032ZM13.6118 44.8563L13.5216 44.8512L13.5216 44.851L13.6118 44.8563ZM13.8537 45.5189L13.7881 45.581L13.788 45.5809L13.8537 45.5189ZM20.2505 45.5004L20.1831 45.4402L20.1832 45.4402L20.2505 45.5004ZM20.4713 44.8067L20.5599 44.7866L20.5611 44.7966L20.4713 44.8067ZM20.4675 44.7008H20.5578V44.7011L20.4675 44.7008ZM20.5499 43.7806L20.6393 43.7931L20.6393 43.7933L20.5499 43.7806ZM21.239 40.7165L21.3256 40.7418L21.3256 40.7418L21.239 40.7165ZM24.1262 33.8553L24.0471 33.8116L24.0471 33.8116L24.1262 33.8553ZM30.0839 25.8519L30.1485 25.915L30.1485 25.915L30.0839 25.8519ZM32.3807 22.3183L32.4635 22.3543L32.4635 22.3544L32.3807 22.3183ZM34.0631 15.6772L34.1527 15.6886L34.1527 15.6887L34.0631 15.6772ZM34.4494 8.6912H34.5397V8.69121L34.4494 8.6912ZM34.358 4.22551L34.2677 4.2286V4.22859L34.358 4.22551ZM34.2678 0.914165H34.3581V0.914181L34.2678 0.914165ZM33.378 0.023037L33.3781 -0.0672607H33.3782L33.378 0.023037ZM18.5835 0.000236511V-0.0900574H18.5836L18.5835 0.000236511ZM19.0923 14.3595L19.1576 14.4218L19.1576 14.4219L19.0923 14.3595ZM19.8403 13.1857L19.9233 13.2213L19.9233 13.2215L19.8403 13.1857ZM20.4272 10.8471L20.5167 10.859L20.5167 10.8591L20.4272 10.8471ZM20.5975 7.83036L20.6878 7.83035V7.83037L20.5975 7.83036ZM20.2842 2.19868L20.374 2.19007L20.374 2.19013L20.2842 2.19868ZM20.2337 1.78501L20.1446 1.79944L20.1276 1.69455L20.2339 1.69471L20.2337 1.78501ZM32.4972 1.80399L32.4973 1.71369L32.5854 1.71383L32.5874 1.80193L32.4972 1.80399ZM32.5769 4.28654L32.4866 4.28963V4.28962L32.5769 4.28654ZM31.9398 17.6482L31.8513 17.6305L31.8513 17.6304L31.9398 17.6482ZM30.7472 21.6054L30.6645 21.5693L30.6645 21.5692L30.7472 21.6054ZM28.8088 24.6068L28.7442 24.5438L28.7442 24.5437L28.8088 24.6068ZM20.6391 37.0335L20.5554 36.9997L20.5554 36.9997L20.6391 37.0335ZM19.1077 41.8221L19.0197 41.8019L19.0197 41.8019L19.1077 41.8221ZM18.7849 43.5322L18.6955 43.5197L18.6955 43.5196L18.7849 43.5322ZM18.7258 44.0157L18.8157 44.0249L18.8074 44.106H18.7258V44.0157ZM15.3798 44.0157V44.106H15.2954L15.2897 44.0218L15.3798 44.0157ZM15.273 43.0336L15.3624 43.0206L15.3624 43.0206L15.273 43.0336ZM14.3504 39.2589L14.4362 39.2307L14.4362 39.2307L14.3504 39.2589ZM3.8322 22.9537L3.89585 22.8896L3.89595 22.8897L3.8322 22.9537ZM3.47162 22.4666L3.54977 22.4214L3.54986 22.4216L3.47162 22.4666ZM2.85916 20.8374L2.94661 20.8149L2.94665 20.8151L2.85916 20.8374ZM2.24462 16.381L2.33471 16.375L2.33471 16.375L2.24462 16.381ZM2.05434 8.07697L2.14464 8.07648V8.07649L2.05434 8.07697ZM1.99832 4.11374L2.08857 4.11095L2.08857 4.11098L1.99832 4.11374ZM1.87684 1.79384L1.78685 1.80119L1.77888 1.70354H1.87684V1.79384ZM11.455 1.79384V1.70354H11.5328L11.5443 1.78048L11.455 1.79384ZM11.5788 2.53278L11.4884 2.53094L11.4886 2.52732L11.5788 2.53278ZM11.7061 3.57583L11.7958 3.56491V3.56491L11.7061 3.57583ZM12.3377 8.23798L12.4268 8.22343L12.4268 8.22344L12.3377 8.23798ZM12.9055 10.9987L12.8183 11.0221L12.8183 11.0221L12.9055 10.9987ZM13.4737 12.6626L13.3911 12.6992L13.3911 12.6991L13.4737 12.6626ZM14.0406 13.6885L14.1146 13.6368L14.1147 13.6368L14.0406 13.6885ZM15.2489 14.8142L15.2927 14.7352L15.293 14.7354L15.2489 14.8142ZM16.869 15.2167L16.8688 15.1264H16.869V15.2167ZM17.6225 15.1503V15.06L17.6376 15.2394L17.6225 15.1503ZM17.6204 15.1503V15.2406L17.6057 15.0612L17.6204 15.1503ZM18.3319 1.01445L18.4213 1.00199C18.4991 1.55957 18.5396 1.81856 18.5583 1.9145L18.4697 1.93177L18.381 1.94905C18.3612 1.84735 18.32 1.58311 18.2425 1.02692L18.3319 1.01445ZM18.4697 1.93177L18.5596 1.92386C18.5692 2.03222 18.5824 2.17462 18.5998 2.35896L18.51 2.36749L18.4201 2.37603C18.4026 2.19156 18.3893 2.04868 18.3797 1.93969L18.4697 1.93177ZM18.51 2.36749L18.5998 2.35893C18.7951 4.40928 18.9057 6.25508 18.9055 7.83036L18.8152 7.83036L18.7249 7.83035C18.7251 6.26283 18.6151 4.42318 18.4201 2.37606L18.51 2.36749ZM18.8152 7.83036H18.9055C18.9055 8.7557 18.8674 9.58834 18.7881 10.3107L18.6983 10.3008L18.6086 10.291C18.6869 9.5769 18.7249 8.75111 18.7249 7.83036H18.8152ZM18.6983 10.3008L18.7881 10.3107C18.7286 10.8523 18.646 11.3322 18.5425 11.7409L18.455 11.7187L18.3674 11.6965C18.4684 11.2979 18.5498 10.8264 18.6086 10.291L18.6983 10.3008ZM18.455 11.7187L18.5425 11.7409C18.4649 12.0472 18.3752 12.3136 18.2781 12.5357L18.1954 12.4996L18.1127 12.4634C18.205 12.252 18.2918 11.9952 18.3674 11.6965L18.455 11.7187ZM18.1954 12.4996L18.2782 12.5356C18.1328 12.8694 17.9704 13.0999 17.8181 13.2411L17.7568 13.1748L17.6954 13.1086C17.8243 12.9891 17.974 12.7818 18.1126 12.4635L18.1954 12.4996ZM17.7568 13.1748L17.8182 13.241C17.7418 13.312 17.6678 13.3631 17.5917 13.4015L17.551 13.3209L17.5104 13.2402C17.5701 13.2101 17.6303 13.1691 17.6953 13.1087L17.7568 13.1748ZM17.551 13.3209L17.5913 13.4017C17.5148 13.4398 17.436 13.4659 17.3428 13.4819L17.3275 13.3929L17.3122 13.3039C17.3887 13.2908 17.4505 13.2701 17.5107 13.2401L17.551 13.3209ZM17.3275 13.3929L17.3343 13.4829L17.3324 13.4831L17.3256 13.3931L17.3188 13.303L17.3207 13.3029L17.3275 13.3929ZM17.3256 13.3931L17.3407 13.4821C17.1674 13.5115 17.0104 13.5247 16.8689 13.5245L16.869 13.4342L16.8691 13.3439C16.9993 13.3441 17.1461 13.3319 17.3105 13.304L17.3256 13.3931ZM16.869 13.4342V13.5245C16.694 13.5245 16.5429 13.5048 16.4075 13.4696L16.4302 13.3822L16.4529 13.2948C16.5722 13.3258 16.7079 13.3439 16.869 13.3439V13.4342ZM16.4302 13.3822L16.4068 13.4694C16.1534 13.4014 15.9495 13.2868 15.7366 13.0856L15.7986 13.02L15.8606 12.9543C16.0533 13.1364 16.2311 13.2353 16.4536 13.295L16.4302 13.3822ZM15.7986 13.02L15.7363 13.0853C15.5521 12.9096 15.3681 12.6622 15.1932 12.3335L15.2729 12.291L15.3526 12.2486C15.5209 12.5649 15.694 12.7954 15.8609 12.9546L15.7986 13.02ZM15.2729 12.291L15.1933 12.3337C14.8859 11.7603 14.6121 10.9376 14.3779 9.90493L14.466 9.88496L14.5541 9.865C14.7867 10.891 15.0561 11.6957 15.3525 12.2484L15.2729 12.291ZM14.466 9.88496L14.378 9.90509C14.0236 8.35493 13.7478 6.32626 13.45 3.89695L13.5396 3.88597L13.6292 3.87498C13.9272 6.30547 14.202 8.32513 14.554 9.86484L14.466 9.88496ZM13.5396 3.88597L13.45 3.89698C13.3 2.67736 13.3084 2.70492 13.296 2.63369C13.2828 2.55824 13.2492 2.38714 13.0173 0.787876L13.1067 0.774921L13.196 0.761967C13.4278 2.3608 13.4612 2.52984 13.4739 2.60268C13.4873 2.67976 13.4803 2.66379 13.6292 3.87495L13.5396 3.88597ZM13.1067 0.774921L13.0173 0.787876C12.9601 0.393036 12.6237 0.102005 12.2248 0.102005V0.0117073V-0.0785866C12.7135 -0.0785866 13.1259 0.278313 13.196 0.761967L13.1067 0.774921ZM12.2248 0.0117073V0.102005H0.89115V0.0117073V-0.0785866H12.2248V0.0117073ZM0.89115 0.0117073V0.102005C0.662195 0.102005 0.442015 0.20134 0.290641 0.372791L0.222951 0.31303L0.155261 0.253265C0.340931 0.0429726 0.61042 -0.0785866 0.89115 -0.0785866V0.0117073ZM0.222951 0.31303L0.290667 0.372765C0.139402 0.544239 0.0681046 0.775032 0.0963744 1.00198L0.00677017 1.01315L-0.0828341 1.02431C-0.117503 0.745987 -0.0302506 0.46357 0.155236 0.253296L0.222951 0.31303ZM0.00677017 1.01315L0.0963668 1.00192C0.185478 1.71333 0.244741 2.56253 0.28332 3.50183L0.193099 3.50554L0.102878 3.50924C0.0644018 2.57244 0.00540814 1.72878 -0.0828264 1.02437L0.00677017 1.01315ZM0.193099 3.50554L0.283319 3.5018C0.351341 5.14611 0.357207 7.07148 0.36735 9.06954L0.277055 9.07L0.186759 9.07046C0.176609 7.07104 0.170734 5.14953 0.102879 3.50927L0.193099 3.50554ZM0.277055 9.07L0.36735 9.06953C0.38309 12.0703 0.406667 15.2324 0.674835 17.9292L0.584982 17.9382L0.495128 17.9471C0.225967 15.2403 0.202489 12.0694 0.186759 9.07047L0.277055 9.07ZM0.584982 17.9382L0.67483 17.9292C0.809863 19.2789 1.00433 20.5095 1.30301 21.5644L1.21613 21.589L1.12925 21.6136C0.826488 20.5443 0.630678 19.302 0.495134 17.9471L0.584982 17.9382ZM1.21613 21.589L1.30298 21.5643C1.45294 22.0917 1.62878 22.5749 1.84436 23.0096L1.76347 23.0497L1.68257 23.0898C1.46082 22.6427 1.28136 22.1486 1.12928 21.6137L1.21613 21.589ZM1.76347 23.0497L1.84429 23.0094C2.06053 23.4435 2.31571 23.8303 2.63784 24.1521L2.57401 24.216L2.51019 24.2799C2.17058 23.9405 1.90492 23.5362 1.68264 23.09L1.76347 23.0497ZM2.57401 24.216L2.63776 24.152C7.04624 28.5458 9.818 32.932 11.4867 36.5923L11.4045 36.6297L11.3224 36.6672C9.66237 33.026 6.90288 28.6579 2.51027 24.2799L2.57401 24.216ZM11.4045 36.6297L11.4867 36.5923C12.3207 38.4219 12.8787 40.0706 13.2262 41.442L13.1387 41.4642L13.0512 41.4864C12.7064 40.1259 12.1521 38.4874 11.3224 36.6672L11.4045 36.6297ZM13.1387 41.4642L13.2262 41.442C13.4003 42.1274 13.5214 42.7438 13.5987 43.2766L13.5093 43.2896L13.4199 43.3025C13.3437 42.7765 13.2239 42.1663 13.0512 41.4864L13.1387 41.4642ZM13.5093 43.2896L13.5986 43.2766C13.6759 43.8085 13.709 44.259 13.7089 44.6032L13.6186 44.6032L13.5283 44.6032C13.5284 44.2695 13.4962 43.828 13.4199 43.3026L13.5093 43.2896ZM13.6186 44.6032H13.7089C13.7089 44.6976 13.7065 44.7841 13.7019 44.8615L13.6118 44.8563L13.5216 44.851C13.5259 44.7776 13.5283 44.6947 13.5283 44.6032H13.6186ZM13.6118 44.8563L13.7019 44.8614C13.6895 45.081 13.7683 45.2969 13.9194 45.4569L13.8537 45.5189L13.788 45.5809C13.6029 45.3848 13.5064 45.1203 13.5216 44.8512L13.6118 44.8563ZM13.8537 45.5189L13.9193 45.4568C14.0705 45.6166 14.2816 45.7076 14.5016 45.7076V45.7979V45.8881C14.2319 45.8881 13.9734 45.7768 13.7881 45.581L13.8537 45.5189ZM14.5016 45.7979V45.7076H19.5859V45.7979V45.8881H14.5016V45.7979ZM19.5859 45.7979V45.7076C19.8148 45.7076 20.0306 45.611 20.1831 45.4402L20.2505 45.5004L20.3178 45.5605C20.131 45.7697 19.8662 45.8881 19.5859 45.8881V45.7979ZM20.2505 45.5004L20.1832 45.4402C20.3357 45.2696 20.4073 45.0444 20.3816 44.8168L20.4713 44.8067L20.5611 44.7966C20.5925 45.0752 20.5047 45.3515 20.3178 45.5605L20.2505 45.5004ZM20.4713 44.8067L20.3833 44.8267C20.3812 44.8175 20.3804 44.807 20.3801 44.8027C20.3795 44.7958 20.379 44.7872 20.3786 44.7773C20.3778 44.7575 20.3771 44.7313 20.3772 44.7006L20.4675 44.7008L20.5578 44.7011C20.5577 44.7292 20.5583 44.7527 20.559 44.7695C20.5594 44.778 20.5598 44.7844 20.5601 44.7887C20.5603 44.7909 20.5604 44.7921 20.5605 44.7926C20.5606 44.794 20.5604 44.7911 20.5594 44.7867L20.4713 44.8067ZM20.4675 44.7008H20.3772C20.3772 44.5215 20.4003 44.1921 20.4605 43.7679L20.5499 43.7806L20.6393 43.7933C20.5798 44.2126 20.5578 44.5329 20.5578 44.7008H20.4675ZM20.5499 43.7806L20.4605 43.768C20.5652 43.0218 20.7802 41.9626 21.1523 40.6911L21.239 40.7165L21.3256 40.7418C20.9557 42.0058 20.7427 43.0565 20.6393 43.7931L20.5499 43.7806ZM21.239 40.7165L21.1523 40.6911C21.7106 38.7828 22.6225 36.3914 24.0471 33.8116L24.1262 33.8553L24.2052 33.8989C22.7876 36.466 21.8805 38.845 21.3256 40.7418L21.239 40.7165ZM24.1262 33.8553L24.0471 33.8116C25.4721 31.2315 27.4089 28.4623 30.0193 25.7889L30.0839 25.8519L30.1485 25.915C27.5505 28.5758 25.6231 31.3316 24.2052 33.8989L24.1262 33.8553ZM30.0839 25.8519L30.0193 25.7889C30.9778 24.8069 31.7188 23.6084 32.2979 22.2821L32.3807 22.3183L32.4635 22.3544C31.8779 23.6954 31.1258 24.9138 30.1485 25.915L30.0839 25.8519ZM32.3807 22.3183L32.2979 22.2822C33.1657 20.2909 33.6737 18.0098 33.9735 15.6658L34.0631 15.6772L34.1527 15.6887C33.8517 18.0421 33.3406 20.3417 32.4635 22.3543L32.3807 22.3183ZM34.0631 15.6772L33.9735 15.6658C34.2723 13.3224 34.359 10.9183 34.3591 8.6912L34.4494 8.6912L34.5397 8.69121C34.5396 10.9225 34.4527 13.3349 34.1527 15.6886L34.0631 15.6772ZM34.4494 8.6912H34.3591C34.3591 7.07818 34.3133 5.55892 34.2677 4.2286L34.358 4.22551L34.4482 4.22241C34.4938 5.55315 34.5397 7.07495 34.5397 8.6912H34.4494ZM34.358 4.22551L34.2677 4.22859C34.2223 2.90042 34.1774 1.75539 34.1775 0.91415L34.2678 0.914165L34.3581 0.914181C34.358 1.7514 34.4027 2.89188 34.4482 4.22242L34.358 4.22551ZM34.2678 0.914165H34.1775C34.1775 0.471958 33.8202 0.114124 33.3778 0.113331L33.378 0.023037L33.3782 -0.0672607C33.9201 -0.066288 34.3581 0.372295 34.3581 0.914165H34.2678ZM33.378 0.023037L33.3779 0.113331L18.5833 0.0905342L18.5835 0.000236511L18.5836 -0.0900574L33.3781 -0.0672607L33.378 0.023037ZM18.5835 0.000236511V0.0905342C18.5711 0.0905342 18.5443 0.0982895 18.5107 0.163937C18.4787 0.226578 18.4538 0.318485 18.4368 0.42569C18.4029 0.639397 18.4049 0.883953 18.4213 1.002L18.3319 1.01445L18.2425 1.02692C18.2233 0.88953 18.2221 0.626976 18.2584 0.397434C18.2766 0.283012 18.3051 0.169254 18.35 0.081646C18.3933 -0.00296402 18.4669 -0.0900574 18.5835 -0.0900574V0.000236511ZM18.4761 14.8461L18.4312 14.7677C18.6523 14.641 18.8518 14.4804 19.027 14.2971L19.0923 14.3595L19.1576 14.4219C18.9715 14.6165 18.7585 14.7882 18.5211 14.9244L18.4761 14.8461ZM19.0923 14.3595L19.0269 14.2972C19.3343 13.9749 19.569 13.5869 19.7574 13.15L19.8403 13.1857L19.9233 13.2215C19.7288 13.6725 19.4834 14.0802 19.1576 14.4218L19.0923 14.3595ZM19.8403 13.1857L19.7573 13.1501C20.039 12.4931 20.2192 11.7235 20.3377 10.8352L20.4272 10.8471L20.5167 10.8591C20.397 11.7565 20.2138 12.5437 19.9233 13.2213L19.8403 13.1857ZM20.4272 10.8471L20.3377 10.8353C20.4551 9.94762 20.5071 8.94405 20.5072 7.83035L20.5975 7.83036L20.6878 7.83037C20.6877 8.94921 20.6355 9.96112 20.5167 10.859L20.4272 10.8471ZM20.5975 7.83036L20.5072 7.83036C20.5071 6.18048 20.3926 4.29172 20.1943 2.20724L20.2842 2.19868L20.374 2.19013C20.5727 4.27783 20.6877 6.17273 20.6878 7.83035L20.5975 7.83036ZM20.2842 2.19868L20.1943 2.20729C20.1781 2.03798 20.1615 1.90403 20.1446 1.79944L20.2337 1.78501L20.3228 1.77058C20.3406 1.88039 20.3576 2.01853 20.374 2.19007L20.2842 2.19868ZM20.2337 1.78501L20.2339 1.69471L32.4973 1.71369L32.4972 1.80399L32.497 1.89428L20.2336 1.87531L20.2337 1.78501ZM32.4972 1.80399L32.5874 1.80193C32.6039 2.52695 32.6356 3.36161 32.6671 4.28345L32.5769 4.28654L32.4866 4.28962C32.4552 3.36889 32.4234 2.53242 32.4069 1.80603L32.4972 1.80399ZM32.5769 4.28654L32.6671 4.28344C32.7126 5.60831 32.7576 7.10848 32.7576 8.6912H32.6673H32.577C32.577 7.11171 32.5321 5.61407 32.4866 4.28963L32.5769 4.28654ZM32.6673 8.6912H32.7576C32.7576 11.6024 32.6033 14.7987 32.0284 17.6659L31.9398 17.6482L31.8513 17.6304C32.4228 14.7803 32.577 11.5977 32.577 8.6912H32.6673ZM31.9398 17.6482L32.0284 17.6659C31.7416 19.0993 31.3498 20.4509 30.83 21.6415L30.7472 21.6054L30.6645 21.5692C31.1778 20.3934 31.5663 19.0549 31.8513 17.6305L31.9398 17.6482ZM30.7472 21.6054L30.83 21.6415C30.3103 22.8329 29.6633 23.8617 28.8734 24.67L28.8088 24.6068L28.7442 24.5437C29.5153 23.7547 30.1512 22.7459 30.6645 21.5693L30.7472 21.6054ZM28.8088 24.6068L28.8734 24.6699C24.7279 28.9156 22.2079 33.3972 20.7228 37.0674L20.6391 37.0335L20.5554 36.9997C22.0479 33.3113 24.5797 28.8089 28.7442 24.5438L28.8088 24.6068ZM20.6391 37.0335L20.7228 37.0674C19.9803 38.9031 19.4962 40.5359 19.1957 41.8424L19.1077 41.8221L19.0197 41.8019C19.3222 40.4864 19.8092 38.8444 20.5554 36.9997L20.6391 37.0335ZM19.1077 41.8221L19.1957 41.8423C19.0458 42.4958 18.9416 43.0672 18.8744 43.5448L18.7849 43.5322L18.6955 43.5196C18.7636 43.0364 18.8688 42.4599 19.0197 41.8019L19.1077 41.8221ZM18.7849 43.5322L18.8744 43.5447C18.8502 43.7176 18.8307 43.8773 18.8157 44.0249L18.7258 44.0157L18.636 44.0066C18.6513 43.8565 18.6711 43.6945 18.6955 43.5197L18.7849 43.5322ZM18.7258 44.0157V44.106H15.3798V44.0157V43.9254H18.7258V44.0157ZM15.3798 44.0157L15.2897 44.0218C15.2696 43.7232 15.2346 43.3982 15.1837 43.0465L15.273 43.0336L15.3624 43.0206C15.4139 43.3763 15.4494 43.7059 15.4699 44.0096L15.3798 44.0157ZM15.273 43.0336L15.1837 43.0465C15.0328 42.0068 14.7411 40.7375 14.2646 39.287L14.3504 39.2589L14.4362 39.2307C14.9155 40.6898 15.2098 41.9692 15.3624 43.0206L15.273 43.0336ZM14.3504 39.2589L14.2646 39.2871C12.8356 34.94 9.739 28.9691 3.76845 23.0176L3.8322 22.9537L3.89595 22.8897C9.88724 28.8619 12.9986 34.8575 14.4362 39.2307L14.3504 39.2589ZM3.8322 22.9537L3.76855 23.0177C3.6452 22.8952 3.51717 22.7266 3.39338 22.5117L3.47162 22.4666L3.54986 22.4216C3.66754 22.6258 3.78627 22.7807 3.89585 22.8896L3.8322 22.9537ZM3.47162 22.4666L3.39348 22.5119C3.16065 22.1097 2.94635 21.5431 2.77168 20.8598L2.85916 20.8374L2.94665 20.8151C3.11902 21.4894 3.32821 22.0387 3.54977 22.4214L3.47162 22.4666ZM2.85916 20.8374L2.77172 20.86C2.4635 19.6633 2.26921 18.1058 2.15452 16.387L2.24462 16.381L2.33471 16.375C2.44913 18.0896 2.6425 19.6343 2.94661 20.8149L2.85916 20.8374ZM2.24462 16.381L2.15453 16.3871C1.98092 13.8064 1.9786 10.8494 1.96405 8.07744L2.05434 8.07697L2.14464 8.07649C2.1592 10.8508 2.16157 13.8012 2.33471 16.375L2.24462 16.381ZM2.05434 8.07697L1.96405 8.07745C1.95655 6.69042 1.94582 5.34901 1.90806 4.11651L1.99832 4.11374L2.08857 4.11098C2.1264 5.34602 2.13714 6.68951 2.14464 8.07648L2.05434 8.07697ZM1.99832 4.11374L1.90806 4.11653C1.8825 3.28936 1.84491 2.5125 1.78685 1.80119L1.87684 1.79384L1.96684 1.7865C2.02524 2.50189 2.06296 3.28202 2.08857 4.11095L1.99832 4.11374ZM1.87684 1.79384V1.70354H11.455V1.79384V1.88414H1.87684V1.79384ZM11.455 1.79384L11.5443 1.78048C11.6028 2.17163 11.6335 2.3605 11.6494 2.44862C11.658 2.49588 11.6613 2.50775 11.661 2.50684C11.6607 2.50599 11.6598 2.50329 11.6581 2.49971C11.6571 2.49776 11.6524 2.48769 11.6426 2.47736C11.6346 2.46894 11.5963 2.43457 11.5433 2.45636C11.5228 2.46482 11.5108 2.47854 11.505 2.48651C11.4989 2.49477 11.4957 2.50227 11.4941 2.50639C11.4909 2.51453 11.4897 2.52114 11.4894 2.52313C11.4889 2.52593 11.4887 2.52803 11.4886 2.52893C11.4885 2.53068 11.4885 2.53161 11.4885 2.53094L11.5788 2.53278L11.6691 2.53463C11.669 2.53666 11.6689 2.54029 11.6686 2.54436C11.6685 2.54509 11.6677 2.55811 11.6622 2.57225C11.6605 2.57666 11.6571 2.58438 11.6509 2.59283C11.645 2.60098 11.6328 2.61481 11.6121 2.62334C11.5589 2.64526 11.5203 2.61077 11.5118 2.60194C11.5016 2.59119 11.4965 2.58041 11.495 2.5774C11.4928 2.57277 11.4913 2.56868 11.4904 2.56604C11.4851 2.55082 11.4794 2.52325 11.4718 2.48085C11.4552 2.38964 11.4242 2.19822 11.3657 1.80721L11.455 1.79384ZM11.5788 2.53278L11.4886 2.52732C11.4887 2.52637 11.4887 2.52671 11.4888 2.52404C11.4888 2.52324 11.4889 2.52149 11.4891 2.51952C11.4891 2.51934 11.4896 2.51238 11.4915 2.50434C11.4921 2.50188 11.4933 2.49734 11.4956 2.49188C11.4972 2.4878 11.5023 2.4757 11.5136 2.46369C11.5266 2.44991 11.5553 2.42971 11.595 2.43672C11.6274 2.44243 11.645 2.46313 11.65 2.46935C11.6609 2.48299 11.665 2.49672 11.6652 2.49736C11.6665 2.50129 11.6673 2.50453 11.6676 2.50607C11.6689 2.51139 11.6697 2.5169 11.67 2.51933C11.6718 2.53212 11.6754 2.56264 11.6828 2.62539C11.6979 2.7527 11.7293 3.01941 11.7958 3.56491L11.7061 3.57583L11.6165 3.58675C11.55 3.04097 11.5185 2.77403 11.5035 2.64657C11.4959 2.58194 11.4926 2.55479 11.4912 2.5448C11.4907 2.54153 11.4909 2.54352 11.4917 2.54696C11.492 2.54803 11.4927 2.5509 11.4939 2.55456C11.494 2.55493 11.498 2.56847 11.5088 2.58202C11.5138 2.5882 11.5313 2.60886 11.5637 2.61457C11.6033 2.62157 11.632 2.60139 11.645 2.58765C11.6563 2.57566 11.6613 2.56362 11.663 2.55961C11.6651 2.55422 11.6663 2.54976 11.6669 2.54741C11.6681 2.54266 11.6686 2.53892 11.6687 2.53771C11.6689 2.53606 11.669 2.53481 11.6691 2.53425C11.6692 2.53318 11.6692 2.53254 11.6692 2.53299C11.6691 2.53347 11.6691 2.5336 11.6691 2.53476C11.6691 2.53563 11.669 2.53687 11.6689 2.53825L11.5788 2.53278ZM11.7061 3.57583L11.7958 3.56491C12.0075 5.30393 12.2039 6.85818 12.4268 8.22343L12.3377 8.23798L12.2486 8.25253C12.025 6.88319 11.8282 5.32553 11.6165 3.58675L11.7061 3.57583ZM12.3377 8.23798L12.4268 8.22344C12.5939 9.24757 12.7754 10.1637 12.9927 10.9754L12.9055 10.9987L12.8183 11.0221C12.5988 10.2024 12.4162 9.27978 12.2486 8.25252L12.3377 8.23798ZM12.9055 10.9987L12.9927 10.9754C13.1559 11.5842 13.3389 12.1334 13.5563 12.6262L13.4737 12.6626L13.3911 12.6991C13.1689 12.1955 12.9831 11.637 12.8183 11.0221L12.9055 10.9987ZM13.4737 12.6626L13.5563 12.6261C13.7198 12.9955 13.9025 13.333 14.1146 13.6368L14.0406 13.6885L13.9666 13.7402C13.7464 13.4249 13.5582 13.0768 13.3911 12.6992L13.4737 12.6626ZM14.0406 13.6885L14.1147 13.6368C14.4314 14.0912 14.8212 14.4738 15.2927 14.7352L15.2489 14.8142L15.2051 14.8931C14.7049 14.6158 14.2956 14.2122 13.9665 13.7401L14.0406 13.6885ZM15.2489 14.8142L15.293 14.7354C15.7625 14.9979 16.3056 15.1279 16.8688 15.1264L16.869 15.2167L16.8693 15.3069C16.2783 15.3086 15.7041 15.1722 15.2048 14.893L15.2489 14.8142ZM16.869 15.2167V15.1264C17.11 15.1264 17.3559 15.1039 17.6074 15.0613L17.6225 15.1503L17.6376 15.2394C17.3773 15.2835 17.1212 15.3069 16.869 15.3069V15.2167ZM17.6225 15.1503V15.2406H17.6204V15.1503V15.06H17.6225V15.1503ZM17.6204 15.1503L17.6057 15.0612C17.8975 15.013 18.1787 14.9127 18.4311 14.7674L18.4761 14.8456L18.5212 14.9239C18.2498 15.0801 17.9481 15.1877 17.6352 15.2394L17.6204 15.1503Z" fill="#5038C3" mask="url(#path-26-inside-1_1_2485)"/>
<path d="M13.031 23.739C13.1246 23.6686 13.1996 23.5981 13.2703 23.5251C13.3535 23.4371 13.4276 23.3508 13.4978 23.2615C13.5683 23.1722 13.6354 23.0801 13.7019 22.9783V22.9792C13.7566 22.8929 13.8098 22.8036 13.8552 22.696C13.7404 22.7105 13.6377 22.748 13.5408 22.8015H13.5417C13.4271 22.8665 13.3245 22.9542 13.2419 23.0583H13.241C13.158 23.1623 13.096 23.2827 13.0593 23.4099C13.0298 23.5161 13.0168 23.625 13.031 23.739Z" fill="url(#paint1_linear_1_2485)" stroke="#5038C3" stroke-width="0.0902967"/>
<path d="M17.7483 25.5334C18.3663 25.5255 18.9811 25.4322 19.5803 25.2795C19.5988 25.2748 19.608 25.2646 19.6125 25.2551C19.6175 25.2445 19.6186 25.23 19.6145 25.2151C19.6104 25.2004 19.6023 25.188 19.592 25.1809C19.5825 25.1744 19.5687 25.1703 19.55 25.175C17.7668 25.6292 15.6929 25.5212 14.2532 24.2307C13.9163 23.9291 13.6341 23.5757 13.4094 23.1838C13.3981 23.1642 13.3827 23.1584 13.3684 23.1584C13.3499 23.1586 13.3295 23.1687 13.3176 23.1848C13.3073 23.1989 13.3035 23.2169 13.3157 23.2385C14.2168 24.8101 15.9788 25.5557 17.7483 25.5334Z" fill="url(#paint2_linear_1_2485)" stroke="#5038C3" stroke-width="0.0902967"/>
<path d="M10.6892 20.4746C13.1014 20.9349 15.4299 19.3526 15.8904 16.9404C16.3507 14.5283 14.7684 12.1997 12.3562 11.7393C9.94391 11.2789 7.61533 12.8613 7.15503 15.2734C6.69453 17.6857 8.27694 20.0142 10.6892 20.4746Z" fill="white" stroke="#5038C3" stroke-width="0.0902967"/>
<path d="M12.3208 19.2615C13.5822 19.2614 14.605 18.2386 14.605 16.9773C14.6049 15.716 13.5822 14.6932 12.3208 14.6931C11.0594 14.6931 10.0367 15.716 10.0366 16.9773C10.0366 18.2386 11.0593 19.2615 12.3208 19.2615Z" fill="url(#paint3_linear_1_2485)" stroke="#5038C3" stroke-width="0.0902967"/>
<path d="M11.3174 16.6011C11.4988 16.601 11.6455 16.4535 11.6455 16.272C11.6455 16.0905 11.4988 15.944 11.3174 15.9438C11.1357 15.9438 10.9883 16.0905 10.9883 16.272C10.9883 16.4535 11.1357 16.6011 11.3174 16.6011Z" fill="white" stroke="#5038C3" stroke-width="0.0902967"/>
<path d="M13.2629 17.6025C13.6085 17.6025 13.8889 17.3223 13.8889 16.9766C13.8889 16.6309 13.6086 16.3506 13.2629 16.3506C12.9173 16.3507 12.637 16.631 12.637 16.9766C12.637 17.3222 12.9173 17.6024 13.2629 17.6025Z" fill="white" stroke="#5038C3" stroke-width="0.0902967"/>
<path d="M19.0088 16.9404C19.4692 19.3527 21.7978 20.935 24.21 20.4746C26.6221 20.0142 28.2043 17.6857 27.7441 15.2734C27.2837 12.8613 24.9552 11.279 22.543 11.7393C20.1309 12.1997 18.5485 14.5283 19.0088 16.9404Z" fill="white" stroke="#5038C3" stroke-width="0.0902967"/>
<path d="M22.5789 19.2615C23.8402 19.2614 24.863 18.2386 24.863 16.9773C24.863 15.716 23.8401 14.6932 22.5789 14.6931C21.3176 14.6931 20.2947 15.716 20.2947 16.9773C20.2947 18.2386 21.3175 19.2615 22.5789 19.2615Z" fill="url(#paint4_linear_1_2485)" stroke="#5038C3" stroke-width="0.0902967"/>
<path d="M23.582 16.6011C23.7635 16.601 23.9102 16.4534 23.9102 16.272C23.9101 16.0906 23.7635 15.944 23.582 15.9438C23.4005 15.9438 23.253 16.0905 23.2529 16.272C23.2529 16.4535 23.4005 16.6011 23.582 16.6011Z" fill="white" stroke="#5038C3" stroke-width="0.0902967"/>
<path d="M21.6357 17.6025C21.9814 17.6025 22.2617 17.3223 22.2617 16.9766C22.2617 16.6309 21.9814 16.3506 21.6357 16.3506C21.2902 16.3506 21.0098 16.6309 21.0098 16.9766C21.0098 17.3223 21.2902 17.6025 21.6357 17.6025Z" fill="white" stroke="#5038C3" stroke-width="0.0902967"/>
<defs>
<linearGradient id="paint0_linear_1_2485" x1="2.12271e-05" y1="22.899" x2="34.4495" y2="22.899" gradientUnits="userSpaceOnUse">
<stop/>
<stop offset="1"/>
</linearGradient>
<linearGradient id="paint1_linear_1_2485" x1="-0.673763" y1="12.0516" x2="23.2208" y2="30.9515" gradientUnits="userSpaceOnUse">
<stop/>
<stop offset="1"/>
</linearGradient>
<linearGradient id="paint2_linear_1_2485" x1="-0.0921389" y1="11.3157" x2="23.8024" y2="30.2153" gradientUnits="userSpaceOnUse">
<stop/>
<stop offset="1"/>
</linearGradient>
<linearGradient id="paint3_linear_1_2485" x1="1.93093" y1="8.75945" x2="25.8255" y2="27.6591" gradientUnits="userSpaceOnUse">
<stop/>
<stop offset="1"/>
</linearGradient>
<linearGradient id="paint4_linear_1_2485" x1="5.87869" y1="3.76821" x2="29.7733" y2="22.6678" gradientUnits="userSpaceOnUse">
<stop/>
<stop offset="1"/>
</linearGradient>
</defs>
</svg>
