<svg width="11" height="8" viewBox="0 0 11 8" fill="none" xmlns="http://www.w3.org/2000/svg">
<path d="M9.64258 0.5C9.67896 0.500038 9.71009 0.507946 9.75586 0.553711C9.79804 0.595994 9.80859 0.62894 9.80859 0.675781C9.80852 0.722434 9.79763 0.75427 9.75586 0.795898L9.75488 0.796875L3.63867 6.92969C3.59279 6.97557 3.56189 6.9834 3.52539 6.9834C3.489 6.98336 3.45788 6.97546 3.41211 6.92969L0.545898 4.06348C0.506834 4.02441 0.498879 3.99778 0.5 3.95703C0.501486 3.90601 0.515703 3.86713 0.5625 3.82031C0.605553 3.77726 0.637645 3.76657 0.682617 3.7666C0.706099 3.76666 0.726677 3.76923 0.746094 3.77734L0.805664 3.82129L3.1709 6.20215L3.52441 6.55859L3.87891 6.20312L9.5293 0.553711C9.57517 0.507833 9.60608 0.5 9.64258 0.5Z" fill="#010101" stroke="black"/>
</svg>
