<svg width="365" height="141" viewBox="0 0 365 141" fill="none" xmlns="http://www.w3.org/2000/svg">
<path d="M85.5314 25.0746C85.1352 24.6912 84.3412 19.3214 83.6213 19.3635C82.8982 19.4078 82.27 24.7333 81.9325 25.0842C81.2558 25.7881 76.3046 26.2861 76.3446 26.9687C76.3857 27.6491 81.2478 27.9723 81.9341 28.6367C82.3175 29.0078 83.1232 34.392 83.8447 34.3499C84.5667 34.3078 85.1837 28.9972 85.5341 28.634C86.1883 27.9547 91.1769 27.4294 91.1369 26.7447C91.0969 26.06 86.1915 25.7166 85.5314 25.0746Z" fill="#FD6085"/>
<path d="M32.6696 108.093C32.2734 107.71 31.4789 102.341 30.7595 102.383C30.0364 102.427 29.4077 107.752 29.0702 108.104C28.3935 108.807 23.4423 109.305 23.4823 109.988C23.5234 110.669 28.3855 110.991 29.0718 111.656C29.4557 112.027 30.2615 117.411 30.9835 117.369C31.705 117.326 32.3219 112.016 32.6723 111.653C33.326 110.973 38.3151 110.448 38.2751 109.764C38.2351 109.079 33.3303 108.735 32.6696 108.093Z" fill="#FD6085"/>
<path d="M101.261 115.171C100.434 115.178 99.7292 114.737 99.5916 114.068C99.4546 113.398 99.9276 112.715 100.692 112.395L100.398 110.97C99.5709 110.976 98.8659 110.536 98.7283 109.866C98.5913 109.197 99.0643 108.514 99.8284 108.194L99.5357 106.769C98.7086 106.775 98.0042 106.335 97.8661 105.665C97.729 104.996 98.202 104.312 98.9661 103.993L98.6734 102.567C97.8453 102.574 97.1408 102.133 97.0038 101.463C96.8662 100.794 97.3398 100.111 98.1039 99.7916L97.7509 98.0724L65.9725 104.596L66.3277 106.327C67.1318 106.339 67.808 106.775 67.9424 107.429C68.0767 108.085 67.6272 108.751 66.8935 109.08L67.191 110.529C67.9941 110.541 68.6708 110.976 68.8057 111.631C68.9401 112.286 68.4895 112.953 67.7562 113.282L68.0538 114.73C68.8574 114.742 69.5341 115.178 69.6679 115.833C69.8023 116.488 69.3528 117.155 68.6185 117.483L68.9166 118.932C69.7197 118.944 70.3969 119.38 70.5313 120.035C70.6651 120.689 70.2151 121.357 69.4818 121.685L69.8604 123.53L101.638 117.006L101.261 115.171Z" fill="#29AEFD"/>
<path fill-rule="evenodd" clip-rule="evenodd" d="M75.884 107.139C75.9432 106.903 76.1149 106.866 76.2664 107.056L77.8848 109.089C78.0357 109.279 78.3583 109.42 78.6009 109.403L81.1925 109.223C81.4346 109.206 81.5242 109.358 81.3898 109.56L79.9565 111.727C79.8231 111.93 79.7885 112.281 79.8786 112.506L80.8518 114.916C80.943 115.141 80.8256 115.272 80.5915 115.208L78.0869 114.514C77.8528 114.449 77.5088 114.524 77.3222 114.68L75.3316 116.351C75.1455 116.507 74.985 116.436 74.9738 116.193L74.8586 113.597C74.8479 113.354 74.6704 113.05 74.4651 112.921L72.2622 111.544C72.0559 111.415 72.0729 111.24 72.3012 111.155L74.7344 110.244C74.9615 110.159 75.1967 109.896 75.2548 109.66L75.884 107.139Z" fill="#7BEFE5"/>
<path fill-rule="evenodd" clip-rule="evenodd" d="M89.0979 104.193C89.1571 103.957 89.3288 103.919 89.4802 104.109L91.0981 106.142C91.2495 106.332 91.5716 106.474 91.8148 106.457L94.4063 106.276C94.649 106.259 94.738 106.411 94.6036 106.614L93.1708 108.781C93.037 108.984 93.0012 109.334 93.093 109.56L94.0656 111.97C94.1568 112.195 94.0395 112.327 93.8054 112.262L91.3007 111.568C91.0661 111.504 90.7232 111.579 90.5366 111.735L88.5459 113.405C88.3593 113.562 88.1988 113.491 88.1887 113.248L88.0735 110.652C88.0628 110.409 87.8847 110.105 87.6789 109.976L85.4755 108.599C85.2697 108.47 85.2873 108.294 85.5144 108.209L87.9476 107.299C88.1748 107.213 88.4105 106.95 88.4692 106.715L89.0979 104.193Z" fill="#7BEFE5"/>
<path fill-rule="evenodd" clip-rule="evenodd" d="M4.95129 63.4151C4.95129 63.4151 43.8959 112.064 55.7282 111.577C72.3602 110.892 67.8153 43.0568 67.8153 43.0568L30.9311 36.0094L5.79223 62.9202" fill="#F1854F"/>
<path fill-rule="evenodd" clip-rule="evenodd" d="M9.25415 62.0366C9.25415 62.0366 45.7171 110.232 57.545 110.796C69.3741 111.361 72.1181 41.6778 72.1181 41.6778L35.234 34.6304L10.0961 61.5413" fill="#F9D555"/>
<path fill-rule="evenodd" clip-rule="evenodd" d="M40.9808 42.5454C40.3601 42.3934 39.7938 42.5918 39.2098 42.7565C35.1465 43.8998 31.289 45.6148 27.5947 47.5926C25.3065 48.818 22.9133 50.086 21.1392 52.1652C23.0962 58.1711 27.8559 61.6218 33.4614 61.0976C38.1844 60.6561 42.0872 56.782 42.8893 52.5171C43.214 50.7862 43.2924 48.9987 42.9895 47.2902C42.8466 46.4845 42.6184 45.6814 42.2926 44.9306C42.1102 44.5088 41.8969 44.0971 41.675 43.6929C41.57 43.5004 41.209 42.6019 40.9808 42.5454Z" fill="#074785"/>
<path fill-rule="evenodd" clip-rule="evenodd" d="M59.2696 84.8975C57.3926 87.8031 57.8528 91.7876 59.9356 94.1707C60.7808 95.1374 61.77 95.9885 62.8861 96.5847C63.4119 96.8662 63.9761 97.0977 64.5525 97.2496C64.8772 97.3355 65.2089 97.3984 65.5406 97.4539C65.5507 97.4555 65.563 97.4581 65.5763 97.4613C66.7783 92.7618 67.7754 87.2091 68.5982 81.458C64.7797 80.5478 61.264 81.8089 59.2696 84.8975Z" fill="#074785"/>
<path fill-rule="evenodd" clip-rule="evenodd" d="M45.6105 87.8234C41.0187 86.5591 36.1704 87.4784 34.3201 92.1827C39.4451 97.7509 44.6171 102.892 49.0377 106.356C49.267 106.245 49.459 106.15 49.7448 106.026C53.437 104.43 55.4356 100.578 54.5515 96.7553C53.5623 92.4803 50.1234 89.0664 45.6105 87.8234Z" fill="#074785"/>
<path fill-rule="evenodd" clip-rule="evenodd" d="M70.9402 60.0711C64.9726 62.4083 59.3325 59.1635 57.0225 54.2902C54.786 49.5731 55.4121 44.0513 58.7011 39.8903C61.6436 36.1704 66.7889 34.8229 71.0853 36.6423C71.5529 36.8402 72.0318 37.0081 72.5058 37.1895C71.9865 44.817 71.7268 52.4649 70.9402 60.0711Z" fill="#074785"/>
<path fill-rule="evenodd" clip-rule="evenodd" d="M0.560059 54.4203C0.560059 54.4203 7.10727 40.1484 36.5255 30.9675C65.9436 21.7861 72.3842 30.8513 72.3842 30.8513C72.3842 30.8513 77.8004 35.4233 72.156 43.2514C72.156 43.2514 63.6336 37.0919 42.1597 44.3392C20.6869 51.5876 9.77457 63.8283 9.77457 63.8283" fill="#F1854F"/>
<path fill-rule="evenodd" clip-rule="evenodd" d="M7.57289 57.2502C10.02 60.4843 10.5756 63.6401 9.06599 64.7823C7.5569 65.9235 4.85813 65.2164 2.41159 61.9828C-0.0349464 58.7486 -0.708439 55.322 0.799584 54.1798C2.30867 53.0386 5.12529 54.0166 7.57289 57.2502Z" fill="#FFA4AC"/>
<path d="M28.0404 37.9749C34.8127 34.857 42.5186 32.8355 49.8343 31.44C51.2047 31.1781 50.5269 29.1187 49.1736 29.3768C41.8595 30.7723 34.152 32.7944 27.3797 35.9118C26.1271 36.4887 26.7734 38.5583 28.0404 37.9749Z" fill="white"/>
<path fill-rule="evenodd" clip-rule="evenodd" d="M69.2083 60.7451C67.9818 57.0433 66.718 53.301 65.4137 49.5283C65.4164 49.5053 59.3821 50.6587 53.445 52.3593C47.4971 53.9841 41.673 56.1523 41.6751 56.1304C33.9542 59.0505 26.4264 62.4515 19.1001 66.0211C20.5415 69.4893 21.9562 73.013 23.3437 76.5852C23.3501 76.582 23.3565 76.5799 23.3623 76.5772C23.5058 76.9324 23.6455 77.2907 23.7895 77.6459C24.2017 78.659 24.8666 78.8515 25.9555 78.3897C30.5878 76.4253 35.2623 74.4192 40.0599 72.6669C42.0484 71.9422 42.8867 70.6795 43.1885 68.9198C43.3549 67.952 43.6353 66.8231 44.472 66.0957C44.6981 65.8984 45.1316 65.7288 45.4217 65.6425C45.6606 65.5705 45.8936 65.5678 46.1315 65.6051C46.7063 65.6947 47.2396 65.9011 47.6971 66.2104C48.0346 66.4381 48.3652 66.6935 48.6655 66.9606C49.9954 68.1381 51.4255 68.5892 53.4402 67.8944C58.3007 66.2216 63.2791 64.8762 68.2799 63.7249C69.4557 63.4545 69.8722 62.9197 69.5453 61.8623C69.4307 61.4922 69.3075 61.1205 69.1902 60.7494C69.1955 60.7483 69.2014 60.7467 69.2083 60.7451Z" fill="white"/>
<path fill-rule="evenodd" clip-rule="evenodd" d="M64.6133 54.8858C65.0084 56.245 65.5513 57.584 65.7459 58.9566C65.9464 60.3654 65.1508 61.4805 63.5185 61.9455C59.9719 62.9544 56.4333 64.0454 52.9171 65.1919C51.0299 65.8094 49.8216 65.1348 49.1779 63.5436C48.8916 62.8397 48.5743 62.1481 48.2885 61.4431C47.0391 58.3807 47.6363 57.0513 51.2411 55.8232C54.1393 54.8463 57.0892 53.9851 60.0962 53.4306C61.721 53.1277 63.4834 53.3079 64.6133 54.8858Z" fill="#FFA4AC"/>
<path fill-rule="evenodd" clip-rule="evenodd" d="M39.6733 62.5832C40.1815 63.9787 40.8321 65.3412 41.1387 66.7873C41.4533 68.2719 40.7473 69.556 39.1507 70.2113C35.682 71.6351 32.2308 73.0727 28.8004 74.4976C26.9591 75.2606 25.6985 74.6554 24.929 73.1095C24.5894 72.4254 24.2182 71.7567 23.8775 71.0757C22.3913 68.1183 22.8888 66.7665 26.3864 65.1327C29.2004 63.8305 32.0756 62.5933 35.0357 61.6276C36.6344 61.1045 38.4133 61.0501 39.6733 62.5832Z" fill="#7BEFE5"/>
<path fill-rule="evenodd" clip-rule="evenodd" d="M35.0308 61.6292C32.0713 62.5944 29.196 63.8315 26.3826 65.1348C22.8835 66.7687 22.3875 68.1194 23.8737 71.0773C24.2139 71.7583 24.5856 72.4264 24.9258 73.1116C25.2473 73.7595 25.6558 74.2389 26.1587 74.5242C30.1996 70.2758 34.3643 65.9571 38.674 61.737C37.5584 61.1067 36.244 61.233 35.0308 61.6292Z" fill="#29AEFD"/>
<path fill-rule="evenodd" clip-rule="evenodd" d="M60.0913 53.4316C57.0849 53.9862 54.1355 54.8474 51.2367 55.8248C47.632 57.0534 47.0353 58.3817 48.2847 61.4447C48.571 62.1491 48.8899 62.8413 49.1741 63.5452C49.5122 64.3818 50.0103 64.9631 50.6774 65.2377C54.9881 61.3381 59.4328 57.6075 63.9851 54.2059C62.8866 53.2636 61.442 53.1794 60.0913 53.4316Z" fill="#FD6085"/>
<path d="M30.2812 69.0846C30.1623 66.8753 30.5974 64.319 33.0162 63.6161C35.2697 62.9608 36.9057 65.3204 37.7755 67.006C38.3567 68.1349 36.6263 69.0729 36.0451 67.9456C35.5598 67.0065 34.7562 65.3231 33.4615 65.5332C32.0532 65.7603 32.1934 68.1487 32.2478 69.1651C32.3177 70.4305 30.3495 70.343 30.2812 69.0846Z" fill="#074785"/>
<path d="M53.4886 62.4963C53.4097 60.286 53.8912 57.7376 56.3234 57.0785C58.5891 56.4653 60.1809 58.8548 61.0202 60.5558C61.5812 61.6954 59.8332 62.6014 59.2722 61.4634C58.804 60.5153 58.0319 58.818 56.7329 59.0041C55.3209 59.2062 55.4179 61.5962 55.4547 62.6131C55.5006 63.879 53.5345 63.7558 53.4886 62.4963Z" fill="#074785"/>
<path d="M44.5567 73.4487C45.7554 73.4572 46.8886 73.7953 48.0276 73.3218C48.9714 72.9282 49.8268 72.1038 50.6368 71.4965C51.3844 70.936 52.2632 70.5766 53.1068 71.1514C54.2821 71.954 55.0041 73.7329 55.0019 75.1209C54.9993 76.502 54.4596 77.9205 53.6043 78.9982C53.1601 79.5591 52.5735 80.166 51.9651 80.5499C49.1885 82.2984 45.7496 81.5631 43.4027 79.3874C41.2969 77.5152 40.9663 73.4257 44.5567 73.4487Z" fill="#074785"/>
<path d="M43.9835 79.8727C44.5701 78.8547 45.5401 78.0149 46.637 77.552C49.2995 76.3959 51.1216 78.434 51.5839 80.7659C49.1027 82.1022 46.1784 81.5716 43.9835 79.8727Z" fill="#FD6085"/>
<path d="M108.865 53.5905C108.587 52.5736 108.369 51.7722 108.15 50.9717C107.933 50.1809 107.714 49.3901 107.482 48.5497C97.9694 49.6397 89.0632 48.1253 80.649 43.694C79.6017 45.154 78.635 46.5015 77.5903 47.9573C78.3955 48.5071 79.2061 49.0227 80.0209 49.5064L106.817 54.0406C107.496 53.9073 108.179 53.7574 108.865 53.5905Z" fill="#DF804F"/>
<path d="M106.817 54.0406C97.2432 55.9181 88.3641 54.4528 80.0209 49.5064L77.8101 49.132C78.3391 49.5976 78.8147 50.5147 78.7646 51.1882L74.794 85.5075C74.5695 86.7996 74.8506 88.5715 75.8621 89.2365C79.4429 91.5935 83.4081 92.893 87.6016 93.527C91.0565 94.0491 94.5167 94.3183 97.9407 93.2113C99.7521 92.6253 100.802 91.5993 101.175 89.5964C103.253 78.4478 105.432 67.3184 107.651 56.197C107.782 55.5406 108.589 55.0378 108.999 54.4091L106.817 54.0406Z" fill="#FD6085"/>
<path fill-rule="evenodd" clip-rule="evenodd" d="M107.283 58.0666C107.4 57.4784 107.517 56.8897 107.634 56.301C107.751 55.7139 108.408 55.25 108.839 54.7103C108.82 54.633 108.801 54.5557 108.783 54.4789L106.801 54.1435C97.2271 56.0211 88.348 54.5552 80.0049 49.6093L77.7946 49.235C78.3241 49.7005 78.7987 50.6177 78.7485 51.2912L78.5198 53.2684C87.433 58.8302 96.9669 60.3766 107.283 58.0666Z" fill="#074785"/>
<path fill-rule="evenodd" clip-rule="evenodd" d="M91.485 64.584C86.2315 63.5079 82.1521 62.2409 77.763 59.8503L75.7878 76.9148C75.8812 77.0294 75.9835 77.1275 76.0886 77.1921C84.1278 82.1246 92.8246 84.3082 102.302 82.9794C102.342 82.9735 102.385 82.9634 102.427 82.9511C103.536 77.1099 104.67 71.273 105.819 65.4393C100.887 65.1849 96.0971 65.5278 91.485 64.584Z" fill="#FFA4AC"/>
<path fill-rule="evenodd" clip-rule="evenodd" d="M109.052 52.635C108.828 51.7103 108.6 50.7867 108.36 49.8045C98.0239 51.2123 87.9525 49.2259 78.8857 44.1446C77.7296 45.8707 76.5447 47.5147 75.3918 49.2355C85.7502 56.8161 97.4907 59.0712 109.793 55.6958C109.505 54.5072 109.28 53.5713 109.052 52.635Z" fill="#7BEFE5"/>
<path fill-rule="evenodd" clip-rule="evenodd" d="M79.9607 41.4096C85.6238 37.9482 102.921 38.4431 108.336 46.6487C104.698 50.47 84.7871 46.6844 79.9607 41.4096Z" fill="#7BEFE5"/>
<path fill-rule="evenodd" clip-rule="evenodd" d="M79.9606 41.4096C84.4127 44.0678 88.8098 46.0227 93.6608 46.8882C98.5064 47.752 103.315 47.6688 108.336 46.6487C108.311 47.8304 108.38 48.5855 108.457 50.1986C105.634 50.2919 102.681 50.5174 99.9302 50.4561C93.0737 50.3036 86.6539 48.3359 80.4864 45.4575C78.2867 44.431 78.5411 44.6229 79.9606 41.4096Z" fill="#29AEFD"/>
<path d="M78.0089 49.9799C78.0089 49.9799 78.0142 49.9127 78.0356 49.7997C78.0558 49.6866 78.091 49.5282 78.1433 49.3437C78.2478 48.9742 78.4328 48.5049 78.6605 48.0565C78.7155 47.9445 78.7661 47.8315 78.8237 47.7232C78.8786 47.6139 78.9373 47.5088 78.9954 47.4075C79.1117 47.2044 79.2322 47.0198 79.3442 46.8641C79.4561 46.709 79.5585 46.5831 79.6353 46.4962C79.7116 46.4093 79.7612 46.3624 79.7612 46.3624C79.7612 46.3624 79.759 46.429 79.7436 46.5421C79.7286 46.6556 79.7004 46.8151 79.6556 47.0023C79.5665 47.3777 79.3991 47.8613 79.1858 48.3231C78.957 48.77 78.6845 49.1955 78.4462 49.4973C78.3262 49.6482 78.219 49.7698 78.139 49.8525C78.0606 49.9362 78.0089 49.9799 78.0089 49.9799Z" fill="#29AEFD"/>
<path d="M80.2832 51.1077C80.2832 51.1077 80.2891 51.04 80.3104 50.9275C80.3301 50.8144 80.3653 50.6561 80.4181 50.471C80.5226 50.1015 80.7071 49.6317 80.9354 49.1838C80.9903 49.0713 81.0415 48.9593 81.0985 48.851C81.1535 48.7417 81.2127 48.6361 81.2702 48.5348C81.3876 48.3322 81.5075 48.1471 81.6195 47.992C81.7315 47.8368 81.8339 47.7109 81.9112 47.624C81.9875 47.5371 82.0365 47.4896 82.0365 47.4896C82.0365 47.4896 82.0344 47.5563 82.0189 47.6694C82.004 47.7824 81.9757 47.9418 81.9309 48.1295C81.8419 48.5049 81.675 48.9891 81.4606 49.4499C81.2319 49.8973 80.9594 50.3228 80.7205 50.6246C80.601 50.775 80.4938 50.8971 80.4138 50.9798C80.3344 51.0629 80.2832 51.1077 80.2832 51.1077Z" fill="#29AEFD"/>
<path d="M82.7959 52.1918C82.7959 52.1918 82.8039 52.1246 82.829 52.0126C82.8535 51.9001 82.8951 51.7439 82.9537 51.561C83.0721 51.1957 83.2742 50.7334 83.52 50.2945C83.5792 50.1847 83.6342 50.0743 83.696 49.9682C83.7552 49.861 83.8176 49.7581 83.8795 49.6589C84.0042 49.4605 84.1311 49.2803 84.249 49.1294C84.3674 48.979 84.4735 48.8569 84.554 48.7732C84.6335 48.6889 84.6857 48.6436 84.6857 48.6436C84.6857 48.6436 84.6804 48.7102 84.6607 48.8228C84.6409 48.9347 84.6068 49.0931 84.5551 49.2787C84.4522 49.6498 84.2666 50.1276 84.0357 50.5798C83.7899 51.0181 83.5008 51.433 83.2513 51.7247C83.1265 51.8708 83.0145 51.9887 82.9313 52.0681C82.8482 52.1492 82.7959 52.1918 82.7959 52.1918Z" fill="#29AEFD"/>
<path d="M85.0249 53.405C85.0249 53.405 85.0334 53.3378 85.059 53.2258C85.083 53.1133 85.1246 52.957 85.1838 52.7736C85.3022 52.4083 85.5054 51.946 85.7507 51.5077C85.8093 51.3973 85.8648 51.2864 85.9261 51.1802C85.9853 51.0731 86.0477 50.9701 86.1101 50.871C86.2338 50.6726 86.3607 50.4929 86.4785 50.342C86.5969 50.1916 86.7041 50.069 86.7841 49.9858C86.863 49.9015 86.9158 49.8562 86.9158 49.8562C86.9158 49.8562 86.9105 49.9228 86.8902 50.0354C86.871 50.1473 86.8369 50.3063 86.7846 50.4918C86.6817 50.863 86.4961 51.3408 86.2652 51.7929C86.0194 52.2313 85.7304 52.6461 85.4808 52.9384C85.3566 53.0845 85.2441 53.2023 85.1609 53.2812C85.0782 53.3628 85.0249 53.405 85.0249 53.405Z" fill="#29AEFD"/>
<path d="M87.8399 54.7557C87.8399 54.7557 87.8372 54.6879 87.8441 54.5738C87.8505 54.4592 87.8665 54.2981 87.8958 54.1083C87.955 53.7292 88.0809 53.2402 88.2531 52.7677C88.2942 52.6499 88.331 52.532 88.3742 52.4174C88.4158 52.3022 88.4611 52.1907 88.5064 52.0825C88.5971 51.8671 88.6941 51.6687 88.7864 51.5013C88.8792 51.3343 88.9655 51.1962 89.0317 51.1013C89.0967 51.0053 89.1404 50.9525 89.1404 50.9525C89.1404 50.9525 89.1463 51.0192 89.1447 51.1333C89.1431 51.2474 89.1346 51.409 89.1138 51.6004C89.0706 51.9838 88.9634 52.484 88.8077 52.9682C88.6349 53.4396 88.4158 53.895 88.2153 54.2235C88.115 54.3877 88.0233 54.5216 87.954 54.6133C87.8852 54.705 87.8399 54.7557 87.8399 54.7557Z" fill="#29AEFD"/>
<path d="M90.6944 55.467C90.6944 55.467 90.6843 55.3998 90.6768 55.2857C90.6688 55.1711 90.6656 55.0095 90.6715 54.8175C90.6837 54.4336 90.7493 53.9334 90.8634 53.4434C90.889 53.3212 90.9114 53.1997 90.9413 53.0807C90.968 52.9613 90.9994 52.8451 91.0314 52.732C91.0959 52.5075 91.1685 52.299 91.2383 52.1209C91.3108 51.9439 91.3802 51.7967 91.4335 51.6943C91.4857 51.5914 91.5231 51.5333 91.5231 51.5333C91.5231 51.5333 91.5369 51.5989 91.5487 51.713C91.562 51.8266 91.5727 51.9876 91.5748 52.1801C91.5791 52.5662 91.5332 53.076 91.4377 53.5751C91.3236 54.0646 91.1615 54.5424 91.0026 54.8933C90.9226 55.0682 90.848 55.2121 90.7904 55.3124C90.7339 55.4116 90.6944 55.467 90.6944 55.467Z" fill="#29AEFD"/>
<path d="M93.3488 55.9693C93.3488 55.9693 93.336 55.9021 93.3242 55.7891C93.312 55.6745 93.3013 55.5129 93.2997 55.3214C93.2965 54.937 93.3429 54.4341 93.4362 53.9409C93.4581 53.8182 93.4746 53.6956 93.5002 53.5756C93.5215 53.4551 93.5487 53.3378 93.5765 53.2236C93.6319 52.996 93.6949 52.7853 93.7594 52.6045C93.8239 52.4243 93.8873 52.275 93.9369 52.1705C93.9849 52.066 94.0196 52.0062 94.0196 52.0062C94.0196 52.0062 94.0367 52.0713 94.0532 52.1838C94.0703 52.2969 94.0873 52.4579 94.0975 52.6504C94.1167 53.0359 94.0916 53.5468 94.0153 54.0491C93.9209 54.5424 93.7786 55.0276 93.6335 55.3833C93.5615 55.5619 93.4922 55.7086 93.4384 55.811C93.3856 55.9123 93.3488 55.9693 93.3488 55.9693Z" fill="#29AEFD"/>
<path d="M95.9997 56.196C95.9997 56.196 95.9837 56.1298 95.9677 56.0168C95.9501 55.9032 95.9346 55.7422 95.9245 55.5502C95.9058 55.1668 95.932 54.6629 96.0061 54.1654C96.0226 54.0422 96.0349 53.9185 96.0546 53.7974C96.0717 53.6764 96.0935 53.558 96.1165 53.4428C96.1618 53.213 96.2178 53.0002 96.2743 52.8168C96.3314 52.6344 96.3884 52.4819 96.4332 52.3758C96.4775 52.2691 96.51 52.2089 96.51 52.2089C96.51 52.2089 96.5297 52.2729 96.55 52.3848C96.5719 52.4968 96.5959 52.6568 96.614 52.8493C96.6492 53.2332 96.6444 53.7457 96.5889 54.2501C96.5143 54.7477 96.3911 55.2377 96.2615 55.5993C96.1954 55.78 96.1325 55.9299 96.0834 56.0339C96.0349 56.1373 95.9997 56.196 95.9997 56.196Z" fill="#29AEFD"/>
<path d="M98.9986 56.4631C98.9986 56.4631 98.9747 56.4002 98.9432 56.2903C98.9112 56.18 98.8733 56.0227 98.8376 55.8339C98.7683 55.4558 98.7262 54.953 98.7326 54.4501C98.732 54.3259 98.7278 54.2016 98.7315 54.0795C98.7326 53.9574 98.7384 53.8369 98.7459 53.7201C98.7603 53.4865 98.7864 53.2674 98.8184 53.0791C98.8509 52.8904 98.8867 52.7315 98.9171 52.62C98.9469 52.508 98.9704 52.4435 98.9704 52.4435C98.9704 52.4435 98.9981 52.5048 99.0338 52.6131C99.0706 52.7213 99.116 52.877 99.1592 53.0647C99.245 53.4407 99.3085 53.9489 99.3213 54.4565C99.3138 54.9588 99.2578 55.4611 99.1768 55.8366C99.1362 56.0253 99.0936 56.1816 99.0589 56.2914C99.0258 56.4007 98.9986 56.4631 98.9986 56.4631Z" fill="#29AEFD"/>
<path d="M101.703 56.0349C101.703 56.0349 101.672 55.9747 101.63 55.8675C101.587 55.7614 101.534 55.6083 101.48 55.4238C101.373 55.0554 101.281 54.5584 101.237 54.0576C101.225 53.9339 101.208 53.8107 101.2 53.6886C101.189 53.5665 101.183 53.4465 101.178 53.3298C101.169 53.0957 101.174 52.8754 101.186 52.6845C101.2 52.4936 101.22 52.3321 101.239 52.2185C101.257 52.1044 101.274 52.0377 101.274 52.0377C101.274 52.0377 101.308 52.0958 101.354 52.2003C101.402 52.3038 101.462 52.4542 101.524 52.6371C101.647 53.0023 101.761 53.5015 101.824 54.0054C101.867 54.5066 101.86 55.0111 101.817 55.3934C101.796 55.5849 101.769 55.7448 101.745 55.8579C101.723 55.9699 101.703 56.0349 101.703 56.0349Z" fill="#29AEFD"/>
<path d="M104.508 55.7566C104.508 55.7566 104.476 55.6974 104.43 55.5918C104.385 55.4867 104.326 55.3353 104.267 55.1524C104.15 54.7866 104.043 54.2933 103.984 53.7942C103.968 53.671 103.949 53.5484 103.936 53.4268C103.921 53.3052 103.911 53.1847 103.903 53.0685C103.889 52.8349 103.886 52.6147 103.893 52.4232C103.901 52.2323 103.916 52.0702 103.932 51.955C103.947 51.8404 103.963 51.7737 103.963 51.7737C103.963 51.7737 103.998 51.8308 104.047 51.9337C104.099 52.0361 104.163 52.1849 104.23 52.3657C104.363 52.7272 104.493 53.2226 104.57 53.7244C104.628 54.224 104.637 54.729 104.605 55.1124C104.589 55.3044 104.566 55.4654 104.545 55.5785C104.527 55.6915 104.508 55.7566 104.508 55.7566Z" fill="#29AEFD"/>
<path d="M107.174 55.467C107.174 55.467 107.142 55.4078 107.096 55.3023C107.05 55.1972 106.992 55.0458 106.933 54.8629C106.815 54.4971 106.709 54.0038 106.651 53.5052C106.635 53.3815 106.614 53.2594 106.602 53.1373C106.587 53.0162 106.578 52.8957 106.57 52.7789C106.554 52.5454 106.552 52.3251 106.559 52.1342C106.567 51.9433 106.582 51.7807 106.598 51.6666C106.613 51.5519 106.628 51.4853 106.628 51.4853C106.628 51.4853 106.663 51.5418 106.713 51.6447C106.764 51.7476 106.828 51.8959 106.895 52.0772C107.029 52.4387 107.158 52.9341 107.236 53.4359C107.294 53.9361 107.302 54.4405 107.271 54.8239C107.255 55.0159 107.233 55.1764 107.212 55.2895C107.192 55.4014 107.174 55.467 107.174 55.467Z" fill="#29AEFD"/>
<path fill-rule="evenodd" clip-rule="evenodd" d="M104.003 45.0143C103.898 45.8649 102.945 46.4472 101.872 46.3144L100.54 46.1501C99.4685 46.0174 98.6851 45.2207 98.7896 44.3702C98.8947 43.5196 99.8487 42.9373 100.92 43.0696L102.253 43.2343C103.324 43.3671 104.108 44.1638 104.003 45.0143Z" fill="#074785"/>
<path fill-rule="evenodd" clip-rule="evenodd" d="M115.239 36.6525C115.292 35.6868 114.197 35.4516 113.342 35.3753C111.895 35.2447 110.446 35.105 108.995 35.0378C107.728 34.9797 106.346 34.8832 105.169 35.3519C103.666 35.9502 103.12 37.3286 102.546 38.5978C101.792 40.2684 101.151 41.9679 100.514 43.6785C100.26 44.3579 100.092 44.8506 101.14 45.1876C102.122 45.5033 102.836 44.817 103.07 43.9793C103.452 42.6168 103.83 41.2352 104.48 39.9559C105.006 38.9204 105.654 37.5761 107.172 37.5915C109.34 37.6134 111.51 37.776 113.678 37.8853L113.752 37.9051L113.799 37.8469L113.808 37.8853C114.827 37.976 115.201 37.3675 115.239 36.6525Z" fill="#FFA4AC"/>
<path d="M84.7811 67.0566C83.151 66.7692 81.9187 67.9546 81.5486 69.6754C81.3593 70.5563 82.5778 70.8987 82.7676 70.014C82.9756 69.0494 83.448 68.3668 84.394 68.4105C85.4328 68.4596 85.8114 69.3677 85.5026 70.3857C85.2397 71.2495 86.4614 71.5839 86.7222 70.7238C87.2554 68.9678 86.4251 67.3462 84.7811 67.0566Z" fill="#074785"/>
<path d="M97.7749 69.1704C96.1357 68.9347 94.9337 70.1574 94.6079 71.8878C94.4405 72.7736 95.6691 73.0764 95.8365 72.187C96.02 71.2175 96.4743 70.5211 97.4224 70.535C98.4628 70.551 98.8648 71.4463 98.5827 72.4723C98.3428 73.3436 99.573 73.639 99.8113 72.772C100.299 71.0016 99.4258 69.4082 97.7749 69.1704Z" fill="#074785"/>
<path d="M92.6918 74.6319C92.7777 74.2592 92.6934 73.879 92.342 73.7339C92.053 73.615 91.6035 73.7755 91.5166 74.1488C91.3928 74.6847 91.1716 75.6163 90.585 75.7454C89.7536 75.9277 89.5222 74.817 89.5579 74.1477C89.6043 73.2508 88.3453 73.126 88.2979 74.0304C88.22 75.5246 88.8253 76.9915 90.2992 77.1398C91.6264 77.2731 92.4034 75.8781 92.6918 74.6319Z" fill="#074785"/>
<path d="M101.431 76.838C101.299 78.0442 100.01 78.9038 98.5527 78.7587C97.0953 78.6132 96.0209 77.5184 96.1531 76.3127C96.2848 75.1065 97.5731 74.2469 99.0305 74.392C100.488 74.537 101.563 75.6318 101.431 76.838Z" fill="#FD6085"/>
<path d="M84.3109 74.2176C84.1781 75.4233 82.8903 76.2834 81.4329 76.1378C79.975 75.9922 78.9005 74.8975 79.0333 73.6918C79.1645 72.4861 80.4533 71.626 81.9107 71.7716C83.3681 71.9161 84.4431 73.0114 84.3109 74.2176Z" fill="#FD6085"/>
<path fill-rule="evenodd" clip-rule="evenodd" d="M91.8066 40.1442C90.2288 40.0621 88.653 39.949 87.0853 40.2098C86.1974 40.3569 86.5019 41.7194 87.3876 41.5722C88.8279 41.3328 90.2869 41.4624 91.7357 41.5375C92.6342 41.5845 92.7046 40.1906 91.8066 40.1442Z" fill="white"/>
<path fill-rule="evenodd" clip-rule="evenodd" d="M93.7445 40.4902C92.8465 40.4449 92.7756 41.8383 93.6747 41.8831C94.5732 41.9289 94.643 40.5356 93.7445 40.4902Z" fill="white"/>
<path fill-rule="evenodd" clip-rule="evenodd" d="M78.7528 64.7797C78.3235 64.7007 77.754 65.0063 77.7241 65.4873C77.6474 66.7479 77.4789 67.9989 77.2815 69.2456C77.1029 70.3692 78.8397 70.6896 79.0178 69.5666C79.2156 68.3199 79.3836 67.0689 79.4604 65.8083C79.4892 65.3284 79.2679 64.8746 78.7528 64.7797Z" fill="white"/>
<path fill-rule="evenodd" clip-rule="evenodd" d="M77.9225 71.5514C76.7888 71.6495 76.9402 73.4076 78.0739 73.3095C79.2081 73.2108 79.0556 71.4533 77.9225 71.5514Z" fill="white"/>
<path fill-rule="evenodd" clip-rule="evenodd" d="M78.996 62.1284C77.8624 62.227 78.0143 63.9846 79.1486 63.887C80.2822 63.7889 80.1308 62.0308 78.996 62.1284Z" fill="white"/>
<path d="M53.5062 28.4506C52.0814 28.4506 52.0814 30.6604 53.5062 30.6604C54.9322 30.6604 54.9322 28.4506 53.5062 28.4506Z" fill="white"/>
<path d="M23.8197 37.8059C22.3949 37.8059 22.3949 40.0156 23.8197 40.0156C25.2446 40.0156 25.2446 37.8059 23.8197 37.8059Z" fill="white"/>
<path d="M47.7835 98.2105C46.3586 98.2105 46.3586 100.42 47.7835 100.42C49.2088 100.42 49.2088 98.2105 47.7835 98.2105Z" fill="#29AEFD"/>
<path d="M39.9724 91.0645C38.5476 91.0645 38.5476 93.2743 39.9724 93.2743C41.3973 93.2743 41.3973 91.0645 39.9724 91.0645Z" fill="#29AEFD"/>
<path d="M46.1208 91.0645C44.6959 91.0645 44.6959 93.2743 46.1208 93.2743C47.5456 93.2743 47.5456 91.0645 46.1208 91.0645Z" fill="#29AEFD"/>
<path d="M62.3469 90.7701C60.9205 90.7701 60.9205 92.9799 62.3469 92.9799C63.7712 92.9799 63.7712 90.7701 62.3469 90.7701Z" fill="#29AEFD"/>
<path d="M63.8193 86.2029C62.3939 86.2029 62.3939 88.4126 63.8193 88.4126C65.2446 88.4126 65.2446 86.2029 63.8193 86.2029Z" fill="#29AEFD"/>
<path d="M68.6809 47.6027C67.2566 47.6027 67.2566 49.813 68.6809 49.813C70.1068 49.813 70.1068 47.6027 68.6809 47.6027Z" fill="#29AEFD"/>
<path d="M62.1987 44.8037C60.7733 44.8037 60.7733 47.0135 62.1987 47.0135C63.624 47.014 63.624 44.8037 62.1987 44.8037Z" fill="#29AEFD"/>
<path d="M38.6265 50.2551C37.2012 50.2551 37.2012 52.4649 38.6265 52.4649C40.0519 52.4649 40.0519 50.2551 38.6265 50.2551Z" fill="#29AEFD"/>
<path d="M32.2915 52.9064C30.8656 52.9064 30.8656 55.1167 32.2915 55.1167C33.7163 55.1167 33.7163 52.9064 32.2915 52.9064Z" fill="#29AEFD"/>
<path d="M66.6828 71.3973C66.3917 73.1404 66.0803 74.8778 65.7001 76.6028C65.3945 77.9919 67.5248 78.5822 67.8314 77.1905C68.2101 75.4654 68.522 73.727 68.8132 71.9854C69.0473 70.591 66.9175 69.9943 66.6828 71.3973Z" fill="white"/>
<path d="M67.945 66.854C66.5196 66.854 66.5196 69.0643 67.945 69.0643C69.3693 69.0638 69.3693 66.854 67.945 66.854Z" fill="white"/>
<path d="M29.6977 84.5253C30.6805 85.7112 31.6484 86.9084 32.5698 88.1434C33.311 89.1368 34.9156 88.0687 34.1733 87.0737C33.2518 85.8387 32.284 84.6415 31.3007 83.4556C30.5157 82.5069 28.9069 83.5702 29.6977 84.5253Z" fill="white"/>
<path d="M27.8891 80.6592C27.0764 81.5983 28.5327 82.8594 29.3459 81.9204C30.1591 80.9803 28.7023 79.7197 27.8891 80.6592Z" fill="white"/>
<path fill-rule="evenodd" clip-rule="evenodd" d="M53.1005 96.5095C52.9437 96.0642 52.2318 96.2556 52.3897 96.7052C53.0813 98.6702 52.917 101.133 51.3061 102.609C50.9547 102.93 51.4773 103.45 51.8271 103.13C53.6204 101.487 53.8753 98.7107 53.1005 96.5095Z" fill="white"/>
<path fill-rule="evenodd" clip-rule="evenodd" d="M52.3769 94.9129C51.9017 94.9129 51.9017 95.6494 52.3769 95.6494C52.852 95.6494 52.852 94.9129 52.3769 94.9129Z" fill="white"/>
<path fill-rule="evenodd" clip-rule="evenodd" d="M64.9982 81.9667C63.3014 81.9785 61.9017 82.8733 60.7232 84.0272C60.383 84.36 60.904 84.8804 61.2436 84.5482C62.2824 83.5313 63.4971 82.7138 64.9982 82.7037C65.4728 82.7005 65.4728 81.9641 64.9982 81.9667Z" fill="white"/>
<path fill-rule="evenodd" clip-rule="evenodd" d="M66.1768 81.8569C65.7017 81.8569 65.7017 82.5933 66.1768 82.5933C66.6519 82.5933 66.6519 81.8569 66.1768 81.8569Z" fill="white"/>
<path fill-rule="evenodd" clip-rule="evenodd" d="M58.4522 42.9965C57.2342 44.4139 56.6082 46.116 56.4776 47.9712C56.444 48.4452 57.1814 48.4426 57.2145 47.9712C57.3302 46.3224 57.8896 44.7786 58.9726 43.517C59.2803 43.1592 58.762 42.6355 58.4522 42.9965Z" fill="white"/>
<path fill-rule="evenodd" clip-rule="evenodd" d="M57.0913 49.4691C56.6167 49.4691 56.6167 50.2055 57.0913 50.2055C57.5659 50.2055 57.5659 49.4691 57.0913 49.4691Z" fill="white"/>
<path fill-rule="evenodd" clip-rule="evenodd" d="M27.1243 58.1135C25.9085 57.4854 24.8452 56.5431 24.3471 55.2399C24.1797 54.801 23.4678 54.9908 23.6368 55.4356C24.2037 56.9212 25.355 58.0266 26.7526 58.7497C27.1739 58.9678 27.5461 58.3316 27.1243 58.1135Z" fill="white"/>
<path fill-rule="evenodd" clip-rule="evenodd" d="M28.2159 58.7017C27.7402 58.7017 27.7402 59.4381 28.2159 59.4381C28.6899 59.4381 28.6899 58.7017 28.2159 58.7017Z" fill="white"/>
<path fill-rule="evenodd" clip-rule="evenodd" d="M94.3802 116.034C92.7613 116.426 91.1061 116.618 89.469 116.918C88.5358 117.089 88.932 118.509 89.8609 118.339C91.4975 118.038 93.1532 117.846 94.7721 117.454C95.6952 117.23 95.3038 115.81 94.3802 116.034Z" fill="white"/>
<path fill-rule="evenodd" clip-rule="evenodd" d="M87.1115 117.284C86.1617 117.284 86.1617 118.757 87.1115 118.757C88.0622 118.757 88.0622 117.284 87.1115 117.284Z" fill="white"/>
<path fill-rule="evenodd" clip-rule="evenodd" d="M95.1273 91.1957C93.1298 91.2037 91.0992 91.3871 89.1358 90.9274C88.2116 90.7109 87.8192 92.131 88.7438 92.348C90.8443 92.8391 92.9906 92.6776 95.1273 92.669C96.0771 92.6653 96.0781 91.1925 95.1273 91.1957Z" fill="white"/>
<path fill-rule="evenodd" clip-rule="evenodd" d="M86.4844 90.3121C85.5342 90.3121 85.5342 91.7854 86.4844 91.7854C87.4341 91.7849 87.4341 90.3121 86.4844 90.3121Z" fill="white"/>
<path d="M207.244 69.1145C207.884 69.489 208.535 69.8464 209.182 70.2119C209.98 70.6633 210.571 71.0156 211.181 71.4403C211.836 71.8969 212.449 72.41 213.003 72.9851C212.743 72.7155 213.178 73.2166 213.182 73.2212C213.307 73.3819 213.414 73.5529 213.524 73.7251C213.607 73.8573 213.726 74.123 213.849 74.5414C213.822 74.3692 213.828 74.4012 213.864 74.6377C213.898 74.8623 213.9 75.0926 213.907 75.3195C213.919 75.6866 213.806 75.9699 213.717 76.1843C213.543 76.6027 213.511 76.597 213.144 76.9926C212.996 77.1505 212.683 77.3649 212.311 77.5992C211.04 78.3995 209.138 78.8077 207.541 79.1651C206.481 79.4017 205.993 80.7629 206.317 81.6978C206.704 82.8111 207.795 83.1577 208.851 82.9212C210.972 82.4469 213.098 81.8751 214.924 80.6449C217.074 79.1959 218.194 76.6893 217.798 74.1218C217.104 69.6236 212.421 67.5537 208.927 65.5106C207.99 64.9622 206.709 65.5568 206.281 66.4706C205.793 67.5178 206.308 68.5673 207.244 69.1145Z" fill="#074785"/>
<path fill-rule="evenodd" clip-rule="evenodd" d="M208.038 79.0528C209.976 81.3336 208.077 86.4287 205.655 87.8139C204.216 88.6524 201.896 88.1217 201.833 86.4845C201.657 84.4038 202.546 81.5764 203.538 79.9061" fill="#074785"/>
<path d="M140.481 65.3299C139.802 65.6303 139.115 65.912 138.43 66.2027C137.586 66.5612 136.96 66.8451 136.306 67.1991C135.604 67.5788 134.938 68.02 134.322 68.5291C134.61 68.2902 134.122 68.7394 134.118 68.7434C133.976 68.8893 133.848 69.0472 133.722 69.2057C133.624 69.3277 133.477 69.5785 133.306 69.9804C133.351 69.8128 133.343 69.8436 133.28 70.0739C133.221 70.2934 133.194 70.522 133.161 70.7466C133.107 71.1097 133.188 71.4038 133.253 71.6273C133.378 72.0622 133.412 72.0605 133.731 72.4943C133.86 72.6676 134.147 72.9162 134.491 73.1904C135.664 74.1287 137.508 74.7483 139.056 75.2819C140.083 75.637 140.414 77.0439 139.986 77.9366C139.476 78.9998 138.354 79.2209 137.331 78.8681C135.277 78.1584 133.228 77.3512 131.552 75.9238C129.578 74.2433 128.747 71.6256 129.429 69.1191C130.624 64.7274 135.509 63.1962 139.21 61.5579C140.203 61.119 141.408 61.8538 141.731 62.8086C142.102 63.9059 141.471 64.8916 140.481 65.3299Z" fill="#074785"/>
<path fill-rule="evenodd" clip-rule="evenodd" d="M138.574 75.116C136.392 77.1648 137.707 82.4412 139.958 84.0898C141.294 85.0845 143.659 84.8177 143.906 83.1982C144.314 81.1506 143.749 78.2405 142.95 76.4699" fill="#074785"/>
<path d="M163.879 101.528C164.298 104.47 163.9 107.392 163.56 110.32C163.298 112.566 166.78 113.065 167.043 110.807C167.418 107.588 167.831 104.337 167.37 101.104C167.051 98.8632 163.558 99.2759 163.879 101.528Z" fill="#074785"/>
<path d="M177.103 101.255C176.141 104.413 175.998 107.621 175.871 110.897C175.834 111.854 176.347 112.739 177.369 112.882C178.246 113.006 179.317 112.344 179.354 111.385C179.466 108.476 179.475 105.46 180.331 102.651C180.61 101.735 180.369 100.752 179.415 100.34C178.609 99.9913 177.383 100.336 177.103 101.255Z" fill="#074785"/>
<path fill-rule="evenodd" clip-rule="evenodd" d="M160.65 114.576C165.762 117.001 168.943 113.666 167.248 108.577C163.754 107.982 153.672 111.517 160.65 114.576Z" fill="#074785"/>
<path fill-rule="evenodd" clip-rule="evenodd" d="M182.341 115.539C177.147 117.783 174.085 114.337 175.959 109.312C179.471 108.841 189.422 112.729 182.341 115.539Z" fill="#074785"/>
<path fill-rule="evenodd" clip-rule="evenodd" d="M220.066 90.0308C219.765 89.9955 219.708 89.8923 219.727 89.6016C219.867 87.4325 218.251 85.4619 216.121 85.178C213.906 84.8833 211.853 86.2862 211.369 88.4073C211.336 88.5572 211.218 88.7226 211.091 88.8098C210.408 89.2778 209.887 89.8729 209.652 90.4749C208.711 92.7973 209.925 95.2086 212.204 95.8231C212.471 95.8949 212.566 95.993 212.506 96.2546C212.49 96.3265 212.498 96.4051 212.499 96.481C212.511 98.0617 213.614 99.4965 215.089 99.8517C216.695 100.239 218.358 99.5467 219.052 98.17C219.191 97.8901 219.344 97.8046 219.649 97.7989C221.738 97.7613 223.391 96.1537 223.489 94.0907C223.587 92.0431 222.102 90.2708 220.066 90.0308Z" fill="#FFA4AC"/>
<path fill-rule="evenodd" clip-rule="evenodd" d="M139.576 39.1754C139.561 38.8408 139.333 38.4771 139.116 38.2029C134.19 31.9488 135.714 23.2863 142.487 19.3245C143.1 18.9665 143.074 18.5224 143.094 17.9803C143.327 11.8773 147.214 7.16072 152.891 6.12722C154.899 5.76239 156.86 5.98641 158.75 6.77936C159.16 6.95037 159.466 7.02163 159.855 6.6015C162.12 4.15256 164.905 2.98795 168.122 2.89332C168.539 2.88135 169.017 2.70634 169.356 2.4464C174.227 -1.31822 180.757 -0.686038 184.801 3.98439C185.171 4.41079 185.426 4.68898 186.092 4.46039C191.238 2.69551 196.384 4.61829 199.42 9.41756C199.798 10.0138 200.202 10.2709 200.877 10.3832C206.231 11.2776 209.986 15.4521 210.684 21.1344C210.746 21.6452 211.02 22.254 211.386 22.5715C217.123 27.5429 217.25 36.3616 211.644 41.5833C211.334 41.8729 211.054 42.3329 210.98 42.7547" fill="#FFA4AC"/>
<path d="M211.542 50.0537C212.261 46.4891 212.718 43.5745 212.719 43.5733C213.086 41.2817 213.116 39.3549 212.819 39.2751C212.819 39.2751 212.819 39.2751 212.578 39.3436C204.947 41.5348 194.912 41.0702 186.632 40.8855C178.799 40.7396 170.941 40.1177 163.193 39.0312C159.73 38.5466 156.296 37.9555 152.881 37.3472C149.792 36.7766 144.842 34.8772 141.734 35.3902C141.663 35.4016 141.663 35.4016 141.663 35.4016C141.597 35.4324 141.087 35.1428 140.534 34.7655C140.534 34.7655 140.534 34.7643 139.952 34.5494C137.52 33.655 137.524 33.6664 137.523 33.6641C137.477 34.973 137.509 37.1734 137.592 38.5586C137.593 38.5603 137.591 38.5569 137.707 39.8161C139.281 56.8276 141.673 75.0527 145.614 94.3239C145.7 94.7503 145.835 95.0296 146.256 95.2964C146.939 95.7274 147.575 96.266 148.264 96.6668C162.345 105.348 181.44 106.119 196.45 98.5782C197.07 98.2858 197.393 97.9363 197.632 97.3839C198.856 94.5502 199.877 91.7222 200.829 88.9135C205.402 75.4227 209.043 62.5179 211.542 50.0537Z" fill="#FD6085"/>
<path d="M161.325 38.7564C161.603 59.5826 162.363 80.9123 163.139 102.576C165.015 102.981 166.917 103.286 168.835 103.481C168.777 95.3357 168.702 87.2028 168.67 79.0938C168.586 65.9724 168.518 52.9142 168.552 39.9484C168.552 39.8674 168.551 39.7853 168.551 39.7038C166.761 39.5037 164.974 39.2808 163.194 39.0311C162.57 38.9445 161.947 38.8493 161.325 38.7564Z" fill="#F9D555"/>
<path d="M152.386 37.2486C150.471 36.8399 147.984 36.0435 145.667 35.6074C146.037 39.6092 146.615 45.6301 146.928 48.5163C147.535 54.312 148.2 60.2029 148.912 66.1799C149.644 72.3096 150.424 78.5335 151.217 84.8297C151.815 89.585 152.417 94.3803 153.034 99.2144C154.27 99.7838 155.531 100.305 156.817 100.769C154.971 78.9091 153.26 57.7169 152.386 37.2486Z" fill="#F9D555"/>
<path d="M180.969 103.287C184.312 82.1601 187.603 61.3544 190.377 40.9768C189.101 40.946 187.847 40.9141 186.633 40.8867C185.467 40.8645 184.301 40.8291 183.134 40.7864C181.617 53.5031 179.991 66.2967 178.343 79.1497C177.312 87.3277 176.238 95.525 175.18 103.735C177.115 103.695 179.049 103.542 180.969 103.287Z" fill="#F9D555"/>
<path d="M203.736 51.5045C204.319 49.0669 205.394 44.3344 206.239 40.5629C204.058 40.8194 201.791 40.9551 199.507 41.015C196.093 60.757 191.818 81.0827 187.332 102.023C188.684 101.663 190.019 101.243 191.333 100.768C192.533 96.1384 193.716 91.542 194.889 86.9851C196.471 80.8399 198.033 74.7643 199.533 68.7765C200.996 62.9369 202.401 57.1782 203.736 51.5045Z" fill="#F9D555"/>
<path d="M172.858 16.6304C172.826 16.4771 172.781 16.3237 172.742 16.1698C172.689 16.0193 172.625 15.8694 172.566 15.7183C172.49 15.5718 172.407 15.4282 172.326 15.2834C172.224 15.1352 172.104 14.9892 171.987 14.8444L171.833 14.6877L171.756 14.6101L171.717 14.5714L171.697 14.5514L171.688 14.5417L171.683 14.5366L171.68 14.5349L171.643 14.5035L171.225 14.1912C171.076 14.1034 170.927 14.0144 170.772 13.9312L170.296 13.722L169.807 13.559L169.307 13.4387L168.803 13.3589C168.466 13.323 168.128 13.3024 167.791 13.3059C167.116 13.311 166.447 13.4073 165.791 13.5829C165.602 13.6336 165.418 13.6946 165.232 13.7613C165.201 13.677 165.169 13.5926 165.139 13.5082C165.055 13.3321 164.955 13.1605 164.857 12.9901C164.741 12.8344 164.624 12.676 164.497 12.5266C164.36 12.3909 164.225 12.2484 164.079 12.1236C163.928 12.0079 163.779 11.883 163.619 11.781C163.457 11.6858 163.297 11.5792 163.129 11.4971C162.795 11.3278 162.449 11.191 162.096 11.0821C161.744 10.9772 161.384 10.8974 161.019 10.8478C160.652 10.8033 160.292 10.7834 159.906 10.7942L159.602 10.8142C159.503 10.8227 159.387 10.8284 159.323 10.8415L159.092 10.8774L158.977 10.8957L158.964 10.8974L158.903 10.9082L158.895 10.9105L158.862 10.9191L158.797 10.9345L158.278 11.0678C158.104 11.1203 157.932 11.1904 157.76 11.2531C157.417 11.3922 157.073 11.5621 156.758 11.7878C156.439 12.0044 156.151 12.2764 155.915 12.5722C155.79 12.717 155.702 12.8783 155.597 13.0328C155.506 13.1907 155.431 13.3503 155.351 13.5099C155.289 13.669 155.223 13.8297 155.169 13.9888C155.124 14.1444 155.07 14.304 155.033 14.4585C154.958 14.7686 154.9 15.0719 154.85 15.3677C154.789 15.7189 154.74 16.0569 154.688 16.3898C154.592 16.383 154.496 16.3796 154.396 16.3876C154.258 16.3938 154.123 16.3916 153.984 16.4189C153.434 16.489 152.889 16.7085 152.468 17.0374C152.045 17.3646 151.742 17.7739 151.532 18.1975C151.324 18.6227 151.204 19.0645 151.142 19.5057C151.115 19.7264 151.106 19.9475 151.107 20.1676C151.113 20.387 151.131 20.6059 151.164 20.8214C151.235 21.2541 151.353 21.6828 151.566 22.0773C151.67 22.2751 151.801 22.462 151.946 22.6365C152.104 22.8041 152.272 22.9637 152.475 23.0817C152.576 23.1415 152.679 23.1934 152.793 23.2293C152.899 23.2755 153.016 23.2926 153.127 23.3148C153.239 23.3405 153.359 23.3297 153.468 23.3382C153.578 23.3302 153.686 23.3103 153.794 23.2977C153.686 23.2835 153.575 23.2772 153.469 23.259C153.366 23.2265 153.264 23.2156 153.171 23.1712C153.076 23.129 152.981 23.0937 152.899 23.0327C152.813 22.9836 152.738 22.9209 152.668 22.8531C152.521 22.7271 152.412 22.5681 152.313 22.4096C152.224 22.2414 152.15 22.0698 152.1 21.888C151.998 21.5277 151.949 21.1532 151.959 20.7798C151.963 20.594 151.983 20.4081 152.011 20.2257L152.064 19.9527L152.134 19.687C152.188 19.5114 152.248 19.3421 152.324 19.1785C152.399 19.0166 152.486 18.8616 152.584 18.7191C152.776 18.4323 153.016 18.1929 153.284 18.0367C153.552 17.8765 153.843 17.7945 154.155 17.7865C154.23 17.7745 154.314 17.791 154.392 17.7939C154.472 17.7939 154.553 17.807 154.636 17.823C154.799 17.8406 154.969 17.9005 155.135 17.9427L155.934 18.1439L156.138 17.3983C156.218 17.1047 156.295 16.8128 156.364 16.5255L156.559 15.6836C156.625 15.4105 156.696 15.1477 156.776 14.8975C156.815 14.772 156.861 14.6569 156.902 14.536C156.948 14.4203 157.001 14.3143 157.048 14.2031C157.108 14.1039 157.16 14.0008 157.221 13.9067C157.291 13.8223 157.345 13.7231 157.422 13.6485C157.566 13.4911 157.719 13.3481 157.907 13.2312C158.086 13.1086 158.301 13.0112 158.528 12.9245C158.647 12.888 158.76 12.8424 158.883 12.8088L159.266 12.7176L159.312 12.7067L159.336 12.7005L159.427 12.6874L159.657 12.6532C159.743 12.6378 159.786 12.6429 159.842 12.64L160.003 12.6321C160.115 12.6269 160.253 12.6383 160.376 12.6389C160.503 12.6446 160.63 12.6657 160.756 12.6765C160.884 12.6925 161.008 12.7221 161.135 12.7421C161.26 12.7655 161.381 12.8048 161.504 12.8339C161.745 12.9074 161.978 12.998 162.195 13.1046C162.304 13.1559 162.4 13.2226 162.505 13.2791C162.603 13.3401 162.687 13.413 162.783 13.4757C162.868 13.5459 162.94 13.6234 163.024 13.6946L163.223 13.9312L163.374 14.1889C163.404 14.2818 163.449 14.3702 163.478 14.4642C163.492 14.5611 163.524 14.6557 163.539 14.7561C163.541 14.8587 163.547 14.9624 163.555 15.0662L163.706 16.8254L165.08 15.7987C165.252 15.6682 165.443 15.541 165.662 15.4316C165.878 15.3244 166.11 15.2241 166.352 15.142C166.837 14.9761 167.36 14.8752 167.885 14.8239C168.149 14.8 168.413 14.7954 168.676 14.8017L169.066 14.8302L169.451 14.8843L169.824 14.9693L170.183 15.085L170.522 15.2321L170.838 15.4133L171.146 15.6562C171.215 15.7337 171.287 15.805 171.366 15.8819L171.585 16.1721L171.767 16.4919L171.915 16.8351L172.025 17.1948L172.096 17.5681L172.122 17.9484L172.103 18.332L172.04 18.7128L171.932 19.0868L171.767 19.4459C171.693 19.5559 171.624 19.6699 171.546 19.7817C171.454 19.8803 171.368 19.9897 171.271 20.0889C171.164 20.1767 171.057 20.2713 170.942 20.358L170.565 20.5831L171 20.452C171.138 20.391 171.272 20.3198 171.411 20.2502C171.54 20.1676 171.663 20.0752 171.788 19.9852C171.9 19.8808 172.005 19.7703 172.114 19.6602L172.388 19.2908L172.608 18.8872C172.664 18.747 172.716 18.6034 172.767 18.4586L172.871 18.0122L172.921 17.5562L172.918 17.0933L172.858 16.6304Z" fill="#FD6085"/>
<path d="M207.085 26.783L207.055 26.5071L207.039 26.3692L207.031 26.3008L207.026 26.2666L207.025 26.25L207.023 26.2403V26.2364L207.013 26.189L206.844 25.5802C206.764 25.3858 206.684 25.1897 206.596 24.9971L206.278 24.4492L205.909 23.9368L205.494 23.4602L205.044 23.0184C204.886 22.8788 204.722 22.7459 204.56 22.6108C204.393 22.4791 204.218 22.3606 204.049 22.2352C203.699 21.9969 203.334 21.7774 202.951 21.5882C202.568 21.3972 202.173 21.2267 201.762 21.0842C201.423 20.9634 201.073 20.8682 200.712 20.7889C200.797 20.5957 200.866 20.3945 200.939 20.1961C201 19.9664 201.036 19.7292 201.079 19.4955C201.09 19.2606 201.102 19.0241 201.098 18.7903C201.071 18.56 201.053 18.3257 201.01 18.0994C200.952 17.8783 200.904 17.6502 200.829 17.4365C200.744 17.2267 200.671 17.0089 200.571 16.8071C200.464 16.6099 200.37 16.4035 200.248 16.2143C200.123 16.0284 200.009 15.8335 199.872 15.6562C199.73 15.4823 199.599 15.2993 199.446 15.1346C199.29 14.9721 199.142 14.8028 198.974 14.6512C198.802 14.503 198.638 14.3474 198.457 14.2083C198.269 14.072 198.1 13.9346 197.893 13.8035L197.574 13.6091C197.469 13.547 197.354 13.474 197.27 13.4376L196.997 13.303L196.86 13.2352L196.843 13.2266L196.792 13.2033L196.786 13.201L196.776 13.197L196.737 13.1816L196.656 13.1508L196.019 12.9097C195.8 12.8367 195.568 12.7814 195.343 12.7193C195.121 12.6475 194.872 12.6287 194.635 12.5859C194.4 12.5386 194.149 12.5397 193.902 12.5295C193.409 12.5141 192.901 12.5745 192.423 12.6982C192.18 12.7518 191.959 12.8493 191.728 12.9262C191.507 13.0163 191.3 13.1235 191.088 13.2232C190.893 13.3378 190.693 13.4501 190.506 13.5687C190.327 13.6935 190.14 13.8144 189.97 13.9426C189.629 14.1986 189.308 14.4631 189 14.7259C188.576 15.0856 188.175 15.4464 187.777 15.7964C187.752 15.7736 187.727 15.7514 187.7 15.7297C187.579 15.622 187.451 15.5182 187.307 15.4287C187.165 15.337 187.033 15.2366 186.874 15.1654C186.273 14.841 185.558 14.6632 184.869 14.6831C184.18 14.7025 183.534 14.8878 182.966 15.154C182.68 15.2862 182.415 15.4441 182.162 15.6134C181.91 15.7845 181.677 15.972 181.454 16.1687L181.138 16.4765L180.848 16.8037C180.665 17.0295 180.491 17.2603 180.339 17.5026C180.035 17.9883 179.788 18.507 179.661 19.0605C179.624 19.1968 179.61 19.3404 179.585 19.4795C179.57 19.6203 179.57 19.7628 179.561 19.9042C179.575 20.1892 179.607 20.4743 179.712 20.7439L179.794 20.9429C179.826 21.0067 179.867 21.0677 179.903 21.1293C179.969 21.2558 180.074 21.3618 180.168 21.4696C180.258 21.579 180.389 21.6594 180.494 21.75C180.613 21.8276 180.741 21.8903 180.863 21.9615C180.757 21.8703 180.645 21.7843 180.546 21.6885C180.462 21.5813 180.36 21.4958 180.295 21.3795C180.228 21.2661 180.153 21.1595 180.118 21.0352C180.094 20.9759 180.069 20.9183 180.051 20.8579L180.014 20.6732C179.961 20.4287 179.976 20.1773 180.003 19.9322C180.031 19.8102 180.051 19.6876 180.084 19.5685C180.127 19.4493 180.157 19.329 180.21 19.2139C180.404 18.7504 180.672 18.3126 181.002 17.9193C181.165 17.7221 181.344 17.5379 181.53 17.3601L181.821 17.107L182.126 16.8721C182.334 16.7222 182.548 16.5831 182.771 16.4617C182.995 16.3408 183.224 16.2348 183.458 16.1516C183.926 15.9834 184.411 15.9013 184.867 15.9327C185.322 15.96 185.747 16.0934 186.12 16.3317C186.218 16.379 186.301 16.46 186.391 16.5255C186.482 16.5871 186.565 16.6669 186.643 16.7501C186.813 16.8995 186.949 17.0961 187.098 17.2729L187.609 17.8811L188.25 17.412C188.583 17.1685 188.911 16.9229 189.227 16.676L190.151 15.9378C190.455 15.6995 190.758 15.4726 191.063 15.2634C191.215 15.1568 191.37 15.069 191.522 14.9716C191.675 14.8821 191.831 14.8057 191.984 14.7207C192.141 14.6586 192.296 14.5851 192.451 14.5286C192.609 14.4882 192.762 14.4209 192.919 14.3975C193.235 14.3354 193.547 14.2926 193.873 14.3114C194.038 14.3234 194.198 14.316 194.364 14.3565C194.531 14.3924 194.695 14.3975 194.863 14.4585C195.031 14.5098 195.199 14.5492 195.366 14.6067L195.869 14.8057L195.932 14.8302L195.958 14.8393L196.085 14.9037L196.356 15.0411C196.459 15.0879 196.507 15.1306 196.575 15.1728L196.772 15.2971C196.903 15.3826 197.045 15.5011 197.18 15.5998C197.316 15.7064 197.437 15.8289 197.567 15.9412C197.693 16.0592 197.805 16.1881 197.927 16.3095C198.043 16.4343 198.141 16.5723 198.25 16.7017C198.355 16.8339 198.437 16.9781 198.534 17.115C198.625 17.2535 198.689 17.4017 198.772 17.5442C198.847 17.689 198.892 17.8401 198.957 17.9854C199.011 18.1342 199.04 18.2836 199.087 18.4318C199.119 18.5806 199.129 18.7288 199.157 18.8764V19.3136C199.127 19.4539 199.112 19.597 199.082 19.7361C199.027 19.8689 198.995 20.0091 198.936 20.1402C198.86 20.2651 198.803 20.3996 198.726 20.5256C198.631 20.6447 198.54 20.7667 198.45 20.891L197.447 22.2694L199.182 22.3241C199.345 22.3287 199.503 22.319 199.67 22.3309C199.836 22.3509 200.003 22.3509 200.173 22.3857C200.51 22.4375 200.853 22.5162 201.19 22.6205C201.867 22.8246 202.517 23.1307 203.13 23.4836C203.278 23.5793 203.433 23.6671 203.577 23.7657L204.002 24.077L204.398 24.4133L204.763 24.7753L205.087 25.1629L205.367 25.574C205.443 25.717 205.517 25.8601 205.599 26.0032L205.776 26.4513L205.887 26.9483C205.892 27.0914 205.907 27.2334 205.916 27.3833L205.882 27.8667L205.781 28.3501L205.622 28.8267L205.411 29.2913L205.145 29.7348L204.826 30.1515L204.459 30.5345L204.047 30.8789L203.593 31.1793L203.095 31.421C202.92 31.4763 202.743 31.539 202.56 31.5937C202.376 31.6222 202.188 31.6667 201.998 31.6923C201.807 31.6974 201.612 31.71 201.417 31.7094L200.829 31.6439L201.402 31.8154C201.6 31.8497 201.801 31.8696 202.005 31.8981C202.209 31.9032 202.415 31.8941 202.623 31.8884C202.824 31.8605 203.027 31.82 203.233 31.7841L203.824 31.5971L204.386 31.3366C204.56 31.2306 204.734 31.1211 204.906 31.0077L205.383 30.6229L205.812 30.1891L206.191 29.7125L206.514 29.1978C206.606 29.0182 206.685 28.8312 206.772 28.6448C206.839 28.4527 206.897 28.2578 206.959 28.0617C207.001 27.8616 207.033 27.6569 207.068 27.4523C207.083 27.2334 207.084 27.0071 207.085 26.783ZM195.98 14.8473C195.981 14.8479 195.981 14.8479 195.98 14.8473V14.8473Z" fill="#FD6085"/>
<path fill-rule="evenodd" clip-rule="evenodd" d="M212.819 39.2757C212.819 39.2757 212.819 39.2757 212.578 39.3441C204.947 41.5354 194.912 41.0708 186.632 40.8861C178.799 40.7402 170.941 40.1182 163.193 39.0317C159.73 38.5472 156.296 37.956 152.881 37.3478C149.792 36.7772 144.842 34.8778 141.734 35.3908C141.663 35.4022 141.663 35.4022 141.663 35.4022C141.597 35.433 141.087 35.1434 140.534 34.766C140.534 34.766 140.534 34.7649 139.952 34.55C137.52 33.6556 137.524 33.667 137.523 33.6647C137.477 34.9735 137.509 37.1739 137.592 38.5592C137.592 38.5592 137.592 38.5597 137.598 38.627C162.913 42.7992 187.1 44.3264 212.75 43.3704C213.087 41.1694 213.106 39.3527 212.819 39.2757Z" fill="#074785"/>
<path fill-rule="evenodd" clip-rule="evenodd" d="M216.403 37.7873C216.551 39.5756 214.978 41.1027 212.921 41.1785C187.082 42.151 162.733 40.6051 137.226 36.3724C135.196 36.0367 133.828 34.3237 134.201 32.5679C134.572 30.8139 136.493 29.6783 138.464 30.0078C163.35 34.1652 187.286 35.6844 212.496 34.7073C214.496 34.6315 216.256 36.0002 216.403 37.7873Z" fill="#FD6085"/>
<path fill-rule="evenodd" clip-rule="evenodd" d="M133.565 42.8921C133.263 42.8562 133.206 42.7536 133.226 42.464C133.365 40.2944 131.751 38.3243 129.619 38.0404C127.405 37.7451 125.351 39.148 124.868 41.2698C124.834 41.4191 124.718 41.585 124.59 41.6728C123.907 42.1408 123.386 42.7354 123.151 43.3385C122.21 45.6609 123.423 48.0716 125.703 48.6867C125.97 48.7585 126.065 48.8566 126.004 49.1188C125.987 49.1906 125.998 49.2687 125.999 49.344C126.009 50.9247 127.112 52.3601 128.588 52.7153C130.194 53.1029 131.857 52.4097 132.55 51.0336C132.69 50.7537 132.842 50.6676 133.148 50.6625C135.236 50.6243 136.89 49.0168 136.988 46.9543C137.085 44.905 135.601 43.1327 133.565 42.8921Z" fill="#FFA4AC"/>
<path fill-rule="evenodd" clip-rule="evenodd" d="M227.147 52.6115C226.847 52.5762 226.79 52.473 226.809 52.1828C226.949 50.0138 225.333 48.0431 223.203 47.7592C220.988 47.4639 218.935 48.8668 218.452 50.988C218.418 51.1379 218.3 51.3038 218.174 51.3916C217.489 51.8596 216.97 52.4542 216.734 53.0573C215.793 55.3791 217.006 57.7904 219.286 58.4049C219.553 58.4768 219.648 58.5748 219.587 58.837C219.571 58.9089 219.581 58.987 219.581 59.0628C219.592 60.6435 220.695 62.0783 222.172 62.4341C223.777 62.8211 225.44 62.1279 226.133 60.7524C226.273 60.4719 226.425 60.387 226.731 60.3819C228.819 60.3442 230.473 58.7356 230.571 56.6737C230.668 54.6232 229.184 52.8515 227.147 52.6115Z" fill="#FFA4AC"/>
<path fill-rule="evenodd" clip-rule="evenodd" d="M205.782 70.4889L206.378 53.0732C206.378 53.0732 175.179 50.9361 175.18 50.931L143.924 49.4078L142.479 66.7739L142.505 66.7761C142.464 67.3553 142.417 67.9356 142.377 68.5154C142.266 70.1668 142.95 70.8651 144.526 70.9512C151.225 71.3194 157.932 71.601 164.62 72.1232C167.391 72.3398 169.053 71.1285 170.324 68.9457C171.023 67.7435 171.938 66.3919 173.306 65.8914C173.676 65.7557 174.277 65.7728 174.667 65.819C174.988 65.8578 175.267 65.9832 175.532 66.1662C176.17 66.6074 176.701 67.1797 177.093 67.8495C177.384 68.3426 177.648 68.8677 177.876 69.3927C178.883 71.7099 180.392 73.1066 183.17 73.2154C189.872 73.4777 196.566 73.9827 203.263 74.3994C204.838 74.4975 205.599 73.8847 205.682 72.231C205.71 71.6506 205.732 71.0692 205.757 70.4889H205.782Z" fill="white"/>
<path fill-rule="evenodd" clip-rule="evenodd" d="M202.893 60.3482C202.736 62.4221 202.768 64.5347 202.367 66.5612C201.955 68.6408 200.461 69.9063 198.252 69.8459C193.453 69.713 188.654 69.5152 183.859 69.2553C181.285 69.1173 180.169 67.5445 180.197 65.0489C180.209 63.9424 180.177 62.8382 180.192 61.734C180.257 56.9137 181.635 55.4971 186.478 55.6533C190.372 55.7793 194.283 55.9674 198.143 56.4684C200.231 56.7375 202.265 57.6798 202.893 60.3482Z" fill="#FD6085"/>
<path fill-rule="evenodd" clip-rule="evenodd" d="M169.477 58.4009C169.333 60.5683 169.385 62.7772 168.993 64.891C168.589 67.0634 167.08 68.374 164.828 68.2913C159.94 68.1129 155.05 67.8644 150.165 67.5537C147.541 67.3867 146.391 65.7329 146.398 63.1244C146.401 61.9689 146.361 60.8128 146.366 59.6573C146.391 54.6198 147.783 53.1502 152.717 53.3537C156.685 53.5179 160.67 53.7476 164.606 54.3034C166.734 54.6038 168.814 55.6054 169.477 58.4009Z" fill="#29AEFD"/>
<path fill-rule="evenodd" clip-rule="evenodd" d="M152.844 54.1751C151.181 54.1238 149.498 54.5901 148.701 56.1811C147.94 57.6986 148.072 59.4373 148.067 61.0864C148.061 62.8941 150.872 63.0685 150.877 61.2512C150.881 60.2086 150.839 59.1648 150.977 58.129C151.109 57.1303 151.757 56.957 152.678 56.9861C154.49 57.0425 154.659 54.2321 152.844 54.1751Z" fill="white"/>
<path fill-rule="evenodd" clip-rule="evenodd" d="M156.426 54.3855C154.613 54.2789 154.449 57.0898 156.262 57.1958C158.075 57.3019 158.239 54.4915 156.426 54.3855Z" fill="white"/>
<path fill-rule="evenodd" clip-rule="evenodd" d="M185.091 56.892C184.031 57.0516 182.914 57.2967 182.145 58.1039C181.159 59.1403 181.104 60.6601 181.031 62.0082C180.931 63.8198 183.742 63.9857 183.841 62.173C183.876 61.5214 183.812 60.6823 184.138 60.0911C184.342 59.7212 185.316 59.7007 185.68 59.6459C187.475 59.3752 186.881 56.6224 185.091 56.892Z" fill="white"/>
<path fill-rule="evenodd" clip-rule="evenodd" d="M189.006 56.6486C187.194 56.5414 187.029 59.3518 188.842 59.4584C190.654 59.5644 190.818 56.7546 189.006 56.6486Z" fill="white"/>
<path d="M158.591 58.6067C155.027 58.308 152.619 60.8077 152.176 64.2104C151.948 65.9519 154.64 66.4216 154.868 64.6732C155.117 62.7664 155.992 61.3646 158.037 61.2991C160.28 61.2284 161.28 62.9312 160.824 64.9577C160.437 66.6781 163.132 67.1324 163.517 65.42C164.302 61.9256 162.185 58.9066 158.591 58.6067Z" fill="#074785"/>
<path d="M191.544 60.5061C187.971 60.3095 185.637 62.877 185.291 66.2899C185.114 68.0377 187.817 68.4304 187.995 66.677C188.19 64.7639 189.025 63.337 191.066 63.2139C193.306 63.0788 194.354 64.753 193.956 66.7915C193.618 68.5216 196.324 68.899 196.66 67.1775C197.346 63.6614 195.145 60.7045 191.544 60.5061Z" fill="#074785"/>
<path d="M178.612 74.7979C178.743 74.0637 178.505 73.3295 177.726 73.0809C177.087 72.8768 176.141 73.232 176.009 73.9668C175.82 75.0242 175.48 76.8592 174.236 77.1665C172.474 77.5997 171.812 75.4586 171.79 74.1509C171.759 72.3997 169.029 72.276 169.061 74.042C169.112 76.9607 170.631 79.7602 173.826 79.9084C176.704 80.0418 178.173 77.2509 178.612 74.7979Z" fill="#074785"/>
<path fill-rule="evenodd" clip-rule="evenodd" d="M208.307 17.9501C207.168 15.4943 205.617 13.4752 203.1 12.3339C202.204 11.9275 201.42 13.2546 202.323 13.6644C204.626 14.7088 205.936 16.4828 206.977 18.7276C207.394 19.6289 208.722 18.8456 208.307 17.9501Z" fill="white"/>
<path fill-rule="evenodd" clip-rule="evenodd" d="M208.668 20.4441C207.675 20.4441 207.675 21.9849 208.668 21.9849C209.662 21.9849 209.662 20.4441 208.668 20.4441Z" fill="white"/>
<path fill-rule="evenodd" clip-rule="evenodd" d="M151.855 8.17484C150.279 8.78878 148.832 9.60737 147.654 10.8375C146.466 12.078 145.714 13.6536 145.155 15.2594C144.828 16.2 146.316 16.6008 146.64 15.6682C147.636 12.8076 149.416 10.7686 152.263 9.65982C153.179 9.30354 152.781 7.81342 151.855 8.17484Z" fill="white"/>
<path fill-rule="evenodd" clip-rule="evenodd" d="M154.831 7.29981C153.838 7.29981 153.838 8.84066 154.831 8.84066C155.825 8.84066 155.825 7.29981 154.831 7.29981Z" fill="white"/>
<path fill-rule="evenodd" clip-rule="evenodd" d="M129.262 39.1857C128.131 39.1252 126.903 39.8327 126.44 40.8764C126.269 41.2601 126.325 41.7007 126.716 41.9304C127.048 42.1243 127.599 42.0376 127.77 41.654C128.031 41.0662 128.615 40.6917 129.262 40.7259C130.255 40.7801 130.249 39.2387 129.262 39.1857Z" fill="white"/>
<path fill-rule="evenodd" clip-rule="evenodd" d="M125.873 42.2668C124.88 42.2668 124.88 43.8071 125.873 43.8071C126.866 43.8071 126.866 42.2668 125.873 42.2668Z" fill="white"/>
<path fill-rule="evenodd" clip-rule="evenodd" d="M224.585 49.0721C223.173 48.4986 221.591 48.4963 220.395 49.527C219.642 50.1763 220.737 51.2616 221.485 50.6163C222.247 49.9602 223.334 50.2162 224.175 50.5576C225.096 50.931 225.492 49.4409 224.585 49.0721Z" fill="white"/>
<path fill-rule="evenodd" clip-rule="evenodd" d="M219.451 51.2006C218.458 51.2006 218.458 52.7409 219.451 52.7409C220.445 52.7409 220.445 51.2006 219.451 51.2006Z" fill="white"/>
<path fill-rule="evenodd" clip-rule="evenodd" d="M216.934 86.4007C215.805 85.9578 214.44 86.301 213.566 87.1122C212.838 87.79 213.929 88.877 214.656 88.2021C215.157 87.7364 215.902 87.6429 216.525 87.8869C217.451 88.2483 217.848 86.7587 216.934 86.4007Z" fill="white"/>
<path fill-rule="evenodd" clip-rule="evenodd" d="M218.219 87.9644C217.226 87.9644 217.226 89.5053 218.219 89.5053C219.212 89.5053 219.212 87.9644 218.219 87.9644Z" fill="white"/>
<path fill-rule="evenodd" clip-rule="evenodd" d="M159.836 34.5602C154.483 34.3482 149.197 33.5359 143.929 32.6032C142.964 32.4322 142.49 33.8995 143.464 34.0723C148.867 35.0294 154.287 35.8828 159.778 36.0999C160.77 36.1393 160.828 34.5996 159.836 34.5602Z" fill="white"/>
<path fill-rule="evenodd" clip-rule="evenodd" d="M162.611 34.8732C161.618 34.8732 161.618 36.4135 162.611 36.4135C163.604 36.4135 163.604 34.8732 162.611 34.8732Z" fill="white"/>
<path fill-rule="evenodd" clip-rule="evenodd" d="M141.2 32.3308C140.205 32.3308 140.205 33.8716 141.2 33.8716C142.193 33.8716 142.193 32.3308 141.2 32.3308Z" fill="white"/>
<path fill-rule="evenodd" clip-rule="evenodd" d="M198.786 85.0902C197.773 87.5329 196.84 90.0075 195.91 92.4838C195.562 93.4158 197.05 93.8148 197.396 92.8931C198.325 90.4167 199.258 87.9422 200.271 85.4995C200.652 84.5823 199.161 84.1861 198.786 85.0902Z" fill="white"/>
<path fill-rule="evenodd" clip-rule="evenodd" d="M200.555 82.163C199.562 82.163 199.562 83.7033 200.555 83.7033C201.548 83.7027 201.548 82.163 200.555 82.163Z" fill="white"/>
<path fill-rule="evenodd" clip-rule="evenodd" d="M195.524 94.8962C194.53 94.8962 194.53 96.4365 195.524 96.4365C196.517 96.4371 196.517 94.8962 195.524 94.8962Z" fill="white"/>
<path fill-rule="evenodd" clip-rule="evenodd" d="M166.538 16.2342C165.545 16.2314 165.545 17.7722 166.538 17.7745C166.981 17.7756 167.419 17.7853 167.851 17.8942C168.278 18.0014 168.416 18.1867 168.387 18.6216C168.322 19.6141 169.863 19.6072 169.927 18.6216C170.057 16.6504 168.092 16.2376 166.538 16.2342Z" fill="white"/>
<path fill-rule="evenodd" clip-rule="evenodd" d="M196.35 16.4594C194.889 15.3244 191.571 14.9146 191.136 17.3379C190.961 18.3092 192.445 18.7248 192.621 17.7477C192.815 16.6703 194.633 17.0602 195.261 17.5482C196.036 18.1502 197.134 17.0682 196.35 16.4594Z" fill="white"/>
<path fill-rule="evenodd" clip-rule="evenodd" d="M286.918 40.737C284.474 38.0499 281.139 35.7995 277.567 35.2532C271.62 34.3442 266.219 33.8899 260.362 35.2408C250.896 37.4235 243.144 36.6527 240.726 26.492C240.572 25.8498 240.425 25.3346 240.26 24.0774C237.507 27.0845 233.737 26.4581 230.393 25.3657C231.603 28.9439 232.439 32.2467 233.813 35.3063C236.644 41.6089 241.452 43.8175 248.133 42.0338C251.355 41.1727 254.43 39.7151 257.675 38.9951C261.338 38.1825 265.145 37.3468 268.839 37.5313C272.728 37.7254 276.271 39.5362 277.989 43.5636L280.119 44.383C281.234 44.2859 282.248 44.1239 283.363 44.0269C283.576 44.1053 283.79 44.1821 284.006 44.2622C285.022 44.2018 286.04 44.1437 287.057 44.0856L287.08 44.0805C287.592 43.9699 288.125 43.8553 288.976 43.6708C288.187 42.5321 287.651 41.544 286.918 40.737Z" fill="#FFA4AC"/>
<path fill-rule="evenodd" clip-rule="evenodd" d="M274.359 39.1937C275.886 40.1739 277.154 41.6061 277.989 43.5636L280.119 44.383C281.234 44.2859 282.248 44.1239 283.363 44.0269C283.576 44.1053 283.79 44.1821 284.006 44.2622C285.022 44.2018 286.04 44.1437 287.057 44.0856L287.08 44.0805C287.592 43.9699 288.125 43.8553 288.976 43.6708C288.187 42.5309 287.651 41.5434 286.918 40.7359C286.582 40.3674 286.23 40.0074 285.863 39.6587C282.18 38.9285 278.328 38.8015 274.359 39.1937Z" fill="#074785"/>
<path fill-rule="evenodd" clip-rule="evenodd" d="M313.849 87.8715C314.482 88.1971 314.88 88.4013 315.263 88.5971L315.279 88.6067C316.071 88.8686 316.865 89.1304 317.655 89.3928C317.844 89.3759 318.029 89.3595 318.214 89.3437C319.076 89.658 319.845 90 320.705 90.3132L322.566 90.1168C324.779 87.2947 327.967 86.612 331.085 87.2829C334.048 87.9211 336.883 89.3894 339.609 90.8092C342.024 92.067 344.149 93.8733 346.516 95.2377C351.424 98.0666 355.697 97.3392 359.274 92.9512C361.011 90.8216 362.372 88.3855 364.089 85.8112C361.21 85.9647 358.094 85.6622 356.554 82.6986C356.156 83.6573 355.931 84.0343 355.673 84.51C351.605 92.0382 345.347 90.9988 338.321 87.2637C333.972 84.9529 328.96 83.1517 324.13 83.5162C321.18 83.7397 318.602 84.3773 316.099 85.9862C315.348 86.4686 314.715 87.1367 313.849 87.8715Z" fill="#F9D555"/>
<path fill-rule="evenodd" clip-rule="evenodd" d="M318.214 89.3431C319.076 89.6574 319.845 89.9994 320.705 90.3126L322.566 90.1162C323.844 88.4871 325.445 87.5718 327.172 87.2174C324.764 86.0476 322.18 85.2131 319.486 84.7904C319.213 84.7469 318.94 84.708 318.668 84.6702C317.796 85.0127 316.943 85.4427 316.099 85.985C315.348 86.468 314.715 87.1362 313.849 87.8709C314.482 88.1965 314.88 88.4008 315.263 88.5966L315.279 88.6062C316.071 88.868 316.865 89.1298 317.655 89.3922C317.844 89.3753 318.029 89.3589 318.214 89.3431Z" fill="#074785"/>
<path d="M272.982 117.316C272.601 116.947 271.838 111.784 271.145 111.825C270.45 111.867 269.846 116.988 269.522 117.325C268.87 118.002 264.109 118.481 264.149 119.137C264.188 119.791 268.863 120.102 269.523 120.741C269.892 121.098 270.667 126.275 271.361 126.234C272.054 126.193 272.648 121.087 272.985 120.739C273.614 120.084 278.411 119.58 278.373 118.922C278.333 118.263 273.617 117.933 272.982 117.316Z" fill="#FD6085"/>
<path d="M326.179 65.096C325.798 64.728 325.035 59.5648 324.342 59.6054C323.647 59.6483 323.043 64.7687 322.719 65.1067C322.067 65.7827 317.307 66.2618 317.345 66.9181C317.384 67.5732 322.06 67.883 322.72 68.5218C323.088 68.8784 323.864 74.0553 324.558 74.0146C325.251 73.9746 325.844 68.8688 326.182 68.519C326.811 67.8655 331.608 67.361 331.569 66.7025C331.531 66.044 326.815 65.7144 326.179 65.096Z" fill="#FD6085"/>
<path fill-rule="evenodd" clip-rule="evenodd" d="M302.353 50.7301C293.745 42.3724 283.101 40.0565 271.577 41.864C252.218 44.8987 237.527 65.3408 244.043 84.4405C253.985 113.582 292.308 115.125 306.692 88.6682C313.776 75.6353 312.194 60.2848 302.353 50.7301Z" fill="#A089E4"/>
<path d="M277.237 73.0564C277.9 76.787 275.414 80.3499 271.683 81.0136C267.951 81.6777 264.389 79.1898 263.725 75.4586C263.061 71.7287 265.548 68.1657 269.279 67.5021C273.011 66.8385 276.574 69.3265 277.237 73.0564Z" fill="white"/>
<path d="M276.012 73.2743C276.503 76.0331 274.664 78.6672 271.906 79.1576C269.147 79.648 266.512 77.809 266.022 75.0512C265.531 72.2924 267.369 69.6583 270.129 69.1674C272.888 68.677 275.522 70.516 276.012 73.2743Z" fill="#074785"/>
<path d="M270.687 83.3746C270.836 84.212 269.99 85.0641 268.796 85.2757C267.603 85.4884 266.516 84.9811 266.365 84.1431C266.217 83.3052 267.062 82.4531 268.256 82.2404C269.45 82.0282 270.537 82.5372 270.687 83.3746Z" fill="#FFA4AC"/>
<path d="M292.47 76.8728C292.798 77.682 292.125 78.718 290.968 79.187C289.811 79.6553 288.607 79.3788 288.28 78.569C287.952 77.7599 288.625 76.7238 289.781 76.256C290.938 75.7871 292.142 76.0624 292.47 76.8728Z" fill="#FFA4AC"/>
<path d="M274.64 71.3241C273.919 70.6486 273.102 70.1407 272.114 69.9822C271.669 69.9116 271.608 70.6057 272.05 70.6763C272.844 70.8032 273.529 71.2327 274.109 71.7755C274.433 72.0774 274.968 71.6305 274.64 71.3241Z" fill="white"/>
<path d="M270.944 69.7672C270.833 69.7632 270.722 69.7565 270.611 69.7553C270.422 69.7497 270.25 69.871 270.231 70.0702C270.216 70.2485 270.357 70.4443 270.546 70.4494C270.657 70.4517 270.768 70.4573 270.879 70.4607C271.07 70.4658 271.24 70.345 271.26 70.1464C271.275 69.9658 271.133 69.7711 270.944 69.7672Z" fill="white"/>
<path d="M275.354 72.4233C275.245 72.2676 274.997 72.2676 274.863 72.3833C274.71 72.5142 274.714 72.7184 274.823 72.8742C274.822 72.8697 274.822 72.8663 274.82 72.8618C274.863 73.0463 275.029 73.1784 275.224 73.1439C275.403 73.1118 275.55 72.925 275.506 72.7393C275.477 72.6174 275.426 72.5249 275.354 72.4233Z" fill="white"/>
<path d="M274.82 72.8738C274.822 72.8778 274.824 72.8835 274.826 72.888C274.825 72.8841 274.824 72.8784 274.823 72.8738C274.765 72.7916 274.808 72.8523 274.82 72.8738Z" fill="white"/>
<path d="M274.826 72.8878C274.836 72.9126 274.839 72.9385 274.826 72.8878V72.8878Z" fill="white"/>
<path d="M291.624 69.0855C292.288 72.8161 289.802 76.3796 286.07 77.0426C282.339 77.7062 278.777 75.22 278.113 71.4877C277.449 67.7572 279.936 64.1942 283.667 63.5323C287.398 62.8681 290.961 65.3555 291.624 69.0855Z" fill="white"/>
<path d="M289.451 69.6019C289.943 72.3607 288.103 74.9948 285.344 75.4852C282.586 75.975 279.952 74.1354 279.461 71.3777C278.971 68.6194 280.81 65.9847 283.568 65.4949C286.328 65.0034 288.961 66.843 289.451 69.6019Z" fill="#074785"/>
<path d="M288.079 67.6505C287.358 66.9756 286.542 66.4667 285.554 66.3103C285.109 66.2387 285.049 66.9339 285.489 67.0039C286.283 67.1308 286.969 67.5597 287.548 68.102C287.872 68.405 288.408 67.9575 288.079 67.6505Z" fill="white"/>
<path d="M284.384 66.0936C284.273 66.0902 284.162 66.084 284.052 66.0818C283.862 66.0761 283.69 66.1969 283.672 66.3961C283.656 66.5744 283.796 66.7708 283.987 66.7747C284.098 66.7781 284.209 66.7843 284.32 66.7866C284.509 66.7917 284.681 66.6703 284.699 66.4717C284.715 66.294 284.573 66.0976 284.384 66.0936Z" fill="white"/>
<path d="M288.793 68.7492C288.684 68.5952 288.437 68.5957 288.302 68.7103C288.149 68.8412 288.153 69.046 288.262 69.2001C288.261 69.1961 288.261 69.1939 288.26 69.1888C288.304 69.3739 288.469 69.5048 288.664 69.4698C288.842 69.4382 288.989 69.2509 288.946 69.0658C288.917 68.9439 288.866 68.8519 288.793 68.7492Z" fill="white"/>
<path d="M288.26 69.2003C288.262 69.2054 288.264 69.2105 288.266 69.2156C288.265 69.2117 288.264 69.206 288.262 69.2003C288.205 69.1192 288.248 69.1782 288.26 69.2003Z" fill="white"/>
<path d="M288.266 69.2153C288.275 69.2407 288.279 69.265 288.266 69.2153V69.2153Z" fill="white"/>
<path d="M288.264 69.2021L288.262 69.2001L288.264 69.2021Z" fill="white"/>
<path d="M280.678 78.9612C280.66 79.6525 280.618 80.3336 279.901 80.6383C279.116 80.9724 278.046 80.6784 277.774 79.8212C277.641 79.3997 276.983 79.5938 277.117 80.0153C277.481 81.1665 278.647 81.5767 279.761 81.3939C281.034 81.1857 281.333 80.0577 281.364 78.9488C281.376 78.5053 280.691 78.5211 280.678 78.9612Z" fill="#074785"/>
<path fill-rule="evenodd" clip-rule="evenodd" d="M264.269 66.1907C259.416 67.3198 255.046 64.7213 253.981 60.0754C252.932 55.4956 256.025 50.9717 260.977 49.842C265.686 48.7681 269.94 51.3881 271.018 56.0283C272.085 60.6228 269.14 65.0582 264.269 66.1907Z" fill="#7BEFE5"/>
<path fill-rule="evenodd" clip-rule="evenodd" d="M292.429 51.4722C293.422 55.8523 290.565 60.2735 286.089 61.2853C281.65 62.2875 276.863 59.1336 275.812 54.5138C274.842 50.2488 277.713 45.6718 281.954 44.7216C286.555 43.6912 291.369 46.7931 292.429 51.4722Z" fill="#7BEFE5"/>
<path fill-rule="evenodd" clip-rule="evenodd" d="M246.275 81.4639C245.194 76.7706 247.954 72.0351 252.34 71.0572C256.936 70.033 261.347 72.6564 262.381 77.0297C263.494 81.7359 260.631 86.5634 256.142 87.5492C251.456 88.5774 247.327 86.0318 246.275 81.4639Z" fill="#7BEFE5"/>
<path fill-rule="evenodd" clip-rule="evenodd" d="M267.494 86.6717C271.807 85.6622 276.374 88.706 277.388 93.265C278.358 97.6247 275.486 102.247 271.191 103.245C266.852 104.251 262.257 101.266 261.202 96.7568C260.164 92.3164 263.035 87.7146 267.494 86.6717Z" fill="#7BEFE5"/>
<path fill-rule="evenodd" clip-rule="evenodd" d="M294.064 97.3476C289.364 98.4903 284.922 95.8059 283.812 91.1528C282.74 86.6548 285.281 82.5445 289.815 81.4424C294.632 80.2721 299.094 82.9485 300.229 87.6886C301.269 92.0376 298.582 96.2495 294.064 97.3476Z" fill="#7BEFE5"/>
<path fill-rule="evenodd" clip-rule="evenodd" d="M291.821 70.8387C290.716 66.0987 293.428 61.3716 297.814 60.3903C302.256 59.396 306.375 62.0713 307.422 66.6291C308.506 71.3438 305.874 75.9524 301.543 76.9263C297.092 77.9274 292.857 75.2764 291.821 70.8387Z" fill="#7BEFE5"/>
<path fill-rule="evenodd" clip-rule="evenodd" d="M292.394 94.0911C299.445 87.245 308.166 85.3473 317.607 86.8275C333.467 89.3149 345.504 106.062 340.165 121.71C332.019 145.584 300.623 146.848 288.839 125.173C283.034 114.496 284.331 101.919 292.394 94.0911Z" fill="#FD6085"/>
<path d="M314.167 111.869C313.531 114.838 315.421 117.762 318.391 118.4C321.362 119.037 324.285 117.145 324.921 114.175C325.558 111.206 323.667 108.283 320.698 107.645C317.729 107.009 314.805 108.899 314.167 111.869Z" fill="white"/>
<path d="M315.142 112.078C314.671 114.273 316.069 116.435 318.264 116.908C320.461 117.379 322.623 115.979 323.094 113.784C323.565 111.588 322.167 109.426 319.971 108.955C317.775 108.483 315.612 109.882 315.142 112.078Z" fill="#074785"/>
<path d="M319.121 120.319C318.979 120.986 319.632 121.693 320.582 121.896C321.532 122.1 322.418 121.725 322.56 121.058C322.704 120.39 322.05 119.685 321.1 119.48C320.15 119.277 319.265 119.653 319.121 120.319Z" fill="#FFA4AC"/>
<path d="M301.858 114.494C301.572 115.134 302.081 115.982 302.995 116.39C303.908 116.798 304.88 116.61 305.166 115.971C305.451 115.333 304.942 114.485 304.028 114.077C303.115 113.668 302.142 113.855 301.858 114.494Z" fill="#FFA4AC"/>
<path d="M316.296 110.554C316.893 110.034 317.561 109.65 318.357 109.552C318.716 109.508 318.744 110.066 318.389 110.109C317.75 110.188 317.188 110.513 316.709 110.931C316.441 111.164 316.025 110.791 316.296 110.554Z" fill="white"/>
<path d="M319.301 109.412C319.39 109.413 319.478 109.411 319.569 109.412C319.72 109.414 319.854 109.515 319.863 109.675C319.871 109.82 319.752 109.971 319.6 109.969C319.511 109.969 319.423 109.97 319.333 109.969C319.181 109.968 319.047 109.865 319.038 109.706C319.03 109.563 319.148 109.41 319.301 109.412Z" fill="white"/>
<path d="M315.694 111.415C315.786 111.294 315.983 111.301 316.087 111.397C316.207 111.506 316.198 111.669 316.105 111.791C316.106 111.788 316.107 111.785 316.109 111.781C316.068 111.928 315.932 112.029 315.777 111.996C315.634 111.966 315.522 111.812 315.562 111.664C315.589 111.567 315.632 111.494 315.694 111.415Z" fill="white"/>
<path d="M316.109 111.79C316.106 111.794 316.104 111.798 316.102 111.803C316.103 111.799 316.105 111.794 316.105 111.791C316.154 111.727 316.118 111.773 316.109 111.79Z" fill="white"/>
<path d="M316.103 111.803C316.09 111.843 316.096 111.822 316.103 111.803V111.803Z" fill="white"/>
<path d="M302.756 108.281C302.118 111.251 304.009 114.174 306.978 114.811C309.949 115.449 312.872 113.557 313.509 110.588C314.147 107.618 312.255 104.695 309.286 104.058C306.317 103.42 303.393 105.31 302.756 108.281Z" fill="white"/>
<path d="M304.481 108.755C304.009 110.952 305.408 113.113 307.603 113.585C309.799 114.056 311.961 112.657 312.433 110.461C312.904 108.266 311.506 106.103 309.31 105.633C307.114 105.161 304.951 106.56 304.481 108.755Z" fill="#074785"/>
<path d="M305.635 107.232C306.232 106.711 306.9 106.327 307.696 106.23C308.054 106.185 308.083 106.743 307.729 106.787C307.088 106.866 306.528 107.189 306.048 107.608C305.78 107.841 305.363 107.469 305.635 107.232Z" fill="white"/>
<path d="M308.64 106.09C308.728 106.09 308.817 106.089 308.906 106.089C309.058 106.091 309.192 106.192 309.201 106.352C309.209 106.495 309.09 106.648 308.937 106.647C308.849 106.646 308.76 106.648 308.672 106.647C308.519 106.645 308.386 106.543 308.377 106.384C308.369 106.24 308.488 106.087 308.64 106.09Z" fill="white"/>
<path d="M305.032 108.091C305.123 107.97 305.322 107.979 305.427 108.074C305.545 108.184 305.537 108.347 305.445 108.468C305.446 108.465 305.446 108.463 305.447 108.459C305.407 108.605 305.271 108.706 305.116 108.673C304.973 108.642 304.861 108.488 304.901 108.342C304.928 108.244 304.971 108.171 305.032 108.091Z" fill="white"/>
<path d="M305.447 108.468C305.445 108.471 305.444 108.476 305.442 108.481C305.442 108.477 305.444 108.473 305.445 108.468C305.493 108.404 305.457 108.45 305.447 108.468Z" fill="white"/>
<path d="M305.442 108.48C305.43 108.521 305.433 108.5 305.442 108.48V108.48Z" fill="white"/>
<path d="M305.444 108.469L305.445 108.468L305.444 108.469Z" fill="white"/>
<path d="M311.243 116.501C311.238 117.056 311.252 117.601 311.818 117.866C312.438 118.157 313.303 117.951 313.545 117.271C313.664 116.939 314.185 117.112 314.066 117.447C313.741 118.357 312.796 118.653 311.909 118.475C310.895 118.273 310.688 117.359 310.695 116.472C310.697 116.117 311.247 116.148 311.243 116.501Z" fill="#074780"/>
<path fill-rule="evenodd" clip-rule="evenodd" d="M323.593 106.758C327.569 107.683 331.151 105.554 332.023 101.748C332.882 97.9949 330.348 94.2886 326.292 93.3637C322.434 92.484 318.949 94.6317 318.065 98.4317C317.19 102.197 319.604 105.829 323.593 106.758Z" fill="#F9D555"/>
<path fill-rule="evenodd" clip-rule="evenodd" d="M300.523 94.7C299.71 98.2878 302.051 101.911 305.718 102.739C309.354 103.561 313.275 100.977 314.137 97.1908C314.931 93.6978 312.579 89.9469 309.104 89.1693C305.336 88.3251 301.392 90.8656 300.523 94.7Z" fill="#F9D555"/>
<path fill-rule="evenodd" clip-rule="evenodd" d="M338.335 119.27C339.221 115.426 336.961 111.546 333.367 110.745C329.602 109.907 325.989 112.055 325.141 115.639C324.229 119.493 326.574 123.448 330.252 124.256C334.091 125.099 337.474 123.013 338.335 119.27Z" fill="#F9D555"/>
<path fill-rule="evenodd" clip-rule="evenodd" d="M320.952 123.538C317.418 122.712 313.677 125.203 312.846 128.94C312.052 132.511 314.403 136.299 317.923 137.115C321.478 137.939 325.243 135.493 326.107 131.798C326.957 128.161 324.605 124.391 320.952 123.538Z" fill="#F9D555"/>
<path fill-rule="evenodd" clip-rule="evenodd" d="M299.184 132.284C303.034 133.22 306.674 131.021 307.583 127.21C308.461 123.524 306.379 120.157 302.665 119.254C298.719 118.294 295.063 120.487 294.133 124.371C293.28 127.934 295.482 131.384 299.184 132.284Z" fill="#F9D555"/>
<path fill-rule="evenodd" clip-rule="evenodd" d="M301.021 110.566C301.927 106.683 299.706 102.81 296.112 102.006C292.473 101.192 289.097 103.384 288.24 107.118C287.353 110.98 289.508 114.755 293.057 115.553C296.704 116.375 300.173 114.203 301.021 110.566Z" fill="#F9D555"/>
<path d="M304.543 70.288C304.417 71.7693 303.476 73.3606 302.037 73.8905C301.077 74.2449 301.492 75.791 302.462 75.4333C304.62 74.6382 305.954 72.5328 306.144 70.288C306.229 69.2593 304.629 69.2672 304.543 70.288Z" fill="#29AEFD"/>
<path d="M299.749 129.527C298.516 129.371 297.22 128.529 296.826 127.309C296.564 126.495 295.258 126.788 295.524 127.612C296.113 129.441 297.825 130.628 299.693 130.862C300.55 130.972 300.599 129.634 299.749 129.527Z" fill="#FD6085"/>
<path d="M293.993 112.772C292.756 112.66 291.431 111.865 290.995 110.659C290.704 109.855 289.409 110.194 289.703 111.007C290.357 112.815 292.11 113.941 293.985 114.11C294.846 114.188 294.847 112.849 293.993 112.772Z" fill="#FD6085"/>
<path d="M306.076 99.9925C304.867 99.7064 303.669 98.7296 303.409 97.474C303.235 96.6372 301.905 96.7884 302.08 97.6348C302.47 99.5173 304.046 100.881 305.878 101.315C306.718 101.515 306.909 100.19 306.076 99.9925Z" fill="#FD6085"/>
<path d="M324.058 103.981C322.818 103.895 321.477 103.128 321.015 101.931C320.706 101.133 319.42 101.5 319.731 102.306C320.423 104.1 322.199 105.188 324.077 105.318C324.939 105.377 324.911 104.04 324.058 103.981Z" fill="#FD6085"/>
<path d="M330.974 121.535C329.751 121.322 328.495 120.421 328.158 119.185C327.933 118.36 326.614 118.592 326.842 119.427C327.348 121.282 329.004 122.546 330.859 122.867C331.71 123.014 331.819 121.681 330.974 121.535Z" fill="#FD6085"/>
<path d="M318.481 134.554C317.283 134.223 316.121 133.204 315.908 131.94C315.765 131.096 314.43 131.198 314.574 132.051C314.895 133.946 316.419 135.367 318.234 135.869C319.066 136.1 319.306 134.783 318.481 134.554Z" fill="#FD6085"/>
<path d="M289.379 54.2062C289.253 55.6886 288.311 57.2783 286.873 57.8081C285.913 58.1625 286.328 59.7098 287.298 59.352C289.456 58.5558 290.79 56.451 290.98 54.2062C291.066 53.177 289.465 53.1854 289.379 54.2062Z" fill="#29AEFD"/>
<path d="M268.121 58.9891C267.996 60.471 267.053 62.0612 265.614 62.5916C264.655 62.946 265.069 64.4927 266.039 64.1349C268.198 63.3398 269.532 61.2345 269.72 58.9891C269.808 57.9604 268.207 57.9689 268.121 58.9891Z" fill="#29AEFD"/>
<path d="M259.116 80.232C258.991 81.7139 258.048 83.304 256.61 83.835C255.65 84.1894 256.064 85.735 257.035 85.3778C259.193 84.5827 260.528 82.4768 260.717 80.232C260.803 79.2033 259.203 79.2118 259.116 80.232Z" fill="#29AEFD"/>
<path d="M274.154 96.1541C274.029 97.6365 273.087 99.2267 271.647 99.7572C270.688 100.111 271.103 101.658 272.073 101.3C274.231 100.505 275.565 98.3989 275.754 96.1541C275.841 95.1254 274.24 95.1339 274.154 96.1541Z" fill="#29AEFD"/>
<path d="M304.307 56.0205C302.761 53.6329 300.93 51.352 298.339 50.0525C297.419 49.5926 296.609 50.9728 297.531 51.4344C299.885 52.6149 301.52 54.6582 302.925 56.8291C303.484 57.6908 304.869 56.89 304.307 56.0205Z" fill="white"/>
<path d="M305.296 58.2657C304.264 58.2657 304.264 59.8655 305.296 59.8655C306.328 59.8655 306.328 58.2657 305.296 58.2657Z" fill="white"/>
<path d="M338.154 104.271C337.682 103.353 336.301 104.162 336.772 105.078C337.758 106.995 338.627 109.209 338.583 111.396C338.563 112.428 340.163 112.426 340.184 111.396C340.232 108.923 339.267 106.438 338.154 104.271Z" fill="white"/>
<path d="M336.023 101.074C334.99 101.074 334.99 102.674 336.023 102.674C337.054 102.674 337.054 101.074 336.023 101.074Z" fill="white"/>
<path d="M292.064 124.595C290.847 122.898 289.88 121.075 289.184 119.105C288.844 118.138 287.296 118.555 287.642 119.531C288.382 121.63 289.384 123.593 290.683 125.403C291.278 126.233 292.668 125.435 292.064 124.595Z" fill="white"/>
<path d="M287.613 115.396C286.581 115.396 286.581 116.997 287.613 116.997C288.645 116.997 288.645 115.396 287.613 115.396Z" fill="white"/>
<path d="M257.88 97.9204C255.481 96.0441 253.068 94.1278 251.496 91.4683C250.972 90.5806 249.588 91.3848 250.115 92.2758C251.76 95.0611 254.235 97.0852 256.748 99.0518C257.551 99.681 258.692 98.5564 257.88 97.9204Z" fill="white"/>
<path d="M249.098 88.7788C248.067 88.7788 248.067 90.378 249.098 90.378C250.13 90.378 250.13 88.7788 249.098 88.7788Z" fill="white"/>
<path d="M259.341 99.3932C258.309 99.3932 258.309 100.994 259.341 100.994C260.373 100.994 260.373 99.3932 259.341 99.3932Z" fill="white"/>
<path d="M238.967 37.4997C237.306 36.6567 236.263 34.5039 235.922 32.7501C235.724 31.7372 234.181 32.1672 234.378 33.1756C234.794 35.3097 236.153 37.8632 238.16 38.8811C239.077 39.3472 239.888 37.9659 238.967 37.4997Z" fill="#FD6085"/>
<path d="M357.123 90.0806C356.425 91.431 355.381 92.3796 353.995 92.9952C353.054 93.4128 353.869 94.7919 354.804 94.3772C356.412 93.6617 357.695 92.4518 358.505 90.8887C358.979 89.974 357.598 89.1648 357.123 90.0806Z" fill="#FD6085"/>
</svg>
