<svg width="28" height="28" viewBox="0 0 28 28" fill="none" xmlns="http://www.w3.org/2000/svg">
<path d="M10.357 2.77685C7.95634 3.60966 5.88603 5.19035 4.45015 7.28675C3.01426 9.38315 2.28849 11.8848 2.37944 14.4241C2.47039 16.9635 3.37326 19.4068 4.95543 21.3951C6.53761 23.3834 8.7157 24.8119 11.1698 25.4709C13.1593 25.9842 15.2438 26.0068 17.244 25.5366C19.056 25.1295 20.7312 24.2589 22.1057 23.01C23.5362 21.6704 24.5745 19.9662 25.109 18.0808C25.69 16.0304 25.7934 13.8741 25.4112 11.7775H14.2388V16.412H20.7091C20.5798 17.1512 20.3027 17.8567 19.8944 18.4863C19.4861 19.1158 18.9549 19.6566 18.3327 20.0761C17.5426 20.5987 16.652 20.9504 15.718 21.1085C14.7812 21.2827 13.8203 21.2827 12.8835 21.1085C11.9341 20.9122 11.0359 20.5203 10.2462 19.9578C8.97761 19.0598 8.02504 17.784 7.52446 16.3125C7.01542 14.8135 7.01542 13.1883 7.52446 11.6893C7.88078 10.6385 8.46982 9.68179 9.24763 8.89053C10.1377 7.9684 11.2646 7.30926 12.5047 6.98543C13.7447 6.66159 15.05 6.68557 16.2773 7.05474C17.2361 7.34905 18.1128 7.86327 18.8377 8.55641C19.5672 7.8306 20.2955 7.10291 21.0226 6.37335C21.398 5.98104 21.8072 5.6075 22.177 5.2058C21.0706 4.17618 19.7719 3.375 18.3553 2.84818C15.7756 1.91149 12.953 1.88632 10.357 2.77685Z" fill="white"/>
<path d="M10.3567 2.77685C12.9525 1.88571 15.7751 1.91022 18.355 2.8463C19.7718 3.3767 21.07 4.18173 22.1749 5.21518C21.7994 5.61688 21.4034 5.9923 21.0205 6.38273C20.2921 7.10979 19.5645 7.83435 18.8374 8.5564C18.1126 7.86326 17.2358 7.34904 16.2771 7.05473C15.0501 6.68427 13.7449 6.65891 12.5045 6.98142C11.2641 7.30393 10.1366 7.96186 9.24548 8.88302C8.46767 9.67428 7.87863 10.631 7.52231 11.6818L3.6311 8.66903C5.02392 5.90701 7.43549 3.79427 10.3567 2.77685Z" fill="#E33629"/>
<path d="M2.59872 11.6536C2.80787 10.617 3.1551 9.61323 3.63112 8.66901L7.52232 11.6892C7.01328 13.1883 7.01328 14.8135 7.52232 16.3125C6.22588 17.3136 4.92881 18.3197 3.63112 19.3309C2.43945 16.9588 2.07601 14.2562 2.59872 11.6536Z" fill="#F8BD00"/>
<path d="M14.2386 11.7756H25.4111C25.7932 13.8722 25.6898 16.0285 25.1088 18.0789C24.5743 19.9644 23.536 21.6685 22.1055 23.0081C20.8497 22.0283 19.5883 21.056 18.3326 20.0761C18.9551 19.6562 19.4865 19.1149 19.8949 18.4846C20.3032 17.8543 20.5801 17.1481 20.709 16.4083H14.2386C14.2368 14.8653 14.2386 13.3205 14.2386 11.7756Z" fill="#587DBD"/>
<path d="M3.62939 19.3309C4.92709 18.3297 6.22416 17.3236 7.5206 16.3125C8.02217 17.7845 8.9761 19.0604 10.2461 19.9578C11.0383 20.5177 11.9384 20.9064 12.8891 21.0991C13.8258 21.2733 14.7867 21.2733 15.7235 21.0991C16.6575 20.941 17.5482 20.5893 18.3383 20.0667C19.594 21.0465 20.8554 22.0188 22.1112 22.9987C20.737 24.2483 19.0617 25.1196 17.2495 25.5271C15.2493 25.9974 13.1649 25.9748 11.1753 25.4614C9.60173 25.0413 8.13192 24.3006 6.85799 23.2859C5.5096 22.2154 4.4083 20.8663 3.62939 19.3309Z" fill="#319F43"/>
</svg>
