<svg width="24" height="24" viewBox="0 0 24 24" fill="currentColor"  stroke-width="0.2" xmlns="http://www.w3.org/2000/svg">
<path d="M6.865 6.882C8.04945 5.69362 9.60941 4.95285 11.2789 4.78598C12.9485 4.61911 14.6242 5.03646 16.0204 5.96689C17.4166 6.89732 18.4469 8.28322 18.9356 9.88831C19.4243 11.4934 19.3412 13.2183 18.7004 14.769C18.0596 16.3196 16.9008 17.6 15.4216 18.3919C13.9423 19.1837 12.2342 19.438 10.5885 19.1113C8.94277 18.7847 7.46128 17.8973 6.39661 16.6005C5.33193 15.3037 4.74999 13.6778 4.75 12C4.75 11.8011 4.67098 11.6103 4.53033 11.4697C4.38968 11.329 4.19891 11.25 4 11.25C3.80109 11.25 3.61032 11.329 3.46967 11.4697C3.32902 11.6103 3.25 11.8011 3.25 12C3.24992 14.025 3.95222 15.9874 5.23718 17.5525C6.52213 19.1177 8.31017 20.1887 10.2965 20.5829C12.2827 20.9772 14.3443 20.6703 16.1296 19.7146C17.9149 18.7588 19.3135 17.2135 20.0868 15.3419C20.8602 13.4704 20.9604 11.3885 20.3705 9.45133C19.7806 7.51413 18.537 5.84152 16.8518 4.71867C15.1665 3.59581 13.144 3.09224 11.1291 3.2938C9.11409 3.49536 7.23141 4.38958 5.802 5.824C5.77726 5.84941 5.7539 5.87611 5.732 5.904L4.475 4.646C4.40778 4.57862 4.32272 4.53183 4.22982 4.51113C4.13692 4.49042 4.04005 4.49666 3.95057 4.52911C3.8611 4.56156 3.78275 4.61887 3.72472 4.69432C3.66669 4.76976 3.6314 4.86019 3.623 4.955L3.27 8.844C3.2634 8.91696 3.27292 8.99048 3.29787 9.05936C3.32283 9.12823 3.36261 9.19078 3.41441 9.24259C3.46622 9.29439 3.52877 9.33417 3.59764 9.35913C3.66652 9.38408 3.74004 9.3936 3.813 9.387L7.703 9.033C7.79743 9.0241 7.88739 8.98853 7.96236 8.93043C8.03734 8.87233 8.09424 8.7941 8.12643 8.70488C8.15862 8.61565 8.16476 8.51911 8.14415 8.42653C8.12353 8.33395 8.077 8.24914 8.01 8.182L6.782 6.954C6.81097 6.93154 6.83867 6.9075 6.865 6.882Z" fill="currentColor"  stroke-width="0.2"/>
<path d="M12.75 7C12.75 6.80109 12.671 6.61032 12.5303 6.46967C12.3897 6.32902 12.1989 6.25 12 6.25C11.8011 6.25 11.6103 6.32902 11.4697 6.46967C11.329 6.61032 11.25 6.80109 11.25 7V12C11.2499 12.1272 11.2822 12.2522 11.3438 12.3635C11.4054 12.4747 11.4942 12.5685 11.602 12.636L14.602 14.511C14.7707 14.6166 14.9744 14.6508 15.1683 14.6061C15.2643 14.584 15.355 14.5433 15.4353 14.4861C15.5155 14.4289 15.5837 14.3565 15.636 14.273C15.6883 14.1895 15.7236 14.0965 15.7399 13.9993C15.7562 13.9022 15.7532 13.8027 15.7311 13.7067C15.709 13.6107 15.6683 13.52 15.6111 13.4397C15.5539 13.3595 15.4815 13.2913 15.398 13.239L12.75 11.584V7Z" fill="currentColor"  stroke-width="0.2"/>
</svg>
