<svg width="32" height="32" viewBox="0 0 32 32" fill="none" xmlns="http://www.w3.org/2000/svg">
<path d="M11.8382 27.2277H7.50298C5.90592 27.2277 4.61194 25.9337 4.61194 24.3367V15.8322C4.61291 15.2127 4.74626 14.6005 5.00306 14.0367C5.25986 13.4728 5.63418 12.9704 6.10095 12.563L13.9149 5.75705C14.4411 5.29931 15.115 5.04721 15.8124 5.04721C16.5098 5.04721 17.1837 5.29931 17.7099 5.75705L25.5239 12.5643C25.9905 12.9716 26.3647 13.4738 26.6215 14.0374C26.8783 14.601 27.0118 15.2129 27.0129 15.8322V24.3367C27.0129 25.1032 26.7085 25.8384 26.1666 26.3805C25.6247 26.9226 24.8897 27.2274 24.1232 27.2277H20.1477V18.5559C20.1477 17.3594 19.1778 16.3883 17.9801 16.3883H14.0072C12.8094 16.3883 11.8395 17.3594 11.8395 18.5559L11.8382 27.2277ZM11.8382 27.2277H20.149" stroke="white" stroke-width="2" stroke-linejoin="round"/>
</svg>
