<svg width="393" height="393" viewBox="0 0 393 393" fill="none" xmlns="http://www.w3.org/2000/svg">
<path d="M78.1363 223.278C117.311 295.59 169.249 193.961 212.802 193.505C249.194 193.127 243.974 240.335 290.262 213.563C311.319 201.38 321.82 160.438 317.772 139.53C290.82 -0.354416 11.0041 99.444 78.1363 223.278Z" fill="#E3DFF1"/>
<path d="M196.5 353.07C280.667 353.07 348.898 349.087 348.898 344.173C348.898 339.259 280.667 335.275 196.5 335.275C112.333 335.275 44.1025 339.259 44.1025 344.173C44.1025 349.087 112.333 353.07 196.5 353.07Z" fill="#F5F5F5"/>
<path d="M288.195 170.585C288.069 172.794 287.802 174.821 287.503 176.928C287.204 179.034 286.772 181.078 286.316 183.137C285.381 187.339 283.992 191.426 282.174 195.328C281.532 196.555 280.65 197.64 279.58 198.519C278.702 199.267 277.766 199.945 276.782 200.547C274.946 201.672 273.031 202.662 271.052 203.51C267.211 205.157 263.248 206.505 259.199 207.543L258.225 204.627C260.032 203.841 261.887 202.968 263.679 202.08C265.472 201.192 267.264 200.296 268.977 199.321C270.671 198.393 272.306 197.361 273.874 196.232C274.596 195.714 275.279 195.144 275.917 194.526C276.406 194.079 276.808 193.547 277.104 192.954C277.822 191.196 278.439 189.399 278.951 187.57C279.454 185.692 279.918 183.798 280.311 181.872C280.704 179.946 281.019 177.997 281.302 176.04C281.585 174.083 281.812 172.11 281.985 170.223L288.195 170.585Z" fill="#E58A7B"/>
<path d="M283.958 163.204C281.451 163.841 279.698 174.161 279.698 174.161L286.607 178.877C286.607 178.877 293.233 168.471 291.323 165.72C289.295 162.788 287.621 162.238 283.958 163.204Z" fill="#6348EC"/>
<path opacity="0.5" d="M283.958 163.204C281.451 163.841 279.698 174.161 279.698 174.161L286.607 178.877C286.607 178.877 293.233 168.471 291.323 165.72C289.295 162.788 287.621 162.238 283.958 163.204Z" fill="#010101"/>
<path d="M284.186 165.476L282.26 175.875L286.143 178.508L284.186 165.476Z" fill="#6348EC"/>
<path opacity="0.7" d="M284.186 165.476L282.26 175.875L286.143 178.508L284.186 165.476Z" fill="#010101"/>
<path d="M259.647 204.469L255.332 200.099L254.766 206.261C254.766 206.261 257.997 208.447 260.268 207.275L259.647 204.469Z" fill="#E58A7B"/>
<path d="M250.255 199.447L250.058 204.627L254.766 206.261L255.332 200.099L250.255 199.447Z" fill="#E58A7B"/>
<path d="M297.525 336.816H291.441L291.032 322.731H297.116L297.525 336.816Z" fill="#E58A7B"/>
<path d="M351.201 308.567L346.563 312.505L335.952 303.034L340.59 299.096L351.201 308.567Z" fill="#E58A7B"/>
<path d="M345.298 312.033L349.77 306.885C349.844 306.794 349.95 306.733 350.066 306.716C350.183 306.699 350.301 306.725 350.399 306.791L354.981 309.762C355.094 309.84 355.189 309.942 355.26 310.06C355.331 310.178 355.376 310.31 355.392 310.446C355.409 310.583 355.396 310.721 355.355 310.853C355.314 310.984 355.245 311.105 355.154 311.208C353.582 312.977 352.694 313.747 350.721 316.011C349.503 317.402 347.868 319.563 346.194 321.513C344.52 323.462 342.523 321.874 343.05 320.923C345.408 316.663 344.842 315.162 344.881 313.063C344.89 312.681 345.038 312.315 345.298 312.033Z" fill="#263238"/>
<path d="M291.229 336.124H298.067C298.185 336.123 298.299 336.165 298.389 336.241C298.478 336.318 298.537 336.424 298.554 336.541L299.34 341.949C299.355 342.085 299.34 342.223 299.298 342.353C299.255 342.483 299.186 342.603 299.094 342.705C299.002 342.806 298.889 342.888 298.764 342.943C298.638 342.998 298.503 343.026 298.366 343.025C296.008 343.025 294.829 342.845 291.826 342.845C289.979 342.845 286.151 343.041 283.605 343.041C281.058 343.041 280.909 340.51 281.978 340.282C286.741 339.261 288.619 337.846 290.223 336.494C290.507 336.261 290.861 336.13 291.229 336.124Z" fill="#263238"/>
<path d="M291.032 322.739L291.244 330.001H297.328L297.124 322.739H291.032Z" fill="#CF6F64"/>
<path d="M340.597 299.096L335.96 303.034L341.431 307.915L346.068 303.977L340.597 299.096Z" fill="#CF6F64"/>
<path d="M283.958 163.204C283.958 163.204 281.066 164.226 286.866 199.918H311.57C311.154 189.865 311.146 183.664 315.948 163.024C312.492 162.305 308.987 161.84 305.463 161.632C301.727 161.361 297.976 161.361 294.239 161.632C289.421 162.057 283.958 163.204 283.958 163.204Z" fill="#6348EC"/>
<path opacity="0.5" d="M283.958 163.204C283.958 163.204 281.066 164.226 286.866 199.918H311.57C311.154 189.865 311.146 183.664 315.948 163.024C312.492 162.305 308.987 161.84 305.463 161.632C301.727 161.361 297.976 161.361 294.239 161.632C289.421 162.057 283.958 163.204 283.958 163.204Z" fill="#010101"/>
<path d="M297.894 164.195L300.126 168.753C300.126 168.753 309.488 165.892 308.261 161.774L305.117 161.412L297.894 164.195Z" fill="#6348EC"/>
<path opacity="0.6" d="M297.894 164.195L300.126 168.753C300.126 168.753 309.488 165.892 308.261 161.774L305.117 161.412L297.894 164.195Z" fill="#FAFAFA"/>
<path d="M297.721 163.77L294.577 168.423C294.577 168.423 287.912 165.531 292.51 161.64L294.467 161.412L297.721 163.77Z" fill="#6348EC"/>
<path opacity="0.6" d="M297.721 163.77L294.577 168.423C294.577 168.423 287.912 165.531 292.51 161.64L294.467 161.412L297.721 163.77Z" fill="#FAFAFA"/>
<path d="M307.758 130.192C310.643 127.418 307.876 114.378 315.469 118.693C325.121 124.195 331.354 116.995 328.131 114.26C334.907 114.74 334.247 122.45 331.425 126.592C324.264 137.133 309.818 127.111 309.731 132.464C309.645 137.817 307.758 130.192 307.758 130.192Z" fill="#263238"/>
<path d="M303.593 128.314C306.902 125.696 318.204 127.874 310.454 138.414L303.593 128.314Z" fill="#6348EC"/>
<path opacity="0.3" d="M303.593 128.314C306.902 125.696 318.204 127.874 310.454 138.414L303.593 128.314Z" fill="#010101"/>
<path d="M305.338 133.211C314.974 134.649 315.65 150.306 300.692 152.735L305.338 133.211Z" fill="#263238"/>
<path d="M304.347 148.986C303.64 152.593 302.932 159.204 305.463 161.617C305.463 161.617 304.473 165.272 297.768 165.272C290.396 165.272 294.239 161.617 294.239 161.617C298.264 160.65 298.169 157.687 297.462 154.865L304.347 148.986Z" fill="#E58A7B"/>
<path d="M301.541 151.414L297.462 154.888C297.641 155.541 297.757 156.21 297.808 156.885C299.38 156.657 301.463 154.967 301.628 153.364C301.718 152.714 301.689 152.053 301.541 151.414Z" fill="#CF6F64"/>
<path d="M289.138 144.804C285.813 140.52 281.482 129.469 294.443 128.408L289.138 144.804Z" fill="#263238"/>
<path d="M304.103 139.774C304.889 145.763 305.361 148.278 302.972 151.894C299.38 157.341 291.85 157.019 289.287 151.391C286.969 146.329 286.057 137.392 291.378 133.902C292.549 133.127 293.898 132.664 295.298 132.557C296.698 132.449 298.103 132.702 299.378 133.29C300.653 133.879 301.756 134.783 302.583 135.918C303.41 137.052 303.934 138.38 304.103 139.774Z" fill="#E58A7B"/>
<path d="M286.89 199.887C286.89 199.887 282.095 246.74 282.488 265.29C282.905 284.586 289.979 328.594 289.979 328.594H298.201C298.201 328.594 296.896 285.71 297.627 266.768C298.413 246.104 304.984 199.887 304.984 199.887H286.89Z" fill="#6348EC"/>
<path opacity="0.6" d="M286.89 199.887C286.89 199.887 282.095 246.74 282.488 265.29C282.905 284.586 289.979 328.594 289.979 328.594H298.201C298.201 328.594 296.896 285.71 297.627 266.768C298.413 246.104 304.984 199.887 304.984 199.887H286.89Z" fill="#FAFAFA"/>
<path d="M298.892 328.885H289.24L288.533 325.812L299.34 325.435L298.892 328.885Z" fill="#6348EC"/>
<path opacity="0.4" d="M298.892 328.885H289.24L288.533 325.812L299.34 325.435L298.892 328.885Z" fill="#FAFAFA"/>
<path d="M297.525 211.543C291.457 223.75 296.306 246.017 298.452 254.302C299.553 241.859 301.408 226.65 302.854 215.481C301.934 209.162 300.323 205.916 297.525 211.543Z" fill="#6348EC"/>
<path opacity="0.4" d="M297.525 211.543C291.457 223.75 296.306 246.017 298.452 254.302C299.553 241.859 301.408 226.65 302.854 215.481C301.934 209.162 300.323 205.916 297.525 211.543Z" fill="#FAFAFA"/>
<path d="M293.39 199.887C293.39 199.887 298.987 248.619 303.215 264.237C308.23 282.81 339.371 307.797 339.371 307.797L345.699 302.421C345.699 302.421 323.109 275.28 319.273 265.479C311.083 244.603 318.094 213.493 311.547 199.871L293.39 199.887Z" fill="#6348EC"/>
<path opacity="0.6" d="M293.39 199.887C293.39 199.887 298.987 248.619 303.215 264.237C308.23 282.81 339.371 307.797 339.371 307.797L345.699 302.421C345.699 302.421 323.109 275.28 319.273 265.479C311.083 244.603 318.094 213.493 311.547 199.871L293.39 199.887Z" fill="#FAFAFA"/>
<path d="M346.728 302.138L338.884 308.795L335.96 307.042L344.826 298.789L346.728 302.138Z" fill="#6348EC"/>
<path opacity="0.4" d="M346.728 302.138L338.884 308.795L335.96 307.042L344.826 298.789L346.728 302.138Z" fill="#FAFAFA"/>
<path d="M295.457 143.193C295.552 143.672 295.371 144.112 295.057 144.175C294.742 144.238 294.412 143.892 294.318 143.389C294.223 142.886 294.404 142.47 294.719 142.407C295.033 142.344 295.363 142.705 295.457 143.193Z" fill="#263238"/>
<path d="M290.034 144.262C290.128 144.741 289.948 145.181 289.633 145.244C289.319 145.307 288.989 144.961 288.894 144.458C288.8 143.955 288.973 143.539 289.287 143.476C289.602 143.413 289.924 143.774 290.034 144.262Z" fill="#263238"/>
<path d="M289.421 143.499L288.195 143.389C288.195 143.389 288.965 144.175 289.421 143.499Z" fill="#263238"/>
<path d="M291.606 144.804C291.394 145.986 291.021 147.134 290.498 148.215C290.776 148.344 291.079 148.41 291.386 148.41C291.693 148.41 291.996 148.344 292.274 148.215L291.606 144.804Z" fill="#DF5753"/>
<path d="M294.035 150.002C294.026 150.038 294.031 150.077 294.05 150.109C294.07 150.142 294.101 150.165 294.137 150.174C294.173 150.184 294.212 150.178 294.244 150.159C294.276 150.14 294.3 150.109 294.309 150.073C294.561 149.517 294.941 149.028 295.418 148.646C295.895 148.264 296.455 148 297.052 147.875C297.071 147.872 297.089 147.866 297.106 147.857C297.122 147.847 297.136 147.834 297.148 147.819C297.159 147.804 297.168 147.787 297.172 147.768C297.177 147.75 297.178 147.731 297.176 147.712C297.173 147.693 297.167 147.675 297.157 147.659C297.148 147.642 297.135 147.628 297.12 147.617C297.105 147.605 297.087 147.597 297.069 147.592C297.051 147.587 297.032 147.586 297.013 147.589C296.366 147.716 295.759 147.996 295.243 148.407C294.727 148.818 294.318 149.347 294.049 149.949L294.035 150.002Z" fill="#263238"/>
<path d="M289.248 136.024C289.248 136.024 294.365 143.782 303.797 144.804C303.797 144.804 313.536 135.962 307.546 129.831C297.847 119.911 286.277 132.55 289.248 136.024Z" fill="#263238"/>
<path d="M306.155 144.403C306.142 144.981 306.015 145.55 305.78 146.077C305.545 146.605 305.208 147.081 304.787 147.477C303.655 148.538 302.382 147.697 302.099 146.258C301.848 144.961 302.099 142.855 303.553 142.328C303.867 142.223 304.202 142.198 304.528 142.255C304.854 142.313 305.16 142.451 305.419 142.657C305.678 142.864 305.881 143.132 306.009 143.437C306.138 143.742 306.188 144.074 306.155 144.403Z" fill="#E58A7B"/>
<path d="M296.699 141.118C296.627 141.119 296.558 141.093 296.503 141.047C296.24 140.799 295.922 140.616 295.575 140.514C295.228 140.411 294.862 140.392 294.506 140.458C294.47 140.468 294.431 140.471 294.393 140.467C294.356 140.462 294.319 140.45 294.286 140.431C294.253 140.412 294.224 140.386 294.201 140.356C294.178 140.325 294.162 140.29 294.153 140.253C294.133 140.179 294.144 140.101 294.182 140.034C294.221 139.968 294.283 139.92 294.357 139.899C294.805 139.808 295.269 139.825 295.71 139.949C296.15 140.073 296.554 140.302 296.888 140.615C296.942 140.669 296.972 140.743 296.972 140.819C296.972 140.896 296.942 140.969 296.888 141.023C296.84 141.078 296.772 141.112 296.699 141.118Z" fill="#263238"/>
<path d="M287 142.242C286.964 142.25 286.926 142.25 286.89 142.242C286.855 142.228 286.822 142.207 286.795 142.18C286.767 142.154 286.746 142.122 286.731 142.087C286.716 142.051 286.709 142.014 286.709 141.975C286.71 141.937 286.718 141.899 286.733 141.864C286.898 141.438 287.164 141.058 287.507 140.755C287.851 140.453 288.262 140.238 288.706 140.127C288.743 140.119 288.781 140.119 288.817 140.126C288.854 140.134 288.889 140.149 288.92 140.17C288.951 140.191 288.977 140.219 288.997 140.251C289.017 140.283 289.03 140.318 289.036 140.355C289.044 140.393 289.044 140.431 289.037 140.468C289.03 140.506 289.015 140.541 288.994 140.573C288.973 140.604 288.945 140.631 288.913 140.652C288.881 140.673 288.845 140.687 288.808 140.693C288.454 140.784 288.128 140.958 287.854 141.199C287.581 141.441 287.369 141.745 287.236 142.085C287.214 142.129 287.181 142.167 287.139 142.195C287.098 142.222 287.05 142.239 287 142.242Z" fill="#263238"/>
<path d="M324.618 193.332V192.632C324.618 191.689 324.484 190.785 324.39 189.873C323.914 186.343 323.162 182.856 322.142 179.443C321.155 176.063 319.98 172.741 318.621 169.492L312.828 171.85C313.999 174.884 315.107 178.083 316.121 181.227C316.609 182.799 317.072 184.371 317.473 185.943C317.874 187.515 318.259 189.087 318.534 190.659L318.699 191.705C318.157 191.524 317.599 191.327 317.033 191.092C314.062 189.881 311.028 188.309 308.033 186.8L306.296 189.339C308.961 191.653 311.835 193.716 314.879 195.501C315.698 195.975 316.546 196.395 317.418 196.759C317.908 196.971 318.412 197.147 318.927 197.285C319.234 197.372 319.547 197.438 319.863 197.482C320.283 197.535 320.708 197.535 321.128 197.482C321.822 197.421 322.485 197.171 323.046 196.759C323.744 196.24 324.237 195.491 324.437 194.644C324.556 194.217 324.617 193.775 324.618 193.332ZM320.389 192.161H320.531C320.617 192.153 320.507 192.168 320.35 192.161H320.389Z" fill="#E58A7B"/>
<path d="M315.972 162.992C318.448 163.778 321.419 172.267 321.419 172.267L311.822 179.137C311.822 179.137 308.317 172.023 309.362 168.824C310.415 165.492 313.127 162.135 315.972 162.992Z" fill="#6348EC"/>
<path opacity="0.5" d="M315.972 162.992C318.448 163.778 321.419 172.267 321.419 172.267L311.822 179.137C311.822 179.137 308.317 172.023 309.362 168.824C310.415 165.492 313.127 162.135 315.972 162.992Z" fill="#010101"/>
<path d="M343.631 314.965C343.506 314.962 343.383 314.93 343.272 314.873C343.16 314.816 343.063 314.735 342.987 314.635C342.927 314.573 342.885 314.495 342.866 314.411C342.846 314.326 342.85 314.238 342.877 314.156C343.097 313.409 345.235 312.804 345.447 312.741C345.475 312.732 345.505 312.732 345.533 312.741C345.561 312.749 345.586 312.766 345.604 312.788C345.618 312.812 345.625 312.839 345.625 312.867C345.625 312.894 345.618 312.921 345.604 312.945C345.227 313.66 344.472 314.871 343.71 314.965H343.631ZM345.203 313.118C344.362 313.385 343.278 313.849 343.16 314.242C343.147 314.278 343.146 314.316 343.156 314.353C343.166 314.389 343.186 314.422 343.215 314.446C343.269 314.524 343.342 314.586 343.428 314.626C343.513 314.666 343.608 314.683 343.702 314.674C344.103 314.627 344.653 314.053 345.196 313.118H345.203Z" fill="#6348EC"/>
<path d="M344.528 313.142C343.899 313.207 343.269 313.03 342.767 312.647C342.694 312.558 342.654 312.447 342.654 312.332C342.654 312.217 342.694 312.106 342.767 312.018C342.829 311.928 342.91 311.852 343.003 311.795C343.097 311.739 343.201 311.702 343.309 311.688C344.174 311.585 345.51 312.717 345.565 312.772C345.585 312.787 345.601 312.808 345.609 312.832C345.618 312.856 345.619 312.881 345.612 312.906C345.609 312.931 345.598 312.955 345.581 312.975C345.565 312.994 345.543 313.009 345.518 313.016C345.196 313.106 344.862 313.148 344.528 313.142ZM343.459 311.963H343.364C343.295 311.971 343.228 311.994 343.168 312.03C343.108 312.067 343.057 312.116 343.018 312.175C342.916 312.324 342.956 312.411 343.018 312.466C343.278 312.804 344.473 312.929 345.204 312.804C344.714 312.377 344.12 312.087 343.482 311.963H343.459Z" fill="#6348EC"/>
<path d="M288.95 337.178C288.428 337.225 287.906 337.092 287.472 336.8C287.374 336.714 287.299 336.605 287.254 336.483C287.209 336.361 287.194 336.23 287.212 336.101C287.217 336.021 287.242 335.944 287.285 335.877C287.327 335.809 287.386 335.754 287.456 335.716C288.203 335.315 290.6 336.549 290.899 336.69C290.925 336.704 290.947 336.726 290.961 336.753C290.975 336.779 290.981 336.81 290.977 336.84C290.974 336.869 290.962 336.896 290.942 336.917C290.922 336.938 290.896 336.952 290.867 336.957C290.237 337.094 289.594 337.167 288.95 337.178ZM287.865 335.92C287.772 335.914 287.68 335.933 287.598 335.975C287.569 335.988 287.545 336.01 287.529 336.036C287.512 336.062 287.503 336.093 287.503 336.124C287.488 336.209 287.495 336.297 287.524 336.378C287.553 336.459 287.603 336.532 287.668 336.588C288.038 336.918 289.036 336.981 290.388 336.753C289.6 336.334 288.747 336.052 287.865 335.92Z" fill="#6348EC"/>
<path d="M290.82 336.965H290.757C290.034 336.635 288.603 335.33 288.714 334.607C288.714 334.442 288.855 334.238 289.256 334.199C289.397 334.183 289.54 334.197 289.676 334.241C289.811 334.284 289.936 334.355 290.042 334.45C290.828 335.087 290.954 336.722 290.954 336.808C290.958 336.832 290.955 336.857 290.945 336.879C290.935 336.902 290.919 336.921 290.899 336.934C290.877 336.953 290.849 336.964 290.82 336.965ZM289.374 334.497H289.287C289.02 334.497 289.004 334.623 288.996 334.662C288.934 335.071 289.9 336.109 290.639 336.557C290.584 335.863 290.309 335.204 289.853 334.678C289.722 334.569 289.56 334.506 289.389 334.497H289.374Z" fill="#6348EC"/>
<path d="M308.898 187.5L306.855 181.251L303.601 186.509C303.601 186.509 305.518 189.913 308.049 189.858L308.898 187.5Z" fill="#E58A7B"/>
<path d="M302.587 178.406L300.103 182.957L303.577 186.509L306.831 181.251L302.587 178.406Z" fill="#E58A7B"/>
<path d="M294.86 142.43L293.642 142.32C293.642 142.32 294.412 143.106 294.86 142.43Z" fill="#263238"/>
<path d="M311.94 198.433L312.576 200.649C312.663 200.814 312.459 200.995 312.168 200.995H286.749C286.521 200.995 286.34 200.885 286.324 200.744L286.104 198.574C286.104 198.417 286.277 198.291 286.521 198.291H311.539C311.612 198.28 311.687 198.287 311.757 198.312C311.827 198.336 311.89 198.378 311.94 198.433Z" fill="#263238"/>
<path d="M308.584 201.231H309.252C309.385 201.231 309.488 201.16 309.48 201.082L309.165 198.205C309.165 198.118 309.04 198.056 308.906 198.056H308.238C308.104 198.056 308.002 198.118 308.01 198.205L308.324 201.082C308.332 201.16 308.45 201.231 308.584 201.231Z" fill="#6348EC"/>
<path opacity="0.6" d="M308.584 201.231H309.252C309.385 201.231 309.488 201.16 309.48 201.082L309.165 198.205C309.165 198.118 309.04 198.056 308.906 198.056H308.238C308.104 198.056 308.002 198.118 308.01 198.205L308.324 201.082C308.332 201.16 308.45 201.231 308.584 201.231Z" fill="#FAFAFA"/>
<path d="M288.627 201.231H289.295C289.429 201.231 289.531 201.16 289.523 201.082L289.209 198.205C289.209 198.118 289.083 198.056 288.949 198.056H288.281C288.148 198.056 288.046 198.118 288.053 198.205L288.368 201.082C288.376 201.16 288.462 201.231 288.627 201.231Z" fill="#6348EC"/>
<path opacity="0.6" d="M288.627 201.231H289.295C289.429 201.231 289.531 201.16 289.523 201.082L289.209 198.205C289.209 198.118 289.083 198.056 288.949 198.056H288.281C288.148 198.056 288.046 198.118 288.053 198.205L288.368 201.082C288.376 201.16 288.462 201.231 288.627 201.231Z" fill="#FAFAFA"/>
<path d="M298.602 201.231H299.278C299.411 201.231 299.513 201.16 299.498 201.082L299.183 198.205C299.183 198.118 299.057 198.056 298.924 198.056H298.256C298.122 198.056 298.02 198.118 298.028 198.205L298.342 201.082C298.364 201.131 298.401 201.172 298.447 201.199C298.494 201.226 298.548 201.237 298.602 201.231Z" fill="#6348EC"/>
<path opacity="0.6" d="M298.602 201.231H299.278C299.411 201.231 299.513 201.16 299.498 201.082L299.183 198.205C299.183 198.118 299.057 198.056 298.924 198.056H298.256C298.122 198.056 298.02 198.118 298.028 198.205L298.342 201.082C298.364 201.131 298.401 201.172 298.447 201.199C298.494 201.226 298.548 201.237 298.602 201.231Z" fill="#FAFAFA"/>
<path d="M219.766 344.173H271.76C272.972 344.187 274.175 343.948 275.29 343.47C276.404 342.992 277.407 342.286 278.233 341.398C279.059 340.51 279.69 339.459 280.086 338.312C280.482 337.166 280.633 335.95 280.531 334.741L268.097 156.916C267.881 154.374 266.73 152.001 264.865 150.259C263.001 148.516 260.556 147.528 258.005 147.484H206.011C204.798 147.47 203.596 147.71 202.481 148.188C201.366 148.666 200.364 149.371 199.538 150.259C198.712 151.147 198.081 152.198 197.685 153.345C197.289 154.491 197.137 155.708 197.239 156.916L209.674 334.749C209.891 337.29 211.043 339.661 212.908 341.401C214.772 343.142 217.216 344.13 219.766 344.173Z" fill="#6348EC"/>
<path opacity="0.2" d="M219.766 344.173H271.76C272.972 344.187 274.175 343.948 275.29 343.47C276.404 342.992 277.407 342.286 278.233 341.398C279.059 340.51 279.69 339.459 280.086 338.312C280.482 337.166 280.633 335.95 280.531 334.741L268.097 156.916C267.881 154.374 266.73 152.001 264.865 150.259C263.001 148.516 260.556 147.528 258.005 147.484H206.011C204.798 147.47 203.596 147.71 202.481 148.188C201.366 148.666 200.364 149.371 199.538 150.259C198.712 151.147 198.081 152.198 197.685 153.345C197.289 154.491 197.137 155.708 197.239 156.916L209.674 334.749C209.891 337.29 211.043 339.661 212.908 341.401C214.772 343.142 217.216 344.13 219.766 344.173Z" fill="#010101"/>
<path d="M192.3 211.749L191.516 211.804L192.383 224.193L193.167 224.138L192.3 211.749Z" fill="#6348EC"/>
<path opacity="0.5" d="M192.3 211.749L191.516 211.804L192.383 224.193L193.167 224.138L192.3 211.749Z" fill="#010101"/>
<path d="M212.959 344.173H264.945C266.158 344.187 267.36 343.948 268.475 343.47C269.59 342.992 270.592 342.286 271.418 341.398C272.244 340.51 272.875 339.459 273.271 338.312C273.667 337.166 273.819 335.95 273.717 334.741L261.282 156.916C261.067 154.374 259.915 152.001 258.051 150.259C256.186 148.516 253.741 147.528 251.19 147.484H199.204C197.991 147.47 196.789 147.71 195.674 148.188C194.559 148.666 193.557 149.371 192.731 150.259C191.905 151.147 191.274 152.198 190.878 153.345C190.482 154.491 190.33 155.708 190.432 156.916L202.867 334.741C203.082 337.284 204.234 339.656 206.098 341.398C207.963 343.141 210.407 344.13 212.959 344.173Z" fill="#6348EC"/>
<path opacity="0.5" d="M212.959 344.173H264.945C266.158 344.187 267.36 343.948 268.475 343.47C269.59 342.992 270.592 342.286 271.418 341.398C272.244 340.51 272.875 339.459 273.271 338.312C273.667 337.166 273.819 335.95 273.717 334.741L261.282 156.916C261.067 154.374 259.915 152.001 258.051 150.259C256.186 148.516 253.741 147.528 251.19 147.484H199.204C197.991 147.47 196.789 147.71 195.674 148.188C194.559 148.666 193.557 149.371 192.731 150.259C191.905 151.147 191.274 152.198 190.878 153.345C190.482 154.491 190.33 155.708 190.432 156.916L202.867 334.741C203.082 337.284 204.234 339.656 206.098 341.398C207.963 343.141 210.407 344.13 212.959 344.173Z" fill="#010101"/>
<path d="M222.611 204.124H232.232C232.458 204.133 232.684 204.093 232.894 204.007C233.103 203.921 233.292 203.791 233.446 203.625C233.601 203.459 233.718 203.262 233.789 203.047C233.86 202.832 233.884 202.604 233.859 202.379L231.556 169.445C231.517 168.974 231.304 168.534 230.958 168.211C230.612 167.889 230.158 167.706 229.685 167.7H220.08C219.854 167.692 219.63 167.733 219.421 167.819C219.212 167.906 219.025 168.036 218.871 168.202C218.717 168.368 218.601 168.564 218.531 168.779C218.46 168.993 218.436 169.221 218.461 169.445L220.764 202.379C220.803 202.846 221.013 203.283 221.353 203.605C221.694 203.927 222.142 204.112 222.611 204.124Z" fill="#6348EC"/>
<path opacity="0.2" d="M222.611 204.124H232.232C232.458 204.133 232.684 204.093 232.894 204.007C233.103 203.921 233.292 203.791 233.446 203.625C233.601 203.459 233.718 203.262 233.789 203.047C233.86 202.832 233.884 202.604 233.859 202.379L231.556 169.445C231.517 168.974 231.304 168.534 230.958 168.211C230.612 167.889 230.158 167.706 229.685 167.7H220.08C219.854 167.692 219.63 167.733 219.421 167.819C219.212 167.906 219.025 168.036 218.871 168.202C218.717 168.368 218.601 168.564 218.531 168.779C218.46 168.993 218.436 169.221 218.461 169.445L220.764 202.379C220.803 202.846 221.013 203.283 221.353 203.605C221.694 203.927 222.142 204.112 222.611 204.124Z" fill="#010101"/>
<path d="M163.684 344.173H111.691C110.478 344.187 109.275 343.948 108.161 343.47C107.046 342.992 106.043 342.286 105.217 341.398C104.391 340.51 103.76 339.459 103.364 338.312C102.969 337.166 102.817 335.95 102.919 334.741L115.353 156.916C115.571 154.374 116.723 152.003 118.587 150.261C120.451 148.519 122.895 147.53 125.446 147.484H177.439C178.652 147.47 179.855 147.71 180.969 148.188C182.084 148.666 183.087 149.371 183.912 150.259C184.738 151.147 185.37 152.198 185.765 153.345C186.161 154.491 186.313 155.708 186.211 156.916L173.777 334.741C173.561 337.284 172.409 339.656 170.545 341.398C168.681 343.141 166.236 344.13 163.684 344.173Z" fill="#6348EC"/>
<path opacity="0.5" d="M163.684 344.173H111.691C110.478 344.187 109.275 343.948 108.161 343.47C107.046 342.992 106.043 342.286 105.217 341.398C104.391 340.51 103.76 339.459 103.364 338.312C102.969 337.166 102.817 335.95 102.919 334.741L115.353 156.916C115.571 154.374 116.723 152.003 118.587 150.261C120.451 148.519 122.895 147.53 125.446 147.484H177.439C178.652 147.47 179.855 147.71 180.969 148.188C182.084 148.666 183.087 149.371 183.912 150.259C184.738 151.147 185.37 152.198 185.765 153.345C186.161 154.491 186.313 155.708 186.211 156.916L173.777 334.741C173.561 337.284 172.409 339.656 170.545 341.398C168.681 343.141 166.236 344.13 163.684 344.173Z" fill="#010101"/>
<path d="M141.818 144.725H138.886V145.511H141.818V144.725Z" fill="#6348EC"/>
<path opacity="0.3" d="M141.818 144.725H138.886V145.511H141.818V144.725Z" fill="#010101"/>
<path d="M133.628 144.725H124.408V145.511H133.628V144.725Z" fill="#6348EC"/>
<path opacity="0.3" d="M133.628 144.725H124.408V145.511H133.628V144.725Z" fill="#010101"/>
<path d="M156.87 344.173H104.884C103.671 344.187 102.469 343.948 101.354 343.47C100.239 342.992 99.2368 342.286 98.4108 341.398C97.5848 340.51 96.9537 339.459 96.5578 338.312C96.162 337.166 96.0101 335.95 96.1121 334.741L108.547 156.916C108.762 154.374 109.914 152.001 111.778 150.259C113.643 148.516 116.087 147.528 118.639 147.484H170.625C171.838 147.47 173.04 147.71 174.155 148.188C175.269 148.666 176.272 149.371 177.098 150.259C177.924 151.147 178.555 152.198 178.951 153.345C179.347 154.491 179.499 155.708 179.397 156.916L166.962 334.741C166.746 337.284 165.595 339.656 163.73 341.398C161.866 343.141 159.421 344.13 156.87 344.173Z" fill="#6348EC"/>
<path opacity="0.3" d="M156.87 344.173H104.884C103.671 344.187 102.469 343.948 101.354 343.47C100.239 342.992 99.2368 342.286 98.4108 341.398C97.5848 340.51 96.9537 339.459 96.5578 338.312C96.162 337.166 96.0101 335.95 96.1121 334.741L108.547 156.916C108.762 154.374 109.914 152.001 111.778 150.259C113.643 148.516 116.087 147.528 118.639 147.484H170.625C171.838 147.47 173.04 147.71 174.155 148.188C175.269 148.666 176.272 149.371 177.098 150.259C177.924 151.147 178.555 152.198 178.951 153.345C179.347 154.491 179.499 155.708 179.397 156.916L166.962 334.741C166.746 337.284 165.595 339.656 163.73 341.398C161.866 343.141 159.421 344.13 156.87 344.173Z" fill="#010101"/>
<path d="M164.667 333.939H96.2141C96.05 333.939 95.8878 333.904 95.7375 333.838C95.5871 333.773 95.4518 333.677 95.3399 333.557C95.228 333.437 95.1418 333.295 95.0867 333.141C95.0316 332.986 95.0087 332.822 95.0194 332.658L107.132 159.432C107.154 159.128 107.29 158.844 107.513 158.637C107.736 158.429 108.03 158.315 108.334 158.315H176.779C176.944 158.315 177.107 158.349 177.258 158.414C177.41 158.479 177.546 158.575 177.659 158.695C177.771 158.815 177.858 158.957 177.914 159.112C177.969 159.267 177.992 159.432 177.982 159.597L165.846 332.823C165.826 333.123 165.694 333.405 165.475 333.612C165.256 333.819 164.968 333.936 164.667 333.939Z" fill="#6348EC"/>
<path opacity="0.9" d="M164.667 333.939H96.2141C96.05 333.939 95.8878 333.904 95.7375 333.838C95.5871 333.773 95.4518 333.677 95.3399 333.557C95.228 333.437 95.1418 333.295 95.0867 333.141C95.0316 332.986 95.0087 332.822 95.0194 332.658L107.132 159.432C107.154 159.128 107.29 158.844 107.513 158.637C107.736 158.429 108.03 158.315 108.334 158.315H176.779C176.944 158.315 177.107 158.349 177.258 158.414C177.41 158.479 177.546 158.575 177.659 158.695C177.771 158.815 177.858 158.957 177.914 159.112C177.969 159.267 177.992 159.432 177.982 159.597L165.846 332.823C165.826 333.123 165.694 333.405 165.475 333.612C165.256 333.819 164.968 333.936 164.667 333.939Z" fill="#FAFAFA"/>
<path d="M163.001 176.048H118.568C117.36 176.068 116.203 176.537 115.32 177.361C114.438 178.186 113.892 179.308 113.789 180.512L109.16 246.693C109.111 247.266 109.183 247.842 109.371 248.385C109.559 248.928 109.858 249.426 110.25 249.846C110.641 250.267 111.117 250.601 111.645 250.827C112.173 251.052 112.743 251.165 113.318 251.158H116.399L114.827 256.007C118.462 255.68 121.824 253.938 124.188 251.158H157.75C158.958 251.137 160.115 250.669 160.998 249.844C161.881 249.02 162.426 247.897 162.529 246.693L167.159 180.512C167.206 179.94 167.133 179.364 166.945 178.821C166.756 178.279 166.457 177.782 166.066 177.361C165.674 176.941 165.2 176.607 164.672 176.381C164.144 176.155 163.575 176.041 163.001 176.048Z" fill="#6348EC"/>
<path opacity="0.6" d="M163.001 176.048H118.568C117.36 176.068 116.203 176.537 115.32 177.361C114.438 178.186 113.892 179.308 113.789 180.512L109.16 246.693C109.111 247.266 109.183 247.842 109.371 248.385C109.559 248.928 109.858 249.426 110.25 249.846C110.641 250.267 111.117 250.601 111.645 250.827C112.173 251.052 112.743 251.165 113.318 251.158H116.399L114.827 256.007C118.462 255.68 121.824 253.938 124.188 251.158H157.75C158.958 251.137 160.115 250.669 160.998 249.844C161.881 249.02 162.426 247.897 162.529 246.693L167.159 180.512C167.206 179.94 167.133 179.364 166.945 178.821C166.756 178.279 166.457 177.782 166.066 177.361C165.674 176.941 165.2 176.607 164.672 176.381C164.144 176.155 163.575 176.041 163.001 176.048Z" fill="#FAFAFA"/>
<path d="M112.398 264.48H156.831C157.405 264.473 157.975 264.586 158.503 264.812C159.032 265.037 159.507 265.371 159.899 265.792C160.29 266.212 160.589 266.71 160.777 267.253C160.965 267.796 161.037 268.372 160.989 268.945L159 297.375C158.897 298.578 158.352 299.701 157.469 300.525C156.586 301.35 155.429 301.818 154.221 301.839H151.132L151.997 306.689C150.292 306.546 148.639 306.04 147.147 305.203C145.655 304.366 144.361 303.219 143.351 301.839H109.773C109.198 301.847 108.629 301.734 108.1 301.508C107.572 301.282 107.097 300.948 106.705 300.528C106.313 300.107 106.014 299.61 105.826 299.066C105.639 298.523 105.567 297.947 105.615 297.375L107.603 268.945C107.707 267.739 108.255 266.614 109.141 265.789C110.027 264.964 111.188 264.497 112.398 264.48Z" fill="#6348EC"/>
<path opacity="0.6" d="M112.398 264.48H156.831C157.405 264.473 157.975 264.586 158.503 264.812C159.032 265.037 159.507 265.371 159.899 265.792C160.29 266.212 160.589 266.71 160.777 267.253C160.965 267.796 161.037 268.372 160.989 268.945L159 297.375C158.897 298.578 158.352 299.701 157.469 300.525C156.586 301.35 155.429 301.818 154.221 301.839H151.132L151.997 306.689C150.292 306.546 148.639 306.04 147.147 305.203C145.655 304.366 144.361 303.219 143.351 301.839H109.773C109.198 301.847 108.629 301.734 108.1 301.508C107.572 301.282 107.097 300.948 106.705 300.528C106.313 300.107 106.014 299.61 105.826 299.066C105.639 298.523 105.567 297.947 105.615 297.375L107.603 268.945C107.707 267.739 108.255 266.614 109.141 265.789C110.027 264.964 111.188 264.497 112.398 264.48Z" fill="#FAFAFA"/>
<path d="M152.523 152.46C152.492 152.858 152.314 153.231 152.023 153.505C151.733 153.78 151.351 153.937 150.951 153.945C150.76 153.948 150.57 153.911 150.394 153.836C150.218 153.761 150.06 153.65 149.93 153.51C149.799 153.37 149.7 153.204 149.637 153.023C149.575 152.842 149.551 152.65 149.568 152.46C149.602 152.063 149.781 151.692 150.071 151.418C150.361 151.144 150.741 150.986 151.14 150.974C151.331 150.971 151.521 151.009 151.697 151.084C151.873 151.159 152.031 151.27 152.162 151.41C152.292 151.55 152.391 151.715 152.454 151.896C152.516 152.077 152.54 152.269 152.523 152.46Z" fill="#6348EC"/>
<path opacity="0.5" d="M152.523 152.46C152.492 152.858 152.314 153.231 152.023 153.505C151.733 153.78 151.351 153.937 150.951 153.945C150.76 153.948 150.57 153.911 150.394 153.836C150.218 153.761 150.06 153.65 149.93 153.51C149.799 153.37 149.7 153.204 149.637 153.023C149.575 152.842 149.551 152.65 149.568 152.46C149.602 152.063 149.781 151.692 150.071 151.418C150.361 151.144 150.741 150.986 151.14 150.974C151.331 150.971 151.521 151.009 151.697 151.084C151.873 151.159 152.031 151.27 152.162 151.41C152.292 151.55 152.391 151.715 152.454 151.896C152.516 152.077 152.54 152.269 152.523 152.46Z" fill="#010101"/>
<path d="M144.868 153.945H134.5C134.309 153.947 134.12 153.909 133.945 153.833C133.769 153.758 133.612 153.647 133.481 153.507C133.351 153.367 133.252 153.202 133.189 153.022C133.126 152.841 133.102 152.65 133.117 152.46C133.15 152.062 133.328 151.69 133.619 151.416C133.909 151.142 134.29 150.984 134.689 150.974H145.056C145.247 150.972 145.436 151.011 145.612 151.086C145.787 151.161 145.945 151.272 146.075 151.412C146.205 151.552 146.305 151.717 146.368 151.898C146.43 152.078 146.455 152.269 146.44 152.46C146.407 152.858 146.228 153.229 145.938 153.503C145.648 153.778 145.267 153.935 144.868 153.945Z" fill="#6348EC"/>
<path opacity="0.5" d="M144.868 153.945H134.5C134.309 153.947 134.12 153.909 133.945 153.833C133.769 153.758 133.612 153.647 133.481 153.507C133.351 153.367 133.252 153.202 133.189 153.022C133.126 152.841 133.102 152.65 133.117 152.46C133.15 152.062 133.328 151.69 133.619 151.416C133.909 151.142 134.29 150.984 134.689 150.974H145.056C145.247 150.972 145.436 151.011 145.612 151.086C145.787 151.161 145.945 151.272 146.075 151.412C146.205 151.552 146.305 151.717 146.368 151.898C146.43 152.078 146.455 152.269 146.44 152.46C146.407 152.858 146.228 153.229 145.938 153.503C145.648 153.778 145.267 153.935 144.868 153.945Z" fill="#010101"/>
<path d="M89.5175 188.097L90.7515 190.51C91.1838 191.296 91.624 192.153 92.0799 192.962C92.9916 194.589 93.9191 196.201 94.8937 197.765C96.754 200.845 98.8846 203.755 101.26 206.458C101.85 207.047 102.487 207.755 102.895 208.077C103.466 208.538 104.076 208.948 104.719 209.303C106.249 210.111 107.842 210.794 109.482 211.347C113.015 212.52 116.613 213.488 120.258 214.247L120.006 218.578C115.913 218.818 111.806 218.578 107.768 217.863C105.617 217.49 103.51 216.898 101.48 216.094C100.351 215.643 99.271 215.077 98.2578 214.404C97.7334 214.055 97.2344 213.669 96.7644 213.249L95.5225 212.156C92.5233 209.246 89.8604 206.009 87.5839 202.504C86.4442 200.799 85.3674 199.07 84.3849 197.293C83.8897 196.405 83.4024 195.509 82.9387 194.605C82.4749 193.701 82.0348 192.821 81.571 191.799L89.5175 188.097Z" fill="#E58A7B"/>
<path d="M118.686 214.247L122.184 211.779L124.031 218.916C124.031 218.916 120.95 220.001 118.631 218.437L118.686 214.247Z" fill="#E58A7B"/>
<path d="M127.01 210.16L128.252 216.134L124.023 218.916L122.176 211.779L127.01 210.16Z" fill="#E58A7B"/>
<path d="M149.23 203.833L148.279 203.66C147.285 203.488 146.266 203.55 145.3 203.841L142.557 204.674C143.957 201.78 144.482 198.54 144.066 195.352C143.736 192.947 141.928 193.497 141.928 193.497C141.928 193.497 139.279 203.495 133.777 207.33L132.048 208.533L134.516 226.147L136.552 225.959C137.338 225.959 141.81 225.959 144.695 225.959C145.543 225.922 146.371 225.696 147.12 225.296C147.868 224.896 148.517 224.332 149.018 223.648C150.488 221.703 151.329 219.356 151.431 216.92L151.95 208.722C152.075 206.301 150.912 204.124 149.23 203.833Z" fill="#6348EC"/>
<path opacity="0.9" d="M149.23 203.833L148.279 203.66C147.285 203.488 146.266 203.55 145.3 203.841L142.557 204.674C143.957 201.78 144.482 198.54 144.066 195.352C143.736 192.947 141.928 193.497 141.928 193.497C141.928 193.497 139.279 203.495 133.777 207.33L132.048 208.533L134.516 226.147L136.552 225.959C137.338 225.959 141.81 225.959 144.695 225.959C145.543 225.922 146.371 225.696 147.12 225.296C147.868 224.896 148.517 224.332 149.018 223.648C150.488 221.703 151.329 219.356 151.431 216.92L151.95 208.722C152.075 206.301 150.912 204.124 149.23 203.833Z" fill="#FAFAFA"/>
<path d="M126.876 230.234L134.626 228.545C135.231 228.419 135.656 227.586 135.561 226.697L133.541 206.521C133.447 205.633 132.881 205.02 132.276 205.145L124.526 206.835C123.921 206.961 123.496 207.794 123.591 208.682L125.611 228.859C125.705 229.747 126.271 230.36 126.876 230.234Z" fill="#6348EC"/>
<path d="M111.942 163.723C111.848 164.179 112.013 164.596 112.311 164.658C112.61 164.721 112.932 164.407 113.027 163.951C113.121 163.495 112.956 163.071 112.657 163.008C112.359 162.945 112.036 163.267 111.942 163.723Z" fill="#263238"/>
<path d="M111.973 164.588C112.226 166.094 112.684 167.559 113.333 168.942C112.977 169.101 112.59 169.179 112.2 169.171C111.81 169.163 111.427 169.068 111.077 168.895L111.973 164.588Z" fill="#DF5753"/>
<path d="M113.184 160.933C113.131 160.932 113.079 160.916 113.035 160.886C112.733 160.722 112.397 160.633 112.054 160.625C111.711 160.617 111.371 160.69 111.062 160.838C110.996 160.868 110.921 160.871 110.854 160.846C110.786 160.821 110.731 160.77 110.7 160.705C110.685 160.672 110.676 160.636 110.675 160.6C110.674 160.564 110.68 160.527 110.693 160.494C110.706 160.46 110.726 160.429 110.752 160.403C110.778 160.377 110.808 160.357 110.842 160.343C111.234 160.157 111.664 160.067 112.098 160.082C112.532 160.097 112.955 160.216 113.333 160.43C113.364 160.449 113.39 160.474 113.411 160.504C113.431 160.533 113.446 160.566 113.453 160.602C113.46 160.637 113.461 160.673 113.453 160.709C113.446 160.744 113.432 160.777 113.412 160.807C113.388 160.846 113.354 160.878 113.314 160.9C113.274 160.922 113.23 160.933 113.184 160.933Z" fill="#263238"/>
<path d="M95.7662 165.185C96.5522 169.406 97.4168 177.148 94.4614 179.962C94.4614 179.962 95.6168 184.253 103.469 184.253C112.115 184.253 107.588 179.962 107.588 179.962C102.872 178.838 103.005 175.348 103.823 172.102L95.7662 165.185Z" fill="#E58A7B"/>
<path d="M93.2667 181.172C92.7008 179.789 92.7951 177.242 93.2117 177.203C94.8466 177.093 103.571 177.069 106.456 178.178C106.837 178.298 107.191 178.493 107.497 178.751C107.802 179.009 108.053 179.326 108.235 179.682C108.417 180.038 108.527 180.427 108.557 180.826C108.588 181.225 108.539 181.626 108.413 182.005L93.2667 181.172Z" fill="#6348EC"/>
<path d="M73.9862 339.268C73.4788 339.266 72.9731 339.21 72.4771 339.103C72.4516 339.099 72.4282 339.087 72.4099 339.068C72.3916 339.05 72.3794 339.027 72.3749 339.001C72.3714 338.975 72.3746 338.948 72.3842 338.923C72.3938 338.899 72.4096 338.877 72.4299 338.86C72.5007 338.812 74.0963 337.728 74.9373 337.916C75.0281 337.936 75.1137 337.975 75.1883 338.031C75.2628 338.086 75.3247 338.157 75.3696 338.239C75.438 338.334 75.4748 338.448 75.4748 338.565C75.4748 338.682 75.438 338.796 75.3696 338.891C75.1758 339.043 74.9536 339.155 74.716 339.219C74.4784 339.284 74.2303 339.301 73.9862 339.268ZM72.8622 338.907C73.7268 339.048 74.9058 339.048 75.1574 338.718C75.1574 338.718 75.2517 338.592 75.1574 338.372C75.1319 338.324 75.0961 338.282 75.0527 338.25C75.0092 338.217 74.9591 338.195 74.9058 338.184C74.1662 338.22 73.4544 338.478 72.8622 338.922V338.907Z" fill="#6348EC"/>
<path d="M72.5085 339.127H72.4377C72.4159 339.115 72.3983 339.096 72.3871 339.074C72.3759 339.051 72.3716 339.026 72.3748 339.001C72.3748 338.93 72.5163 337.264 73.1608 336.714C73.2424 336.647 73.3367 336.597 73.438 336.567C73.5393 336.538 73.6455 336.529 73.7503 336.541C73.8529 336.543 73.9518 336.579 74.0305 336.645C74.1091 336.711 74.1628 336.802 74.1826 336.902C74.3005 337.547 73.1451 338.805 72.5556 339.135L72.5085 339.127ZM73.6717 336.769C73.5587 336.77 73.4499 336.812 73.3652 336.887C72.9568 337.405 72.718 338.036 72.6814 338.695C73.2709 338.247 74.0097 337.296 73.939 336.91C73.939 336.91 73.939 336.792 73.7346 336.769H73.6717Z" fill="#6348EC"/>
<path d="M65.8433 338.985H71.6204L76.9416 325.616H71.1723L65.8433 338.985Z" fill="#E58A7B"/>
<path d="M72.0762 338.317H65.5917C65.4759 338.318 65.3639 338.358 65.274 338.431C65.184 338.504 65.1214 338.605 65.0965 338.718L63.9568 343.851C63.9308 343.976 63.9333 344.105 63.9641 344.229C63.9949 344.353 64.0533 344.468 64.1349 344.566C64.2165 344.664 64.3192 344.743 64.4353 344.796C64.5514 344.849 64.678 344.875 64.8057 344.873C67.0694 344.833 68.1698 344.7 71.0229 344.7C72.7757 344.7 76.3913 344.888 78.8201 344.888C81.2488 344.888 81.5553 342.53 80.565 342.271C76.1162 341.296 74.442 339.952 73.0194 338.679C72.761 338.445 72.4246 338.316 72.0762 338.317Z" fill="#263238"/>
<path d="M119.087 185.582C120.808 188.726 122.506 191.948 124.18 195.14L129.195 204.721L130.452 207.079C130.718 207.65 131.034 208.197 131.396 208.714C132.274 209.772 133.34 210.66 134.54 211.331C137.445 212.989 140.53 214.307 143.736 215.261L143.249 219.568C142.262 219.589 141.276 219.558 140.293 219.474C139.316 219.412 138.343 219.299 137.377 219.136C135.379 218.828 133.42 218.301 131.537 217.564C129.393 216.759 127.431 215.532 125.768 213.956C124.94 213.1 124.215 212.15 123.606 211.127L122.129 208.769C120.195 205.625 118.332 202.465 116.54 199.29C114.756 196.091 113.027 192.884 111.368 189.606L119.087 185.582Z" fill="#E58A7B"/>
<path d="M79.8104 184.749C77.4524 189.787 84.9901 205.695 84.9901 205.695L97.8648 199.722C96.4597 195.208 94.7097 190.809 92.63 186.564C89.2659 179.891 82.1998 179.6 79.8104 184.749Z" fill="#6348EC"/>
<path opacity="0.8" d="M79.8104 184.749C77.4524 189.787 84.9901 205.695 84.9901 205.695L97.8648 199.722C96.4597 195.208 94.7097 190.809 92.63 186.564C89.2659 179.891 82.1998 179.6 79.8104 184.749Z" fill="#FAFAFA"/>
<path d="M86.7195 185.778L83.8113 203.031C84.503 204.658 84.9903 205.695 84.9903 205.695L97.865 199.722C97.865 199.722 92.0486 189.669 86.7195 185.778Z" fill="#6348EC"/>
<path opacity="0.7" d="M86.7195 185.778L83.8113 203.031C84.503 204.658 84.9903 205.695 84.9903 205.695L97.865 199.722C97.865 199.722 92.0486 189.669 86.7195 185.778Z" fill="#FAFAFA"/>
<path d="M116.469 181.565C116.469 181.565 122.616 188.514 116.815 231.476H85.9333C85.7132 226.76 88.6921 203.613 84.1255 181.267C87.5391 180.609 90.9916 180.173 94.4614 179.962C98.8332 179.71 103.216 179.71 107.588 179.962C110.585 180.268 113.554 180.804 116.469 181.565Z" fill="#6348EC"/>
<path opacity="0.8" d="M116.469 181.565C116.469 181.565 122.616 188.514 116.815 231.476H85.9333C85.7132 226.76 88.6921 203.613 84.1255 181.267C87.5391 180.609 90.9916 180.173 94.4614 179.962C98.8332 179.71 103.216 179.71 107.588 179.962C110.585 180.268 113.554 180.804 116.469 181.565Z" fill="#FAFAFA"/>
<path d="M118.961 191.791L114.19 203.581L118.961 210.522C119.432 204.287 119.432 198.026 118.961 191.791Z" fill="#6348EC"/>
<path opacity="0.7" d="M118.961 191.791L114.19 203.581L118.961 210.522C119.432 204.287 119.432 198.026 118.961 191.791Z" fill="#FAFAFA"/>
<path d="M108.955 185.377C107.053 190.565 114.693 206.301 114.693 206.301L128.527 199.329C126.755 194.612 124.483 190.098 121.751 185.865C117.609 179.813 111.046 179.71 108.955 185.377Z" fill="#6348EC"/>
<path opacity="0.8" d="M108.955 185.377C107.053 190.565 114.693 206.301 114.693 206.301L128.527 199.329C126.755 194.612 124.483 190.098 121.751 185.865C117.609 179.813 111.046 179.71 108.955 185.377Z" fill="#FAFAFA"/>
<path d="M142.588 215.465L148.247 213.202L149.819 220.024C149.819 220.024 145.323 221.651 142.054 219.285L142.588 215.465Z" fill="#E58A7B"/>
<path d="M154.488 213.273L153.616 219.372L149.812 220.024L148.248 213.202L154.488 213.273Z" fill="#E58A7B"/>
<path d="M71.1643 325.623H76.9414L73.1136 335.228L67.7688 334.144L71.1643 325.623Z" fill="#CF6F64"/>
<path d="M96.9374 159.589C96.1514 165.256 95.3654 168.533 97.5741 172C100.93 177.211 108.374 176.087 110.873 170.774C113.129 165.995 114.096 157.522 109.081 154.15C107.975 153.412 106.7 152.967 105.376 152.856C104.051 152.745 102.72 152.972 101.507 153.515C100.294 154.059 99.2386 154.901 98.4394 155.963C97.6402 157.025 97.1235 158.273 96.9374 159.589Z" fill="#E58A7B"/>
<path d="M118.725 150.062C113.836 145.543 117.703 144.395 117.703 144.395C117.703 144.395 112.343 142.179 114.465 146.926C117.428 153.544 109.128 151.509 105.151 146.926C102.699 144.097 96.2456 146.997 96.56 149.756C96.8744 152.515 86.735 150.377 91.3253 156.398C91.4117 162.686 93.8562 168.801 97.1024 170.459C102.667 173.297 106.841 165.358 108.397 158.999C116.792 163.031 123.787 154.739 118.725 150.062Z" fill="#263238"/>
<path d="M104.153 162.788C104.184 164.218 104.684 165.599 105.576 166.718C106.762 168.164 108.114 167.37 108.429 165.696C108.712 164.187 108.429 161.617 106.935 160.776C105.442 159.935 104.145 161.074 104.153 162.788Z" fill="#E58A7B"/>
<path d="M91.3804 150.51C93.9029 150.415 96.3771 151.22 98.36 152.782C98.36 152.782 96.9374 146.698 91.3804 150.51Z" fill="#263238"/>
<path d="M103.288 231.476C103.288 231.476 104.444 254.868 108.712 275.492C110.072 282.024 109.183 289.019 105.356 294.482C94.1079 310.524 76.2735 331.888 76.2735 331.888L66.928 330.842C66.928 330.842 82.0585 302.79 89.8084 288.854C91.5691 285.71 93.1254 282.834 91.797 279.422C78.9616 246.843 85.902 231.476 85.902 231.476H103.288Z" fill="#6348EC"/>
<path opacity="0.3" d="M103.288 231.476C103.288 231.476 104.444 254.868 108.712 275.492C110.072 282.024 109.183 289.019 105.356 294.482C94.1079 310.524 76.2735 331.888 76.2735 331.888L66.928 330.842C66.928 330.842 82.0585 302.79 89.8084 288.854C91.5691 285.71 93.1254 282.834 91.797 279.422C78.9616 246.843 85.902 231.476 85.902 231.476H103.288Z" fill="#010101"/>
<path d="M105.025 251.692L96.0807 241.018C95.7427 245.805 98.6352 263.71 108.555 274.714C106.975 266.956 105.835 258.774 105.025 251.692Z" fill="#6348EC"/>
<path opacity="0.4" d="M105.025 251.692L96.0807 241.018C95.7427 245.805 98.6352 263.71 108.555 274.714C106.975 266.956 105.835 258.774 105.025 251.692Z" fill="#010101"/>
<path d="M78.9065 330.465L77.0751 334.254L65.8118 331.361L66.7078 327.848L78.9065 330.465Z" fill="#6348EC"/>
<path opacity="0.1" d="M78.9065 330.465L77.0751 334.254L65.8118 331.361L66.7078 327.848L78.9065 330.465Z" fill="#010101"/>
<path d="M112.469 338.985H118.238L119.928 325.616H114.159L112.469 338.985Z" fill="#E58A7B"/>
<path d="M120.769 339.268C120.173 339.268 119.578 339.213 118.993 339.103C118.965 339.099 118.94 339.086 118.92 339.066C118.9 339.046 118.887 339.021 118.883 338.993C118.878 338.965 118.882 338.936 118.895 338.911C118.907 338.885 118.928 338.865 118.953 338.852C119.04 338.805 121.052 337.657 122.019 337.916C122.109 337.938 122.194 337.977 122.268 338.033C122.343 338.088 122.405 338.158 122.451 338.239C122.513 338.326 122.546 338.43 122.546 338.537C122.546 338.644 122.513 338.749 122.451 338.836C122.223 339.182 121.508 339.268 120.769 339.268ZM119.433 338.907C120.517 339.056 121.979 339.033 122.239 338.671C122.239 338.624 122.309 338.545 122.239 338.372C122.21 338.324 122.171 338.282 122.125 338.249C122.079 338.217 122.027 338.195 121.972 338.184C121.351 338.034 120.14 338.561 119.472 338.922L119.433 338.907Z" fill="#6348EC"/>
<path d="M119.016 339.127C118.99 339.134 118.963 339.134 118.937 339.127C118.919 339.111 118.905 339.092 118.896 339.07C118.886 339.049 118.882 339.025 118.882 339.001C118.882 338.93 119.048 337.374 119.778 336.777C119.885 336.683 120.01 336.614 120.146 336.573C120.281 336.532 120.424 336.521 120.564 336.541C120.942 336.58 121.044 336.769 121.068 336.926C121.178 337.578 119.794 338.828 119.103 339.135L119.016 339.127ZM120.431 336.769C120.254 336.768 120.083 336.832 119.951 336.95C119.514 337.447 119.239 338.067 119.165 338.726C119.881 338.302 120.816 337.319 120.737 336.926C120.737 336.926 120.737 336.8 120.47 336.769H120.431Z" fill="#6348EC"/>
<path d="M118.403 338.317H112.115C112 338.317 111.888 338.357 111.799 338.43C111.71 338.503 111.65 338.605 111.628 338.718L110.48 343.851C110.453 343.975 110.454 344.103 110.483 344.226C110.513 344.35 110.57 344.465 110.65 344.563C110.73 344.661 110.831 344.74 110.946 344.794C111.061 344.847 111.186 344.874 111.313 344.872C113.593 344.833 116.878 344.7 119.731 344.7C123.08 344.7 125.964 344.888 129.886 344.888C132.244 344.888 132.913 342.53 131.922 342.271C127.403 341.28 123.716 341.178 119.81 338.773C119.395 338.489 118.906 338.331 118.403 338.317Z" fill="#263238"/>
<path d="M114.159 325.623H119.936L118.694 335.362L113.035 334.489L114.159 325.623Z" fill="#CF6F64"/>
<path d="M116.815 231.476C116.815 231.476 121.649 247.636 129.635 268.418C132.237 275.178 133.243 281.686 131.435 287.408C125.831 305.172 120.989 331.888 120.989 331.888L111.36 330.842C111.36 330.842 110.991 303.592 114.402 289.546C116.155 282.338 115.558 279.713 113.758 277.332C89.2345 244.705 95.8212 231.5 95.8212 231.5L116.815 231.476Z" fill="#6348EC"/>
<path opacity="0.3" d="M116.815 231.476C116.815 231.476 121.649 247.636 129.635 268.418C132.237 275.178 133.243 281.686 131.435 287.408C125.831 305.172 120.989 331.888 120.989 331.888L111.36 330.842C111.36 330.842 110.991 303.592 114.402 289.546C116.155 282.338 115.558 279.713 113.758 277.332C89.2345 244.705 95.8212 231.5 95.8212 231.5L116.815 231.476Z" fill="#010101"/>
<path d="M122.655 330.253L122.152 334.089L110.787 332.163L110.449 328.657L122.655 330.253Z" fill="#6348EC"/>
<path opacity="0.1" d="M122.655 330.253L122.152 334.089L110.787 332.163L110.449 328.657L122.655 330.253Z" fill="#010101"/>
<rect x="208.53" y="111.333" width="19.8425" height="19.8425" rx="9.92124" fill="#43CD2E"/>
<path d="M218.452 125.168L217.845 124.616C215.689 122.661 214.265 121.367 214.265 119.789C214.265 118.496 215.278 117.487 216.568 117.487C217.296 117.487 217.995 117.826 218.452 118.358C218.908 117.826 219.607 117.487 220.335 117.487C221.625 117.487 222.638 118.496 222.638 119.789C222.638 121.367 221.214 122.661 219.059 124.616L218.452 125.168Z" fill="white"/>
<rect x="243.012" y="68.0083" width="20" height="20" rx="10" fill="#FE2F3D"/>
<path d="M255.31 75.7105L250.715 80.306M250.715 75.7105L255.31 80.306" stroke="white" stroke-linecap="round" stroke-linejoin="round"/>
<rect x="136" y="98.0027" width="20" height="20" rx="10" fill="#FE2F3D"/>
<path d="M148.298 105.705L143.703 110.3M143.703 105.705L148.298 110.3" stroke="white" stroke-linecap="round" stroke-linejoin="round"/>
<rect x="156" y="52" width="32.9754" height="32.9754" rx="16.4877" fill="#43CD2E"/>
<path d="M172.488 74.9923L171.479 74.074C167.897 70.8251 165.531 68.6755 165.531 66.0527C165.531 63.9031 167.215 62.2265 169.358 62.2265C170.568 62.2265 171.73 62.79 172.488 63.6735C173.246 62.79 174.408 62.2265 175.619 62.2265C177.761 62.2265 179.445 63.9031 179.445 66.0527C179.445 68.6755 177.08 70.8251 173.497 74.074L172.488 74.9923Z" fill="white"/>
<rect x="87.9438" y="111.26" width="19.8425" height="19.8425" rx="9.92124" fill="#43CD2E"/>
<g clip-path="url(#clip0_1_3562)">
<path d="M97.8651 125.095L97.2581 124.543C95.1023 122.588 93.679 121.294 93.679 119.716C93.679 118.423 94.692 117.414 95.9814 117.414C96.7097 117.414 97.4088 117.753 97.8651 118.284C98.3214 117.753 99.0205 117.414 99.7489 117.414C101.038 117.414 102.051 118.423 102.051 119.716C102.051 121.294 100.628 122.588 98.4721 124.543L97.8651 125.095Z" fill="white"/>
</g>
<rect x="296.096" y="88.0083" width="19.8425" height="19.8425" rx="9.92124" fill="#43CD2E"/>
<path d="M306.017 101.843L305.41 101.291C303.254 99.336 301.831 98.0424 301.831 96.4643C301.831 95.1707 302.844 94.1619 304.133 94.1619C304.862 94.1619 305.561 94.5009 306.017 95.0326C306.474 94.5009 307.173 94.1619 307.901 94.1619C309.19 94.1619 310.203 95.1707 310.203 96.4643C310.203 98.0424 308.78 99.336 306.624 101.291L306.017 101.843Z" fill="white"/>
<path d="M217.902 328.296C218.399 328.587 218.904 328.864 219.405 329.147C220.024 329.497 220.482 329.77 220.955 330.1C221.463 330.454 221.938 330.851 222.367 331.297C222.166 331.088 222.503 331.477 222.506 331.48C222.603 331.605 222.686 331.737 222.771 331.871C222.836 331.973 222.928 332.179 223.024 332.504C223.003 332.37 223.007 332.395 223.035 332.578C223.062 332.753 223.063 332.931 223.069 333.107C223.078 333.392 222.99 333.611 222.921 333.777C222.786 334.102 222.761 334.097 222.477 334.404C222.362 334.527 222.119 334.693 221.831 334.874C220.846 335.495 219.371 335.811 218.133 336.088C217.311 336.272 216.933 337.327 217.184 338.052C217.484 338.915 218.33 339.184 219.149 339C220.793 338.633 222.441 338.189 223.857 337.236C225.524 336.112 226.392 334.169 226.085 332.178C225.547 328.691 221.916 327.086 219.208 325.502C218.481 325.077 217.488 325.538 217.156 326.247C216.778 327.059 217.177 327.872 217.902 328.296Z" fill="#074785"/>
<path fill-rule="evenodd" clip-rule="evenodd" d="M218.518 336.001C220.021 337.769 218.548 341.72 216.67 342.793C215.555 343.444 213.756 343.032 213.708 341.763C213.571 340.15 214.26 337.958 215.029 336.663" fill="#074785"/>
<path d="M166.143 325.362C165.617 325.595 165.084 325.814 164.553 326.039C163.899 326.317 163.413 326.537 162.906 326.811C162.362 327.106 161.846 327.448 161.369 327.843C161.592 327.657 161.213 328.006 161.21 328.009C161.1 328.122 161.001 328.244 160.903 328.367C160.827 328.462 160.713 328.656 160.581 328.968C160.616 328.838 160.609 328.862 160.561 329.04C160.514 329.21 160.494 329.388 160.468 329.562C160.427 329.843 160.489 330.071 160.54 330.245C160.637 330.582 160.663 330.58 160.91 330.917C161.01 331.051 161.233 331.244 161.499 331.456C162.409 332.184 163.839 332.664 165.038 333.078C165.835 333.353 166.091 334.444 165.76 335.136C165.364 335.96 164.495 336.132 163.701 335.858C162.109 335.308 160.52 334.682 159.221 333.575C157.69 332.273 157.046 330.243 157.575 328.3C158.501 324.895 162.288 323.708 165.158 322.438C165.927 322.098 166.862 322.667 167.112 323.408C167.4 324.258 166.911 325.023 166.143 325.362Z" fill="#074785"/>
<path fill-rule="evenodd" clip-rule="evenodd" d="M164.665 332.949C162.973 334.538 163.993 338.628 165.738 339.906C166.774 340.677 168.607 340.471 168.798 339.215C169.115 337.628 168.677 335.371 168.057 333.999" fill="#074785"/>
<path d="M184.283 353.426C184.608 355.707 184.299 357.972 184.036 360.242C183.832 361.983 186.532 362.37 186.736 360.62C187.027 358.124 187.347 355.604 186.99 353.096C186.742 351.36 184.034 351.68 184.283 353.426Z" fill="#074785"/>
<path d="M194.535 353.214C193.789 355.662 193.678 358.15 193.58 360.689C193.551 361.431 193.949 362.117 194.742 362.228C195.421 362.324 196.252 361.811 196.28 361.067C196.367 358.812 196.374 356.474 197.037 354.296C197.254 353.586 197.067 352.824 196.327 352.504C195.703 352.234 194.752 352.502 194.535 353.214Z" fill="#074785"/>
<path fill-rule="evenodd" clip-rule="evenodd" d="M181.779 363.541C185.743 365.421 188.209 362.836 186.894 358.89C184.186 358.429 176.37 361.17 181.779 363.541Z" fill="#074785"/>
<path fill-rule="evenodd" clip-rule="evenodd" d="M198.596 364.288C194.569 366.027 192.195 363.356 193.648 359.46C196.371 359.095 204.086 362.109 198.596 364.288Z" fill="#074785"/>
<path fill-rule="evenodd" clip-rule="evenodd" d="M227.843 344.512C227.609 344.485 227.566 344.405 227.58 344.179C227.689 342.498 226.436 340.97 224.785 340.75C223.068 340.521 221.476 341.609 221.101 343.254C221.075 343.37 220.984 343.498 220.885 343.566C220.355 343.928 219.952 344.39 219.769 344.856C219.04 346.657 219.981 348.526 221.748 349.003C221.955 349.058 222.029 349.134 221.982 349.337C221.969 349.393 221.976 349.454 221.976 349.513C221.986 350.738 222.841 351.851 223.985 352.126C225.23 352.427 226.519 351.89 227.057 350.822C227.165 350.605 227.283 350.539 227.52 350.535C229.139 350.505 230.421 349.259 230.497 347.66C230.573 346.072 229.422 344.698 227.843 344.512Z" fill="#FFA4AC"/>
<path fill-rule="evenodd" clip-rule="evenodd" d="M165.442 305.086C165.43 304.826 165.254 304.544 165.085 304.332C161.266 299.483 162.448 292.767 167.698 289.696C168.174 289.418 168.154 289.074 168.169 288.654C168.349 283.922 171.363 280.266 175.764 279.464C177.321 279.182 178.842 279.355 180.307 279.97C180.624 280.103 180.862 280.158 181.164 279.832C182.919 277.933 185.078 277.031 187.573 276.957C187.896 276.948 188.266 276.812 188.529 276.611C192.306 273.692 197.368 274.182 200.503 277.803C200.79 278.134 200.988 278.349 201.504 278.172C205.493 276.804 209.483 278.295 211.837 282.015C212.13 282.478 212.443 282.677 212.966 282.764C217.117 283.457 220.028 286.694 220.57 291.099C220.618 291.495 220.83 291.967 221.113 292.213C225.562 296.067 225.66 302.904 221.314 306.952C221.073 307.177 220.856 307.533 220.799 307.861" fill="#FFA4AC"/>
<path d="M221.235 313.519C221.792 310.756 222.147 308.496 222.148 308.495C222.432 306.718 222.455 305.225 222.225 305.163C222.225 305.163 222.225 305.163 222.038 305.216C216.122 306.915 208.342 306.555 201.923 306.411C195.85 306.298 189.758 305.816 183.752 304.974C181.067 304.598 178.404 304.14 175.757 303.668C173.362 303.226 169.524 301.753 167.115 302.151C167.06 302.16 167.06 302.16 167.06 302.16C167.009 302.184 166.613 301.959 166.185 301.667C166.185 301.667 166.185 301.666 165.733 301.499C163.848 300.806 163.851 300.815 163.85 300.813C163.814 301.828 163.839 303.533 163.904 304.607C163.904 304.609 163.903 304.606 163.993 305.582C165.213 318.771 167.068 332.9 170.122 347.84C170.19 348.171 170.294 348.388 170.621 348.594C171.15 348.928 171.643 349.346 172.177 349.657C183.093 356.387 197.898 356.985 209.534 351.139C210.015 350.912 210.265 350.641 210.451 350.213C211.4 348.016 212.191 345.823 212.929 343.646C216.475 333.187 219.297 323.182 221.235 313.519Z" fill="#FD6085"/>
<path d="M182.303 304.761C182.519 320.907 183.108 337.443 183.709 354.238C185.164 354.552 186.639 354.789 188.125 354.939C188.08 348.625 188.022 342.32 187.997 336.033C187.932 325.86 187.879 315.737 187.906 305.685C187.906 305.622 187.905 305.558 187.905 305.495C186.518 305.34 185.132 305.167 183.752 304.974C183.268 304.907 182.785 304.833 182.303 304.761Z" fill="#F9D555"/>
<path d="M175.373 303.592C173.888 303.275 171.96 302.658 170.164 302.319C170.451 305.422 170.898 310.09 171.141 312.327C171.612 316.82 172.127 321.388 172.679 326.021C173.247 330.774 173.851 335.599 174.467 340.48C174.93 344.167 175.396 347.884 175.875 351.632C176.833 352.073 177.811 352.478 178.808 352.837C177.377 335.89 176.051 319.46 175.373 303.592Z" fill="#F9D555"/>
<path d="M197.532 354.789C200.124 338.41 202.675 322.28 204.826 306.482C203.837 306.458 202.865 306.434 201.923 306.412C201.019 306.395 200.115 306.368 199.211 306.335C198.035 316.193 196.774 326.112 195.497 336.076C194.698 342.417 193.864 348.772 193.044 355.137C194.545 355.106 196.044 354.987 197.532 354.789Z" fill="#F9D555"/>
<path d="M215.183 314.644C215.635 312.754 216.468 309.085 217.123 306.161C215.432 306.36 213.675 306.465 211.904 306.512C209.258 321.817 205.943 337.575 202.465 353.809C203.513 353.53 204.548 353.205 205.567 352.837C206.498 349.247 207.415 345.684 208.324 342.151C209.551 337.387 210.761 332.677 211.924 328.034C213.058 323.507 214.148 319.043 215.183 314.644Z" fill="#F9D555"/>
<path d="M191.244 287.607C191.219 287.488 191.184 287.369 191.154 287.25C191.113 287.133 191.064 287.017 191.017 286.9C190.959 286.786 190.895 286.675 190.832 286.563C190.752 286.448 190.66 286.335 190.569 286.223L190.449 286.101L190.389 286.041L190.359 286.011L190.344 285.995L190.337 285.988L190.333 285.984L190.331 285.983L190.302 285.958L189.978 285.716C189.863 285.648 189.747 285.579 189.627 285.515L189.258 285.352L188.878 285.226L188.491 285.133L188.1 285.071C187.839 285.043 187.577 285.027 187.316 285.03C186.793 285.034 186.274 285.108 185.765 285.245C185.619 285.284 185.476 285.331 185.332 285.383C185.308 285.317 185.283 285.252 185.26 285.187C185.195 285.05 185.117 284.917 185.041 284.785C184.951 284.664 184.86 284.541 184.762 284.426C184.656 284.32 184.551 284.21 184.438 284.113C184.321 284.023 184.206 283.927 184.082 283.848C183.956 283.774 183.832 283.691 183.701 283.627C183.443 283.496 183.175 283.39 182.901 283.306C182.628 283.224 182.349 283.163 182.066 283.124C181.781 283.09 181.502 283.074 181.203 283.083L180.967 283.098C180.891 283.105 180.801 283.109 180.751 283.119L180.572 283.147L180.483 283.161L180.472 283.163L180.425 283.171L180.419 283.173L180.393 283.179L180.343 283.191L179.941 283.295C179.806 283.335 179.672 283.39 179.539 283.438C179.273 283.546 179.007 283.678 178.762 283.853C178.515 284.021 178.292 284.232 178.109 284.461C178.011 284.573 177.943 284.698 177.862 284.818C177.791 284.94 177.733 285.064 177.672 285.188C177.623 285.311 177.573 285.436 177.531 285.559C177.495 285.68 177.453 285.804 177.425 285.923C177.367 286.164 177.322 286.399 177.283 286.628C177.236 286.901 177.197 287.163 177.157 287.421C177.083 287.415 177.008 287.413 176.931 287.419C176.824 287.424 176.72 287.422 176.611 287.443C176.185 287.498 175.762 287.668 175.436 287.923C175.109 288.176 174.874 288.494 174.711 288.822C174.549 289.152 174.456 289.494 174.409 289.836C174.388 290.007 174.38 290.179 174.381 290.349C174.386 290.52 174.4 290.689 174.426 290.856C174.48 291.192 174.572 291.524 174.737 291.83C174.818 291.983 174.92 292.128 175.031 292.263C175.154 292.393 175.285 292.517 175.442 292.609C175.52 292.655 175.6 292.695 175.688 292.723C175.77 292.759 175.861 292.772 175.948 292.789C176.034 292.809 176.127 292.801 176.212 292.808C176.297 292.801 176.38 292.786 176.465 292.776C176.381 292.765 176.294 292.76 176.212 292.746C176.133 292.721 176.053 292.713 175.981 292.678C175.907 292.645 175.834 292.618 175.771 292.571C175.704 292.533 175.646 292.484 175.591 292.431C175.477 292.334 175.393 292.21 175.316 292.088C175.248 291.957 175.19 291.824 175.151 291.683C175.072 291.404 175.034 291.114 175.042 290.824C175.045 290.68 175.061 290.536 175.082 290.395L175.123 290.183L175.178 289.977C175.219 289.841 175.266 289.71 175.325 289.583C175.383 289.457 175.45 289.337 175.526 289.226C175.675 289.004 175.861 288.819 176.069 288.697C176.277 288.573 176.502 288.51 176.744 288.503C176.803 288.494 176.867 288.507 176.928 288.509C176.99 288.509 177.053 288.519 177.117 288.532C177.243 288.545 177.375 288.592 177.504 288.625L178.123 288.781L178.281 288.202C178.344 287.975 178.403 287.749 178.456 287.526L178.608 286.873C178.659 286.661 178.714 286.458 178.776 286.264C178.806 286.166 178.842 286.077 178.874 285.983C178.909 285.894 178.951 285.812 178.987 285.725C179.033 285.648 179.074 285.568 179.121 285.496C179.176 285.43 179.217 285.353 179.277 285.295C179.389 285.173 179.507 285.062 179.653 284.972C179.792 284.877 179.958 284.801 180.134 284.734C180.227 284.706 180.314 284.67 180.409 284.644L180.707 284.574L180.743 284.565L180.761 284.56L180.831 284.55L181.01 284.524C181.077 284.512 181.109 284.516 181.153 284.514L181.278 284.507C181.365 284.503 181.472 284.512 181.567 284.513C181.665 284.517 181.764 284.533 181.862 284.542C181.961 284.554 182.057 284.577 182.156 284.593C182.252 284.611 182.346 284.641 182.442 284.664C182.629 284.721 182.809 284.791 182.978 284.874C183.062 284.914 183.136 284.965 183.218 285.009C183.294 285.056 183.359 285.113 183.433 285.161C183.499 285.216 183.555 285.276 183.62 285.331L183.774 285.515L183.891 285.714C183.914 285.786 183.949 285.855 183.972 285.928C183.983 286.003 184.008 286.076 184.019 286.154C184.021 286.234 184.026 286.314 184.032 286.394L184.149 287.758L185.214 286.962C185.348 286.861 185.495 286.763 185.665 286.678C185.833 286.595 186.012 286.517 186.2 286.453C186.576 286.325 186.982 286.246 187.389 286.207C187.593 286.188 187.798 286.185 188.002 286.189L188.304 286.212L188.603 286.254L188.892 286.319L189.171 286.409L189.433 286.523L189.678 286.664L189.917 286.852C189.97 286.912 190.026 286.967 190.087 287.027L190.257 287.252L190.398 287.5L190.513 287.766L190.598 288.045L190.653 288.334L190.674 288.629L190.659 288.926L190.61 289.222L190.526 289.512L190.398 289.79C190.341 289.875 190.287 289.964 190.227 290.05C190.156 290.127 190.089 290.212 190.014 290.288C189.931 290.357 189.848 290.43 189.758 290.497L189.466 290.672L189.803 290.57C189.911 290.523 190.015 290.467 190.122 290.414C190.222 290.349 190.317 290.278 190.415 290.208C190.501 290.127 190.583 290.041 190.667 289.956L190.88 289.67L191.05 289.357C191.093 289.248 191.134 289.137 191.174 289.024L191.254 288.678L191.293 288.325L191.291 287.966L191.244 287.607Z" fill="#FD6085"/>
<path d="M217.779 295.478L217.756 295.264L217.743 295.157L217.737 295.104L217.733 295.078L217.732 295.065L217.732 295.057V295.054L217.724 295.018L217.592 294.546C217.53 294.395 217.468 294.243 217.4 294.094L217.154 293.669L216.868 293.272L216.546 292.902L216.197 292.56C216.074 292.451 215.947 292.348 215.821 292.244C215.692 292.141 215.557 292.05 215.425 291.952C215.155 291.768 214.871 291.597 214.574 291.451C214.278 291.303 213.971 291.171 213.653 291.06C213.39 290.966 213.118 290.893 212.839 290.831C212.904 290.681 212.958 290.525 213.015 290.372C213.062 290.193 213.089 290.01 213.123 289.828C213.131 289.646 213.141 289.463 213.138 289.282C213.117 289.103 213.103 288.921 213.069 288.746C213.024 288.575 212.988 288.398 212.929 288.232C212.864 288.069 212.807 287.901 212.729 287.744C212.646 287.591 212.573 287.431 212.479 287.285C212.382 287.14 212.293 286.989 212.187 286.852C212.077 286.717 211.976 286.575 211.857 286.448C211.736 286.322 211.621 286.19 211.491 286.073C211.357 285.958 211.231 285.837 211.09 285.729C210.945 285.624 210.814 285.517 210.653 285.416L210.406 285.265C210.325 285.217 210.235 285.16 210.17 285.132L209.959 285.028L209.852 284.975L209.839 284.968L209.799 284.95L209.795 284.948L209.787 284.945L209.757 284.933L209.694 284.91L209.2 284.723C209.03 284.666 208.85 284.623 208.676 284.575C208.504 284.519 208.311 284.505 208.127 284.472C207.945 284.435 207.75 284.436 207.559 284.428C207.177 284.416 206.783 284.463 206.412 284.559C206.224 284.6 206.052 284.676 205.874 284.735C205.702 284.805 205.541 284.888 205.377 284.966C205.226 285.054 205.071 285.142 204.926 285.233C204.787 285.33 204.642 285.424 204.511 285.523C204.246 285.722 203.998 285.927 203.759 286.131C203.43 286.409 203.119 286.689 202.81 286.961C202.791 286.943 202.771 286.926 202.751 286.909C202.657 286.825 202.558 286.745 202.446 286.676C202.336 286.604 202.234 286.527 202.11 286.471C201.644 286.22 201.09 286.082 200.556 286.097C200.022 286.113 199.521 286.256 199.081 286.463C198.859 286.565 198.653 286.687 198.457 286.819C198.262 286.951 198.081 287.097 197.909 287.249L197.663 287.488L197.438 287.742C197.297 287.917 197.162 288.096 197.044 288.283C196.809 288.66 196.617 289.062 196.518 289.491C196.49 289.597 196.479 289.708 196.459 289.816C196.448 289.925 196.448 290.036 196.441 290.145C196.452 290.366 196.477 290.587 196.558 290.796L196.621 290.95C196.646 291 196.678 291.047 196.706 291.095C196.757 291.193 196.838 291.275 196.912 291.359C196.981 291.444 197.083 291.506 197.164 291.576C197.256 291.636 197.355 291.685 197.45 291.74C197.368 291.67 197.281 291.603 197.205 291.529C197.139 291.445 197.06 291.379 197.01 291.289C196.958 291.201 196.9 291.118 196.872 291.022C196.854 290.976 196.834 290.931 196.821 290.885L196.792 290.741C196.751 290.552 196.763 290.357 196.783 290.167C196.806 290.072 196.821 289.977 196.847 289.885C196.88 289.793 196.903 289.699 196.944 289.61C197.095 289.251 197.302 288.911 197.558 288.606C197.684 288.453 197.823 288.311 197.967 288.173L198.193 287.977L198.429 287.795C198.591 287.678 198.757 287.57 198.929 287.476C199.103 287.383 199.28 287.3 199.462 287.236C199.825 287.106 200.201 287.042 200.554 287.066C200.907 287.087 201.236 287.191 201.525 287.376C201.602 287.412 201.666 287.475 201.736 287.526C201.807 287.574 201.871 287.635 201.932 287.7C202.063 287.816 202.169 287.968 202.284 288.105L202.68 288.577L203.177 288.213C203.435 288.024 203.69 287.834 203.935 287.643L204.651 287.07C204.887 286.885 205.122 286.71 205.358 286.547C205.476 286.465 205.596 286.397 205.714 286.321C205.833 286.252 205.953 286.193 206.072 286.127C206.194 286.078 206.313 286.021 206.434 285.978C206.557 285.946 206.675 285.894 206.797 285.876C207.042 285.828 207.284 285.795 207.537 285.809C207.664 285.819 207.788 285.813 207.917 285.844C208.046 285.872 208.174 285.876 208.304 285.923C208.434 285.963 208.565 285.994 208.694 286.038L209.084 286.192L209.133 286.212L209.153 286.219L209.252 286.269L209.461 286.375C209.541 286.411 209.579 286.444 209.632 286.477L209.784 286.573C209.886 286.64 209.995 286.732 210.1 286.808C210.206 286.891 210.3 286.986 210.401 287.073C210.498 287.164 210.584 287.264 210.679 287.358C210.769 287.455 210.845 287.562 210.93 287.662C211.011 287.765 211.075 287.877 211.15 287.983C211.221 288.09 211.27 288.205 211.334 288.316C211.393 288.428 211.427 288.545 211.478 288.658C211.52 288.773 211.542 288.889 211.579 289.004C211.604 289.119 211.611 289.234 211.633 289.348V289.687C211.61 289.796 211.598 289.907 211.575 290.015C211.532 290.118 211.508 290.227 211.462 290.328C211.403 290.425 211.359 290.529 211.299 290.627C211.225 290.719 211.155 290.814 211.085 290.91L210.307 291.979L211.652 292.021C211.779 292.025 211.901 292.017 212.03 292.027C212.16 292.042 212.289 292.042 212.421 292.069C212.682 292.109 212.947 292.17 213.209 292.251C213.734 292.409 214.238 292.647 214.713 292.92C214.828 292.994 214.948 293.063 215.06 293.139L215.389 293.38L215.696 293.641L215.979 293.922L216.23 294.222L216.447 294.541C216.506 294.652 216.564 294.763 216.627 294.874L216.764 295.221L216.851 295.606C216.855 295.717 216.866 295.827 216.873 295.944L216.846 296.318L216.769 296.693L216.645 297.063L216.481 297.423L216.275 297.767L216.028 298.09L215.744 298.387L215.424 298.654L215.072 298.886L214.686 299.074C214.55 299.117 214.413 299.165 214.272 299.208C214.128 299.23 213.983 299.264 213.835 299.284C213.687 299.288 213.536 299.298 213.385 299.297L212.929 299.247L213.374 299.38C213.527 299.406 213.683 299.422 213.841 299.444C213.999 299.448 214.159 299.441 214.32 299.436C214.476 299.415 214.634 299.383 214.793 299.355L215.251 299.21L215.687 299.008C215.822 298.926 215.957 298.841 216.09 298.753L216.46 298.455L216.792 298.119L217.086 297.749L217.337 297.35C217.408 297.211 217.469 297.066 217.537 296.922C217.588 296.773 217.634 296.621 217.682 296.469C217.714 296.314 217.739 296.156 217.766 295.997C217.778 295.827 217.779 295.652 217.779 295.478ZM209.17 286.225C209.171 286.225 209.171 286.225 209.17 286.225V286.225Z" fill="#FD6085"/>
<path fill-rule="evenodd" clip-rule="evenodd" d="M222.225 305.163C222.225 305.163 222.225 305.163 222.038 305.216C216.122 306.915 208.342 306.555 201.923 306.412C195.85 306.299 189.758 305.817 183.752 304.974C181.067 304.599 178.404 304.14 175.757 303.669C173.362 303.226 169.524 301.754 167.115 302.151C167.06 302.16 167.06 302.16 167.06 302.16C167.009 302.184 166.613 301.96 166.185 301.667C166.185 301.667 166.185 301.666 165.733 301.5C163.848 300.806 163.851 300.815 163.85 300.813C163.814 301.828 163.839 303.534 163.904 304.608C163.904 304.608 163.904 304.608 163.908 304.66C183.535 307.895 202.285 309.079 222.171 308.338C222.432 306.631 222.447 305.223 222.225 305.163Z" fill="#074785"/>
<path fill-rule="evenodd" clip-rule="evenodd" d="M225.003 304.009C225.118 305.396 223.898 306.58 222.304 306.639C202.272 307.392 183.395 306.194 163.62 302.913C162.046 302.652 160.986 301.324 161.274 299.963C161.562 298.603 163.051 297.723 164.579 297.978C183.873 301.201 202.43 302.379 221.974 301.622C223.525 301.563 224.889 302.624 225.003 304.009Z" fill="#FD6085"/>
<path fill-rule="evenodd" clip-rule="evenodd" d="M160.782 307.967C160.548 307.939 160.504 307.86 160.519 307.635C160.627 305.953 159.375 304.426 157.722 304.206C156.006 303.977 154.414 305.064 154.039 306.709C154.012 306.825 153.923 306.954 153.824 307.022C153.294 307.385 152.89 307.846 152.708 308.313C151.978 310.114 152.918 311.983 154.686 312.459C154.894 312.515 154.967 312.591 154.92 312.794C154.907 312.85 154.915 312.911 154.916 312.969C154.924 314.194 155.779 315.307 156.923 315.583C158.168 315.883 159.457 315.346 159.994 314.279C160.103 314.062 160.221 313.995 160.458 313.991C162.077 313.962 163.359 312.715 163.435 311.116C163.511 309.528 162.36 308.154 160.782 307.967Z" fill="#FFA4AC"/>
<path fill-rule="evenodd" clip-rule="evenodd" d="M233.333 315.502C233.1 315.475 233.056 315.395 233.071 315.17C233.179 313.488 231.926 311.96 230.275 311.74C228.558 311.511 226.966 312.599 226.592 314.244C226.565 314.36 226.474 314.488 226.376 314.556C225.845 314.919 225.443 315.38 225.26 315.848C224.53 317.648 225.471 319.517 227.238 319.994C227.446 320.049 227.519 320.125 227.472 320.329C227.459 320.384 227.467 320.445 227.467 320.504C227.476 321.729 228.331 322.842 229.475 323.117C230.72 323.417 232.009 322.88 232.546 321.814C232.655 321.596 232.773 321.53 233.01 321.526C234.629 321.497 235.911 320.25 235.987 318.652C236.063 317.062 234.912 315.688 233.333 315.502Z" fill="#FFA4AC"/>
<path fill-rule="evenodd" clip-rule="evenodd" d="M216.769 329.362L217.231 315.86C217.231 315.86 193.044 314.203 193.044 314.199L168.812 313.018L167.693 326.482L167.712 326.484C167.681 326.933 167.644 327.383 167.613 327.832C167.527 329.112 168.057 329.654 169.279 329.72C174.473 330.006 179.673 330.224 184.858 330.629C187.006 330.797 188.294 329.858 189.279 328.166C189.822 327.234 190.531 326.186 191.592 325.798C191.878 325.693 192.345 325.706 192.647 325.742C192.896 325.772 193.112 325.869 193.317 326.011C193.812 326.353 194.224 326.797 194.528 327.316C194.753 327.698 194.958 328.105 195.134 328.512C195.915 330.309 197.085 331.391 199.238 331.476C204.435 331.679 209.624 332.071 214.816 332.394C216.038 332.47 216.627 331.995 216.691 330.713C216.713 330.263 216.731 329.812 216.75 329.362H216.769Z" fill="white"/>
<path fill-rule="evenodd" clip-rule="evenodd" d="M214.53 321.5C214.408 323.108 214.433 324.746 214.122 326.317C213.802 327.929 212.644 328.91 210.931 328.863C207.211 328.761 203.49 328.607 199.773 328.406C197.777 328.299 196.913 327.079 196.934 325.145C196.943 324.287 196.918 323.431 196.93 322.575C196.981 318.838 198.049 317.739 201.803 317.86C204.823 317.958 207.855 318.104 210.847 318.492C212.466 318.701 214.043 319.432 214.53 321.5Z" fill="#FD6085"/>
<path fill-rule="evenodd" clip-rule="evenodd" d="M188.623 319.991C188.512 321.671 188.551 323.383 188.248 325.022C187.935 326.706 186.765 327.722 185.018 327.658C181.229 327.52 177.438 327.327 173.651 327.086C171.617 326.957 170.725 325.675 170.731 323.653C170.733 322.757 170.702 321.861 170.706 320.965C170.725 317.059 171.804 315.92 175.629 316.078C178.706 316.205 181.795 316.383 184.847 316.814C186.496 317.047 188.109 317.823 188.623 319.991Z" fill="#29AEFD"/>
<path fill-rule="evenodd" clip-rule="evenodd" d="M175.728 316.714C174.438 316.675 173.134 317.036 172.516 318.27C171.926 319.446 172.028 320.794 172.024 322.073C172.02 323.474 174.199 323.609 174.203 322.2C174.206 321.392 174.174 320.583 174.281 319.78C174.383 319.005 174.885 318.871 175.599 318.894C177.004 318.937 177.135 316.759 175.728 316.714Z" fill="white"/>
<path fill-rule="evenodd" clip-rule="evenodd" d="M178.505 316.878C177.1 316.795 176.972 318.974 178.378 319.056C179.783 319.139 179.91 316.96 178.505 316.878Z" fill="white"/>
<path fill-rule="evenodd" clip-rule="evenodd" d="M200.728 318.821C199.906 318.945 199.041 319.135 198.444 319.76C197.68 320.564 197.637 321.742 197.58 322.787C197.503 324.192 199.682 324.32 199.759 322.915C199.786 322.41 199.736 321.759 199.989 321.301C200.148 321.014 200.902 320.998 201.185 320.956C202.576 320.746 202.116 318.612 200.728 318.821Z" fill="white"/>
<path fill-rule="evenodd" clip-rule="evenodd" d="M203.763 318.632C202.358 318.549 202.23 320.728 203.636 320.81C205.041 320.893 205.167 318.714 203.763 318.632Z" fill="white"/>
<path d="M180.184 320.15C177.421 319.918 175.554 321.856 175.21 324.494C175.033 325.844 177.121 326.209 177.297 324.853C177.49 323.375 178.169 322.288 179.754 322.237C181.493 322.183 182.268 323.503 181.915 325.074C181.615 326.408 183.704 326.76 184.002 325.432C184.611 322.723 182.97 320.383 180.184 320.15Z" fill="#074785"/>
<path d="M205.731 321.623C202.961 321.47 201.151 323.461 200.883 326.107C200.746 327.462 202.841 327.766 202.98 326.407C203.13 324.923 203.778 323.817 205.36 323.722C207.097 323.617 207.909 324.915 207.601 326.495C207.339 327.837 209.437 328.129 209.697 326.795C210.229 324.069 208.522 321.776 205.731 321.623Z" fill="#074785"/>
<path d="M195.705 332.702C195.806 332.133 195.622 331.564 195.018 331.371C194.523 331.213 193.789 331.488 193.687 332.058C193.541 332.878 193.277 334.301 192.312 334.539C190.946 334.875 190.434 333.215 190.417 332.201C190.393 330.843 188.276 330.747 188.301 332.116C188.34 334.379 189.518 336.55 191.995 336.665C194.226 336.768 195.365 334.604 195.705 332.702Z" fill="#074785"/>
<path fill-rule="evenodd" clip-rule="evenodd" d="M218.726 288.63C217.844 286.726 216.641 285.161 214.69 284.276C213.995 283.961 213.387 284.99 214.087 285.308C215.873 286.117 216.888 287.493 217.695 289.233C218.019 289.932 219.048 289.325 218.726 288.63Z" fill="white"/>
<path fill-rule="evenodd" clip-rule="evenodd" d="M219.007 290.564C218.237 290.564 218.237 291.758 219.007 291.758C219.777 291.758 219.777 290.564 219.007 290.564Z" fill="white"/>
<path fill-rule="evenodd" clip-rule="evenodd" d="M174.961 281.052C173.74 281.528 172.618 282.162 171.704 283.116C170.783 284.078 170.2 285.299 169.767 286.544C169.513 287.273 170.667 287.584 170.918 286.861C171.69 284.643 173.071 283.063 175.278 282.203C175.988 281.927 175.679 280.772 174.961 281.052Z" fill="white"/>
<path fill-rule="evenodd" clip-rule="evenodd" d="M177.269 280.373C176.499 280.373 176.499 281.568 177.269 281.568C178.039 281.568 178.039 280.373 177.269 280.373Z" fill="white"/>
<path fill-rule="evenodd" clip-rule="evenodd" d="M157.445 305.093C156.568 305.047 155.617 305.595 155.258 306.404C155.126 306.702 155.169 307.043 155.472 307.221C155.729 307.372 156.157 307.305 156.289 307.007C156.491 306.551 156.944 306.261 157.445 306.288C158.215 306.33 158.211 305.135 157.445 305.093Z" fill="white"/>
<path fill-rule="evenodd" clip-rule="evenodd" d="M154.818 307.482C154.048 307.482 154.048 308.676 154.818 308.676C155.588 308.676 155.588 307.482 154.818 307.482Z" fill="white"/>
<path fill-rule="evenodd" clip-rule="evenodd" d="M231.347 312.758C230.251 312.314 229.025 312.312 228.098 313.111C227.514 313.614 228.363 314.456 228.943 313.955C229.534 313.447 230.376 313.645 231.029 313.91C231.743 314.199 232.05 313.044 231.347 312.758Z" fill="white"/>
<path fill-rule="evenodd" clip-rule="evenodd" d="M227.366 314.408C226.596 314.408 226.596 315.603 227.366 315.603C228.137 315.603 228.137 314.408 227.366 314.408Z" fill="white"/>
<path fill-rule="evenodd" clip-rule="evenodd" d="M225.415 341.698C224.539 341.355 223.482 341.621 222.804 342.25C222.24 342.775 223.085 343.618 223.649 343.095C224.037 342.733 224.615 342.661 225.098 342.85C225.816 343.13 226.123 341.976 225.415 341.698Z" fill="white"/>
<path fill-rule="evenodd" clip-rule="evenodd" d="M226.411 342.91C225.641 342.91 225.641 344.105 226.411 344.105C227.181 344.105 227.181 342.91 226.411 342.91Z" fill="white"/>
<path fill-rule="evenodd" clip-rule="evenodd" d="M181.149 301.508C176.999 301.343 172.901 300.713 168.817 299.99C168.068 299.858 167.701 300.995 168.456 301.129C172.645 301.871 176.847 302.533 181.104 302.701C181.873 302.732 181.918 301.538 181.149 301.508Z" fill="white"/>
<path fill-rule="evenodd" clip-rule="evenodd" d="M183.3 301.75C182.53 301.75 182.53 302.944 183.3 302.944C184.07 302.944 184.07 301.75 183.3 301.75Z" fill="white"/>
<path fill-rule="evenodd" clip-rule="evenodd" d="M166.7 299.779C165.93 299.779 165.93 300.974 166.7 300.974C167.47 300.974 167.47 299.779 166.7 299.779Z" fill="white"/>
<path fill-rule="evenodd" clip-rule="evenodd" d="M211.345 340.682C210.56 342.576 209.836 344.494 209.116 346.414C208.846 347.137 210 347.446 210.268 346.731C210.987 344.811 211.711 342.893 212.496 340.999C212.792 340.288 211.636 339.981 211.345 340.682Z" fill="white"/>
<path fill-rule="evenodd" clip-rule="evenodd" d="M212.717 338.412C211.947 338.412 211.947 339.607 212.717 339.607C213.487 339.606 213.487 338.412 212.717 338.412Z" fill="white"/>
<path fill-rule="evenodd" clip-rule="evenodd" d="M208.816 348.284C208.046 348.284 208.046 349.478 208.816 349.478C209.586 349.479 209.586 348.284 208.816 348.284Z" fill="white"/>
<path fill-rule="evenodd" clip-rule="evenodd" d="M186.345 287.3C185.575 287.298 185.575 288.492 186.345 288.494C186.688 288.495 187.028 288.503 187.363 288.587C187.693 288.67 187.8 288.814 187.778 289.151C187.728 289.92 188.922 289.915 188.972 289.151C189.073 287.623 187.55 287.303 186.345 287.3Z" fill="white"/>
<path fill-rule="evenodd" clip-rule="evenodd" d="M209.456 287.475C208.324 286.595 205.752 286.277 205.414 288.156C205.278 288.909 206.429 289.231 206.566 288.473C206.716 287.638 208.125 287.94 208.612 288.319C209.213 288.785 210.065 287.947 209.456 287.475Z" fill="white"/>
<defs>
<clipPath id="clip0_1_3562">
<rect width="10.0468" height="10.0468" fill="white" transform="translate(92.8416 116.158)"/>
</clipPath>
</defs>
</svg>
