<svg width="392" height="392" viewBox="0 0 392 392" fill="none" xmlns="http://www.w3.org/2000/svg">
<path d="M191.179 79.1348C260.904 110.502 197.607 166.418 237.871 196.859C278.135 227.3 387.58 192.111 345.854 271.178C296.829 364.053 82.207 351.161 35.9326 237.241C-10.3418 123.321 121.454 47.7677 191.179 79.1348Z" fill="#E3DFF1"/>
<path d="M196 350.279C293.217 350.279 372.028 344.682 372.028 337.778C372.028 330.873 293.217 325.276 196 325.276C98.7824 325.276 19.972 330.873 19.972 337.778C19.972 344.682 98.7824 350.279 196 350.279Z" fill="#F5F5F5"/>
<path d="M321.886 148.958H297.374C295.141 148.958 293.001 149.845 291.423 151.423C289.844 153.001 288.958 155.142 288.958 157.374V167.524C288.958 169.756 289.844 171.897 291.423 173.475C293.001 175.053 295.141 175.94 297.374 175.94H307.85L310.665 184.828L313.506 175.94H321.841C324.073 175.94 326.213 175.053 327.792 173.475C329.37 171.897 330.257 169.756 330.257 167.524V157.374C330.257 155.15 329.376 153.016 327.808 151.439C326.239 149.862 324.11 148.97 321.886 148.958Z" fill="#6348EC"/>
<path d="M300.115 161.831C300.115 162.167 300.016 162.495 299.829 162.775C299.643 163.054 299.378 163.271 299.067 163.4C298.757 163.528 298.416 163.562 298.087 163.497C297.757 163.431 297.455 163.269 297.217 163.032C296.98 162.794 296.818 162.492 296.753 162.163C296.687 161.833 296.721 161.492 296.849 161.182C296.978 160.872 297.195 160.606 297.475 160.42C297.754 160.233 298.082 160.134 298.418 160.134C298.641 160.134 298.861 160.178 299.067 160.263C299.273 160.348 299.461 160.473 299.618 160.631C299.776 160.789 299.901 160.976 299.986 161.182C300.072 161.388 300.115 161.608 300.115 161.831ZM305.908 160.134C305.572 160.134 305.244 160.233 304.964 160.42C304.685 160.606 304.468 160.872 304.339 161.182C304.211 161.492 304.177 161.833 304.243 162.163C304.308 162.492 304.47 162.794 304.707 163.032C304.945 163.269 305.247 163.431 305.576 163.497C305.906 163.562 306.247 163.528 306.557 163.4C306.868 163.271 307.133 163.054 307.319 162.775C307.506 162.495 307.605 162.167 307.605 161.831C307.596 161.387 307.413 160.965 307.095 160.654C306.778 160.344 306.352 160.17 305.908 160.17V160.134ZM313.398 160.134C313.062 160.134 312.734 160.233 312.454 160.42C312.175 160.606 311.958 160.872 311.829 161.182C311.701 161.492 311.667 161.833 311.733 162.163C311.798 162.492 311.96 162.794 312.197 163.032C312.435 163.269 312.737 163.431 313.066 163.497C313.396 163.562 313.737 163.528 314.047 163.4C314.358 163.271 314.623 163.054 314.809 162.775C314.996 162.495 315.095 162.167 315.095 161.831C315.086 161.387 314.903 160.965 314.585 160.654C314.268 160.344 313.842 160.17 313.398 160.17V160.134ZM320.888 160.134C320.552 160.134 320.224 160.233 319.944 160.42C319.665 160.606 319.448 160.872 319.319 161.182C319.191 161.492 319.157 161.833 319.223 162.163C319.288 162.492 319.45 162.794 319.687 163.032C319.925 163.269 320.227 163.431 320.556 163.497C320.886 163.562 321.227 163.528 321.537 163.4C321.848 163.271 322.113 163.054 322.299 162.775C322.486 162.495 322.585 162.167 322.585 161.831C322.576 161.387 322.393 160.965 322.075 160.654C321.758 160.344 321.332 160.17 320.888 160.17V160.134Z" fill="white"/>
<path d="M70.2592 178.918H45.792C44.6868 178.918 43.5924 179.135 42.5713 179.558C41.5502 179.981 40.6225 180.601 39.841 181.383C39.0595 182.164 38.4395 183.092 38.0166 184.113C37.5937 185.134 37.376 186.228 37.376 187.334V197.484C37.376 199.716 38.2627 201.856 39.841 203.435C41.4193 205.013 43.5599 205.9 45.792 205.9H56.2689L59.0833 214.779L61.9249 205.9H70.2592C72.4913 205.9 74.6319 205.013 76.2102 203.435C77.7885 201.856 78.6752 199.716 78.6752 197.484V187.334C78.6752 186.228 78.4575 185.134 78.0346 184.113C77.6116 183.092 76.9917 182.164 76.2102 181.383C75.4287 180.601 74.501 179.981 73.4799 179.558C72.4588 179.135 71.3644 178.918 70.2592 178.918Z" fill="#6348EC"/>
<path d="M48.4882 191.791C48.4882 192.127 48.3887 192.455 48.2021 192.735C48.0156 193.014 47.7504 193.231 47.4402 193.36C47.13 193.488 46.7886 193.522 46.4593 193.457C46.13 193.391 45.8275 193.229 45.59 192.992C45.3526 192.754 45.1909 192.452 45.1254 192.123C45.0599 191.793 45.0935 191.452 45.222 191.142C45.3505 190.832 45.5681 190.566 45.8473 190.38C46.1265 190.193 46.4547 190.094 46.7905 190.094C47.2408 190.094 47.6726 190.273 47.991 190.591C48.3094 190.909 48.4882 191.341 48.4882 191.791ZM54.2805 190.094C53.9447 190.094 53.6165 190.193 53.3373 190.38C53.0581 190.566 52.8405 190.832 52.712 191.142C52.5835 191.452 52.5499 191.793 52.6154 192.123C52.6809 192.452 52.8426 192.754 53.08 192.992C53.3174 193.229 53.6199 193.391 53.9493 193.457C54.2786 193.522 54.6199 193.488 54.9302 193.36C55.2404 193.231 55.5055 193.014 55.6921 192.735C55.8786 192.455 55.9782 192.127 55.9782 191.791C55.971 191.347 55.7887 190.923 55.4708 190.612C55.153 190.301 54.7252 190.128 54.2805 190.13V190.094ZM61.7704 190.094C61.4339 190.09 61.1039 190.187 60.8223 190.371C60.5408 190.555 60.3203 190.819 60.1891 191.129C60.0578 191.439 60.0216 191.781 60.085 192.111C60.1484 192.442 60.3087 192.746 60.5454 192.985C60.7821 193.225 61.0845 193.388 61.4143 193.455C61.7441 193.522 62.0864 193.49 62.3977 193.362C62.709 193.234 62.9752 193.016 63.1626 192.736C63.3499 192.457 63.45 192.128 63.45 191.791C63.4429 191.35 63.2631 190.929 62.9491 190.618C62.6352 190.308 62.212 190.132 61.7704 190.13V190.094ZM69.2604 190.094C68.9246 190.094 68.5964 190.193 68.3172 190.38C68.038 190.566 67.8204 190.832 67.6919 191.142C67.5634 191.452 67.5298 191.793 67.5953 192.123C67.6608 192.452 67.8225 192.754 68.0599 192.992C68.2974 193.229 68.5999 193.391 68.9292 193.457C69.2585 193.522 69.5999 193.488 69.9101 193.36C70.2203 193.231 70.4855 193.014 70.672 192.735C70.8586 192.455 70.9581 192.127 70.9581 191.791C70.951 191.347 70.7687 190.923 70.4508 190.612C70.1329 190.301 69.7052 190.128 69.2604 190.13V190.094Z" fill="white"/>
<path d="M343.983 339.049H228.756C207.23 339.049 205.85 313.701 223.545 301.771C226.78 299.62 230.361 298.042 234.131 297.105C269.166 287.89 318.39 225.946 353.062 251.865L353.162 251.938C387.698 278.04 363.557 339.049 343.983 339.049Z" fill="#263238"/>
<path opacity="0.5" d="M343.983 339.049H228.756C207.23 339.049 205.85 313.701 223.545 301.771C226.78 299.62 230.361 298.042 234.131 297.105C269.166 287.89 318.39 225.946 353.062 251.865L353.162 251.938C387.698 278.04 363.557 339.049 343.983 339.049Z" fill="white"/>
<path opacity="0.2" d="M352.972 251.82C350.066 251.629 346.544 252.446 342.749 255.624C332.898 263.886 347.878 303.66 324.319 320.201C311.173 329.434 254.458 333.502 235.529 322.18C221.557 313.819 221.375 308.562 223.545 301.771C226.78 299.62 230.361 298.042 234.131 297.105C269.12 287.845 318.345 225.9 352.972 251.82Z" fill="#010101"/>
<path d="M263.382 244.321L256.51 239.482L261.648 234.225C261.648 234.225 266.923 236.949 266.424 241.806L263.382 244.321Z" fill="#E4897B"/>
<path d="M253.813 234.144L258.58 231.148L261.648 234.225L256.51 239.482L253.813 234.144Z" fill="#E4897B"/>
<path d="M297.192 231.82C290.682 233.735 287.477 245.184 282.103 255.996L266.46 240.454L261.485 244.866C261.485 244.866 275.811 267.626 282.575 267.626C291.018 267.626 299.779 244.176 299.779 244.176L297.192 231.82Z" fill="#263238"/>
<path opacity="0.1" d="M299.779 244.176C299.779 244.176 298.39 247.889 296.148 252.347C294.014 256.686 291.109 261.743 287.977 264.803C286.206 266.519 284.345 267.608 282.529 267.608C275.766 267.608 261.439 244.848 261.439 244.848L266.415 240.435L282.057 255.978C287.432 245.165 290.628 233.717 297.155 231.801L299.779 244.176Z" fill="white"/>
<path opacity="0.2" d="M296.184 252.365C294.05 256.704 291.145 261.761 288.013 264.821C288.349 254.444 293.46 244.321 293.46 244.321C294.869 246.805 295.794 249.535 296.184 252.365Z" fill="#010101"/>
<path d="M290.963 295.062C290.963 295.062 235.719 287.127 232.796 299.247C229.718 312.067 274.077 320.71 300.587 321.618C327.097 322.525 334.705 316.17 330.447 283.487H294.132L290.963 295.062Z" fill="#6348EC"/>
<path opacity="0.6" d="M290.963 295.062C290.963 295.062 235.719 287.127 232.796 299.247C229.718 312.067 274.077 320.71 300.587 321.618C327.097 322.525 334.705 316.17 330.447 283.487H294.132L290.963 295.062Z" fill="white"/>
<path d="M260.195 320.337L248.62 320.347L243.064 320.356L242.401 314.5L247.54 313.81L260.096 312.139L260.195 320.337Z" fill="#E4897B"/>
<path d="M243.654 313.764L245.061 320.446C245.081 320.534 245.083 320.625 245.066 320.714C245.05 320.802 245.015 320.886 244.965 320.961C244.915 321.036 244.85 321.099 244.775 321.148C244.699 321.197 244.614 321.23 244.526 321.245L241.194 321.844C241.194 321.844 236.772 322.97 235.529 322.18C231.897 319.856 228.411 305.167 229.891 304.077C230.426 303.678 231.361 304.286 231.834 304.767C233.322 306.283 236.491 310.523 237.753 311.776C239.215 313.247 241.82 313.292 242.964 313.229C243.124 313.221 243.282 313.271 243.408 313.369C243.535 313.467 243.622 313.608 243.654 313.764Z" fill="#263238"/>
<path opacity="0.2" d="M260.196 320.337L248.62 320.347L247.54 313.81L260.096 312.139L260.196 320.337Z" fill="#010101"/>
<path d="M277.118 310.006L288.104 313.665L293.379 315.417L292.153 321.173L287.06 320.201L274.622 317.823L277.118 310.006Z" fill="#E4897B"/>
<path d="M290.737 321.472L291.508 314.69C291.52 314.602 291.548 314.516 291.593 314.438C291.637 314.36 291.696 314.292 291.767 314.237C291.838 314.182 291.919 314.142 292.005 314.119C292.092 314.095 292.182 314.089 292.271 314.1L295.621 314.591C295.621 314.591 300.16 314.917 301.068 316.061C303.792 319.411 302.448 334.455 300.705 335.018C300.06 335.227 299.37 334.355 299.071 333.756C298.163 331.84 296.474 326.811 295.675 325.231C294.768 323.37 292.289 322.507 291.191 322.199C291.041 322.151 290.914 322.052 290.83 321.919C290.747 321.786 290.714 321.627 290.737 321.472Z" fill="#263238"/>
<path opacity="0.2" d="M277.118 310.006L288.104 313.665L287.06 320.201L274.622 317.823L277.118 310.006Z" fill="#010101"/>
<path d="M285.153 321.218L282.021 321.518L283.891 310.678L287.486 312.575L285.153 321.218Z" fill="#6348EC"/>
<path opacity="0.6" d="M285.153 321.218L282.021 321.518L283.891 310.678L287.486 312.575L285.153 321.218Z" fill="white"/>
<path d="M295.639 325.149C295.72 325.64 295.647 326.145 295.43 326.593C295.342 326.727 295.22 326.835 295.077 326.907C294.933 326.979 294.773 327.011 294.613 327.001C294.516 327.005 294.42 326.984 294.334 326.94C294.248 326.895 294.175 326.829 294.123 326.747C293.651 325.948 294.758 323.488 294.894 323.215C294.903 323.185 294.923 323.159 294.949 323.142C294.976 323.125 295.009 323.119 295.04 323.125C295.074 323.128 295.107 323.142 295.133 323.164C295.159 323.187 295.177 323.218 295.185 323.252C295.4 323.867 295.552 324.503 295.639 325.149ZM294.332 326.329C294.338 326.41 294.363 326.487 294.404 326.556C294.421 326.591 294.449 326.62 294.483 326.638C294.517 326.656 294.557 326.662 294.595 326.656C294.705 326.669 294.816 326.651 294.916 326.602C295.016 326.554 295.1 326.478 295.158 326.384C295.422 325.521 295.374 324.592 295.022 323.76C294.639 324.568 294.405 325.439 294.332 326.329Z" fill="#6348EC"/>
<path d="M295.212 323.27V323.342C294.913 324.132 293.551 325.694 292.779 325.585C292.653 325.563 292.538 325.499 292.452 325.403C292.366 325.308 292.315 325.186 292.307 325.058C292.272 324.931 292.266 324.798 292.288 324.668C292.31 324.537 292.36 324.414 292.434 324.305C292.997 323.397 294.949 323.106 295.058 323.115C295.088 323.11 295.119 323.114 295.147 323.127C295.175 323.14 295.198 323.161 295.212 323.188C295.219 323.215 295.219 323.243 295.212 323.27ZM292.598 324.931V325.004C292.652 325.231 292.743 325.24 292.788 325.258C293.242 325.322 294.286 324.305 294.74 323.524C293.966 323.618 293.244 323.966 292.688 324.514C292.611 324.638 292.576 324.785 292.589 324.931H292.598Z" fill="#6348EC"/>
<path d="M249.673 312.965C249.673 312.965 301.068 292.992 316.811 296.333C332.553 299.674 332.626 307.909 324.646 315.589C316.665 323.27 304.745 320.31 304.745 320.31C304.745 320.31 314.114 314.7 313.461 311.231C312.807 307.763 306.851 315.689 306.851 315.689C306.851 315.689 275.793 323.288 250.145 321.282L249.673 312.965Z" fill="#6348EC"/>
<path d="M238.107 311.885C237.809 311.49 237.643 311.01 237.635 310.514C237.649 310.355 237.706 310.202 237.798 310.071C237.891 309.94 238.016 309.836 238.162 309.77C238.246 309.723 238.342 309.698 238.438 309.698C238.535 309.698 238.631 309.723 238.715 309.77C239.496 310.269 239.623 312.965 239.623 313.274C239.627 313.305 239.62 313.336 239.604 313.363C239.587 313.389 239.562 313.409 239.532 313.419C239.504 313.438 239.471 313.448 239.437 313.448C239.403 313.448 239.37 313.438 239.342 313.419C238.878 312.952 238.464 312.438 238.107 311.885ZM238.724 310.233C238.678 310.167 238.62 310.112 238.552 310.069C238.521 310.048 238.485 310.036 238.448 310.036C238.41 310.036 238.374 310.048 238.343 310.069C238.238 310.107 238.147 310.175 238.079 310.263C238.012 310.352 237.971 310.458 237.962 310.569C238.124 311.457 238.597 312.258 239.296 312.829C239.261 311.937 239.068 311.058 238.724 310.233Z" fill="#6348EC"/>
<path d="M239.342 313.356V313.274C239.251 312.439 239.732 310.423 240.477 310.16C240.6 310.122 240.732 310.126 240.852 310.172C240.972 310.218 241.074 310.303 241.139 310.414C241.31 310.616 241.395 310.877 241.375 311.141C241.285 312.203 239.687 313.356 239.56 313.41C239.534 313.427 239.504 313.437 239.473 313.437C239.443 313.437 239.413 313.427 239.387 313.41C239.368 313.396 239.352 313.377 239.342 313.356ZM240.903 310.678V310.614C240.758 310.442 240.667 310.478 240.622 310.487C240.186 310.632 239.714 312.012 239.714 312.92C240.159 312.548 241.021 311.767 241.076 311.104C241.085 310.957 241.047 310.811 240.967 310.687L240.903 310.678Z" fill="#6348EC"/>
<path opacity="0.7" d="M249.673 312.965C249.673 312.965 301.068 292.992 316.811 296.333C332.553 299.674 332.626 307.909 324.646 315.589C316.665 323.27 304.745 320.31 304.745 320.31C304.745 320.31 314.114 314.7 313.461 311.231C312.807 307.763 306.851 315.689 306.851 315.689C306.851 315.689 275.793 323.288 250.145 321.282L249.673 312.965Z" fill="white"/>
<path d="M249.047 312.811L251.934 311.486L253.595 322.298L249.583 321.645L249.047 312.811Z" fill="#6348EC"/>
<path opacity="0.6" d="M249.047 312.811L251.934 311.486L253.595 322.298L249.583 321.645L249.047 312.811Z" fill="white"/>
<path d="M334.097 233.554C328.549 264.421 330.565 284.395 330.565 284.395C330.565 284.395 304.754 284.04 294.15 283.441C288.494 246.028 297.191 231.81 297.191 231.81C299.964 231.255 302.769 230.87 305.589 230.657C306.179 230.612 306.788 230.585 307.405 230.558C312.407 230.554 317.406 230.836 322.376 231.402C323.284 231.502 324.273 231.629 325.199 231.765C329.929 232.482 334.097 233.554 334.097 233.554Z" fill="#263238"/>
<path opacity="0.1" d="M334.097 233.554C333.407 237.385 332.835 241.053 332.362 244.521C331.618 249.968 331.119 255.016 330.792 259.501C330.692 260.853 330.601 262.17 330.538 263.423C330.274 268.016 330.202 271.948 330.211 275.125C330.211 281.099 330.565 284.395 330.565 284.395C330.565 284.395 304.754 284.04 294.15 283.441C288.485 246.028 297.2 231.81 297.2 231.81C299.97 231.254 302.772 230.869 305.589 230.657C306.179 230.612 306.788 230.585 307.405 230.558C312.407 230.55 317.406 230.832 322.376 231.402C323.284 231.502 324.273 231.629 325.199 231.765C329.929 232.473 334.097 233.554 334.097 233.554Z" fill="white"/>
<path opacity="0.2" d="M311.046 267.626C317.66 266.84 324.186 265.436 330.538 263.432C330.275 268.026 330.202 271.957 330.211 275.134C317.891 276.269 312.862 273.9 312.862 273.9L311.046 267.626Z" fill="#010101"/>
<path opacity="0.2" d="M332.363 244.53C331.618 249.977 331.119 255.025 330.792 259.51C327.26 252.319 329.884 243.694 329.884 243.694L332.363 244.53Z" fill="#010101"/>
<path d="M312.444 280.3H293.669C293.304 280.294 292.955 280.152 292.689 279.902C292.424 279.652 292.262 279.311 292.235 278.947L289.62 254.026C289.602 253.859 289.62 253.69 289.672 253.53C289.724 253.37 289.81 253.223 289.923 253.098C290.036 252.974 290.175 252.875 290.329 252.808C290.483 252.741 290.65 252.707 290.818 252.71H309.593C309.951 252.717 310.293 252.855 310.556 253.097C310.818 253.34 310.983 253.67 311.018 254.026L313.642 278.947C313.666 279.117 313.652 279.291 313.603 279.455C313.553 279.619 313.468 279.771 313.354 279.9C313.241 280.028 313.1 280.13 312.943 280.2C312.786 280.269 312.616 280.303 312.444 280.3Z" fill="#263238"/>
<path opacity="0.6" d="M312.444 280.3H293.669C293.304 280.294 292.955 280.152 292.689 279.902C292.424 279.652 292.262 279.311 292.235 278.947L289.62 254.026C289.602 253.859 289.62 253.69 289.672 253.53C289.724 253.37 289.81 253.223 289.923 253.098C290.036 252.974 290.175 252.875 290.329 252.808C290.483 252.741 290.65 252.707 290.818 252.71H309.593C309.951 252.717 310.293 252.855 310.556 253.097C310.818 253.34 310.983 253.67 311.018 254.026L313.642 278.947C313.666 279.117 313.652 279.291 313.603 279.455C313.553 279.619 313.468 279.771 313.354 279.9C313.241 280.028 313.1 280.13 312.943 280.2C312.786 280.269 312.616 280.303 312.444 280.3Z" fill="white"/>
<path opacity="0.2" d="M311.663 280.3H293.669C293.304 280.294 292.955 280.152 292.689 279.902C292.424 279.652 292.262 279.311 292.235 278.947L289.62 254.026C289.602 253.859 289.62 253.69 289.672 253.53C289.724 253.37 289.81 253.223 289.923 253.098C290.036 252.974 290.175 252.875 290.329 252.808C290.483 252.741 290.65 252.707 290.818 252.71H308.812C309.17 252.717 309.512 252.855 309.775 253.097C310.038 253.34 310.202 253.67 310.238 254.026L312.861 278.947C312.885 279.117 312.872 279.291 312.822 279.455C312.772 279.619 312.688 279.771 312.574 279.9C312.46 280.028 312.319 280.13 312.162 280.2C312.005 280.269 311.835 280.303 311.663 280.3Z" fill="white"/>
<path d="M300.714 264.485C300.455 264.483 300.199 264.536 299.962 264.641C299.726 264.746 299.515 264.901 299.343 265.094C299.171 265.288 299.042 265.516 298.965 265.763C298.889 266.01 298.866 266.271 298.898 266.528C298.952 267.079 299.206 267.59 299.613 267.966C300.02 268.341 300.551 268.553 301.104 268.561C301.362 268.563 301.618 268.51 301.854 268.405C302.089 268.301 302.3 268.147 302.472 267.955C302.644 267.763 302.773 267.536 302.85 267.29C302.927 267.043 302.951 266.784 302.92 266.528C302.366 266.517 301.835 266.303 301.428 265.926C301.022 265.55 300.767 265.037 300.714 264.485Z" fill="#263238"/>
<path opacity="0.3" d="M304.781 254.725H294.858C294.615 254.722 294.376 254.65 294.171 254.519C293.966 254.387 293.801 254.201 293.696 253.981L293.106 252.746H306.198L305.853 253.981C305.785 254.208 305.642 254.406 305.448 254.541C305.253 254.676 305.018 254.741 304.781 254.725Z" fill="#010101"/>
<path d="M310.61 266.827L306.27 266.473L306.452 272.247L310.083 274.154L318.454 273.391L319.135 269.496C316.384 265.465 310.61 266.827 310.61 266.827Z" fill="#E4897B"/>
<path d="M334.097 233.554C338.554 234.897 344.873 260.79 343.865 266.51C342.858 272.229 331.863 274.68 317.891 274.363V267.608L334.097 262.878L331.373 252.891C331.373 252.891 329.122 245.547 330.129 240.408C330.683 237.757 332.073 235.354 334.097 233.554Z" fill="#263238"/>
<path opacity="0.1" d="M334.097 233.554C338.554 234.897 344.873 260.79 343.865 266.51C342.858 272.229 331.863 274.68 317.891 274.363V267.608L334.097 262.878L331.373 252.891C331.373 252.891 329.122 245.547 330.129 240.408C330.683 237.757 332.073 235.354 334.097 233.554Z" fill="white"/>
<path d="M320.215 231.111C317.955 233.472 314.405 235.451 308.712 235.242C304.345 235.07 303.737 232.328 304.5 230.821C307.151 230.276 308.349 229.123 308.721 227.652C309.094 226.182 308.576 224.202 307.814 222.369L315.176 216.168L316.42 215.115C316.42 215.469 316.375 215.841 316.357 216.231C316.271 217.671 316.271 219.114 316.357 220.553C316.602 224.611 317.564 229.014 320.215 231.111Z" fill="#E4897B"/>
<path opacity="0.2" d="M316.366 220.553C314.995 223.358 312.589 226.744 308.722 227.652C309.121 226.091 308.576 224.202 307.814 222.368L315.177 216.168C315.567 216.168 315.966 216.168 316.357 216.231C316.274 217.671 316.277 219.114 316.366 220.553Z" fill="#010101"/>
<path d="M299.497 203.839C298.417 206.308 298.281 211.61 302.039 210.294C305.798 208.978 301.313 199.599 299.497 203.839Z" fill="#263238"/>
<path d="M317.501 209.313C317.174 215.923 317.328 219.817 314.024 223.222C309.048 228.342 300.841 225.328 299.171 218.737C297.682 212.79 298.463 202.976 304.908 200.325C306.338 199.74 307.893 199.526 309.428 199.704C310.963 199.882 312.427 200.447 313.685 201.344C314.943 202.242 315.952 203.444 316.619 204.837C317.287 206.231 317.59 207.771 317.501 209.313Z" fill="#E4897B"/>
<path d="M307.478 211.184C307.478 211.719 307.205 212.164 306.851 212.164C306.497 212.164 306.207 211.728 306.198 211.184C306.189 210.639 306.479 210.212 306.824 210.212C307.169 210.212 307.469 210.648 307.478 211.184Z" fill="#263238"/>
<path d="M301.377 211.202C301.377 211.737 301.104 212.173 300.75 212.173C300.396 212.173 300.106 211.737 300.106 211.202C300.106 210.666 300.378 210.23 300.732 210.23C301.086 210.23 301.377 210.657 301.377 211.202Z" fill="#263238"/>
<path d="M303.32 211.465C302.678 213.06 301.816 214.557 300.76 215.914C301.134 216.16 301.556 216.325 301.999 216.399C302.441 216.472 302.894 216.452 303.329 216.34L303.32 211.465Z" fill="#DE5753"/>
<path d="M309.33 209.214C309.275 209.222 309.22 209.215 309.169 209.194C309.117 209.173 309.073 209.139 309.039 209.096C308.805 208.773 308.497 208.51 308.143 208.327C307.788 208.144 307.396 208.047 306.997 208.042C306.913 208.048 306.83 208.02 306.766 207.966C306.702 207.912 306.661 207.835 306.652 207.752C306.648 207.71 306.652 207.668 306.665 207.628C306.678 207.588 306.698 207.551 306.725 207.519C306.752 207.487 306.785 207.46 306.822 207.441C306.86 207.422 306.9 207.41 306.942 207.407C307.447 207.404 307.945 207.52 308.396 207.745C308.847 207.971 309.239 208.3 309.539 208.705C309.59 208.771 309.613 208.855 309.603 208.939C309.593 209.022 309.55 209.098 309.484 209.15C309.439 209.184 309.386 209.206 309.33 209.214Z" fill="#263238"/>
<path d="M298.726 209.114C298.667 209.131 298.604 209.131 298.544 209.114C298.507 209.095 298.473 209.07 298.445 209.038C298.418 209.007 298.396 208.97 298.383 208.93C298.369 208.891 298.364 208.849 298.367 208.807C298.369 208.765 298.38 208.724 298.399 208.687C298.6 208.225 298.91 207.819 299.302 207.503C299.694 207.186 300.157 206.97 300.651 206.871C300.692 206.866 300.735 206.869 300.775 206.881C300.816 206.892 300.853 206.912 300.886 206.938C300.919 206.964 300.947 206.996 300.967 207.033C300.987 207.07 301 207.111 301.005 207.153C301.011 207.193 301.009 207.235 300.999 207.275C300.99 207.314 300.972 207.352 300.947 207.385C300.923 207.418 300.892 207.446 300.857 207.467C300.821 207.487 300.782 207.501 300.741 207.507C300.352 207.58 299.986 207.748 299.677 207.997C299.368 208.246 299.126 208.567 298.971 208.932C298.947 208.979 298.913 209.021 298.87 209.052C298.828 209.084 298.778 209.105 298.726 209.114Z" fill="#263238"/>
<path d="M307.115 204.011C307.115 204.011 308.93 202.704 309.766 204.111C310.601 205.518 310.546 209.268 310.546 209.268L310.91 208.605C310.91 208.605 313.261 216.958 316.666 214.851C320.07 212.745 325.072 204.266 317.119 199.944C317.119 199.944 316.275 197.929 311.019 196.93C305.762 195.931 299.407 199.181 298.308 202.659C297.21 206.136 298.744 208.106 298.744 208.106C298.913 207.349 299.258 206.643 299.752 206.045C299.822 206.399 299.979 206.731 300.209 207.009C300.439 207.288 300.734 207.506 301.068 207.643C301.015 206.932 301.163 206.221 301.495 205.591C301.669 206.209 301.979 206.78 302.403 207.262C302.784 203.684 305.217 202.958 305.98 202.985C306.253 203.016 306.509 203.131 306.713 203.315C306.917 203.499 307.057 203.743 307.115 204.011Z" fill="#263238"/>
<path d="M320.124 214.788C319.881 215.574 319.485 216.305 318.959 216.938C318.432 217.57 317.785 218.092 317.056 218.474C315.095 219.482 313.66 217.82 313.824 215.75C313.969 213.871 315.158 211.084 317.31 210.947C317.781 210.926 318.249 211.022 318.674 211.225C319.099 211.429 319.467 211.734 319.746 212.114C320.024 212.494 320.204 212.937 320.271 213.403C320.337 213.87 320.286 214.345 320.124 214.788Z" fill="#E4897B"/>
<path d="M303.538 218.556C304.104 219.149 304.626 219.783 305.099 220.453L305.49 220.262C307.242 219.354 307.768 218.383 307.814 217.539C307.825 217.132 307.741 216.727 307.569 216.359C307.476 216.148 307.354 215.953 307.205 215.777C306.369 216.808 305.319 217.644 304.128 218.229C303.774 218.447 303.538 218.556 303.538 218.556Z" fill="#263238"/>
<path d="M304.128 218.247L304.609 218.792C306.252 217.956 307.332 217.139 307.569 216.377C307.476 216.166 307.354 215.971 307.205 215.796C306.369 216.826 305.319 217.662 304.128 218.247Z" fill="white"/>
<path d="M305.49 220.262C307.242 219.354 307.768 218.383 307.814 217.539C307.154 217.889 306.56 218.353 306.061 218.91C305.732 219.288 305.532 219.762 305.49 220.262Z" fill="#A24E3F"/>
<path d="M145.531 240.072L146.003 245.111C146.003 245.111 175.491 249.596 180.212 254.19C184.933 258.783 201.683 331.441 201.683 331.441L194.929 332.349C194.929 332.349 171.487 278.784 170.234 271.031C170.234 271.031 149.589 271.802 135.499 271.802C121.409 271.802 119.729 240.027 119.729 240.027L145.531 240.072Z" fill="#6348EC"/>
<path opacity="0.3" d="M201.683 331.45L194.929 332.358C194.929 332.358 185.342 310.451 178.106 292.629C174.011 282.579 170.679 273.827 170.235 271.031C170.235 271.031 155.945 271.557 142.998 271.739C140.384 271.739 137.832 271.793 135.463 271.793C121.373 271.793 119.693 240.018 119.693 240.018H145.495L145.967 245.056C145.967 245.056 175.464 249.532 180.176 254.135C184.888 258.738 201.683 331.45 201.683 331.45Z" fill="white"/>
<path d="M206.894 337.959C202.355 337.959 201.747 337.887 199.187 337.796C196.999 337.723 196.463 337.996 194.72 337.959C193.249 337.959 193.303 336.516 193.757 334.9C193.984 334.083 194.329 332.367 194.665 331.059L201.329 330.569C202.237 332.385 204.38 334.918 206.94 335.263C209.5 335.608 208.71 337.959 206.894 337.959Z" fill="#263238"/>
<path opacity="0.2" d="M178.106 292.665C174.011 282.615 170.679 273.863 170.234 271.067C170.234 271.067 155.945 271.594 142.998 271.775L141.6 247.09C141.6 247.09 159.83 249.705 172.087 260.263C173.639 261.571 176.662 281.789 178.106 292.665Z" fill="#010101"/>
<path d="M171.751 276.523H118.994V273.282C118.994 272.201 119.424 271.164 120.188 270.4C120.953 269.635 121.989 269.206 123.07 269.206H167.674C168.755 269.206 169.792 269.635 170.557 270.4C171.321 271.164 171.751 272.201 171.751 273.282V276.523Z" fill="#263238"/>
<path opacity="0.2" d="M171.751 276.523H118.994V273.282C118.994 272.201 119.424 271.164 120.188 270.4C120.953 269.635 121.989 269.206 123.07 269.206H167.674C168.755 269.206 169.792 269.635 170.557 270.4C171.321 271.164 171.751 272.201 171.751 273.282V276.523Z" fill="white"/>
<path d="M169.917 323.96L149.58 322.189V295.48H142.435V322.18L122.026 323.996C121.158 324.082 120.354 324.487 119.768 325.133C119.182 325.779 118.858 326.62 118.858 327.491V330.215H173.094V327.491C173.103 326.612 172.781 325.761 172.193 325.107C171.604 324.453 170.792 324.044 169.917 323.96Z" fill="#263238"/>
<path d="M125.431 333.529C125.431 334.453 125.156 335.357 124.643 336.126C124.129 336.895 123.399 337.495 122.544 337.848C121.69 338.202 120.75 338.295 119.843 338.114C118.936 337.934 118.103 337.489 117.449 336.835C116.795 336.181 116.35 335.348 116.169 334.441C115.989 333.534 116.082 332.594 116.435 331.739C116.789 330.885 117.389 330.155 118.158 329.641C118.926 329.127 119.83 328.853 120.755 328.853C121.995 328.853 123.184 329.346 124.061 330.223C124.938 331.099 125.431 332.289 125.431 333.529Z" fill="#263238"/>
<path d="M171.179 338.204C173.761 338.204 175.854 336.111 175.854 333.529C175.854 330.947 173.761 328.853 171.179 328.853C168.597 328.853 166.503 330.947 166.503 333.529C166.503 336.111 168.597 338.204 171.179 338.204Z" fill="#263238"/>
<path d="M141.201 274.78H150.815V297.559C150.815 298.452 150.46 299.309 149.829 299.941C149.197 300.572 148.34 300.927 147.447 300.927H144.578C143.685 300.927 142.828 300.572 142.196 299.941C141.565 299.309 141.21 298.452 141.21 297.559V274.78H141.201Z" fill="#263238"/>
<path opacity="0.2" d="M141.201 274.78H150.815V297.559C150.815 298.452 150.46 299.309 149.829 299.941C149.197 300.572 148.34 300.927 147.447 300.927H144.578C143.685 300.927 142.828 300.572 142.196 299.941C141.565 299.309 141.21 298.452 141.21 297.559V274.78H141.201Z" fill="white"/>
<path d="M118.622 277.368H172.114C173.021 277.368 173.757 276.632 173.757 275.724V275.352C173.757 274.445 173.021 273.709 172.114 273.709H118.622C117.714 273.709 116.979 274.445 116.979 275.352V275.724C116.979 276.632 117.714 277.368 118.622 277.368Z" fill="#263238"/>
<path opacity="0.2" d="M125.431 333.529C125.431 334.453 125.156 335.357 124.643 336.126C124.129 336.895 123.399 337.495 122.544 337.848C121.69 338.202 120.75 338.295 119.843 338.114C118.936 337.934 118.103 337.489 117.449 336.835C116.795 336.181 116.35 335.348 116.169 334.441C115.989 333.534 116.082 332.594 116.435 331.739C116.789 330.885 117.389 330.155 118.158 329.641C118.926 329.127 119.83 328.853 120.755 328.853C121.995 328.853 123.184 329.346 124.061 330.223C124.938 331.099 125.431 332.289 125.431 333.529Z" fill="white"/>
<path opacity="0.2" d="M171.179 338.204C173.761 338.204 175.854 336.111 175.854 333.529C175.854 330.947 173.761 328.853 171.179 328.853C168.597 328.853 166.503 330.947 166.503 333.529C166.503 336.111 168.597 338.204 171.179 338.204Z" fill="white"/>
<path d="M176.235 231.611H159.939C155.164 231.611 151.714 227.317 152.24 222.033L152.93 214.969C153.457 209.677 157.742 205.382 162.517 205.382H178.814C183.589 205.382 187.039 209.677 186.522 214.969L185.823 222.033C185.305 227.317 181.011 231.611 176.235 231.611Z" fill="#263238"/>
<path opacity="0.2" d="M176.235 231.611H159.939C155.164 231.611 151.714 227.317 152.24 222.033L152.93 214.969C153.457 209.677 157.742 205.382 162.517 205.382H178.814C183.589 205.382 187.039 209.677 186.522 214.969L185.823 222.033C185.305 227.317 181.011 231.611 176.235 231.611Z" fill="white"/>
<path d="M174.737 228.17H165.132C162.309 228.17 160.266 225.637 160.593 222.505L161.01 218.338C161.31 215.205 163.852 212.673 166.675 212.673H176.299C179.122 212.673 181.165 215.205 180.838 218.338L180.421 222.505C180.094 225.637 177.561 228.17 174.737 228.17Z" fill="#263238"/>
<path d="M167.093 221.942C167.093 221.942 164.896 266.11 155.382 273.691H165.559C165.559 273.691 174.638 258.647 175.3 221.942H167.093Z" fill="#263238"/>
<path d="M175.282 203.539L177.035 202.631C177.363 202.463 177.727 202.376 178.097 202.376C178.466 202.376 178.83 202.463 179.159 202.631L182.3 204.175C182.919 204.479 183.455 204.927 183.864 205.482C184.273 206.036 184.543 206.681 184.652 207.361L184.797 208.224C181.992 209.985 177.67 209.822 177.67 209.822L176.426 209.922C176.173 209.948 175.916 209.924 175.672 209.85C175.428 209.776 175.201 209.655 175.004 209.493C174.807 209.33 174.645 209.131 174.526 208.905C174.407 208.68 174.334 208.433 174.311 208.179L174.093 205.727C174.052 205.286 174.143 204.842 174.354 204.452C174.566 204.062 174.889 203.745 175.282 203.539Z" fill="#B97964"/>
<path opacity="0.2" d="M175.282 203.539L177.035 202.631C177.363 202.463 177.727 202.376 178.097 202.376C178.466 202.376 178.83 202.463 179.159 202.631L182.3 204.175C182.919 204.479 183.455 204.927 183.864 205.482C184.273 206.036 184.543 206.681 184.652 207.361L184.797 208.224C181.992 209.985 177.67 209.822 177.67 209.822L176.426 209.922C176.173 209.948 175.916 209.924 175.672 209.85C175.428 209.776 175.201 209.655 175.004 209.493C174.807 209.33 174.645 209.131 174.526 208.905C174.407 208.68 174.334 208.433 174.311 208.179L174.093 205.727C174.052 205.286 174.143 204.842 174.354 204.452C174.566 204.062 174.889 203.745 175.282 203.539Z" fill="#010101"/>
<path d="M162.409 205.7L156.054 213.735H150.007L150.797 202.522C155.373 203.403 162.409 205.7 162.409 205.7Z" fill="#6348EC"/>
<path opacity="0.2" d="M155.518 213.735H150.288L153.539 205.7C153.539 205.7 155.4 208.524 155.518 213.735Z" fill="#010101"/>
<path d="M145.922 243.105L119.312 240.635C120.147 237.803 120.882 235.024 121.5 232.346C122.281 229.069 122.898 225.928 123.388 222.995C123.878 220.063 124.296 217.339 124.587 214.87L124.668 214.171C124.668 213.78 124.759 213.399 124.795 213.036C125.059 210.648 125.222 208.569 125.331 206.853C125.558 203.503 125.558 201.569 125.558 201.569C134.675 199.823 144.084 200.382 152.93 203.194C156.889 214.343 145.922 243.105 145.922 243.105Z" fill="#6348EC"/>
<path d="M145.831 204.974C145.427 205.811 144.809 206.527 144.039 207.049C143.27 207.571 142.376 207.881 141.449 207.948C140.521 208.014 139.593 207.834 138.757 207.427C137.921 207.02 137.208 206.399 136.688 205.627L135.535 203.912L134.119 201.778C136.498 200.371 137.433 195.868 137.751 192C137.851 190.784 137.887 189.64 137.887 188.668L143.861 196.839C143.443 197.704 143.138 198.62 142.953 199.563C142.877 199.951 142.847 200.347 142.862 200.743C142.871 202.332 143.661 203.803 145.831 204.974Z" fill="#B97964"/>
<path opacity="0.2" d="M143.842 196.885C143.425 197.75 143.119 198.665 142.935 199.608C141.364 201.624 138.922 203.757 135.554 203.893L134.119 201.778C136.498 200.371 137.433 195.868 137.751 192C137.851 190.784 137.887 189.64 137.887 188.668L143.842 196.885Z" fill="#010101"/>
<path d="M129.489 183.239C129.489 183.239 126.538 182.132 127.41 180.089C128.282 178.046 129.335 178.064 129.335 178.064C128.889 177.229 128.646 176.3 128.628 175.354C128.609 174.407 128.814 173.469 129.226 172.617C130.687 169.893 133.92 171.001 133.92 171.001C133.932 170.145 134.236 169.32 134.78 168.66C135.325 168 136.078 167.545 136.915 167.369C137.77 167.228 138.648 167.37 139.415 167.773C140.182 168.176 140.796 168.819 141.164 169.603C141.164 169.603 143.198 166.961 146.176 167.687C149.154 168.414 149.753 172.563 149.753 172.563C150.566 172.297 151.45 172.356 152.222 172.726C152.993 173.097 153.591 173.75 153.893 174.551C154.298 175.386 154.467 176.317 154.382 177.241C154.297 178.166 153.962 179.05 153.412 179.798C153.412 179.798 155.309 178.89 155.935 181.95C156.562 185.01 153.366 187.697 153.366 187.697C153.366 187.697 155.091 187.906 154.201 190.166C153.312 192.427 150.506 192.463 150.506 192.463C150.506 192.463 151.596 193.017 149.535 194.878C147.474 196.739 140.838 194.079 140.838 194.079L129.489 183.239Z" fill="#263238"/>
<path d="M137.605 178.391C131.25 178.718 129.435 182.222 129.28 188.786C129.126 196.957 131.241 202.686 139.076 200.525C149.698 197.593 148.137 177.837 137.605 178.391Z" fill="#B97964"/>
<path d="M133.357 188.214C132.899 189.187 132.326 190.102 131.65 190.938C131.85 191.191 132.116 191.384 132.419 191.496C132.721 191.608 133.049 191.635 133.366 191.573L133.357 188.214Z" fill="#A24E3F"/>
<path d="M137.215 187.488C137.215 188.015 137.524 188.396 137.869 188.396C138.214 188.396 138.486 187.96 138.477 187.434C138.468 186.907 138.169 186.526 137.814 186.526C137.46 186.526 137.197 186.971 137.215 187.488Z" fill="#263238"/>
<path d="M137.96 186.553L136.816 186.135C136.816 186.135 137.406 187.079 137.96 186.553Z" fill="#263238"/>
<path d="M130.724 187.57C130.724 188.096 131.032 188.478 131.386 188.478C131.74 188.478 132.004 188.042 131.986 187.515C131.967 186.989 131.677 186.607 131.332 186.607C130.987 186.607 130.715 187.052 130.724 187.57Z" fill="#263238"/>
<path d="M131.477 186.625L130.324 186.217C130.324 186.217 130.923 187.152 131.477 186.625Z" fill="#263238"/>
<path d="M139.848 184.192C139.81 184.193 139.772 184.185 139.738 184.17C139.703 184.154 139.673 184.131 139.648 184.102C139.305 183.796 138.898 183.571 138.456 183.446C138.014 183.32 137.549 183.296 137.097 183.375C137.062 183.382 137.026 183.381 136.991 183.374C136.956 183.367 136.923 183.352 136.893 183.332C136.863 183.312 136.838 183.286 136.819 183.256C136.799 183.226 136.786 183.193 136.779 183.157C136.769 183.088 136.785 183.017 136.826 182.959C136.867 182.902 136.928 182.862 136.997 182.849C137.541 182.749 138.101 182.78 138.631 182.937C139.161 183.095 139.646 183.376 140.048 183.757C140.098 183.807 140.125 183.876 140.125 183.947C140.125 184.019 140.098 184.087 140.048 184.138C139.99 184.181 139.919 184.2 139.848 184.192Z" fill="#263238"/>
<path d="M129.925 184.002C129.883 184.002 129.843 183.993 129.805 183.975C129.767 183.958 129.734 183.933 129.707 183.902C129.663 183.844 129.645 183.772 129.655 183.7C129.665 183.629 129.703 183.564 129.761 183.521C130.134 183.208 130.572 182.982 131.044 182.861C131.515 182.74 132.008 182.727 132.485 182.822C132.52 182.832 132.552 182.849 132.58 182.872C132.608 182.895 132.631 182.924 132.648 182.956C132.665 182.988 132.676 183.023 132.679 183.059C132.682 183.096 132.678 183.132 132.666 183.167C132.644 183.233 132.596 183.288 132.533 183.32C132.471 183.353 132.398 183.359 132.331 183.339C131.932 183.267 131.522 183.285 131.13 183.392C130.739 183.499 130.377 183.692 130.07 183.956C130.027 183.985 129.976 184 129.925 184.002Z" fill="#263238"/>
<path d="M145.096 188.714C145.096 188.714 141.854 183.657 142.1 179.635C142.1 179.635 129.262 175.159 129.308 187.942C129.308 187.942 127.492 176.684 138.386 175.858C149.281 175.032 150.062 190.983 144.678 196.031C144.669 196.013 147.102 191.873 145.096 188.714Z" fill="#263238"/>
<path d="M144.133 190.112C144.141 189.745 144.222 189.383 144.37 189.048C144.518 188.712 144.731 188.409 144.997 188.156C145.263 187.903 145.576 187.705 145.918 187.573C146.261 187.441 146.626 187.379 146.993 187.388C148.972 187.506 150.116 191.492 145.277 192.717C144.587 192.908 144.151 192.245 144.133 190.112Z" fill="#B97964"/>
<path d="M134.891 195.268C134.71 195.281 134.528 195.281 134.346 195.268C134.311 195.262 134.278 195.249 134.248 195.229C134.218 195.21 134.192 195.184 134.172 195.155C134.151 195.125 134.137 195.092 134.13 195.057C134.122 195.022 134.122 194.986 134.128 194.951C134.134 194.916 134.146 194.883 134.165 194.853C134.183 194.823 134.208 194.797 134.237 194.777C134.265 194.756 134.298 194.742 134.332 194.734C134.367 194.727 134.402 194.726 134.437 194.733C135.121 194.853 135.825 194.739 136.436 194.41C137.048 194.08 137.53 193.554 137.805 192.917C137.818 192.884 137.838 192.853 137.863 192.827C137.888 192.802 137.917 192.781 137.95 192.767C137.983 192.752 138.019 192.745 138.054 192.744C138.09 192.743 138.126 192.75 138.159 192.763C138.193 192.776 138.223 192.795 138.249 192.82C138.275 192.845 138.296 192.875 138.31 192.908C138.324 192.941 138.332 192.976 138.333 193.012C138.333 193.048 138.327 193.083 138.314 193.117C138.035 193.785 137.557 194.351 136.944 194.736C136.331 195.121 135.614 195.307 134.891 195.268Z" fill="#263238"/>
<path d="M147.428 186.399C145.912 178.527 134.273 171.918 129.906 181.069C130.639 178.776 132.055 176.761 133.965 175.295C133.965 175.295 145.767 171.927 147.846 185.373L147.428 186.399Z" fill="#6348EC"/>
<path d="M141.228 337.959C136.688 337.959 136.08 337.887 133.52 337.796C131.332 337.723 130.796 337.996 129.053 337.959C127.582 337.959 127.637 336.516 128.091 334.9C128.318 334.083 128.663 332.367 128.999 331.059L135.663 330.569C136.57 332.385 138.713 334.918 141.273 335.263C143.833 335.608 143.035 337.959 141.228 337.959Z" fill="#263238"/>
<path d="M119.738 240.072C119.738 240.072 110.66 253.572 115.58 264.666C120.501 275.761 145.386 270.749 145.386 270.749L128.99 331.087L136.834 332.385C136.834 332.385 164.642 272.583 165.35 262.388C166.058 252.192 136.035 245.646 136.035 245.646L119.738 240.072Z" fill="#6348EC"/>
<path opacity="0.3" d="M119.738 240.072C119.738 240.072 110.66 253.572 115.58 264.666C120.501 275.761 145.386 270.749 145.386 270.749L128.99 331.087L136.834 332.385C136.834 332.385 164.642 272.583 165.35 262.388C166.058 252.192 136.035 245.646 136.035 245.646L119.738 240.072Z" fill="white"/>
<path opacity="0.2" d="M147.428 209.041C147.428 209.041 134.718 217.993 124.668 214.143C124.668 213.753 124.759 213.371 124.795 213.008C125.058 210.621 125.222 208.542 125.331 206.826C128.588 205.338 131.969 204.138 135.435 203.24C139.004 205.958 143.082 207.931 147.428 209.041Z" fill="#010101"/>
<path d="M129.725 201.587C135.317 204.311 141.092 207.697 147.183 208.941C150.688 208.714 154.61 207.289 158.132 206.326L168.691 203.131C169.143 202.988 169.632 203.02 170.063 203.218C170.493 203.417 170.834 203.769 171.019 204.206C171.204 204.643 171.219 205.132 171.063 205.58C170.906 206.027 170.588 206.4 170.171 206.626C166.875 208.442 163.552 210.112 160.112 211.638C155.863 213.381 151.941 215.414 147.147 215.85C145.427 215.83 143.717 215.58 142.063 215.106C136.482 213.468 131.108 211.193 126.048 208.324C125.243 207.797 124.665 206.987 124.428 206.055C124.192 205.122 124.314 204.135 124.77 203.288C125.227 202.441 125.985 201.796 126.894 201.481C127.803 201.166 128.797 201.204 129.68 201.587H129.725Z" fill="#B97864"/>
<path d="M126.72 200.58C121.827 201.742 121.663 210.139 126.157 214.08L137.052 204.883C137.052 204.883 132.521 199.2 126.72 200.58Z" fill="#6348EC"/>
<path d="M168.972 203.176L175.01 203.031L172.286 209.141C172.286 209.141 166.839 208.95 167.102 206.172L168.972 203.176Z" fill="#B97964"/>
<path d="M180.194 206.018L176.054 210.475L172.268 209.141L175.01 203.031L180.194 206.018Z" fill="#B97964"/>
<path d="M261.258 276.687C265.48 285.421 269.547 294.154 272.298 303.505C273.56 309.861 273.796 316.325 274.268 322.634C274.595 327.855 274.785 333.066 274.858 338.304L270.182 338.795C268.702 331.432 267.313 323.215 266.024 315.789C265.407 312.43 264.935 309.125 264.09 305.893C260.877 297.568 256.419 288.998 252.724 280.809L261.258 276.687Z" fill="#DC897C"/>
<path d="M268.23 288.117L260.831 291.658L256.237 293.882L253.45 287.182L250.536 280.164L252.996 267.372C260.55 270.677 268.23 288.117 268.23 288.117Z" fill="#6348EC"/>
<path opacity="0.2" d="M260.831 291.658L256.237 293.882L253.45 287.182C254.022 283.387 254.503 280.164 254.503 280.164C254.503 280.164 259.878 284.985 260.831 291.658Z" fill="#010101"/>
<path d="M238.67 244.176C238.752 244.721 239.106 245.084 239.46 245.084C239.814 245.084 240.032 244.548 239.95 244.003C239.868 243.459 239.505 243.095 239.151 243.095C238.797 243.095 238.534 243.64 238.67 244.176Z" fill="#263238"/>
<path d="M239.006 245.12C239.906 246.674 241.015 248.098 242.301 249.351C241.975 249.675 241.582 249.925 241.149 250.082C240.716 250.239 240.254 250.299 239.796 250.259L239.006 245.12Z" fill="#DE5753"/>
<path d="M236.173 241.479C236.092 241.477 236.015 241.444 235.955 241.389C235.897 241.328 235.864 241.246 235.864 241.162C235.864 241.077 235.897 240.996 235.955 240.935C236.311 240.57 236.749 240.297 237.233 240.139C237.717 239.981 238.232 239.942 238.734 240.027C238.775 240.035 238.814 240.052 238.849 240.076C238.884 240.1 238.913 240.131 238.936 240.166C238.959 240.202 238.974 240.241 238.982 240.283C238.989 240.324 238.988 240.367 238.979 240.408C238.97 240.449 238.953 240.489 238.929 240.523C238.905 240.558 238.875 240.588 238.839 240.611C238.804 240.633 238.764 240.649 238.723 240.656C238.681 240.664 238.639 240.663 238.597 240.653C238.198 240.596 237.791 240.636 237.411 240.769C237.03 240.901 236.687 241.123 236.409 241.416C236.376 241.442 236.338 241.46 236.298 241.471C236.257 241.482 236.215 241.485 236.173 241.479Z" fill="#263238"/>
<path d="M240.359 252.383C240.185 254.575 239.25 256.636 237.717 258.212C236.704 259.252 235.459 260.039 234.085 260.509C232.77 260.965 231.362 261.087 229.988 260.864C228.614 260.64 227.317 260.078 226.214 259.229C222.328 256.341 221.82 252.41 220.385 245.828C220.032 244.302 220.075 242.711 220.51 241.207C220.945 239.702 221.757 238.333 222.869 237.231C223.982 236.128 225.358 235.329 226.866 234.908C228.375 234.486 229.966 234.458 231.489 234.825C238.425 236.468 240.858 246.191 240.359 252.383Z" fill="#E4897B"/>
<path d="M222.882 256.568C225.606 258.284 235.901 253.463 234.203 245.356C234.203 245.356 238.262 240.917 238.062 235.805C237.862 230.694 234.43 228.542 230.69 229.505C227.367 230.313 227.376 232.119 227.376 232.119C227.376 232.119 211.797 233.218 214.811 239.673C208.184 246.264 219.532 254.435 222.882 256.568Z" fill="#263238"/>
<path d="M231.407 246.618C231.775 248.253 232.672 249.721 233.958 250.794C235.656 252.192 237.036 250.958 237.009 248.979C237.009 247.163 236.101 244.285 234.131 243.658C232.161 243.032 231.026 244.648 231.407 246.618Z" fill="#E4897B"/>
<path opacity="0.2" d="M239.887 254.671C239.433 255.997 238.692 257.206 237.717 258.212C236.704 259.252 235.459 260.039 234.085 260.508C233.162 260.041 232.276 259.504 231.434 258.902L232.814 255.515C232.814 255.515 237.045 257.585 239.887 254.671Z" fill="#010101"/>
<path d="M225.097 264.875L223.935 256.913C223.935 256.913 229.119 253.282 234.548 255.724L242.719 265.575L225.097 264.875Z" fill="#E4897B"/>
<path d="M243.663 264.594L241.766 261.752C241.766 261.752 228.003 256.659 222.001 263.187C222.001 263.187 235.429 270.286 243.663 264.594Z" fill="#6348EC"/>
<path opacity="0.2" d="M243.663 264.594L241.766 261.752C241.766 261.752 228.003 256.659 222.001 263.187C222.001 263.187 235.429 270.286 243.663 264.594Z" fill="#010101"/>
<path d="M190.816 341.791L185.632 338.45L187.62 335.481L193.022 327.419L198.215 330.76L192.241 339.666L190.816 341.791Z" fill="#E4897B"/>
<path d="M186.013 338.023L193.276 337.95C193.394 337.953 193.508 337.994 193.6 338.068C193.692 338.142 193.757 338.244 193.785 338.359L195.001 343.634C195.046 343.861 195.002 344.096 194.879 344.292C194.756 344.487 194.562 344.629 194.339 344.687H194.148C191.806 344.687 190.108 344.541 187.175 344.569C185.36 344.569 179.912 344.832 177.425 344.85C174.937 344.868 174.574 342.417 175.609 342.181C180.149 341.137 183.617 339.721 185.069 338.386C185.329 338.154 185.665 338.024 186.013 338.023Z" fill="#263238"/>
<path d="M187.411 333.474L196.908 336.035L248.457 296.923L222.011 291.131C220.122 290.727 218.154 290.908 216.37 291.649C214.587 292.39 213.071 293.657 212.024 295.28L187.411 333.474Z" fill="#263238"/>
<path opacity="0.2" d="M187.411 333.474L196.908 336.035L248.457 296.923L222.011 291.131C220.122 290.727 218.154 290.908 216.37 291.649C214.587 292.39 213.071 293.657 212.024 295.28L187.411 333.474Z" fill="#010101"/>
<path d="M159.231 341.981L153.875 338.922L155.708 335.853L160.674 327.519L166.031 330.578L160.538 339.784L159.231 341.981Z" fill="#E4897B"/>
<path d="M154.083 337.896H161.346C161.465 337.897 161.579 337.938 161.671 338.012C161.764 338.086 161.828 338.189 161.855 338.304L163.026 343.597C163.067 343.825 163.02 344.06 162.893 344.255C162.766 344.449 162.57 344.587 162.345 344.641H162.154C159.821 344.641 158.114 344.46 155.182 344.46C153.366 344.46 147.919 344.65 145.431 344.65C142.944 344.65 142.608 342.181 143.616 341.927C148.155 340.928 151.65 339.548 153.121 338.232C153.391 338.008 153.733 337.889 154.083 337.896Z" fill="#263238"/>
<path d="M260.895 317.459L224.852 317.55C223.944 314.355 222.8 303.233 219.278 289.479C218.325 285.747 217.19 281.825 215.855 277.803C214.747 274.166 213.4 270.606 211.824 267.145C215.085 265.174 218.669 263.794 222.41 263.069C238.361 260.345 252.996 267.372 252.996 267.372C252.996 267.372 259.324 284.985 260.895 317.459Z" fill="#6348EC"/>
<path opacity="0.2" d="M219.278 289.479C218.325 285.747 217.19 281.825 215.855 277.803L218.37 276.787C218.37 276.787 222.328 285.711 219.278 289.479Z" fill="#010101"/>
<path d="M203.508 295.652L207.693 297.632L209.291 290.586C209.291 290.586 205.95 289.415 203.445 291.122L203.508 295.652Z" fill="#E4897B"/>
<path d="M213.694 300.019L213.885 293.601L209.291 290.586L207.693 297.632L213.694 300.019Z" fill="#E4897B"/>
<path d="M216.554 278.176C209.591 281.943 201.638 285.439 195.582 290.368C195.446 290.486 195.492 290.541 195.646 290.014C195.675 289.679 195.631 289.342 195.519 289.025C195.418 288.68 195.196 288.383 194.892 288.19C194.774 288.144 194.847 288.253 195.01 288.362C195.237 288.504 195.477 288.622 195.728 288.716C198.524 289.778 202.4 290.132 205.533 290.532L206.005 295.207C205.015 295.489 204.089 295.68 203.118 295.861C199.486 296.488 195.719 296.932 191.896 295.67C190.254 295.177 188.868 294.063 188.032 292.564C187.197 291.066 186.977 289.302 187.421 287.645C189.291 281.008 206.214 272.728 212.423 269.651L216.554 278.185V278.176Z" fill="#DC897C"/>
<path d="M223.154 309.879L221.538 314.019C221.538 314.019 202.228 290.16 191.579 288.798C180.929 287.436 156.171 332.775 156.171 332.775L165.559 335.617L191.978 311.649C202.872 330.66 215.901 344.605 231.389 344.605H246.514C263.428 344.605 263.618 325.739 260.277 309.743L223.154 309.879Z" fill="#263238"/>
<path d="M211.824 267.145C205.769 269.36 198.651 276.079 198.651 276.079C198.651 276.079 204.643 286.465 205.242 286.065C205.841 285.666 218.134 282.143 218.134 282.143C218.134 282.143 220.64 278.893 218.715 273.391C218.214 271.838 217.314 270.443 216.105 269.347C214.896 268.25 213.419 267.491 211.824 267.145Z" fill="#6348EC"/>
<path d="M272.634 335.172L279.216 335.499L275.739 341.927C275.739 341.927 269.883 341.282 270.346 338.295L272.634 335.172Z" fill="#E4897B"/>
<path d="M284.608 339.167L279.751 343.679L275.739 341.927L279.216 335.499L284.608 339.167Z" fill="#E4897B"/>
<path d="M68.6432 270.068C73.0555 274.517 77.4042 279.501 82.6881 282.869C82.6881 282.869 83.0149 283.042 83.0421 283.069C82.8999 283.016 82.7489 282.992 82.5973 282.996C82.4611 282.996 82.679 282.996 82.915 282.996C88.9433 281.29 94.5449 277.359 100.092 274.335C100.521 274.077 101.031 273.985 101.524 274.078C102.016 274.17 102.458 274.441 102.764 274.838C103.07 275.235 103.219 275.73 103.184 276.23C103.148 276.73 102.93 277.2 102.571 277.549C98.249 281.553 86.601 292.257 80.4819 290.014C76.7415 288.643 73.6184 286.065 70.6769 283.587C67.8036 281.096 65.0954 278.421 62.5695 275.579C59.1105 271.466 64.8846 266.228 68.6432 270.077V270.068Z" fill="#E9B376"/>
<path d="M76.2331 276.351C75.4614 282.125 70.7859 287.79 70.7859 287.79L69.8053 287.118L65.0299 283.95C65.0299 283.95 64.9391 283.677 64.803 283.196C64.6668 282.715 64.4943 282.152 64.2855 281.38C63.1869 277.531 61.2078 270.332 60.9626 267.345C66.8911 267.209 69.5602 270.032 76.2331 276.351Z" fill="#6348EC"/>
<path opacity="0.7" d="M76.2331 276.351C75.4614 282.125 70.7859 287.79 70.7859 287.79L69.8053 287.118L65.0299 283.95C65.0299 283.95 64.9391 283.677 64.803 283.196C64.6668 282.715 64.4943 282.152 64.2855 281.38C63.1869 277.531 61.2078 270.332 60.9626 267.345C66.8911 267.209 69.5602 270.032 76.2331 276.351Z" fill="white"/>
<path opacity="0.2" d="M69.8054 287.118L65.0299 283.95C65.0299 283.95 64.9392 283.677 64.803 283.196C64.9801 281.735 65.2469 280.285 65.6019 278.857C66.86 279.846 67.8877 281.098 68.6136 282.524C69.3394 283.951 69.7461 285.519 69.8054 287.118Z" fill="#010101"/>
<path d="M63.9949 304.822L68.0712 311.958C78.9657 309.416 113.992 304.077 118.286 316.088C123.633 331.005 85.0213 342.907 63.659 343.633C42.2967 344.36 23.658 339.276 37.1672 308.126L63.9949 304.822Z" fill="#263238"/>
<path opacity="0.2" d="M63.9949 304.822L68.0712 311.958C78.9657 309.416 113.992 304.077 118.286 316.088C123.633 331.005 85.0213 342.907 63.659 343.633C42.2967 344.36 23.658 339.276 37.1672 308.126L63.9949 304.822Z" fill="#010101"/>
<path d="M112.103 337.179C112.079 337.194 112.051 337.202 112.022 337.202C111.993 337.202 111.964 337.194 111.94 337.179C111.927 337.158 111.92 337.135 111.92 337.11C111.92 337.086 111.927 337.063 111.94 337.042C112.013 336.806 112.721 334.755 113.438 334.537C113.513 334.518 113.592 334.519 113.667 334.54C113.741 334.561 113.81 334.6 113.865 334.655C113.963 334.738 114.038 334.845 114.083 334.966C114.127 335.087 114.14 335.217 114.119 335.345C114.002 335.731 113.767 336.07 113.447 336.316C113.03 336.649 112.58 336.938 112.103 337.179ZM112.285 336.788C112.952 336.498 113.491 335.975 113.801 335.317C113.821 335.232 113.816 335.142 113.785 335.06C113.754 334.977 113.7 334.906 113.629 334.854C113.608 334.829 113.581 334.811 113.551 334.801C113.52 334.791 113.487 334.791 113.456 334.8C113.396 334.822 113.34 334.856 113.293 334.9C112.845 335.463 112.503 336.103 112.285 336.788Z" fill="#263238"/>
<path d="M112.058 337.206C112.04 337.221 112.017 337.229 111.994 337.229C111.971 337.229 111.948 337.221 111.931 337.206C111.858 337.151 110.877 335.908 111.023 335.063C111.04 334.958 111.079 334.858 111.137 334.769C111.195 334.68 111.27 334.604 111.359 334.546C111.435 334.476 111.533 334.434 111.636 334.424C111.739 334.414 111.842 334.438 111.931 334.491C112.448 334.863 112.385 336.525 112.13 337.16V337.224L112.058 337.206ZM111.504 334.773C111.413 334.845 111.352 334.949 111.331 335.063C111.359 335.692 111.591 336.295 111.994 336.779C112.148 336.071 112.103 334.9 111.794 334.691C111.794 334.691 111.704 334.618 111.549 334.691V334.736L111.504 334.773Z" fill="#263238"/>
<path d="M74.5444 340.683C74.5584 340.66 74.5787 340.642 74.6029 340.631C74.6272 340.619 74.6542 340.615 74.6806 340.619C74.705 340.621 74.7282 340.631 74.7463 340.647C74.7644 340.664 74.7764 340.686 74.7805 340.71C74.8349 340.955 75.2072 343.098 74.6897 343.633C74.6314 343.686 74.5605 343.721 74.4839 343.737C74.4074 343.753 74.3281 343.749 74.2539 343.724C74.1261 343.703 74.0066 343.647 73.9088 343.562C73.811 343.477 73.7387 343.367 73.7001 343.243C73.6104 342.853 73.6518 342.445 73.8181 342.081C74.0109 341.591 74.2544 341.122 74.5444 340.683ZM74.5444 341.119C74.1024 341.695 73.8803 342.409 73.918 343.134C73.9429 343.221 73.9934 343.299 74.063 343.357C74.1326 343.416 74.2181 343.452 74.3084 343.461C74.3338 343.478 74.3639 343.487 74.3946 343.487C74.4253 343.487 74.4554 343.478 74.4809 343.461C74.5217 343.413 74.5526 343.358 74.5716 343.298C74.7077 342.578 74.7077 341.839 74.5716 341.119H74.5444Z" fill="#263238"/>
<path d="M88.5257 329.87L79.7375 333.002L75.5159 334.509L76.5962 339.131L80.6817 338.259L90.6683 336.125L88.5257 329.87Z" fill="#EBB376"/>
<path d="M77.749 339.348L77.0045 333.901C76.9946 333.829 76.9704 333.76 76.9333 333.698C76.8962 333.635 76.8471 333.581 76.7887 333.538C76.7304 333.495 76.664 333.464 76.5935 333.446C76.523 333.429 76.4497 333.426 76.3781 333.438L73.6545 333.892C73.6545 333.892 70.023 334.228 69.2694 335.172C67.145 337.896 68.4705 350.007 69.8868 350.433C70.4043 350.588 70.949 349.88 71.176 349.389C71.8932 347.828 73.1551 343.752 73.7725 342.462C74.4806 340.946 76.4961 340.211 77.3314 339.948C77.4628 339.917 77.5783 339.839 77.6555 339.728C77.7326 339.618 77.766 339.482 77.749 339.348Z" fill="#6348EC"/>
<path d="M74.5624 340.683C74.5824 340.669 74.6061 340.661 74.6305 340.661C74.6549 340.661 74.6787 340.669 74.6986 340.683C74.7803 340.683 76.2511 341.318 76.5144 342.126C76.5464 342.228 76.558 342.335 76.5487 342.44C76.5393 342.546 76.5092 342.649 76.4599 342.744C76.4309 342.844 76.3681 342.932 76.2821 342.991C76.1961 343.051 76.0921 343.079 75.9878 343.071C75.3614 342.998 74.6078 341.509 74.5261 340.837V340.683C74.5381 340.68 74.5505 340.68 74.5624 340.683ZM76.2329 342.544C76.269 342.432 76.269 342.311 76.2329 342.199C76.0604 341.682 75.2433 341.228 74.8257 341.019C75.0255 341.718 75.6337 342.717 76.006 342.753C76.006 342.753 76.1149 342.753 76.1966 342.598V342.544H76.2329Z" fill="#263238"/>
<path opacity="0.2" d="M88.5258 329.87L79.7375 333.002L80.6817 338.259L90.6684 336.125L88.5258 329.87Z" fill="#010101"/>
<path d="M82.2431 339.049L84.767 339.23L83.0784 330.533L80.2095 332.112L82.2431 339.049Z" fill="#6348EC"/>
<path opacity="0.6" d="M82.2431 339.049L84.767 339.23L83.0784 330.533L80.2095 332.112L82.2431 339.049Z" fill="white"/>
<path opacity="0.2" d="M45.574 305.276L58.7382 319.874C58.7382 319.874 73.2642 319.548 90.9677 328.191C90.9677 328.191 109.933 320.356 111.676 313.846C113.964 305.321 68.0984 311.985 68.0984 311.985L45.574 305.276Z" fill="#010101"/>
<path d="M63.8587 311.113L37.0129 307.999C37.527 305.227 37.8305 302.42 37.9208 299.601C38.0283 295.586 37.8706 291.567 37.4487 287.572C37.0764 283.75 36.5408 279.356 35.6329 274.199C35.4513 273.277 35.4783 272.326 35.7119 271.415C35.9455 270.505 36.3799 269.658 36.9831 268.938C37.5864 268.217 38.3432 267.64 39.1982 267.25C40.0532 266.86 40.9847 266.666 41.9245 266.682C43.0049 266.682 44.1397 266.736 45.3018 266.809C49.4128 266.993 53.5056 267.469 57.549 268.234C58.8564 268.498 60.2091 268.825 61.5074 269.142C66.1648 270.35 69.0518 276.215 68.6523 280.945C68.4952 284.621 68.0888 288.282 67.4358 291.903C66.6096 297.241 65.6382 302.452 63.8587 311.113Z" fill="#6348EC"/>
<path opacity="0.7" d="M63.8587 311.113L37.0129 307.999C37.527 305.227 37.8305 302.42 37.9208 299.601C38.0283 295.586 37.8706 291.567 37.4487 287.572C37.0764 283.75 36.5408 279.356 35.6329 274.199C35.4513 273.277 35.4783 272.326 35.7119 271.415C35.9455 270.505 36.3799 269.658 36.9831 268.938C37.5864 268.217 38.3432 267.64 39.1982 267.25C40.0532 266.86 40.9847 266.666 41.9245 266.682C43.0049 266.682 44.1397 266.736 45.3018 266.809C49.4128 266.993 53.5056 267.469 57.549 268.234C58.8564 268.498 60.2091 268.825 61.5074 269.142C66.1648 270.35 69.0518 276.215 68.6523 280.945C68.4952 284.621 68.0888 288.282 67.4358 291.903C66.6096 297.241 65.6382 302.452 63.8587 311.113Z" fill="white"/>
<path opacity="0.2" d="M37.9389 299.611C38.0464 295.595 37.8887 291.576 37.4668 287.581C40.8259 283.614 44.0035 280.318 44.0035 280.318C44.0035 280.318 49.2692 293.873 37.9389 299.611Z" fill="#010101"/>
<path d="M42.1785 278.848C42.4872 284.594 42.4327 293.537 43.4768 299.03L43.2044 298.358C43.0229 298.095 43.1318 298.358 43.3225 298.503C43.568 298.746 43.8288 298.974 44.1032 299.184C47.7347 301.908 52.0925 304.005 56.187 306.175L61.3529 308.835C61.8007 309.059 62.1503 309.441 62.3354 309.906C62.5204 310.372 62.5279 310.889 62.3564 311.36C62.1849 311.831 61.8464 312.222 61.4053 312.459C60.9642 312.697 60.4512 312.764 59.9638 312.648C57.9937 312.176 56.1053 311.613 54.1897 311.032C48.7425 309.216 43.15 307.473 38.4653 303.923C37.5504 303.213 36.8394 302.273 36.4044 301.199C34.3073 293.755 34.1438 286.565 33.9895 278.975C34.1802 273.682 41.8426 273.582 42.1604 278.875L42.1785 278.848Z" fill="#E9B376"/>
<path d="M68.5979 308.508L66.9637 307.318C66.661 307.099 66.31 306.956 65.9402 306.901C65.5705 306.845 65.1929 306.88 64.8393 307.001L61.4801 308.126C60.818 308.351 60.2189 308.729 59.7326 309.232C59.2463 309.734 58.8867 310.345 58.6839 311.013L58.4297 311.858C61.0081 314 65.3749 314.427 65.3749 314.427L66.6006 314.681C66.8516 314.742 67.1121 314.752 67.3671 314.711C67.6221 314.67 67.8665 314.579 68.086 314.443C68.3056 314.307 68.4959 314.129 68.6462 313.919C68.7964 313.709 68.9034 313.471 68.961 313.22L69.5058 310.787C69.5933 310.36 69.554 309.916 69.3927 309.511C69.2314 309.106 68.9551 308.758 68.5979 308.508Z" fill="#EBB376"/>
<path d="M39.7273 267.054C34.4798 268.934 32.9727 273.509 32.8638 283.051C35.5874 285.529 43.8581 285.666 43.8581 285.666C43.8581 285.666 45.2926 271.194 39.7273 267.054Z" fill="#6348EC"/>
<path d="M103.297 313.764V315.925C103.297 316.479 102.643 316.706 102.089 316.706H58.9107C58.3478 316.706 57.6851 316.479 57.6851 315.925V313.764H103.297Z" fill="#263238"/>
<path opacity="0.4" d="M103.297 313.764V315.925C103.297 316.479 102.643 316.706 102.089 316.706H58.9107C58.3478 316.706 57.6851 316.479 57.6851 315.925V313.764H103.297Z" fill="white"/>
<path opacity="0.2" d="M103.297 313.764V315.925C103.297 316.479 102.643 316.706 102.089 316.706H73.582C73.0282 316.706 72.3655 316.479 72.3655 315.925V313.764H103.297Z" fill="#010101"/>
<path d="M110.532 291.304L105.385 314.645C105.29 315.018 105.075 315.35 104.773 315.589C104.471 315.829 104.099 315.963 103.714 315.971H75.5702C75.395 315.966 75.2233 315.921 75.0686 315.838C74.9138 315.756 74.7802 315.639 74.6782 315.497C74.5762 315.354 74.5086 315.19 74.4806 315.017C74.4526 314.844 74.4651 314.667 74.517 314.5L79.6556 291.34C79.7606 290.987 79.9839 290.68 80.2881 290.472C80.5922 290.263 80.9587 290.166 81.3261 290.196H109.47C110.224 290.196 110.66 290.541 110.532 291.304Z" fill="#263238"/>
<path opacity="0.4" d="M110.532 291.304L105.385 314.645C105.29 315.018 105.075 315.35 104.773 315.589C104.471 315.829 104.099 315.963 103.714 315.971H76.5507C76.3755 315.965 76.2037 315.92 76.0488 315.838C75.8939 315.756 75.7599 315.639 75.6572 315.497C75.5546 315.355 75.486 315.191 75.4567 315.018C75.4275 314.845 75.4383 314.668 75.4885 314.5L80.6362 291.34C80.7412 290.987 80.9645 290.68 81.2686 290.472C81.5727 290.263 81.9392 290.166 82.3066 290.196H109.47C110.224 290.196 110.66 290.541 110.532 291.304Z" fill="white"/>
<path opacity="0.2" d="M96.6693 303.16C96.5795 304.107 96.1573 304.991 95.4775 305.656C94.7978 306.321 93.9045 306.723 92.9561 306.792C91.3855 306.792 90.4504 305.167 90.9043 303.16C91.3583 301.154 92.9107 299.602 94.445 299.529C94.0002 301.526 94.9625 303.16 96.5241 303.16H96.6693Z" fill="#010101"/>
<path d="M101.127 278.294L107.173 278.448L104.45 272.329C104.45 272.329 99.0569 272.52 99.2657 275.298L101.127 278.294Z" fill="#EBB376"/>
<path d="M112.357 275.47L108.217 271.003L104.432 272.329L107.173 278.448L112.357 275.47Z" fill="#EBB376"/>
<path d="M43.9763 266.746C43.3589 266.7 45.2473 274.281 54.4169 276.151C63.5864 278.021 62.8783 269.587 62.161 267.472C62.161 267.472 50.1045 267.145 43.9763 266.746Z" fill="#EBB376"/>
<path d="M46.4911 237.103C46.4911 237.103 51.7477 231.275 61.3621 234.28C70.9764 237.285 70.5679 254.444 65.6835 260.672C58.0341 260.403 50.3818 261.117 42.914 262.796C42.914 262.796 38.2839 250.349 40.5808 243.032C42.8777 235.714 46.4911 237.103 46.4911 237.103Z" fill="#263238"/>
<path d="M48.4249 254.217C49.0332 258.266 49.5053 265.602 46.6091 267.926C46.6091 267.926 50.3859 267.799 57.7124 273.591C60.3725 270.577 58.8019 269.333 58.8019 269.333C54.4713 267.781 54.7165 264.512 55.5971 261.525L48.4249 254.217Z" fill="#EBB376"/>
<path opacity="0.2" d="M51.3663 257.204L55.6424 261.525C55.4266 262.225 55.2717 262.942 55.1793 263.668C53.5179 263.232 51.2936 261.117 51.1938 259.328C51.1233 258.615 51.1817 257.896 51.3663 257.204Z" fill="#010101"/>
<path d="M45.9827 245.955C46.4366 252.428 46.5002 255.17 49.7594 258.665C54.6711 263.858 62.4697 262.297 63.8769 255.942C65.1933 250.204 64.2219 240.581 57.9394 237.739C56.6142 237.083 55.1379 236.792 53.663 236.898C52.188 237.003 50.7679 237.5 49.5492 238.337C48.3305 239.175 47.3574 240.322 46.7305 241.661C46.1035 243.001 45.8453 244.483 45.9827 245.955Z" fill="#EBB376"/>
<path d="M53.9537 247.943C53.9537 248.497 54.2533 248.942 54.6074 248.96C54.9615 248.978 55.2157 248.543 55.2066 247.998C55.1975 247.453 54.8979 246.999 54.5529 246.99C54.2079 246.981 53.9356 247.399 53.9537 247.943Z" fill="#263238"/>
<path d="M60.7266 248.016C60.7266 248.561 61.0352 249.015 61.3802 249.033C61.7252 249.051 61.9885 248.615 61.9794 248.071C61.9703 247.526 61.6708 247.072 61.3258 247.063C60.9808 247.054 60.7266 247.471 60.7266 248.016Z" fill="#263238"/>
<path d="M61.144 247.081L62.406 246.754C62.406 246.754 61.7796 247.753 61.144 247.081Z" fill="#263238"/>
<path d="M58.6748 249.133C59.1825 250.398 59.8475 251.593 60.654 252.692C60.382 252.877 60.0718 252.998 59.7465 253.047C59.4211 253.096 59.0889 253.071 58.7747 252.973L58.6748 249.133Z" fill="#D58745"/>
<path d="M52.8643 244.493C52.9052 244.5 52.9471 244.497 52.9865 244.484C53.026 244.472 53.0619 244.45 53.0913 244.421C53.3747 244.159 53.7192 243.971 54.0934 243.876C54.4676 243.781 54.8597 243.781 55.2339 243.876C55.272 243.888 55.3123 243.893 55.3522 243.889C55.3921 243.885 55.4307 243.873 55.4657 243.853C55.5007 243.833 55.5312 243.807 55.5554 243.775C55.5795 243.743 55.5968 243.706 55.6061 243.667C55.6287 243.583 55.6177 243.493 55.5753 243.417C55.533 243.341 55.4626 243.284 55.3792 243.259C54.9054 243.132 54.4071 243.127 53.9309 243.244C53.4546 243.362 53.0159 243.598 52.6555 243.931C52.5973 243.99 52.5647 244.07 52.5647 244.153C52.5647 244.236 52.5973 244.316 52.6555 244.375C52.7077 244.44 52.7823 244.482 52.8643 244.493Z" fill="#263238"/>
<path d="M63.3595 244.548C63.4326 244.576 63.5134 244.576 63.5865 244.548C63.6217 244.526 63.6521 244.497 63.6758 244.463C63.6996 244.429 63.7162 244.39 63.7247 244.349C63.7331 244.309 63.7333 244.267 63.7252 244.226C63.717 244.185 63.7007 244.147 63.6772 244.112C63.4277 243.664 63.0785 243.28 62.6566 242.989C62.2347 242.697 61.7514 242.507 61.2441 242.433C61.2037 242.43 61.1632 242.436 61.1252 242.45C61.0872 242.464 61.0525 242.486 61.0235 242.514C60.9944 242.542 60.9716 242.576 60.9564 242.614C60.9413 242.651 60.9341 242.692 60.9355 242.732C60.9369 242.817 60.9689 242.899 61.0256 242.962C61.0823 243.026 61.1598 243.066 61.2441 243.077C61.6454 243.138 62.0271 243.292 62.3594 243.525C62.6917 243.758 62.9656 244.064 63.1598 244.421C63.183 244.454 63.2127 244.483 63.247 244.504C63.2812 244.526 63.3195 244.541 63.3595 244.548Z" fill="#263238"/>
<path d="M54.3713 247.008L55.6333 246.691C55.6333 246.691 55.0341 247.68 54.3713 247.008Z" fill="#263238"/>
<path d="M47.3263 249.841C47.3263 249.841 52.3196 245.919 51.1847 239.782C51.1847 239.782 60.1182 236.25 63.6408 245.229C63.6408 245.229 64.3852 237.53 55.9874 236.023C47.5895 234.516 37.6483 245.901 47.1628 254.535L47.3263 249.841Z" fill="#263238"/>
<path d="M43.9217 251.185C44.2456 251.785 44.6851 252.316 45.2149 252.746C45.7446 253.176 46.3542 253.497 47.0085 253.69C48.7062 254.153 49.4688 252.483 48.9241 250.758C48.4248 249.206 46.9449 247.126 45.2926 247.39C43.6403 247.653 43.0774 249.65 43.9217 251.185Z" fill="#EBB376"/>
<path d="M64.6213 249.042C64.5804 249.042 64.5407 249.028 64.508 249.004C64.4753 248.979 64.4514 248.945 64.4397 248.906C61.2349 237.621 50.6581 239.945 50.5492 239.963C50.526 239.969 50.5019 239.969 50.4783 239.965C50.4548 239.961 50.4323 239.953 50.4121 239.94C50.3918 239.928 50.3743 239.911 50.3604 239.892C50.3466 239.872 50.3367 239.85 50.3313 239.827C50.3259 239.804 50.3252 239.78 50.3292 239.756C50.3331 239.733 50.3416 239.71 50.3543 239.69C50.3669 239.67 50.3834 239.652 50.4029 239.638C50.4223 239.624 50.4442 239.615 50.4675 239.609C50.5764 239.609 61.4982 237.185 64.7938 248.806C64.8007 248.829 64.8028 248.854 64.8001 248.878C64.7974 248.902 64.7899 248.925 64.7781 248.946C64.7662 248.967 64.7503 248.986 64.7311 249.001C64.712 249.016 64.6901 249.027 64.6667 249.033L64.6213 249.042Z" fill="#263238"/>
<path d="M59.0922 254.852C58.7753 255.594 58.5144 256.359 58.3115 257.14H57.8848C55.9691 256.931 55.1611 256.232 54.8161 255.461C54.6615 255.094 54.5962 254.695 54.6255 254.299C54.6394 254.073 54.6822 253.85 54.7526 253.636C55.8821 254.29 57.1394 254.692 58.4386 254.816C58.838 254.834 59.0922 254.852 59.0922 254.852Z" fill="#263238"/>
<path d="M58.4388 254.78L58.1937 255.443C56.3779 255.252 55.1341 254.871 54.6257 254.262C54.6397 254.037 54.6824 253.814 54.7528 253.6C55.8824 254.253 57.1396 254.656 58.4388 254.78Z" fill="white"/>
<path d="M57.8848 257.104C55.9692 256.895 55.1612 256.196 54.8162 255.424C55.5439 255.519 56.2501 255.737 56.9043 256.069C57.3303 256.304 57.6729 256.666 57.8848 257.104Z" fill="#DE5753"/>
<path d="M57.5762 285.103C57.5473 285.105 57.5184 285.1 57.4917 285.089C57.4649 285.078 57.4411 285.061 57.4218 285.039C52.5978 279.867 48.9604 273.704 46.7634 266.982C46.7495 266.926 46.7579 266.868 46.7868 266.818C46.8156 266.769 46.8626 266.733 46.9177 266.718C46.9445 266.712 46.9725 266.71 46.9998 266.714C47.0272 266.718 47.0534 266.728 47.0771 266.742C47.1008 266.757 47.1213 266.776 47.1376 266.798C47.1539 266.82 47.1655 266.846 47.1719 266.873C49.3103 273.411 52.8274 279.414 57.4854 284.476C58.0301 282.661 60.2907 274.036 56.8862 267.426C56.8696 267.377 56.871 267.324 56.8903 267.276C56.9096 267.227 56.9455 267.188 56.9915 267.164C57.0375 267.14 57.0905 267.133 57.1411 267.144C57.1917 267.156 57.2365 267.185 57.2675 267.227C61.1623 274.789 57.8122 284.858 57.7759 284.958C57.7639 284.992 57.7436 285.024 57.7167 285.049C57.6898 285.075 57.6572 285.093 57.6216 285.103H57.5762Z" fill="#263238"/>
<path d="M57.8577 284.721L58.5477 285.629C58.6096 285.707 58.6433 285.803 58.6433 285.902C58.6433 286.001 58.6096 286.097 58.5477 286.174L57.8486 287.082C57.8069 287.132 57.7548 287.171 57.696 287.199C57.6371 287.226 57.5731 287.24 57.5082 287.24C57.4433 287.24 57.3792 287.226 57.3204 287.199C57.2616 287.171 57.2095 287.132 57.1677 287.082L56.5141 286.337C56.4566 286.262 56.4255 286.169 56.4255 286.074C56.4255 285.979 56.4566 285.887 56.5141 285.811L57.0951 284.758C57.1331 284.692 57.1871 284.637 57.2519 284.597C57.3168 284.558 57.3906 284.535 57.4665 284.532C57.5424 284.528 57.618 284.543 57.6863 284.577C57.7547 284.61 57.8136 284.66 57.8577 284.721Z" fill="white"/>
<path opacity="0.7" d="M39.7273 267.054C34.4798 268.934 32.9727 273.509 32.8638 283.051C35.5874 285.529 43.8581 285.666 43.8581 285.666C43.8581 285.666 45.2926 271.194 39.7273 267.054Z" fill="white"/>
<path d="M94.6267 339.875L103.833 341.391L108.254 342.117L109.543 337.551L105.548 336.334L95.7797 333.365L94.6267 339.875Z" fill="#EBB376"/>
<path d="M108.644 336.806L106.656 341.927C106.63 341.995 106.618 342.068 106.62 342.141C106.622 342.215 106.639 342.287 106.669 342.354C106.7 342.42 106.743 342.48 106.797 342.53C106.851 342.58 106.914 342.619 106.983 342.644L109.552 343.552C109.552 343.552 112.92 345.023 114.01 344.55C117.196 343.18 121.89 331.949 120.855 330.932C120.474 330.542 119.657 330.932 119.221 331.223C117.841 332.24 114.763 335.19 113.601 336.025C112.239 337.006 110.16 336.697 109.262 336.507C109.14 336.475 109.011 336.487 108.897 336.542C108.784 336.597 108.694 336.691 108.644 336.806Z" fill="#6348EC"/>
<path opacity="0.2" d="M94.6267 339.875L103.833 341.391L105.548 336.334L95.7797 333.365L94.6267 339.875Z" fill="#010101"/>
<path d="M103.96 335.381C103.96 335.381 66.428 314.282 53.4635 314.881C40.4991 315.48 38.647 326.901 43.9853 334.046C49.3236 341.191 59.2013 342.934 59.2013 342.934C59.2013 342.934 52.4921 333.42 53.4635 330.769C54.4349 328.118 58.2299 331.822 58.2299 331.822C58.2299 331.822 81.8346 339.448 102.507 341.2L103.96 335.381Z" fill="#263238"/>
<path d="M104.568 334.8L102.443 333.375L99.7107 341.754H102.988L104.568 334.8Z" fill="#6348EC"/>
<path opacity="0.6" d="M104.568 334.8L102.443 333.375L99.7107 341.754H102.988L104.568 334.8Z" fill="white"/>
<path fill-rule="evenodd" clip-rule="evenodd" d="M211.701 102.585C209.855 100.555 207.336 98.8554 204.638 98.4427C200.144 97.756 196.064 97.4128 191.64 98.4333C184.489 100.082 178.632 99.4999 176.806 91.8241C176.69 91.339 176.579 90.9498 176.454 90C174.374 92.2717 171.527 91.7985 169 90.9732C169.914 93.6763 170.546 96.1714 171.584 98.4828C173.722 103.244 177.355 104.913 182.402 103.565C184.836 102.915 187.159 101.813 189.61 101.269C192.377 100.656 195.254 100.024 198.044 100.164C200.982 100.31 203.658 101.678 204.956 104.721L206.565 105.34C207.408 105.266 208.174 105.144 209.016 105.071C209.177 105.13 209.339 105.188 209.502 105.248C210.269 105.203 211.038 105.159 211.807 105.115L211.824 105.111C212.211 105.028 212.613 104.941 213.256 104.802C212.66 103.941 212.255 103.195 211.701 102.585Z" fill="#FFA4AC"/>
<path fill-rule="evenodd" clip-rule="evenodd" d="M202.214 101.42C203.367 102.16 204.325 103.242 204.956 104.721L206.565 105.34C207.408 105.266 208.174 105.144 209.016 105.071C209.177 105.13 209.339 105.188 209.502 105.248C210.269 105.203 211.038 105.159 211.806 105.115L211.824 105.111C212.211 105.028 212.613 104.941 213.256 104.802C212.66 103.941 212.255 103.195 211.701 102.585C211.448 102.306 211.182 102.034 210.904 101.771C208.122 101.219 205.213 101.123 202.214 101.42Z" fill="#074785"/>
<path fill-rule="evenodd" clip-rule="evenodd" d="M232.046 138.193C232.524 138.439 232.825 138.593 233.114 138.741L233.127 138.748C233.725 138.946 234.325 139.144 234.922 139.342C235.064 139.329 235.204 139.317 235.344 139.305C235.995 139.542 236.576 139.801 237.226 140.037L238.631 139.889C240.304 137.757 242.712 137.241 245.068 137.748C247.306 138.23 249.447 139.339 251.507 140.412C253.331 141.362 254.936 142.727 256.724 143.758C260.432 145.895 263.66 145.345 266.362 142.03C267.675 140.421 268.703 138.581 270 136.636C267.825 136.752 265.471 136.524 264.308 134.285C264.007 135.009 263.837 135.294 263.642 135.653C260.569 141.34 255.842 140.555 250.534 137.734C247.248 135.988 243.462 134.627 239.813 134.903C237.585 135.071 235.637 135.553 233.747 136.768C233.179 137.133 232.701 137.638 232.046 138.193Z" fill="#F9D555"/>
<path fill-rule="evenodd" clip-rule="evenodd" d="M235.344 139.304C235.995 139.542 236.576 139.8 237.226 140.037L238.631 139.888C239.597 138.658 240.807 137.966 242.111 137.699C240.292 136.815 238.34 136.184 236.305 135.865C236.099 135.832 235.893 135.803 235.687 135.774C235.028 136.033 234.384 136.358 233.747 136.768C233.179 137.132 232.701 137.637 232.046 138.192C232.524 138.438 232.825 138.592 233.114 138.74L233.127 138.748C233.725 138.945 234.325 139.143 234.922 139.341C235.064 139.329 235.204 139.316 235.344 139.304Z" fill="#074785"/>
<path d="M201.173 160.436C200.886 160.158 200.309 156.257 199.786 156.288C199.261 156.32 198.805 160.189 198.559 160.443C198.067 160.955 194.471 161.316 194.501 161.812C194.53 162.306 198.062 162.541 198.561 163.024C198.839 163.293 199.425 167.204 199.949 167.174C200.472 167.143 200.921 163.285 201.176 163.022C201.651 162.528 205.275 162.147 205.246 161.649C205.216 161.152 201.653 160.903 201.173 160.436Z" fill="#FD6085"/>
<path d="M241.361 120.987C241.073 120.709 240.497 116.809 239.973 116.839C239.448 116.872 238.992 120.74 238.747 120.995C238.255 121.506 234.658 121.868 234.688 122.364C234.717 122.859 238.249 123.093 238.748 123.575C239.026 123.845 239.612 127.755 240.136 127.725C240.66 127.694 241.108 123.837 241.363 123.573C241.838 123.079 245.462 122.698 245.433 122.201C245.404 121.703 241.841 121.454 241.361 120.987Z" fill="#FD6085"/>
<path fill-rule="evenodd" clip-rule="evenodd" d="M223.362 110.135C216.859 103.821 208.818 102.071 200.112 103.437C185.488 105.729 174.389 121.172 179.312 135.601C186.823 157.616 215.773 158.781 226.639 138.795C231.992 128.949 230.796 117.353 223.362 110.135Z" fill="#A089E4"/>
<path d="M204.388 127.001C204.889 129.819 203.011 132.511 200.192 133.012C197.373 133.514 194.682 131.634 194.181 128.816C193.679 125.998 195.558 123.306 198.377 122.805C201.195 122.304 203.887 124.183 204.388 127.001Z" fill="white"/>
<path d="M203.463 127.165C203.834 129.25 202.444 131.24 200.361 131.61C198.276 131.98 196.286 130.591 195.916 128.508C195.545 126.424 196.934 124.434 199.018 124.063C201.102 123.692 203.092 125.082 203.463 127.165Z" fill="#074785"/>
<path d="M199.44 134.796C199.552 135.428 198.913 136.072 198.011 136.232C197.11 136.393 196.289 136.009 196.175 135.376C196.063 134.743 196.702 134.099 197.604 133.939C198.505 133.778 199.327 134.163 199.44 134.796Z" fill="#FFA4AC"/>
<path d="M215.895 129.884C216.143 130.495 215.635 131.278 214.761 131.632C213.887 131.986 212.977 131.777 212.73 131.165C212.483 130.554 212.991 129.771 213.865 129.418C214.738 129.064 215.648 129.272 215.895 129.884Z" fill="#FFA4AC"/>
<path d="M202.426 125.692C201.881 125.182 201.264 124.798 200.518 124.678C200.182 124.625 200.136 125.149 200.469 125.203C201.069 125.299 201.587 125.623 202.025 126.033C202.27 126.261 202.674 125.924 202.426 125.692Z" fill="white"/>
<path d="M199.634 124.516C199.55 124.513 199.466 124.508 199.383 124.507C199.24 124.503 199.11 124.594 199.096 124.745C199.084 124.88 199.191 125.028 199.334 125.031C199.417 125.033 199.501 125.037 199.585 125.04C199.729 125.044 199.858 124.953 199.873 124.803C199.885 124.666 199.777 124.519 199.634 124.516Z" fill="white"/>
<path d="M202.966 126.523C202.883 126.405 202.696 126.405 202.595 126.492C202.479 126.591 202.482 126.746 202.565 126.863C202.564 126.86 202.564 126.857 202.562 126.854C202.595 126.993 202.72 127.093 202.868 127.067C203.002 127.043 203.114 126.902 203.08 126.761C203.058 126.669 203.02 126.599 202.966 126.523Z" fill="white"/>
<path d="M202.562 126.864C202.564 126.867 202.565 126.871 202.567 126.874C202.566 126.871 202.565 126.867 202.565 126.864C202.52 126.8 202.554 126.847 202.562 126.864Z" fill="white"/>
<path d="M202.567 126.873C202.574 126.893 202.577 126.913 202.567 126.873V126.873Z" fill="white"/>
<path d="M215.257 124.001C215.758 126.819 213.88 129.511 211.061 130.012C208.242 130.514 205.551 128.635 205.05 125.816C204.548 122.998 206.427 120.306 209.246 119.806C212.064 119.304 214.756 121.183 215.257 124.001Z" fill="white"/>
<path d="M213.615 124.391C213.987 126.475 212.597 128.465 210.513 128.836C208.429 129.206 206.439 127.816 206.068 125.733C205.698 123.649 207.087 121.659 209.171 121.289C211.256 120.917 213.245 122.307 213.615 124.391Z" fill="#074785"/>
<path d="M212.578 122.917C212.034 122.407 211.418 122.023 210.671 121.905C210.335 121.85 210.289 122.376 210.622 122.429C211.222 122.524 211.74 122.848 212.178 123.258C212.422 123.487 212.827 123.149 212.578 122.917Z" fill="white"/>
<path d="M209.787 121.741C209.704 121.738 209.62 121.734 209.536 121.732C209.393 121.728 209.263 121.819 209.25 121.969C209.237 122.104 209.344 122.252 209.487 122.255C209.571 122.258 209.655 122.263 209.739 122.264C209.882 122.268 210.012 122.177 210.025 122.026C210.037 121.892 209.931 121.744 209.787 121.741Z" fill="white"/>
<path d="M213.118 123.747C213.036 123.631 212.849 123.631 212.747 123.718C212.632 123.816 212.635 123.971 212.717 124.088C212.716 124.085 212.716 124.083 212.715 124.079C212.748 124.219 212.873 124.318 213.02 124.291C213.155 124.267 213.266 124.126 213.233 123.986C213.211 123.894 213.173 123.825 213.118 123.747Z" fill="white"/>
<path d="M212.716 124.088C212.718 124.092 212.718 124.096 212.72 124.1C212.72 124.097 212.718 124.093 212.718 124.088C212.673 124.026 212.706 124.071 212.716 124.088Z" fill="white"/>
<path d="M212.719 124.099C212.727 124.119 212.73 124.138 212.719 124.099V124.099Z" fill="white"/>
<path d="M212.719 124.09L212.717 124.088L212.719 124.09Z" fill="white"/>
<path d="M206.988 131.462C206.974 131.984 206.942 132.498 206.401 132.729C205.807 132.981 204.999 132.759 204.793 132.111C204.693 131.793 204.196 131.939 204.297 132.258C204.572 133.128 205.453 133.437 206.295 133.299C207.257 133.142 207.482 132.29 207.506 131.452C207.515 131.117 206.997 131.129 206.988 131.462Z" fill="#074785"/>
<path fill-rule="evenodd" clip-rule="evenodd" d="M194.592 121.814C190.925 122.667 187.624 120.704 186.819 117.194C186.027 113.735 188.364 110.317 192.104 109.464C195.662 108.652 198.875 110.632 199.69 114.137C200.496 117.608 198.271 120.959 194.592 121.814Z" fill="#7BEFE5"/>
<path fill-rule="evenodd" clip-rule="evenodd" d="M215.865 110.695C216.615 114.004 214.456 117.344 211.075 118.108C207.722 118.865 204.106 116.483 203.312 112.993C202.579 109.771 204.748 106.313 207.952 105.595C211.427 104.817 215.064 107.16 215.865 110.695Z" fill="#7BEFE5"/>
<path fill-rule="evenodd" clip-rule="evenodd" d="M180.998 133.352C180.181 129.807 182.267 126.229 185.58 125.491C189.052 124.717 192.384 126.699 193.165 130.002C194.006 133.558 191.843 137.205 188.452 137.949C184.912 138.726 181.793 136.803 180.998 133.352Z" fill="#7BEFE5"/>
<path fill-rule="evenodd" clip-rule="evenodd" d="M197.028 137.286C200.286 136.524 203.736 138.823 204.502 142.267C205.235 145.561 203.065 149.053 199.82 149.807C196.543 150.566 193.071 148.311 192.275 144.905C191.49 141.551 193.659 138.074 197.028 137.286Z" fill="#7BEFE5"/>
<path fill-rule="evenodd" clip-rule="evenodd" d="M217.1 145.351C213.549 146.215 210.193 144.187 209.355 140.672C208.545 137.274 210.465 134.168 213.89 133.336C217.529 132.452 220.9 134.474 221.757 138.055C222.543 141.34 220.513 144.522 217.1 145.351Z" fill="#7BEFE5"/>
<path fill-rule="evenodd" clip-rule="evenodd" d="M215.406 125.326C214.57 121.745 216.62 118.174 219.933 117.432C223.288 116.681 226.4 118.702 227.191 122.145C228.01 125.707 226.022 129.189 222.75 129.924C219.387 130.681 216.188 128.678 215.406 125.326Z" fill="#7BEFE5"/>
<path fill-rule="evenodd" clip-rule="evenodd" d="M215.838 142.891C221.165 137.72 227.753 136.286 234.885 137.404C246.867 139.283 255.96 151.935 251.926 163.756C245.773 181.791 222.055 182.746 213.153 166.372C208.767 158.306 209.747 148.805 215.838 142.891Z" fill="#FD6085"/>
<path d="M232.287 156.322C231.806 158.565 233.234 160.773 235.477 161.255C237.722 161.736 239.93 160.307 240.411 158.064C240.892 155.821 239.463 153.613 237.22 153.13C234.977 152.65 232.768 154.078 232.287 156.322Z" fill="white"/>
<path d="M233.023 156.479C232.667 158.138 233.723 159.771 235.382 160.128C237.042 160.484 238.674 159.426 239.03 157.768C239.386 156.109 238.33 154.476 236.671 154.12C235.012 153.764 233.379 154.821 233.023 156.479Z" fill="#074785"/>
<path d="M236.029 162.705C235.921 163.209 236.415 163.743 237.133 163.896C237.85 164.05 238.52 163.767 238.627 163.263C238.736 162.759 238.242 162.226 237.524 162.071C236.806 161.918 236.138 162.201 236.029 162.705Z" fill="#FFA4AC"/>
<path d="M222.988 158.305C222.772 158.788 223.156 159.428 223.847 159.737C224.536 160.045 225.27 159.903 225.487 159.42C225.702 158.939 225.317 158.297 224.627 157.989C223.937 157.681 223.202 157.822 222.988 158.305Z" fill="#FFA4AC"/>
<path d="M233.895 155.328C234.346 154.935 234.85 154.645 235.452 154.571C235.723 154.538 235.744 154.959 235.476 154.992C234.993 155.052 234.569 155.297 234.207 155.613C234.004 155.789 233.69 155.507 233.895 155.328Z" fill="white"/>
<path d="M236.165 154.465C236.232 154.466 236.299 154.465 236.367 154.465C236.481 154.467 236.583 154.543 236.589 154.664C236.596 154.773 236.506 154.888 236.391 154.886C236.324 154.886 236.257 154.887 236.189 154.886C236.074 154.885 235.973 154.807 235.966 154.688C235.96 154.579 236.05 154.464 236.165 154.465Z" fill="white"/>
<path d="M233.44 155.978C233.51 155.887 233.659 155.893 233.737 155.965C233.828 156.047 233.821 156.171 233.751 156.263C233.752 156.26 233.752 156.258 233.754 156.255C233.723 156.366 233.62 156.442 233.503 156.417C233.395 156.394 233.31 156.278 233.34 156.166C233.361 156.093 233.394 156.038 233.44 155.978Z" fill="white"/>
<path d="M233.753 156.262C233.751 156.265 233.75 156.268 233.749 156.272C233.749 156.269 233.75 156.265 233.751 156.263C233.788 156.214 233.761 156.249 233.753 156.262Z" fill="white"/>
<path d="M233.749 156.272C233.739 156.303 233.743 156.287 233.749 156.272V156.272Z" fill="white"/>
<path d="M223.666 153.611C223.184 155.854 224.613 158.063 226.856 158.544C229.1 159.026 231.308 157.597 231.79 155.354C232.271 153.11 230.842 150.902 228.599 150.42C226.356 149.939 224.147 151.367 223.666 153.611Z" fill="white"/>
<path d="M224.969 153.969C224.613 155.628 225.67 157.261 227.328 157.617C228.987 157.973 230.62 156.917 230.977 155.258C231.332 153.6 230.276 151.966 228.617 151.61C226.959 151.254 225.325 152.311 224.969 153.969Z" fill="#074785"/>
<path d="M225.841 152.818C226.292 152.425 226.797 152.135 227.398 152.061C227.669 152.028 227.69 152.449 227.423 152.482C226.939 152.542 226.516 152.786 226.153 153.103C225.95 153.279 225.636 152.997 225.841 152.818Z" fill="white"/>
<path d="M228.111 151.956C228.178 151.956 228.245 151.955 228.312 151.955C228.427 151.956 228.528 152.033 228.535 152.154C228.541 152.262 228.451 152.378 228.336 152.376C228.269 152.376 228.202 152.378 228.136 152.376C228.02 152.375 227.919 152.298 227.913 152.178C227.906 152.069 227.996 151.954 228.111 151.956Z" fill="white"/>
<path d="M225.386 153.468C225.455 153.376 225.604 153.383 225.684 153.455C225.773 153.538 225.767 153.661 225.697 153.752C225.698 153.75 225.698 153.749 225.699 153.746C225.669 153.856 225.566 153.932 225.449 153.907C225.341 153.884 225.256 153.767 225.286 153.657C225.307 153.583 225.34 153.528 225.386 153.468Z" fill="white"/>
<path d="M225.699 153.753C225.698 153.755 225.697 153.759 225.695 153.763C225.696 153.76 225.697 153.757 225.697 153.753C225.735 153.704 225.706 153.739 225.699 153.753Z" fill="white"/>
<path d="M225.696 153.761C225.686 153.794 225.689 153.777 225.696 153.761V153.761Z" fill="white"/>
<path d="M225.697 153.753L225.698 153.752L225.697 153.753Z" fill="white"/>
<path d="M230.077 159.821C230.074 160.24 230.085 160.652 230.512 160.852C230.981 161.071 231.634 160.916 231.817 160.403C231.907 160.151 232.3 160.282 232.21 160.535C231.965 161.223 231.251 161.447 230.581 161.312C229.815 161.16 229.658 160.469 229.663 159.798C229.666 159.53 230.08 159.554 230.077 159.821Z" fill="#074780"/>
<path fill-rule="evenodd" clip-rule="evenodd" d="M239.407 152.46C242.411 153.159 245.117 151.551 245.775 148.676C246.425 145.84 244.511 143.04 241.446 142.342C238.531 141.677 235.899 143.3 235.231 146.17C234.57 149.015 236.394 151.759 239.407 152.46Z" fill="#F9D555"/>
<path fill-rule="evenodd" clip-rule="evenodd" d="M221.979 143.351C221.365 146.062 223.133 148.798 225.904 149.424C228.651 150.045 231.613 148.093 232.264 145.233C232.864 142.594 231.087 139.761 228.462 139.173C225.615 138.535 222.636 140.455 221.979 143.351Z" fill="#F9D555"/>
<path fill-rule="evenodd" clip-rule="evenodd" d="M250.544 161.913C251.213 159.008 249.506 156.078 246.791 155.472C243.947 154.839 241.217 156.462 240.577 159.169C239.887 162.081 241.659 165.069 244.438 165.679C247.338 166.316 249.893 164.74 250.544 161.913Z" fill="#F9D555"/>
<path fill-rule="evenodd" clip-rule="evenodd" d="M237.412 165.136C234.742 164.512 231.916 166.395 231.288 169.217C230.689 171.915 232.465 174.777 235.124 175.393C237.809 176.016 240.654 174.168 241.306 171.377C241.949 168.63 240.172 165.781 237.412 165.136Z" fill="#F9D555"/>
<path fill-rule="evenodd" clip-rule="evenodd" d="M220.968 171.744C223.876 172.451 226.626 170.79 227.313 167.91C227.976 165.126 226.403 162.583 223.597 161.9C220.617 161.175 217.854 162.831 217.152 165.766C216.507 168.458 218.171 171.064 220.968 171.744Z" fill="#F9D555"/>
<path fill-rule="evenodd" clip-rule="evenodd" d="M222.355 155.337C223.04 152.403 221.362 149.478 218.647 148.87C215.898 148.256 213.348 149.911 212.7 152.733C212.03 155.65 213.658 158.502 216.339 159.105C219.094 159.725 221.715 158.084 222.355 155.337Z" fill="#F9D555"/>
<path d="M225.016 124.91C224.921 126.029 224.21 127.231 223.123 127.631C222.398 127.899 222.711 129.067 223.444 128.796C225.074 128.196 226.082 126.605 226.226 124.91C226.29 124.132 225.081 124.138 225.016 124.91Z" fill="#29AEFD"/>
<path d="M221.395 169.661C220.463 169.543 219.484 168.907 219.186 167.985C218.989 167.371 218.002 167.592 218.203 168.214C218.648 169.596 219.941 170.493 221.352 170.67C222 170.752 222.037 169.742 221.395 169.661Z" fill="#FD6085"/>
<path d="M217.046 157.004C216.112 156.919 215.111 156.319 214.782 155.407C214.562 154.8 213.584 155.056 213.806 155.67C214.299 157.036 215.624 157.887 217.04 158.015C217.691 158.073 217.691 157.062 217.046 157.004Z" fill="#FD6085"/>
<path d="M226.175 147.349C225.261 147.133 224.356 146.395 224.159 145.447C224.028 144.815 223.023 144.929 223.156 145.568C223.45 146.991 224.64 148.021 226.025 148.349C226.659 148.5 226.804 147.499 226.175 147.349Z" fill="#FD6085"/>
<path d="M239.759 150.362C238.822 150.297 237.809 149.718 237.46 148.814C237.227 148.211 236.255 148.488 236.49 149.097C237.013 150.452 238.355 151.274 239.773 151.372C240.424 151.417 240.403 150.407 239.759 150.362Z" fill="#FD6085"/>
<path d="M244.983 163.624C244.059 163.463 243.111 162.782 242.856 161.848C242.686 161.225 241.689 161.401 241.862 162.031C242.244 163.432 243.495 164.387 244.896 164.63C245.539 164.741 245.622 163.734 244.983 163.624Z" fill="#FD6085"/>
<path d="M235.545 173.459C234.64 173.209 233.763 172.439 233.601 171.484C233.494 170.847 232.485 170.923 232.594 171.568C232.836 173 233.988 174.073 235.359 174.452C235.987 174.627 236.169 173.632 235.545 173.459Z" fill="#FD6085"/>
<path d="M213.561 112.761C213.466 113.881 212.754 115.081 211.667 115.482C210.942 115.749 211.256 116.918 211.988 116.648C213.619 116.047 214.627 114.456 214.77 112.761C214.835 111.983 213.625 111.989 213.561 112.761Z" fill="#29AEFD"/>
<path d="M197.501 116.374C197.407 117.493 196.695 118.695 195.608 119.095C194.883 119.363 195.196 120.531 195.929 120.261C197.559 119.661 198.568 118.07 198.71 116.374C198.776 115.597 197.567 115.603 197.501 116.374Z" fill="#29AEFD"/>
<path d="M190.699 132.422C190.604 133.541 189.892 134.742 188.805 135.143C188.08 135.411 188.393 136.579 189.127 136.309C190.757 135.708 191.765 134.117 191.908 132.422C191.973 131.644 190.765 131.651 190.699 132.422Z" fill="#29AEFD"/>
<path d="M202.059 144.45C201.964 145.57 201.253 146.771 200.165 147.172C199.441 147.439 199.754 148.607 200.487 148.337C202.117 147.736 203.125 146.146 203.268 144.45C203.333 143.673 202.124 143.679 202.059 144.45Z" fill="#29AEFD"/>
<path d="M224.838 114.131C223.67 112.328 222.287 110.604 220.329 109.623C219.634 109.275 219.022 110.318 219.719 110.667C221.497 111.558 222.732 113.102 223.794 114.742C224.216 115.393 225.263 114.788 224.838 114.131Z" fill="white"/>
<path d="M225.585 115.827C224.806 115.827 224.806 117.036 225.585 117.036C226.365 117.036 226.365 115.827 225.585 115.827Z" fill="white"/>
<path d="M250.407 150.582C250.051 149.888 249.008 150.499 249.364 151.192C250.108 152.64 250.764 154.312 250.731 155.964C250.716 156.744 251.925 156.742 251.94 155.964C251.977 154.096 251.248 152.219 250.407 150.582Z" fill="white"/>
<path d="M248.797 148.167C248.017 148.167 248.017 149.375 248.797 149.375C249.576 149.375 249.576 148.167 248.797 148.167Z" fill="white"/>
<path d="M215.589 165.935C214.669 164.653 213.939 163.276 213.414 161.788C213.157 161.058 211.987 161.372 212.249 162.109C212.808 163.696 213.564 165.178 214.546 166.546C214.996 167.172 216.045 166.57 215.589 165.935Z" fill="white"/>
<path d="M212.226 158.986C211.447 158.986 211.447 160.195 212.226 160.195C213.006 160.195 213.006 158.986 212.226 158.986Z" fill="white"/>
<path d="M189.765 145.784C187.953 144.367 186.13 142.919 184.942 140.91C184.546 140.239 183.501 140.847 183.899 141.52C185.142 143.624 187.011 145.153 188.91 146.639C189.516 147.114 190.378 146.265 189.765 145.784Z" fill="white"/>
<path d="M183.131 138.878C182.352 138.878 182.352 140.086 183.131 140.086C183.91 140.086 183.91 138.878 183.131 138.878Z" fill="white"/>
<path d="M190.869 146.897C190.089 146.897 190.089 148.106 190.869 148.106C191.648 148.106 191.648 146.897 190.869 146.897Z" fill="white"/>
<path d="M175.477 100.14C174.222 99.5029 173.435 97.8766 173.177 96.5517C173.027 95.7865 171.862 96.1114 172.01 96.8731C172.325 98.4854 173.351 100.414 174.868 101.183C175.56 101.535 176.173 100.492 175.477 100.14Z" fill="#FD6085"/>
<path d="M264.737 139.862C264.21 140.882 263.421 141.598 262.374 142.063C261.663 142.379 262.279 143.421 262.985 143.107C264.2 142.567 265.17 141.653 265.781 140.472C266.139 139.781 265.096 139.17 264.737 139.862Z" fill="#FD6085"/>
</svg>
