<svg width="393" height="393" viewBox="0 0 393 393" fill="none" xmlns="http://www.w3.org/2000/svg">
<path d="M79.3832 235.024C83.6256 262.657 66.0253 303.288 101.226 318.701C148.236 339.299 177.696 287.17 215.886 277.628C245.026 270.339 295.386 323.247 331.676 289.659C367.966 256.072 306.852 210.216 304.551 182.886C302.274 155.859 352.872 108.701 312.29 79.9628C272.454 51.7892 227.114 105.606 189.44 115.655C155.943 124.574 74.633 82.1577 50.4561 123.738C27.5569 163.108 75.2882 208.341 79.3832 235.024Z" fill="#E3DFF1"/>
<path d="M196.5 344C284.201 344 355.296 339.849 355.296 334.729C355.296 329.609 284.201 325.458 196.5 325.458C108.8 325.458 37.7043 329.609 37.7043 334.729C37.7043 339.849 108.8 344 196.5 344Z" fill="#F5F5F5"/>
<path d="M275.828 219.823H337.818C340.103 219.823 342.295 220.731 343.911 222.347C345.526 223.963 346.434 226.154 346.434 228.439V275.556C346.434 277.841 345.526 280.033 343.911 281.649C342.295 283.264 340.103 284.172 337.818 284.172H291.012C290.561 287.856 288.782 291.248 286.007 293.712C283.232 296.176 279.654 297.542 275.943 297.555C275.599 297.555 275.263 297.555 274.919 297.506C277.376 294.311 279.317 289.692 280.611 284.18H275.869C273.584 284.18 271.392 283.273 269.777 281.657C268.161 280.041 267.253 277.85 267.253 275.565V228.439C267.253 226.161 268.155 223.976 269.762 222.361C271.369 220.747 273.55 219.834 275.828 219.823Z" fill="white"/>
<path d="M272.896 238.144L269.833 232.96L271.75 229.684C271.874 229.472 271.949 229.234 271.969 228.989C271.988 228.743 271.953 228.497 271.864 228.267L271.717 227.899C271.602 227.592 271.398 227.326 271.131 227.136C270.864 226.946 270.546 226.841 270.218 226.834L267.212 226.752C266.907 226.742 266.605 226.816 266.34 226.968C266.075 227.12 265.858 227.343 265.713 227.612L265.107 228.726C264.961 228.995 264.879 229.294 264.869 229.6C264.859 229.905 264.921 230.209 265.05 230.487L266.344 233.28L268.744 239.7L272.896 238.144Z" fill="#EBB376"/>
<path d="M297.294 237.235L279.792 249.971L271.602 234.59L266.934 236.613C266.934 236.613 274.133 259.922 278.318 258.98C282.503 258.038 294.313 252.198 298.154 248.193C300.095 246.171 301.569 242.46 299.653 237.874C299.564 237.654 299.426 237.458 299.249 237.301C299.072 237.144 298.861 237.03 298.632 236.968C298.404 236.906 298.164 236.898 297.932 236.944C297.7 236.991 297.481 237.09 297.294 237.235Z" fill="#6348EC"/>
<path d="M303.83 206.908C303.83 206.908 297.655 208.546 300.513 215.99C300.513 215.99 303.592 215.171 304.092 213.189C304.591 211.207 305.067 208.407 305.067 208.407L303.83 206.908Z" fill="#263238"/>
<path opacity="0.3" d="M303.83 206.908C303.83 206.908 297.655 208.546 300.513 215.99C300.513 215.99 303.592 215.171 304.092 213.189C304.591 211.207 305.067 208.407 305.067 208.407L303.83 206.908Z" fill="black"/>
<path d="M318.433 236.498L307.147 236.13L302.478 236.801L301.84 245.311L310.939 248.333L320.644 246.4L321.152 238.202L320.455 236.564L318.433 236.498Z" fill="#EBB376"/>
<path d="M303.068 284.172H319.039C319.194 278.546 320.03 249.332 319.858 249.512C319.686 249.692 321.545 243.288 321.545 243.288V240.692L319.858 237.907C319.858 237.907 316.238 243.427 310.275 243.157C304.624 242.895 303.65 237.252 303.65 237.252L302.97 245.876L302.257 266.76L303.166 275.605L303.068 284.172Z" fill="#6348EC"/>
<path opacity="0.6" d="M303.068 284.172H319.039C319.194 278.546 320.03 249.332 319.858 249.512C319.686 249.692 321.545 243.288 321.545 243.288V240.692L319.858 237.907C319.858 237.907 316.238 243.427 310.275 243.157C304.624 242.895 303.65 237.252 303.65 237.252L302.97 245.876L302.257 266.76L303.166 275.605L303.068 284.172Z" fill="white"/>
<path d="M296.713 284.172H305.361C307.065 272.903 307.294 252.297 307.294 252.297C306.261 248.352 305.454 244.352 304.878 240.315C304.354 235.589 311.102 236.22 316.999 236.998C322.896 237.776 312.413 252.69 312.413 252.69C312.413 252.69 311.668 272.845 313.396 284.172H334.69C333.625 281.166 330.48 271.936 329.776 265.393C328.867 257.481 334.313 245.941 333.535 240.315C332.757 234.688 314.092 235.835 314.092 235.835C314.092 235.835 302.143 235.753 299.481 235.876C296.369 236.015 295.124 244.213 293.65 250.692C292.175 257.17 294.886 263.583 296.369 271.732C297.104 275.838 297.22 280.031 296.713 284.172Z" fill="#263238"/>
<path d="M306.246 235.81C310.128 235.81 314.133 235.81 314.133 235.81C314.133 235.81 316.516 235.663 319.612 235.728C320.849 236.547 322.478 238.529 321.184 242.673L318.482 243.714L318.973 246.375C318.973 246.375 315.861 251.289 312.421 253.173C312.421 252.845 312.421 252.665 312.421 252.665C312.421 252.665 322.912 237.751 317.007 236.973C311.102 236.195 304.362 235.564 304.886 240.29C305.463 244.327 306.269 248.327 307.302 252.272C307.302 252.272 307.302 252.354 307.302 252.493C305.664 251.011 304.231 248.398 303.207 245.27L304.313 242.207L301.856 240.863C302.066 239.704 302.584 238.623 303.357 237.734C304.129 236.845 305.127 236.18 306.246 235.81Z" fill="#6348EC"/>
<path d="M306.082 240.274C305.893 239.839 305.816 239.363 305.859 238.891C305.902 238.419 306.063 237.965 306.328 237.571C310.767 236.072 310.357 232.739 309.333 229.651L316.483 222.354C316.066 226.236 315.91 235.171 318.449 238.284V238.996C317.345 240.415 315.867 241.498 314.182 242.125C312.497 242.751 310.67 242.896 308.907 242.542C308.282 242.437 307.694 242.173 307.2 241.776C306.705 241.379 306.32 240.862 306.082 240.274Z" fill="#EBB376"/>
<path opacity="0.1" d="M309.333 229.651L315.017 223.853L316.328 224.328C316.287 225.024 316.262 225.786 316.254 226.588C315.533 228.062 313.797 230.135 309.768 231.175C309.651 230.659 309.506 230.151 309.333 229.651Z" fill="black"/>
<path d="M320.169 215.917C318.441 222.526 317.851 225.36 313.797 228.128C307.704 232.297 299.964 228.734 299.678 221.74C299.424 215.442 302.282 205.696 309.358 204.32C310.916 204.009 312.527 204.103 314.039 204.59C315.551 205.078 316.913 205.943 317.996 207.105C319.079 208.267 319.847 209.686 320.227 211.229C320.608 212.771 320.588 214.384 320.169 215.917Z" fill="#EBB376"/>
<path d="M304.419 217.62C303.69 218.768 302.808 219.812 301.799 220.724C302.035 220.976 302.325 221.174 302.646 221.302C302.967 221.431 303.312 221.488 303.658 221.47L304.419 217.62Z" fill="#ED893E"/>
<path d="M311.471 215.188C311.517 215.186 311.563 215.172 311.602 215.147C311.633 215.129 311.66 215.105 311.681 215.077C311.702 215.049 311.717 215.016 311.726 214.982C311.734 214.947 311.736 214.912 311.73 214.877C311.724 214.842 311.711 214.808 311.692 214.778C311.441 214.336 311.086 213.961 310.658 213.685C310.23 213.41 309.742 213.243 309.235 213.198C309.2 213.197 309.164 213.203 309.131 213.215C309.098 213.228 309.067 213.247 309.042 213.271C309.016 213.295 308.995 213.325 308.98 213.357C308.966 213.389 308.958 213.424 308.957 213.46C308.954 213.495 308.959 213.53 308.971 213.563C308.983 213.596 309.001 213.627 309.024 213.653C309.048 213.679 309.077 213.7 309.109 213.714C309.141 213.729 309.175 213.737 309.21 213.738C309.627 213.784 310.027 213.929 310.377 214.159C310.728 214.39 311.018 214.7 311.225 215.065C311.252 215.105 311.289 215.137 311.332 215.159C311.375 215.18 311.423 215.19 311.471 215.188Z" fill="#263238"/>
<path d="M300.513 213.198C300.556 213.21 300.601 213.21 300.644 213.198C301.003 212.984 301.408 212.858 301.825 212.831C302.242 212.804 302.66 212.877 303.044 213.042C303.108 213.074 303.182 213.08 303.251 213.059C303.32 213.038 303.377 212.99 303.412 212.927C303.429 212.895 303.439 212.86 303.442 212.824C303.445 212.788 303.44 212.751 303.429 212.717C303.417 212.683 303.399 212.651 303.375 212.624C303.351 212.597 303.322 212.575 303.289 212.559C302.825 212.352 302.319 212.26 301.812 212.288C301.305 212.317 300.812 212.466 300.374 212.723C300.311 212.757 300.263 212.815 300.242 212.884C300.221 212.953 300.227 213.027 300.259 213.091C300.284 213.136 300.321 213.173 300.366 213.198C300.411 213.222 300.462 213.234 300.513 213.23V213.198Z" fill="#263238"/>
<path d="M306.426 223.288C306.11 223.289 305.795 223.262 305.484 223.206C305.462 223.203 305.442 223.196 305.423 223.184C305.404 223.173 305.388 223.159 305.375 223.141C305.362 223.123 305.353 223.103 305.347 223.082C305.342 223.061 305.341 223.039 305.345 223.018C305.353 222.975 305.377 222.937 305.412 222.911C305.447 222.885 305.49 222.873 305.533 222.878C306.224 223.014 306.937 222.986 307.616 222.797C308.294 222.608 308.919 222.263 309.44 221.789C309.472 221.767 309.511 221.756 309.55 221.759C309.589 221.762 309.626 221.778 309.655 221.805C309.684 221.832 309.702 221.867 309.708 221.906C309.714 221.945 309.706 221.985 309.686 222.018C308.802 222.844 307.635 223.299 306.426 223.288Z" fill="#263238"/>
<path d="M317.9 221.085C317.101 220.177 316.507 219.106 316.161 217.947C315.814 216.787 315.723 215.567 315.894 214.369C315.894 214.369 313.232 211.642 313.363 208.726C313.363 208.726 312.544 211.052 313.363 212.706C313.363 212.706 306.459 212.207 306.623 208.726C306.623 208.726 306.164 210.479 307.204 211.388C307.204 211.388 301.07 211.642 301.905 208.464C302.74 205.286 307.54 203.738 307.54 203.738C307.54 203.738 312.118 199.848 318.449 206.719C318.449 206.719 325.902 211.371 320.619 219.135L317.9 221.085Z" fill="#263238"/>
<path d="M320.668 221.519C320.369 222.104 319.955 222.622 319.451 223.044C318.948 223.466 318.365 223.783 317.736 223.976C316.098 224.484 315.189 222.993 315.623 221.396C316.016 219.954 317.36 217.956 319.063 218.12C319.654 218.207 320.186 218.525 320.542 219.004C320.898 219.483 321.05 220.084 320.963 220.675C320.925 220.974 320.824 221.261 320.668 221.519Z" fill="#EBB376"/>
<path d="M309.391 216.678C309.325 217.243 308.973 217.678 308.572 217.637C308.17 217.596 307.949 217.112 308.015 216.531C308.08 215.949 308.424 215.54 308.793 215.573C309.161 215.605 309.448 216.105 309.391 216.678Z" fill="#2E353A"/>
<path d="M302.97 216.007C302.912 216.572 302.56 216.998 302.192 216.965C301.823 216.932 301.561 216.433 301.618 215.859C301.676 215.286 302.028 214.86 302.437 214.901C302.847 214.942 302.97 215.425 302.97 216.007Z" fill="#2E353A"/>
<path d="M302.519 214.95L301.193 214.41C301.193 214.41 301.782 215.548 302.519 214.95Z" fill="#2E353A"/>
<path d="M308.981 215.655L307.646 215.122C307.646 215.122 308.244 216.228 308.981 215.655Z" fill="#2E353A"/>
<path d="M317.327 227.047C317.756 227.048 318.176 226.924 318.536 226.69C318.896 226.456 319.18 226.123 319.354 225.73C319.527 225.338 319.583 224.904 319.514 224.48C319.445 224.056 319.254 223.662 318.965 223.345L318.678 223.607C318.987 223.942 319.156 224.381 319.153 224.836C319.155 225.198 319.049 225.552 318.849 225.853C318.649 226.155 318.364 226.39 318.03 226.53C317.696 226.669 317.328 226.706 316.973 226.636C316.618 226.565 316.291 226.391 316.035 226.135C315.78 225.879 315.605 225.553 315.535 225.198C315.465 224.843 315.502 224.475 315.641 224.141C315.78 223.807 316.016 223.522 316.317 223.322C316.619 223.122 316.973 223.016 317.335 223.018C317.592 223.015 317.846 223.068 318.08 223.173L318.236 222.821C317.954 222.69 317.646 222.623 317.335 222.624C317.045 222.624 316.757 222.682 316.489 222.793C316.221 222.904 315.977 223.067 315.771 223.272C315.566 223.477 315.403 223.721 315.292 223.989C315.181 224.258 315.124 224.545 315.124 224.836C315.124 225.126 315.181 225.414 315.292 225.682C315.403 225.95 315.566 226.194 315.771 226.399C315.977 226.605 316.221 226.768 316.489 226.879C316.757 226.99 317.045 227.047 317.335 227.047H317.327Z" fill="#6348EC"/>
<g opacity="0.6">
<path d="M317.327 227.047C317.756 227.048 318.176 226.924 318.536 226.69C318.896 226.456 319.18 226.123 319.354 225.73C319.527 225.338 319.583 224.904 319.514 224.48C319.445 224.056 319.254 223.662 318.965 223.345L318.678 223.607C318.987 223.942 319.156 224.381 319.153 224.836C319.155 225.198 319.049 225.552 318.849 225.853C318.649 226.155 318.364 226.39 318.03 226.53C317.696 226.669 317.328 226.706 316.973 226.636C316.618 226.565 316.291 226.391 316.035 226.135C315.78 225.879 315.605 225.553 315.535 225.198C315.465 224.843 315.502 224.475 315.641 224.141C315.78 223.807 316.016 223.522 316.317 223.322C316.619 223.122 316.973 223.016 317.335 223.018C317.592 223.015 317.846 223.068 318.08 223.173L318.236 222.821C317.954 222.69 317.646 222.623 317.335 222.624C317.045 222.624 316.757 222.682 316.489 222.793C316.221 222.904 315.977 223.067 315.771 223.272C315.566 223.477 315.403 223.721 315.292 223.989C315.181 224.258 315.124 224.545 315.124 224.836C315.124 225.126 315.181 225.414 315.292 225.682C315.403 225.95 315.566 226.194 315.771 226.399C315.977 226.605 316.221 226.768 316.489 226.879C316.757 226.99 317.045 227.047 317.335 227.047H317.327Z" fill="white"/>
</g>
<path d="M315.804 260.495L309.792 260.757L307.777 257.481C307.648 257.27 307.472 257.091 307.264 256.958C307.055 256.824 306.819 256.74 306.574 256.711L306.18 256.662C305.857 256.62 305.528 256.675 305.236 256.821C304.944 256.967 304.703 257.197 304.542 257.481L303.052 260.094C302.899 260.358 302.824 260.66 302.834 260.966C302.844 261.271 302.939 261.568 303.109 261.822L303.805 262.878C303.972 263.135 304.197 263.349 304.461 263.502C304.726 263.656 305.023 263.745 305.329 263.763L308.4 263.935L315.198 264.852L315.804 260.495Z" fill="#EBB376"/>
<path d="M326.492 238.587L329.481 260.02H312.044L311.627 265.089C311.627 265.089 335.582 269.733 336.721 265.597C337.859 261.461 338.277 248.3 336.557 243.017C335.681 240.356 333.109 237.284 328.162 236.834C327.931 236.813 327.697 236.845 327.479 236.927C327.262 237.009 327.065 237.139 326.905 237.308C326.744 237.476 326.624 237.679 326.552 237.9C326.481 238.121 326.46 238.356 326.492 238.587Z" fill="#6348EC"/>
<path d="M250.3 114.918H231.16L211.865 335.556H231.005C235.378 335.477 239.57 333.798 242.789 330.837C246.008 327.876 248.03 323.838 248.474 319.487L264.96 130.995C265.188 128.948 264.976 126.877 264.34 124.918C263.703 122.96 262.656 121.16 261.269 119.639C259.881 118.117 258.185 116.909 256.294 116.095C254.402 115.281 252.359 114.88 250.3 114.918Z" fill="#263238"/>
<path d="M262.159 137.031C262.201 136.62 262.389 136.237 262.69 135.954C262.991 135.671 263.384 135.507 263.797 135.491C263.995 135.488 264.19 135.526 264.372 135.604C264.553 135.682 264.716 135.798 264.849 135.943C264.982 136.089 265.083 136.261 265.144 136.449C265.206 136.636 265.227 136.834 265.206 137.031L263.912 151.773C263.892 152.202 263.712 152.608 263.407 152.911C263.102 153.215 262.695 153.393 262.266 153.411C262.069 153.413 261.874 153.374 261.694 153.295C261.514 153.217 261.352 153.101 261.22 152.955C261.087 152.81 260.987 152.638 260.926 152.451C260.865 152.264 260.844 152.066 260.865 151.871L262.159 137.031Z" fill="#6348EC"/>
<path opacity="0.3" d="M262.159 137.031C262.201 136.62 262.389 136.237 262.69 135.954C262.991 135.671 263.384 135.507 263.797 135.491C263.995 135.488 264.19 135.526 264.372 135.604C264.553 135.682 264.716 135.798 264.849 135.943C264.982 136.089 265.083 136.261 265.144 136.449C265.206 136.636 265.227 136.834 265.206 137.031L263.912 151.773C263.892 152.202 263.712 152.608 263.407 152.911C263.102 153.215 262.695 153.393 262.266 153.411C262.069 153.413 261.874 153.374 261.694 153.295C261.514 153.217 261.352 153.101 261.22 152.955C261.087 152.81 260.987 152.638 260.926 152.451C260.865 152.264 260.844 152.066 260.865 151.871L262.159 137.031Z" fill="white"/>
<path d="M227.081 335.556H148.22C146.162 335.593 144.12 335.191 142.23 334.377C140.34 333.563 138.645 332.356 137.258 330.835C135.871 329.315 134.824 327.517 134.186 325.56C133.549 323.603 133.335 321.533 133.56 319.488L150.055 130.995C150.493 126.641 152.514 122.599 155.734 119.636C158.953 116.673 163.149 114.994 167.524 114.918H246.385C248.442 114.881 250.483 115.283 252.373 116.097C254.262 116.91 255.957 118.117 257.344 119.636C258.731 121.156 259.778 122.953 260.416 124.909C261.054 126.864 261.269 128.933 261.045 130.978L244.551 319.488C244.107 323.839 242.084 327.876 238.865 330.837C235.646 333.798 231.454 335.477 227.081 335.556Z" fill="#6348EC"/>
<path d="M246.066 118.62H225.591C224.924 118.633 224.281 118.869 223.764 119.291C223.248 119.712 222.887 120.295 222.741 120.946L222.602 121.593C222.246 123.183 221.366 124.608 220.104 125.639C218.842 126.669 217.27 127.246 215.64 127.276H196.132C194.588 127.309 193.095 126.73 191.978 125.665C190.86 124.6 190.21 123.136 190.169 121.593V120.946C190.161 120.632 190.091 120.322 189.962 120.035C189.834 119.748 189.651 119.49 189.423 119.274C189.195 119.057 188.926 118.889 188.633 118.776C188.339 118.664 188.026 118.611 187.712 118.62H167.237C163.87 118.682 160.642 119.975 158.162 122.255C155.683 124.535 154.125 127.644 153.781 130.995L137.246 319.487C137.072 321.064 137.236 322.659 137.727 324.167C138.218 325.674 139.025 327.06 140.094 328.232C141.162 329.404 142.468 330.334 143.924 330.961C145.381 331.589 146.954 331.899 148.54 331.871H227.409C230.778 331.808 234.007 330.514 236.487 328.232C238.966 325.95 240.524 322.84 240.865 319.487L257.36 130.995C257.532 129.419 257.367 127.825 256.876 126.318C256.384 124.811 255.577 123.427 254.509 122.256C253.44 121.085 252.135 120.155 250.679 119.528C249.223 118.901 247.651 118.592 246.066 118.62Z" fill="#6348EC"/>
<path opacity="0.7" d="M246.066 118.62H225.591C224.924 118.633 224.281 118.869 223.764 119.291C223.248 119.712 222.887 120.295 222.741 120.946L222.602 121.593C222.246 123.183 221.366 124.608 220.104 125.639C218.842 126.669 217.27 127.246 215.64 127.276H196.132C194.588 127.309 193.095 126.73 191.978 125.665C190.86 124.6 190.21 123.136 190.169 121.593V120.946C190.161 120.632 190.091 120.322 189.962 120.035C189.834 119.748 189.651 119.49 189.423 119.274C189.195 119.057 188.926 118.889 188.633 118.776C188.339 118.664 188.026 118.611 187.712 118.62H167.237C163.87 118.682 160.642 119.975 158.162 122.255C155.683 124.535 154.125 127.644 153.781 130.995L137.246 319.487C137.072 321.064 137.236 322.659 137.727 324.167C138.218 325.674 139.025 327.06 140.094 328.232C141.162 329.404 142.468 330.334 143.924 330.961C145.381 331.589 146.954 331.899 148.54 331.871H227.409C230.778 331.808 234.007 330.514 236.487 328.232C238.966 325.95 240.524 322.84 240.865 319.487L257.36 130.995C257.532 129.419 257.367 127.825 256.876 126.318C256.384 124.811 255.577 123.427 254.509 122.256C253.44 121.085 252.135 120.155 250.679 119.528C249.223 118.901 247.651 118.592 246.066 118.62Z" fill="white"/>
<g opacity="0.2">
<path d="M201.143 121.782C201.797 121.157 201.862 120.165 201.29 119.567C200.717 118.969 199.724 118.991 199.07 119.617C198.417 120.242 198.351 121.234 198.923 121.832C199.496 122.43 200.49 122.408 201.143 121.782Z" fill="black"/>
<path d="M212.921 119.144H207.548C207.122 119.151 206.714 119.315 206.4 119.603C206.086 119.891 205.889 120.284 205.845 120.708C205.824 120.908 205.846 121.109 205.908 121.3C205.971 121.49 206.074 121.665 206.209 121.813C206.345 121.961 206.51 122.078 206.694 122.157C206.879 122.237 207.078 122.276 207.278 122.272H212.651C213.076 122.263 213.484 122.099 213.797 121.811C214.111 121.523 214.309 121.131 214.354 120.708C214.377 120.508 214.356 120.306 214.293 120.115C214.231 119.924 214.129 119.749 213.993 119.6C213.857 119.452 213.691 119.335 213.506 119.256C213.322 119.177 213.122 119.139 212.921 119.144Z" fill="black"/>
</g>
<path d="M162.651 127.252H164.305L164.453 125.589H162.79L162.651 127.252Z" fill="#6348EC"/>
<path d="M166.115 125.589L165.968 127.252H167.622L167.77 125.589L167.917 123.935H166.254L166.115 125.589Z" fill="#6348EC"/>
<path d="M169.719 122.272L169.571 123.935L169.424 125.589L169.285 127.252H170.939L171.086 125.589L171.234 123.935L171.373 122.272H169.719Z" fill="#6348EC"/>
<path d="M241.029 122.387L240.923 123.599H240.104L239.891 126.056H240.71L240.603 127.276H247.9L248.326 122.412L241.029 122.387ZM243.953 126.032H241.496L241.709 123.575H244.166L243.953 126.032Z" fill="#6348EC"/>
<g opacity="0.4">
<path d="M196.189 127.276L141.75 329.709C143.726 331.132 146.104 331.889 148.54 331.871H152.798L207.819 127.276H196.189Z" fill="white"/>
<path d="M246.066 118.62H225.591C224.924 118.633 224.281 118.869 223.765 119.291C223.248 119.712 222.887 120.295 222.741 120.946L222.602 121.593C222.256 123.141 221.413 124.533 220.202 125.558C218.991 126.583 217.478 127.183 215.894 127.268L160.841 331.871H202.815L257.36 129.037C257.185 126.179 255.912 123.499 253.808 121.558C251.703 119.616 248.929 118.564 246.066 118.62Z" fill="white"/>
</g>
<path d="M163.666 173.558L161.209 173.026C161.051 172.995 160.901 172.929 160.771 172.834C160.64 172.739 160.532 172.617 160.454 172.475C160.376 172.334 160.33 172.178 160.319 172.016C160.308 171.855 160.332 171.694 160.39 171.543L163.822 162.583L167.745 163.402L164.952 172.764C164.879 173.035 164.705 173.267 164.466 173.415C164.227 173.562 163.941 173.614 163.666 173.558Z" fill="#6348EC"/>
<path d="M173.183 162.092C173.022 162.057 172.869 161.991 172.733 161.896C172.597 161.802 172.481 161.682 172.392 161.542C172.303 161.403 172.242 161.247 172.214 161.085C172.185 160.922 172.189 160.755 172.225 160.593L172.553 159.054C172.588 158.891 172.654 158.737 172.749 158.601C172.844 158.464 172.965 158.348 173.106 158.259C173.246 158.17 173.402 158.109 173.566 158.081C173.73 158.053 173.898 158.058 174.06 158.095C174.387 158.166 174.672 158.364 174.853 158.645C175.034 158.926 175.097 159.267 175.026 159.594L174.69 161.126C174.618 161.453 174.419 161.739 174.136 161.92C173.854 162.101 173.511 162.163 173.183 162.092Z" fill="#6348EC"/>
<path d="M170.759 154.459C170.759 154.459 161.422 153.394 158.155 151.724C150.472 147.776 143.126 138.358 141.57 138.022C139.031 137.465 135.575 143.476 133.838 151.445C132.102 159.414 132.757 166.31 135.296 166.859C136.861 167.203 147.442 161.683 156.074 161.281C159.743 161.118 168.654 164.058 168.654 164.058L170.759 154.459Z" fill="#6348EC"/>
<path opacity="0.3" d="M170.759 154.459C170.759 154.459 161.422 153.394 158.155 151.724C150.472 147.776 143.126 138.358 141.57 138.022C139.031 137.465 135.575 143.476 133.838 151.445C132.102 159.414 132.757 166.31 135.296 166.859C136.861 167.203 147.442 161.683 156.074 161.281C159.743 161.118 168.654 164.058 168.654 164.058L170.759 154.459Z" fill="white"/>
<path d="M143.028 153.411C141.3 161.371 137.835 167.383 135.296 166.826C132.757 166.269 132.11 159.373 133.839 151.412C135.567 143.452 139.031 137.432 141.57 137.989C144.109 138.546 144.764 145.475 143.028 153.411Z" fill="#6348EC"/>
<path opacity="0.4" d="M143.028 153.411C141.3 161.371 137.835 167.383 135.296 166.826C132.757 166.269 132.11 159.373 133.839 151.412C135.567 143.452 139.031 137.432 141.57 137.989C144.109 138.546 144.764 145.475 143.028 153.411Z" fill="black"/>
<path d="M169.244 153.411L164.911 152.469C164.632 152.407 164.344 152.404 164.064 152.459C163.783 152.514 163.517 152.626 163.282 152.788C163.047 152.95 162.848 153.159 162.697 153.401C162.546 153.644 162.447 153.914 162.405 154.197C162.25 155.286 162.053 156.408 161.807 157.555C161.562 158.701 161.267 159.807 160.988 160.831C160.909 161.106 160.887 161.394 160.923 161.678C160.96 161.962 161.055 162.235 161.201 162.481C161.348 162.727 161.544 162.94 161.776 163.107C162.009 163.274 162.273 163.391 162.553 163.452L167.688 164.566C170.767 165.237 172.987 163.067 173.609 159.971C173.888 158.523 173.586 157.024 172.769 155.797C171.953 154.57 170.687 153.713 169.244 153.411Z" fill="#263238"/>
<path d="M138.572 151.814L138.302 153.067C138.223 153.417 138.272 153.784 138.438 154.102C138.604 154.42 138.878 154.668 139.211 154.803L142.356 156.113C142.602 155.254 142.831 154.361 143.028 153.444C143.224 152.526 143.396 151.609 143.535 150.724L140.12 150.61C139.762 150.598 139.411 150.712 139.128 150.932C138.845 151.152 138.649 151.464 138.572 151.814Z" fill="#263238"/>
<path opacity="0.8" d="M138.572 151.814L138.302 153.067C138.223 153.417 138.272 153.784 138.438 154.102C138.604 154.42 138.878 154.668 139.211 154.803L142.356 156.113C142.602 155.254 142.831 154.361 143.028 153.444C143.224 152.526 143.396 151.609 143.535 150.724L140.12 150.61C139.762 150.598 139.411 150.712 139.128 150.932C138.845 151.152 138.649 151.464 138.572 151.814Z" fill="white"/>
<path opacity="0.2" d="M140.947 152.985C140.775 153.804 140.587 154.541 140.382 155.294L142.356 156.113C142.602 155.253 142.831 154.361 143.027 153.443C143.224 152.526 143.396 151.609 143.535 150.724L141.389 150.651C141.269 151.399 141.122 152.177 140.947 152.985Z" fill="black"/>
<path d="M216.615 153.476C217.397 153.776 218.239 153.885 219.072 153.795C219.905 153.706 220.705 153.419 221.406 152.96C223.92 151.322 228.638 153.386 227.213 160.094C224.756 171.625 219.629 179.905 222.954 183.394C222.954 183.394 211.881 183.902 213.519 174.123C214.747 166.752 223.077 158.464 221.07 156.81C220.398 156.253 219.432 156.539 216.279 156.539L216.615 153.476Z" fill="#263238"/>
<path d="M216.279 156.539C217.796 156.489 219.313 156.671 220.775 157.08C221.291 155.595 221.492 154.019 221.365 152.453C219.752 152.638 218.161 152.981 216.615 153.476L216.279 156.539Z" fill="#6348EC"/>
<path d="M205.853 145.073C205.853 145.073 201.25 143.763 204.289 140.79C208.253 136.916 213.887 144.172 213.887 144.172C213.887 144.172 227.098 149.946 216.197 163.337C216.197 163.337 212.258 170.38 211.439 167.637C210.62 164.893 216.09 157.121 216.09 157.121L215.763 150.159L214.248 147.448L209.489 144.729L205.853 145.073Z" fill="#263238"/>
<path d="M187.598 184.295C187.285 183.785 186.876 183.34 186.392 182.988C185.908 182.636 185.359 182.383 184.777 182.243C184.195 182.103 183.592 182.079 183 182.173C182.409 182.266 181.842 182.475 181.332 182.788H181.267C179.833 183.665 178.31 184.639 176.803 185.54L172.258 188.267C170.128 189.518 167.988 190.733 165.837 191.912C165.714 190.277 165.686 188.636 165.755 186.998C165.812 185.081 165.951 183.124 166.099 181.167C166.246 179.209 166.443 177.203 166.607 175.262V175.213C166.648 174.667 166.492 174.125 166.166 173.685C165.84 173.245 165.367 172.937 164.833 172.818C164.299 172.699 163.74 172.776 163.258 173.035C162.776 173.294 162.403 173.718 162.209 174.23C161.48 176.204 160.906 178.153 160.333 180.151C159.76 182.149 159.326 184.164 158.941 186.244C158.521 188.404 158.29 190.597 158.253 192.796C158.22 194.181 158.4 195.562 158.785 196.891C159.136 198.081 159.818 199.146 160.751 199.963C161.458 200.56 162.302 200.974 163.208 201.167C163.998 201.32 164.809 201.32 165.599 201.167C165.789 201.124 165.975 201.067 166.156 200.995L166.426 200.888C168.171 200.167 169.907 199.447 171.594 198.628C173.281 197.809 174.969 196.99 176.615 196.13C178.261 195.27 179.891 194.344 181.529 193.386C183.167 192.428 184.69 191.47 186.303 190.356C187.241 189.693 187.895 188.701 188.135 187.578C188.374 186.455 188.183 185.283 187.598 184.295Z" fill="#CE7A63"/>
<path d="M191.586 178.316C194.346 183.877 190.374 188.701 183.093 196.433C179.29 193.349 176.634 189.078 175.55 184.303C175.55 184.303 183.969 177.358 191.586 178.316Z" fill="#6348EC"/>
<path opacity="0.2" d="M191.873 184.918C189.178 183.28 186.14 182.543 184.035 185.221C182.392 187.377 180.488 189.322 178.367 191.011C179.657 193.056 181.26 194.886 183.118 196.433C187.491 191.814 190.62 188.235 191.873 184.918Z" fill="black"/>
<path d="M164.559 164.877L166.426 166.113C166.775 166.34 167.063 166.648 167.267 167.01C167.471 167.372 167.584 167.778 167.598 168.194L167.745 172.133C167.769 172.908 167.61 173.678 167.28 174.38C166.949 175.082 166.458 175.695 165.845 176.171L165.067 176.769C161.791 174.926 159.67 170.552 159.67 170.552L158.916 169.373C158.755 169.135 158.642 168.868 158.585 168.587C158.527 168.305 158.526 168.015 158.582 167.733C158.637 167.451 158.748 167.183 158.908 166.944C159.069 166.706 159.274 166.501 159.514 166.343L161.824 164.819C162.236 164.564 162.714 164.433 163.2 164.443C163.685 164.454 164.157 164.604 164.559 164.877Z" fill="#CE7A63"/>
<path d="M185.19 331.871C189.432 318.767 192.332 304.213 189.449 293.591C206.975 242.108 199.072 227.121 199.072 227.121L178.212 219.512C178.212 219.512 175.231 265.876 174.33 288.308C173.83 300.847 171.693 317.153 169.228 331.879L185.19 331.871Z" fill="#263238"/>
<path opacity="0.5" d="M196.009 246.171L191.774 239.34L189.186 244.664C187.836 259.342 188.475 274.136 191.086 288.644C194.46 278.511 197.126 268.156 199.064 257.653L196.009 246.171Z" fill="black"/>
<path d="M198.007 331.871H213.822C215.46 318.251 215.46 303.599 210.628 293.804C217.999 239.922 207.352 226.728 207.352 226.728L185.419 223.255C185.419 223.255 191.373 269.332 194.788 291.502C196.549 302.985 197.548 317.882 198.007 331.871Z" fill="#263238"/>
<path d="M181.824 188.669C180.897 192.655 180.241 196.699 179.858 200.773C179.154 206.711 178.638 212.575 177.958 222.379L207.655 227.121C208.384 218.669 210.865 209.291 219.178 191.314C219.648 190.379 219.902 189.351 219.923 188.304C219.944 187.258 219.731 186.221 219.299 185.267C218.868 184.314 218.228 183.47 217.428 182.796C216.627 182.122 215.686 181.635 214.674 181.371C213.519 181.068 212.29 180.774 211.021 180.503C206.581 179.474 202.073 178.762 197.532 178.374C196.05 178.276 194.502 178.218 193.019 178.185C187.663 178.046 182.815 183.468 181.824 188.669Z" fill="#6348EC"/>
<path d="M212.471 165.131C210.611 169.283 207.917 177.006 210.276 180.348C210.276 180.348 206.263 179.078 196.688 183.091C194.731 179.07 196.795 178.177 196.795 178.177C201.897 177.809 202.61 174.238 202.528 170.806L212.471 165.131Z" fill="#CE7A63"/>
<path d="M198.695 182.297C199.21 182.486 199.678 182.784 200.068 183.169C200.458 183.555 200.761 184.02 200.956 184.533C201.118 184.906 201.358 185.24 201.66 185.513C201.961 185.786 202.317 185.993 202.704 186.119C203.09 186.245 203.499 186.288 203.904 186.245C204.308 186.201 204.699 186.073 205.051 185.868C207.508 184.484 210.603 182.51 212.151 180.757C211.349 180.147 210.581 179.493 209.85 178.8C209.85 178.8 200.636 180.905 198.695 182.297Z" fill="white"/>
<path d="M196.033 181.404C195.332 181.517 194.669 181.798 194.1 182.223C193.942 182.338 193.752 182.4 193.557 182.4C193.362 182.4 193.172 182.339 193.014 182.224C192.855 182.11 192.738 181.948 192.677 181.763C192.616 181.577 192.616 181.377 192.675 181.191C193.699 178.292 195.468 177.915 195.468 177.915C196.323 177.59 197.267 177.59 198.122 177.915C197.413 178.15 196.812 178.631 196.429 179.271C196.045 179.912 195.905 180.669 196.033 181.404Z" fill="white"/>
<path opacity="0.2" d="M208.425 167.448L202.561 170.806C202.588 171.628 202.539 172.451 202.413 173.263C204.33 173.263 207.327 171.691 207.983 169.815C208.275 169.06 208.425 168.258 208.425 167.448Z" fill="black"/>
<path d="M217.557 157.014C215.1 163.812 214.281 166.728 209.719 169.455C202.913 173.55 195.075 169.578 195.411 162.313C195.722 155.761 199.637 145.753 207.221 144.582C208.842 144.276 210.515 144.409 212.067 144.967C213.619 145.525 214.993 146.488 216.047 147.757C217.102 149.025 217.798 150.552 218.063 152.18C218.329 153.808 218.154 155.477 217.557 157.014Z" fill="#CE7A63"/>
<path d="M208.425 156.76C208.245 157.342 207.802 157.743 207.426 157.653C207.049 157.563 206.893 157.022 207.065 156.441C207.237 155.859 207.696 155.466 208.073 155.556C208.449 155.647 208.605 156.187 208.425 156.76Z" fill="#263238"/>
<path d="M201.177 154.828C200.996 155.401 200.546 155.802 200.169 155.712C199.793 155.622 199.637 155.081 199.817 154.508C199.997 153.935 200.448 153.525 200.824 153.615C201.201 153.706 201.357 154.23 201.177 154.828Z" fill="#263238"/>
<path d="M200.98 153.689L199.719 152.96C199.719 152.96 200.095 154.23 200.98 153.689Z" fill="#263238"/>
<path d="M203.281 156.023C202.359 157.226 201.285 158.305 200.087 159.234C200.324 159.514 200.621 159.737 200.955 159.887C201.29 160.037 201.654 160.111 202.02 160.102L203.281 156.023Z" fill="#BA4D3C"/>
<path d="M210.628 153.411C210.582 153.407 210.537 153.392 210.497 153.368C210.457 153.344 210.424 153.311 210.399 153.271C210.175 152.905 209.863 152.6 209.491 152.385C209.119 152.171 208.699 152.053 208.269 152.043C208.224 152.044 208.18 152.036 208.138 152.02C208.097 152.003 208.059 151.979 208.027 151.948C207.994 151.916 207.969 151.879 207.952 151.838C207.934 151.796 207.925 151.752 207.925 151.707C207.931 151.611 207.972 151.521 208.04 151.453C208.108 151.385 208.198 151.344 208.294 151.339C208.837 151.348 209.368 151.492 209.842 151.758C210.315 152.024 210.714 152.403 211.005 152.862C211.036 152.923 211.051 152.991 211.047 153.059C211.043 153.127 211.02 153.193 210.981 153.25C210.943 153.306 210.889 153.351 210.827 153.379C210.765 153.408 210.696 153.418 210.628 153.411Z" fill="#263238"/>
<path d="M199.62 149.963C199.58 149.946 199.543 149.922 199.512 149.891C199.481 149.86 199.457 149.823 199.44 149.783C199.412 149.695 199.419 149.599 199.46 149.516C199.501 149.433 199.574 149.37 199.661 149.34C200.186 149.12 200.754 149.023 201.322 149.057C201.89 149.091 202.443 149.255 202.937 149.537C202.974 149.563 203.005 149.596 203.029 149.634C203.052 149.673 203.067 149.716 203.073 149.76C203.08 149.805 203.076 149.85 203.064 149.893C203.052 149.937 203.031 149.977 203.003 150.012C202.946 150.087 202.863 150.137 202.77 150.154C202.678 150.17 202.583 150.152 202.503 150.102C202.108 149.881 201.668 149.755 201.216 149.732C200.765 149.709 200.314 149.791 199.899 149.971C199.854 149.988 199.807 149.996 199.759 149.995C199.711 149.993 199.664 149.983 199.62 149.963Z" fill="#263238"/>
<path d="M208.228 155.63L206.975 154.901C206.975 154.901 207.344 156.154 208.228 155.63Z" fill="#263238"/>
<path d="M181.218 210.995H174.141C173.798 210.979 173.468 210.853 173.202 210.634C172.936 210.416 172.749 210.117 172.667 209.782L169.391 194.451C169.349 194.307 169.342 194.155 169.371 194.007C169.4 193.86 169.463 193.722 169.556 193.604C169.649 193.486 169.769 193.392 169.905 193.33C170.042 193.268 170.191 193.24 170.341 193.247H177.417C177.76 193.261 178.089 193.387 178.355 193.604C178.621 193.821 178.809 194.118 178.892 194.451L182.168 209.782C182.209 209.927 182.216 210.079 182.187 210.227C182.159 210.374 182.095 210.513 182.002 210.631C181.91 210.75 181.79 210.844 181.654 210.907C181.517 210.971 181.368 211 181.218 210.995Z" fill="#263238"/>
<path d="M180.399 210.995H173.323C172.979 210.979 172.649 210.853 172.383 210.634C172.117 210.416 171.93 210.117 171.848 209.782L168.572 194.451C168.531 194.307 168.524 194.155 168.552 194.007C168.581 193.86 168.644 193.722 168.737 193.604C168.83 193.486 168.95 193.392 169.087 193.33C169.223 193.268 169.373 193.24 169.522 193.247H176.599C176.941 193.261 177.27 193.387 177.536 193.604C177.802 193.821 177.99 194.118 178.073 194.451L181.349 209.782C181.39 209.927 181.397 210.079 181.368 210.227C181.34 210.374 181.276 210.513 181.184 210.631C181.091 210.75 180.971 210.844 180.835 210.907C180.698 210.971 180.549 211 180.399 210.995Z" fill="#263238"/>
<path opacity="0.2" d="M180.399 210.995H173.323C172.979 210.979 172.649 210.853 172.383 210.634C172.117 210.416 171.93 210.117 171.848 209.782L168.572 194.451C168.531 194.307 168.524 194.155 168.552 194.007C168.581 193.86 168.644 193.722 168.737 193.604C168.83 193.486 168.95 193.392 169.087 193.33C169.223 193.268 169.373 193.24 169.522 193.247H176.599C176.941 193.261 177.27 193.387 177.536 193.604C177.802 193.821 177.99 194.118 178.073 194.451L181.349 209.782C181.39 209.927 181.397 210.079 181.368 210.227C181.34 210.374 181.276 210.513 181.184 210.631C181.091 210.75 180.971 210.844 180.835 210.907C180.698 210.971 180.549 211 180.399 210.995Z" fill="white"/>
<path d="M177.86 201.961L180.054 201.478C180.46 201.388 180.881 201.396 181.282 201.502C181.684 201.607 182.055 201.807 182.364 202.084L185.296 204.721C185.871 205.243 186.314 205.893 186.588 206.62C186.863 207.346 186.962 208.126 186.877 208.898L186.762 209.864C183.183 210.921 178.572 209.43 178.572 209.43L177.196 209.152C176.913 209.102 176.642 208.997 176.4 208.843C176.158 208.688 175.949 208.487 175.785 208.25C175.621 208.014 175.506 207.748 175.446 207.467C175.386 207.186 175.382 206.895 175.435 206.613L175.951 203.886C176.052 203.416 176.286 202.985 176.624 202.644C176.962 202.303 177.391 202.066 177.86 201.961Z" fill="#CE7A63"/>
<path d="M215.608 186.015C214.407 185.901 213.209 186.268 212.279 187.036C211.348 187.804 210.761 188.909 210.644 190.11V190.266C210.563 191.085 210.456 192.084 210.35 193.009C210.243 193.935 210.112 194.893 209.973 195.835C209.694 197.727 209.359 199.594 208.982 201.445C208.605 203.296 208.163 205.114 207.631 206.891C207.196 208.316 206.697 209.692 206.165 211.036C205.504 211.062 204.843 211.021 204.191 210.913C202.076 210.595 199.985 210.132 197.934 209.529C196.009 208.923 194.068 208.218 192.127 207.481C190.186 206.744 188.228 205.95 186.32 205.188H186.271C185.758 204.974 185.184 204.957 184.658 205.138C184.133 205.32 183.692 205.688 183.421 206.173C183.149 206.658 183.065 207.226 183.184 207.769C183.303 208.312 183.618 208.793 184.068 209.119C185.87 210.446 187.688 211.576 189.563 212.755C191.439 213.935 193.38 214.942 195.403 215.917C197.732 216.937 200.143 217.759 202.61 218.374C203.945 218.742 205.321 218.94 206.705 218.963C207.632 218.974 208.555 218.839 209.441 218.562C210.681 218.182 211.789 217.458 212.635 216.474C212.781 216.291 212.913 216.097 213.028 215.892L213.11 215.737C214.169 213.787 215.088 211.764 215.861 209.684C216.608 207.657 217.242 205.59 217.762 203.493C218.294 201.42 218.703 199.332 219.039 197.235C219.195 196.179 219.334 195.131 219.457 194.074C219.58 193.018 219.67 191.994 219.727 190.798C219.79 189.623 219.396 188.47 218.628 187.579C217.861 186.688 216.778 186.127 215.608 186.015Z" fill="#CE7A63"/>
<path d="M216.975 182.395C222.037 185.974 222.282 191.33 219.547 201.584C215.886 203.419 206.992 201.101 206.992 201.101C206.992 201.101 209.793 185.18 216.975 182.395Z" fill="#6348EC"/>
<path d="M198.76 162.068C198.76 162.068 201.217 161.584 207.892 161.789C207.073 163.787 205.534 165.376 202.086 165.27C201.258 165.324 200.443 165.047 199.82 164.5C199.196 163.954 198.815 163.182 198.76 162.354C198.76 162.256 198.752 162.166 198.76 162.068Z" fill="#263238"/>
<path d="M203.724 163.706C202.402 163.593 201.078 163.9 199.94 164.582C200.569 165.014 201.314 165.246 202.078 165.245C203.397 165.361 204.72 165.054 205.853 164.369C205.231 163.928 204.486 163.696 203.724 163.706Z" fill="#BA4D3C"/>
<path d="M199.063 162.027C199.125 162.274 199.252 162.501 199.433 162.681C199.613 162.861 199.84 162.989 200.087 163.05C202.081 163.107 204.075 162.994 206.05 162.715C206.364 162.694 206.669 162.596 206.937 162.431C207.206 162.265 207.43 162.036 207.589 161.765C204.745 161.627 201.894 161.714 199.063 162.027Z" fill="white"/>
<path d="M207.278 144.132C206.849 144.197 206.424 144.293 206.009 144.418V144.811C207.086 144.797 208.159 144.954 209.186 145.278C214.854 147.006 215.738 150.192 213.838 154.901C212.929 157.145 212.438 161.904 213.486 162.797C213.756 163.026 214.575 162.993 215.64 162.797C216.344 161.159 217.016 159.25 217.876 156.842C218.481 155.268 218.655 153.56 218.379 151.896C218.103 150.232 217.389 148.671 216.308 147.376C215.228 146.08 213.822 145.096 212.234 144.526C210.647 143.956 208.936 143.82 207.278 144.132Z" fill="#263238"/>
<path d="M218.204 163.239C217.679 163.787 217.05 164.226 216.354 164.53C215.658 164.834 214.909 164.996 214.15 165.008C212.184 165.008 211.873 162.977 212.978 161.29C213.969 159.774 216.181 157.948 217.892 158.775C219.604 159.602 219.563 161.838 218.204 163.239Z" fill="#CE7A63"/>
<g opacity="0.9">
<path d="M206.123 198.03C192.331 197.211 186.107 194.631 183.625 193.19C183.545 193.147 183.471 193.095 183.404 193.034C182.692 192.411 183.593 191.273 184.42 191.748C186.59 193.001 192.569 195.548 206.222 196.392C206.437 196.404 206.64 196.502 206.784 196.663C206.928 196.824 207.003 197.036 206.992 197.252C206.986 197.36 206.96 197.466 206.913 197.564C206.866 197.662 206.801 197.75 206.72 197.822C206.639 197.895 206.545 197.95 206.443 197.986C206.34 198.022 206.232 198.036 206.123 198.03Z" fill="white"/>
</g>
<g opacity="0.9">
<path d="M205.403 205.827C205.403 205.938 205.38 206.048 205.337 206.15C205.293 206.252 205.229 206.344 205.148 206.421C205.068 206.497 204.973 206.557 204.869 206.596C204.765 206.634 204.654 206.651 204.543 206.646C196.674 206.36 188.935 204.546 181.758 201.306C181.659 201.257 181.571 201.188 181.499 201.104C181.427 201.019 181.373 200.922 181.341 200.816C181.308 200.71 181.296 200.599 181.308 200.489C181.319 200.379 181.352 200.272 181.406 200.176C181.507 199.992 181.674 199.854 181.874 199.79C182.073 199.726 182.29 199.741 182.479 199.832C189.463 202.955 196.98 204.712 204.625 205.008C204.835 205.018 205.033 205.109 205.177 205.262C205.322 205.414 205.403 205.616 205.403 205.827Z" fill="white"/>
</g>
<g opacity="0.9">
<path d="M191.529 219.479C185.141 218.235 181.856 217.383 180.472 217.022C180.366 216.992 180.267 216.94 180.181 216.87C180.096 216.8 180.025 216.713 179.974 216.615C179.923 216.517 179.892 216.41 179.883 216.3C179.874 216.19 179.888 216.079 179.923 215.974C179.991 215.775 180.132 215.61 180.318 215.512C180.504 215.415 180.721 215.393 180.923 215.45C182.249 215.827 185.525 216.67 191.84 217.907C192.053 217.949 192.24 218.073 192.361 218.252C192.483 218.432 192.528 218.652 192.487 218.865C192.438 219.072 192.311 219.251 192.132 219.366C191.953 219.481 191.737 219.521 191.529 219.479Z" fill="white"/>
</g>
<path d="M206.107 146.859C205.832 146.975 205.522 146.98 205.243 146.871C204.965 146.762 204.74 146.549 204.616 146.277C204.505 146 204.467 145.699 204.508 145.403C204.548 145.107 204.664 144.827 204.846 144.59C205.213 144.116 205.691 143.739 206.238 143.493C205.774 144.043 205.451 144.698 205.296 145.401C205.313 146.04 205.509 147.063 206.107 146.859Z" fill="#263238"/>
<path d="M212.946 163.575C212.944 163.65 212.926 163.724 212.894 163.792C212.862 163.86 212.816 163.92 212.758 163.969C212.701 164.017 212.634 164.054 212.562 164.075C212.49 164.096 212.414 164.101 212.34 164.091C212.189 164.058 212.051 163.984 211.941 163.877C211.831 163.77 211.754 163.634 211.717 163.485C211.656 163.182 211.656 162.87 211.717 162.567C211.767 161.869 211.936 161.185 212.217 160.544C212.499 159.898 213.014 159.381 213.658 159.095C213.773 159.231 213.847 159.398 213.87 159.575C213.893 159.752 213.865 159.932 213.789 160.094C213.62 160.382 213.429 160.656 213.216 160.913C212.969 161.279 212.809 161.696 212.748 162.133C212.687 162.571 212.726 163.016 212.864 163.435C212.929 163.452 212.88 163.566 212.946 163.575Z" fill="#263238"/>
<path d="M120.669 215.524H62.3561C60.2057 215.524 58.1434 216.378 56.6229 217.898C55.1023 219.419 54.248 221.481 54.248 223.632V267.956C54.248 270.106 55.1023 272.169 56.6229 273.689C58.1434 275.21 60.2057 276.064 62.3561 276.064H106.41C106.838 279.534 108.519 282.729 111.138 285.045C113.756 287.362 117.131 288.642 120.628 288.644C120.947 288.644 121.267 288.644 121.586 288.595C119.309 285.597 117.45 281.224 116.23 276.064H120.693C122.844 276.064 124.906 275.21 126.427 273.689C127.947 272.169 128.802 270.106 128.802 267.956V223.632C128.802 222.565 128.591 221.509 128.182 220.523C127.773 219.538 127.174 218.643 126.418 217.89C125.663 217.136 124.766 216.54 123.779 216.134C122.793 215.728 121.736 215.52 120.669 215.524Z" fill="white"/>
<path d="M132.348 234.361L136.885 230.159L140.767 237.342C140.767 237.342 136.271 240.773 133.609 238.66L132.348 234.361Z" fill="#FF8B7B"/>
<path d="M132.348 234.352L129.26 240.921L133.494 244.426L137.196 238.431L132.348 234.352Z" fill="#FF8B7B"/>
<path d="M141.201 231.134L141.947 233.845C142.131 234.478 142.117 235.153 141.906 235.779C141.695 236.404 141.298 236.949 140.767 237.342L139.129 238.431L134.494 230.29L138.466 229.291C138.767 229.229 139.077 229.228 139.378 229.288C139.679 229.347 139.966 229.466 140.221 229.638C140.475 229.81 140.693 230.03 140.862 230.287C141.03 230.544 141.145 230.832 141.201 231.134Z" fill="#FF8B7B"/>
<path d="M132.348 234.361C132.348 234.361 133.986 229.299 133.724 227.751C133.584 226.826 134.543 226.973 135.312 227.252C135.609 227.353 135.868 227.541 136.056 227.793C136.243 228.045 136.349 228.347 136.361 228.66C136.426 230.298 136.361 233.492 135.108 233.697C134.17 233.839 133.247 234.061 132.348 234.361Z" fill="#FF8B7B"/>
<path d="M137.647 239.619C136.374 238.195 134.677 237.219 132.807 236.834L131.431 236.547C130.612 236.384 130.456 236.547 130.358 236.785L129.965 237.399L129.146 238.619C128.605 239.438 128.065 240.257 127.508 241.076C126.418 242.714 125.28 244.246 124.133 245.737C123.06 247.161 121.88 248.503 120.603 249.75L120.268 250.061C119.842 249.602 119.449 249.119 119.023 248.619C117.824 247.104 116.706 245.526 115.673 243.894C114.617 242.256 111.193 237.293 110.26 235.507C109.793 234.623 109.334 233.722 108.9 232.821L108.269 231.47C108.081 231.036 107.852 230.528 107.721 230.2L107.631 229.987C106.959 228.509 105.73 227.358 104.212 226.783C102.693 226.209 101.01 226.259 99.5282 226.923C98.0468 227.586 96.8881 228.809 96.3054 230.324C95.7228 231.839 95.7634 233.523 96.4184 235.008C96.7133 235.671 96.9426 236.146 97.2374 236.695L98.0564 238.267C98.6024 239.31 99.1484 240.334 99.6944 241.339C100.857 243.361 104.559 248.521 105.919 250.462C107.297 252.438 108.804 254.321 110.432 256.097C112.144 257.986 114.039 259.701 116.091 261.216L116.345 261.404C116.975 261.861 117.7 262.168 118.466 262.303C119.233 262.438 120.019 262.396 120.767 262.182C122.436 261.695 123.992 260.882 125.345 259.791C126.379 258.971 127.341 258.064 128.22 257.08C129.757 255.352 131.156 253.506 132.405 251.56C133.609 249.701 134.666 247.8 135.681 245.9C136.164 244.934 136.639 243.976 137.082 242.993L137.737 241.519L138.056 240.773C138.155 240.511 138.204 240.225 137.647 239.619Z" fill="#263238"/>
<path opacity="0.4" d="M107.295 237.014L102.79 240.2L101.496 243.279C101.717 243.689 101.93 244.098 102.159 244.508C103.314 246.531 104.616 248.497 105.943 250.438C107.321 252.414 108.829 254.296 110.456 256.072C111.275 256.891 112.094 257.71 112.913 258.529C110.702 253.329 107.295 237.014 107.295 237.014Z" fill="black"/>
<path d="M67.0327 261.912C67.3848 270.102 66.0908 269.725 66.058 276.064H105.968C108.138 256.727 107.123 253.755 107.164 240.921C107.164 233.697 106.058 226.326 98.8672 225.573C90.4213 224.749 81.9127 224.804 73.4782 225.737C72.2146 225.89 70.9946 226.295 69.8895 226.927C68.7845 227.559 67.8168 228.405 67.0433 229.416C66.2697 230.426 65.7058 231.582 65.3848 232.813C65.0637 234.045 64.9919 235.328 65.1735 236.588C66.787 247.506 65.9106 253.689 67.0327 261.912Z" fill="#263238"/>
<path opacity="0.9" d="M95.2227 225.27C89.9054 224.922 84.5716 224.905 79.2522 225.221C79.3669 226.859 80.6117 230.954 89.6781 234.5C89.6781 234.5 91.701 230.11 93.4045 232.084C93.4045 232.084 94.7722 229.561 97.7043 234.205C97.7043 234.205 102.078 229.52 95.2227 225.27Z" fill="white"/>
<path opacity="0.4" d="M73.6503 236.883C74.5266 244.475 69.6781 257.17 67.0983 263.304C67.0983 262.878 67.0983 262.411 67.0983 261.912C66.394 256.785 66.4759 252.444 66.2793 247.268L73.6503 236.883Z" fill="black"/>
<path d="M83.167 210.741C83.3014 215.721 82.3396 220.67 80.3497 225.237C80.2758 225.411 80.2574 225.603 80.297 225.788C80.3366 225.973 80.4322 226.141 80.5708 226.269C83.9128 229.15 88.1982 230.701 92.6101 230.626C97.9745 230.691 97.6633 228.988 96.3939 227.129C96.2089 226.865 95.9686 226.644 95.6895 226.482C92.0204 224.303 91.8894 221.388 92.9213 219.627L83.167 210.741Z" fill="#FF8B7B"/>
<path opacity="0.2" d="M83.1751 210.741L92.9212 219.627C92.5956 220.186 92.4073 220.815 92.3718 221.461C92.3362 222.108 92.4543 222.753 92.7165 223.345C90.6601 223.409 88.6556 222.692 87.1063 221.339C84.592 219.201 83.7402 216.678 83.1096 213.149C83.1588 212.379 83.1751 211.56 83.1751 210.741Z" fill="black"/>
<path d="M80.2675 206.121C80.6934 212.673 79.7679 213.722 83.0931 217.039C88.0971 222.026 96.2462 222.977 97.401 216.343C98.4329 210.364 99.039 199.545 92.5771 197.022C91.1531 196.456 89.6082 196.262 88.0884 196.459C86.5686 196.656 85.1243 197.238 83.8919 198.149C82.6595 199.06 81.6799 200.27 81.0457 201.665C80.4115 203.06 80.1437 204.594 80.2675 206.121Z" fill="#FF8B7B"/>
<path d="M96.1726 213.198C96.1726 213.198 93.8712 212.469 87.3438 212.19C88.0399 214.533 89.4076 216.482 92.7491 216.588C96.0907 216.695 96.1726 213.198 96.1726 213.198Z" fill="#263238"/>
<path d="M91.2586 214.68C92.5729 214.659 93.8512 215.11 94.8622 215.949C94.258 216.402 93.5102 216.62 92.7574 216.564C91.4408 216.59 90.1596 216.136 89.1538 215.286C89.7591 214.836 90.5068 214.621 91.2586 214.68Z" fill="#FF5652"/>
<path d="M95.8778 213.091C95.6812 213.574 95.4765 214.066 94.8213 214.197C92.8887 214.106 90.9691 213.831 89.0883 213.378C88.7652 213.319 88.4629 213.178 88.2115 212.966C87.9601 212.755 87.7683 212.482 87.655 212.174C90.4182 212.227 93.1707 212.535 95.8778 213.091Z" fill="white"/>
<path d="M93.6091 207.08C94.2993 208.301 95.1566 209.42 96.1562 210.405C95.898 210.658 95.5873 210.85 95.2461 210.969C94.905 211.088 94.5418 211.13 94.1824 211.093L93.6091 207.08Z" fill="#FF5652"/>
<path d="M87.1473 204.254C87.0913 204.247 87.0394 204.221 86.9998 204.18C86.9689 204.15 86.9443 204.114 86.9275 204.074C86.9107 204.033 86.9021 203.99 86.9021 203.947C86.9021 203.904 86.9107 203.861 86.9275 203.821C86.9443 203.78 86.9689 203.744 86.9998 203.714C87.3393 203.315 87.7693 203.004 88.2537 202.806C88.7382 202.608 89.2631 202.529 89.7844 202.575C89.8713 202.588 89.9495 202.635 90.0017 202.706C90.0539 202.777 90.0759 202.865 90.0629 202.952C90.0499 203.039 90.0028 203.117 89.9322 203.169C89.8615 203.221 89.773 203.243 89.6861 203.23C89.2718 203.198 88.8557 203.266 88.4726 203.426C88.0894 203.587 87.7502 203.838 87.483 204.156C87.4421 204.202 87.3888 204.236 87.3294 204.254C87.2699 204.271 87.2068 204.271 87.1473 204.254Z" fill="#263238"/>
<path d="M98.0235 205.417C97.97 205.426 97.9151 205.422 97.8637 205.405C97.8122 205.388 97.7658 205.358 97.7286 205.319C97.457 205.009 97.1154 204.769 96.7322 204.618C96.349 204.467 95.9353 204.41 95.5255 204.451C95.4409 204.465 95.354 204.446 95.2836 204.397C95.2131 204.348 95.1647 204.273 95.1488 204.189C95.1344 204.102 95.1547 204.013 95.2053 203.941C95.2558 203.869 95.3326 203.82 95.4191 203.804C95.9356 203.747 96.4583 203.814 96.9439 203.999C97.4295 204.184 97.8642 204.482 98.2118 204.868C98.2428 204.899 98.2674 204.935 98.2841 204.975C98.3009 205.015 98.3096 205.058 98.3096 205.102C98.3096 205.145 98.3009 205.188 98.2841 205.228C98.2674 205.268 98.2428 205.305 98.2118 205.335C98.1589 205.381 98.0931 205.41 98.0235 205.417Z" fill="#263238"/>
<path d="M54.8786 263.247C54.8928 263.556 54.9395 263.864 55.0178 264.164C55.7578 266.783 56.7195 269.333 57.8925 271.789C58.4876 273.088 59.1019 274.366 59.7353 275.622C60.5789 275.911 61.4642 276.06 62.356 276.064H71.1931L70.3167 274.107C69.3421 271.969 68.4412 269.823 67.6222 267.702C66.94 265.981 66.3656 264.22 65.9023 262.428C65.9953 261.742 66.1348 261.063 66.32 260.397C66.5739 259.414 66.9179 258.349 67.311 257.268C68.13 255.114 69.0309 252.895 70.0137 250.716C70.9965 248.537 72.0858 246.302 73.1832 244.098C74.2807 241.895 75.4273 239.668 76.5657 237.587V237.514L76.623 237.391C77.3659 235.941 77.5024 234.255 77.0024 232.705C76.5025 231.154 75.4071 229.866 73.9572 229.123C72.5073 228.38 70.8217 228.244 69.2712 228.744C67.7206 229.244 66.4322 230.339 65.6894 231.789C64.4609 234.197 63.3552 236.498 62.2414 238.881C61.1276 241.265 60.1202 243.673 59.1374 246.13C58.1546 248.587 57.2701 251.068 56.4511 253.73C56.0498 255.065 55.6894 256.441 55.3864 257.923C55.0096 259.611 54.8364 261.338 54.8704 263.067L54.8786 263.247Z" fill="#263238"/>
<path d="M88.6951 206.482C88.6951 207.047 88.9326 207.53 89.3175 207.555C89.7024 207.579 90.0218 207.137 90.0464 206.556C90.071 205.974 89.8089 205.507 89.4322 205.483C89.0554 205.458 88.7278 205.9 88.6951 206.482Z" fill="#2E353A"/>
<path d="M95.1733 206.859C95.1733 207.432 95.419 207.915 95.7876 207.94C96.1561 207.964 96.4919 207.514 96.5329 206.941C96.5738 206.367 96.2872 205.892 95.9186 205.868C95.5501 205.843 95.2061 206.285 95.1733 206.859Z" fill="#2E353A"/>
<path d="M87.8856 198.36C87.8856 198.36 85.9937 196.998 85.1234 198.465C84.253 199.931 84.3098 203.838 84.3098 203.838L83.9314 203.147C83.9314 203.147 81.4813 211.85 77.9338 209.656C74.3863 207.461 69.1739 198.625 77.4608 194.122C77.4608 194.122 78.3406 192.022 83.8179 190.982C89.2952 189.941 95.9171 193.328 97.0618 196.951C98.2064 200.574 96.6077 202.627 96.6077 202.627C96.4321 201.838 96.0723 201.102 95.5576 200.479C95.4842 200.849 95.3205 201.194 95.0812 201.484C94.8418 201.775 94.5343 202.002 94.1859 202.144C94.2419 201.404 94.0878 200.663 93.7413 200.006C93.5603 200.65 93.237 201.245 92.7953 201.747C92.398 198.02 89.8628 197.263 89.0681 197.291C88.7837 197.323 88.5165 197.443 88.3042 197.635C88.092 197.827 87.9455 198.081 87.8856 198.36Z" fill="#263238"/>
<path d="M77.2946 210.511C77.8624 211.916 78.9427 213.052 80.3167 213.689C82.0694 214.443 83.0358 212.731 82.6181 210.765C82.2496 209.004 80.8818 206.482 79.0882 206.564C77.2946 206.646 76.5493 208.71 77.2946 210.511Z" fill="#FF8B7B"/>
<path d="M113.912 100.642H55.6321C53.4832 100.645 51.4229 101.5 49.9041 103.02C48.3853 104.541 47.5322 106.602 47.5322 108.751V153.075C47.5312 154.139 47.7399 155.193 48.1464 156.177C48.553 157.161 49.1495 158.055 49.9017 158.808C50.654 159.561 51.5473 160.158 52.5305 160.566C53.5138 160.973 54.5678 161.183 55.6321 161.183H99.6697C100.092 164.655 101.77 167.852 104.388 170.171C107.006 172.49 110.382 173.771 113.879 173.771C114.207 173.771 114.526 173.771 114.846 173.722C112.569 170.716 110.702 166.351 109.49 161.183H113.953C116.104 161.183 118.166 160.329 119.686 158.808C121.207 157.288 122.061 155.225 122.061 153.075V108.751C122.06 107.683 121.848 106.625 121.438 105.64C121.027 104.654 120.427 103.758 119.67 103.005C118.912 102.252 118.014 101.656 117.026 101.25C116.038 100.845 114.98 100.638 113.912 100.642Z" fill="white"/>
<path d="M99.6287 161.183C99.2945 156.422 99.2945 151.644 99.6287 146.883C100.136 138.497 97.6303 129.43 95.7384 127.882C93.0111 125.63 90.4722 123.509 89.5713 126.343C89.0472 127.981 88.8916 130.683 88.9243 133.714C89.0062 141.036 90.5623 150.167 91.2994 154.385C91.5697 155.876 92.2495 161.191 92.2495 161.191L99.6287 161.183Z" fill="#6348EC"/>
<path d="M94.5345 128.243C94.4412 127.641 94.1758 127.079 93.7705 126.624C93.3651 126.169 92.8369 125.841 92.2495 125.679C90.202 125.131 86.6639 124.238 83.4453 123.665C79.6524 123.048 75.8211 122.698 71.9793 122.616C69.5223 122.518 67.1636 122.616 65.2717 122.698C65.0475 122.716 64.8254 122.754 64.6083 122.813C64.2086 122.926 63.8352 123.117 63.5094 123.375C63.1835 123.632 62.9117 123.952 62.7094 124.315C62.507 124.677 62.3782 125.077 62.3302 125.489C62.2823 125.902 62.3161 126.32 62.4298 126.719C67.2864 144.058 68.2938 152.354 68.5477 161.183H92.2495C93.3552 153.173 95.5255 146.597 95.7221 141.887C95.8908 137.308 95.4919 132.725 94.5345 128.243Z" fill="#6348EC"/>
<path opacity="0.8" d="M94.5345 128.243C94.4412 127.641 94.1758 127.079 93.7705 126.624C93.3651 126.169 92.8369 125.841 92.2495 125.679C90.202 125.131 86.6639 124.238 83.4453 123.665C79.6524 123.048 75.8211 122.698 71.9793 122.616C69.5223 122.518 67.1636 122.616 65.2717 122.698C65.0475 122.716 64.8254 122.754 64.6083 122.813C64.2086 122.926 63.8352 123.117 63.5094 123.375C63.1835 123.632 62.9117 123.952 62.7094 124.315C62.507 124.677 62.3782 125.077 62.3302 125.489C62.2823 125.902 62.3161 126.32 62.4298 126.719C67.2864 144.058 68.2938 152.354 68.5477 161.183H92.2495C93.3552 153.173 95.5255 146.597 95.7221 141.887C95.8908 137.308 95.4919 132.725 94.5345 128.243Z" fill="white"/>
<path d="M84.7966 119.66C83.2405 121.764 82.1021 124.262 84.5427 127.031C85.0719 127.608 85.382 128.353 85.419 129.135C85.419 130.389 84.7229 131.592 80.6442 129.201C74.7311 125.728 75.2307 121.83 75.2307 121.83C78.3347 120.888 80.1938 114.361 80.9145 110.626L84.7966 119.66Z" fill="#FFB573"/>
<path opacity="0.2" d="M81.2423 116.204C80.7918 117.792 82.4708 120.299 83.7484 121.33C84.046 120.755 84.3941 120.207 84.7885 119.692L82.4953 114.328C81.9591 114.865 81.5333 115.502 81.2423 116.204Z" fill="black"/>
<path d="M96.8031 100.02C98.8834 102.657 94.1987 110.602 93.6909 108.939C92.8719 106.236 91.6762 100.749 91.6925 98.4967C91.7253 94.9422 94.731 97.3911 96.8031 100.02Z" fill="#263238"/>
<path d="M79.5552 100.847C80.1073 99.9076 80.8391 99.086 81.7089 98.4292C82.5786 97.7724 83.5692 97.2935 84.6241 97.0197C85.679 96.7459 86.7776 96.6826 87.8569 96.8334C88.9363 96.9843 89.9754 97.3464 90.9148 97.8989C96.4921 101.126 96.0663 110.184 94.0188 115.393C91.7747 121.199 84.1908 121.945 80.2678 116.662C77.6306 113.141 77.9664 110.577 78.4332 104.508C78.5148 103.217 78.8992 101.963 79.5552 100.847Z" fill="#FFB573"/>
<path d="M86.967 107.547C86.9261 108.046 87.1472 108.472 87.4666 108.505C87.786 108.538 88.0891 108.161 88.1464 107.686C88.2037 107.211 87.9662 106.76 87.6468 106.728C87.3274 106.695 87.0407 107.113 86.967 107.547Z" fill="#263238"/>
<path d="M87.4829 106.801L88.7032 106.58C88.7032 106.58 88.0153 107.416 87.4829 106.801Z" fill="#263238"/>
<path d="M93.1748 108.964C93.1748 109.463 93.355 109.889 93.6744 109.922C93.9938 109.955 94.2968 109.578 94.3542 109.103C94.4115 108.628 94.174 108.177 93.8546 108.145C93.5352 108.112 93.2485 108.497 93.1748 108.964Z" fill="#263238"/>
<path d="M93.6912 108.186L94.9115 107.964C94.9115 107.964 94.2235 108.8 93.6912 108.186Z" fill="#263238"/>
<path d="M90.8491 112.706C91.1363 112.823 91.4453 112.876 91.7549 112.862C92.0645 112.848 92.3674 112.767 92.6427 112.625C92.0535 111.565 91.6125 110.43 91.3323 109.25L90.8491 112.706Z" fill="#ED893E"/>
<path d="M86.1726 112.502C86.1575 112.467 86.1558 112.427 86.1679 112.391C86.18 112.355 86.205 112.324 86.2381 112.305C86.2729 112.288 86.3131 112.285 86.3499 112.298C86.3867 112.31 86.4171 112.336 86.4347 112.371C86.7372 112.908 87.163 113.365 87.677 113.706C88.191 114.046 88.7786 114.259 89.3913 114.328C89.4266 114.338 89.4574 114.359 89.4784 114.389C89.4994 114.419 89.5091 114.455 89.5059 114.492C89.504 114.51 89.4983 114.527 89.4893 114.543C89.4802 114.559 89.468 114.573 89.4534 114.583C89.4387 114.594 89.422 114.602 89.4043 114.606C89.3865 114.61 89.3682 114.61 89.3503 114.606C89.1146 114.581 88.8817 114.534 88.6542 114.467C88.1308 114.321 87.6418 114.071 87.2158 113.734C86.7897 113.397 86.4351 112.978 86.1726 112.502Z" fill="#263238"/>
<path d="M86.7539 104.394C86.7082 104.333 86.6887 104.256 86.6994 104.181C86.7102 104.106 86.7504 104.038 86.8112 103.992C87.2978 103.697 87.8418 103.51 88.4067 103.442C88.9717 103.374 89.5446 103.428 90.0872 103.599C90.1592 103.625 90.2183 103.678 90.2519 103.747C90.2855 103.816 90.2911 103.895 90.2674 103.968C90.2431 104.039 90.1916 104.098 90.1242 104.132C90.0567 104.165 89.9787 104.171 89.907 104.148C89.4546 104.002 88.9765 103.953 88.5038 104.004C88.0312 104.054 87.5745 104.204 87.1634 104.443C87.1156 104.481 87.0564 104.501 86.9955 104.501C86.9345 104.501 86.8753 104.481 86.8276 104.443L86.7539 104.394Z" fill="#263238"/>
<path d="M95.6894 106.285C95.4927 105.978 95.2248 105.722 94.9083 105.539C94.5919 105.357 94.2362 105.253 93.8713 105.237C93.8329 105.238 93.7948 105.232 93.759 105.218C93.7233 105.204 93.6907 105.183 93.6632 105.156C93.6358 105.129 93.6139 105.097 93.599 105.062C93.5841 105.027 93.5764 104.989 93.5764 104.95C93.5764 104.874 93.6063 104.8 93.6599 104.745C93.7134 104.69 93.7863 104.658 93.8631 104.656C94.3233 104.672 94.7729 104.798 95.1747 105.023C95.5764 105.248 95.9186 105.566 96.1726 105.95C96.1938 105.981 96.2085 106.015 96.2159 106.052C96.2232 106.089 96.2231 106.127 96.2154 106.164C96.2078 106.2 96.1928 106.235 96.1714 106.266C96.1499 106.297 96.1225 106.323 96.0907 106.343C96.0481 106.371 95.9983 106.385 95.9474 106.385C95.8965 106.385 95.8467 106.371 95.8041 106.343L95.6894 106.285Z" fill="#263238"/>
<path d="M88.2364 99.6352C87.3214 99.8068 86.456 100.179 85.7025 100.726C84.9491 101.273 84.3263 101.98 83.8793 102.796C83.4616 103.566 80.7753 105.254 80.3166 106.015C78.8752 108.415 80.4477 115.245 79.7679 115.761C79.0881 116.277 79.3256 114.254 78.6786 113.861C77.9921 113.551 77.3344 113.181 76.713 112.756C75.894 112.068 73.0521 104.656 76.5574 100.168C78.3016 97.8001 80.8549 96.1562 83.7319 95.5484C86.6466 95.053 89.6388 95.7333 92.0529 97.4402C92.8146 97.989 94.1495 99.4877 92.0529 100.159C91.4796 100.34 91.455 99.8809 90.8572 99.7334C90.0009 99.5121 89.1068 99.4786 88.2364 99.6352Z" fill="#263238"/>
<path d="M74.2971 106.015C76.32 104.05 78.8425 104.05 81.0702 104.05C82.1287 104.133 83.1934 104.014 84.207 103.697C86.451 102.723 87.827 99.5205 88.0808 98.4722C88.2166 98.0432 88.4592 97.6557 88.7858 97.3463C89.1125 97.0368 89.5125 96.8155 89.9482 96.7031C90.3028 96.6857 90.6566 96.7506 90.982 96.8927C91.3073 97.0348 91.5954 97.2502 91.8237 97.5221C92.225 98.1036 92.184 98.9472 91.7008 99.9791L92.0202 100.118C92.5526 98.9308 92.5771 97.9808 92.1103 97.2928C91.8464 96.974 91.5126 96.7202 91.1348 96.5512C90.757 96.3821 90.3454 96.3024 89.9318 96.3182C89.4199 96.4324 88.9476 96.6807 88.5633 97.0376C88.1791 97.3945 87.8966 97.8472 87.7451 98.3493C87.5157 99.3157 86.1644 102.444 84.0677 103.345C83.0983 103.643 82.0806 103.751 81.0702 103.665C78.8917 103.665 76.1562 103.665 74.0596 105.729L74.2971 106.015Z" fill="#263238"/>
<path opacity="0.1" d="M74.2971 106.015C76.32 104.05 78.8425 104.05 81.0702 104.05C82.1287 104.133 83.1934 104.014 84.207 103.697C86.451 102.723 87.827 99.5205 88.0808 98.4722C88.2166 98.0432 88.4592 97.6557 88.7858 97.3463C89.1125 97.0368 89.5125 96.8155 89.9482 96.7031C90.3028 96.6857 90.6566 96.7506 90.982 96.8927C91.3073 97.0348 91.5954 97.2502 91.8237 97.5221C92.225 98.1036 92.184 98.9472 91.7008 99.9791L92.0202 100.118C92.5526 98.9308 92.5771 97.9808 92.1103 97.2928C91.8464 96.974 91.5126 96.7202 91.1348 96.5512C90.757 96.3821 90.3454 96.3024 89.9318 96.3182C89.4199 96.4324 88.9476 96.6807 88.5633 97.0376C88.1791 97.3945 87.8966 97.8472 87.7451 98.3493C87.5157 99.3157 86.1644 102.444 84.0677 103.345C83.0983 103.643 82.0806 103.751 81.0702 103.665C78.8917 103.665 76.1562 103.665 74.0596 105.729L74.2971 106.015Z" fill="white"/>
<path d="M76.0332 108.317C76.0666 108.057 76.1509 107.806 76.2814 107.578C76.412 107.351 76.5861 107.152 76.7938 106.992C77.0016 106.832 77.2389 106.715 77.492 106.647C77.7452 106.579 78.0093 106.562 78.2691 106.597C79.7761 106.826 80.464 108.857 80.464 110.184C80.464 111.65 79.3748 112.739 78.048 111.912C77.054 111.278 76.3505 110.277 76.0906 109.127C76.0145 108.864 75.9949 108.588 76.0332 108.317Z" fill="#FFB573"/>
<path d="M78.7116 129.93C78.3922 134.123 74.5184 149.963 66.1236 150.405C64.7861 150.442 63.4831 149.978 62.4709 149.103C55.706 145.008 61.0213 125.27 62.3808 124.123C62.9711 123.617 63.6789 123.267 64.4395 123.105C65.2001 122.943 65.9892 122.974 66.7346 123.195C67.4801 123.417 68.1581 123.822 68.7066 124.373C69.2551 124.925 69.6567 125.604 69.8746 126.351C70.0514 125.726 70.1909 125.092 70.2923 124.451C70.6445 122.313 71.8075 117.334 73.9533 116.973C75.2473 116.752 77.909 116.638 78.6789 117.694C79.4487 118.751 79.244 123.009 78.7116 129.93Z" fill="#6348EC"/>
<g opacity="0.2">
<path d="M78.269 106.597V106.965L78.654 110.602V115.286L79.2928 112.502C79.4549 111.776 79.4909 111.028 79.3993 110.29L78.9488 106.801L78.269 106.597Z" fill="black"/>
</g>
<path d="M74.0594 117.817L73.052 110.52L79.1372 110.471C79.1372 110.471 78.6376 115.95 77.1142 117.842L74.0594 117.817Z" fill="#FFB573"/>
<path d="M74.1249 105.532L78.6294 106.326L79.1126 110.454L73.052 110.52L74.1249 105.532Z" fill="#FFB573"/>
<path opacity="0.2" d="M68.0071 132.993C68.0071 132.993 64.3625 141.412 64.2479 138.079C64.1332 134.451 68.0071 132.993 68.0071 132.993Z" fill="black"/>
<path d="M292.642 182.223H270.103C269.072 182.223 268.082 182.633 267.353 183.363C266.623 184.092 266.213 185.082 266.213 186.113V200.626C266.215 201.656 266.626 202.644 267.355 203.372C268.085 204.099 269.073 204.508 270.103 204.508H276.582L279.473 208.292C279.695 208.584 279.982 208.82 280.311 208.983C280.64 209.146 281.002 209.231 281.369 209.231C281.736 209.231 282.098 209.146 282.427 208.983C282.756 208.82 283.042 208.584 283.265 208.292L286.156 204.508H292.642C293.672 204.508 294.659 204.099 295.387 203.371C296.115 202.643 296.524 201.656 296.524 200.626V186.113C296.524 185.083 296.116 184.095 295.388 183.365C294.66 182.636 293.673 182.225 292.642 182.223Z" fill="#6348EC"/>
<path opacity="0.7" d="M292.642 182.223H270.103C269.072 182.223 268.082 182.633 267.353 183.363C266.623 184.092 266.213 185.082 266.213 186.113V200.626C266.215 201.656 266.626 202.644 267.355 203.372C268.085 204.099 269.073 204.508 270.103 204.508H276.582L279.473 208.292C279.695 208.584 279.982 208.82 280.311 208.983C280.64 209.146 281.002 209.231 281.369 209.231C281.736 209.231 282.098 209.146 282.427 208.983C282.756 208.82 283.042 208.584 283.265 208.292L286.156 204.508H292.642C293.672 204.508 294.659 204.099 295.387 203.371C296.115 202.643 296.524 201.656 296.524 200.626V186.113C296.524 185.083 296.116 184.095 295.388 183.365C294.66 182.636 293.673 182.225 292.642 182.223Z" fill="white"/>
<path d="M291.332 192.199L284.133 187.809V190.446H280.857C278.737 190.446 276.704 191.288 275.205 192.787C273.706 194.286 272.864 196.319 272.864 198.439C272.866 199.032 272.932 199.622 273.06 200.2C273.462 198.432 274.453 196.853 275.869 195.721C277.285 194.589 279.044 193.971 280.857 193.968H284.133V196.613L291.332 192.199Z" fill="#6348EC"/>
<path d="M134.051 93.3944H151.332C152.123 93.3944 152.881 93.7085 153.44 94.2676C153.999 94.8267 154.313 95.5849 154.313 96.3756V107.547C154.313 107.938 154.236 108.325 154.086 108.686C153.936 109.048 153.717 109.376 153.44 109.652C153.163 109.928 152.834 110.147 152.472 110.296C152.111 110.445 151.723 110.521 151.332 110.52H146.361L144.15 113.427C143.979 113.651 143.759 113.833 143.507 113.958C143.255 114.083 142.977 114.148 142.696 114.148C142.414 114.148 142.137 114.083 141.885 113.958C141.632 113.833 141.413 113.651 141.242 113.427L139.023 110.52H134.051C133.661 110.521 133.274 110.445 132.912 110.296C132.551 110.147 132.223 109.928 131.947 109.651C131.67 109.375 131.452 109.047 131.302 108.686C131.153 108.325 131.077 107.937 131.078 107.547V96.3756C131.077 95.9845 131.153 95.597 131.302 95.2354C131.451 94.8737 131.67 94.545 131.946 94.2681C132.222 93.9912 132.551 93.7714 132.912 93.6215C133.273 93.4716 133.66 93.3944 134.051 93.3944Z" fill="#6348EC"/>
<path opacity="0.7" d="M134.051 93.3944H151.332C152.123 93.3944 152.881 93.7085 153.44 94.2676C153.999 94.8267 154.313 95.5849 154.313 96.3756V107.547C154.313 107.938 154.236 108.325 154.086 108.686C153.936 109.048 153.717 109.376 153.44 109.652C153.163 109.928 152.834 110.147 152.472 110.296C152.111 110.445 151.723 110.521 151.332 110.52H146.361L144.15 113.427C143.979 113.651 143.759 113.833 143.507 113.958C143.255 114.083 142.977 114.148 142.696 114.148C142.414 114.148 142.137 114.083 141.885 113.958C141.632 113.833 141.413 113.651 141.242 113.427L139.023 110.52H134.051C133.661 110.521 133.274 110.445 132.912 110.296C132.551 110.147 132.223 109.928 131.947 109.651C131.67 109.375 131.452 109.047 131.302 108.686C131.153 108.325 131.077 107.937 131.078 107.547V96.3756C131.077 95.9845 131.153 95.597 131.302 95.2354C131.451 94.8737 131.67 94.545 131.946 94.2681C132.222 93.9912 132.551 93.7714 132.912 93.6215C133.273 93.4716 133.66 93.3944 134.051 93.3944Z" fill="white"/>
<path d="M135.075 101.044L140.612 97.6696V99.6925H143.142C144.061 99.6951 144.967 99.9036 145.795 100.303C146.622 100.702 147.349 101.282 147.923 101.999C148.497 102.717 148.902 103.554 149.109 104.448C149.317 105.343 149.321 106.273 149.121 107.17C148.813 105.814 148.054 104.604 146.967 103.736C145.881 102.869 144.532 102.396 143.142 102.395H140.612V104.418L135.075 101.044Z" fill="#6348EC"/>
</svg>
