<svg width="111" height="38" viewBox="0 0 111 38" fill="none" xmlns="http://www.w3.org/2000/svg">
<path d="M59.9893 6.39299C60.3394 6.39299 60.6687 6.48184 60.9561 6.63814C61.392 5.93734 62.1686 5.47063 63.0546 5.47063C64.2204 5.47063 65.1971 6.27869 65.4564 7.3651C66.3958 7.54143 67.1073 8.36468 67.1073 9.35537C67.1073 10.4745 66.2001 11.3817 65.0809 11.3817C64.8935 11.3817 64.7128 11.3543 64.5404 11.3066C64.2166 11.9946 63.5189 12.472 62.708 12.472C61.589 12.472 60.6817 11.5648 60.6817 10.4457C60.6817 10.403 60.6855 10.3613 60.6881 10.3193C60.4699 10.3997 60.2352 10.4457 59.9893 10.4457C58.8701 10.4457 57.9629 9.5384 57.9629 8.41928C57.9629 7.30024 58.8701 6.39299 59.9893 6.39299Z" fill="#FF8E63"/>
<path d="M61.3404 2.63021C61.127 2.77932 60.9642 2.97358 60.8556 3.19118C60.2918 2.94975 59.6198 2.99603 59.0801 3.37317C58.3697 3.86944 58.1186 4.77742 58.4231 5.54986C57.9257 6.0572 57.8427 6.86163 58.2644 7.46525C58.7408 8.14714 59.6797 8.3137 60.3617 7.8373C60.4759 7.75749 60.5744 7.66387 60.659 7.56145C61.1493 7.84279 61.7776 7.83673 62.2716 7.49158C62.9535 7.01518 63.1201 6.07618 62.6437 5.39429C62.6255 5.36828 62.6054 5.34453 62.586 5.32006C62.7531 5.27612 62.9157 5.20423 63.0655 5.09955C63.7475 4.62314 63.914 3.68415 63.4377 3.00225C62.9612 2.32044 62.0223 2.1538 61.3404 2.63021Z" fill="#FF8E63"/>
<path d="M63.4374 3.0026C62.9613 2.31998 62.0227 2.15431 61.34 2.63039C61.3079 2.6526 61.277 2.67611 61.2473 2.70091C61.81 2.59703 62.4048 2.81956 62.7535 3.31915C63.2308 4.00056 63.0639 4.94044 62.3813 5.41652C62.2316 5.5204 62.0696 5.59342 61.9027 5.63663C61.9212 5.66135 61.9422 5.68494 61.9596 5.71086C62.0185 5.79503 62.067 5.88332 62.1064 5.97411C62.1803 5.93695 62.2531 5.89786 62.3251 5.85731C62.4722 5.77435 62.6181 5.6897 62.7689 5.61337C62.7332 5.53833 62.6926 5.46458 62.6435 5.39423C62.6248 5.3683 62.6051 5.3448 62.5865 5.32008C62.7535 5.27679 62.9155 5.20377 63.0652 5.09997C63.7478 4.6226 63.9135 3.68401 63.4374 3.0026Z" fill="#5038C3"/>
<path d="M65.1193 6.58636C64.7224 6.31431 64.2414 6.15478 63.7244 6.15478C62.8378 6.15478 62.0611 6.62101 61.6258 7.32213C61.3377 7.1651 61.0087 7.0773 60.6587 7.0773C59.5397 7.0773 58.6319 7.98375 58.6319 9.10295C58.6319 9.48008 58.7358 9.835 58.9163 10.138C58.3437 9.78056 57.9629 9.14374 57.9629 8.41904C57.9629 7.29983 58.8706 6.39347 59.9897 6.39347C60.3397 6.39347 60.6687 6.48127 60.9569 6.6383C61.3921 5.9371 62.1688 5.47087 63.0554 5.47087C63.9186 5.47087 64.6779 5.91359 65.1193 6.58636Z" fill="#5038C3"/>
<path d="M49.3866 3.59943C49.1305 3.7054 48.9166 3.86994 48.7537 4.07123C48.2229 3.69054 47.5137 3.58424 46.8657 3.85217C46.0131 4.20491 45.5433 5.09124 45.6823 5.96424C45.0486 6.37748 44.7773 7.19475 45.077 7.91921C45.4156 8.73769 46.3535 9.12678 47.1719 8.78818C47.309 8.73147 47.4329 8.65676 47.5446 8.56976C47.9895 8.97493 48.6442 9.11313 49.2372 8.86782C50.0556 8.5293 50.4447 7.59127 50.1061 6.77287C50.0932 6.74161 50.0779 6.71229 50.0632 6.68232C50.2471 6.67513 50.4327 6.63782 50.6126 6.56334C51.4311 6.22482 51.8201 5.28687 51.4816 4.46839C51.143 3.64991 50.2051 3.2609 49.3866 3.59943Z" fill="#FF8E63"/>
<path d="M51.4644 5.73515C51.5248 5.43387 51.4995 5.11198 51.374 4.80763C51.0359 3.98995 50.0983 3.59998 49.279 3.93874C49.0227 4.04439 48.8097 4.20917 48.6461 4.41038C48.1154 4.02986 47.4059 3.9234 46.758 4.19197C46.2625 4.39705 45.8953 4.78283 45.7037 5.24106C45.8364 4.63711 46.2518 4.10699 46.8654 3.85231C47.5133 3.58382 48.2228 3.69028 48.7535 4.07081C48.9171 3.86968 49.13 3.70482 49.3865 3.59917C50.2053 3.26161 51.1434 3.65038 51.4813 4.46805C51.6573 4.89204 51.6377 5.3476 51.4644 5.73515Z" fill="#5038C3"/>
<path d="M55.7338 2.98332C55.8634 2.49706 55.5304 1.97728 55.086 1.6701C54.5014 1.26583 53.7313 1.33255 53.2246 1.78746C52.6922 1.55015 52.0499 1.71638 51.7064 2.2133C51.3184 2.7746 51.4588 3.54421 52.0201 3.93225C52.1142 3.99728 52.2143 4.04614 52.3172 4.08201C52.2411 4.53935 52.4255 5.02076 52.8322 5.30193C53.3935 5.68997 54.4064 5.655 54.5511 4.98821C54.7552 4.04832 55.5081 3.83007 55.7338 2.98332Z" fill="#FF8E63"/>
<path d="M55.7442 2.93769C55.6762 2.58156 55.4103 2.24392 55.0863 2.01889C54.5015 1.61445 53.731 1.68125 53.224 2.13633C52.6923 1.89894 52.0505 2.0659 51.7067 2.56298C51.5941 2.72501 51.5261 2.90554 51.5001 3.08858C51.4569 2.79173 51.5224 2.4789 51.7067 2.21299C52.0505 1.71591 52.6923 1.55016 53.224 1.78763C53.731 1.33255 54.5015 1.26575 55.0863 1.67019C55.5168 1.96687 55.842 2.46525 55.7442 2.93769Z" fill="#5038C3"/>
<path d="M47.8409 6.60522C48.1623 6.60522 48.4644 6.6868 48.7281 6.83025C49.1282 6.18705 49.841 5.75879 50.654 5.75879C51.7239 5.75879 52.6202 6.50029 52.8582 7.49737C53.7204 7.65916 54.3733 8.41471 54.3733 9.32391C54.3733 10.3509 53.5407 11.1835 52.5137 11.1835C52.3416 11.1835 52.1757 11.1584 52.0176 11.1146C51.7203 11.746 51.0801 12.1842 50.336 12.1842C49.309 12.1842 48.4763 11.3516 48.4763 10.3245C48.4763 10.2854 48.4799 10.2471 48.4822 10.2085C48.282 10.2823 48.0665 10.3245 47.8409 10.3245C46.8137 10.3245 45.9812 9.49191 45.9812 8.46479C45.9812 7.43784 46.8137 6.60522 47.8409 6.60522Z" fill="#FF8E63"/>
<path d="M53.8723 10.595C53.9885 10.3514 54.0528 10.0793 54.0528 9.79243C54.0528 8.88356 53.3999 8.12792 52.5379 7.96589C52.3005 6.96922 51.4039 6.22723 50.3342 6.22723C49.5206 6.22723 48.8083 6.65631 48.4076 7.29943C48.1442 7.15589 47.8425 7.07431 47.5209 7.07431C46.9854 7.07431 46.5019 7.30064 46.1619 7.66299C46.4611 7.03724 47.1005 6.60558 47.8412 6.60558C48.1615 6.60558 48.4645 6.68724 48.7279 6.8307C49.1285 6.18766 49.8409 5.75858 50.6533 5.75858C51.7242 5.75858 52.6196 6.50057 52.8583 7.49724C53.7202 7.65927 54.3731 8.41483 54.3731 9.32378C54.3731 9.81464 54.1827 10.2612 53.8723 10.595Z" fill="#5038C3"/>
<path d="M14.8927 10.4311C15.3062 13.9479 15.6173 17.6021 15.7546 21.464H11.4106C11.3766 18.0504 11.6173 14.3616 12.3758 10.4311H4.30884C5.17078 17.6717 5.58434 25.5317 5.03265 34.5647H12.4452C12.1689 32.1858 11.7902 29.2901 11.5833 25.98L15.8579 26.1528C15.8579 28.8418 15.7892 31.6342 15.6173 34.5647H23.029C22.4086 28.8757 21.0638 20.3606 22.9603 10.4311H14.8927ZM15.7546 22.4533C16.023 22.4533 16.2799 22.3441 16.4664 22.151C16.6529 21.9578 16.7527 21.6971 16.7432 21.4288C16.6274 18.1732 16.3841 14.8881 16.0013 11.4204H21.7776C20.3399 19.9668 21.1987 27.3539 21.8335 32.8115C21.8637 33.0718 21.8933 33.3261 21.922 33.5754H16.6623C16.7866 31.1456 16.8472 28.7067 16.8472 26.1528C16.8472 25.622 16.4283 25.1858 15.898 25.1644L11.6234 24.9915C11.61 24.991 11.5967 24.9907 11.5833 24.9907C11.3177 24.9907 11.0627 25.0976 10.8762 25.2882C10.6804 25.4884 10.5786 25.7622 10.596 26.0417C10.7721 28.8603 11.0665 31.3382 11.3263 33.5245C11.3284 33.5414 11.3304 33.5584 11.3324 33.5754H6.08037C6.48036 26.1226 6.26857 19.0256 5.41891 11.4204H11.1909C10.6387 14.6695 10.3864 17.9711 10.4212 21.4738C10.4267 22.0163 10.868 22.4533 11.4106 22.4533H15.7546Z" fill="url(#paint0_linear_3_634)"/>
<path d="M25.4426 23.0843V23.4292L25.4773 34.5647H29.8901C29.7179 33.3239 29.6145 32.1858 29.4764 31.1173C32.4685 30.9573 34.4389 30.8464 35.7173 30.8464C37.4729 30.8464 37.923 31.0555 37.923 31.6342L37.9577 34.5647H42.3018C42.3018 29.6003 42.3364 26.9114 42.5086 23.1529C42.5086 14.3268 41.9221 10.4311 34.4061 10.4311C25.063 10.4311 25.4426 16.947 25.4426 23.0843ZM26.4319 23.4292V23.0843C26.4319 22.8531 26.4313 22.6213 26.4308 22.3894C26.4266 20.5807 26.4224 18.7103 26.69 17.0891C26.9749 15.3637 27.5181 14.1487 28.3995 13.2652C29.6381 12.0239 31.6028 11.4204 34.4061 11.4204C36.1377 11.4204 37.4556 11.6358 38.4351 12.079C39.3204 12.4796 39.9446 13.0711 40.3991 13.9406C41.3391 15.7384 41.5186 18.5584 41.5192 23.1304C41.3549 26.7273 41.3174 29.3889 41.3129 33.5754H38.9354L38.9123 31.6274C38.9099 30.9025 38.5243 30.3592 37.8262 30.0971C37.372 29.9266 36.761 29.8571 35.7173 29.8571C34.5047 29.8571 32.7345 29.9519 30.0551 30.0955L29.4236 30.1293C29.1487 30.144 28.8923 30.2726 28.7162 30.4842C28.5401 30.6956 28.46 30.971 28.4953 31.2441C28.5532 31.692 28.6047 32.1508 28.6593 32.6366C28.6937 32.944 28.7288 33.2563 28.7667 33.5754H26.4636L26.4319 23.4292ZM33.7421 17.1378C31.2722 17.1378 29.2898 18.7133 28.6895 21.1512C28.5254 21.7789 28.4041 22.5156 28.3189 23.4033C28.2923 23.6793 28.3829 23.9538 28.5685 24.1599C28.7541 24.366 29.0177 24.4847 29.295 24.487C32.5432 24.5156 35.8413 24.6491 37.9621 25.4267C38.0727 25.4672 38.1878 25.4872 38.3026 25.4872C38.5025 25.4872 38.7007 25.4265 38.8691 25.3089C39.1342 25.1238 39.2919 24.821 39.2919 24.4979V23.1877C39.2919 20.8813 38.3512 19.4706 37.5622 18.6933C36.5588 17.7047 35.1669 17.1378 33.7424 17.1378H33.7421ZM29.3036 23.4979C29.3731 22.7741 29.4764 22.0495 29.6486 21.3944C30.1837 19.2085 31.9465 18.1275 33.7423 18.1271C35.9963 18.1271 38.3026 19.8293 38.3026 23.1877V24.4979C36.234 23.7394 33.2688 23.5325 29.3036 23.4979Z" fill="url(#paint1_linear_3_634)"/>
<path d="M88.8511 23.0843V23.4292L88.8859 34.5647H93.2985C93.1266 33.3239 93.023 32.1858 92.8851 31.1173C95.8774 30.9573 97.848 30.8464 99.1264 30.8464C100.882 30.8464 101.332 31.0555 101.332 31.6342L101.366 34.5647H105.71C105.71 29.6003 105.745 26.9114 105.917 23.1529C105.917 14.3268 105.332 10.4311 97.8154 10.4311C88.4723 10.4311 88.8511 16.947 88.8511 23.0843ZM89.8404 23.4292V23.0843C89.8404 22.8535 89.8396 22.6222 89.8394 22.3908C89.8351 20.5818 89.8309 18.7113 90.0987 17.0898C90.3836 15.3643 90.9269 14.149 91.8085 13.2654C93.047 12.0239 95.0119 11.4204 97.8154 11.4204C99.547 11.4204 100.865 11.6358 101.844 12.079C102.729 12.4796 103.353 13.0711 103.808 13.9406C104.748 15.7381 104.927 18.5581 104.928 23.1304C104.763 26.7271 104.726 29.3887 104.721 33.5754H102.344L102.322 31.6279C102.319 30.9028 101.934 30.3592 101.235 30.0971C100.781 29.9266 100.17 29.8571 99.1264 29.8571C97.9138 29.8571 96.1435 29.9519 93.4639 30.0955L92.8322 30.1293C92.5573 30.144 92.301 30.2726 92.1248 30.4842C91.9486 30.6956 91.8685 30.971 91.9038 31.2441C91.9617 31.6918 92.0132 32.1505 92.0677 32.6362C92.1022 32.9437 92.1373 33.256 92.1751 33.5754H89.872L89.8404 23.4292ZM97.1507 17.1378C94.6809 17.1378 92.699 18.7129 92.099 21.1507C91.9335 21.7804 91.8121 22.5179 91.728 23.4045C91.7019 23.6803 91.7927 23.9546 91.9782 24.1604C92.1637 24.3662 92.4272 24.4847 92.7042 24.487C95.952 24.5156 99.2498 24.6491 101.371 25.4267C101.481 25.4672 101.596 25.4872 101.711 25.4872C101.911 25.4872 102.109 25.4265 102.278 25.3089C102.543 25.1238 102.7 24.821 102.7 24.4979V23.1877C102.7 20.8813 101.76 19.4706 100.971 18.6933C99.9674 17.7047 98.5755 17.1378 97.151 17.1378H97.1507ZM92.7129 23.4979C92.7815 22.7741 92.8851 22.0495 93.0578 21.3944C93.5926 19.2085 95.3553 18.1275 97.1509 18.1271C99.4048 18.1271 101.711 19.8293 101.711 23.1877V24.4979C99.6425 23.7394 96.6772 23.5325 92.7129 23.4979Z" fill="url(#paint2_linear_3_634)"/>
<path d="M16.4274 10.4311C16.8409 13.9479 17.1519 17.6021 17.2892 21.464H12.9452C12.9113 18.0504 13.1519 14.3616 13.9105 10.4311H5.84351C6.70544 17.6717 7.11901 25.5317 6.56732 34.5647H13.9799C13.7036 32.1858 13.3249 29.2901 13.1181 25.98L17.3926 26.1528C17.3926 28.8418 17.3239 31.6342 17.1519 34.5647H24.5637C23.9433 28.8757 22.5985 20.3606 24.495 10.4311H16.4274Z" fill="#6348EC"/>
<path d="M26.9772 23.0843V23.4292L27.012 34.5647H31.4247C31.2526 33.3239 31.1492 32.1858 31.011 31.1173C38.1127 30.7376 39.4576 30.6342 39.4576 31.6342L39.4923 34.5647H43.8364C43.8364 29.6003 43.8711 26.9114 44.0432 23.1529C44.0432 14.3268 43.4567 10.4311 35.9408 10.4311C26.5976 10.4311 26.9772 16.947 26.9772 23.0843ZM30.8382 23.4979C30.9078 22.7741 31.011 22.0495 31.1832 21.3944C32.3899 16.4649 39.8373 17.1539 39.8373 23.1877V24.4979C37.7686 23.7394 34.8035 23.5325 30.8382 23.4979Z" fill="#6348EC"/>
<path d="M65.5735 12.5844C65.5662 12.1773 65.5597 11.7581 65.5557 11.3252C65.5533 11.0328 65.5517 10.7355 65.5517 10.431H58.5243C58.3732 17.1045 59.0422 19.7499 57.3143 20.3355C57.0494 20.4252 56.7287 20.4663 56.3394 20.4663C55.6157 20.4663 55.0745 20.3581 54.6722 20.136C53.1553 19.3008 53.6052 16.8614 53.6239 12.5844C53.6246 12.4932 53.6246 12.4019 53.6246 12.309C53.6246 11.8373 53.6189 11.3446 53.6044 10.83C53.6012 10.6984 53.5972 10.5651 53.5923 10.431H46.7297V21.3605C46.7297 23.8451 47.0658 25.3564 49.0512 25.7288C49.6004 25.8322 50.2756 25.8483 51.1053 25.7732C51.1392 28.6003 51.1465 31.5308 50.9736 34.5646H61.0753C60.7642 31.8062 61.0542 29.1342 60.8813 25.1698C61.6931 24.9041 62.3708 24.6084 62.9354 24.2716C66.2019 22.3322 65.6996 19.0633 65.5735 12.5844Z" fill="#5038C3"/>
<path d="M90.3859 23.0843V23.4292L90.4207 34.5647H94.8334C94.6613 33.3239 94.558 32.1858 94.4198 31.1173C101.522 30.7376 102.867 30.6342 102.867 31.6342L102.901 34.5647H107.245C107.245 29.6003 107.28 26.9114 107.452 23.1529C107.452 14.3268 106.866 10.4311 99.3503 10.4311C90.0072 10.4311 90.3859 16.947 90.3859 23.0843ZM94.2477 23.4979C94.3164 22.7741 94.4198 22.0495 94.5926 21.3944C95.7986 16.4649 103.246 17.1539 103.246 23.1877V24.4979C101.177 23.7394 98.2122 23.5325 94.2477 23.4979Z" fill="#6348EC"/>
<path d="M51.6925 11.0861V34.5647H50.9736C51.1464 31.5307 51.1391 28.6003 51.1051 25.7732C50.2756 25.8483 49.6004 25.8322 49.0511 25.7288V11.0861H51.6925Z" fill="white"/>
<path d="M57.3145 20.3355V34.5646H54.6724V20.136C55.0746 20.3581 55.6158 20.4663 56.3395 20.4663C56.7289 20.4663 57.0495 20.4252 57.3145 20.3355Z" fill="white"/>
<path d="M62.9354 11.0861V24.2716C62.3708 24.6085 61.6931 24.9041 60.8813 25.1698C61.0542 29.1342 60.7642 31.8061 61.0753 34.5647H60.2942V11.0861H62.9354Z" fill="white"/>
<path d="M53.6245 12.5845H46.7299V10.4311H53.6245V12.5845Z" fill="#5038C3"/>
<path d="M65.677 12.5845H58.7823V10.4311H65.677V12.5845Z" fill="#5038C3"/>
<path d="M57.3936 9.93635C57.1249 9.93635 56.9051 10.1512 56.8991 10.4199C56.8808 11.2299 56.8743 11.9809 56.8743 12.6757C56.8743 14.2198 56.9055 15.4875 56.9054 16.5075C56.9054 17.0877 56.8953 17.5876 56.865 18.0088C56.8424 18.3246 56.8085 18.5961 56.7617 18.8224C56.7267 18.9923 56.6846 19.1365 56.6371 19.2561C56.5653 19.4361 56.4843 19.5582 56.3913 19.6504C56.2976 19.7421 56.1877 19.8111 56.0247 19.867C55.8317 19.9328 55.5633 19.9721 55.2083 19.9718C54.8711 19.9718 54.5863 19.9462 54.3506 19.8993C54.1145 19.8525 53.9287 19.7849 53.7803 19.703L53.7798 19.7027C53.6059 19.6061 53.4791 19.4922 53.37 19.342C53.2886 19.229 53.218 19.0936 53.158 18.9288C53.0679 18.6821 53.0037 18.3693 52.9648 17.9925C52.9255 17.6159 52.9109 17.1765 52.911 16.678C52.9106 15.5906 52.9801 14.2249 52.9875 12.5866V12.5887C52.9883 12.4946 52.9883 12.4019 52.9883 12.309C52.9883 11.8333 52.9825 11.3359 52.9679 10.8161V10.8179C52.9646 10.6843 52.9606 10.5492 52.9556 10.413C52.9459 10.1475 52.7269 9.93635 52.4613 9.93635H45.5987C45.4685 9.93635 45.341 9.98909 45.249 10.0813C45.1568 10.1733 45.104 10.3008 45.104 10.4311V21.3605C45.1042 21.9929 45.125 22.5717 45.1914 23.1006C45.2414 23.4974 45.3171 23.8664 45.4334 24.2083C45.5206 24.4645 45.6312 24.7054 45.7718 24.9268C45.9818 25.2591 46.2622 25.5452 46.6087 25.7617C46.9553 25.9791 47.3625 26.1276 47.829 26.2149H47.8286C48.1868 26.2822 48.5811 26.3145 49.0185 26.3145C49.1689 26.3145 49.3244 26.3107 49.4855 26.3031C49.4935 27.0572 49.4989 27.8181 49.4989 28.5856C49.4989 30.5259 49.4641 32.5094 49.3487 34.5365C49.341 34.6722 49.3897 34.8055 49.483 34.9044C49.5763 35.0031 49.7067 35.0593 49.8426 35.0593H59.9442C60.0855 35.0593 60.2188 34.9996 60.313 34.8942C60.4072 34.7888 60.4515 34.6497 60.4357 34.5092C60.314 33.4304 60.2859 32.3572 60.2859 31.1968C60.2859 30.2502 60.3046 29.2461 60.3046 28.1391C60.3046 27.327 60.2945 26.4596 60.2594 25.5188C60.9449 25.2755 61.5402 25.005 62.0578 24.6964L62.0569 24.697C62.6794 24.3277 63.1893 23.9027 63.5952 23.414C63.8996 23.0479 64.1446 22.6471 64.3377 22.2149C64.6276 21.5661 64.8017 20.8494 64.9048 20.0563C65.0079 19.2627 65.0405 18.3906 65.0405 17.4196C65.0405 16.0273 64.9729 14.4304 64.937 12.5749V12.5757C64.9297 12.1694 64.9233 11.7517 64.9194 11.3207C64.9169 11.0294 64.9153 10.7335 64.9153 10.4308C64.9153 10.3005 64.8626 10.173 64.7703 10.0809C64.6783 9.98876 64.5509 9.93602 64.4207 9.93602H57.3933L57.3936 9.93635ZM63.9275 10.9257C63.9284 11.0614 63.9292 11.1959 63.9302 11.3294V11.3302C63.9343 11.7651 63.9408 12.1857 63.9481 12.5936V12.5944C63.9844 14.4627 64.0516 16.0597 64.0515 17.42C64.0515 18.2632 64.0257 19.0152 63.9534 19.6828C63.8991 20.1836 63.819 20.6366 63.706 21.0465C63.5362 21.6618 63.2956 22.178 62.9529 22.6327C62.6098 23.0868 62.1611 23.4846 61.5521 23.8467L61.5511 23.8472C61.0269 24.1601 60.3828 24.4429 59.5967 24.7001C59.3851 24.7694 59.2466 24.9693 59.2564 25.1918C59.3028 26.2583 59.3155 27.2311 59.3155 28.1395C59.3155 29.2353 59.2969 30.2376 59.2969 31.1972C59.2969 32.1825 59.3166 33.1235 59.3982 34.0704H50.3647C50.4592 32.2003 50.4885 30.3721 50.4885 28.586C50.4885 27.6345 50.4802 26.6951 50.469 25.7677C50.4675 25.6301 50.4081 25.4987 50.3059 25.4065C50.2037 25.3142 50.067 25.2686 49.9298 25.281C49.5979 25.311 49.2945 25.3256 49.0187 25.3255C48.6301 25.3256 48.296 25.2966 48.0119 25.2431L48.0116 25.243C47.7919 25.2018 47.6023 25.1461 47.4385 25.0789C47.1518 24.9604 46.9439 24.8104 46.7745 24.6201C46.6477 24.4769 46.542 24.3082 46.4531 24.1046C46.3196 23.7999 46.2268 23.4159 46.1705 22.9557C46.1139 22.4957 46.0935 21.9613 46.0936 21.3609V10.9261H51.9814C51.9941 11.4059 51.9992 11.8668 51.9992 12.3094C51.9992 12.4023 51.9992 12.4922 51.9985 12.5806L51.9984 12.5827C51.9914 14.196 51.9221 15.5508 51.9219 16.6784C51.9219 17.1384 51.9334 17.5611 51.9673 17.9506C51.9927 18.2429 52.0306 18.5168 52.0872 18.7742C52.1724 19.1598 52.3002 19.5115 52.499 19.8202C52.5982 19.9742 52.7152 20.1163 52.8499 20.2424C52.9844 20.3685 53.1364 20.4781 53.3029 20.5697L53.3023 20.5695C53.5561 20.7096 53.842 20.8074 54.1581 20.8701C54.4745 20.9328 54.8222 20.9614 55.2086 20.9615C55.6323 20.961 56.0052 20.918 56.3422 20.8045V20.8044C56.5096 20.7477 56.6673 20.6727 56.8113 20.5777C57.0641 20.4117 57.2685 20.1829 57.4159 19.9184C57.5273 19.7198 57.6098 19.5018 57.6731 19.2656C57.768 18.9108 57.8211 18.5133 57.8531 18.0582C57.8849 17.6032 57.8946 17.0904 57.8946 16.5079C57.8945 15.4686 57.8635 14.2073 57.8635 12.6761C57.8635 12.1279 57.8675 11.5452 57.8782 10.9261H63.9274L63.9275 10.9257Z" fill="url(#paint3_linear_3_634)"/>
<path d="M56.0753 23.4614C55.5785 23.5462 55.1673 23.8055 54.7926 24.127C54.0801 24.7401 53.5551 25.5002 53.098 26.3127C53.0535 26.3911 53.0156 26.4744 52.9768 26.5502C53.5891 26.4702 54.1989 26.379 54.8119 26.3136C55.5285 26.2368 56.2473 26.2085 56.9637 26.3216C57.3886 26.3887 57.7707 26.5398 58.0687 26.8636C58.3231 27.1416 58.3507 27.45 58.1487 27.7659C58.1326 27.7917 58.1165 27.8167 58.1002 27.8426C58.2803 27.7086 58.4185 27.543 58.5073 27.3394C58.6334 27.0494 58.5921 26.7797 58.3781 26.5486C58.2772 26.4404 58.1544 26.3492 58.0315 26.2643C57.9654 26.2182 57.9436 26.1746 57.9459 26.0963C57.9532 25.9016 57.9573 25.7053 57.9467 25.5106C57.9258 25.0866 57.8611 24.6706 57.6826 24.2797C57.4127 23.6885 56.955 23.4323 56.408 23.4323C56.3003 23.4323 56.1891 23.4422 56.0753 23.4614Z" fill="url(#paint4_linear_3_634)"/>
<path d="M57.052 25.4363C56.7 25.3835 56.337 25.3577 55.9444 25.3577C55.5852 25.3577 55.1972 25.38 54.7598 25.4256C54.9563 25.1901 55.1581 24.9848 55.3721 24.8005C55.6915 24.5266 55.9548 24.3834 56.2248 24.3374C56.2892 24.3264 56.3513 24.3208 56.408 24.3208C56.6086 24.3208 56.7492 24.3745 56.8745 24.6488C56.9718 24.8619 57.0277 25.1083 57.052 25.4363Z" fill="white"/>
<path d="M56.6448 18.1061C56.6722 18.099 56.7006 18.0948 56.7312 18.0956C56.7491 18.0956 56.7668 18.0981 56.7837 18.1013C56.7668 18.0973 56.7491 18.0948 56.7312 18.0948C56.7287 18.0948 56.7262 18.0948 56.7237 18.0948C56.6957 18.0948 56.6692 18.0988 56.6448 18.1061Z" fill="url(#paint5_linear_3_634)"/>
<path d="M59.4968 15.9746C59.1002 16.1102 58.7222 16.3065 58.3499 16.502C57.7061 16.8413 57.0445 17.124 56.3273 17.2612C56.093 17.3057 55.8564 17.3388 55.6213 17.3775C55.6205 17.3824 55.6205 17.388 55.6205 17.3929C55.7667 17.4221 55.9128 17.4511 56.0711 17.4826C55.1471 18.9906 55.8418 20.6844 56.9936 21.3597C58.1939 22.0632 59.7222 21.7943 60.5872 20.7095C61.0259 20.1586 61.2334 19.5269 61.1898 18.8259C61.1308 17.8736 60.6728 17.1449 59.891 16.6215C60.4176 16.1861 60.9846 16.0723 61.6147 16.3906C61.4935 16.1288 61.2835 16.0028 61.0411 15.9326C60.8076 15.8648 60.5723 15.8319 60.3386 15.8319C60.054 15.8319 59.7718 15.8806 59.4968 15.9746ZM56.731 18.0948C56.7489 18.0948 56.7667 18.0972 56.7836 18.1013C56.7667 18.0981 56.7489 18.0956 56.731 18.0956C56.7004 18.0948 56.6721 18.0989 56.6446 18.1061C56.6714 18.0981 56.7004 18.094 56.731 18.0948Z" fill="url(#paint6_linear_3_634)"/>
<path d="M51.6852 15.7928C49.9834 15.8 48.6618 17.157 48.6587 18.8266C48.6555 20.4906 50.0197 21.8493 51.6877 21.8509C53.3549 21.8517 54.711 20.4963 54.7126 18.8259C54.7151 17.1518 53.3703 15.7927 51.6988 15.7928C51.6943 15.7928 51.6897 15.7928 51.6852 15.7928Z" fill="url(#paint7_linear_3_634)"/>
<path d="M52.2523 12.1151C51.7175 12.3138 51.2685 12.6483 50.8508 13.0271C50.3427 13.4875 49.88 13.9883 49.5059 14.5651C49.3226 14.847 49.1538 15.1377 48.9874 15.4301C48.9405 15.5126 48.9252 15.6143 48.8953 15.7072C48.943 15.6845 48.9672 15.6522 48.989 15.6191C49.2831 15.1749 49.5973 14.746 49.9616 14.3559C50.4204 13.8664 50.9139 13.4221 51.5261 13.1305C51.8686 12.9674 52.2281 12.8656 52.6101 12.8947C53.3451 12.9512 53.9638 13.2565 54.4404 13.8195C54.6221 14.0335 54.7619 14.2832 54.9226 14.5198C54.9226 14.4261 54.9299 14.3243 54.9202 14.2241C54.9016 14.0223 54.8814 13.8203 54.8483 13.6208C54.6843 12.6294 53.8856 11.9834 52.9693 11.9835C52.7351 11.9835 52.4932 12.0257 52.2523 12.1151Z" fill="url(#paint8_linear_3_634)"/>
<path d="M56.3722 19.3215C56.5878 20.4515 57.6788 21.1927 58.8086 20.977C59.9386 20.7613 60.6797 19.6704 60.4641 18.5405C60.2484 17.4106 59.1576 16.6694 58.0276 16.8851C56.8977 17.1007 56.1565 18.1916 56.3722 19.3215Z" fill="white"/>
<path d="M56.9681 19.3341C56.9681 19.9304 57.4517 20.414 58.0482 20.414C58.6446 20.414 59.1282 19.9304 59.1282 19.3341C59.1282 18.7375 58.6446 18.2539 58.0482 18.2539C57.4517 18.2539 56.9681 18.7375 56.9681 19.3341Z" fill="url(#paint9_linear_3_634)"/>
<path d="M58.34 19.0072C58.34 19.103 58.4175 19.1805 58.5133 19.1805C58.6091 19.1805 58.6867 19.103 58.6867 19.0072C58.6867 18.9114 58.6091 18.8338 58.5133 18.8338C58.4175 18.8338 58.34 18.9114 58.34 19.0072Z" fill="white"/>
<path d="M57.2998 19.334C57.2998 19.5059 57.4391 19.6452 57.6109 19.6452C57.7828 19.6452 57.9222 19.5059 57.9222 19.334C57.9222 19.1621 57.7828 19.0228 57.6109 19.0228C57.4391 19.0228 57.2998 19.1621 57.2998 19.334Z" fill="white"/>
<path d="M53.7315 19.3215C53.5159 20.4515 52.425 21.1927 51.295 20.977C50.1651 20.7613 49.4239 19.6704 49.6396 18.5405C49.8554 17.4106 50.9461 16.6694 52.0761 16.8851C53.206 17.1007 53.9472 18.1916 53.7315 19.3215Z" fill="white"/>
<path d="M50.9756 19.3341C50.9756 19.9304 51.4591 20.414 52.0555 20.414C52.6521 20.414 53.1356 19.9304 53.1356 19.3341C53.1356 18.7375 52.6521 18.2539 52.0555 18.2539C51.4591 18.2539 50.9756 18.7375 50.9756 19.3341Z" fill="url(#paint10_linear_3_634)"/>
<path d="M51.7638 19.0072C51.7638 19.103 51.6861 19.1805 51.5904 19.1805C51.4946 19.1805 51.417 19.103 51.417 19.0072C51.417 18.9114 51.4946 18.8338 51.5904 18.8338C51.6861 18.8338 51.7638 18.9114 51.7638 19.0072Z" fill="white"/>
<path d="M52.8039 19.334C52.8039 19.5059 52.6645 19.6452 52.4927 19.6452C52.3209 19.6452 52.1815 19.5059 52.1815 19.334C52.1815 19.1621 52.3209 19.0228 52.4927 19.0228C52.6645 19.0228 52.8039 19.1621 52.8039 19.334Z" fill="white"/>
<path d="M81.7791 6.10111C81.7774 6.09683 81.7743 6.09296 81.7725 6.08876C81.7028 3.18817 79.3347 0.856952 76.4173 0.856952C73.456 0.856952 71.0554 3.25755 71.0554 6.2188V6.37575H71.0564C71.0018 6.66847 70.8531 7.3754 70.6348 7.71296C70.3559 8.14453 70.6445 8.88999 71.3948 8.57611C72.1451 8.26222 72.6549 8.09841 73.5302 8.65115C74.4055 9.20388 74.9346 8.66439 76.1851 8.46819C77.4355 8.27207 78.1954 8.9194 79.1092 8.80171C80.0231 8.68402 80.2155 8.10528 81.0235 8.18379C81.8315 8.26222 82.1489 8.49759 82.3028 7.8699C82.4567 7.24213 82.1654 7.10481 81.7791 6.10111Z" fill="#FFC600"/>
<path d="M78.7967 11.5128V10.6912H80.2435V11.5128H86.5902C86.564 11.1497 86.3238 10.8896 86.0274 10.1193C86.0257 10.1149 86.0225 10.1111 86.0208 10.1069C85.951 7.20628 83.5828 4.87514 80.6654 4.87514C77.7042 4.87514 75.3036 7.27566 75.3036 10.237V10.3939H75.3046C75.26 10.6329 75.1526 11.148 74.9958 11.5128H78.7967Z" fill="#FF8E63"/>
<path d="M71.2062 10.3776V11.5128H77.3576C77.3424 11.2077 77.1443 10.9989 76.8978 10.3586C76.8964 10.3551 76.8939 10.3519 76.8924 10.3485C76.8355 7.98114 74.9027 6.07851 72.5217 6.07851C70.1307 6.07851 68.1889 7.99649 68.1476 10.3776H71.2062Z" fill="#15CB24"/>
<path d="M80.0015 34.568C79.9899 34.3561 80.0303 33.903 80.1606 33.276C80.3014 32.5991 80.545 31.7147 80.937 30.7048C81.7211 28.6848 83.0986 26.1589 85.4302 23.7712C86.1648 23.0188 86.668 21.9813 87.0083 20.8024C87.3485 19.6237 87.5254 18.3064 87.6099 16.9977C87.7773 14.4041 87.5815 11.8551 87.5776 10.4841L79.5376 10.4723C79.9362 13.326 80.1912 15.0874 80.1431 16.1686C80.1188 16.7124 80.0184 17.0921 79.814 17.3532C79.6085 17.6156 79.3035 17.7519 78.8892 17.821C78.2836 17.9233 77.8296 17.9441 77.478 17.8034C77.123 17.6612 76.88 17.3577 76.686 16.8356C76.4924 16.3142 76.3451 15.567 76.1841 14.527C76.024 13.4936 75.8496 12.1659 75.605 10.4772H69.8188C69.9171 11.2932 69.946 12.365 69.9575 13.5387C69.9693 14.735 69.9636 16.0374 69.9956 17.2887C70.0276 18.54 70.0978 19.7375 70.2603 20.7223C70.3415 21.2148 70.4458 21.6536 70.5796 22.0182C70.7135 22.3831 70.8762 22.672 71.0728 22.8678C73.6206 25.4073 75.1971 27.9492 76.1255 30.0524C77.0371 32.1176 77.3242 33.7626 77.2915 34.568H80.0015Z" fill="#6348EC" stroke="#5038C3" stroke-width="0.0807739"/>
<mask id="mask0_3_634" style="mask-type:luminance" maskUnits="userSpaceOnUse" x="69" y="10" width="19" height="25">
<path d="M80.0015 34.5681C79.9899 34.3561 80.0303 33.9031 80.1606 33.2761C80.3014 32.5991 80.545 31.7148 80.937 30.7048C81.7211 28.6849 83.0986 26.1589 85.4302 23.7712C86.1648 23.0188 86.668 21.9813 87.0083 20.8024C87.3485 19.6238 87.5254 18.3064 87.6099 16.9978C87.7773 14.4041 87.5815 11.8552 87.5776 10.4841L79.5376 10.4724C79.9361 13.3256 80.1911 15.0864 80.1431 16.1677C80.1189 16.7117 80.0185 17.0921 79.814 17.3532C79.6085 17.6156 79.3035 17.751 78.8892 17.82C78.2835 17.9223 77.8296 17.9432 77.478 17.8024C77.1232 17.6602 76.88 17.3576 76.686 16.8356C76.4924 16.3143 76.3451 15.567 76.1841 14.5271C76.024 13.4936 75.8495 12.1659 75.605 10.4772H69.8188C69.9171 11.2933 69.946 12.3651 69.9575 13.5388C69.9693 14.735 69.9636 16.0375 69.9956 17.2888C70.0276 18.54 70.0978 19.7375 70.2603 20.7224C70.3415 21.2148 70.4458 21.6537 70.5796 22.0183C70.7135 22.3831 70.8763 22.672 71.0728 22.8679C73.6207 25.4074 75.1971 27.9492 76.1255 30.0524C77.0371 32.1176 77.3243 33.7626 77.2915 34.5681H80.0015Z" fill="white" stroke="white" stroke-width="0.0807739"/>
</mask>
<g mask="url(#mask0_3_634)">
<path d="M78.7457 11.3755C77.3469 9.61929 81.8398 13.5705 84.1189 16.7042C84.1988 16.7841 84.3587 16.8641 84.4386 16.944C84.6784 17.2637 84.9182 17.5834 85.1579 17.8232C85.5576 18.1429 85.8773 18.5425 86.277 18.8622C88.5949 21.26 90.7528 23.5779 93.0013 25.9877" stroke="#5038C3" stroke-width="0.719372" stroke-miterlimit="10" stroke-linecap="round" stroke-linejoin="round"/>
</g>
<mask id="mask1_3_634" style="mask-type:luminance" maskUnits="userSpaceOnUse" x="69" y="10" width="19" height="25">
<path d="M80.0015 34.568C79.9899 34.3561 80.0303 33.903 80.1606 33.276C80.3014 32.599 80.545 31.7147 80.937 30.7048C81.7211 28.6848 83.0986 26.1589 85.4302 23.7712C86.1648 23.0188 86.668 21.9813 87.0083 20.8024C87.3485 19.6237 87.5254 18.3064 87.6099 16.9977C87.7773 14.4041 87.5815 11.8551 87.5776 10.4841L79.5376 10.4723C79.9361 13.3255 80.1911 15.0864 80.1431 16.1676C80.1189 16.7117 80.0185 17.092 79.814 17.3532C79.6085 17.6156 79.3035 17.7509 78.8892 17.82C78.2835 17.9223 77.8296 17.9432 77.478 17.8024C77.1232 17.6602 76.88 17.3575 76.686 16.8356C76.4924 16.3143 76.3451 15.567 76.1841 14.527C76.024 13.4936 75.8495 12.1658 75.605 10.4772H69.8188C69.9171 11.2932 69.946 12.3651 69.9575 13.5387C69.9693 14.735 69.9636 16.0374 69.9956 17.2887C70.0276 18.54 70.0978 19.7375 70.2603 20.7223C70.3415 21.2148 70.4458 21.6536 70.5796 22.0182C70.7135 22.383 70.8763 22.672 71.0728 22.8678C73.6207 25.4073 75.1971 27.9492 76.1255 30.0524C77.0371 32.1176 77.3243 33.7626 77.2915 34.568H80.0015Z" fill="white" stroke="white" stroke-width="0.0807739"/>
</mask>
<g mask="url(#mask1_3_634)">
<path d="M80.9252 7.81387C81.5516 8.60036 85.6589 12.2634 86.2983 13.1426C86.3783 13.2225 86.5381 13.3025 86.618 13.3823C86.8579 13.702 87.0977 14.0217 87.3374 14.2616C87.7371 14.5813 88.0568 14.9809 88.4564 15.3006C90.7743 17.6984 92.9323 20.0163 95.1808 22.4261" stroke="#5038C3" stroke-width="0.719372" stroke-miterlimit="10" stroke-linecap="round" stroke-linejoin="round"/>
</g>
<mask id="mask2_3_634" style="mask-type:luminance" maskUnits="userSpaceOnUse" x="69" y="10" width="19" height="25">
<path d="M80.0015 34.568C79.9899 34.3561 80.0303 33.903 80.1606 33.276C80.3014 32.599 80.545 31.7147 80.937 30.7048C81.7211 28.6848 83.0986 26.1589 85.4302 23.7712C86.1648 23.0188 86.668 21.9813 87.0083 20.8024C87.3485 19.6237 87.5254 18.3064 87.6099 16.9977C87.7773 14.4041 87.5815 11.8551 87.5776 10.4841L79.5376 10.4723C79.9361 13.3255 80.1911 15.0864 80.1431 16.1676C80.1189 16.7117 80.0185 17.092 79.814 17.3532C79.6085 17.6156 79.3035 17.7509 78.8892 17.82C78.2835 17.9223 77.8296 17.9432 77.478 17.8024C77.1232 17.6602 76.88 17.3575 76.686 16.8356C76.4924 16.3143 76.3451 15.567 76.1841 14.527C76.024 13.4936 75.8495 12.1658 75.605 10.4772H69.8188C69.9171 11.2932 69.946 12.3651 69.9575 13.5387C69.9693 14.735 69.9636 16.0374 69.9956 17.2887C70.0276 18.54 70.0978 19.7375 70.2603 20.7223C70.3415 21.2148 70.4458 21.6536 70.5796 22.0182C70.7135 22.383 70.8763 22.672 71.0728 22.8678C73.6207 25.4073 75.1971 27.9492 76.1255 30.0524C77.0371 32.1176 77.3243 33.7626 77.2915 34.568H80.0015Z" fill="white" stroke="white" stroke-width="0.0807739"/>
</mask>
<g mask="url(#mask2_3_634)">
<path d="M72.0382 10.595C76.3062 15.0507 84.8384 23.3381 89.2344 27.814C89.3943 28.0538 89.5541 28.2936 89.714 28.4534C90.2734 28.8531 90.5931 29.4925 91.1222 29.8642" stroke="#5038C3" stroke-width="0.719372" stroke-miterlimit="10" stroke-linecap="round" stroke-linejoin="round"/>
</g>
<mask id="mask3_3_634" style="mask-type:luminance" maskUnits="userSpaceOnUse" x="69" y="10" width="19" height="25">
<path d="M80.0015 34.5682C79.9899 34.3562 80.0303 33.9032 80.1606 33.2762C80.3014 32.5992 80.545 31.7149 80.937 30.7049C81.7211 28.685 83.0986 26.159 85.4302 23.7713C86.1648 23.0189 86.668 21.9814 87.0083 20.8025C87.3485 19.6239 87.5254 18.3065 87.6099 16.9978C87.7773 14.4042 87.5815 11.8552 87.5776 10.4842L79.5376 10.4725C79.9361 13.3257 80.1911 15.0865 80.1431 16.1678C80.1189 16.7118 80.0185 17.0922 79.814 17.3533C79.6085 17.6157 79.3035 17.7511 78.8892 17.8201C78.2835 17.9224 77.8296 17.9433 77.478 17.8025C77.1232 17.6603 76.88 17.3577 76.686 16.8357C76.4924 16.3144 76.3451 15.5671 76.1841 14.5271C76.024 13.4937 75.8495 12.166 75.605 10.4773H69.8188C69.9171 11.2933 69.946 12.3652 69.9575 13.5389C69.9693 14.7351 69.9636 16.0376 69.9956 17.2889C70.0276 18.5401 70.0978 19.7376 70.2603 20.7225C70.3415 21.2149 70.4458 21.6537 70.5796 22.0184C70.7135 22.3832 70.8763 22.6721 71.0728 22.868C73.6207 25.4075 75.1971 27.9493 76.1255 30.0525C77.0371 32.1177 77.3243 33.7627 77.2915 34.5682H80.0015Z" fill="white" stroke="white" stroke-width="0.0807739"/>
</mask>
<g mask="url(#mask3_3_634)">
<path d="M69.1318 12.8582C71.1232 14.9435 74.9005 18.8355 79.643 23.5779C79.8828 23.8976 80.1226 24.1375 80.3624 24.4572C82.9201 27.1746 85.3179 29.6524 87.8755 32.3699C88.3551 32.8495 88.7547 33.2491 89.2428 33.7408" stroke="#5038C3" stroke-width="0.719372" stroke-miterlimit="10" stroke-linecap="round" stroke-linejoin="round"/>
</g>
<mask id="mask4_3_634" style="mask-type:luminance" maskUnits="userSpaceOnUse" x="69" y="10" width="19" height="25">
<path d="M80.0015 34.5681C79.9899 34.3561 80.0303 33.9031 80.1606 33.2761C80.3014 32.5991 80.545 31.7148 80.937 30.7048C81.7211 28.6849 83.0986 26.1589 85.4302 23.7712C86.1648 23.0188 86.668 21.9813 87.0083 20.8024C87.3485 19.6238 87.5254 18.3064 87.6099 16.9978C87.7773 14.4041 87.5815 11.8552 87.5776 10.4841L79.5376 10.4724C79.9361 13.3256 80.1911 15.0864 80.1431 16.1677C80.1189 16.7117 80.0185 17.0921 79.814 17.3532C79.6085 17.6156 79.3035 17.751 78.8892 17.82C78.2835 17.9223 77.8296 17.9432 77.478 17.8024C77.1232 17.6602 76.88 17.3576 76.686 16.8356C76.4924 16.3143 76.3451 15.567 76.1841 14.5271C76.024 13.4936 75.8495 12.1659 75.605 10.4772H69.8188C69.9171 11.2933 69.946 12.3651 69.9575 13.5388C69.9693 14.735 69.9636 16.0375 69.9956 17.2888C70.0276 18.54 70.0978 19.7375 70.2603 20.7224C70.3415 21.2148 70.4458 21.6537 70.5796 22.0183C70.7135 22.3831 70.8763 22.672 71.0728 22.8679C73.6207 25.4074 75.1971 27.9492 76.1255 30.0524C77.0371 32.1176 77.3243 33.7626 77.2915 34.5681H80.0015Z" fill="white" stroke="white" stroke-width="0.0807739"/>
</mask>
<g mask="url(#mask4_3_634)">
<path d="M66.297 15.4712L87.3633 37.6173" stroke="#5038C3" stroke-width="0.719372" stroke-miterlimit="10" stroke-linecap="round" stroke-linejoin="round"/>
</g>
<mask id="mask5_3_634" style="mask-type:luminance" maskUnits="userSpaceOnUse" x="69" y="10" width="19" height="25">
<path d="M80.0015 34.5681C79.9899 34.3561 80.0303 33.9031 80.1606 33.2761C80.3014 32.5991 80.545 31.7148 80.937 30.7048C81.7211 28.6849 83.0986 26.159 85.4302 23.7712C86.1648 23.0189 86.668 21.9813 87.0083 20.8025C87.3485 19.6238 87.5254 18.3064 87.6099 16.9978C87.7773 14.4042 87.5815 11.8552 87.5776 10.4841L79.5376 10.4724C79.9361 13.3256 80.1911 15.0864 80.1431 16.1677C80.1189 16.7118 80.0185 17.0921 79.814 17.3532C79.6085 17.6157 79.3035 17.751 78.8892 17.82C78.2835 17.9224 77.8296 17.9432 77.478 17.8025C77.1232 17.6602 76.88 17.3576 76.686 16.8357C76.4924 16.3143 76.3451 15.567 76.1841 14.5271C76.024 13.4936 75.8495 12.1659 75.605 10.4773H69.8188C69.9171 11.2933 69.946 12.3651 69.9575 13.5388C69.9693 14.735 69.9636 16.0375 69.9956 17.2888C70.0276 18.54 70.0978 19.7375 70.2603 20.7224C70.3415 21.2148 70.4458 21.6537 70.5796 22.0183C70.7135 22.3831 70.8763 22.672 71.0728 22.8679C73.6207 25.4074 75.1971 27.9493 76.1255 30.0525C77.0371 32.1176 77.3243 33.7626 77.2915 34.5681H80.0015Z" fill="white" stroke="white" stroke-width="0.0807739"/>
</mask>
<g mask="url(#mask5_3_634)">
<path d="M64.4177 19.3477L85.484 41.4938" stroke="#5038C3" stroke-width="0.719372" stroke-miterlimit="10" stroke-linecap="round" stroke-linejoin="round"/>
</g>
<mask id="mask6_3_634" style="mask-type:luminance" maskUnits="userSpaceOnUse" x="69" y="10" width="19" height="25">
<path d="M80.0015 34.568C79.9899 34.3561 80.0303 33.903 80.1606 33.276C80.3014 32.599 80.545 31.7147 80.937 30.7048C81.7211 28.6848 83.0986 26.1589 85.4302 23.7712C86.1648 23.0188 86.668 21.9813 87.0083 20.8024C87.3485 19.6237 87.5254 18.3064 87.6099 16.9977C87.7773 14.4041 87.5815 11.8551 87.5776 10.4841L79.5376 10.4723C79.9361 13.3255 80.1911 15.0864 80.1431 16.1676C80.1189 16.7117 80.0185 17.092 79.814 17.3532C79.6085 17.6156 79.3035 17.7509 78.8892 17.82C78.2835 17.9223 77.8296 17.9432 77.478 17.8024C77.1232 17.6602 76.88 17.3575 76.686 16.8356C76.4924 16.3143 76.3451 15.567 76.1841 14.527C76.024 13.4936 75.8495 12.1658 75.605 10.4772H69.8188C69.9171 11.2932 69.946 12.3651 69.9575 13.5387C69.9693 14.735 69.9636 16.0374 69.9956 17.2887C70.0276 18.54 70.0978 19.7375 70.2603 20.7223C70.3415 21.2148 70.4458 21.6536 70.5796 22.0182C70.7135 22.383 70.8763 22.672 71.0728 22.8678C73.6207 25.4073 75.1971 27.9492 76.1255 30.0524C77.0371 32.1176 77.3243 33.7626 77.2915 34.568H80.0015Z" fill="white" stroke="white" stroke-width="0.0807739"/>
</mask>
<g mask="url(#mask6_3_634)">
<path d="M75.3653 14.479C73.3288 16.7841 71.1707 18.8622 69.0127 21.1002C68.8529 21.3399 68.693 21.5797 68.5332 21.7396C67.0945 23.0983 65.8156 24.537 64.4177 25.9876" stroke="#5038C3" stroke-width="0.719372" stroke-miterlimit="10" stroke-linecap="round" stroke-linejoin="round"/>
</g>
<mask id="mask7_3_634" style="mask-type:luminance" maskUnits="userSpaceOnUse" x="69" y="10" width="19" height="25">
<path d="M80.0015 34.5682C79.9899 34.3562 80.0303 33.9032 80.1606 33.2762C80.3014 32.5992 80.545 31.7149 80.937 30.7049C81.7211 28.685 83.0986 26.159 85.4302 23.7713C86.1648 23.0189 86.668 21.9814 87.0083 20.8025C87.3485 19.6239 87.5254 18.3065 87.6099 16.9978C87.7773 14.4042 87.5815 11.8552 87.5776 10.4842L79.5376 10.4725C79.9361 13.3257 80.1911 15.0865 80.1431 16.1678C80.1189 16.7118 80.0185 17.0922 79.814 17.3533C79.6085 17.6157 79.3035 17.7511 78.8892 17.8201C78.2835 17.9224 77.8296 17.9433 77.478 17.8025C77.1232 17.6603 76.88 17.3577 76.686 16.8357C76.4924 16.3144 76.3451 15.5671 76.1841 14.5271C76.024 13.4937 75.8495 12.166 75.605 10.4773H69.8188C69.9171 11.2933 69.946 12.3652 69.9575 13.5389C69.9693 14.7351 69.9636 16.0376 69.9956 17.2889C70.0276 18.5401 70.0978 19.7376 70.2603 20.7225C70.3415 21.2149 70.4458 21.6537 70.5796 22.0184C70.7135 22.3832 70.8763 22.6721 71.0728 22.868C73.6207 25.4075 75.1971 27.9493 76.1255 30.0525C77.0371 32.1177 77.3243 33.7627 77.2915 34.5682H80.0015Z" fill="white" stroke="white" stroke-width="0.0807739"/>
</mask>
<g mask="url(#mask7_3_634)">
<path d="M75.3653 8.72466C73.3288 11.0298 71.1707 13.1079 69.0127 15.3459C68.8529 15.5856 68.693 15.8254 68.5332 15.9853C67.0945 17.344 65.8156 18.7827 64.4177 20.2333" stroke="#5038C3" stroke-width="0.719372" stroke-miterlimit="10" stroke-linecap="round" stroke-linejoin="round"/>
</g>
<mask id="mask8_3_634" style="mask-type:luminance" maskUnits="userSpaceOnUse" x="69" y="10" width="19" height="25">
<path d="M80.0015 34.5681C79.9899 34.3561 80.0303 33.9031 80.1606 33.2761C80.3014 32.5991 80.545 31.7148 80.937 30.7048C81.7211 28.6849 83.0986 26.1589 85.4302 23.7712C86.1648 23.0188 86.668 21.9813 87.0083 20.8024C87.3485 19.6238 87.5254 18.3064 87.6099 16.9978C87.7773 14.4041 87.5815 11.8552 87.5776 10.4841L79.5376 10.4724C79.9361 13.3256 80.1911 15.0864 80.1431 16.1677C80.1189 16.7117 80.0185 17.0921 79.814 17.3532C79.6085 17.6156 79.3035 17.751 78.8892 17.82C78.2835 17.9223 77.8296 17.9432 77.478 17.8024C77.1232 17.6602 76.88 17.3576 76.686 16.8356C76.4924 16.3143 76.3451 15.567 76.1841 14.5271C76.024 13.4936 75.8495 12.1659 75.605 10.4772H69.8188C69.9171 11.2933 69.946 12.3651 69.9575 13.5388C69.9693 14.735 69.9636 16.0375 69.9956 17.2888C70.0276 18.54 70.0978 19.7375 70.2603 20.7224C70.3415 21.2148 70.4458 21.6537 70.5796 22.0183C70.7135 22.3831 70.8763 22.672 71.0728 22.8679C73.6207 25.4074 75.1971 27.9492 76.1255 30.0524C77.0371 32.1176 77.3243 33.7626 77.2915 34.5681H80.0015Z" fill="white" stroke="white" stroke-width="0.0807739"/>
</mask>
<g mask="url(#mask8_3_634)">
<path d="M85.4839 9.69414C82.5825 12.6946 74.7367 20.9864 69.0126 26.9348C68.1335 27.9739 67.1743 28.8531 66.297 29.8642" stroke="#5038C3" stroke-width="0.719372" stroke-miterlimit="10" stroke-linecap="round" stroke-linejoin="round"/>
</g>
<mask id="mask9_3_634" style="mask-type:luminance" maskUnits="userSpaceOnUse" x="69" y="10" width="19" height="25">
<path d="M80.0015 34.5681C79.9899 34.3562 80.0303 33.9031 80.1606 33.2761C80.3014 32.5991 80.545 31.7148 80.937 30.7048C81.7211 28.6849 83.0986 26.159 85.4302 23.7713C86.1648 23.0189 86.668 21.9814 87.0083 20.8025C87.3485 19.6238 87.5254 18.3064 87.6099 16.9978C87.7773 14.4042 87.5815 11.8552 87.5776 10.4841L79.5376 10.4724C79.9361 13.3256 80.1911 15.0865 80.1431 16.1677C80.1189 16.7118 80.0185 17.0921 79.814 17.3533C79.6085 17.6157 79.3035 17.751 78.8892 17.8201C78.2835 17.9224 77.8296 17.9433 77.478 17.8025C77.1232 17.6603 76.88 17.3576 76.686 16.8357C76.4924 16.3144 76.3451 15.567 76.1841 14.5271C76.024 13.4937 75.8495 12.1659 75.605 10.4773H69.8188C69.9171 11.2933 69.946 12.3652 69.9575 13.5388C69.9693 14.735 69.9636 16.0375 69.9956 17.2888C70.0276 18.5401 70.0978 19.7375 70.2603 20.7224C70.3415 21.2149 70.4458 21.6537 70.5796 22.0183C70.7135 22.3831 70.8763 22.6721 71.0728 22.8679C73.6207 25.4074 75.1971 27.9493 76.1255 30.0525C77.0371 32.1177 77.3243 33.7627 77.2915 34.5681H80.0015Z" fill="white" stroke="white" stroke-width="0.0807739"/>
</mask>
<g mask="url(#mask9_3_634)">
<path d="M88.5337 12.233C86.9587 13.7327 84.1231 16.4689 82.6045 17.9875C79.3275 21.2645 75.8864 25.6561 72.6893 28.9331C72.5295 29.1728 72.3696 29.4126 72.2098 29.5725C70.7711 30.9313 69.5722 32.3699 68.1764 33.7408" stroke="#5038C3" stroke-width="0.719372" stroke-miterlimit="10" stroke-linecap="round" stroke-linejoin="round"/>
</g>
<mask id="mask10_3_634" style="mask-type:luminance" maskUnits="userSpaceOnUse" x="69" y="10" width="19" height="25">
<path d="M80.0015 34.5681C79.9899 34.3561 80.0303 33.9031 80.1606 33.2761C80.3014 32.5991 80.545 31.7148 80.937 30.7048C81.7211 28.6849 83.0986 26.1589 85.4302 23.7712C86.1648 23.0188 86.668 21.9813 87.0083 20.8024C87.3485 19.6238 87.5254 18.3064 87.6099 16.9978C87.7773 14.4041 87.5815 11.8552 87.5776 10.4841L79.5376 10.4724C79.9361 13.3256 80.1911 15.0864 80.1431 16.1677C80.1189 16.7117 80.0185 17.0921 79.814 17.3532C79.6085 17.6156 79.3035 17.751 78.8892 17.82C78.2835 17.9223 77.8296 17.9432 77.478 17.8024C77.1232 17.6602 76.88 17.3576 76.686 16.8356C76.4924 16.3143 76.3451 15.567 76.1841 14.5271C76.024 13.4936 75.8495 12.1659 75.605 10.4772H69.8188C69.9171 11.2933 69.946 12.3651 69.9575 13.5388C69.9693 14.735 69.9636 16.0375 69.9956 17.2888C70.0276 18.54 70.0978 19.7375 70.2603 20.7224C70.3415 21.2148 70.4458 21.6537 70.5796 22.0183C70.7135 22.3831 70.8763 22.672 71.0728 22.8679C73.6207 25.4074 75.1971 27.9492 76.1255 30.0524C77.0371 32.1176 77.3243 33.7626 77.2915 34.5681H80.0015Z" fill="white" stroke="white" stroke-width="0.0807739"/>
</mask>
<g mask="url(#mask10_3_634)">
<path d="M91.122 15.4712L70.0557 37.6173" stroke="#5038C3" stroke-width="0.719372" stroke-miterlimit="10" stroke-linecap="round" stroke-linejoin="round"/>
</g>
<mask id="mask11_3_634" style="mask-type:luminance" maskUnits="userSpaceOnUse" x="69" y="10" width="19" height="25">
<path d="M80.0015 34.5681C79.9899 34.3561 80.0303 33.9031 80.1606 33.2761C80.3014 32.5991 80.545 31.7148 80.937 30.7048C81.7211 28.6849 83.0986 26.159 85.4302 23.7712C86.1648 23.0189 86.668 21.9813 87.0083 20.8025C87.3485 19.6238 87.5254 18.3064 87.6099 16.9978C87.7773 14.4042 87.5815 11.8552 87.5776 10.4841L79.5376 10.4724C79.9361 13.3256 80.1911 15.0864 80.1431 16.1677C80.1189 16.7118 80.0185 17.0921 79.814 17.3532C79.6085 17.6157 79.3035 17.751 78.8892 17.82C78.2835 17.9224 77.8296 17.9432 77.478 17.8025C77.1232 17.6602 76.88 17.3576 76.686 16.8357C76.4924 16.3143 76.3451 15.567 76.1841 14.5271C76.024 13.4936 75.8495 12.1659 75.605 10.4773H69.8188C69.9171 11.2933 69.946 12.3651 69.9575 13.5388C69.9693 14.735 69.9636 16.0375 69.9956 17.2888C70.0276 18.54 70.0978 19.7375 70.2603 20.7224C70.3415 21.2148 70.4458 21.6537 70.5796 22.0183C70.7135 22.3831 70.8763 22.672 71.0728 22.8679C73.6207 25.4074 75.1971 27.9493 76.1255 30.0525C77.0371 32.1176 77.3243 33.7626 77.2915 34.5681H80.0015Z" fill="white" stroke="white" stroke-width="0.0807739"/>
</mask>
<g mask="url(#mask11_3_634)">
<path d="M93.0014 19.3477L71.9351 41.4938" stroke="#5038C3" stroke-width="0.719372" stroke-miterlimit="10" stroke-linecap="round" stroke-linejoin="round"/>
</g>
<mask id="path-66-inside-1_3_634" fill="white">
<path d="M78.1422 10.4987C78.1848 10.8046 78.2073 10.9483 78.2179 11.0025C78.2231 11.0622 78.2304 11.1406 78.24 11.2419C78.3472 12.3672 78.4078 13.3794 78.4077 14.2425C78.4077 14.7496 78.3868 15.205 78.3435 15.5995C78.311 15.8953 78.2659 16.1566 78.2098 16.3784C78.1677 16.5445 78.1192 16.6882 78.0672 16.8073C77.9892 16.9864 77.9035 17.1066 77.8263 17.1782C77.7874 17.2143 77.7506 17.2396 77.7133 17.2584C77.6757 17.2771 77.6371 17.29 77.5905 17.298L77.5895 17.2981C77.4967 17.3138 77.4133 17.3208 77.3387 17.3207C77.2463 17.3207 77.1676 17.3103 77.0976 17.2921C76.9669 17.257 76.8621 17.1984 76.7507 17.0931C76.6543 17.0011 76.5562 16.8699 76.4619 16.6927C76.2961 16.3835 76.1469 15.9365 76.0187 15.3711C75.8247 14.5225 75.6735 13.4107 75.5099 12.076C75.3457 10.7408 75.5267 12.1238 75.2721 10.3671C75.2371 10.1258 75.0314 9.94788 74.7877 9.94788H68.5622C68.4223 9.94788 68.2878 10.0085 68.1952 10.1134C68.1027 10.2182 68.0592 10.3592 68.0765 10.498C68.1252 10.8868 68.1577 11.3517 68.1788 11.867C68.2161 12.7691 68.2194 13.8256 68.2249 14.9235C68.2336 16.5713 68.2465 18.3106 68.3941 19.7946C68.4684 20.5374 68.5756 21.2166 68.7408 21.8C68.8237 22.0917 68.9213 22.3602 69.0414 22.6023C69.1618 22.8441 69.3049 23.0614 69.4866 23.2429C71.9038 25.652 73.4229 28.0563 74.3371 30.0616C74.794 31.064 75.0995 31.9668 75.2897 32.7171C75.3849 33.0921 75.4511 33.429 75.4932 33.7198C75.5354 34.0102 75.5533 34.2552 75.5532 34.4413C75.5532 34.4924 75.5519 34.5389 75.5495 34.5804C75.5419 34.7146 75.5901 34.8465 75.6824 34.9443C75.7748 35.042 75.9038 35.0975 76.0383 35.0975H78.831C78.9709 35.0975 79.1028 35.0385 79.1961 34.9341C79.2893 34.8299 79.333 34.6921 79.3174 34.5531C79.3166 34.5496 79.3152 34.5273 79.3153 34.495C79.3153 34.3996 79.3276 34.2212 79.3605 33.9895C79.4177 33.5822 79.5352 33.0028 79.739 32.3064C80.0447 31.2614 80.5443 29.9512 81.3249 28.5377C82.1057 27.124 83.167 25.6065 84.5974 24.1415C85.1291 23.5969 85.5391 22.9331 85.859 22.2005C86.3382 21.1009 86.6181 19.8428 86.7831 18.5527C86.9476 17.2627 86.9953 15.9398 86.9953 14.7154C86.9953 13.8285 86.9701 12.9933 86.9451 12.2625C86.9201 11.5323 86.8955 10.9046 86.8956 10.4436C86.8956 10.1733 86.6772 9.95458 86.4068 9.9541L78.2804 9.94158C78.1387 9.94158 78.1226 10.3584 78.1422 10.4987ZM78.2214 18.0962C78.3474 18.024 78.4607 17.9327 78.5599 17.8289C78.7338 17.6466 78.8656 17.428 78.9708 17.1842C79.1279 16.8176 79.2277 16.3901 79.2931 15.8996C79.358 15.4092 79.3866 14.8557 79.3867 14.2425C79.3866 13.3342 79.3236 12.295 79.2146 11.1492C79.2056 11.0555 79.1964 10.9808 79.1868 10.9219L85.923 10.9323C85.932 11.331 85.9495 11.7899 85.9668 12.296C85.9917 13.0236 86.0164 13.8469 86.0164 14.7154C86.0164 16.3132 85.9317 18.0651 85.6168 19.6353C85.4598 20.4202 85.2455 21.159 84.9618 21.809C84.6781 22.4593 84.3258 23.0189 83.897 23.4576C81.6147 25.7951 80.2273 28.2625 79.4095 30.2834C79.0007 31.2942 78.7339 32.1936 78.5684 32.9137C78.4857 33.2739 78.4282 33.5892 78.3911 33.8531C78.3777 33.9485 78.3669 34.0369 78.3586 34.1186H76.5207C76.5095 33.9532 76.4901 33.7734 76.462 33.5792C76.3787 33.0049 76.2178 32.3049 75.9552 31.5058C75.1679 29.1108 73.463 25.8243 70.1777 22.5496C70.1138 22.486 70.046 22.3972 69.9797 22.282C69.8549 22.0665 69.7386 21.76 69.6433 21.3872C69.4751 20.7343 69.3686 19.8823 69.3057 18.9393C69.2105 17.5237 69.2092 15.9012 69.2012 14.378C69.1971 13.6161 69.1912 12.8788 69.1704 12.2011C69.1563 11.7462 69.1357 11.3186 69.1037 10.9268H74.3648C74.4291 11.3564 74.4326 11.3445 74.4328 11.3327C74.4336 11.3193 74.4297 11.3062 74.5028 11.9056C74.6191 12.8607 74.7271 13.7154 74.8497 14.4664C74.9416 15.0298 75.0416 15.5348 75.1616 15.9829C75.2516 16.319 75.3529 16.6232 75.4737 16.8969C75.5645 17.102 75.6663 17.2903 75.7851 17.4603C75.9624 17.7148 76.1819 17.9307 76.4488 18.0787C76.7148 18.2274 77.0217 18.3006 77.3387 18.2997C77.4741 18.2997 77.612 18.2871 77.7525 18.2633H77.7514C77.9175 18.2358 78.0776 18.1787 78.2214 18.0959"/>
</mask>
<path d="M78.1422 10.4987C78.1848 10.8046 78.2073 10.9483 78.2179 11.0025C78.2231 11.0622 78.2304 11.1406 78.24 11.2419C78.3472 12.3672 78.4078 13.3794 78.4077 14.2425C78.4077 14.7496 78.3868 15.205 78.3435 15.5995C78.311 15.8953 78.2659 16.1566 78.2098 16.3784C78.1677 16.5445 78.1192 16.6882 78.0672 16.8073C77.9892 16.9864 77.9035 17.1066 77.8263 17.1782C77.7874 17.2143 77.7506 17.2396 77.7133 17.2584C77.6757 17.2771 77.6371 17.29 77.5905 17.298L77.5895 17.2981C77.4967 17.3138 77.4133 17.3208 77.3387 17.3207C77.2463 17.3207 77.1676 17.3103 77.0976 17.2921C76.9669 17.257 76.8621 17.1984 76.7507 17.0931C76.6543 17.0011 76.5562 16.8699 76.4619 16.6927C76.2961 16.3835 76.1469 15.9365 76.0187 15.3711C75.8247 14.5225 75.6735 13.4107 75.5099 12.076C75.3457 10.7408 75.5267 12.1238 75.2721 10.3671C75.2371 10.1258 75.0314 9.94788 74.7877 9.94788H68.5622C68.4223 9.94788 68.2878 10.0085 68.1952 10.1134C68.1027 10.2182 68.0592 10.3592 68.0765 10.498C68.1252 10.8868 68.1577 11.3517 68.1788 11.867C68.2161 12.7691 68.2194 13.8256 68.2249 14.9235C68.2336 16.5713 68.2465 18.3106 68.3941 19.7946C68.4684 20.5374 68.5756 21.2166 68.7408 21.8C68.8237 22.0917 68.9213 22.3602 69.0414 22.6023C69.1618 22.8441 69.3049 23.0614 69.4866 23.2429C71.9038 25.652 73.4229 28.0563 74.3371 30.0616C74.794 31.064 75.0995 31.9668 75.2897 32.7171C75.3849 33.0921 75.4511 33.429 75.4932 33.7198C75.5354 34.0102 75.5533 34.2552 75.5532 34.4413C75.5532 34.4924 75.5519 34.5389 75.5495 34.5804C75.5419 34.7146 75.5901 34.8465 75.6824 34.9443C75.7748 35.042 75.9038 35.0975 76.0383 35.0975H78.831C78.9709 35.0975 79.1028 35.0385 79.1961 34.9341C79.2893 34.8299 79.333 34.6921 79.3174 34.5531C79.3166 34.5496 79.3152 34.5273 79.3153 34.495C79.3153 34.3996 79.3276 34.2212 79.3605 33.9895C79.4177 33.5822 79.5352 33.0028 79.739 32.3064C80.0447 31.2614 80.5443 29.9512 81.3249 28.5377C82.1057 27.124 83.167 25.6065 84.5974 24.1415C85.1291 23.5969 85.5391 22.9331 85.859 22.2005C86.3382 21.1009 86.6181 19.8428 86.7831 18.5527C86.9476 17.2627 86.9953 15.9398 86.9953 14.7154C86.9953 13.8285 86.9701 12.9933 86.9451 12.2625C86.9201 11.5323 86.8955 10.9046 86.8956 10.4436C86.8956 10.1733 86.6772 9.95458 86.4068 9.9541L78.2804 9.94158C78.1387 9.94158 78.1226 10.3584 78.1422 10.4987ZM78.2214 18.0962C78.3474 18.024 78.4607 17.9327 78.5599 17.8289C78.7338 17.6466 78.8656 17.428 78.9708 17.1842C79.1279 16.8176 79.2277 16.3901 79.2931 15.8996C79.358 15.4092 79.3866 14.8557 79.3867 14.2425C79.3866 13.3342 79.3236 12.295 79.2146 11.1492C79.2056 11.0555 79.1964 10.9808 79.1868 10.9219L85.923 10.9323C85.932 11.331 85.9495 11.7899 85.9668 12.296C85.9917 13.0236 86.0164 13.8469 86.0164 14.7154C86.0164 16.3132 85.9317 18.0651 85.6168 19.6353C85.4598 20.4202 85.2455 21.159 84.9618 21.809C84.6781 22.4593 84.3258 23.0189 83.897 23.4576C81.6147 25.7951 80.2273 28.2625 79.4095 30.2834C79.0007 31.2942 78.7339 32.1936 78.5684 32.9137C78.4857 33.2739 78.4282 33.5892 78.3911 33.8531C78.3777 33.9485 78.3669 34.0369 78.3586 34.1186H76.5207C76.5095 33.9532 76.4901 33.7734 76.462 33.5792C76.3787 33.0049 76.2178 32.3049 75.9552 31.5058C75.1679 29.1108 73.463 25.8243 70.1777 22.5496C70.1138 22.486 70.046 22.3972 69.9797 22.282C69.8549 22.0665 69.7386 21.76 69.6433 21.3872C69.4751 20.7343 69.3686 19.8823 69.3057 18.9393C69.2105 17.5237 69.2092 15.9012 69.2012 14.378C69.1971 13.6161 69.1912 12.8788 69.1704 12.2011C69.1563 11.7462 69.1357 11.3186 69.1037 10.9268H74.3648C74.4291 11.3564 74.4326 11.3445 74.4328 11.3327C74.4336 11.3193 74.4297 11.3062 74.5028 11.9056C74.6191 12.8607 74.7271 13.7154 74.8497 14.4664C74.9416 15.0298 75.0416 15.5348 75.1616 15.9829C75.2516 16.319 75.3529 16.6232 75.4737 16.8969C75.5645 17.102 75.6663 17.2903 75.7851 17.4603C75.9624 17.7148 76.1819 17.9307 76.4488 18.0787C76.7148 18.2274 77.0217 18.3006 77.3387 18.2997C77.4741 18.2997 77.612 18.2871 77.7525 18.2633H77.7514C77.9175 18.2358 78.0776 18.1787 78.2214 18.0959" fill="url(#paint11_linear_3_634)"/>
<path d="M86.4061 10.4436L86.4465 10.4436L86.4464 10.484H86.4061V10.4436ZM86.4061 10.4436L86.3657 10.4435L86.3664 9.95404L86.4068 9.9541L86.4472 9.95416L86.4465 10.4436L86.4061 10.4436ZM86.4061 10.4436V10.484H85.9166V10.4436V10.4032H86.4061V10.4436ZM78.1422 10.4987L78.0622 10.5098L78.0622 10.5098L78.1422 10.4987ZM78.2179 11.0025L78.2976 10.987L78.2983 10.9955L78.2179 11.0025ZM78.24 11.2419L78.1596 11.2495L78.1596 11.2495L78.24 11.2419ZM78.4077 14.2425H78.3269V14.2425L78.4077 14.2425ZM78.3435 15.5995L78.4238 15.6084L78.4238 15.6084L78.3435 15.5995ZM78.2098 16.3784L78.2881 16.3982L78.2881 16.3982L78.2098 16.3784ZM78.0672 16.8073L77.9932 16.775L77.9932 16.7749L78.0672 16.8073ZM77.8263 17.1782L77.7713 17.119L77.7714 17.1189L77.8263 17.1782ZM77.7133 17.2584L77.7497 17.3305L77.7493 17.3307L77.7133 17.2584ZM77.5905 17.298L77.6042 17.3779L77.5966 17.3785L77.5905 17.298ZM77.5895 17.2981L77.5759 17.2181L77.5834 17.2175L77.5895 17.2981ZM77.3387 17.3207V17.2399H77.3387L77.3387 17.3207ZM77.0976 17.2921L77.0773 17.3703L77.0767 17.3701L77.0976 17.2921ZM76.7507 17.0931L76.6952 17.1518L76.6949 17.1516L76.7507 17.0931ZM76.4619 16.6927L76.5331 16.6546L76.5332 16.6548L76.4619 16.6927ZM76.0187 15.3711L76.0975 15.3531L76.0975 15.3533L76.0187 15.3711ZM75.5099 12.076L75.59 12.0661L75.59 12.0661L75.5099 12.076ZM75.2721 10.3671L75.1921 10.3787V10.3787L75.2721 10.3671ZM68.1952 10.1134L68.1346 10.06L68.1347 10.0599L68.1952 10.1134ZM68.0765 10.498L67.9963 10.508L67.9963 10.5079L68.0765 10.498ZM68.1788 11.867L68.0981 11.8703L68.0981 11.8703L68.1788 11.867ZM68.2249 14.9235L68.1442 14.9239L68.1442 14.9239L68.2249 14.9235ZM68.3941 19.7946L68.3137 19.8027L68.3137 19.8026L68.3941 19.7946ZM68.7408 21.8L68.6631 21.8221L68.663 21.822L68.7408 21.8ZM69.0414 22.6023L68.9691 22.6383L68.969 22.6382L69.0414 22.6023ZM69.4866 23.2429L69.4296 23.3001L69.4295 23.3001L69.4866 23.2429ZM74.3371 30.0616L74.4106 30.0281L74.4106 30.0281L74.3371 30.0616ZM75.2897 32.7171L75.2114 32.737L75.2114 32.737L75.2897 32.7171ZM75.4932 33.7198L75.4133 33.7314L75.4133 33.7314L75.4932 33.7198ZM75.5532 34.4413H75.4725V34.4413L75.5532 34.4413ZM75.5495 34.5804L75.4689 34.5758L75.4689 34.5756L75.5495 34.5804ZM75.6824 34.9443L75.6237 34.9998L75.6236 34.9998L75.6824 34.9443ZM79.1961 34.9341L79.1358 34.8803L79.1358 34.8803L79.1961 34.9341ZM79.3174 34.5531L79.3966 34.5351L79.3976 34.5441L79.3174 34.5531ZM79.3153 34.495H79.396V34.4952L79.3153 34.495ZM79.3605 33.9895L79.4405 34.0007L79.4405 34.0008L79.3605 33.9895ZM79.739 32.3064L79.8165 32.3291L79.8165 32.3291L79.739 32.3064ZM81.3249 28.5377L81.2542 28.4986L81.2542 28.4986L81.3249 28.5377ZM84.5974 24.1415L84.6552 24.198L84.6552 24.198L84.5974 24.1415ZM85.859 22.2005L85.9331 22.2328L85.933 22.2329L85.859 22.2005ZM86.7831 18.5527L86.8633 18.5629L86.8633 18.563L86.7831 18.5527ZM86.9953 14.7154H87.0761V14.7154L86.9953 14.7154ZM86.9451 12.2625L86.8644 12.2652V12.2652L86.9451 12.2625ZM86.8956 10.4436H86.9763V10.4436L86.8956 10.4436ZM86.4068 9.9541L86.4069 9.87332H86.407L86.4068 9.9541ZM78.2804 9.94158V9.8608H78.2805L78.2804 9.94158ZM78.5599 17.8289L78.6183 17.8847L78.6183 17.8847L78.5599 17.8289ZM78.9708 17.1842L79.045 17.216L79.0449 17.2162L78.9708 17.1842ZM79.2931 15.8996L79.3732 15.9102L79.3732 15.9103L79.2931 15.8996ZM79.3867 14.2425L79.4675 14.2425V14.2426L79.3867 14.2425ZM79.2146 11.1492L79.295 11.1414L79.295 11.1415L79.2146 11.1492ZM79.1868 10.9219L79.1071 10.9348L79.0919 10.841L79.187 10.8412L79.1868 10.9219ZM85.923 10.9323L85.9231 10.8516L86.0019 10.8517L86.0037 10.9305L85.923 10.9323ZM85.9668 12.296L85.886 12.2987L85.886 12.2987L85.9668 12.296ZM85.6168 19.6353L85.5376 19.6195L85.5376 19.6195L85.6168 19.6353ZM84.9618 21.809L84.8877 21.7767L84.8877 21.7766L84.9618 21.809ZM83.897 23.4576L83.8392 23.4012L83.8392 23.4012L83.897 23.4576ZM79.4095 30.2834L79.3347 30.2531L79.3347 30.2531L79.4095 30.2834ZM78.5684 32.9137L78.4896 32.8957L78.4896 32.8956L78.5684 32.9137ZM78.3911 33.8531L78.3111 33.8419L78.3111 33.8418L78.3911 33.8531ZM78.3586 34.1186L78.4389 34.1268L78.4316 34.1994H78.3586V34.1186ZM76.5207 34.1186V34.1994H76.4451L76.4401 34.1241L76.5207 34.1186ZM76.462 33.5792L76.542 33.5676L76.542 33.5676L76.462 33.5792ZM75.9552 31.5058L76.032 31.4806L76.032 31.4806L75.9552 31.5058ZM70.1777 22.5496L70.2347 22.4923L70.2348 22.4924L70.1777 22.5496ZM69.9797 22.282L70.0496 22.2416L70.0497 22.2417L69.9797 22.282ZM69.6433 21.3872L69.7215 21.367L69.7215 21.3672L69.6433 21.3872ZM69.3057 18.9393L69.3863 18.9339L69.3863 18.9339L69.3057 18.9393ZM69.2012 14.378L69.2819 14.3776L69.2819 14.3776L69.2012 14.378ZM69.1704 12.2011L69.2511 12.1986L69.2511 12.1986L69.1704 12.2011ZM69.1037 10.9268L69.0232 10.9333L69.016 10.846H69.1037V10.9268ZM74.3648 10.9268V10.846H74.4344L74.4447 10.9148L74.3648 10.9268ZM74.4328 11.3327L74.352 11.331L74.3522 11.3278L74.4328 11.3327ZM74.5028 11.9056L74.5829 11.8958L74.5829 11.8958L74.5028 11.9056ZM74.8497 14.4664L74.9294 14.4534L74.9294 14.4534L74.8497 14.4664ZM75.1616 15.9829L75.0835 16.0038L75.0835 16.0038L75.1616 15.9829ZM75.4737 16.8969L75.3998 16.9295L75.3998 16.9295L75.4737 16.8969ZM75.7851 17.4603L75.8513 17.4141L75.8513 17.4141L75.7851 17.4603ZM76.4488 18.0787L76.4879 18.008L76.4882 18.0082L76.4488 18.0787ZM77.3387 18.2997L77.3384 18.219H77.3387V18.2997ZM77.7525 18.2633V18.1825L77.766 18.3429L77.7525 18.2633ZM77.7514 18.2633V18.3441L77.7382 18.1836L77.7514 18.2633ZM78.1422 10.4987L78.2222 10.4875C78.2649 10.794 78.2871 10.9354 78.2972 10.9871L78.2179 11.0025L78.1386 11.018C78.1275 10.9611 78.1048 10.8151 78.0622 10.5098L78.1422 10.4987ZM78.2179 11.0025L78.2983 10.9955C78.3036 11.0549 78.3108 11.133 78.3204 11.2342L78.24 11.2419L78.1596 11.2495C78.15 11.1482 78.1427 11.0696 78.1374 11.0096L78.2179 11.0025ZM78.24 11.2419L78.3204 11.2342C78.4277 12.361 78.4886 13.3759 78.4885 14.2426L78.4077 14.2425L78.3269 14.2425C78.327 13.3829 78.2666 12.3734 78.1596 11.2495L78.24 11.2419ZM78.4077 14.2425H78.4885C78.4885 14.7516 78.4675 15.2102 78.4238 15.6084L78.3435 15.5995L78.2632 15.5907C78.3061 15.1999 78.3269 14.7475 78.3269 14.2425H78.4077ZM78.3435 15.5995L78.4238 15.6084C78.391 15.9069 78.3454 16.172 78.2881 16.3982L78.2098 16.3784L78.1315 16.3585C78.1865 16.1413 78.231 15.8838 78.2632 15.5907L78.3435 15.5995ZM78.2098 16.3784L78.2881 16.3982C78.2452 16.5677 78.1954 16.7158 78.1412 16.8396L78.0672 16.8073L77.9932 16.7749C78.0431 16.6607 78.0903 16.5213 78.1315 16.3585L78.2098 16.3784ZM78.0672 16.8073L78.1413 16.8395C78.0602 17.0256 77.9689 17.1562 77.8812 17.2374L77.8263 17.1782L77.7714 17.1189C77.8382 17.0571 77.9182 16.9471 77.9932 16.775L78.0672 16.8073ZM77.8263 17.1782L77.8813 17.2374C77.8373 17.2782 77.7943 17.308 77.7497 17.3305L77.7133 17.2584L77.6769 17.1863C77.7069 17.1711 77.7376 17.1504 77.7713 17.119L77.8263 17.1782ZM77.7133 17.2584L77.7493 17.3307C77.7045 17.3531 77.6583 17.3683 77.6042 17.3776L77.5905 17.298L77.5768 17.2184C77.6159 17.2117 77.647 17.2012 77.6772 17.1861L77.7133 17.2584ZM77.5905 17.298L77.5966 17.3785L77.5955 17.3786L77.5895 17.2981L77.5834 17.2175L77.5844 17.2174L77.5905 17.298ZM77.5895 17.2981L77.603 17.3777C77.5063 17.3941 77.4183 17.4015 77.3386 17.4014L77.3387 17.3207L77.3387 17.2399C77.4083 17.24 77.4872 17.2335 77.5759 17.2184L77.5895 17.2981ZM77.3387 17.3207V17.4014C77.2401 17.4014 77.1545 17.3903 77.0773 17.3703L77.0976 17.2921L77.1179 17.2139C77.1807 17.2302 77.2526 17.2399 77.3387 17.2399V17.3207ZM77.0976 17.2921L77.0767 17.3701C76.9322 17.3313 76.8156 17.2656 76.6952 17.1518L76.7507 17.0931L76.8062 17.0344C76.9085 17.1311 77.0017 17.1827 77.1186 17.2141L77.0976 17.2921ZM76.7507 17.0931L76.6949 17.1516C76.5908 17.0522 76.4879 16.9134 76.3906 16.7307L76.4619 16.6927L76.5332 16.6548C76.6245 16.8264 76.7177 16.9501 76.8065 17.0347L76.7507 17.0931ZM76.4619 16.6927L76.3908 16.7309C76.22 16.4124 76.0688 15.9574 75.94 15.389L76.0187 15.3711L76.0975 15.3533C76.225 15.9157 76.3723 16.3546 76.5331 16.6546L76.4619 16.6927ZM76.0187 15.3711L75.94 15.3891C75.7449 14.5358 75.5933 13.42 75.4297 12.0858L75.5099 12.076L75.59 12.0661C75.7537 13.4014 75.9045 14.5092 76.0975 15.3531L76.0187 15.3711ZM75.5099 12.076L75.4297 12.0858C75.3472 11.4144 75.352 11.4316 75.3453 11.3934C75.338 11.3515 75.3195 11.2572 75.1921 10.3787L75.2721 10.3671L75.352 10.3555C75.4793 11.2337 75.4976 11.3261 75.5045 11.3657C75.512 11.4091 75.5084 11.4023 75.59 12.0661L75.5099 12.076ZM75.2721 10.3671L75.1921 10.3787C75.1629 10.1771 74.9913 10.0287 74.7877 10.0287V9.94788V9.8671C75.0716 9.8671 75.3113 10.0745 75.352 10.3555L75.2721 10.3671ZM74.7877 9.94788V10.0287H68.5622V9.94788V9.8671H74.7877V9.94788ZM68.5622 9.94788V10.0287C68.4454 10.0287 68.333 10.0794 68.2558 10.1668L68.1952 10.1134L68.1347 10.0599C68.2426 9.93771 68.3991 9.8671 68.5622 9.8671V9.94788ZM68.1952 10.1134L68.2558 10.1668C68.1786 10.2543 68.1422 10.3722 68.1566 10.488L68.0765 10.498L67.9963 10.5079C67.9762 10.3462 68.0269 10.1821 68.1346 10.06L68.1952 10.1134ZM68.0765 10.498L68.1566 10.4879C68.2057 10.8799 68.2383 11.3473 68.2595 11.8637L68.1788 11.867L68.0981 11.8703C68.077 11.3562 68.0446 10.8937 67.9963 10.508L68.0765 10.498ZM68.1788 11.867L68.2595 11.8636C68.2969 12.7675 68.3001 13.8258 68.3057 14.9231L68.2249 14.9235L68.1442 14.9239C68.1386 13.8254 68.1354 12.7706 68.0981 11.8703L68.1788 11.867ZM68.2249 14.9235L68.3057 14.923C68.3144 16.5717 68.3273 18.307 68.4745 19.7866L68.3941 19.7946L68.3137 19.8026C68.1657 18.3141 68.1528 16.5709 68.1442 14.9239L68.2249 14.9235ZM68.3941 19.7946L68.4744 19.7866C68.5485 20.5271 68.6551 21.201 68.8185 21.778L68.7408 21.8L68.663 21.822C68.496 21.2321 68.3882 20.5477 68.3137 19.8027L68.3941 19.7946ZM68.7408 21.8L68.8185 21.7779C68.9005 22.0663 68.9964 22.3298 69.1138 22.5664L69.0414 22.6023L68.969 22.6382C68.8462 22.3905 68.747 22.1172 68.6631 21.8221L68.7408 21.8ZM69.0414 22.6023L69.1137 22.5663C69.2314 22.8026 69.3698 23.012 69.5437 23.1858L69.4866 23.2429L69.4295 23.3001C69.24 23.1107 69.0922 22.8855 68.9691 22.6383L69.0414 22.6023ZM69.4866 23.2429L69.5436 23.1857C71.9679 25.6019 73.4925 28.0143 74.4106 30.0281L74.3371 30.0616L74.2636 30.0951C73.3533 28.0984 71.8397 25.7021 69.4296 23.3001L69.4866 23.2429ZM74.3371 30.0616L74.4106 30.0281C74.8695 31.0347 75.1766 31.9421 75.368 32.6973L75.2897 32.7171L75.2114 32.737C75.0225 31.9916 74.7186 31.0933 74.2636 30.0951L74.3371 30.0616ZM75.2897 32.7171L75.368 32.6973C75.4638 33.0747 75.5305 33.4144 75.5732 33.7082L75.4932 33.7198L75.4133 33.7314C75.3716 33.4436 75.306 33.1095 75.2114 32.737L75.2897 32.7171ZM75.4932 33.7198L75.5731 33.7082C75.6157 34.0014 75.6341 34.2504 75.634 34.4414L75.5532 34.4413L75.4725 34.4413C75.4725 34.2599 75.455 34.0189 75.4133 33.7314L75.4932 33.7198ZM75.5532 34.4413H75.634C75.634 34.4937 75.6327 34.5418 75.6302 34.5851L75.5495 34.5804L75.4689 34.5756C75.4712 34.536 75.4725 34.4911 75.4725 34.4413H75.5532ZM75.5495 34.5804L75.6302 34.5849C75.6238 34.697 75.664 34.8072 75.7411 34.8889L75.6824 34.9443L75.6236 34.9998C75.5161 34.8858 75.46 34.7322 75.4689 34.5758L75.5495 34.5804ZM75.6824 34.9443L75.7411 34.8888C75.8182 34.9703 75.926 35.0168 76.0383 35.0168V35.0975V35.1783C75.8816 35.1783 75.7314 35.1136 75.6237 34.9998L75.6824 34.9443ZM76.0383 35.0975V35.0168H78.831V35.0975V35.1783H76.0383V35.0975ZM78.831 35.0975V35.0168C78.9479 35.0168 79.0579 34.9675 79.1358 34.8803L79.1961 34.9341L79.2563 34.988C79.1478 35.1095 78.9939 35.1783 78.831 35.1783V35.0975ZM79.1961 34.9341L79.1358 34.8803C79.2137 34.7932 79.2502 34.6784 79.2371 34.5622L79.3174 34.5531L79.3976 34.5441C79.4159 34.7059 79.3649 34.8665 79.2563 34.988L79.1961 34.9341ZM79.3174 34.5531L79.2386 34.571C79.2369 34.5634 79.2363 34.5552 79.2362 34.5534C79.2358 34.5491 79.2355 34.544 79.2353 34.5383C79.2348 34.5269 79.2345 34.5121 79.2345 34.4948L79.3153 34.495L79.396 34.4952C79.396 34.5102 79.3963 34.5226 79.3967 34.5314C79.3969 34.5358 79.3971 34.5389 79.3972 34.5408C79.3973 34.5418 79.3973 34.5421 79.3973 34.5419C79.3973 34.5417 79.3972 34.5412 79.3971 34.5404C79.397 34.5398 79.3967 34.5378 79.3961 34.5352L79.3174 34.5531ZM79.3153 34.495H79.2345C79.2345 34.3945 79.2474 34.212 79.2805 33.9781L79.3605 33.9895L79.4405 34.0008C79.4079 34.2303 79.396 34.4047 79.396 34.495H79.3153ZM79.3605 33.9895L79.2805 33.9783C79.3383 33.5667 79.4567 32.9834 79.6615 32.2837L79.739 32.3064L79.8165 32.3291C79.6137 33.0221 79.4971 33.5977 79.4405 34.0007L79.3605 33.9895ZM79.739 32.3064L79.6615 32.2837C79.9687 31.2335 80.4705 29.9178 81.2542 28.4986L81.3249 28.5377L81.3956 28.5767C80.6182 29.9846 80.1208 31.2892 79.8165 32.3291L79.739 32.3064ZM81.3249 28.5377L81.2542 28.4986C82.0381 27.0792 83.1036 25.5558 84.5396 24.0851L84.5974 24.1415L84.6552 24.198C83.2303 25.6573 82.1732 27.1687 81.3956 28.5767L81.3249 28.5377ZM84.5974 24.1415L84.5396 24.0851C85.0629 23.5491 85.468 22.8941 85.785 22.1682L85.859 22.2005L85.933 22.2329C85.6103 22.972 85.1953 23.6447 84.6552 24.198L84.5974 24.1415ZM85.859 22.2005L85.785 22.1683C86.26 21.0782 86.5385 19.8284 86.703 18.5425L86.7831 18.5527L86.8633 18.563C86.6977 19.8573 86.4165 21.1236 85.9331 22.2328L85.859 22.2005ZM86.7831 18.5527L86.703 18.5425C86.8669 17.2571 86.9145 15.938 86.9146 14.7154L86.9953 14.7154L87.0761 14.7154C87.076 15.9417 87.0283 17.2682 86.8633 18.5629L86.7831 18.5527ZM86.9953 14.7154H86.9146C86.9146 13.8299 86.8894 12.9959 86.8644 12.2652L86.9451 12.2625L87.0258 12.2597C87.0509 12.9907 87.0761 13.8271 87.0761 14.7154H86.9953ZM86.9451 12.2625L86.8644 12.2652C86.8394 11.5361 86.8147 10.9063 86.8148 10.4436L86.8956 10.4436L86.9763 10.4436C86.9763 10.9028 87.0008 11.5284 87.0258 12.2597L86.9451 12.2625ZM86.8956 10.4436H86.8148C86.8148 10.2179 86.6325 10.0353 86.4067 10.0349L86.4068 9.9541L86.407 9.87332C86.7218 9.87389 86.9763 10.1287 86.9763 10.4436H86.8956ZM86.4068 9.9541L86.4067 10.0349L78.2803 10.0223L78.2804 9.94158L78.2805 9.8608L86.4069 9.87332L86.4068 9.9541ZM78.2804 9.94158V10.0223C78.2916 10.0223 78.285 10.0129 78.2682 10.0457C78.2528 10.0758 78.2397 10.1225 78.2306 10.1801C78.2125 10.2948 78.2136 10.426 78.2222 10.4875L78.1422 10.4987L78.0622 10.5098C78.0512 10.431 78.0507 10.2837 78.0711 10.1549C78.0812 10.0908 78.0975 10.0245 78.1244 9.97208C78.1498 9.92234 78.1983 9.8608 78.2804 9.8608V9.94158ZM78.2214 18.0962L78.1813 18.0261C78.2999 17.9581 78.4071 17.8718 78.5015 17.7731L78.5599 17.8289L78.6183 17.8847C78.5142 17.9936 78.3949 18.0898 78.2616 18.1663L78.2214 18.0962ZM78.5599 17.8289L78.5014 17.7732C78.6671 17.5995 78.7941 17.3897 78.8966 17.1522L78.9708 17.1842L79.0449 17.2162C78.9371 17.4663 78.8005 17.6937 78.6183 17.8847L78.5599 17.8289ZM78.9708 17.1842L78.8965 17.1523C79.0497 16.795 79.1482 16.3753 79.2131 15.8889L79.2931 15.8996L79.3732 15.9103C79.3072 16.4048 79.2061 16.8403 79.045 17.216L78.9708 17.1842ZM79.2931 15.8996L79.2131 15.889C79.2773 15.4032 79.3058 14.8534 79.3059 14.2425L79.3867 14.2425L79.4675 14.2426C79.4674 14.858 79.4387 15.4153 79.3732 15.9102L79.2931 15.8996ZM79.3867 14.2425L79.3059 14.2426C79.3058 13.3376 79.243 12.3012 79.1341 11.1568L79.2146 11.1492L79.295 11.1415C79.4041 12.2888 79.4674 13.3307 79.4675 14.2425L79.3867 14.2425ZM79.2146 11.1492L79.1341 11.1569C79.1253 11.0642 79.1163 10.9914 79.1071 10.9348L79.1868 10.9219L79.2666 10.909C79.2765 10.9702 79.2859 11.0468 79.295 11.1414L79.2146 11.1492ZM79.1868 10.9219L79.187 10.8412L85.9231 10.8516L85.923 10.9323L85.9229 11.0131L79.1867 11.0027L79.1868 10.9219ZM85.923 10.9323L86.0037 10.9305C86.0128 11.3285 86.0302 11.7867 86.0475 12.2932L85.9668 12.296L85.886 12.2987C85.8688 11.7932 85.8513 11.3334 85.8422 10.9342L85.923 10.9323ZM85.9668 12.296L86.0475 12.2932C86.0725 13.021 86.0972 13.8455 86.0972 14.7154H86.0164H85.9357C85.9357 13.8484 85.911 13.0262 85.886 12.2987L85.9668 12.296ZM86.0164 14.7154H86.0972C86.0972 16.3153 86.0124 18.0733 85.696 19.6512L85.6168 19.6353L85.5376 19.6195C85.851 18.0569 85.9357 16.3111 85.9357 14.7154H86.0164ZM85.6168 19.6353L85.6961 19.6512C85.5382 20.4401 85.3225 21.1847 85.0358 21.8413L84.9618 21.809L84.8877 21.7766C85.1686 21.1334 85.3814 20.4003 85.5376 19.6195L85.6168 19.6353ZM84.9618 21.809L85.0358 21.8412C84.7492 22.4983 84.392 23.0668 83.9548 23.5141L83.897 23.4576L83.8392 23.4012C84.2596 22.9711 84.6069 22.4204 84.8877 21.7767L84.9618 21.809ZM83.897 23.4576L83.9548 23.5141C81.681 25.8428 80.2989 28.3009 79.4844 30.3137L79.4095 30.2834L79.3347 30.2531C80.1557 28.224 81.5485 25.7473 83.8392 23.4012L83.897 23.4576ZM79.4095 30.2834L79.4844 30.3137C79.0772 31.3205 78.8117 32.2158 78.6471 32.9318L78.5684 32.9137L78.4896 32.8956C78.6562 32.1715 78.9241 31.268 79.3347 30.2531L79.4095 30.2834ZM78.5684 32.9137L78.6471 32.9318C78.5649 33.29 78.5078 33.603 78.471 33.8643L78.3911 33.8531L78.3111 33.8418C78.3486 33.5754 78.4065 33.2579 78.4896 32.8957L78.5684 32.9137ZM78.3911 33.8531L78.4711 33.8642C78.4578 33.9589 78.4471 34.0463 78.4389 34.1268L78.3586 34.1186L78.2782 34.1105C78.2867 34.0276 78.2976 33.9382 78.3111 33.8419L78.3911 33.8531ZM78.3586 34.1186V34.1994H76.5207V34.1186V34.0379H78.3586V34.1186ZM76.5207 34.1186L76.4401 34.1241C76.4291 33.961 76.4099 33.7832 76.3821 33.5907L76.462 33.5792L76.542 33.5676C76.5703 33.7636 76.5899 33.9455 76.6012 34.1132L76.5207 34.1186ZM76.462 33.5792L76.3821 33.5908C76.2995 33.0217 76.1397 32.3262 75.8785 31.531L75.9552 31.5058L76.032 31.4806C76.2958 32.2835 76.4578 32.9881 76.542 33.5676L76.462 33.5792ZM75.9552 31.5058L75.8785 31.531C75.095 29.1477 73.3967 25.8723 70.1207 22.6068L70.1777 22.5496L70.2348 22.4924C73.5293 25.7764 75.2408 29.0739 76.032 31.4806L75.9552 31.5058ZM70.1777 22.5496L70.1208 22.6069C70.0507 22.5372 69.9787 22.4422 69.9097 22.3224L69.9797 22.282L70.0497 22.2417C70.1132 22.3521 70.1768 22.4348 70.2347 22.4923L70.1777 22.5496ZM69.9797 22.282L69.9098 22.3225C69.7799 22.0982 69.6613 21.784 69.565 21.4072L69.6433 21.3872L69.7215 21.3672C69.8158 21.736 69.9298 22.0347 70.0496 22.2416L69.9797 22.282ZM69.6433 21.3872L69.565 21.4073C69.395 20.7473 69.2881 19.8895 69.2251 18.9447L69.3057 18.9393L69.3863 18.9339C69.4491 19.875 69.5551 20.7213 69.7215 21.367L69.6433 21.3872ZM69.3057 18.9393L69.2251 18.9447C69.1297 17.526 69.1284 15.9006 69.1204 14.3784L69.2012 14.378L69.2819 14.3776C69.2899 15.9018 69.2913 17.5213 69.3863 18.9339L69.3057 18.9393ZM69.2012 14.378L69.1204 14.3784C69.1163 13.6166 69.1104 12.8801 69.0897 12.2035L69.1704 12.2011L69.2511 12.1986C69.2719 12.8774 69.2778 13.6157 69.2819 14.3776L69.2012 14.378ZM69.1704 12.2011L69.0897 12.2036C69.0756 11.7495 69.055 11.3234 69.0232 10.9333L69.1037 10.9268L69.1842 10.9202C69.2163 11.3139 69.2371 11.7429 69.2511 12.1986L69.1704 12.2011ZM69.1037 10.9268V10.846H74.3648V10.9268V11.0075H69.1037V10.9268ZM74.3648 10.9268L74.4447 10.9148C74.4768 11.1297 74.4936 11.233 74.5023 11.2809C74.5072 11.3077 74.5086 11.3115 74.5074 11.3082C74.5071 11.3071 74.5061 11.3045 74.5045 11.3011C74.5036 11.2992 74.4993 11.29 74.4904 11.2807C74.4832 11.2731 74.4489 11.2423 74.4015 11.2619C74.3831 11.2694 74.3723 11.2817 74.3671 11.2889C74.3617 11.2963 74.3587 11.3031 74.3572 11.3068C74.3544 11.3142 74.3533 11.3202 74.353 11.3222C74.3525 11.3248 74.3523 11.3269 74.3522 11.3279C74.3521 11.329 74.3521 11.3298 74.3521 11.3302C74.3521 11.3307 74.3521 11.331 74.3521 11.331L74.4328 11.3327L74.5136 11.3343C74.5135 11.3357 74.5135 11.3384 74.5132 11.3417C74.5132 11.3419 74.5125 11.3533 74.5077 11.3657C74.5061 11.3696 74.5031 11.3765 74.4977 11.384C74.4924 11.3913 74.4815 11.4036 74.463 11.4112C74.4155 11.4308 74.3809 11.4 74.3735 11.3922C74.3644 11.3826 74.3599 11.3731 74.3587 11.3706C74.3568 11.3666 74.3555 11.3632 74.3548 11.3612C74.3509 11.35 74.3474 11.3322 74.3434 11.3097C74.3342 11.2591 74.3171 11.1535 74.2849 10.9387L74.3648 10.9268ZM74.4328 11.3327L74.3522 11.3278C74.3522 11.3279 74.3522 11.3279 74.3522 11.3277C74.3522 11.3277 74.3522 11.3268 74.3523 11.3263C74.3523 11.3258 74.3523 11.3244 74.3525 11.3228C74.3525 11.3228 74.3529 11.3167 74.3546 11.3096C74.3551 11.3074 74.3562 11.3034 74.3582 11.2985C74.3597 11.2949 74.3642 11.2841 74.3744 11.2733C74.386 11.261 74.4117 11.2429 74.4472 11.2492C74.4761 11.2543 74.4918 11.2728 74.4963 11.2784C74.506 11.2906 74.5097 11.3028 74.5098 11.3033C74.511 11.3068 74.5117 11.3096 74.512 11.3109C74.513 11.3154 74.5136 11.3197 74.5138 11.3209C74.5149 11.3284 74.5169 11.3457 74.5209 11.3799C74.5292 11.4498 74.5465 11.5962 74.5829 11.8958L74.5028 11.9056L74.4226 11.9154C74.3861 11.6155 74.3688 11.4689 74.3605 11.3988C74.3563 11.363 74.3546 11.3487 74.3538 11.3437C74.3536 11.3417 74.3538 11.3441 74.3546 11.3475C74.3549 11.3486 74.3555 11.3512 74.3566 11.3545C74.3567 11.3549 74.3603 11.367 74.37 11.3792C74.3744 11.3847 74.3902 11.4032 74.4191 11.4083C74.4546 11.4146 74.4802 11.3965 74.4918 11.3842C74.502 11.3735 74.5065 11.3627 74.508 11.3591C74.5099 11.3543 74.511 11.3503 74.5115 11.3481C74.5125 11.3438 74.513 11.3405 74.5131 11.3393C74.5133 11.3378 74.5134 11.3366 74.5135 11.336C74.5135 11.3354 74.5136 11.3349 74.5136 11.3347C74.5136 11.3346 74.5136 11.3345 74.5136 11.3344C74.5136 11.3344 74.5136 11.3343 74.5136 11.3343C74.5136 11.3337 74.5135 11.3362 74.5134 11.3376L74.4328 11.3327ZM74.5028 11.9056L74.5829 11.8958C74.6993 12.8511 74.8071 13.7042 74.9294 14.4534L74.8497 14.4664L74.77 14.4795C74.6471 13.7266 74.5389 12.8704 74.4226 11.9154L74.5028 11.9056ZM74.8497 14.4664L74.9294 14.4534C75.0211 15.0154 75.1206 15.5175 75.2396 15.962L75.1616 15.9829L75.0835 16.0038C74.9626 15.5521 74.8621 15.0443 74.77 14.4795L74.8497 14.4664ZM75.1616 15.9829L75.2396 15.962C75.3289 16.2954 75.429 16.5954 75.5476 16.8642L75.4737 16.8969L75.3998 16.9295C75.2769 16.651 75.1743 16.3426 75.0835 16.0038L75.1616 15.9829ZM75.4737 16.8969L75.5475 16.8642C75.6367 17.0657 75.7361 17.2492 75.8513 17.4141L75.7851 17.4603L75.7188 17.5066C75.5965 17.3314 75.4922 17.1384 75.3998 16.9295L75.4737 16.8969ZM75.7851 17.4603L75.8513 17.4141C76.0232 17.6606 76.2339 17.8672 76.4879 18.008L76.4488 18.0787L76.4096 18.1493C76.1298 17.9942 75.9017 17.7689 75.7188 17.5065L75.7851 17.4603ZM76.4488 18.0787L76.4882 18.0082C76.741 18.1495 77.0339 18.2198 77.3384 18.219L77.3387 18.2997L77.3389 18.3805C77.0095 18.3814 76.6887 18.3054 76.4093 18.1492L76.4488 18.0787ZM77.3387 18.2997V18.219C77.4691 18.219 77.6024 18.2068 77.739 18.1837L77.7525 18.2633L77.766 18.3429C77.6215 18.3674 77.4791 18.3805 77.3387 18.3805V18.2997ZM77.7525 18.2633V18.3441H77.7514V18.2633V18.1825H77.7525V18.2633ZM77.7514 18.2633L77.7382 18.1836C77.8948 18.1577 78.0457 18.1039 78.1811 18.0259L78.2214 18.0959L78.2617 18.1659C78.1094 18.2536 77.9401 18.314 77.7646 18.343L77.7514 18.2633Z" fill="#5038C3" mask="url(#path-66-inside-1_3_634)"/>
<path d="M75.243 22.9512C75.283 22.9188 75.3178 22.8873 75.3505 22.8535L75.4745 22.709C75.5128 22.6605 75.5497 22.6109 75.5858 22.5557C75.6104 22.5169 75.6318 22.4764 75.6532 22.4317C75.6405 22.4343 75.6273 22.4338 75.6151 22.4375L75.5184 22.4795C75.4876 22.497 75.4585 22.5178 75.4315 22.541L75.3583 22.6172C75.314 22.6727 75.2802 22.7368 75.2606 22.8047H75.2616C75.2483 22.8527 75.2406 22.9011 75.243 22.9512Z" fill="url(#paint12_linear_3_634)" stroke="#5038C3" stroke-width="0.0807739"/>
<path d="M77.8219 23.9514C78.1599 23.947 78.4966 23.8964 78.8248 23.8127C78.8303 23.8113 78.8312 23.8088 78.8317 23.8078C78.8326 23.8059 78.833 23.8021 78.8317 23.7971C78.8303 23.792 78.8281 23.788 78.8258 23.7863C78.8244 23.7854 78.821 23.7838 78.8151 23.7854C77.8331 24.0354 76.6884 23.9764 75.8922 23.2629C75.7059 23.0961 75.5486 22.9014 75.4244 22.6848C75.4226 22.6815 75.4214 22.6795 75.4205 22.6789C75.4197 22.6785 75.4182 22.678 75.4166 22.6779C75.4116 22.6779 75.4048 22.6816 75.401 22.6867C75.3994 22.6889 75.3982 22.6903 75.3981 22.6916C75.398 22.6927 75.3987 22.6954 75.401 22.6994C75.8925 23.5563 76.8542 23.9635 77.8219 23.9514Z" fill="url(#paint13_linear_3_634)" stroke="#5038C3" stroke-width="0.0807739"/>
<path d="M73.947 21.1733C75.2636 21.4246 76.5346 20.5611 76.7859 19.2446C77.0372 17.9281 76.1737 16.6571 74.8572 16.4057C73.5406 16.1544 72.2696 17.0179 72.0183 18.3344C71.7669 19.651 72.6304 20.922 73.947 21.1733Z" fill="white" stroke="#5038C3" stroke-width="0.0807739"/>
<path d="M74.8403 20.5061C75.5246 20.5061 76.0796 19.9511 76.0796 19.2669C76.0796 18.5826 75.5246 18.0276 74.8403 18.0276C74.156 18.0276 73.6011 18.5826 73.6011 19.2669C73.6011 19.9511 74.156 20.5061 74.8403 20.5061Z" fill="url(#paint14_linear_3_634)" stroke="#5038C3" stroke-width="0.0807739"/>
<path d="M74.2891 19.0451C74.38 19.0451 74.4539 18.971 74.4541 18.8801C74.4541 18.789 74.3802 18.715 74.2891 18.715C74.198 18.7152 74.124 18.789 74.124 18.8801C74.1242 18.971 74.1981 19.045 74.2891 19.0451Z" fill="white" stroke="#5038C3" stroke-width="0.0807739"/>
<path d="M75.3577 19.5954C75.5388 19.5954 75.6865 19.4484 75.6868 19.2672C75.6868 19.086 75.5389 18.9381 75.3577 18.9381C75.1766 18.9384 75.0295 19.0862 75.0295 19.2672C75.0298 19.4482 75.1767 19.5951 75.3577 19.5954Z" fill="white" stroke="#5038C3" stroke-width="0.0807739"/>
<path d="M78.5294 19.2446C78.7807 20.5611 80.0518 21.4246 81.3683 21.1733C82.6847 20.9219 83.5482 19.651 83.297 18.3344C83.0457 17.0179 81.7747 16.1544 80.4581 16.4057C79.1416 16.657 78.2781 17.928 78.5294 19.2446Z" fill="white" stroke="#5038C3" stroke-width="0.0807739"/>
<path d="M80.475 20.5061C81.1592 20.5061 81.7142 19.9511 81.7142 19.2669C81.7142 18.5826 81.1592 18.0276 80.475 18.0276C79.7908 18.0276 79.2357 18.5826 79.2357 19.2669C79.2357 19.9511 79.7908 20.5061 80.475 20.5061Z" fill="url(#paint15_linear_3_634)" stroke="#5038C3" stroke-width="0.0807739"/>
<path d="M81.0258 19.0451C81.1167 19.0451 81.1906 18.971 81.1908 18.8801C81.1908 18.789 81.1169 18.715 81.0258 18.715C80.9348 18.7152 80.8607 18.789 80.8607 18.8801C80.8609 18.971 80.9349 19.045 81.0258 19.0451Z" fill="white" stroke="#5038C3" stroke-width="0.0807739"/>
<path d="M79.9568 19.5954C80.1379 19.5954 80.2857 19.4484 80.2859 19.2672C80.2859 19.086 80.138 18.9381 79.9568 18.9381C79.7757 18.9384 79.6287 19.0861 79.6287 19.2672C79.6289 19.4482 79.7759 19.5951 79.9568 19.5954Z" fill="white" stroke="#5038C3" stroke-width="0.0807739"/>
<path d="M84.7719 9.57987C84.4434 10.7511 84.8387 10.8164 84.9788 11.8029C85.2147 13.465 83.218 13.0345 83.4721 11.6367C83.6149 10.8511 84.072 10.1513 83.8149 9.29417" fill="#FF8E63"/>
<path d="M82.5403 9.70303C82.7362 10.5419 82.5005 10.5886 82.417 11.2952C82.2763 12.4857 83.4669 12.1772 83.3153 11.1762C83.2302 10.6135 82.9577 10.1122 83.1109 9.49843" fill="#FF8E63"/>
<defs>
<linearGradient id="paint0_linear_3_634" x1="5.77468" y1="12.3228" x2="25.2174" y2="36.3839" gradientUnits="userSpaceOnUse">
<stop/>
<stop offset="1"/>
</linearGradient>
<linearGradient id="paint1_linear_3_634" x1="25.3873" y1="12.229" x2="41.6942" y2="36.2331" gradientUnits="userSpaceOnUse">
<stop/>
<stop offset="1"/>
</linearGradient>
<linearGradient id="paint2_linear_3_634" x1="90.7538" y1="17.8648" x2="103.754" y2="30.7506" gradientUnits="userSpaceOnUse">
<stop/>
<stop offset="1"/>
</linearGradient>
<linearGradient id="paint3_linear_3_634" x1="50.1538" y1="9.97774" x2="64.0089" y2="34.8371" gradientUnits="userSpaceOnUse">
<stop/>
<stop offset="1"/>
</linearGradient>
<linearGradient id="paint4_linear_3_634" x1="52.9768" y1="25.6374" x2="58.5783" y2="25.6374" gradientUnits="userSpaceOnUse">
<stop/>
<stop offset="1"/>
</linearGradient>
<linearGradient id="paint5_linear_3_634" x1="56.6448" y1="18.1005" x2="56.7838" y2="18.1005" gradientUnits="userSpaceOnUse">
<stop/>
<stop offset="1"/>
</linearGradient>
<linearGradient id="paint6_linear_3_634" x1="55.6205" y1="18.7905" x2="61.6148" y2="18.7905" gradientUnits="userSpaceOnUse">
<stop/>
<stop offset="1"/>
</linearGradient>
<linearGradient id="paint7_linear_3_634" x1="48.6587" y1="18.8218" x2="54.7127" y2="18.8218" gradientUnits="userSpaceOnUse">
<stop/>
<stop offset="1"/>
</linearGradient>
<linearGradient id="paint8_linear_3_634" x1="48.8953" y1="13.8453" x2="54.9253" y2="13.8453" gradientUnits="userSpaceOnUse">
<stop/>
<stop offset="1"/>
</linearGradient>
<linearGradient id="paint9_linear_3_634" x1="50.3042" y1="13.2088" x2="61.3843" y2="21.9727" gradientUnits="userSpaceOnUse">
<stop/>
<stop offset="1"/>
</linearGradient>
<linearGradient id="paint10_linear_3_634" x1="59.7996" y1="13.2088" x2="48.7195" y2="21.9727" gradientUnits="userSpaceOnUse">
<stop/>
<stop offset="1"/>
</linearGradient>
<linearGradient id="paint11_linear_3_634" x1="68.0728" y1="22.5195" x2="86.9954" y2="22.5195" gradientUnits="userSpaceOnUse">
<stop/>
<stop offset="1"/>
</linearGradient>
<linearGradient id="paint12_linear_3_634" x1="67.7026" y1="16.5616" x2="80.8276" y2="26.943" gradientUnits="userSpaceOnUse">
<stop/>
<stop offset="1"/>
</linearGradient>
<linearGradient id="paint13_linear_3_634" x1="68.0223" y1="16.1576" x2="81.1472" y2="26.5389" gradientUnits="userSpaceOnUse">
<stop/>
<stop offset="1"/>
</linearGradient>
<linearGradient id="paint14_linear_3_634" x1="69.1334" y1="14.7529" x2="82.2583" y2="25.1342" gradientUnits="userSpaceOnUse">
<stop/>
<stop offset="1"/>
</linearGradient>
<linearGradient id="paint15_linear_3_634" x1="71.3019" y1="12.0113" x2="84.4268" y2="22.3925" gradientUnits="userSpaceOnUse">
<stop/>
<stop offset="1"/>
</linearGradient>
</defs>
</svg>
