<svg width="16" height="27" viewBox="0 0 16 27" fill="none" xmlns="http://www.w3.org/2000/svg">
<path d="M10.6701 4.08246C10.6688 4.07913 10.6663 4.07611 10.6649 4.07284C10.6107 1.8148 8.76714 -1.90735e-06 6.49602 -1.90735e-06C4.19075 -1.90735e-06 2.32194 1.86881 2.32194 4.17408V4.29626H2.32269C2.28018 4.52414 2.16442 5.07447 1.99452 5.33725C1.77739 5.67322 2.002 6.25355 2.5861 6.00919C3.1702 5.76484 3.5671 5.63731 4.24847 6.06761C4.92991 6.4979 5.34178 6.07792 6.31524 5.92518C7.28869 5.77251 7.88027 6.27643 8.59164 6.18482C9.30307 6.0932 9.45286 5.64266 10.0819 5.70378C10.7108 5.76484 10.958 5.94807 11.0778 5.45943C11.1975 4.97072 10.9708 4.86382 10.6701 4.08246Z" fill="#FFC600"/>
<path d="M8.34838 8.29533V7.65571H9.4747V8.29533H14.4155C14.3951 8.01269 14.2081 7.81021 13.9773 7.21052C13.976 7.20712 13.9735 7.20417 13.9722 7.20083C13.9179 4.94279 12.0743 3.12805 9.80318 3.12805C7.49792 3.12805 5.6291 4.9968 5.6291 7.30213V7.42425H5.62986C5.59515 7.61037 5.51151 8.01136 5.38953 8.29533H8.34838Z" fill="#FF8E63"/>
<path d="M2.43933 7.41161V8.29533H7.22801C7.21619 8.05777 7.06194 7.89529 6.87009 7.39677C6.86902 7.39406 6.86701 7.39161 6.86588 7.38891C6.82155 5.546 5.31694 4.06485 3.46341 4.06485C1.60201 4.06485 0.0903596 5.55795 0.0582275 7.41161H2.43933Z" fill="#15CB24"/>
<path d="M9.27734 26.2345C9.27001 26.0643 9.30175 25.7145 9.40137 25.2354C9.51106 24.708 9.70053 24.0191 10.0059 23.2325C10.6166 21.6591 11.6898 19.6919 13.5059 17.8321C14.0764 17.2478 14.4677 16.4415 14.7324 15.5245C14.997 14.6078 15.1344 13.5829 15.2002 12.5645C15.3302 10.551 15.1786 8.5734 15.1748 7.50302L8.93457 7.49423C9.24399 9.70929 9.44272 11.0785 9.40527 11.92C9.38638 12.3441 9.30836 12.6423 9.14746 12.8477C9.02612 13.0027 8.86068 13.1008 8.64941 13.1632L8.42188 13.2149C7.95034 13.2946 7.59462 13.3109 7.31836 13.2003C7.03869 13.0882 6.84869 12.8491 6.69727 12.4415C6.54621 12.0347 6.43099 11.4528 6.30566 10.6436C6.18131 9.8407 6.04623 8.80881 5.85645 7.49814H1.36816C1.44375 8.13269 1.46761 8.96325 1.47656 9.87216C1.48574 10.8037 1.48097 11.818 1.50586 12.7921C1.53075 13.766 1.58457 14.698 1.71094 15.464C1.77412 15.8469 1.85607 16.1877 1.95996 16.4708C2.06396 16.754 2.19017 16.9769 2.3418 17.128C4.32624 19.1059 5.55412 21.0863 6.27734 22.7247C6.98376 24.3251 7.20757 25.6023 7.18457 26.2345H9.27734Z" fill="#6348EC" stroke="#5038C3" stroke-width="0.0807739"/>
<mask id="mask0_368_3" style="mask-type:luminance" maskUnits="userSpaceOnUse" x="1" y="7" width="15" height="20">
<path d="M9.27734 26.2345C9.27 26.0643 9.30176 25.7145 9.40137 25.2355C9.51105 24.708 9.70053 24.0192 10.0059 23.2325C10.6166 21.6591 11.6898 19.6919 13.5059 17.8321C14.0764 17.2479 14.4677 16.4415 14.7324 15.5245C14.997 14.6078 15.1344 13.583 15.2002 12.5646C15.3302 10.5511 15.1786 8.57344 15.1748 7.50304L8.93457 7.49425C9.24399 9.70927 9.44272 11.0785 9.40527 11.92C9.38638 12.3441 9.30837 12.6423 9.14746 12.8478C9.02612 13.0027 8.86068 13.1008 8.64941 13.1632L8.42188 13.215C7.95035 13.2946 7.59462 13.3109 7.31836 13.2003C7.03867 13.0882 6.8487 12.8492 6.69727 12.4415C6.54617 12.0347 6.43102 11.4521 6.30566 10.6427C6.18133 9.83981 6.04618 8.80859 5.85645 7.49815H1.36816C1.44375 8.13271 1.46761 8.96329 1.47656 9.87218C1.48574 10.8037 1.48098 11.818 1.50586 12.7921C1.53074 13.766 1.58457 14.698 1.71094 15.464C1.77412 15.8469 1.85607 16.1877 1.95996 16.4708C2.06396 16.754 2.19016 16.9769 2.3418 17.128C4.32626 19.1059 5.55413 21.0864 6.27734 22.7247C6.98375 24.3251 7.2076 25.6023 7.18457 26.2345H9.27734Z" fill="white" stroke="white" stroke-width="0.0807739"/>
</mask>
<g mask="url(#mask0_368_3)">
<path d="M8.30854 8.18843C7.21964 6.82128 10.7172 9.89721 12.4914 12.3367C12.5537 12.3989 12.6781 12.4612 12.7404 12.5234C12.927 12.7722 13.1137 13.0211 13.3003 13.2078C13.6115 13.4567 13.8603 13.7678 14.1715 14.0167C15.9759 15.8833 17.6558 17.6878 19.4062 19.5637" stroke="#5038C3" stroke-width="0.719372" stroke-miterlimit="10" stroke-linecap="round" stroke-linejoin="round"/>
</g>
<mask id="mask1_368_3" style="mask-type:luminance" maskUnits="userSpaceOnUse" x="1" y="7" width="15" height="20">
<path d="M9.27734 26.2345C9.27 26.0643 9.30176 25.7145 9.40137 25.2354C9.51105 24.7079 9.70053 24.0191 10.0059 23.2325C10.6166 21.6591 11.6898 19.6919 13.5059 17.8321C14.0764 17.2478 14.4677 16.4415 14.7324 15.5245C14.997 14.6077 15.1344 13.5829 15.2002 12.5645C15.3302 10.5511 15.1786 8.5734 15.1748 7.50301L8.93457 7.49422C9.24399 9.70924 9.44272 11.0785 9.40527 11.92C9.38638 12.3441 9.30837 12.6423 9.14746 12.8477C9.02612 13.0027 8.86068 13.1008 8.64941 13.1632L8.42188 13.2149C7.95035 13.2946 7.59462 13.3109 7.31836 13.2003C7.03867 13.0882 6.8487 12.8491 6.69727 12.4415C6.54617 12.0346 6.43102 11.4521 6.30566 10.6427C6.18133 9.83978 6.04618 8.80856 5.85645 7.49812H1.36816C1.44375 8.13268 1.46761 8.96326 1.47656 9.87215C1.48574 10.8036 1.48098 11.818 1.50586 12.7921C1.53074 13.766 1.58457 14.6979 1.71094 15.4639C1.77412 15.8469 1.85607 16.1877 1.95996 16.4708C2.06396 16.754 2.19016 16.9769 2.3418 17.128C4.32626 19.1059 5.55413 21.0863 6.27734 22.7247C6.98375 24.3251 7.2076 25.6023 7.18457 26.2345H9.27734Z" fill="white" stroke="white" stroke-width="0.0807739"/>
</mask>
<g mask="url(#mask1_368_3)">
<path d="M10.0051 5.4158C10.4928 6.02807 13.6903 8.87965 14.188 9.5641C14.2503 9.62629 14.3747 9.68854 14.4369 9.75073C14.6236 9.99962 14.8103 10.2485 14.9969 10.4352C15.308 10.6841 15.5569 10.9952 15.8681 11.2441C17.6725 13.1107 19.3524 14.9151 21.1028 16.7911" stroke="#5038C3" stroke-width="0.719372" stroke-miterlimit="10" stroke-linecap="round" stroke-linejoin="round"/>
</g>
<mask id="mask2_368_3" style="mask-type:luminance" maskUnits="userSpaceOnUse" x="1" y="7" width="15" height="20">
<path d="M9.27734 26.2345C9.27 26.0643 9.30176 25.7145 9.40137 25.2354C9.51105 24.7079 9.70053 24.0191 10.0059 23.2325C10.6166 21.6591 11.6898 19.6919 13.5059 17.8321C14.0764 17.2478 14.4677 16.4415 14.7324 15.5245C14.997 14.6077 15.1344 13.5829 15.2002 12.5645C15.3302 10.5511 15.1786 8.5734 15.1748 7.50301L8.93457 7.49422C9.24399 9.70924 9.44272 11.0785 9.40527 11.92C9.38638 12.3441 9.30837 12.6423 9.14746 12.8477C9.02612 13.0027 8.86068 13.1008 8.64941 13.1632L8.42188 13.2149C7.95035 13.2946 7.59462 13.3109 7.31836 13.2003C7.03867 13.0882 6.8487 12.8491 6.69727 12.4415C6.54617 12.0346 6.43102 11.4521 6.30566 10.6427C6.18133 9.83978 6.04618 8.80856 5.85645 7.49812H1.36816C1.44375 8.13268 1.46761 8.96326 1.47656 9.87215C1.48574 10.8036 1.48098 11.818 1.50586 12.7921C1.53074 13.766 1.58457 14.6979 1.71094 15.4639C1.77412 15.8469 1.85607 16.1877 1.95996 16.4708C2.06396 16.754 2.19016 16.9769 2.3418 17.128C4.32626 19.1059 5.55413 21.0863 6.27734 22.7247C6.98375 24.3251 7.2076 25.6023 7.18457 26.2345H9.27734Z" fill="white" stroke="white" stroke-width="0.0807739"/>
</mask>
<g mask="url(#mask2_368_3)">
<path d="M3.08691 7.58082C6.40947 11.0495 13.0516 17.5011 16.4738 20.9855C16.5982 21.1722 16.7227 21.3588 16.8471 21.4832C17.2826 21.7944 17.5315 22.2921 17.9434 22.5815" stroke="#5038C3" stroke-width="0.719372" stroke-miterlimit="10" stroke-linecap="round" stroke-linejoin="round"/>
</g>
<mask id="mask3_368_3" style="mask-type:luminance" maskUnits="userSpaceOnUse" x="1" y="7" width="15" height="20">
<path d="M9.27734 26.2346C9.27 26.0644 9.30176 25.7146 9.40137 25.2355C9.51105 24.7081 9.70053 24.0192 10.0059 23.2326C10.6166 21.6592 11.6898 19.692 13.5059 17.8322C14.0764 17.248 14.4677 16.4416 14.7324 15.5246C14.997 14.6079 15.1344 13.583 15.2002 12.5647C15.3302 10.5512 15.1786 8.57353 15.1748 7.50313L8.93457 7.49434C9.24399 9.70936 9.44272 11.0786 9.40527 11.9201C9.38638 12.3442 9.30837 12.6424 9.14746 12.8479C9.02612 13.0028 8.86068 13.1009 8.64941 13.1633L8.42188 13.215C7.95035 13.2947 7.59462 13.311 7.31836 13.2004C7.03867 13.0883 6.8487 12.8493 6.69727 12.4416C6.54617 12.0348 6.43102 11.4522 6.30566 10.6428C6.18133 9.8399 6.04618 8.80868 5.85645 7.49825H1.36816C1.44375 8.1328 1.46761 8.96338 1.47656 9.87227C1.48574 10.8038 1.48098 11.8181 1.50586 12.7922C1.53074 13.7661 1.58457 14.6981 1.71094 15.4641C1.77412 15.847 1.85607 16.1878 1.95996 16.4709C2.06396 16.7541 2.19016 16.977 2.3418 17.1281C4.32626 19.106 5.55413 21.0865 6.27734 22.7248C6.98375 24.3252 7.2076 25.6024 7.18457 26.2346H9.27734Z" fill="white" stroke="white" stroke-width="0.0807739"/>
</mask>
<g mask="url(#mask3_368_3)">
<path d="M0.824341 9.3427C2.3746 10.966 5.31515 13.9959 9.00707 17.6878C9.19376 17.9367 9.38039 18.1234 9.56708 18.3722C11.5582 20.4877 13.4248 22.4166 15.4159 24.5322C15.7893 24.9055 16.1003 25.2165 16.4802 25.5993" stroke="#5038C3" stroke-width="0.719372" stroke-miterlimit="10" stroke-linecap="round" stroke-linejoin="round"/>
</g>
<mask id="mask4_368_3" style="mask-type:luminance" maskUnits="userSpaceOnUse" x="1" y="7" width="15" height="20">
<path d="M9.27734 26.2345C9.27 26.0643 9.30176 25.7145 9.40137 25.2355C9.51105 24.708 9.70053 24.0192 10.0059 23.2325C10.6166 21.6591 11.6898 19.6919 13.5059 17.8321C14.0764 17.2479 14.4677 16.4415 14.7324 15.5245C14.997 14.6078 15.1344 13.583 15.2002 12.5646C15.3302 10.5511 15.1786 8.57344 15.1748 7.50304L8.93457 7.49425C9.24399 9.70927 9.44272 11.0785 9.40527 11.92C9.38638 12.3441 9.30837 12.6423 9.14746 12.8478C9.02612 13.0027 8.86068 13.1008 8.64941 13.1632L8.42188 13.215C7.95035 13.2946 7.59462 13.3109 7.31836 13.2003C7.03867 13.0882 6.8487 12.8492 6.69727 12.4415C6.54617 12.0347 6.43102 11.4521 6.30566 10.6427C6.18133 9.83981 6.04618 8.80859 5.85645 7.49815H1.36816C1.44375 8.13271 1.46761 8.96329 1.47656 9.87218C1.48574 10.8037 1.48098 11.818 1.50586 12.7921C1.53074 13.766 1.58457 14.698 1.71094 15.464C1.77412 15.8469 1.85607 16.1877 1.95996 16.4708C2.06396 16.754 2.19016 16.9769 2.3418 17.128C4.32626 19.1059 5.55413 21.0864 6.27734 22.7247C6.98375 24.3251 7.2076 25.6023 7.18457 26.2345H9.27734Z" fill="white" stroke="white" stroke-width="0.0807739"/>
</mask>
<g mask="url(#mask4_368_3)">
<path d="M-1.38245 11.3769L15.0172 28.6171" stroke="#5038C3" stroke-width="0.719372" stroke-miterlimit="10" stroke-linecap="round" stroke-linejoin="round"/>
</g>
<mask id="mask5_368_3" style="mask-type:luminance" maskUnits="userSpaceOnUse" x="1" y="7" width="15" height="20">
<path d="M9.27734 26.2345C9.27 26.0644 9.30176 25.7145 9.40137 25.2355C9.51105 24.708 9.70053 24.0192 10.0059 23.2325C10.6166 21.6591 11.6898 19.692 13.5059 17.8322C14.0764 17.2479 14.4677 16.4415 14.7324 15.5245C14.997 14.6078 15.1344 13.583 15.2002 12.5646C15.3302 10.5511 15.1786 8.57345 15.1748 7.50305L8.93457 7.49426C9.24399 9.70928 9.44272 11.0785 9.40527 11.92C9.38638 12.3441 9.30837 12.6423 9.14746 12.8478C9.02612 13.0027 8.86068 13.1008 8.64941 13.1632L8.42188 13.215C7.95035 13.2946 7.59462 13.3109 7.31836 13.2003C7.03867 13.0883 6.8487 12.8492 6.69727 12.4415C6.54617 12.0347 6.43102 11.4521 6.30566 10.6427C6.18133 9.83982 6.04618 8.8086 5.85645 7.49817H1.36816C1.44375 8.13272 1.46761 8.9633 1.47656 9.87219C1.48574 10.8037 1.48098 11.818 1.50586 12.7921C1.53074 13.766 1.58457 14.698 1.71094 15.464C1.77412 15.8469 1.85607 16.1878 1.95996 16.4708C2.06396 16.754 2.19016 16.9769 2.3418 17.1281C4.32626 19.1059 5.55413 21.0864 6.27734 22.7247C6.98375 24.3251 7.2076 25.6023 7.18457 26.2345H9.27734Z" fill="white" stroke="white" stroke-width="0.0807739"/>
</mask>
<g mask="url(#mask5_368_3)">
<path d="M-2.84546 14.3947L13.5542 31.6349" stroke="#5038C3" stroke-width="0.719372" stroke-miterlimit="10" stroke-linecap="round" stroke-linejoin="round"/>
</g>
<mask id="mask6_368_3" style="mask-type:luminance" maskUnits="userSpaceOnUse" x="1" y="7" width="15" height="20">
<path d="M9.27734 26.2345C9.27 26.0643 9.30176 25.7145 9.40137 25.2354C9.51105 24.7079 9.70053 24.0191 10.0059 23.2325C10.6166 21.6591 11.6898 19.6919 13.5059 17.8321C14.0764 17.2478 14.4677 16.4415 14.7324 15.5245C14.997 14.6077 15.1344 13.5829 15.2002 12.5645C15.3302 10.5511 15.1786 8.5734 15.1748 7.50301L8.93457 7.49422C9.24399 9.70924 9.44272 11.0785 9.40527 11.92C9.38638 12.3441 9.30837 12.6423 9.14746 12.8477C9.02612 13.0027 8.86068 13.1008 8.64941 13.1632L8.42188 13.2149C7.95035 13.2946 7.59462 13.3109 7.31836 13.2003C7.03867 13.0882 6.8487 12.8491 6.69727 12.4415C6.54617 12.0346 6.43102 11.4521 6.30566 10.6427C6.18133 9.83978 6.04618 8.80856 5.85645 7.49812H1.36816C1.44375 8.13268 1.46761 8.96326 1.47656 9.87215C1.48574 10.8036 1.48098 11.818 1.50586 12.7921C1.53074 13.766 1.58457 14.6979 1.71094 15.4639C1.77412 15.8469 1.85607 16.1877 1.95996 16.4708C2.06396 16.754 2.19016 16.9769 2.3418 17.128C4.32626 19.1059 5.55413 21.0863 6.27734 22.7247C6.98375 24.3251 7.2076 25.6023 7.18457 26.2345H9.27734Z" fill="white" stroke="white" stroke-width="0.0807739"/>
</mask>
<g mask="url(#mask6_368_3)">
<path d="M5.67701 10.6044C4.0916 12.3989 2.41162 14.0167 0.731635 15.7589C0.607194 15.9455 0.482753 16.1322 0.358312 16.2567C-0.761656 17.3144 -1.75725 18.4344 -2.84546 19.5637" stroke="#5038C3" stroke-width="0.719372" stroke-miterlimit="10" stroke-linecap="round" stroke-linejoin="round"/>
</g>
<mask id="mask7_368_3" style="mask-type:luminance" maskUnits="userSpaceOnUse" x="1" y="7" width="15" height="20">
<path d="M9.27734 26.2346C9.27 26.0644 9.30176 25.7146 9.40137 25.2355C9.51105 24.7081 9.70053 24.0192 10.0059 23.2326C10.6166 21.6592 11.6898 19.692 13.5059 17.8322C14.0764 17.248 14.4677 16.4416 14.7324 15.5246C14.997 14.6079 15.1344 13.583 15.2002 12.5647C15.3302 10.5512 15.1786 8.57353 15.1748 7.50313L8.93457 7.49434C9.24399 9.70936 9.44272 11.0786 9.40527 11.9201C9.38638 12.3442 9.30837 12.6424 9.14746 12.8479C9.02612 13.0028 8.86068 13.1009 8.64941 13.1633L8.42188 13.215C7.95035 13.2947 7.59462 13.311 7.31836 13.2004C7.03867 13.0883 6.8487 12.8493 6.69727 12.4416C6.54617 12.0348 6.43102 11.4522 6.30566 10.6428C6.18133 9.8399 6.04618 8.80868 5.85645 7.49825H1.36816C1.44375 8.1328 1.46761 8.96338 1.47656 9.87227C1.48574 10.8038 1.48098 11.8181 1.50586 12.7922C1.53074 13.7661 1.58457 14.6981 1.71094 15.4641C1.77412 15.847 1.85607 16.1878 1.95996 16.4709C2.06396 16.7541 2.19016 16.977 2.3418 17.1281C4.32626 19.106 5.55413 21.0865 6.27734 22.7248C6.98375 24.3252 7.2076 25.6024 7.18457 26.2346H9.27734Z" fill="white" stroke="white" stroke-width="0.0807739"/>
</mask>
<g mask="url(#mask7_368_3)">
<path d="M5.67701 6.12483C4.0916 7.91932 2.41162 9.53712 0.731635 11.2793C0.607194 11.4659 0.482753 11.6526 0.358312 11.7771C-0.761656 12.8348 -1.75725 13.9548 -2.84546 15.0841" stroke="#5038C3" stroke-width="0.719372" stroke-miterlimit="10" stroke-linecap="round" stroke-linejoin="round"/>
</g>
<mask id="mask8_368_3" style="mask-type:luminance" maskUnits="userSpaceOnUse" x="1" y="7" width="15" height="20">
<path d="M9.27734 26.2345C9.27 26.0643 9.30176 25.7145 9.40137 25.2355C9.51105 24.708 9.70053 24.0192 10.0059 23.2325C10.6166 21.6591 11.6898 19.6919 13.5059 17.8321C14.0764 17.2479 14.4677 16.4415 14.7324 15.5245C14.997 14.6078 15.1344 13.583 15.2002 12.5646C15.3302 10.5511 15.1786 8.57344 15.1748 7.50304L8.93457 7.49425C9.24399 9.70927 9.44272 11.0785 9.40527 11.92C9.38638 12.3441 9.30837 12.6423 9.14746 12.8478C9.02612 13.0027 8.86068 13.1008 8.64941 13.1632L8.42188 13.215C7.95035 13.2946 7.59462 13.3109 7.31836 13.2003C7.03867 13.0882 6.8487 12.8492 6.69727 12.4415C6.54617 12.0347 6.43102 11.4521 6.30566 10.6427C6.18133 9.83981 6.04618 8.80859 5.85645 7.49815H1.36816C1.44375 8.13271 1.46761 8.96329 1.47656 9.87218C1.48574 10.8037 1.48098 11.818 1.50586 12.7921C1.53074 13.766 1.58457 14.698 1.71094 15.464C1.77412 15.8469 1.85607 16.1877 1.95996 16.4708C2.06396 16.754 2.19016 16.9769 2.3418 17.128C4.32626 19.1059 5.55413 21.0864 6.27734 22.7247C6.98375 24.3251 7.2076 25.6023 7.18457 26.2345H9.27734Z" fill="white" stroke="white" stroke-width="0.0807739"/>
</mask>
<g mask="url(#mask8_368_3)">
<path d="M13.5542 6.87955C11.2954 9.21531 5.18764 15.6703 0.731602 20.3011C0.0472089 21.1099 -0.699499 21.7944 -1.38245 22.5815" stroke="#5038C3" stroke-width="0.719372" stroke-miterlimit="10" stroke-linecap="round" stroke-linejoin="round"/>
</g>
<mask id="mask9_368_3" style="mask-type:luminance" maskUnits="userSpaceOnUse" x="1" y="7" width="15" height="20">
<path d="M9.27734 26.2345C9.27 26.0644 9.30176 25.7146 9.40137 25.2355C9.51105 24.708 9.70053 24.0192 10.0059 23.2326C10.6166 21.6592 11.6898 19.692 13.5059 17.8322C14.0764 17.2479 14.4677 16.4416 14.7324 15.5246C14.997 14.6078 15.1344 13.583 15.2002 12.5646C15.3302 10.5512 15.1786 8.5735 15.1748 7.5031L8.93457 7.49431C9.24399 9.70933 9.44272 11.0786 9.40527 11.9201C9.38638 12.3442 9.30837 12.6424 9.14746 12.8478C9.02612 13.0028 8.86068 13.1009 8.64941 13.1633L8.42188 13.215C7.95035 13.2947 7.59462 13.311 7.31836 13.2004C7.03867 13.0883 6.8487 12.8492 6.69727 12.4416C6.54617 12.0347 6.43102 11.4522 6.30566 10.6427C6.18133 9.83987 6.04618 8.80865 5.85645 7.49821H1.36816C1.44375 8.13277 1.46761 8.96335 1.47656 9.87224C1.48574 10.8037 1.48098 11.818 1.50586 12.7922C1.53074 13.7661 1.58457 14.698 1.71094 15.464C1.77412 15.847 1.85607 16.1878 1.95996 16.4709C2.06396 16.7541 2.19016 16.977 2.3418 17.1281C4.32626 19.106 5.55413 21.0864 6.27734 22.7248C6.98375 24.3252 7.2076 25.6024 7.18457 26.2345H9.27734Z" fill="white" stroke="white" stroke-width="0.0807739"/>
</mask>
<g mask="url(#mask9_368_3)">
<path d="M15.9284 8.856C14.7023 10.0235 12.4948 12.1535 11.3127 13.3357C8.76156 15.8868 6.08278 19.3056 3.5939 21.8566C3.46945 22.0433 3.34501 22.23 3.22057 22.3544C2.10061 23.4122 1.16727 24.5322 0.0806885 25.5993" stroke="#5038C3" stroke-width="0.719372" stroke-miterlimit="10" stroke-linecap="round" stroke-linejoin="round"/>
</g>
<mask id="mask10_368_3" style="mask-type:luminance" maskUnits="userSpaceOnUse" x="1" y="7" width="15" height="20">
<path d="M9.27734 26.2345C9.27 26.0643 9.30176 25.7145 9.40137 25.2355C9.51105 24.708 9.70053 24.0192 10.0059 23.2325C10.6166 21.6591 11.6898 19.6919 13.5059 17.8321C14.0764 17.2479 14.4677 16.4415 14.7324 15.5245C14.997 14.6078 15.1344 13.583 15.2002 12.5646C15.3302 10.5511 15.1786 8.57344 15.1748 7.50304L8.93457 7.49425C9.24399 9.70927 9.44272 11.0785 9.40527 11.92C9.38638 12.3441 9.30837 12.6423 9.14746 12.8478C9.02612 13.0027 8.86068 13.1008 8.64941 13.1632L8.42188 13.215C7.95035 13.2946 7.59462 13.3109 7.31836 13.2003C7.03867 13.0882 6.8487 12.8492 6.69727 12.4415C6.54617 12.0347 6.43102 11.4521 6.30566 10.6427C6.18133 9.83981 6.04618 8.80859 5.85645 7.49815H1.36816C1.44375 8.13271 1.46761 8.96329 1.47656 9.87218C1.48574 10.8037 1.48098 11.818 1.50586 12.7921C1.53074 13.766 1.58457 14.698 1.71094 15.464C1.77412 15.8469 1.85607 16.1877 1.95996 16.4708C2.06396 16.754 2.19016 16.9769 2.3418 17.128C4.32626 19.1059 5.55413 21.0864 6.27734 22.7247C6.98375 24.3251 7.2076 25.6023 7.18457 26.2345H9.27734Z" fill="white" stroke="white" stroke-width="0.0807739"/>
</mask>
<g mask="url(#mask10_368_3)">
<path d="M17.9432 11.3769L1.54358 28.6171" stroke="#5038C3" stroke-width="0.719372" stroke-miterlimit="10" stroke-linecap="round" stroke-linejoin="round"/>
</g>
<mask id="mask11_368_3" style="mask-type:luminance" maskUnits="userSpaceOnUse" x="1" y="7" width="15" height="20">
<path d="M9.27734 26.2345C9.27 26.0644 9.30176 25.7145 9.40137 25.2355C9.51105 24.708 9.70053 24.0192 10.0059 23.2325C10.6166 21.6591 11.6898 19.692 13.5059 17.8322C14.0764 17.2479 14.4677 16.4415 14.7324 15.5245C14.997 14.6078 15.1344 13.583 15.2002 12.5646C15.3302 10.5511 15.1786 8.57345 15.1748 7.50305L8.93457 7.49426C9.24399 9.70928 9.44272 11.0785 9.40527 11.92C9.38638 12.3441 9.30837 12.6423 9.14746 12.8478C9.02612 13.0027 8.86068 13.1008 8.64941 13.1632L8.42188 13.215C7.95035 13.2946 7.59462 13.3109 7.31836 13.2003C7.03867 13.0883 6.8487 12.8492 6.69727 12.4415C6.54617 12.0347 6.43102 11.4521 6.30566 10.6427C6.18133 9.83982 6.04618 8.8086 5.85645 7.49817H1.36816C1.44375 8.13272 1.46761 8.9633 1.47656 9.87219C1.48574 10.8037 1.48098 11.818 1.50586 12.7921C1.53074 13.766 1.58457 14.698 1.71094 15.464C1.77412 15.8469 1.85607 16.1878 1.95996 16.4708C2.06396 16.754 2.19016 16.9769 2.3418 17.1281C4.32626 19.1059 5.55413 21.0864 6.27734 22.7247C6.98375 24.3251 7.2076 25.6023 7.18457 26.2345H9.27734Z" fill="white" stroke="white" stroke-width="0.0807739"/>
</mask>
<g mask="url(#mask11_368_3)">
<path d="M19.4063 14.3947L3.00659 31.6349" stroke="#5038C3" stroke-width="0.719372" stroke-miterlimit="10" stroke-linecap="round" stroke-linejoin="round"/>
</g>
<mask id="path-29-inside-1_368_3" fill="white">
<path d="M7.83884 7.50583C7.87204 7.74396 7.88952 7.85583 7.89776 7.89808C7.90185 7.94455 7.9075 8.00555 7.91498 8.0844C7.99843 8.96045 8.04559 9.74841 8.04553 10.4204C8.04553 10.8151 8.02924 11.1696 7.99554 11.4767C7.97026 11.707 7.93517 11.9104 7.89147 12.083C7.85871 12.2124 7.82098 12.3243 7.78048 12.4169C7.71974 12.5563 7.65303 12.65 7.59291 12.7057C7.56267 12.7338 7.53399 12.7535 7.50494 12.7681C7.4757 12.7827 7.44564 12.7927 7.40936 12.7989L7.40855 12.799C7.33636 12.8113 7.2714 12.8167 7.2133 12.8166C7.14143 12.8166 7.08012 12.8085 7.02567 12.7944C6.92393 12.7671 6.8423 12.7214 6.75559 12.6395C6.68051 12.5679 6.60418 12.4657 6.5308 12.3278C6.4017 12.087 6.28556 11.7391 6.18577 11.2989C6.03473 10.6383 5.91702 9.77275 5.78962 8.73371C5.66185 7.69429 5.80276 8.77093 5.6045 7.4034C5.57727 7.21558 5.41718 7.07705 5.2274 7.07705H0.381062C0.27209 7.07705 0.167397 7.12428 0.0953354 7.2059C0.023337 7.28752 -0.0105615 7.39724 0.00289497 7.50527C0.040812 7.80798 0.0660957 8.16992 0.0825704 8.57103C0.111621 9.27328 0.114132 10.0958 0.11847 10.9504C0.125199 12.2332 0.135259 13.5872 0.250142 14.7425C0.307992 15.3208 0.391435 15.8495 0.520026 16.3037C0.584604 16.5308 0.660567 16.7397 0.754071 16.9283C0.847826 17.1165 0.959185 17.2856 1.10067 17.427C2.98237 19.3024 4.16497 21.1741 4.87665 22.7352C5.23237 23.5155 5.47018 24.2183 5.6182 24.8024C5.69234 25.0943 5.74384 25.3566 5.77667 25.583C5.80949 25.809 5.82345 25.9997 5.82339 26.1447C5.82339 26.1844 5.82238 26.2206 5.82049 26.2529C5.81458 26.3574 5.85206 26.4601 5.92393 26.5362C5.99587 26.6123 6.09629 26.6555 6.20099 26.6555H8.37508C8.48393 26.6555 8.58668 26.6096 8.65924 26.5283C8.73181 26.4471 8.76589 26.3399 8.75369 26.2317C8.75306 26.2289 8.75199 26.2116 8.75205 26.1864C8.75205 26.1122 8.76168 25.9733 8.78727 25.7929C8.83179 25.4759 8.92327 25.0248 9.08192 24.4827C9.31993 23.6691 9.70885 22.6492 10.3165 21.5488C10.9243 20.4482 11.7505 19.267 12.8641 18.1265C13.278 17.7025 13.5972 17.1858 13.8462 16.6155C14.2193 15.7594 14.4372 14.7801 14.5656 13.7757C14.6936 12.7715 14.7308 11.7417 14.7308 10.7885C14.7308 10.098 14.7112 9.44784 14.6917 8.8789C14.6723 8.31046 14.6531 7.82181 14.6532 7.46295C14.6532 7.25255 14.4831 7.08227 14.2727 7.08189L7.94642 7.07214C7.83613 7.07214 7.82362 7.39661 7.83884 7.50583ZM7.90052 13.4203C7.99855 13.3641 8.08677 13.2931 8.16399 13.2123C8.29937 13.0703 8.402 12.9002 8.48387 12.7103C8.60617 12.425 8.68389 12.0922 8.73482 11.7103C8.78531 11.3286 8.80758 10.8977 8.80764 10.4204C8.80758 9.7132 8.75853 8.90424 8.67364 8.01221C8.66666 7.93934 8.6595 7.88116 8.65207 7.83533L13.896 7.84344C13.9031 8.15376 13.9166 8.51105 13.9301 8.90499C13.9495 9.47142 13.9688 10.1124 13.9688 10.7885C13.9688 12.0323 13.9028 13.3961 13.6577 14.6185C13.5355 15.2295 13.3686 15.8047 13.1477 16.3106C12.9269 16.817 12.6526 17.2526 12.3188 17.5941C10.5421 19.4137 9.46204 21.3346 8.82543 22.9078C8.50713 23.6947 8.2995 24.3949 8.1706 24.9555C8.10627 25.2359 8.0615 25.4813 8.03257 25.6867C8.0222 25.761 8.01377 25.8298 8.00729 25.8935H6.57651C6.56783 25.7647 6.55274 25.6247 6.53086 25.4735C6.46596 25.0264 6.3407 24.4815 6.13634 23.8594C5.52344 21.995 4.19616 19.4365 1.63868 16.8872C1.58887 16.8377 1.53612 16.7685 1.48449 16.6789C1.38734 16.5111 1.2968 16.2725 1.2226 15.9823C1.09168 15.474 1.0088 14.8107 0.959814 14.0767C0.885678 12.9746 0.884675 11.7116 0.87845 10.5258C0.875243 9.93272 0.870654 9.35868 0.854494 8.83111C0.843553 8.47703 0.827452 8.14414 0.802551 7.8391H4.89822C4.94828 8.17356 4.95098 8.16432 4.95116 8.15508C4.95179 8.1447 4.94878 8.13445 5.00562 8.60109C5.09617 9.34466 5.18024 10.01 5.27569 10.5947C5.34725 11.0333 5.4251 11.4264 5.51848 11.7752C5.58859 12.0368 5.66745 12.2736 5.76145 12.4867C5.83213 12.6464 5.91142 12.793 6.00386 12.9253C6.14194 13.1234 6.31278 13.2915 6.52054 13.4067C6.72767 13.5225 6.96656 13.5795 7.2133 13.5788C7.31875 13.5788 7.42608 13.569 7.5355 13.5504H7.53462C7.66391 13.529 7.78853 13.4846 7.90052 13.4201"/>
</mask>
<path d="M7.83884 7.50583C7.87204 7.74396 7.88952 7.85583 7.89776 7.89808C7.90185 7.94455 7.9075 8.00555 7.91498 8.0844C7.99843 8.96045 8.04559 9.74841 8.04553 10.4204C8.04553 10.8151 8.02924 11.1696 7.99554 11.4767C7.97026 11.707 7.93517 11.9104 7.89147 12.083C7.85871 12.2124 7.82098 12.3243 7.78048 12.4169C7.71974 12.5563 7.65303 12.65 7.59291 12.7057C7.56267 12.7338 7.53399 12.7535 7.50494 12.7681C7.4757 12.7827 7.44564 12.7927 7.40936 12.7989L7.40855 12.799C7.33636 12.8113 7.2714 12.8167 7.2133 12.8166C7.14143 12.8166 7.08012 12.8085 7.02567 12.7944C6.92393 12.7671 6.8423 12.7214 6.75559 12.6395C6.68051 12.5679 6.60418 12.4657 6.5308 12.3278C6.4017 12.087 6.28556 11.7391 6.18577 11.2989C6.03473 10.6383 5.91702 9.77275 5.78962 8.73371C5.66185 7.69429 5.80276 8.77093 5.6045 7.4034C5.57727 7.21558 5.41718 7.07705 5.2274 7.07705H0.381062C0.27209 7.07705 0.167397 7.12428 0.0953354 7.2059C0.023337 7.28752 -0.0105615 7.39724 0.00289497 7.50527C0.040812 7.80798 0.0660957 8.16992 0.0825704 8.57103C0.111621 9.27328 0.114132 10.0958 0.11847 10.9504C0.125199 12.2332 0.135259 13.5872 0.250142 14.7425C0.307992 15.3208 0.391435 15.8495 0.520026 16.3037C0.584604 16.5308 0.660567 16.7397 0.754071 16.9283C0.847826 17.1165 0.959185 17.2856 1.10067 17.427C2.98237 19.3024 4.16497 21.1741 4.87665 22.7352C5.23237 23.5155 5.47018 24.2183 5.6182 24.8024C5.69234 25.0943 5.74384 25.3566 5.77667 25.583C5.80949 25.809 5.82345 25.9997 5.82339 26.1447C5.82339 26.1844 5.82238 26.2206 5.82049 26.2529C5.81458 26.3574 5.85206 26.4601 5.92393 26.5362C5.99587 26.6123 6.09629 26.6555 6.20099 26.6555H8.37508C8.48393 26.6555 8.58668 26.6096 8.65924 26.5283C8.73181 26.4471 8.76589 26.3399 8.75369 26.2317C8.75306 26.2289 8.75199 26.2116 8.75205 26.1864C8.75205 26.1122 8.76168 25.9733 8.78727 25.7929C8.83179 25.4759 8.92327 25.0248 9.08192 24.4827C9.31993 23.6691 9.70885 22.6492 10.3165 21.5488C10.9243 20.4482 11.7505 19.267 12.8641 18.1265C13.278 17.7025 13.5972 17.1858 13.8462 16.6155C14.2193 15.7594 14.4372 14.7801 14.5656 13.7757C14.6936 12.7715 14.7308 11.7417 14.7308 10.7885C14.7308 10.098 14.7112 9.44784 14.6917 8.8789C14.6723 8.31046 14.6531 7.82181 14.6532 7.46295C14.6532 7.25255 14.4831 7.08227 14.2727 7.08189L7.94642 7.07214C7.83613 7.07214 7.82362 7.39661 7.83884 7.50583ZM7.90052 13.4203C7.99855 13.3641 8.08677 13.2931 8.16399 13.2123C8.29937 13.0703 8.402 12.9002 8.48387 12.7103C8.60617 12.425 8.68389 12.0922 8.73482 11.7103C8.78531 11.3286 8.80758 10.8977 8.80764 10.4204C8.80758 9.7132 8.75853 8.90424 8.67364 8.01221C8.66666 7.93934 8.6595 7.88116 8.65207 7.83533L13.896 7.84344C13.9031 8.15376 13.9166 8.51105 13.9301 8.90499C13.9495 9.47142 13.9688 10.1124 13.9688 10.7885C13.9688 12.0323 13.9028 13.3961 13.6577 14.6185C13.5355 15.2295 13.3686 15.8047 13.1477 16.3106C12.9269 16.817 12.6526 17.2526 12.3188 17.5941C10.5421 19.4137 9.46204 21.3346 8.82543 22.9078C8.50713 23.6947 8.2995 24.3949 8.1706 24.9555C8.10627 25.2359 8.0615 25.4813 8.03257 25.6867C8.0222 25.761 8.01377 25.8298 8.00729 25.8935H6.57651C6.56783 25.7647 6.55274 25.6247 6.53086 25.4735C6.46596 25.0264 6.3407 24.4815 6.13634 23.8594C5.52344 21.995 4.19616 19.4365 1.63868 16.8872C1.58887 16.8377 1.53612 16.7685 1.48449 16.6789C1.38734 16.5111 1.2968 16.2725 1.2226 15.9823C1.09168 15.474 1.0088 14.8107 0.959814 14.0767C0.885678 12.9746 0.884675 11.7116 0.87845 10.5258C0.875243 9.93272 0.870654 9.35868 0.854494 8.83111C0.843553 8.47703 0.827452 8.14414 0.802551 7.8391H4.89822C4.94828 8.17356 4.95098 8.16432 4.95116 8.15508C4.95179 8.1447 4.94878 8.13445 5.00562 8.60109C5.09617 9.34466 5.18024 10.01 5.27569 10.5947C5.34725 11.0333 5.4251 11.4264 5.51848 11.7752C5.58859 12.0368 5.66745 12.2736 5.76145 12.4867C5.83213 12.6464 5.91142 12.793 6.00386 12.9253C6.14194 13.1234 6.31278 13.2915 6.52054 13.4067C6.72767 13.5225 6.96656 13.5795 7.2133 13.5788C7.31875 13.5788 7.42608 13.569 7.5355 13.5504H7.53462C7.66391 13.529 7.78853 13.4846 7.90052 13.4201" fill="url(#paint0_linear_368_3)"/>
<path d="M14.2721 7.46295L14.3125 7.46301L14.3124 7.50333H14.2721V7.46295ZM14.2721 7.46295L14.2317 7.46288L14.2323 7.08183L14.2727 7.08189L14.3131 7.08195L14.3125 7.46301L14.2721 7.46295ZM14.2721 7.46295V7.50333H13.891V7.46295V7.42256H14.2721V7.46295ZM7.83884 7.50583L7.75884 7.51698L7.75884 7.51698L7.83884 7.50583ZM7.89776 7.89808L7.97748 7.88254L7.97822 7.891L7.89776 7.89808ZM7.91498 8.0844L7.83457 8.09206L7.83457 8.09203L7.91498 8.0844ZM8.04553 10.4204H7.96475V10.4203L8.04553 10.4204ZM7.99554 11.4767L8.07583 11.4856V11.4856L7.99554 11.4767ZM7.89147 12.083L7.96977 12.1029L7.96977 12.1029L7.89147 12.083ZM7.78048 12.4169L7.70643 12.3847L7.70646 12.3846L7.78048 12.4169ZM7.59291 12.7057L7.53793 12.6465L7.53801 12.6464L7.59291 12.7057ZM7.50494 12.7681L7.54131 12.8403L7.541 12.8404L7.50494 12.7681ZM7.40936 12.7989L7.42308 12.8789L7.41544 12.8795L7.40936 12.7989ZM7.40855 12.799L7.39496 12.719L7.40247 12.7185L7.40855 12.799ZM7.2133 12.8166V12.7358H7.21339L7.2133 12.8166ZM7.02567 12.7944L7.00535 12.8725L7.00474 12.8724L7.02567 12.7944ZM6.75559 12.6395L6.70012 12.6982L6.69984 12.6979L6.75559 12.6395ZM6.5308 12.3278L6.60198 12.2896L6.6021 12.2898L6.5308 12.3278ZM6.18577 11.2989L6.26451 11.2809L6.26454 11.2811L6.18577 11.2989ZM5.78962 8.73371L5.86979 8.72385L5.8698 8.72388L5.78962 8.73371ZM5.6045 7.4034L5.52456 7.41499L5.52456 7.41499L5.6045 7.4034ZM0.0953354 7.2059L0.0347613 7.15246L0.0347844 7.15244L0.0953354 7.2059ZM0.00289497 7.50527L-0.0772526 7.51531L-0.0772595 7.51525L0.00289497 7.50527ZM0.0825704 8.57103L0.0018656 8.57437L0.00186462 8.57435L0.0825704 8.57103ZM0.11847 10.9504L0.0376977 10.9509L0.0376976 10.9508L0.11847 10.9504ZM0.250142 14.7425L0.16977 14.7506L0.169765 14.7505L0.250142 14.7425ZM0.520026 16.3037L0.442331 16.3257L0.442307 16.3257L0.520026 16.3037ZM0.754071 16.9283L0.681771 16.9643L0.681709 16.9641L0.754071 16.9283ZM1.10067 17.427L1.04365 17.4842L1.04358 17.4841L1.10067 17.427ZM4.87665 22.7352L4.95015 22.7017L4.95015 22.7017L4.87665 22.7352ZM5.6182 24.8024L5.53992 24.8223L5.53991 24.8223L5.6182 24.8024ZM5.77667 25.583L5.69673 25.5946L5.69673 25.5946L5.77667 25.583ZM5.82339 26.1447H5.74261V26.1446L5.82339 26.1447ZM5.82049 26.2529L5.73985 26.2483L5.73986 26.2482L5.82049 26.2529ZM5.92393 26.5362L5.86526 26.5918L5.86519 26.5917L5.92393 26.5362ZM8.65924 26.5283L8.599 26.4745L8.59902 26.4745L8.65924 26.5283ZM8.75369 26.2317L8.83294 26.2137L8.83395 26.2227L8.75369 26.2317ZM8.75205 26.1864H8.83283L8.83283 26.1866L8.75205 26.1864ZM8.78727 25.7929L8.86726 25.8042L8.86724 25.8043L8.78727 25.7929ZM9.08192 24.4827L9.15945 24.5054L9.15945 24.5054L9.08192 24.4827ZM10.3165 21.5488L10.2458 21.5097L10.2458 21.5097L10.3165 21.5488ZM12.8641 18.1265L12.9219 18.1829L12.9219 18.1829L12.8641 18.1265ZM13.8462 16.6155L13.9203 16.6478L13.9202 16.6478L13.8462 16.6155ZM14.5656 13.7757L14.6457 13.7859L14.6457 13.786L14.5656 13.7757ZM14.7308 10.7885H14.8116V10.7885L14.7308 10.7885ZM14.6917 8.8789L14.611 8.88166V8.88166L14.6917 8.8789ZM14.6532 7.46295H14.7339V7.46296L14.6532 7.46295ZM14.2727 7.08189L14.2728 7.00112H14.2728L14.2727 7.08189ZM7.94642 7.07214V6.99137H7.94655L7.94642 7.07214ZM8.16399 13.2123L8.22244 13.268L8.22239 13.2681L8.16399 13.2123ZM8.48387 12.7103L8.55811 12.7422L8.55804 12.7423L8.48387 12.7103ZM8.73482 11.7103L8.8149 11.7209L8.81489 11.721L8.73482 11.7103ZM8.80764 10.4204L8.88842 10.4203V10.4204L8.80764 10.4204ZM8.67364 8.01221L8.75405 8.00451L8.75406 8.00456L8.67364 8.01221ZM8.65207 7.83533L8.57234 7.84823L8.55715 7.7544L8.6522 7.75455L8.65207 7.83533ZM13.896 7.84344L13.8961 7.76266L13.975 7.76279L13.9768 7.84161L13.896 7.84344ZM13.9301 8.90499L13.8494 8.90776V8.90775L13.9301 8.90499ZM13.6577 14.6185L13.5785 14.6027L13.5785 14.6026L13.6577 14.6185ZM13.1477 16.3106L13.0737 16.2783L13.0737 16.2783L13.1477 16.3106ZM12.3188 17.5941L12.261 17.5377L12.2611 17.5376L12.3188 17.5941ZM8.82543 22.9078L8.75056 22.8775L8.75056 22.8775L8.82543 22.9078ZM8.1706 24.9555L8.09187 24.9374L8.09188 24.9374L8.1706 24.9555ZM8.03257 25.6867L7.95257 25.6755L7.95259 25.6755L8.03257 25.6867ZM8.00729 25.8935L8.08765 25.9016L8.08027 25.9742H8.00729V25.8935ZM6.57651 25.8935V25.9742H6.50099L6.49591 25.8989L6.57651 25.8935ZM6.53086 25.4735L6.61079 25.4619L6.6108 25.4619L6.53086 25.4735ZM6.13634 23.8594L6.21307 23.8342L6.21308 23.8342L6.13634 23.8594ZM1.63868 16.8872L1.69561 16.8299L1.6957 16.83L1.63868 16.8872ZM1.48449 16.6789L1.5544 16.6385L1.55448 16.6386L1.48449 16.6789ZM1.2226 15.9823L1.30082 15.9621L1.30086 15.9623L1.2226 15.9823ZM0.959814 14.0767L1.04041 14.0713L1.04041 14.0713L0.959814 14.0767ZM0.87845 10.5258L0.959223 10.5254L0.959223 10.5254L0.87845 10.5258ZM0.854494 8.83111L0.935229 8.82861L0.93523 8.82863L0.854494 8.83111ZM0.802551 7.8391L0.722045 7.84567L0.714915 7.75833H0.802551V7.8391ZM4.89822 7.8391V7.75833H4.96781L4.97811 7.82715L4.89822 7.8391ZM4.95116 8.15508L4.87034 8.15343L4.87054 8.15019L4.95116 8.15508ZM5.00562 8.60109L5.08581 8.59132V8.59133L5.00562 8.60109ZM5.27569 10.5947L5.35541 10.5816L5.35541 10.5817L5.27569 10.5947ZM5.51848 11.7752L5.44046 11.7961L5.44045 11.7961L5.51848 11.7752ZM5.76145 12.4867L5.68759 12.5194L5.68755 12.5193L5.76145 12.4867ZM6.00386 12.9253L6.07008 12.8791L6.07012 12.8791L6.00386 12.9253ZM6.52054 13.4067L6.55971 13.336L6.55996 13.3362L6.52054 13.4067ZM7.2133 13.5788L7.21308 13.498H7.2133V13.5788ZM7.5355 13.5504V13.4697L7.549 13.6301L7.5355 13.5504ZM7.53462 13.5504V13.6312L7.52144 13.4707L7.53462 13.5504ZM7.83884 7.50583L7.91884 7.49468C7.95213 7.73343 7.96931 7.84295 7.97704 7.88263L7.89776 7.89808L7.81848 7.91354C7.80974 7.8687 7.79195 7.75449 7.75884 7.51698L7.83884 7.50583ZM7.89776 7.89808L7.97822 7.891C7.98229 7.93719 7.98792 7.99797 7.9954 8.07677L7.91498 8.0844L7.83457 8.09203C7.82708 8.01313 7.82141 7.95191 7.8173 7.90516L7.89776 7.89808ZM7.91498 8.0844L7.99539 8.07674C8.07897 8.95424 8.12637 9.74495 8.1263 10.4204L8.04553 10.4204L7.96475 10.4203C7.96482 9.75188 7.91788 8.96667 7.83457 8.09206L7.91498 8.0844ZM8.04553 10.4204H8.1263C8.1263 10.8171 8.10994 11.1748 8.07583 11.4856L7.99554 11.4767L7.91524 11.4679C7.94854 11.1645 7.96475 10.813 7.96475 10.4204H8.04553ZM7.99554 11.4767L8.07583 11.4856C8.05025 11.7186 8.0146 11.9258 7.96977 12.1029L7.89147 12.083L7.81316 12.0632C7.85574 11.8951 7.89027 11.6955 7.91524 11.4679L7.99554 11.4767ZM7.89147 12.083L7.96977 12.1029C7.93614 12.2356 7.89709 12.3518 7.8545 12.4493L7.78048 12.4169L7.70646 12.3846C7.74486 12.2967 7.78127 12.1892 7.81316 12.0632L7.89147 12.083ZM7.78048 12.4169L7.85453 12.4492C7.79076 12.5956 7.71837 12.6995 7.64782 12.7649L7.59291 12.7057L7.53801 12.6464C7.58768 12.6004 7.64871 12.5171 7.70643 12.3847L7.78048 12.4169ZM7.59291 12.7057L7.6479 12.7649C7.61254 12.7977 7.57767 12.8219 7.54131 12.8403L7.50494 12.7681L7.46857 12.696C7.49031 12.685 7.5128 12.6699 7.53793 12.6465L7.59291 12.7057ZM7.50494 12.7681L7.541 12.8404C7.50447 12.8586 7.46684 12.871 7.42302 12.8786L7.40936 12.7989L7.3957 12.7193C7.42445 12.7144 7.44693 12.7068 7.46888 12.6959L7.50494 12.7681ZM7.40936 12.7989L7.41544 12.8795L7.41463 12.8795L7.40855 12.799L7.40247 12.7185L7.40328 12.7184L7.40936 12.7989ZM7.40855 12.799L7.42207 12.8786C7.3459 12.8916 7.27637 12.8975 7.21322 12.8974L7.2133 12.8166L7.21339 12.7358C7.26644 12.7359 7.32682 12.731 7.39502 12.7194L7.40855 12.799ZM7.2133 12.8166V12.8974C7.13521 12.8974 7.06703 12.8886 7.00535 12.8725L7.02567 12.7944L7.04598 12.7162C7.09321 12.7284 7.14765 12.7358 7.2133 12.7358V12.8166ZM7.02567 12.7944L7.00474 12.8724C6.88915 12.8414 6.79586 12.7887 6.70012 12.6982L6.75559 12.6395L6.81107 12.5808C6.88875 12.6542 6.9587 12.6928 7.04659 12.7163L7.02567 12.7944ZM6.75559 12.6395L6.69984 12.6979C6.61703 12.6189 6.53584 12.5092 6.45949 12.3657L6.5308 12.3278L6.6021 12.2898C6.67252 12.4222 6.74399 12.5168 6.81135 12.581L6.75559 12.6395ZM6.5308 12.3278L6.45961 12.3659C6.32554 12.1159 6.20746 11.7599 6.10699 11.3168L6.18577 11.2989L6.26454 11.2811C6.36366 11.7182 6.47786 12.0581 6.60198 12.2896L6.5308 12.3278ZM6.18577 11.2989L6.10702 11.3169C5.95492 10.6516 5.83678 9.78205 5.70945 8.74354L5.78962 8.73371L5.8698 8.72388C5.99726 9.76345 6.11454 10.625 6.26451 11.2809L6.18577 11.2989ZM5.78962 8.73371L5.70945 8.74356C5.6451 8.22007 5.64899 8.23456 5.64392 8.20547C5.63819 8.17259 5.62372 8.09895 5.52456 7.41499L5.6045 7.4034L5.68443 7.39182C5.78354 8.07539 5.79774 8.14719 5.80307 8.17773C5.80905 8.21205 5.80637 8.20793 5.86979 8.72385L5.78962 8.73371ZM5.6045 7.4034L5.52456 7.41499C5.50309 7.26689 5.37705 7.15782 5.2274 7.15782V7.07705V6.99627C5.4573 6.99627 5.65145 7.16427 5.68443 7.39182L5.6045 7.4034ZM5.2274 7.07705V7.15782H0.381062V7.07705V6.99627H5.2274V7.07705ZM0.381062 7.07705V7.15782C0.295247 7.15782 0.212609 7.19511 0.155886 7.25936L0.0953354 7.2059L0.0347844 7.15244C0.122185 7.05344 0.248932 6.99627 0.381062 6.99627V7.07705ZM0.0953354 7.2059L0.15591 7.25933C0.0992176 7.3236 0.0724549 7.41023 0.0830494 7.49529L0.00289497 7.50527L-0.0772595 7.51525C-0.0935779 7.38425 -0.0525435 7.25143 0.0347613 7.15246L0.0953354 7.2059ZM0.00289497 7.50527L0.0830425 7.49523C0.121352 7.80107 0.146756 8.16549 0.163276 8.56772L0.0825704 8.57103L0.00186462 8.57435C-0.0145643 8.17435 -0.0397275 7.81489 -0.0772526 7.51531L0.00289497 7.50527ZM0.0825704 8.57103L0.163275 8.5677C0.192401 9.27176 0.194908 10.096 0.199243 10.95L0.11847 10.9504L0.0376976 10.9508C0.0333558 10.0956 0.0308416 9.27481 0.0018656 8.57437L0.0825704 8.57103ZM0.11847 10.9504L0.199243 10.95C0.205976 12.2336 0.216081 13.5837 0.33052 14.7345L0.250142 14.7425L0.169765 14.7505C0.0544377 13.5907 0.0444216 12.2328 0.0376977 10.9509L0.11847 10.9504ZM0.250142 14.7425L0.330515 14.7345C0.388136 15.3104 0.470976 15.8339 0.597745 16.2817L0.520026 16.3037L0.442307 16.3257C0.311893 15.865 0.227849 15.3311 0.16977 14.7506L0.250142 14.7425ZM0.520026 16.3037L0.59772 16.2816C0.661348 16.5053 0.735692 16.7094 0.826432 16.8924L0.754071 16.9283L0.681709 16.9641C0.585442 16.7701 0.507861 16.5562 0.442331 16.3257L0.520026 16.3037ZM0.754071 16.9283L0.82637 16.8922C0.917425 17.075 1.0241 17.2363 1.15776 17.3698L1.10067 17.427L1.04358 17.4841C0.89427 17.3349 0.778226 17.1579 0.681771 16.9643L0.754071 16.9283ZM1.10067 17.427L1.15769 17.3697C3.04649 19.2522 4.23458 21.1321 4.95015 22.7017L4.87665 22.7352L4.80316 22.7687C4.09536 21.2161 2.91825 19.3525 1.04365 17.4842L1.10067 17.427ZM4.87665 22.7352L4.95015 22.7017C5.30779 23.4862 5.54724 24.1936 5.6965 24.7826L5.6182 24.8024L5.53991 24.8223C5.39312 24.2431 5.15695 23.5448 4.80316 22.7687L4.87665 22.7352ZM5.6182 24.8024L5.69649 24.7825C5.77126 25.0769 5.82334 25.342 5.8566 25.5714L5.77667 25.583L5.69673 25.5946C5.66434 25.3712 5.61342 25.1117 5.53992 24.8223L5.6182 24.8024ZM5.77667 25.583L5.8566 25.5714C5.88984 25.8003 5.90423 25.995 5.90416 26.1447L5.82339 26.1447L5.74261 26.1446C5.74268 26.0045 5.72914 25.8177 5.69673 25.5946L5.77667 25.583ZM5.82339 26.1447H5.90416C5.90416 26.1857 5.90312 26.2236 5.90113 26.2576L5.82049 26.2529L5.73986 26.2482C5.74164 26.2177 5.74261 26.1831 5.74261 26.1447H5.82339ZM5.82049 26.2529L5.90114 26.2575C5.89648 26.3398 5.92604 26.4208 5.98268 26.4808L5.92393 26.5362L5.86519 26.5917C5.77809 26.4994 5.73269 26.375 5.73985 26.2483L5.82049 26.2529ZM5.92393 26.5362L5.98261 26.4807C6.03929 26.5406 6.1185 26.5747 6.20099 26.5747V26.6555V26.7363C6.07408 26.7363 5.95245 26.6839 5.86526 26.5918L5.92393 26.5362ZM6.20099 26.6555V26.5747H8.37508V26.6555V26.7363H6.20099V26.6555ZM8.37508 26.6555V26.5747C8.46093 26.5747 8.54177 26.5386 8.599 26.4745L8.65924 26.5283L8.71949 26.5821C8.63159 26.6805 8.50693 26.7363 8.37508 26.7363V26.6555ZM8.65924 26.5283L8.59902 26.4745C8.65622 26.4105 8.68305 26.3262 8.67342 26.2408L8.75369 26.2317L8.83395 26.2227C8.84872 26.3537 8.8074 26.4838 8.71947 26.5821L8.65924 26.5283ZM8.75369 26.2317L8.67492 26.2496C8.67323 26.2421 8.67272 26.2345 8.67263 26.2333C8.67235 26.2297 8.67211 26.2255 8.67191 26.2209C8.67152 26.2118 8.67125 26.1999 8.67128 26.1862L8.75205 26.1864L8.83283 26.1866C8.8328 26.1981 8.83303 26.2075 8.83331 26.214C8.83345 26.2173 8.83359 26.2195 8.83369 26.2207C8.83374 26.2214 8.83375 26.2214 8.8337 26.2209C8.83367 26.2207 8.8336 26.22 8.83346 26.2191C8.83336 26.2185 8.83306 26.2165 8.83245 26.2138L8.75369 26.2317ZM8.75205 26.1864H8.67128C8.67128 26.107 8.6814 25.9641 8.7073 25.7816L8.78727 25.7929L8.86724 25.8043C8.84196 25.9824 8.83283 26.1173 8.83283 26.1864H8.75205ZM8.78727 25.7929L8.70728 25.7817C8.7524 25.4604 8.84477 25.0054 9.0044 24.46L9.08192 24.4827L9.15945 24.5054C9.00178 25.0441 8.91118 25.4914 8.86726 25.8042L8.78727 25.7929ZM9.08192 24.4827L9.0044 24.46C9.24391 23.6413 9.63502 22.6158 10.2458 21.5097L10.3165 21.5488L10.3872 21.5878C9.78267 22.6826 9.39594 23.697 9.15945 24.5054L9.08192 24.4827ZM10.3165 21.5488L10.2458 21.5097C10.8568 20.4035 11.6872 19.2162 12.8063 18.0701L12.8641 18.1265L12.9219 18.1829C11.8139 19.3177 10.9919 20.493 10.3872 21.5878L10.3165 21.5488ZM12.8641 18.1265L12.8063 18.0701C13.2118 17.6547 13.5261 17.1468 13.7722 16.5832L13.8462 16.6155L13.9202 16.6478C13.6683 17.2247 13.3442 17.7503 12.9219 18.1829L12.8641 18.1265ZM13.8462 16.6155L13.7722 16.5832C14.1411 15.7367 14.3576 14.7656 14.4855 13.7655L14.5656 13.7757L14.6457 13.786C14.5167 14.7945 14.2975 15.7821 13.9203 16.6478L13.8462 16.6155ZM14.5656 13.7757L14.4855 13.7655C14.6129 12.7659 14.65 11.7398 14.65 10.7885L14.7308 10.7885L14.8116 10.7885C14.8115 11.7435 14.7744 12.777 14.6457 13.7859L14.5656 13.7757ZM14.7308 10.7885H14.65C14.65 10.0995 14.6305 9.45042 14.611 8.88166L14.6917 8.8789L14.7724 8.87613C14.7919 9.44526 14.8116 10.0966 14.8116 10.7885H14.7308ZM14.6917 8.8789L14.611 8.88166C14.5916 8.31428 14.5723 7.82359 14.5724 7.46293L14.6532 7.46295L14.7339 7.46296C14.7339 7.82002 14.753 8.30663 14.7724 8.87614L14.6917 8.8789ZM14.6532 7.46295H14.5724C14.5724 7.29712 14.4385 7.16296 14.2725 7.16267L14.2727 7.08189L14.2728 7.00112C14.5278 7.00158 14.7339 7.20797 14.7339 7.46295H14.6532ZM14.2727 7.08189L14.2725 7.16267L7.9463 7.15292L7.94642 7.07214L7.94655 6.99137L14.2728 7.00112L14.2727 7.08189ZM7.94642 7.07214V7.15292C7.96548 7.15292 7.96495 7.13771 7.95285 7.16135C7.94212 7.18231 7.93234 7.21651 7.92535 7.26067C7.91146 7.34835 7.91244 7.44872 7.91884 7.49468L7.83884 7.50583L7.75884 7.51698C7.75003 7.45371 7.74965 7.33724 7.76579 7.23539C7.7738 7.18478 7.78688 7.13103 7.80904 7.08774C7.82983 7.04713 7.87222 6.99137 7.94642 6.99137V7.07214ZM7.90052 13.4203L7.86034 13.3503C7.95105 13.2982 8.03323 13.2322 8.10559 13.1565L8.16399 13.2123L8.22239 13.2681C8.14031 13.3539 8.04606 13.43 7.9407 13.4904L7.90052 13.4203ZM8.16399 13.2123L8.10554 13.1565C8.23267 13.0232 8.33054 12.8619 8.4097 12.6784L8.48387 12.7103L8.55804 12.7423C8.47345 12.9385 8.36607 13.1174 8.22244 13.268L8.16399 13.2123ZM8.48387 12.7103L8.40962 12.6785C8.52799 12.4024 8.60437 12.0774 8.65476 11.6997L8.73482 11.7103L8.81489 11.721C8.76341 12.1069 8.68435 12.4476 8.55811 12.7422L8.48387 12.7103ZM8.73482 11.7103L8.65474 11.6998C8.70464 11.3226 8.72681 10.8954 8.72687 10.4203L8.80764 10.4204L8.88842 10.4204C8.88835 10.9 8.86599 11.3346 8.8149 11.7209L8.73482 11.7103ZM8.80764 10.4204L8.72687 10.4204C8.72681 9.71667 8.67799 8.91045 8.59323 8.01987L8.67364 8.01221L8.75406 8.00456C8.83908 8.89803 8.88835 9.70973 8.88842 10.4203L8.80764 10.4204ZM8.67364 8.01221L8.59324 8.01992C8.58635 7.94803 8.57938 7.89174 8.57234 7.84823L8.65207 7.83533L8.73181 7.82242C8.73961 7.87059 8.74697 7.93064 8.75405 8.00451L8.67364 8.01221ZM8.65207 7.83533L8.6522 7.75455L13.8961 7.76266L13.896 7.84344L13.8959 7.92421L8.65195 7.9161L8.65207 7.83533ZM13.896 7.84344L13.9768 7.84161C13.9838 8.15131 13.9973 8.50779 14.0108 8.90224L13.9301 8.90499L13.8494 8.90775C13.8359 8.5143 13.8223 8.1562 13.8153 7.84527L13.896 7.84344ZM13.9301 8.90499L14.0108 8.90223C14.0303 9.46885 14.0495 10.1109 14.0495 10.7885H13.9688H13.888C13.888 10.1138 13.8688 9.474 13.8494 8.90776L13.9301 8.90499ZM13.9688 10.7885H14.0495C14.0495 12.0344 13.9835 13.4043 13.7369 14.6344L13.6577 14.6185L13.5785 14.6026C13.8221 13.3879 13.888 12.0302 13.888 10.7885H13.9688ZM13.6577 14.6185L13.7369 14.6344C13.6139 15.2494 13.4455 15.8304 13.2218 16.343L13.1477 16.3106L13.0737 16.2783C13.2917 15.779 13.4571 15.2097 13.5785 14.6027L13.6577 14.6185ZM13.1477 16.3106L13.2218 16.3429C12.998 16.8559 12.7188 17.3004 12.3766 17.6506L12.3188 17.5941L12.2611 17.5376C12.5864 17.2048 12.8557 16.778 13.0737 16.2783L13.1477 16.3106ZM12.3188 17.5941L12.3766 17.6505C10.6084 19.4615 9.53363 21.373 8.90031 22.9381L8.82543 22.9078L8.75056 22.8775C9.39045 21.2961 10.4759 19.366 12.261 17.5377L12.3188 17.5941ZM8.82543 22.9078L8.90031 22.9381C8.58365 23.7209 8.37729 24.417 8.24932 24.9736L8.1706 24.9555L8.09188 24.9374C8.22171 24.3727 8.43061 23.6685 8.75056 22.8775L8.82543 22.9078ZM8.1706 24.9555L8.24933 24.9735C8.18546 25.2519 8.14113 25.4951 8.11256 25.698L8.03257 25.6867L7.95259 25.6755C7.98187 25.4675 8.02709 25.2198 8.09187 24.9374L8.1706 24.9555ZM8.03257 25.6867L8.11257 25.6979C8.10231 25.7714 8.09401 25.8392 8.08765 25.9016L8.00729 25.8935L7.92694 25.8853C7.93353 25.8205 7.94208 25.7507 7.95257 25.6755L8.03257 25.6867ZM8.00729 25.8935V25.9742H6.57651V25.8935V25.8127H8.00729V25.8935ZM6.57651 25.8935L6.49591 25.8989C6.48739 25.7724 6.47254 25.6345 6.45092 25.4851L6.53086 25.4735L6.6108 25.4619C6.63294 25.6149 6.64826 25.7569 6.6571 25.888L6.57651 25.8935ZM6.53086 25.4735L6.45092 25.4851C6.38678 25.0432 6.2627 24.5028 6.0596 23.8846L6.13634 23.8594L6.21308 23.8342C6.41871 24.4601 6.54515 25.0096 6.61079 25.4619L6.53086 25.4735ZM6.13634 23.8594L6.05961 23.8846C5.45054 22.0319 4.12985 19.4845 1.58165 16.9444L1.63868 16.8872L1.6957 16.83C4.26246 19.3885 5.59634 21.9581 6.21307 23.8342L6.13634 23.8594ZM1.63868 16.8872L1.58174 16.9445C1.52578 16.8889 1.46886 16.8136 1.4145 16.7193L1.48449 16.6789L1.55448 16.6386C1.60337 16.7235 1.65197 16.7865 1.69561 16.8299L1.63868 16.8872ZM1.48449 16.6789L1.41458 16.7194C1.31239 16.5429 1.21957 16.2966 1.14434 16.0023L1.2226 15.9823L1.30086 15.9623C1.37402 16.2485 1.46229 16.4793 1.5544 16.6385L1.48449 16.6789ZM1.2226 15.9823L1.14438 16.0024C1.01162 15.487 0.928327 14.818 0.87922 14.0821L0.959814 14.0767L1.04041 14.0713C1.08927 14.8035 1.17174 15.461 1.30082 15.9621L1.2226 15.9823ZM0.959814 14.0767L0.879223 14.0821C0.804879 12.977 0.803897 11.711 0.797677 10.5262L0.87845 10.5258L0.959223 10.5254C0.965454 11.7122 0.966477 12.9723 1.04041 14.0713L0.959814 14.0767ZM0.87845 10.5258L0.797678 10.5262C0.79447 9.93312 0.789883 9.36001 0.773758 8.83358L0.854494 8.83111L0.93523 8.82863C0.951425 9.35734 0.956016 9.93231 0.959223 10.5254L0.87845 10.5258ZM0.854494 8.83111L0.773759 8.8336C0.762842 8.48031 0.746797 8.14888 0.722045 7.84567L0.802551 7.8391L0.883057 7.83253C0.908107 8.13939 0.924264 8.47374 0.935229 8.82861L0.854494 8.83111ZM0.802551 7.8391V7.75833H4.89822V7.8391V7.91988H0.802551V7.8391ZM4.89822 7.8391L4.97811 7.82715C5.00314 7.99444 5.01617 8.0746 5.02287 8.11156C5.02674 8.13291 5.0276 8.13432 5.02616 8.13016C5.02575 8.12898 5.02477 8.12625 5.02313 8.1228C5.02218 8.1208 5.01787 8.11163 5.00898 8.10229C5.00171 8.09467 4.96735 8.06389 4.91996 8.08341C4.90154 8.091 4.89074 8.1033 4.88552 8.11047C4.8801 8.1179 4.87715 8.12466 4.87568 8.12841C4.87277 8.13583 4.87171 8.14192 4.87137 8.14391C4.87091 8.14663 4.8707 8.14876 4.87061 8.14983C4.87043 8.15194 4.87041 8.1534 4.87041 8.15343L4.95116 8.15508L5.03192 8.15673C5.0319 8.15791 5.03183 8.16053 5.03157 8.16363C5.03156 8.16374 5.03095 8.17494 5.0261 8.18733C5.02458 8.19121 5.02157 8.19806 5.01611 8.20557C5.01083 8.21282 4.99997 8.22517 4.98149 8.23279C4.93396 8.25236 4.89946 8.22154 4.89202 8.21373C4.88295 8.20422 4.87846 8.19474 4.87729 8.19229C4.87544 8.1884 4.87422 8.18506 4.87354 8.18312C4.86998 8.17284 4.867 8.15739 4.86392 8.1404C4.85671 8.10067 4.84336 8.01823 4.81834 7.85106L4.89822 7.8391ZM4.95116 8.15508L4.87054 8.15019C4.87052 8.15042 4.87052 8.15052 4.87053 8.15035C4.87053 8.15024 4.87054 8.15018 4.87055 8.14997C4.87055 8.14981 4.87057 8.14954 4.87058 8.14925C4.8706 8.14883 4.87067 8.14752 4.87079 8.14597C4.87086 8.14518 4.87098 8.14379 4.8712 8.14209C4.87136 8.14078 4.87183 8.13725 4.87291 8.13287C4.87344 8.13069 4.87453 8.12664 4.87649 8.12177C4.87796 8.11814 4.88251 8.10733 4.89265 8.09659C4.90428 8.08427 4.92994 8.06621 4.96545 8.07248C4.99438 8.07759 5.01013 8.09609 5.01456 8.10164C5.02429 8.11383 5.02793 8.12606 5.0281 8.12658C5.02926 8.13003 5.02993 8.13284 5.03023 8.13411C5.03123 8.13843 5.03179 8.14254 5.03191 8.14338C5.03278 8.14951 5.03441 8.16334 5.03753 8.18974C5.04395 8.24413 5.0574 8.35813 5.08581 8.59132L5.00562 8.60109L4.92544 8.61086C4.89701 8.37742 4.88354 8.26322 4.8771 8.20868C4.87378 8.1806 4.87249 8.16978 4.87198 8.16616C4.87175 8.16456 4.87206 8.16717 4.87288 8.17069C4.87312 8.17175 4.87376 8.17441 4.87487 8.17774C4.875 8.17814 4.87862 8.1903 4.88831 8.20244C4.89273 8.20797 4.90845 8.22647 4.93737 8.23157C4.97286 8.23783 4.99852 8.21978 5.01013 8.20748C5.02026 8.19675 5.02479 8.18597 5.02625 8.18236C5.0282 8.17753 5.02927 8.17352 5.0298 8.17138C5.03085 8.16709 5.0313 8.16368 5.03145 8.16251C5.03165 8.16096 5.03175 8.15974 5.0318 8.15914C5.03186 8.15848 5.03189 8.15797 5.0319 8.15772C5.03192 8.15746 5.03193 8.15728 5.03193 8.15725C5.03197 8.15651 5.03186 8.15881 5.03179 8.15997L4.95116 8.15508ZM5.00562 8.60109L5.08581 8.59133C5.17637 9.335 5.26026 9.99881 5.35541 10.5816L5.27569 10.5947L5.19597 10.6077C5.10022 10.0212 5.01598 9.35432 4.92544 8.61086L5.00562 8.60109ZM5.27569 10.5947L5.35541 10.5817C5.42674 11.0188 5.50409 11.4091 5.59651 11.7543L5.51848 11.7752L5.44045 11.7961C5.34612 11.4437 5.26776 11.0477 5.19597 10.6077L5.27569 10.5947ZM5.51848 11.7752L5.5965 11.7543C5.66589 12.0132 5.74348 12.2459 5.83535 12.4541L5.76145 12.4867L5.68755 12.5193C5.59141 12.3014 5.5113 12.0604 5.44046 11.7961L5.51848 11.7752ZM5.76145 12.4867L5.83532 12.454C5.90438 12.61 5.98124 12.7519 6.07008 12.8791L6.00386 12.9253L5.93763 12.9716C5.8416 12.8341 5.75988 12.6827 5.68759 12.5194L5.76145 12.4867ZM6.00386 12.9253L6.07012 12.8791C6.20267 13.0693 6.36482 13.228 6.55971 13.336L6.52054 13.4067L6.48137 13.4773C6.26074 13.355 6.08122 13.1775 5.93759 12.9715L6.00386 12.9253ZM6.52054 13.4067L6.55996 13.3362C6.7538 13.4446 6.97879 13.4987 7.21308 13.498L7.2133 13.5788L7.21353 13.6596C6.95432 13.6603 6.70154 13.6004 6.48112 13.4772L6.52054 13.4067ZM7.2133 13.5788V13.498C7.31374 13.498 7.41653 13.4887 7.522 13.4708L7.5355 13.5504L7.549 13.6301C7.43564 13.6493 7.32377 13.6596 7.2133 13.6596V13.5788ZM7.5355 13.5504V13.6312H7.53462V13.5504V13.4697H7.5355V13.5504ZM7.53462 13.5504L7.52144 13.4707C7.64127 13.4509 7.75671 13.4097 7.86023 13.3501L7.90052 13.4201L7.94081 13.4901C7.82036 13.5595 7.68654 13.6072 7.5478 13.6301L7.53462 13.5504Z" fill="#5038C3" mask="url(#path-29-inside-1_368_3)"/>
<path d="M5.59192 17.1812C5.61619 17.1603 5.63817 17.1396 5.6593 17.1178L5.755 17.0064C5.78466 16.9689 5.81304 16.9299 5.84094 16.8873C5.8571 16.8618 5.87146 16.8352 5.88586 16.8072C5.85627 16.8151 5.82799 16.8255 5.8009 16.8404C5.75424 16.8669 5.71249 16.9034 5.67883 16.9459C5.66204 16.9669 5.64726 16.9894 5.63489 17.0133L5.60461 17.0885C5.59612 17.1191 5.59229 17.1498 5.59192 17.1812Z" fill="url(#paint1_linear_368_3)" stroke="#5038C3" stroke-width="0.0807739"/>
<path d="M6.08057 17.4489C5.93496 17.3185 5.81239 17.1661 5.71533 16.9968H5.71436C5.71311 16.9974 5.71186 16.9982 5.71143 16.9987H5.7124C5.83466 17.212 5.99457 17.3897 6.18018 17.5319C6.14645 17.5057 6.11288 17.4779 6.08057 17.4489ZM6.25928 17.5896C6.26716 17.595 6.27475 17.6008 6.28271 17.6062C6.27478 17.6008 6.26714 17.595 6.25928 17.5896ZM6.62354 17.7888C6.64146 17.7963 6.66007 17.8022 6.67822 17.8093C6.66004 17.8023 6.64153 17.7962 6.62354 17.7888ZM7.58936 17.9694C7.85163 17.9661 8.11281 17.927 8.36768 17.862V17.8601L8.3667 17.8581H8.36475C7.88649 17.9799 7.35771 18.0087 6.87646 17.8767C7.10534 17.9421 7.3472 17.9725 7.58936 17.9694ZM6.75439 17.8386C6.78877 17.8505 6.82386 17.8605 6.85889 17.8708C6.82381 17.8609 6.78892 17.8503 6.75439 17.8386Z" fill="url(#paint2_linear_368_3)" stroke="#5038C3" stroke-width="0.0807739"/>
<path d="M4.57446 15.807C5.59446 16.0017 6.57885 15.3328 6.77368 14.3128C6.96839 13.2928 6.29963 12.3083 5.27954 12.1136C4.25948 11.9189 3.27497 12.5877 3.08032 13.6077C2.88567 14.6277 3.55452 15.6122 4.57446 15.807Z" fill="white" stroke="#5038C3" stroke-width="0.0807739"/>
<path d="M5.26855 15.2876C5.79624 15.2875 6.22363 14.8591 6.22363 14.3315C6.22353 13.8039 5.79618 13.3765 5.26855 13.3764C4.74085 13.3764 4.3126 13.8039 4.3125 14.3315C4.3125 14.8592 4.74078 15.2876 5.26855 15.2876Z" fill="url(#paint3_linear_368_3)" stroke="#5038C3" stroke-width="0.0807739"/>
<path d="M4.83972 14.1502C4.90554 14.15 4.95886 14.096 4.95886 14.0301C4.95873 13.9643 4.90547 13.9111 4.83972 13.9109C4.77377 13.9109 4.71974 13.9642 4.7196 14.0301C4.7196 14.0961 4.77371 14.1502 4.83972 14.1502Z" fill="white" stroke="#5038C3" stroke-width="0.0807739"/>
<path d="M5.67163 14.5786C5.80773 14.5785 5.91772 14.4677 5.91772 14.3315C5.91762 14.1955 5.80766 14.0855 5.67163 14.0854C5.53548 14.0854 5.42466 14.1954 5.42456 14.3315C5.42456 14.4677 5.5354 14.5786 5.67163 14.5786Z" fill="white" stroke="#5038C3" stroke-width="0.0807739"/>
<path d="M8.14917 14.3128C8.34396 15.3327 9.32849 16.0016 10.3484 15.807C11.3683 15.6123 12.038 14.6277 11.8435 13.6077C11.6488 12.5877 10.6634 11.9189 9.64331 12.1136C8.62343 12.3084 7.95448 13.2929 8.14917 14.3128Z" fill="white" stroke="#5038C3" stroke-width="0.0807739"/>
<path d="M9.65503 15.2876C10.1827 15.2875 10.6101 14.8591 10.6101 14.3315C10.61 13.8039 10.1826 13.3765 9.65503 13.3764C9.12738 13.3764 8.69908 13.8039 8.69897 14.3315C8.69897 14.8592 9.12732 15.2876 9.65503 15.2876Z" fill="url(#paint4_linear_368_3)" stroke="#5038C3" stroke-width="0.0807739"/>
<path d="M10.0841 14.1502C10.1499 14.15 10.2032 14.096 10.2032 14.0301C10.2031 13.9643 10.1499 13.9111 10.0841 13.9109C10.0182 13.9109 9.96412 13.9642 9.96399 14.0301C9.96399 14.0961 10.0181 14.1502 10.0841 14.1502Z" fill="white" stroke="#5038C3" stroke-width="0.0807739"/>
<path d="M9.25183 14.5786C9.38792 14.5785 9.49792 14.4677 9.49792 14.3315C9.49782 14.1955 9.38784 14.0855 9.25183 14.0854C9.11575 14.0854 9.00486 14.1954 9.00476 14.3315C9.00476 14.4677 9.11567 14.5786 9.25183 14.5786Z" fill="white" stroke="#5038C3" stroke-width="0.0807739"/>
<path d="M12.9999 6.79058C12.7442 7.70235 13.0519 7.75316 13.1609 8.52118C13.3446 9.81508 11.7902 9.47992 11.988 8.39177C12.0992 7.78019 12.455 7.2354 12.2549 6.56817" fill="#FF8E63"/>
<path d="M11.2626 6.88645C11.4151 7.53953 11.2316 7.57588 11.1666 8.12596C11.0571 9.05269 11.9839 8.81255 11.866 8.03327C11.7997 7.59525 11.5875 7.20501 11.7068 6.72718" fill="#FF8E63"/>
<defs>
<linearGradient id="paint0_linear_368_3" x1="9.07686e-06" y1="16.8638" x2="14.7308" y2="16.8638" gradientUnits="userSpaceOnUse">
<stop/>
<stop offset="1"/>
</linearGradient>
<linearGradient id="paint1_linear_368_3" x1="-0.288195" y1="12.2257" x2="9.92931" y2="20.3074" gradientUnits="userSpaceOnUse">
<stop/>
<stop offset="1"/>
</linearGradient>
<linearGradient id="paint2_linear_368_3" x1="-0.0393373" y1="11.9112" x2="10.1782" y2="19.9928" gradientUnits="userSpaceOnUse">
<stop/>
<stop offset="1"/>
</linearGradient>
<linearGradient id="paint3_linear_368_3" x1="0.825621" y1="10.8176" x2="11.0431" y2="18.8993" gradientUnits="userSpaceOnUse">
<stop/>
<stop offset="1"/>
</linearGradient>
<linearGradient id="paint4_linear_368_3" x1="2.51377" y1="8.68335" x2="12.7313" y2="16.765" gradientUnits="userSpaceOnUse">
<stop/>
<stop offset="1"/>
</linearGradient>
</defs>
</svg>
