<svg width="100" height="103" viewBox="0 0 100 103" fill="none" xmlns="http://www.w3.org/2000/svg">
<path fill-rule="evenodd" clip-rule="evenodd" d="M91.0624 89.2529C91.063 90.2751 90.2109 91.148 89.1613 91.1985C61.801 92.4313 34.3996 92.4313 7.03925 91.1985C5.98965 91.148 5.13867 90.2751 5.13867 89.2529C5.13867 88.696 5.13867 88.1391 5.13867 87.5811C5.13867 86.559 5.9902 85.7272 7.04034 85.7239C34.4138 85.7239 61.7873 85.7239 89.1602 85.7239C90.2109 85.7272 91.0624 86.559 91.0624 87.5811C91.0624 88.1386 91.0624 88.696 91.0624 89.2529Z" fill="#29AEFD"/>
<path fill-rule="evenodd" clip-rule="evenodd" d="M95.6249 74.7226C95.5299 76.4624 94.1237 77.8418 92.498 77.7902C63.2124 76.8668 33.7919 76.8668 4.47506 77.7902C2.84937 77.8418 1.48813 76.4624 1.45246 74.7226C0.96909 51.1322 0.485167 27.5434 0.000694864 3.95409C-0.0355171 2.21263 1.34822 0.743305 3.07542 0.693376C34.1919 -0.231125 65.4077 -0.231125 96.4939 0.693376C98.2206 0.744402 99.555 2.21318 99.4589 3.95409C98.1816 27.5429 96.9027 51.1322 95.6249 74.7226Z" fill="#A089E4"/>
<path fill-rule="evenodd" clip-rule="evenodd" d="M95.6249 74.7226C95.5299 76.4624 94.1237 77.8418 92.498 77.7902C63.2124 76.8668 33.7919 76.8668 4.47506 77.7902C2.84937 77.8418 1.48813 76.4624 1.45246 74.7226C0.96909 51.1322 0.485167 27.5434 0.000694864 3.95409C-0.0355171 2.21263 1.34822 0.743305 3.07542 0.693376C34.1919 -0.231125 65.4077 -0.231125 96.4939 0.693376C98.2206 0.744402 99.555 2.21318 99.4589 3.95409C98.1816 27.5429 96.9027 51.1322 95.6249 74.7226Z" fill="#A089E4"/>
<path d="M63.0298 29.0638C63.1626 30.2917 61.8469 31.44 60.0917 31.6293C58.3376 31.8192 56.8068 30.9769 56.6746 29.7479C56.5429 28.5217 57.8575 27.3733 59.6127 27.1846C61.3679 26.9947 62.8976 27.8364 63.0298 29.0638Z" fill="#7BEFE5"/>
<path d="M43.6021 30.1177C43.5072 31.3489 42.0038 32.2372 40.2437 32.1006C38.4847 31.9656 37.1344 30.8579 37.2293 29.6261C37.3242 28.3955 38.8276 27.5072 40.5872 27.6443C42.3473 27.7788 43.6964 28.8865 43.6021 30.1177Z" fill="#7BEFE5"/>
<path fill-rule="evenodd" clip-rule="evenodd" d="M0.000694863 3.95414C0.485166 27.5435 0.969089 51.1322 1.45246 74.7227C1.48813 76.4625 2.84882 77.8418 4.47506 77.7903C8.4655 77.6652 12.4576 77.5576 16.4502 77.4654C16.9298 73.3812 19.1255 69.9822 18.3936 65.8486C17.7122 62.0002 15.8418 58.4882 13.4644 55.4876C11.3658 52.8397 5.41712 48.6978 8.6334 44.7244C9.83662 43.2381 11.8058 42.2296 13.3058 41.0972C15.2706 39.6147 17.254 38.1442 19.1809 36.6091C21.5144 34.7485 23.736 32.5665 25.416 30.041C31.5726 20.7318 30.1411 10.6852 29.8903 0.127197C20.9476 0.240222 12.0071 0.427317 3.07596 0.692322C1.34822 0.743348 -0.0355171 2.21268 0.000694863 3.95414Z" fill="#074785"/>
<path fill-rule="evenodd" clip-rule="evenodd" d="M96.4944 0.693359C87.4908 0.42561 78.4762 0.237965 69.4556 0.125488C68.7462 10.2912 67.2763 19.9449 72.9408 29.1823C74.5511 31.7923 76.7244 34.0775 79.0238 36.0428C80.9222 37.6641 82.8804 39.2223 84.8199 40.7931C86.3008 41.992 88.2612 43.0838 89.4271 44.6294C92.5418 48.7576 86.3419 52.7036 84.1077 55.2916C81.5773 58.2237 79.5434 61.6924 78.7039 65.5456C77.8019 69.6831 79.9022 73.194 80.2331 77.3299C81.36 77.3979 82.487 77.4714 83.6145 77.5422C86.5762 77.6168 89.5379 77.6975 92.4979 77.7913C93.9881 77.8385 95.2934 76.683 95.5732 75.1489C95.5732 75.1467 95.5738 75.1445 95.5738 75.1429C95.6945 73.075 95.8168 71.0076 95.9381 68.9386C97.1117 47.2778 98.2858 25.6165 99.4589 3.95518C99.5549 2.21317 98.2211 0.743836 96.4944 0.693359Z" fill="#074785"/>
<path d="M13.4251 17.1473C13.2501 16.9772 12.8973 14.5949 12.5775 14.6146C12.2576 14.6338 11.9789 16.9964 11.8285 17.1522C11.5284 17.4633 9.3321 17.685 9.35021 17.9873C9.36831 18.2896 11.5251 18.4328 11.8291 18.7274C11.9992 18.8915 12.3569 21.2804 12.6768 21.2617C12.9972 21.2425 13.271 18.8876 13.4262 18.7258C13.7165 18.4246 15.9293 18.1919 15.9117 17.8885C15.8941 17.5846 13.7181 17.4315 13.4251 17.1473Z" fill="#29AEFD"/>
<path d="M90.24 31.2096C90.065 31.0395 89.7122 28.6578 89.3934 28.6759C89.0725 28.6962 88.7943 31.0587 88.6445 31.214C88.3438 31.5257 86.1475 31.7473 86.1656 32.0496C86.1832 32.3519 88.3405 32.494 88.6451 32.7887C88.8151 32.9544 89.1729 35.3422 89.4927 35.3241C89.8126 35.3054 90.0864 32.9494 90.2422 32.7881C90.5319 32.4858 92.7458 32.2537 92.7271 31.9509C92.7096 31.6458 90.5336 31.4938 90.24 31.2096Z" fill="#29AEFD"/>
<path d="M78.6341 7.9078C78.4586 7.73771 78.1058 5.35597 77.7865 5.37462C77.466 5.39492 77.1873 7.75637 77.0375 7.91273C76.7374 8.22383 74.5405 8.44549 74.5592 8.74781C74.5768 9.05012 76.7341 9.19224 77.0392 9.48742C77.2093 9.65312 77.5664 12.0409 77.8863 12.0223C78.2062 12.0041 78.4805 9.64872 78.6358 9.48631C78.9266 9.18455 81.1393 8.95246 81.1212 8.6485C81.1031 8.34508 78.9271 8.1931 78.6341 7.9078Z" fill="#29AEFD"/>
<path d="M22.5321 6.91575C22.3566 6.74511 22.0043 4.3639 21.685 4.38256C21.3646 4.40286 21.0858 6.76486 20.9355 6.92013C20.6354 7.23232 18.4396 7.45289 18.4566 7.75576C18.4753 8.05807 20.6321 8.20072 20.9366 8.49535C21.1072 8.66105 21.4644 11.0494 21.7848 11.0307C22.1047 11.011 22.378 8.65556 22.5338 8.49425C22.8235 8.19358 25.0368 7.95986 25.0192 7.65645C25.0011 7.35304 22.8257 7.2005 22.5321 6.91575Z" fill="white"/>
<path d="M15.6937 29.387C15.5187 29.2158 15.1659 26.8341 14.8466 26.8533C14.5261 26.873 14.2474 29.235 14.0976 29.3903C13.7975 29.7025 11.6012 29.9242 11.6188 30.2265C11.6369 30.5288 13.7937 30.6714 14.0982 30.9661C14.2688 31.1312 14.626 33.5196 14.9459 33.5009C15.2663 33.4823 15.5395 31.1263 15.6953 30.965C15.9856 30.6632 18.1989 30.4311 18.1808 30.1272C18.1627 29.8237 15.9867 29.6712 15.6937 29.387Z" fill="white"/>
<path d="M84.8978 20.4706C84.7222 20.3011 84.37 17.9193 84.0501 17.938C83.7302 17.9577 83.451 20.3203 83.3017 20.475C83.0011 20.7877 80.8048 21.0089 80.8229 21.3112C80.8404 21.6135 82.9978 21.7561 83.3017 22.0508C83.4718 22.2154 83.8296 24.6043 84.1494 24.5851C84.4693 24.5664 84.7431 22.211 84.8989 22.0502C85.1886 21.7485 87.4019 21.5147 87.3838 21.2119C87.3668 20.909 85.1913 20.7559 84.8978 20.4706Z" fill="white"/>
<path d="M89.7162 57.8473C89.5406 57.6766 89.1884 55.2943 88.8691 55.3141C88.5487 55.3338 88.2694 57.6953 88.1196 57.8517C87.8195 58.1633 85.6232 58.385 85.6407 58.6873C85.6594 58.9896 87.8156 59.1312 88.1207 59.4269C88.2913 59.592 88.6485 61.9798 88.9684 61.9612C89.2883 61.9425 89.5615 59.5876 89.7179 59.4258C90.0076 59.124 92.2209 58.8914 92.2033 58.5874C92.1847 58.284 90.0092 58.1326 89.7162 57.8473Z" fill="white"/>
<path d="M8.90508 56.6089C8.73005 56.4388 8.37726 54.0571 8.05739 54.0763C7.73752 54.0955 7.45825 56.458 7.30901 56.6139C7.00834 56.9255 4.81203 57.1466 4.83068 57.4495C4.84824 57.7518 7.0056 57.8945 7.31011 58.1891C7.48019 58.3548 7.83792 60.742 8.15779 60.7234C8.47767 60.7047 8.75145 58.3493 8.90727 58.188C9.19751 57.8862 11.4103 57.6536 11.3927 57.3502C11.3741 57.0468 9.19861 56.8937 8.90508 56.6089Z" fill="#29AEFD"/>
<path d="M24.1613 21.2617C23.2132 21.2617 23.2132 22.7321 24.1613 22.7321C25.1094 22.7321 25.1094 21.2617 24.1613 21.2617Z" fill="white"/>
<path d="M4.83021 34.8324C3.88212 34.8324 3.88212 36.3028 4.83021 36.3028C5.77776 36.3028 5.77776 34.8324 4.83021 34.8324Z" fill="white"/>
<path d="M10.7726 5.24512C9.8245 5.24512 9.8245 6.71555 10.7726 6.71555C11.7212 6.71555 11.7212 5.24512 10.7726 5.24512Z" fill="white"/>
<path d="M88.0959 10.0607C87.1484 10.0607 87.1484 11.5311 88.0959 11.5311C89.044 11.5305 89.044 10.0607 88.0959 10.0607Z" fill="white"/>
<path d="M76.418 23.5941C75.4694 23.5941 75.4694 25.0645 76.418 25.0645C77.3661 25.064 77.3661 23.5941 76.418 23.5941Z" fill="white"/>
<path d="M92.2023 40.8979C91.2542 40.8979 91.2542 42.3684 92.2023 42.3684C93.1504 42.3684 93.1504 40.8979 92.2023 40.8979Z" fill="white"/>
<path d="M91.0626 66.2671C90.1145 66.2671 90.1145 67.7375 91.0626 67.7375C92.0107 67.7375 92.0107 66.2671 91.0626 66.2671Z" fill="white"/>
<path d="M5.96888 64.2496C5.02079 64.2496 5.02079 65.7206 5.96888 65.7206C6.91698 65.7206 6.91698 64.2496 5.96888 64.2496Z" fill="white"/>
<path fill-rule="evenodd" clip-rule="evenodd" d="M7.12154 85.7239C7.12154 85.7239 3.1717 60.296 19.9351 60.3015C37.0622 60.3075 33.0378 85.7239 33.0378 85.7239H7.12154Z" fill="#7BEFE5"/>
<path fill-rule="evenodd" clip-rule="evenodd" d="M35.1208 85.7239C35.1208 85.7239 31.1699 60.296 47.9338 60.3015C65.0615 60.3075 61.0365 85.7239 61.0365 85.7239H35.1208Z" fill="#7BEFE5"/>
<path fill-rule="evenodd" clip-rule="evenodd" d="M63.1186 85.7239C63.1186 85.7239 59.1688 60.296 75.9321 60.3015C93.0593 60.3075 89.0348 85.7239 89.0348 85.7239H63.1186Z" fill="#7BEFE5"/>
<path fill-rule="evenodd" clip-rule="evenodd" d="M17.002 85.7239H33.0383C33.0383 85.7239 34.0868 79.101 32.8353 72.6152C31.9081 72.4215 30.9013 72.3167 29.8084 72.3162C21.1191 72.3134 17.9956 79.1432 17.002 85.7239Z" fill="#29AEFD"/>
<path fill-rule="evenodd" clip-rule="evenodd" d="M35.3668 72.3359C34.062 78.909 35.1204 85.7239 35.1204 85.7239H47.6569C46.6693 79.3473 43.6363 72.737 35.3668 72.3359Z" fill="#29AEFD"/>
<path fill-rule="evenodd" clip-rule="evenodd" d="M46.3628 85.7239H61.0374C61.0374 85.7239 62.0321 79.4412 60.9271 73.1216C60.334 73.0498 59.7113 73.0125 59.0573 73.0125C50.6742 73.0103 47.4705 79.3665 46.3628 85.7239Z" fill="#29AEFD"/>
<path fill-rule="evenodd" clip-rule="evenodd" d="M65.3644 73.0125C64.6056 73.0125 63.8891 73.0651 63.2131 73.1639C62.147 79.4686 63.1182 85.7239 63.1182 85.7239H78.3382C77.203 79.3698 73.9269 73.0152 65.3644 73.0125Z" fill="#29AEFD"/>
<path fill-rule="evenodd" clip-rule="evenodd" d="M20.5043 99.1838C20.5043 99.1838 16.5545 73.7564 33.3184 73.7614C50.445 73.7674 46.4211 99.1838 46.4211 99.1838H20.5043Z" fill="#7BEFE5"/>
<path fill-rule="evenodd" clip-rule="evenodd" d="M49.7514 99.4203C49.7514 99.4203 45.8016 73.9929 62.565 73.9984C79.6926 74.0044 75.6676 99.4203 75.6676 99.4203H49.7514Z" fill="#7BEFE5"/>
<path fill-rule="evenodd" clip-rule="evenodd" d="M77.1284 100.296C77.1284 101.318 76.2966 102.19 75.2717 102.239C57.0802 103.043 38.8623 103.043 20.6707 102.239C19.6453 102.189 18.8135 101.318 18.8135 100.296C18.8135 100.125 18.8135 99.9525 18.8135 99.7813C18.8135 98.7591 19.6458 97.9268 20.6713 97.923C38.871 97.923 57.0708 97.923 75.2706 97.923C76.2966 97.9268 77.1284 98.7586 77.1284 99.7813C77.1284 99.9525 77.1284 100.125 77.1284 100.296Z" fill="#29AEFD"/>
<path fill-rule="evenodd" clip-rule="evenodd" d="M22.8139 68.7394C22.6839 65.4216 18.7609 67.2404 18.6984 70.9659C18.6062 67.2399 14.6695 65.4551 14.5658 68.7696C14.4725 71.7274 16.3621 74.1613 18.7203 76.7686C21.0576 74.1459 22.9302 71.695 22.8139 68.7394Z" fill="white"/>
<path fill-rule="evenodd" clip-rule="evenodd" d="M51.7802 68.7394C51.6497 65.4216 47.7267 67.2404 47.6647 70.9659C47.572 67.2399 43.6359 65.4551 43.5322 68.7696C43.4383 71.7274 45.3274 74.1613 47.6861 76.7686C50.024 74.1459 51.8955 71.695 51.7802 68.7394Z" fill="white"/>
<path fill-rule="evenodd" clip-rule="evenodd" d="M80.9409 68.7394C80.8103 65.4216 76.8879 67.2404 76.8253 70.9659C76.7332 67.2399 72.7965 65.4551 72.6922 68.7696C72.5995 71.7274 74.4886 74.1613 76.8467 76.7686C79.1851 74.1459 81.0561 71.695 80.9409 68.7394Z" fill="white"/>
<path fill-rule="evenodd" clip-rule="evenodd" d="M66.8369 84.0126C66.7063 80.6954 62.7833 82.5148 62.7208 86.2397C62.6292 82.5142 58.6925 80.7278 58.5888 84.0434C58.495 87.0012 60.384 89.4351 62.7427 92.0418C65.0806 89.4192 66.9521 86.9689 66.8369 84.0126Z" fill="white"/>
<path fill-rule="evenodd" clip-rule="evenodd" d="M37.8178 84.0126C37.6878 80.6954 33.7648 82.5148 33.7023 86.2397C33.6101 82.5142 29.674 80.7278 29.5697 84.0434C29.4764 87.0012 31.3655 89.4351 33.7242 92.0418C36.0621 89.4192 37.9336 86.9689 37.8178 84.0126Z" fill="white"/>
<path d="M49.0775 18.299C48.8503 22.3778 45.3597 25.4986 41.2809 25.2714C37.2033 25.0437 34.0814 21.5531 34.3102 17.4749C34.5368 13.3961 38.0279 10.2758 42.1056 10.503C46.1844 10.7301 49.3057 14.2219 49.0775 18.299Z" fill="white"/>
<path d="M47.7393 18.2255C47.5709 21.2398 44.9899 23.5486 41.9745 23.3802C38.959 23.2123 36.6508 20.6308 36.8203 17.6164C36.9882 14.6004 39.5686 12.2927 42.5851 12.4612C45.6 12.6285 47.9083 15.2095 47.7393 18.2255Z" fill="#074785"/>
<path d="M46.7324 24.9916C46.7324 24.9916 51.0635 25.3981 53.9457 24.9998C53.9457 24.9998 54.8696 34.0906 49.9887 33.8169C45.5247 33.5667 46.7324 24.9916 46.7324 24.9916Z" fill="#074785"/>
<path d="M51.7293 30.183C49.8249 30.2873 48.445 31.31 47.9556 32.8199C48.4483 33.39 49.1067 33.768 49.9889 33.8169C52.0695 33.9332 53.0927 32.3475 53.5854 30.4903C53.0768 30.2675 52.4585 30.1485 51.7293 30.183Z" fill="#FFA4AC"/>
<path d="M46.7832 15.8393C46.1934 14.9521 45.4631 14.2163 44.4662 13.8076C44.0174 13.6221 43.782 14.3359 44.227 14.5186C45.028 14.8484 45.642 15.4689 46.1149 16.1811C46.3794 16.5794 47.0509 16.2426 46.7832 15.8393Z" fill="white"/>
<path d="M43.2913 13.2896C43.176 13.2594 43.0619 13.2265 42.9461 13.1952C42.7481 13.1437 42.5385 13.2276 42.4699 13.4317C42.409 13.6155 42.5089 13.8553 42.7064 13.9074C42.8222 13.9381 42.9368 13.9716 43.052 14.0023C43.2501 14.0533 43.4602 13.9694 43.5277 13.7653C43.5892 13.5815 43.4899 13.3417 43.2913 13.2896Z" fill="white"/>
<path d="M47.2595 17.1687C47.1827 16.9789 46.9237 16.9185 46.7547 17.0063C46.5616 17.1056 46.5155 17.3207 46.5912 17.51C46.5907 17.505 46.5912 17.5029 46.5912 17.4968C46.5912 17.7015 46.7317 17.8809 46.9451 17.8935C47.1404 17.9045 47.3407 17.7437 47.3412 17.5391C47.3407 17.403 47.31 17.2927 47.2595 17.1687Z" fill="white"/>
<path d="M46.5882 17.5091C46.5899 17.5147 46.591 17.5218 46.591 17.5262C46.5915 17.5218 46.591 17.5152 46.5915 17.5108C46.5507 17.4093 46.5816 17.4838 46.5882 17.5091Z" fill="white"/>
<path d="M46.5908 17.5259C46.592 17.5845 46.5948 17.5569 46.5908 17.5259V17.5259Z" fill="white"/>
<path d="M65.1546 17.696C64.9264 21.7747 61.4357 24.8955 57.3581 24.6684C53.2793 24.4401 50.159 20.9501 50.3862 16.8713C50.6139 12.7931 54.1045 9.67171 58.1822 9.8994C62.2598 10.1276 65.3817 13.6177 65.1546 17.696Z" fill="white"/>
<path d="M62.7477 17.6998C62.5787 20.7141 59.9978 23.0229 56.9817 22.8545C53.9668 22.6866 51.6586 20.1051 51.827 17.0896C51.996 14.0747 54.5764 11.7665 57.5919 11.9344C60.6079 12.1023 62.9156 14.6837 62.7477 17.6998Z" fill="#074785"/>
<path d="M61.7903 15.3137C61.201 14.4265 60.4708 13.6907 59.4733 13.2814C59.0245 13.0965 58.7891 13.8109 59.233 13.993C60.0351 14.3228 60.648 14.9433 61.1209 15.6549C61.387 16.0533 62.0586 15.7164 61.7903 15.3137Z" fill="white"/>
<path d="M58.299 12.764C58.1843 12.7339 58.0691 12.6998 57.9539 12.6697C57.7558 12.617 57.5462 12.702 57.4782 12.9061C57.4162 13.0899 57.5166 13.3297 57.7136 13.3818C57.8299 13.4115 57.9435 13.446 58.0592 13.4762C58.2573 13.5278 58.4669 13.4433 58.5349 13.2397C58.5964 13.0565 58.4976 12.8162 58.299 12.764Z" fill="white"/>
<path d="M62.2677 16.643C62.1909 16.4532 61.9325 16.3928 61.7619 16.4801C61.5687 16.5794 61.5226 16.7944 61.5989 16.9843C61.5984 16.9793 61.5984 16.9772 61.5984 16.9706C61.5989 17.1758 61.7399 17.3552 61.9522 17.3673C62.1481 17.3788 62.3484 17.218 62.3484 17.0128C62.3484 16.8773 62.3177 16.7676 62.2677 16.643Z" fill="white"/>
<path d="M61.5959 16.9835C61.5981 16.9885 61.5987 16.9945 61.5998 17.0011C61.5992 16.9962 61.5987 16.9901 61.5992 16.9846C61.5579 16.8842 61.5888 16.9587 61.5959 16.9835Z" fill="white"/>
<path d="M61.5991 17.0007C61.5991 17.0594 61.602 17.03 61.5991 17.0007V17.0007Z" fill="white"/>
<path d="M35.9699 52.7233C35.925 53.1101 35.8613 53.4903 35.7807 53.8618C35.6978 54.2343 35.5979 54.5657 35.4783 54.8565C35.3593 55.1467 35.2068 55.3777 35.0197 55.5489C34.8342 55.7206 34.6219 55.8057 34.3837 55.8057C34.1451 55.8057 33.9289 55.6235 33.7358 55.2581C33.5421 54.8938 33.3594 54.4099 33.1877 53.8063C33.017 53.2039 32.8601 52.5225 32.7191 51.7626C32.577 51.0027 32.4508 50.2323 32.3394 49.4505C32.228 48.6681 32.1348 47.9049 32.0602 47.1598C31.9861 46.4153 31.9263 45.7678 31.8818 45.2164C31.7924 45.7827 31.6876 46.4153 31.5685 47.1154C31.4495 47.816 31.3079 48.5271 31.1444 49.2491C30.9804 49.9717 30.801 50.6789 30.6084 51.3714C30.4142 52.0638 30.2062 52.6821 29.9829 53.2258C29.7591 53.7696 29.5209 54.2052 29.2674 54.5333C29.0145 54.8603 28.7457 55.0244 28.4631 55.0244C28.2096 55.0244 27.9561 54.8526 27.7043 54.5097C27.4503 54.1679 27.2039 53.718 26.9663 53.1589C26.7282 52.6004 26.5049 51.9787 26.2964 51.2929C26.0874 50.6082 25.8942 49.919 25.7154 49.2272C25.5376 48.5337 25.3807 47.8791 25.2463 47.2608C25.1124 46.643 25.0082 46.125 24.9335 45.708C24.9335 46.0208 24.9297 46.3664 24.9226 46.7467C24.9149 47.1263 24.911 47.399 24.911 47.5614C24.911 47.6371 24.9072 47.8824 24.8995 48.2994C24.8924 48.7164 24.8661 49.2151 24.8216 49.7956C24.7772 50.3772 24.7091 50.9988 24.6202 51.6611C24.5303 52.3238 24.4002 52.9383 24.2291 53.504C24.0584 54.0702 23.8455 54.5465 23.5926 54.9344C23.3391 55.3212 23.0264 55.5297 22.6544 55.5599C22.3559 55.426 22.1068 55.1988 21.9055 54.8784C21.7046 54.558 21.5367 54.1827 21.4029 53.7504C21.2685 53.3186 21.1642 52.8566 21.0901 52.365C21.015 51.8734 20.9557 51.3933 20.9107 50.9242C20.8668 50.4556 20.8405 50.02 20.8328 49.6167C20.8251 49.2151 20.8213 48.8876 20.8213 48.6341C20.8213 48.1875 20.8476 47.6251 20.8997 46.9475C20.9519 46.2704 21.0375 45.5593 21.1571 44.8143C21.2756 44.0703 21.432 43.3246 21.6262 42.5801C21.8199 41.8355 22.0541 41.1689 22.3296 40.5791C22.605 39.9926 22.9249 39.512 23.2903 39.1389C23.6551 38.7669 24.0754 38.5803 24.5528 38.5803C24.7761 38.5803 25.0136 38.7065 25.2677 38.96C25.5206 39.2135 25.773 39.5449 26.027 39.9536C26.28 40.364 26.5263 40.8222 26.7639 41.328C27.0026 41.835 27.2292 42.3447 27.4459 42.8577C27.661 43.3713 27.8508 43.8634 28.0154 44.3325C28.1789 44.8022 28.3128 45.2005 28.4176 45.5286C28.5366 45.1709 28.6853 44.7539 28.8636 44.2777C29.0425 43.8014 29.24 43.306 29.4556 42.7924C29.6713 42.2783 29.9105 41.7724 30.1711 41.2726C30.4312 40.7744 30.7028 40.3267 30.9859 39.9322C31.269 39.5372 31.5554 39.2168 31.8462 38.9715C32.1359 38.7257 32.43 38.6034 32.7279 38.6034C33.2497 38.6034 33.6957 38.7965 34.0683 39.1839C34.4403 39.5712 34.7536 40.0743 35.0059 40.6916C35.2594 41.3105 35.4608 42.0029 35.61 42.7694C35.7587 43.5364 35.8745 44.2963 35.9557 45.0485C36.0374 45.8008 36.0901 46.5041 36.1126 47.1593C36.1345 47.8155 36.1455 48.3433 36.1455 48.746C36.1455 48.91 36.1455 49.1334 36.1455 49.4159C36.1455 49.6996 36.1422 50.0194 36.134 50.3772C36.1269 50.7343 36.1088 51.114 36.0786 51.5162C36.0517 51.9178 36.0144 52.3194 35.9699 52.7233Z" fill="#F9D555"/>
<path d="M42.8508 55.8951C41.9427 55.8951 41.1532 55.668 40.4833 55.2131C39.8128 54.7599 39.2581 54.1487 38.8192 53.3817C38.3797 52.6141 38.0522 51.7247 37.836 50.7124C37.6198 49.6991 37.5117 48.6341 37.5117 47.5176C37.5117 46.4756 37.6269 45.4173 37.8574 44.3446C38.0884 43.2731 38.4423 42.3047 38.919 41.4405C39.3953 40.5775 39.9988 39.8692 40.7291 39.3188C41.4583 38.7674 42.3296 38.4915 43.3424 38.4915C44.3256 38.4915 45.1486 38.7559 45.8119 39.2843C46.4736 39.8132 47.0031 40.4985 47.3981 41.3396C47.7915 42.1818 48.0757 43.1233 48.2469 44.1663C48.4175 45.2082 48.5037 46.2512 48.5037 47.2926C48.5037 48.4552 48.3885 49.5537 48.158 50.5884C47.927 51.6243 47.5775 52.5367 47.1079 53.3252C46.6382 54.1147 46.0495 54.7407 45.3428 55.2022C44.6345 55.6636 43.8038 55.8951 42.8508 55.8951ZM43.1185 43.4278C42.8354 43.4278 42.5929 43.5397 42.3921 43.763C42.1913 43.9863 42.0234 44.281 41.8901 44.6458C41.7556 45.0107 41.6591 45.42 41.5987 45.8738C41.5395 46.3292 41.5093 46.7867 41.5093 47.2482C41.5093 47.7699 41.5433 48.2912 41.6103 48.813C41.6772 49.3336 41.7776 49.8033 41.9115 50.2192C42.0459 50.6367 42.2138 50.972 42.414 51.2249C42.6154 51.4789 42.8579 51.6046 43.141 51.6046C43.468 51.6046 43.7286 51.4405 43.9229 51.1124C44.1166 50.7854 44.2691 50.3904 44.3805 49.9289C44.4918 49.4675 44.5665 48.9902 44.6032 48.4997C44.6411 48.0075 44.6597 47.5977 44.6597 47.2707C44.6597 46.8685 44.6339 46.4438 44.5813 45.9972C44.5286 45.5506 44.4436 45.1369 44.3245 44.7578C44.2049 44.3776 44.0485 44.061 43.8548 43.808C43.6628 43.5551 43.4165 43.4278 43.1185 43.4278Z" fill="white"/>
<path d="M60.523 40.3674C60.523 40.9045 60.4561 41.5037 60.3217 42.1665C60.1878 42.8292 60.0199 43.5035 59.8185 44.1883C59.6177 44.8736 59.401 45.5397 59.1706 46.1882C58.9401 46.8356 58.7355 47.4205 58.5566 47.9423C58.4375 48.2698 58.3064 48.6758 58.1654 49.1592C58.0238 49.6437 57.8603 50.1539 57.6743 50.6894C57.4878 51.226 57.2831 51.7621 57.0593 52.2981C56.8365 52.8342 56.5907 53.3153 56.3219 53.7395C56.0536 54.1636 55.7595 54.5092 55.4402 54.7781C55.1192 55.0464 54.7725 55.1808 54.4005 55.1808C54.0877 55.1808 53.7859 55.0393 53.4963 54.7567C53.2049 54.473 52.9295 54.1115 52.6689 53.6725C52.4083 53.233 52.163 52.742 51.9315 52.1977C51.7005 51.654 51.4925 51.1212 51.3065 50.6C51.12 50.0788 50.9636 49.5948 50.8363 49.1477C50.7101 48.7016 50.6169 48.3587 50.5576 48.12C50.2597 46.9585 49.9766 45.786 49.7088 44.6014C49.4405 43.4174 49.3066 42.2301 49.3066 41.0384C49.3066 40.7399 49.3215 40.4316 49.3516 40.1117C49.3807 39.7913 49.4553 39.4972 49.5749 39.2294C49.6934 38.9611 49.8613 38.7411 50.0781 38.5705C50.2926 38.3999 50.5944 38.3137 50.9823 38.3137C51.3093 38.3137 51.611 38.4959 51.887 38.8613C52.1624 39.2256 52.4121 39.698 52.6354 40.2796C52.8587 40.8601 53.0634 41.5075 53.2499 42.223C53.4365 42.9379 53.6109 43.6413 53.7744 44.3337C53.9385 45.0267 54.0954 45.6741 54.2441 46.2782C54.3922 46.8806 54.5415 47.3612 54.6902 47.719C54.7801 47.421 54.9096 46.9854 55.0814 46.4115C55.252 45.8381 55.4533 45.2093 55.6849 44.5241C55.9153 43.8393 56.1683 43.1354 56.4442 42.4128C56.7197 41.6908 57.0094 41.0357 57.3155 40.4469C57.6206 39.8588 57.9366 39.3776 58.2647 39.0056C58.5923 38.6342 58.9269 38.4465 59.2699 38.4465C59.5233 38.4465 59.7318 38.5069 59.8959 38.6254C60.0594 38.7455 60.1867 38.9019 60.2756 39.0945C60.365 39.2887 60.4281 39.4967 60.4649 39.7205C60.5038 39.9438 60.523 40.1594 60.523 40.3674Z" fill="#FFA4AC"/>
<path d="M68.5883 39.9882C68.5883 40.2713 68.5241 40.5248 68.3979 40.7481C68.2707 40.9714 68.1033 41.1612 67.8948 41.3182C67.6858 41.4734 67.4553 41.604 67.2019 41.7088C66.9484 41.8125 66.7026 41.8866 66.4644 41.9316C66.4348 43.6143 66.3717 45.2384 66.2752 46.8021C66.1786 48.3663 66.0255 49.9821 65.817 51.6495H65.9514C66.1896 51.6495 66.4244 51.6764 66.6554 51.7285C66.8858 51.7818 67.0943 51.8701 67.2809 51.9969C67.4669 52.123 67.6155 52.2794 67.7269 52.466C67.8389 52.6519 67.8948 52.8785 67.8948 53.1468C67.8948 53.4903 67.7867 53.7871 67.5706 54.0401C67.3544 54.2936 67.0713 54.5086 66.7218 54.6886C66.3717 54.8675 65.9805 55.0161 65.5493 55.1358C65.1169 55.2554 64.6846 55.3481 64.2533 55.415C63.821 55.4825 63.4117 55.5303 63.0249 55.5604C62.6375 55.5901 62.3242 55.6054 62.0866 55.6054C61.9083 55.6054 61.6878 55.5966 61.4277 55.5824C61.1676 55.5676 60.9213 55.5231 60.6903 55.4491C60.4599 55.3739 60.2623 55.2625 60.0983 55.1138C59.9348 54.9651 59.853 54.7643 59.853 54.5097C59.853 54.1981 59.9167 53.9183 60.0429 53.673C60.1691 53.4278 60.3364 53.2077 60.546 53.0146C60.7539 52.8209 60.9888 52.664 61.2494 52.5444C61.51 52.4259 61.7739 52.3359 62.0422 52.2778C62.1465 51.4581 62.2436 50.6427 62.333 49.8307C62.423 49.0192 62.4817 48.1968 62.5119 47.3617C62.5415 46.5129 62.5711 45.6751 62.6018 44.8483C62.6309 44.022 62.6606 43.1924 62.6907 42.3573C62.5865 42.3733 62.4894 42.3837 62.4005 42.3908C62.3111 42.3985 62.2293 42.4023 62.1547 42.4023C61.9456 42.4023 61.7223 42.3798 61.4853 42.3359C61.2461 42.291 61.0228 42.2119 60.8143 42.1011C60.6052 41.9892 60.4308 41.852 60.2887 41.6869C60.1477 41.5234 60.0769 41.3149 60.0769 41.0614C60.0769 40.5555 60.2887 40.138 60.7139 39.811C61.138 39.4834 61.6444 39.23 62.2326 39.0511C62.8208 38.8717 63.4205 38.7493 64.0311 38.6824C64.6412 38.6144 65.1334 38.5814 65.5059 38.5814C65.7144 38.5814 65.9893 38.5968 66.3328 38.6259C66.6751 38.656 67.0148 38.723 67.3494 38.8272C67.6847 38.9309 67.9749 39.0725 68.2202 39.2513C68.4643 39.4291 68.5883 39.6749 68.5883 39.9882Z" fill="white"/>
<path d="M78.6409 51.6496C78.6409 51.9338 78.5663 52.2087 78.4176 52.477C78.2684 52.7305 77.9183 53.0278 77.3675 53.3702C76.8166 53.7131 76.2054 54.0374 75.5355 54.3424C74.8656 54.648 74.217 54.9081 73.5921 55.1243C72.9666 55.3399 72.5046 55.4485 72.2067 55.4485C71.9988 55.4485 71.753 55.3997 71.4693 55.3026C71.1868 55.206 70.9042 55.0831 70.6211 54.9345C70.338 54.7852 70.0806 54.614 69.8502 54.4203C69.6192 54.2267 69.4513 54.0401 69.3471 53.8618C69.2878 53.7576 69.2319 53.5491 69.1803 53.2363C69.1276 52.9236 69.0826 52.5582 69.0459 52.1412C69.008 51.7248 68.9751 51.2814 68.9455 50.8118C68.9142 50.3432 68.8895 49.896 68.867 49.4719C68.844 49.0473 68.8291 48.6714 68.822 48.3433C68.8149 48.0158 68.811 47.7777 68.811 47.6284C68.811 47.077 68.8291 46.4444 68.867 45.7289C68.9038 45.0146 68.9751 44.2964 69.0793 43.5738C69.183 42.8506 69.3361 42.1582 69.5369 41.496C69.7388 40.8332 70.0099 40.2708 70.3528 39.8094C70.457 39.675 70.6661 39.5334 70.9783 39.3847C71.291 39.236 71.6603 39.0945 72.0844 38.9606C72.509 38.8267 72.9666 38.7 73.4588 38.5809C73.9498 38.4618 74.4222 38.362 74.8771 38.2792C75.3314 38.1974 75.7445 38.131 76.1165 38.0783C76.4891 38.0262 76.7722 37.9999 76.9659 37.9999C77.1886 37.9999 77.4009 38.0487 77.6023 38.1453C77.8037 38.2424 77.9743 38.3724 78.1164 38.5365C78.2585 38.7005 78.3693 38.8821 78.4511 39.084C78.5334 39.2843 78.5745 39.4972 78.5745 39.7205C78.5745 39.9142 78.5482 40.0777 78.4961 40.2116C78.4434 40.3465 78.366 40.4952 78.2607 40.6582C78.112 40.8518 77.7998 41.0834 77.323 41.3511C76.8468 41.6189 76.3289 41.8839 75.7703 42.144C75.2118 42.4046 74.6757 42.6388 74.1622 42.8484C73.6486 43.0564 73.2865 43.2051 73.0786 43.295C73.0188 43.6369 72.9557 43.9836 72.8887 44.3331C72.8212 44.6843 72.7724 45.0376 72.7433 45.3948C73.2048 45.1567 73.726 44.9328 74.307 44.7249C74.8875 44.5158 75.4389 44.4121 75.9601 44.4121C77.0174 44.4121 77.5463 44.9328 77.5463 45.9764C77.5463 46.2299 77.4975 46.4526 77.4009 46.6469C77.3038 46.8411 77.1776 47.0117 77.0218 47.1604C76.8649 47.3096 76.6866 47.4402 76.4852 47.5516C76.2839 47.663 76.0869 47.7716 75.8938 47.8753C75.4164 48.1288 74.9177 48.3483 74.3965 48.5343C73.8752 48.7214 73.3545 48.9035 72.8328 49.0818C72.8026 49.2014 72.773 49.3309 72.7433 49.473C72.7131 49.6146 72.6983 49.7528 72.6983 49.8862C72.6983 50.0947 72.7131 50.3037 72.7433 50.5122C72.7724 50.7207 72.8026 50.9292 72.8328 51.1377C73.0116 51.0795 73.298 50.9819 73.6925 50.8474C74.0876 50.7141 74.5007 50.5791 74.9325 50.4458C75.3643 50.3114 75.7818 50.1962 76.184 50.0985C76.5856 50.0025 76.8836 49.9537 77.0772 49.9537C77.3005 49.9537 77.5085 50.0025 77.7027 50.0985C77.8958 50.1962 78.0599 50.3218 78.1943 50.4787C78.3287 50.6351 78.4357 50.8173 78.518 51.0252C78.5992 51.2332 78.6409 51.4416 78.6409 51.6496Z" fill="#F9D555"/>
<path d="M5.65629 47.076C5.95915 47.0853 6.25488 47.0672 6.54183 47.0496C6.95772 47.026 7.35002 46.9789 7.70775 46.9218C7.73134 46.603 7.79828 46.2832 7.91459 45.9638C7.74506 45.9304 7.57003 45.8969 7.38403 45.8667C7.12671 45.8283 6.85787 45.78 6.57914 45.7471C6.30152 45.712 6.01237 45.6829 5.72322 45.6511C5.43353 45.6176 5.1378 45.5995 4.84317 45.5781C4.54963 45.5529 4.25664 45.5276 3.96695 45.5156C3.6778 45.5002 3.39304 45.4837 3.11706 45.4689C2.84328 45.4508 2.56675 45.4607 2.31985 45.442C2.06966 45.4305 1.82935 45.4256 1.60494 45.4256C1.38054 45.4322 1.1682 45.4256 0.977815 45.419C0.934471 45.4174 0.892224 45.4174 0.851074 45.4174C0.854915 45.6039 0.858755 45.7904 0.862596 45.9775C0.939958 46.0203 1.01952 46.0642 1.10511 46.1114C1.20057 46.1597 1.30647 46.2003 1.41455 46.2486C1.63292 46.3402 1.87379 46.4329 2.13221 46.5257C2.39173 46.6222 2.66112 46.682 2.94588 46.7539C3.22954 46.8225 3.52472 46.8944 3.82539 46.93C4.12606 46.9756 4.43331 47.0079 4.74056 47.0414C5.04782 47.0568 5.35397 47.0738 5.65629 47.076Z" fill="#29AEFD"/>
<path d="M96.2222 45.8216C95.8809 45.8688 95.5276 45.9253 95.1726 45.9791C94.8165 46.0312 94.4577 46.1009 94.0978 46.1673C93.74 46.2293 93.3818 46.2897 93.0301 46.3648C92.6784 46.4356 92.3333 46.5042 91.9986 46.5711C91.6655 46.6342 91.3352 46.7275 91.0335 46.7829C90.7718 46.8372 90.5227 46.8937 90.2851 46.9524C90.2895 47.2734 90.25 47.5916 90.1748 47.906C90.4393 47.9334 90.7262 47.9576 91.0318 47.9752C91.3649 47.9982 91.7012 47.9795 92.0589 47.9691C92.4145 47.9565 92.7837 47.9428 93.1541 47.889C93.5255 47.8473 93.9013 47.7881 94.2783 47.7321C94.6503 47.6542 95.0228 47.5796 95.3871 47.4901C95.7536 47.41 96.1064 47.3019 96.4472 47.1971C96.6825 47.1264 96.9097 47.0512 97.1291 46.9738C97.1522 46.5525 97.1747 46.13 97.1977 45.7075C96.8844 45.7437 96.5585 45.7739 96.2222 45.8216Z" fill="#29AEFD"/>
<path fill-rule="evenodd" clip-rule="evenodd" d="M94.678 6.10704C95.1428 9.0221 95.1576 11.9701 94.9836 14.9115C94.9546 15.4141 95.2026 15.8854 95.7403 15.977C96.1962 16.0549 96.7772 15.724 96.8063 15.2204C96.9901 12.1149 97.0088 9.00071 96.5183 5.92105C96.3312 4.74965 94.4898 4.92577 94.678 6.10704Z" fill="#29AEFD"/>
<path fill-rule="evenodd" clip-rule="evenodd" d="M95.3744 18.8729C96.5496 19.0731 96.8591 17.2505 95.6838 17.0502C94.5086 16.851 94.1986 18.6743 95.3744 18.8729Z" fill="#29AEFD"/>
<path fill-rule="evenodd" clip-rule="evenodd" d="M4.64945 19.4446C4.44535 16.4999 4.69225 13.5618 5.12679 10.6489C5.20031 10.1507 4.99457 9.6586 4.4673 9.51924C4.02014 9.40182 3.41221 9.6789 3.33815 10.1787C2.88001 13.2551 2.58428 16.3556 2.7999 19.4665C2.88166 20.65 4.73175 20.6379 4.64945 19.4446Z" fill="#29AEFD"/>
<path fill-rule="evenodd" clip-rule="evenodd" d="M5.08964 6.66721C3.9369 6.3638 3.46669 8.1519 4.61999 8.45531C5.77274 8.75818 6.24349 6.97008 5.08964 6.66721Z" fill="#29AEFD"/>
<path fill-rule="evenodd" clip-rule="evenodd" d="M43.7649 82.3968C43.0752 80.6411 42.2045 78.5737 40.4641 77.6207C39.217 76.9376 38.1043 78.842 39.3514 79.5251C40.5486 80.1802 41.1642 81.7757 41.6383 82.9828C41.8578 83.5424 42.3686 83.9254 42.9946 83.7537C43.5273 83.6061 43.9844 82.9565 43.7649 82.3968Z" fill="white"/>
<path fill-rule="evenodd" clip-rule="evenodd" d="M43.7301 84.6737C42.3074 84.6737 42.3074 86.8799 43.7301 86.8799C45.1517 86.8794 45.1517 84.6737 43.7301 84.6737Z" fill="white"/>
<path fill-rule="evenodd" clip-rule="evenodd" d="M71.5146 80.2213C70.6351 78.7915 69.6475 77.5482 68.2522 76.5914C67.0753 75.7848 65.9736 77.698 67.139 78.4963C68.2111 79.231 68.9375 80.2416 69.6096 81.3351C70.3536 82.5433 72.2613 81.4372 71.5146 80.2213Z" fill="white"/>
<path fill-rule="evenodd" clip-rule="evenodd" d="M72.0329 82.9834C70.6108 82.9834 70.6108 85.1896 72.0329 85.1896C73.4545 85.189 73.4545 82.9834 72.0329 82.9834Z" fill="white"/>
<path d="M64.0126 7.58191C62.276 6.66674 60.4067 6.18721 58.4606 5.98585C57.5169 5.88709 57.3995 7.35367 58.3432 7.45133C60.0122 7.62471 61.678 8.00055 63.172 8.78899C63.9988 9.22463 64.8493 8.02359 64.0126 7.58191Z" fill="#074785"/>
<path d="M43.1334 6.15484C41.1703 6.13893 39.29 6.57182 37.4685 7.28673C36.5851 7.63294 37.1541 8.9887 38.038 8.64304C39.5995 8.02963 41.2515 7.59893 42.9409 7.61155C43.8758 7.61923 44.0793 6.16143 43.1334 6.15484Z" fill="#074785"/>
</svg>
