<svg width="393" height="393" viewBox="0 0 393 393" fill="none" xmlns="http://www.w3.org/2000/svg">
<path d="M263.059 122.366C248.398 125.273 235.636 133.934 222.909 141.76C210.182 149.586 196.189 156.884 181.243 156.548C170.63 156.309 161.361 146.097 150.878 144.494C133.973 141.948 125.182 143.81 112.414 155.178C97.2307 168.69 94.3526 229.165 113.249 257.48C124.837 274.83 149.082 287.937 169.767 285.258C190.453 282.578 204.89 258.474 219.106 243.209C229.354 232.216 237.663 219.111 250.079 210.651C261.078 203.158 274.584 199.857 285.304 191.962C299.564 181.46 308.903 160.474 304.544 142.766C300.25 125.395 278.997 119.198 263.059 122.366Z" fill="#E3DFF1"/>
<path d="M196.588 337.644C275.149 337.644 338.836 333.926 338.836 329.339C338.836 324.753 275.149 321.034 196.588 321.034C118.026 321.034 54.3394 324.753 54.3394 329.339C54.3394 333.926 118.026 337.644 196.588 337.644Z" fill="#F5F5F5"/>
<path d="M329.044 160.608C335.808 153.543 335.042 141.832 327.332 134.452C319.623 127.072 307.89 126.817 301.126 133.882C294.362 140.948 295.129 152.658 302.838 160.039C310.548 167.419 322.281 167.674 329.044 160.608Z" fill="#6348EC"/>
<g opacity="0.8">
<path d="M329.044 160.608C335.808 153.543 335.042 141.832 327.332 134.452C319.623 127.072 307.89 126.817 301.126 133.882C294.362 140.948 295.129 152.658 302.838 160.039C310.548 167.419 322.281 167.674 329.044 160.608Z" fill="white"/>
</g>
<path d="M306.463 135.638C306.309 135.638 306.159 135.589 306.034 135.499C305.909 135.409 305.815 135.282 305.767 135.136C305.718 134.99 305.716 134.832 305.762 134.685C305.808 134.538 305.899 134.409 306.022 134.317C308.493 132.544 311.471 131.618 314.511 131.676C314.705 131.676 314.892 131.753 315.03 131.891C315.167 132.028 315.245 132.215 315.245 132.41C315.245 132.604 315.167 132.791 315.03 132.928C314.892 133.066 314.705 133.143 314.511 133.143C311.788 133.083 309.119 133.907 306.903 135.491C306.776 135.586 306.621 135.638 306.463 135.638Z" fill="#6348EC"/>
<path d="M309.932 160.875C309.812 160.875 309.693 160.845 309.587 160.787C307.339 159.585 305.388 157.895 303.877 155.841C302.367 153.787 301.335 151.421 300.857 148.917C300.391 146.75 300.412 144.507 300.92 142.35C301.427 140.193 302.408 138.176 303.791 136.445C303.916 136.295 304.095 136.201 304.289 136.183C304.483 136.165 304.676 136.225 304.826 136.349C304.976 136.474 305.07 136.653 305.088 136.847C305.106 137.041 305.046 137.234 304.921 137.384C303.672 138.951 302.787 140.777 302.331 142.728C301.876 144.68 301.861 146.709 302.287 148.667C302.727 150.957 303.672 153.12 305.052 154.998C306.433 156.876 308.216 158.423 310.27 159.526C310.413 159.603 310.527 159.726 310.592 159.875C310.658 160.024 310.672 160.191 310.633 160.349C310.593 160.507 310.502 160.648 310.374 160.748C310.246 160.849 310.088 160.904 309.925 160.905L309.932 160.875Z" fill="#6348EC"/>
<path d="M317.276 162.79C315.634 162.783 314.003 162.521 312.441 162.013C312.349 161.983 312.264 161.935 312.191 161.872C312.117 161.809 312.056 161.733 312.013 161.647C311.969 161.56 311.942 161.466 311.934 161.37C311.927 161.274 311.938 161.177 311.968 161.085C311.998 160.993 312.046 160.907 312.108 160.834C312.171 160.76 312.248 160.7 312.334 160.656C312.42 160.612 312.514 160.585 312.611 160.578C312.707 160.57 312.804 160.581 312.896 160.611C317.408 162.079 321.913 161.257 325.251 158.41C326.944 156.916 328.224 155.01 328.967 152.877C329.71 150.743 329.89 148.455 329.491 146.232C329.46 146.037 329.508 145.838 329.623 145.679C329.739 145.519 329.913 145.412 330.108 145.381C330.302 145.35 330.501 145.397 330.661 145.513C330.82 145.628 330.928 145.802 330.959 145.997C331.404 148.467 331.201 151.011 330.372 153.38C329.543 155.75 328.115 157.864 326.227 159.518C323.739 161.658 320.558 162.821 317.276 162.79Z" fill="#6348EC"/>
<path d="M329.617 144.353C329.461 144.353 329.31 144.303 329.184 144.21C329.059 144.118 328.966 143.988 328.92 143.84C328.245 141.757 327.14 139.838 325.676 138.209C324.213 136.58 322.423 135.276 320.424 134.383C320.245 134.305 320.104 134.16 320.033 133.978C319.961 133.796 319.965 133.594 320.042 133.415C320.12 133.236 320.266 133.095 320.448 133.023C320.629 132.952 320.832 132.955 321.011 133.033C323.201 134.012 325.16 135.44 326.763 137.225C328.365 139.009 329.575 141.11 330.314 143.392C330.374 143.577 330.358 143.778 330.27 143.952C330.182 144.125 330.029 144.256 329.844 144.317C329.77 144.339 329.694 144.351 329.617 144.353Z" fill="#6348EC"/>
<path d="M318.054 133.554C317.998 133.562 317.941 133.562 317.885 133.554C316.781 133.297 315.651 133.166 314.517 133.165C314.323 133.165 314.136 133.088 313.999 132.95C313.861 132.813 313.784 132.626 313.784 132.432C313.784 132.237 313.861 132.05 313.999 131.913C314.136 131.775 314.323 131.698 314.517 131.698C315.753 131.702 316.983 131.847 318.186 132.131C318.38 132.153 318.558 132.252 318.68 132.405C318.801 132.559 318.857 132.754 318.835 132.949C318.813 133.143 318.714 133.321 318.56 133.443C318.407 133.565 318.211 133.62 318.017 133.598L318.054 133.554Z" fill="#6348EC"/>
<path d="M305.112 151.081C304.962 151.082 304.816 151.036 304.692 150.951C304.569 150.866 304.475 150.745 304.422 150.604C303.735 148.829 303.493 146.912 303.718 145.022C303.943 143.131 304.628 141.325 305.714 139.761C306.74 138.279 308.114 137.072 309.715 136.246C311.317 135.419 313.097 134.999 314.899 135.021C315.094 135.021 315.28 135.099 315.418 135.236C315.555 135.374 315.633 135.561 315.633 135.755C315.633 135.95 315.555 136.136 315.418 136.274C315.28 136.411 315.094 136.489 314.899 136.489C313.333 136.47 311.787 136.835 310.394 137.551C309.002 138.267 307.805 139.313 306.909 140.597C305.958 141.975 305.359 143.565 305.166 145.228C304.973 146.891 305.191 148.576 305.802 150.135C305.868 150.317 305.86 150.518 305.779 150.693C305.698 150.869 305.55 151.006 305.369 151.074C305.284 151.09 305.197 151.093 305.112 151.081Z" fill="#6348EC"/>
<path d="M316.748 159.459C314.549 159.386 312.4 158.783 310.485 157.701C308.569 156.619 306.942 155.09 305.743 153.245C305.654 153.083 305.63 152.894 305.675 152.714C305.72 152.535 305.831 152.379 305.985 152.278C306.14 152.177 306.328 152.138 306.51 152.169C306.692 152.2 306.856 152.299 306.969 152.446C308.034 154.087 309.479 155.448 311.181 156.413C312.883 157.379 314.793 157.92 316.748 157.992C316.943 157.992 317.129 158.069 317.267 158.207C317.405 158.345 317.482 158.531 317.482 158.726C317.482 158.92 317.405 159.107 317.267 159.245C317.129 159.382 316.943 159.459 316.748 159.459Z" fill="#6348EC"/>
<path d="M319.492 159.144C319.324 159.149 319.16 159.096 319.027 158.995C318.893 158.893 318.798 158.749 318.758 158.586C318.712 158.398 318.742 158.198 318.842 158.032C318.943 157.865 319.105 157.745 319.294 157.699C325.244 156.231 326.784 151.015 326.293 147.009C325.655 141.786 321.531 136.496 314.877 136.489C314.683 136.489 314.496 136.411 314.358 136.274C314.221 136.136 314.144 135.95 314.144 135.755C314.144 135.56 314.221 135.374 314.358 135.236C314.496 135.099 314.683 135.021 314.877 135.021C322.382 135.021 327.034 140.964 327.753 146.833C328.487 152.886 325.31 157.713 319.646 159.122C319.596 159.135 319.544 159.142 319.492 159.144Z" fill="#6348EC"/>
<path d="M311.899 140.539C311.76 140.537 311.624 140.497 311.507 140.422C311.39 140.346 311.297 140.239 311.238 140.113C311.156 139.937 311.146 139.735 311.213 139.552C311.279 139.369 311.415 139.22 311.591 139.137C312.715 138.64 313.934 138.39 315.164 138.404C315.358 138.404 315.545 138.481 315.682 138.618C315.82 138.756 315.897 138.943 315.897 139.137C315.897 139.332 315.82 139.518 315.682 139.656C315.545 139.794 315.358 139.871 315.164 139.871C314.151 139.872 313.15 140.089 312.229 140.509C312.123 140.544 312.01 140.554 311.899 140.539Z" fill="#6348EC"/>
<path d="M316.616 156.041C314.758 156.011 312.947 155.449 311.399 154.422C309.85 153.395 308.628 151.945 307.878 150.245C306.359 146.936 306.807 143.48 309.074 140.986C309.206 140.843 309.388 140.759 309.582 140.75C309.776 140.742 309.965 140.811 310.108 140.942C310.251 141.074 310.336 141.256 310.344 141.45C310.352 141.644 310.283 141.833 310.152 141.976C309.241 143.008 308.663 144.291 308.496 145.657C308.328 147.023 308.578 148.408 309.213 149.628C309.862 151.11 310.931 152.369 312.289 153.248C313.647 154.127 315.233 154.588 316.851 154.573C318.074 154.564 319.269 154.202 320.291 153.529C321.313 152.855 322.118 151.901 322.61 150.78C323.163 149.458 323.329 148.007 323.09 146.594C322.851 145.181 322.217 143.865 321.26 142.798C321.197 142.725 321.15 142.64 321.12 142.548C321.09 142.457 321.079 142.36 321.086 142.264C321.094 142.168 321.12 142.075 321.164 141.989C321.207 141.903 321.267 141.826 321.341 141.764C321.414 141.701 321.499 141.654 321.59 141.624C321.682 141.594 321.779 141.582 321.875 141.59C321.971 141.597 322.064 141.624 322.15 141.667C322.236 141.711 322.313 141.771 322.375 141.844C323.514 143.122 324.267 144.696 324.546 146.385C324.825 148.073 324.619 149.806 323.953 151.382C323.351 152.757 322.364 153.929 321.112 154.756C319.86 155.584 318.396 156.033 316.895 156.048L316.616 156.041Z" fill="#6348EC"/>
<path d="M319.705 141.184C319.566 141.185 319.431 141.144 319.316 141.067C318.077 140.269 316.637 139.842 315.163 139.834C314.969 139.834 314.782 139.757 314.645 139.619C314.507 139.482 314.43 139.295 314.43 139.101C314.43 138.906 314.507 138.719 314.645 138.582C314.782 138.444 314.969 138.367 315.163 138.367C316.916 138.373 318.629 138.883 320.101 139.834C320.234 139.92 320.335 140.047 320.39 140.195C320.446 140.343 320.451 140.505 320.407 140.657C320.362 140.809 320.27 140.942 320.143 141.037C320.017 141.132 319.863 141.184 319.705 141.184Z" fill="#6348EC"/>
<path d="M316.227 152.732C315.37 152.726 314.524 152.533 313.75 152.165C312.975 151.797 312.291 151.265 311.744 150.604C311.039 149.797 310.581 148.804 310.425 147.744C310.269 146.684 310.422 145.601 310.864 144.625C311.259 143.739 311.906 142.989 312.723 142.467C313.541 141.945 314.494 141.675 315.464 141.69C315.659 141.69 315.845 141.768 315.983 141.905C316.12 142.043 316.198 142.229 316.198 142.424C316.198 142.619 316.12 142.805 315.983 142.943C315.845 143.08 315.659 143.158 315.464 143.158C314.778 143.145 314.103 143.334 313.523 143.7C312.943 144.066 312.483 144.594 312.199 145.219C311.877 145.94 311.768 146.738 311.887 147.518C312.005 148.299 312.345 149.029 312.867 149.621C313.386 150.258 314.076 150.733 314.855 150.993C315.634 151.253 316.472 151.286 317.269 151.088C317.918 150.942 318.511 150.613 318.978 150.14C319.445 149.666 319.766 149.069 319.903 148.418C319.945 148.228 320.06 148.063 320.224 147.959C320.388 147.854 320.586 147.819 320.776 147.86C320.87 147.88 320.96 147.919 321.04 147.974C321.119 148.028 321.187 148.098 321.24 148.18C321.292 148.261 321.328 148.351 321.345 148.446C321.363 148.541 321.361 148.639 321.341 148.733C321.146 149.652 320.694 150.495 320.036 151.164C319.378 151.834 318.543 152.301 317.628 152.512C317.172 152.641 316.701 152.715 316.227 152.732Z" fill="#6348EC"/>
<path d="M320.497 146.921C320.335 146.929 320.175 146.882 320.043 146.789C319.91 146.697 319.812 146.562 319.763 146.408C319.471 145.488 318.898 144.683 318.126 144.105C317.354 143.526 316.421 143.203 315.457 143.18C315.262 143.18 315.076 143.102 314.938 142.965C314.8 142.827 314.723 142.641 314.723 142.446C314.723 142.251 314.8 142.065 314.938 141.927C315.076 141.79 315.262 141.712 315.457 141.712C316.732 141.741 317.967 142.166 318.99 142.928C320.013 143.691 320.773 144.753 321.165 145.968C321.194 146.06 321.205 146.156 321.198 146.253C321.19 146.349 321.163 146.443 321.118 146.529C321.074 146.615 321.013 146.691 320.939 146.753C320.865 146.816 320.78 146.863 320.688 146.892C320.626 146.91 320.562 146.92 320.497 146.921Z" fill="#6348EC"/>
<path d="M316.426 149.68C316.231 149.68 316.044 149.603 315.907 149.465C315.769 149.327 315.692 149.141 315.692 148.946C315.692 148.752 315.769 148.565 315.907 148.427C316.044 148.29 316.231 148.213 316.426 148.213C316.526 148.213 316.625 148.192 316.717 148.153C316.809 148.113 316.892 148.055 316.96 147.982C317.029 147.909 317.082 147.823 317.116 147.729C317.151 147.635 317.165 147.535 317.159 147.435C317.163 147.292 317.139 147.15 317.087 147.017C317.035 146.883 316.958 146.761 316.859 146.658C316.76 146.555 316.642 146.473 316.51 146.416C316.379 146.359 316.238 146.329 316.095 146.327C315.988 146.33 315.882 146.354 315.784 146.398C315.685 146.442 315.597 146.505 315.523 146.584C315.448 146.673 315.391 146.775 315.356 146.886C315.321 146.997 315.308 147.114 315.318 147.229C315.323 147.326 315.31 147.422 315.279 147.514C315.247 147.605 315.198 147.689 315.134 147.761C315.07 147.833 314.992 147.892 314.905 147.934C314.819 147.977 314.724 148.001 314.628 148.007C314.532 148.013 314.435 148 314.344 147.968C314.253 147.937 314.169 147.887 314.096 147.823C314.024 147.759 313.965 147.682 313.923 147.595C313.881 147.508 313.856 147.414 313.85 147.317C313.824 147.01 313.861 146.7 313.959 146.407C314.057 146.114 314.214 145.844 314.42 145.614C314.627 145.383 314.878 145.198 315.158 145.068C315.438 144.939 315.742 144.868 316.051 144.86C316.387 144.861 316.72 144.928 317.029 145.059C317.339 145.189 317.619 145.379 317.855 145.619C318.09 145.858 318.276 146.142 318.401 146.454C318.525 146.766 318.587 147.099 318.582 147.435C318.588 147.728 318.536 148.019 318.428 148.291C318.32 148.563 318.159 148.811 317.954 149.02C317.749 149.229 317.504 149.395 317.234 149.508C316.964 149.622 316.674 149.68 316.382 149.68H316.426Z" fill="#6348EC"/>
<path d="M335.302 147.237C336.197 157.457 328.633 165.74 318.428 165.74H317.636C327.364 165.241 334.429 157.156 333.563 147.259C333.064 142.414 330.866 137.903 327.361 134.522C323.855 131.141 319.267 129.109 314.408 128.785C314.664 128.785 314.929 128.785 315.193 128.785C325.427 128.741 334.436 137.024 335.302 147.237Z" fill="#6348EC"/>
<g opacity="0.4">
<path d="M335.302 147.237C336.197 157.457 328.633 165.74 318.428 165.74H317.636C327.364 165.241 334.429 157.156 333.563 147.259C333.064 142.414 330.866 137.903 327.361 134.522C323.855 131.141 319.267 129.109 314.408 128.785C314.664 128.785 314.929 128.785 315.193 128.785C325.427 128.741 334.436 137.024 335.302 147.237Z" fill="white"/>
</g>
<path d="M142.605 87.8716C142.623 88.0906 142.653 88.3085 142.693 88.5245C142.97 89.9381 143.696 91.2246 144.762 92.1928C145.971 93.3243 147.56 93.9606 149.215 93.9756H211.202C211.926 93.9902 212.645 93.8607 213.318 93.5948C213.991 93.3289 214.604 92.9318 215.123 92.4266C215.641 91.9213 216.053 91.3181 216.336 90.652C216.619 89.9859 216.767 89.2702 216.77 88.5465C216.781 88.329 216.781 88.1111 216.77 87.8936C216.598 86.2509 215.832 84.7277 214.616 83.6094C213.401 82.4911 211.819 81.8545 210.168 81.8189H148.166C147.389 81.8032 146.617 81.953 145.903 82.2584C145.188 82.5638 144.546 83.0178 144.02 83.5903C143.494 84.1627 143.096 84.8405 142.852 85.5787C142.608 86.3168 142.524 87.0984 142.605 87.8716Z" fill="#6348EC"/>
<path opacity="0.8" d="M142.605 87.8716C142.623 88.0906 142.653 88.3085 142.693 88.5245C142.97 89.9381 143.696 91.2246 144.762 92.1928C145.971 93.3243 147.56 93.9606 149.215 93.9756H211.202C211.926 93.9902 212.645 93.8607 213.318 93.5948C213.991 93.3289 214.604 92.9318 215.123 92.4266C215.641 91.9213 216.053 91.3181 216.336 90.652C216.619 89.9859 216.767 89.2702 216.77 88.5465C216.781 88.329 216.781 88.1111 216.77 87.8936C216.598 86.2509 215.832 84.7277 214.616 83.6094C213.401 82.4911 211.819 81.8545 210.168 81.8189H148.166C147.389 81.8032 146.617 81.953 145.903 82.2584C145.188 82.5638 144.546 83.0178 144.02 83.5903C143.494 84.1627 143.096 84.8405 142.852 85.5787C142.608 86.3168 142.524 87.0984 142.605 87.8716Z" fill="white"/>
<path d="M216.77 88.5024C216.771 88.6989 216.756 88.8951 216.726 89.0894C216.508 87.4839 215.722 86.0097 214.511 84.9332C213.3 83.8567 211.743 83.2491 210.123 83.2201L144.219 83.3669C144.742 82.8586 145.359 82.4584 146.037 82.189C146.714 81.9196 147.438 81.7864 148.166 81.7968H210.153C211.804 81.8324 213.386 82.469 214.601 83.5873C215.817 84.7056 216.583 86.2289 216.756 87.8715C216.771 88.0815 216.776 88.292 216.77 88.5024Z" fill="#6348EC"/>
<path opacity="0.5" d="M216.77 88.5024C216.771 88.6989 216.756 88.8951 216.726 89.0894C216.508 87.4839 215.722 86.0097 214.511 84.9332C213.3 83.8567 211.743 83.2491 210.123 83.2201L144.219 83.3669C144.742 82.8586 145.359 82.4584 146.037 82.189C146.714 81.9196 147.438 81.7864 148.166 81.7968H210.153C211.804 81.8324 213.386 82.469 214.601 83.5873C215.817 84.7056 216.583 86.2289 216.756 87.8715C216.771 88.0815 216.776 88.292 216.77 88.5024Z" fill="white"/>
<path d="M206.125 84.7315L206.389 87.6661L209.148 86.639L209.801 88.1063L206.983 89.0454L209.008 91.5325L207.739 92.4642L205.765 89.8817L204.298 92.4642L202.911 91.5325L204.474 89.0454L201.54 88.1063L201.936 86.639L204.907 87.6294L204.643 84.6948L206.125 84.7315Z" fill="#6348EC"/>
<path d="M189.141 84.7315L189.405 87.6661L192.164 86.639L192.824 88.1063L189.985 89.0674L192.01 91.5545L190.748 92.4862L188.774 89.9037L187.307 92.4862L185.913 91.5545L187.483 89.0674L184.548 88.1283L184.945 86.661L187.916 87.6514L187.659 84.7168L189.141 84.7315Z" fill="#6348EC"/>
<path d="M172.194 84.7315L172.45 87.6661L175.209 86.639L175.869 88.1063L173.045 89.0454L175.07 91.5325L173.844 92.4862L171.871 89.9037L170.404 92.4862L169.017 91.5545L170.58 89.0674L167.645 88.1283L168.049 86.661L170.983 87.6514L170.726 84.7168L172.194 84.7315Z" fill="#6348EC"/>
<path d="M155.239 84.7315L155.495 87.6661L158.261 86.639L158.914 88.1063L156.09 89.0454L158.122 91.5325L156.853 92.4642L154.879 89.8817L153.412 92.4642L152.025 91.5325L153.588 89.0454L150.653 88.1063L151.049 86.639L153.984 87.6294L153.727 84.6948L155.239 84.7315Z" fill="#6348EC"/>
<path d="M196.331 78.921H193.44V79.6546H196.331V78.921Z" fill="#6348EC"/>
<path d="M208.752 78.921H199.324V79.6546H208.752V78.921Z" fill="#6348EC"/>
<path d="M216.286 147.787H213.395V148.521H216.286V147.787Z" fill="#6348EC"/>
<path d="M228.707 147.787H219.279V148.521H228.707V147.787Z" fill="#6348EC"/>
<path d="M245.962 135.264L244.135 156.173C244.04 157.097 243.61 157.954 242.926 158.583C242.242 159.211 241.352 159.568 240.423 159.584C239.986 159.592 239.552 159.507 239.151 159.334C238.749 159.161 238.389 158.905 238.094 158.582C237.799 158.26 237.576 157.878 237.44 157.463C237.304 157.047 237.258 156.607 237.305 156.173L239.117 135.264C239.286 133.704 239.121 132.127 238.634 130.636C238.146 129.145 237.347 127.775 236.29 126.616C235.233 125.457 233.941 124.537 232.501 123.915C231.061 123.294 229.505 122.986 227.936 123.012H220.482C217.149 123.075 213.953 124.356 211.499 126.613C209.044 128.87 207.501 131.947 207.159 135.264L206.426 143.803H199.603L200.336 135.264C201.253 124.743 210.563 116.189 221.077 116.189H228.56C231.001 116.148 233.424 116.628 235.666 117.595C237.908 118.563 239.919 119.996 241.564 121.8C243.21 123.604 244.454 125.738 245.212 128.059C245.97 130.38 246.226 132.836 245.962 135.264Z" fill="#6348EC"/>
<g opacity="0.5">
<path d="M245.962 135.264L244.135 156.173C244.04 157.097 243.61 157.954 242.926 158.583C242.242 159.211 241.352 159.568 240.423 159.584C239.986 159.592 239.552 159.507 239.151 159.334C238.749 159.161 238.389 158.905 238.094 158.582C237.799 158.26 237.576 157.878 237.44 157.463C237.304 157.047 237.258 156.607 237.305 156.173L239.117 135.264C239.286 133.704 239.121 132.127 238.634 130.636C238.146 129.145 237.347 127.775 236.29 126.616C235.233 125.457 233.941 124.537 232.501 123.915C231.061 123.294 229.505 122.986 227.936 123.012H220.482C217.149 123.075 213.953 124.356 211.499 126.613C209.044 128.87 207.501 131.947 207.159 135.264L206.426 143.803H199.603L200.336 135.264C201.253 124.743 210.563 116.189 221.077 116.189H228.56C231.001 116.148 233.424 116.628 235.666 117.595C237.908 118.563 239.919 119.996 241.564 121.8C243.21 123.604 244.454 125.738 245.212 128.059C245.97 130.38 246.226 132.836 245.962 135.264Z" fill="white"/>
</g>
<path d="M246.454 155.41L242.896 196.157C242.766 197.421 242.178 198.593 241.242 199.451C240.307 200.31 239.088 200.795 237.819 200.816H197.071C196.475 200.827 195.882 200.71 195.334 200.474C194.786 200.238 194.294 199.888 193.891 199.448C193.489 199.007 193.185 198.486 192.999 197.918C192.814 197.351 192.752 196.75 192.816 196.157L196.382 155.41C196.464 154.598 196.736 153.816 197.178 153.129C197.619 152.442 198.216 151.868 198.92 151.456C199.685 150.987 200.562 150.734 201.459 150.722H242.199C243.031 150.717 243.847 150.949 244.554 151.389C245.213 151.817 245.74 152.419 246.075 153.13C246.411 153.84 246.542 154.629 246.454 155.41Z" fill="#6348EC"/>
<path d="M204.085 173.208L214.672 189.503L249.587 154.588C249.641 154.523 249.67 154.441 249.668 154.357C249.667 154.273 249.636 154.192 249.58 154.129C249.524 154.066 249.447 154.025 249.364 154.014C249.28 154.002 249.195 154.021 249.125 154.067L215.853 180.149L209.566 170.017L204.085 173.208Z" fill="white"/>
<path d="M102.679 138.618H76.1355C74.9074 138.596 73.7299 138.125 72.8256 137.293C71.9212 136.462 71.3527 135.328 71.2274 134.106L68.931 107.577C68.8673 107.003 68.9268 106.422 69.1056 105.872C69.2844 105.322 69.5784 104.817 69.9679 104.39C70.3574 103.963 70.8335 103.624 71.3645 103.396C71.8954 103.167 72.469 103.055 73.0468 103.065H99.5611C100.785 103.093 101.956 103.567 102.854 104.398C103.753 105.229 104.317 106.36 104.44 107.577L106.758 134.092C106.824 134.664 106.767 135.244 106.591 135.793C106.416 136.342 106.125 136.847 105.74 137.275C105.354 137.703 104.882 138.044 104.354 138.276C103.826 138.507 103.255 138.624 102.679 138.618Z" fill="#6348EC"/>
<path opacity="0.8" d="M102.679 138.618H76.1355C74.9074 138.596 73.7299 138.125 72.8256 137.293C71.9212 136.462 71.3527 135.328 71.2274 134.106L68.931 107.577C68.8673 107.003 68.9268 106.422 69.1056 105.872C69.2844 105.322 69.5784 104.817 69.9679 104.39C70.3574 103.963 70.8335 103.624 71.3645 103.396C71.8954 103.167 72.469 103.055 73.0468 103.065H99.5611C100.785 103.093 101.956 103.567 102.854 104.398C103.753 105.229 104.317 106.36 104.44 107.577L106.758 134.092C106.824 134.664 106.767 135.244 106.591 135.793C106.416 136.342 106.125 136.847 105.74 137.275C105.354 137.703 104.882 138.044 104.354 138.276C103.826 138.507 103.255 138.624 102.679 138.618Z" fill="white"/>
<path d="M71.2427 123.52C71.2427 123.52 80.6701 110.395 87.6105 110.732C94.5509 111.07 106.084 123.204 106.084 123.204C106.084 123.204 89.0852 132.133 71.2427 123.52Z" fill="white"/>
<path d="M71.5435 123.718L70.9492 123.292C71.3307 122.757 80.318 110.343 87.3464 110.343H87.6325C94.6463 110.681 105.871 122.434 106.348 122.933L105.82 123.439C105.702 123.322 94.3161 111.4 87.5958 111.077H87.3464C80.6701 111.092 71.6315 123.608 71.5435 123.718Z" fill="#263238"/>
<path d="M70.2668 123.982C68.8435 123.982 66.9947 123.454 66.3417 121.443C66.3117 121.351 66.3195 121.25 66.3635 121.164C66.4075 121.077 66.4841 121.011 66.5765 120.981C66.6222 120.965 66.6707 120.959 66.719 120.962C66.7673 120.965 66.8145 120.978 66.8576 121C66.9008 121.022 66.9391 121.053 66.9702 121.09C67.0013 121.127 67.0246 121.17 67.0387 121.216C67.8824 123.813 71.0371 123.19 71.1692 123.16C71.2643 123.143 71.3626 123.163 71.4433 123.216C71.524 123.269 71.5809 123.352 71.6021 123.446C71.6117 123.494 71.6119 123.542 71.6028 123.589C71.5936 123.637 71.5752 123.682 71.5487 123.722C71.5221 123.762 71.4879 123.797 71.4479 123.824C71.408 123.851 71.3631 123.87 71.3159 123.879C70.9704 123.948 70.619 123.982 70.2668 123.982Z" fill="#263238"/>
<path d="M75.8649 118.347C75.783 118.349 75.703 118.323 75.6375 118.274C75.5274 118.186 72.9229 116.176 72.2626 114.129C72.2326 114.037 72.2404 113.936 72.2844 113.849C72.3284 113.763 72.405 113.697 72.4974 113.667C72.5899 113.639 72.6896 113.647 72.7758 113.691C72.8619 113.735 72.9278 113.81 72.9596 113.902C73.5539 115.728 76.0556 117.672 76.085 117.687C76.1617 117.747 76.2117 117.834 76.2241 117.93C76.2365 118.027 76.2102 118.124 76.151 118.201C76.1176 118.245 76.0745 118.282 76.0249 118.307C75.9753 118.333 75.9206 118.346 75.8649 118.347Z" fill="#263238"/>
<path d="M81.2496 113.351C81.1535 113.346 81.0631 113.304 80.9964 113.235C80.9298 113.165 80.8918 113.073 80.8901 112.977C80.4617 111.379 79.9299 109.811 79.2981 108.282C79.1146 107.797 78.9826 107.445 78.9532 107.357C78.9386 107.311 78.9335 107.261 78.9382 107.213C78.9429 107.164 78.9573 107.117 78.9805 107.074C79.0038 107.031 79.0354 106.993 79.0736 106.962C79.1117 106.931 79.1556 106.909 79.2027 106.895C79.2489 106.882 79.2974 106.877 79.3453 106.883C79.3931 106.888 79.4395 106.902 79.4818 106.926C79.524 106.949 79.5613 106.98 79.5914 107.018C79.6216 107.055 79.6441 107.098 79.6575 107.145C79.6575 107.233 79.8116 107.555 79.9804 108.018C81.0075 110.71 81.6384 112.478 81.6237 112.992C81.6238 113.04 81.614 113.088 81.595 113.133C81.5761 113.177 81.5483 113.218 81.5133 113.251C81.4784 113.285 81.437 113.311 81.3917 113.328C81.3463 113.345 81.298 113.353 81.2496 113.351Z" fill="#263238"/>
<path d="M87.6104 111.099C87.5189 111.096 87.4316 111.06 87.3642 110.998C87.2969 110.937 87.2541 110.852 87.2436 110.762L86.73 104.892C86.7212 104.795 86.7515 104.698 86.8141 104.623C86.8767 104.548 86.9665 104.501 87.0638 104.492C87.1611 104.484 87.2579 104.514 87.3329 104.577C87.4079 104.639 87.4549 104.729 87.4637 104.826L87.9772 110.74C87.9835 110.835 87.9527 110.93 87.8913 111.004C87.8298 111.077 87.7424 111.125 87.6471 111.136L87.6104 111.099Z" fill="#263238"/>
<path d="M107.185 123.578C106.826 123.58 106.467 123.551 106.113 123.49C106.066 123.481 106.021 123.462 105.981 123.435C105.941 123.408 105.907 123.373 105.881 123.333C105.854 123.293 105.836 123.248 105.827 123.201C105.817 123.153 105.818 123.105 105.827 123.058C105.835 123.01 105.852 122.965 105.878 122.924C105.904 122.884 105.938 122.849 105.978 122.823C106.018 122.796 106.063 122.777 106.11 122.769C106.157 122.76 106.206 122.761 106.253 122.771C106.253 122.771 108.05 123.116 109.151 122.339C109.386 122.167 109.582 121.948 109.727 121.695C109.871 121.442 109.96 121.161 109.987 120.871C109.994 120.823 110.011 120.777 110.036 120.735C110.061 120.693 110.094 120.657 110.133 120.628C110.173 120.599 110.217 120.578 110.264 120.566C110.312 120.555 110.361 120.552 110.409 120.559C110.457 120.567 110.503 120.583 110.545 120.608C110.587 120.634 110.623 120.667 110.652 120.706C110.681 120.745 110.702 120.789 110.714 120.837C110.726 120.884 110.728 120.933 110.721 120.981C110.676 121.367 110.552 121.74 110.355 122.075C110.157 122.41 109.892 122.699 109.576 122.925C108.863 123.38 108.029 123.608 107.185 123.578Z" fill="#263238"/>
<path d="M100.596 117.959C100.544 117.959 100.493 117.948 100.446 117.926C100.399 117.905 100.358 117.873 100.324 117.834C100.29 117.8 100.263 117.759 100.244 117.715C100.225 117.67 100.216 117.622 100.216 117.573C100.216 117.525 100.225 117.477 100.244 117.432C100.263 117.388 100.29 117.347 100.324 117.313C100.324 117.313 102.525 115.376 102.76 113.571C102.776 113.476 102.829 113.39 102.907 113.333C102.985 113.275 103.082 113.25 103.178 113.263C103.226 113.27 103.272 113.287 103.313 113.312C103.354 113.337 103.39 113.37 103.419 113.408C103.448 113.447 103.468 113.491 103.48 113.538C103.491 113.585 103.494 113.634 103.486 113.681C103.178 115.75 100.904 117.775 100.809 117.863C100.751 117.919 100.676 117.953 100.596 117.959Z" fill="#263238"/>
<path d="M94.3967 113.696H94.3307C94.2351 113.678 94.1502 113.624 94.094 113.544C94.0379 113.465 94.0149 113.367 94.0299 113.271C94.0299 113.227 94.8369 108.509 94.9836 107.541C94.9909 107.493 95.0075 107.446 95.0326 107.405C95.0577 107.363 95.0908 107.326 95.13 107.297C95.1691 107.269 95.2136 107.248 95.2609 107.236C95.3082 107.224 95.3573 107.222 95.4055 107.229C95.4537 107.236 95.4999 107.253 95.5417 107.278C95.5834 107.303 95.6198 107.336 95.6488 107.375C95.6777 107.414 95.6987 107.459 95.7104 107.506C95.7222 107.554 95.7245 107.603 95.7173 107.651C95.5706 108.627 94.7709 113.351 94.7635 113.395C94.7479 113.481 94.7025 113.558 94.6353 113.613C94.5681 113.668 94.4836 113.698 94.3967 113.696Z" fill="#263238"/>
<path d="M94.6125 125.057C97.6498 121.884 97.3027 116.623 93.8372 113.305C90.3718 109.988 85.1002 109.87 82.063 113.043C79.0257 116.216 79.3728 121.477 82.8383 124.795C86.3038 128.112 91.5753 128.229 94.6125 125.057Z" fill="#6348EC"/>
<path opacity="0.3" d="M91.7775 119.044C91.7884 118.859 91.7884 118.673 91.7775 118.487C91.679 117.53 91.2334 116.643 90.525 115.993C89.8166 115.343 88.8946 114.974 87.9331 114.958C87.4813 114.95 87.0329 115.039 86.6178 115.217C86.2028 115.396 85.8305 115.661 85.5259 115.995C85.2212 116.329 84.9911 116.724 84.8508 117.153C84.7106 117.583 84.6634 118.038 84.7124 118.487C84.7245 118.676 84.759 118.863 84.8151 119.044H80.0317C79.9147 117.987 80.0246 116.916 80.354 115.904C80.6833 114.892 81.2245 113.961 81.9416 113.175C82.6587 112.388 83.5352 111.764 84.5127 111.342C85.4901 110.921 86.5461 110.713 87.6103 110.732C89.8731 110.774 92.0424 111.642 93.7088 113.174C95.3753 114.705 96.4237 116.793 96.6563 119.044H91.7775Z" fill="#010101"/>
<path opacity="0.7" d="M91.7704 118.487C91.7814 118.673 91.7814 118.859 91.7704 119.044C91.7177 119.861 91.3518 120.626 90.749 121.179C90.1463 121.733 89.3532 122.033 88.535 122.016C87.6725 122 86.8394 121.7 86.1644 121.163C85.4894 120.626 85.0101 119.881 84.8007 119.044C84.7446 118.863 84.7101 118.676 84.698 118.487C84.649 118.038 84.6962 117.583 84.8364 117.153C84.9767 116.724 85.2068 116.329 85.5115 115.995C85.8161 115.661 86.1884 115.396 86.6034 115.217C87.0185 115.038 87.4668 114.95 87.9187 114.958C88.8814 114.973 89.8053 115.34 90.5152 115.99C91.2251 116.641 91.6717 117.529 91.7704 118.487Z" fill="#010101"/>
<path opacity="0.7" d="M93.6848 115.024C93.7244 115.39 93.6856 115.761 93.5711 116.111C93.4565 116.461 93.2688 116.783 93.0204 117.055C92.772 117.327 92.4686 117.543 92.1303 117.688C91.792 117.834 91.4266 117.906 91.0583 117.9C90.2762 117.884 89.5267 117.583 88.9511 117.054C88.3754 116.524 88.0133 115.802 87.9329 115.024C87.8921 114.658 87.93 114.287 88.0441 113.936C88.1582 113.585 88.3458 113.263 88.5945 112.991C88.8431 112.719 89.147 112.503 89.4859 112.357C89.8248 112.212 90.1908 112.141 90.5594 112.148C91.342 112.162 92.0923 112.462 92.6683 112.992C93.2442 113.522 93.6059 114.245 93.6848 115.024Z" fill="white"/>
<path d="M82.3281 99.786H79.4375V100.52H82.3281V99.786Z" fill="#6348EC"/>
<path d="M94.7488 99.786H85.3213V100.52H94.7488V99.786Z" fill="#6348EC"/>
<path d="M151.701 171.88L151.924 172.15L152.226 172.498C152.443 172.728 152.654 172.971 152.884 173.195C153.337 173.668 153.83 174.128 154.329 174.594C155.327 175.515 156.373 176.381 157.464 177.19C158.574 178.018 159.744 178.773 160.914 179.523C161.571 179.877 162.11 180.252 162.727 180.594L164.153 181.382C164.36 181.474 164.594 181.488 164.81 181.422C165.27 181.284 167.912 178.668 168.753 177.696C170.619 175.56 173.445 172.748 174.969 170.356L176.671 172.702C175.595 175.632 174.168 178.421 172.42 181.008C171.48 182.406 170.352 183.668 169.068 184.76C168.298 185.409 167.428 185.93 166.492 186.304C165.306 186.777 164.004 186.876 162.76 186.587C162.438 186.508 162.124 186.403 161.82 186.271L161.229 186.015L160.164 185.529C159.448 185.213 158.758 184.832 158.062 184.484C156.669 183.741 155.318 182.922 154.014 182.033C152.699 181.129 151.438 180.15 150.235 179.102C149.611 178.557 149.053 178.005 148.481 177.407C148.198 177.111 147.909 176.802 147.633 176.48L147.226 175.981C147.075 175.797 146.963 175.659 146.759 175.376L151.701 171.88Z" fill="#FFB573"/>
<path d="M174.7 170.717L177.749 164.199L180.66 169.416C180.66 169.416 178.748 172.702 176.672 172.702L174.7 170.717Z" fill="#FFB573"/>
<path d="M181.206 161.491L184.281 165.447L180.686 169.41L177.775 164.199L181.206 161.491Z" fill="#FFB573"/>
<path d="M180.134 171.21H184.977C185.114 171.209 185.245 171.157 185.346 171.065C185.447 170.973 185.51 170.847 185.523 170.711L186.528 159.099C186.536 159.023 186.527 158.947 186.503 158.874C186.479 158.802 186.44 158.736 186.388 158.679C186.337 158.623 186.274 158.578 186.204 158.547C186.135 158.517 186.059 158.501 185.983 158.501H181.146C181.009 158.503 180.877 158.555 180.776 158.649C180.675 158.742 180.612 158.87 180.601 159.007L179.582 170.612C179.576 170.688 179.586 170.765 179.611 170.837C179.635 170.91 179.675 170.976 179.727 171.032C179.779 171.089 179.842 171.134 179.912 171.164C179.982 171.195 180.058 171.21 180.134 171.21Z" fill="#6348EC"/>
<path opacity="0.3" d="M180.187 170.047H185.037L185.943 159.671H181.094L180.187 170.047Z" fill="white"/>
<path d="M179.871 168.575L180.732 168.135C181.17 167.912 181.575 167.629 181.935 167.294L182.092 166.722C182 166.57 181.862 166.451 181.698 166.384C181.533 166.316 181.351 166.303 181.179 166.347L180.463 166.545L176.908 166.814L176.822 168.312L177.861 169.916H178.215C178.607 169.929 178.99 169.801 179.294 169.555C179.598 169.309 179.803 168.961 179.871 168.575Z" fill="#FFB573"/>
<path d="M145.498 165.539C147.962 165.092 165.343 180.16 165.343 180.16L160.191 187.717C160.191 187.717 141.187 174.482 141.791 171.289C142.376 167.931 141.91 166.196 145.498 165.539Z" fill="#263238"/>
<path opacity="0.2" d="M147.693 170.356L147.502 178.241C149.473 179.772 156.596 185.233 156.596 185.233L147.693 170.356Z" fill="#010101"/>
<path d="M133.913 322.136L139.741 322.708L141.594 309.191L135.759 308.62L133.913 322.136Z" fill="#FFB573"/>
<path d="M76.5268 242.823L75.0352 248.5L87.6452 253.934L90.2605 248.172L76.5268 242.823Z" fill="#FFB573"/>
<path d="M143.914 323.904C144.415 323.966 144.923 323.855 145.353 323.589C145.446 323.508 145.518 323.406 145.564 323.292C145.609 323.178 145.627 323.054 145.616 322.932C145.615 322.855 145.595 322.78 145.555 322.714C145.516 322.648 145.46 322.594 145.392 322.557C144.689 322.136 142.31 323.267 142.041 323.392C142.015 323.404 141.994 323.423 141.98 323.448C141.965 323.473 141.959 323.501 141.962 323.53C141.966 323.559 141.979 323.586 141.999 323.607C142.019 323.628 142.045 323.643 142.074 323.648C142.678 323.789 143.294 323.875 143.914 323.904ZM144.972 322.728C145.063 322.721 145.155 322.742 145.234 322.787C145.262 322.801 145.285 322.823 145.302 322.85C145.318 322.876 145.326 322.907 145.326 322.938C145.334 323.02 145.321 323.103 145.29 323.179C145.259 323.256 145.211 323.324 145.149 323.378C144.788 323.687 143.835 323.714 142.521 323.464C143.296 323.077 144.131 322.826 144.991 322.721L144.972 322.728Z" fill="#6348EC"/>
<path d="M142.101 323.622H142.153C142.863 323.326 144.289 322.104 144.197 321.433C144.171 321.317 144.106 321.213 144.013 321.139C143.92 321.064 143.803 321.025 143.684 321.026C143.547 321.001 143.407 321.005 143.272 321.039C143.137 321.073 143.011 321.136 142.902 321.223C142.147 321.808 141.969 323.392 141.956 323.451C141.95 323.475 141.95 323.5 141.955 323.524C141.961 323.548 141.973 323.57 141.989 323.589C142.004 323.602 142.022 323.611 142.041 323.617C142.061 323.623 142.081 323.624 142.101 323.622ZM143.553 321.276H143.632C143.888 321.315 143.901 321.414 143.901 321.447C143.96 321.847 142.988 322.82 142.258 323.208C142.328 322.542 142.609 321.915 143.06 321.42C143.206 321.315 143.388 321.27 143.566 321.295L143.553 321.276Z" fill="#6348EC"/>
<path d="M139.453 320.356L134.196 320.579C134.082 320.58 133.973 320.623 133.89 320.699C133.806 320.776 133.754 320.88 133.742 320.993L132.481 328.333C132.473 328.458 132.491 328.583 132.533 328.701C132.574 328.819 132.639 328.927 132.722 329.02C132.806 329.113 132.907 329.188 133.02 329.242C133.133 329.295 133.256 329.326 133.381 329.332H133.486C135.779 329.214 136.883 329.043 139.788 328.944C141.568 328.885 147.016 329.529 149.447 328.977C151.879 328.425 151.419 326.013 150.374 326.033C146.996 326.099 143.1 323.898 141.174 321.322C140.839 321.105 139.821 320.336 139.453 320.356Z" fill="#263238"/>
<path d="M77.7162 249.243L80.3973 244.689C80.458 244.592 80.4802 244.477 80.4595 244.365C80.4388 244.253 80.3767 244.153 80.2856 244.084L74.8184 239.044C74.6152 238.901 74.364 238.842 74.1184 238.882C73.8729 238.921 73.6524 239.055 73.5041 239.254L73.445 239.346C72.3016 241.318 71.8482 242.356 70.3565 244.846C69.4366 246.378 65.9276 250.629 65.0996 252.949C64.2716 255.268 66.519 256.234 67.071 255.327C68.8517 252.449 72.8142 250.373 76.034 250.123C76.3429 250.005 77.5322 249.565 77.7162 249.243Z" fill="#263238"/>
<path opacity="0.2" d="M141.595 309.191L140.642 316.163L134.807 315.592L135.753 308.626L141.595 309.191Z" fill="#010101"/>
<path opacity="0.2" d="M94.1379 249.578L91.4437 255.656L83.3218 252.068L85.3917 246.279L94.1379 249.578Z" fill="#010101"/>
<path d="M149.224 172.472C152.555 178.136 148.481 182.913 145.077 199.841L123.117 199.9C123.471 190.779 123.432 183.406 119.542 165.46C119.441 165.018 119.441 164.559 119.543 164.117C119.644 163.675 119.844 163.261 120.128 162.907C120.412 162.553 120.772 162.268 121.181 162.073C121.591 161.878 122.039 161.778 122.492 161.78C124.306 161.78 126.586 161.84 128.906 162.076C132.564 162.375 136.198 162.926 139.781 163.726C141.724 164.194 143.634 164.791 145.498 165.513C146.628 165.894 147.988 168.969 149.224 172.472Z" fill="#263238"/>
<path d="M145.892 200.984C145.892 200.984 158.226 236.646 157.93 253.796C157.759 263.62 157.017 281.928 154.053 294.801C151.635 305.314 141.778 312.017 141.778 312.017L133.893 311.55C133.893 311.55 129.622 295.517 130.364 289.136C131.843 276.434 136.226 266.893 135.693 255.229C134.852 236.133 129.201 200.688 129.201 200.688L145.892 200.984Z" fill="#6348EC"/>
<path d="M132.309 313.607L143.447 314.264L144.459 310.92L132.014 309.77L132.309 313.607Z" fill="#263238"/>
<path opacity="0.2" d="M133.716 273.03C133.716 273.03 133.716 272.964 133.782 272.971C140.78 273.628 145.61 263.555 144.46 249.762L140.747 214.606L133.716 273.03Z" fill="#010101"/>
<path d="M140.359 200.688C140.359 200.688 150.163 263.397 129.779 270.454C119.022 274.528 109.974 270.113 99.2563 265.368C93.0597 262.628 85.3188 255.209 85.3188 255.209L88.2956 247.107C93.6493 245.659 99.2513 245.377 104.723 246.279C115.172 247.895 115.612 250.879 119.325 248.625C127.131 229.332 113.7 214.08 122.827 200.655L140.359 200.688Z" fill="#6348EC"/>
<path d="M88.881 245.569L84.8989 256.077L87.8297 258.317L92.5609 245.813L88.881 245.569Z" fill="#263238"/>
<path d="M87.238 188.906C86.2457 190.372 81.2122 189.379 81.2122 189.379L80.1411 183.143L86.3246 185.621L87.238 188.906Z" fill="#FFB573"/>
<path d="M81.3895 182.821L82.3489 189.3L78.6362 189.852C78.4349 189.871 78.2341 189.814 78.0726 189.692C77.9111 189.571 77.8005 189.394 77.7622 189.195L76.3363 184.596C76.312 184.488 76.3299 184.376 76.3861 184.282C76.4424 184.188 76.5328 184.119 76.6385 184.09L81.3895 182.821Z" fill="#FFB573"/>
<path d="M79.7265 185.759L81.8424 186.133L83.8466 184.628L83.0712 184.077C82.5458 183.702 82.1762 183.148 82.033 182.519C81.884 181.86 81.7938 181.19 81.7636 180.515V180.292C81.7383 180.093 81.6488 179.909 81.5088 179.767C81.3687 179.624 81.1859 179.532 80.9882 179.503L80.4625 179.891C80.1339 180.607 80.3705 181.441 80.3311 182L80.2456 183.084L79.3979 183.452L79.7265 185.759Z" fill="#FFB573"/>
<path d="M120.599 164.225L108.167 181.31L85.332 185.818V189.563C85.332 189.563 106.793 191.154 111.617 188.348C116.44 185.542 124.529 168.523 124.529 168.523L120.599 164.225Z" fill="#FFB573"/>
<path d="M120.455 131.369C115.238 129.621 109.186 132.861 106.801 137.815C104.415 142.77 105.25 148.848 107.937 153.645C108.746 155.098 109.712 156.464 110.375 157.982C111.113 159.487 111.274 161.21 110.829 162.825C110.29 164.396 109.738 165.401 107.793 165.151C107.793 165.151 107.793 164.074 108.535 164.205C108.535 164.205 106.958 165.079 106.341 164.507C107.057 165.611 108.969 165.211 109.58 164.041C110.494 162.3 108.811 159.941 106.84 159.96C104.869 159.98 103.265 161.978 103.331 163.942C103.413 164.925 103.763 165.866 104.342 166.665C104.921 167.463 105.708 168.087 106.617 168.47C106.084 168.558 105.537 168.467 105.062 168.211C104.586 167.956 104.209 167.55 103.988 167.057C104.882 169.396 107.799 170.428 110.264 169.968C112.728 169.508 114.811 167.931 116.743 166.334C119.371 164.179 122.059 161.452 122 158.081C121.941 155.564 120.324 153.402 118.964 151.28C117.604 149.157 116.414 146.568 117.282 144.209C118.011 142.205 119.996 140.996 121.743 139.774C123.005 138.9 125.568 136.948 125.266 135.102C124.957 133.34 121.934 131.862 120.455 131.369Z" fill="#263238"/>
<path d="M108.699 189.852L105.256 180.738L106.044 180.804C106.682 180.857 107.322 180.726 107.887 180.425C108.453 180.125 108.919 179.668 109.231 179.109C111.86 174.43 118.648 162.556 120.56 161.964C123.287 161.156 126.093 163.338 127.131 166.564C127.913 168.936 119.903 179.109 116.21 184.891C112.931 190.01 108.699 189.852 108.699 189.852Z" fill="#263238"/>
<path d="M75.1138 252.239V252.311C75.1622 252.438 75.2419 252.55 75.3453 252.637C75.4487 252.724 75.5725 252.784 75.7052 252.811C75.7849 252.836 75.8697 252.84 75.9514 252.823C76.0331 252.805 76.109 252.767 76.1718 252.712C76.7238 252.206 76.3689 250.084 76.3361 249.873C76.3324 249.846 76.3203 249.821 76.3015 249.801C76.2826 249.781 76.2579 249.767 76.2309 249.762C76.2054 249.759 76.1795 249.762 76.1554 249.771C76.1313 249.78 76.1099 249.795 76.0929 249.814C75.6461 250.445 74.9364 251.569 75.1138 252.239ZM76.1258 250.268C76.2441 251.109 76.2966 252.239 75.9878 252.515C75.9556 252.533 75.9194 252.542 75.8827 252.542C75.8459 252.542 75.8097 252.533 75.7775 252.515C75.6892 252.498 75.6066 252.46 75.5376 252.402C75.4685 252.345 75.4154 252.27 75.3832 252.186C75.265 251.832 75.5147 251.109 76.1258 250.255V250.268Z" fill="#6348EC"/>
<path d="M76.1324 250.15C76.3032 250.859 76.9735 252.068 77.5649 252.213C77.6727 252.235 77.7846 252.219 77.8825 252.169C77.9804 252.119 78.0583 252.037 78.1037 251.937C78.1552 251.843 78.1854 251.739 78.1922 251.632C78.199 251.526 78.1823 251.419 78.1432 251.319C77.8737 250.504 76.323 249.834 76.2572 249.801C76.2361 249.79 76.2123 249.784 76.1882 249.784C76.1641 249.784 76.1404 249.79 76.1192 249.801C76.0999 249.817 76.085 249.837 76.0758 249.86C76.0666 249.883 76.0634 249.908 76.0667 249.933C76.0828 250.007 76.1048 250.079 76.1324 250.15ZM77.9197 251.464C77.9332 251.522 77.9348 251.582 77.9247 251.641C77.9145 251.699 77.8927 251.755 77.8606 251.805C77.7752 251.963 77.6898 251.963 77.624 251.95C77.2232 251.871 76.6121 250.879 76.4149 250.189C76.9209 250.445 77.7292 250.925 77.9 251.424C77.8955 251.437 77.8955 251.451 77.9 251.464H77.9197Z" fill="#6348EC"/>
<path d="M123.038 198.789L122.427 200.925C122.348 201.089 122.538 201.26 122.814 201.253H145.485C145.702 201.253 145.879 201.142 145.892 201.01L146.103 198.875C146.103 198.73 145.932 198.599 145.695 198.605H123.419C123.345 198.599 123.27 198.613 123.203 198.646C123.137 198.678 123.079 198.728 123.038 198.789Z" fill="#6348EC"/>
<path opacity="0.5" d="M123.038 198.789L122.427 200.925C122.348 201.089 122.538 201.26 122.814 201.253H145.485C145.702 201.253 145.879 201.142 145.892 201.01L146.103 198.875C146.103 198.73 145.932 198.599 145.695 198.605H123.419C123.345 198.599 123.27 198.613 123.203 198.646C123.137 198.678 123.079 198.728 123.038 198.789Z" fill="white"/>
<path d="M127.388 201.451H126.731C126.606 201.451 126.501 201.385 126.514 201.306L126.81 198.526C126.81 198.448 126.934 198.382 127.066 198.382H127.723C127.848 198.382 127.946 198.448 127.94 198.533L127.644 201.306C127.605 201.385 127.486 201.457 127.388 201.451Z" fill="#6348EC"/>
<path d="M143.73 201.451H143.073C142.954 201.451 142.849 201.385 142.862 201.306L143.158 198.533C143.158 198.448 143.276 198.382 143.401 198.382H144.058C144.183 198.382 144.288 198.448 144.275 198.526L143.98 201.299C143.966 201.385 143.861 201.451 143.73 201.451Z" fill="#6348EC"/>
<path d="M136.232 201.437H135.575C135.45 201.437 135.345 201.372 135.358 201.293L135.654 198.52C135.654 198.434 135.779 198.369 135.903 198.369H136.561C136.685 198.369 136.784 198.434 136.777 198.513L136.475 201.286C136.475 201.372 136.363 201.437 136.232 201.437Z" fill="#6348EC"/>
<path d="M129.931 150.117C130.627 153.698 131.311 160.164 128.879 162.109C128.879 162.109 129.852 165.782 136.351 166.761C143.527 167.839 139.761 163.752 139.761 163.752C135.851 162.208 135.95 159.382 136.62 156.78L129.931 150.117Z" fill="#FFB573"/>
<path d="M128.906 162.076C132.373 162.296 135.82 162.775 139.216 163.509L144.131 164.974C145.005 166.735 143.572 170.356 139.459 171.046C139.459 171.046 129.096 172.472 126.041 161.8L128.906 162.076Z" fill="#FFB573"/>
<path opacity="0.2" d="M132.645 152.844L136.587 156.786C136.421 157.397 136.313 158.022 136.265 158.653C134.767 158.212 132.362 156.563 132.198 154.986C132.2 154.249 132.352 153.52 132.645 152.844Z" fill="#010101"/>
<path d="M125.541 145.596C127.302 151.155 127.92 153.547 131.527 155.735C136.903 159.021 143.356 155.656 143.29 149.69C143.237 144.314 140.379 136.127 134.274 135.233C132.932 135.032 131.561 135.177 130.292 135.656C129.022 136.134 127.896 136.93 127.02 137.967C126.145 139.003 125.55 140.247 125.291 141.579C125.032 142.911 125.118 144.287 125.541 145.576V145.596Z" fill="#FFB573"/>
<path d="M138.808 144.728C139.43 145.704 140.184 146.589 141.049 147.357C140.847 147.576 140.599 147.748 140.323 147.862C140.047 147.975 139.75 148.027 139.452 148.014L138.808 144.728Z" fill="#ED893E"/>
<path d="M138.184 150.984C138.406 150.96 138.626 150.916 138.841 150.853C138.858 150.849 138.874 150.842 138.888 150.832C138.902 150.822 138.914 150.809 138.923 150.794C138.932 150.78 138.938 150.763 138.941 150.746C138.944 150.729 138.943 150.712 138.94 150.695C138.93 150.66 138.908 150.631 138.877 150.612C138.847 150.594 138.81 150.588 138.775 150.596C138.214 150.751 137.625 150.772 137.055 150.658C136.484 150.544 135.948 150.298 135.49 149.939C135.463 149.912 135.426 149.897 135.388 149.897C135.35 149.897 135.313 149.912 135.286 149.939C135.273 149.952 135.263 149.967 135.255 149.984C135.248 150.001 135.245 150.019 135.245 150.038C135.245 150.056 135.248 150.074 135.255 150.091C135.263 150.108 135.273 150.124 135.286 150.136C135.69 150.461 136.153 150.703 136.651 150.849C137.148 150.994 137.669 151.04 138.184 150.984Z" fill="#263238"/>
<path d="M123.629 134.497C122.905 134.965 122.304 135.601 121.876 136.35C121.449 137.099 121.207 137.939 121.172 138.801C121.142 139.131 121.194 139.462 121.323 139.767C121.388 139.918 121.491 140.049 121.623 140.147C121.754 140.245 121.909 140.307 122.072 140.326C122.571 140.326 122.939 139.879 123.215 139.458L124.49 137.487C125.015 136.846 125.457 136.142 125.804 135.391C126.232 134.096 124.411 133.998 123.629 134.497Z" fill="#6348EC"/>
<path d="M124.253 135.805C120.764 139.839 119.2 151.004 129.425 154.118C131.133 152.765 128.373 150.301 127.203 147.186C126.435 145.149 130.331 141.344 131.849 139.78C133.367 138.216 134.767 135.962 136.909 136.324C137.453 136.506 138.038 136.522 138.591 136.37C140.293 135.601 139.465 134.582 138.591 133.873C137.251 132.881 135.655 132.292 133.991 132.177C132.197 131.966 130.378 132.185 128.684 132.815C126.991 133.446 125.472 134.471 124.253 135.805Z" fill="#263238"/>
<path d="M135.601 134.451C139.708 137.875 134.287 137.96 131.415 140.128C128.662 142.212 130.594 145.622 125.935 147.206C122.13 148.316 121.25 147.646 120.198 146.91C121.501 146.684 122.693 146.034 123.588 145.061C124.483 144.088 125.031 142.845 125.146 141.528C125.468 139.031 130.909 130.482 135.601 134.451Z" fill="#263238"/>
<path d="M124.923 150.268C125.567 151.195 126.548 151.832 127.657 152.042C129.129 152.298 129.694 150.951 129.188 149.637C128.708 148.454 127.374 146.897 125.948 147.232C125.458 147.359 125.038 147.675 124.781 148.111C124.523 148.547 124.449 149.068 124.575 149.558C124.642 149.816 124.761 150.057 124.923 150.268Z" fill="#FFB573"/>
<path d="M134.898 134.799C135.693 136.823 137.987 136.554 139.682 138.67C140.727 139.984 142.777 135.93 139.984 134.333C137.191 132.736 133.65 131.632 134.898 134.799Z" fill="#263238"/>
<path d="M132.48 143.342C132.538 143.348 132.597 143.335 132.648 143.306C132.699 143.276 132.739 143.231 132.763 143.177C133.301 141.981 134.918 141.679 134.931 141.679C135.003 141.663 135.067 141.62 135.108 141.559C135.15 141.498 135.166 141.424 135.154 141.351C135.14 141.279 135.098 141.217 135.038 141.176C134.978 141.135 134.904 141.12 134.832 141.134C134.747 141.134 132.907 141.521 132.25 142.967C132.221 143.034 132.219 143.11 132.245 143.179C132.27 143.248 132.322 143.304 132.388 143.335H132.48V143.342Z" fill="#263238"/>
<path d="M141.022 140.924C141.07 140.927 141.119 140.917 141.161 140.895C141.204 140.873 141.24 140.84 141.265 140.799C141.286 140.769 141.301 140.736 141.309 140.7C141.317 140.665 141.317 140.628 141.31 140.593C141.304 140.557 141.29 140.523 141.27 140.493C141.249 140.463 141.223 140.438 141.193 140.418C140.829 140.166 140.41 140.005 139.971 139.949C139.532 139.893 139.085 139.943 138.67 140.096C138.635 140.109 138.604 140.13 138.578 140.156C138.551 140.182 138.531 140.214 138.517 140.248C138.504 140.283 138.497 140.32 138.499 140.357C138.5 140.394 138.509 140.43 138.525 140.464C138.554 140.531 138.608 140.583 138.676 140.611C138.744 140.638 138.82 140.637 138.887 140.608C139.214 140.494 139.563 140.46 139.906 140.508C140.249 140.556 140.575 140.685 140.858 140.884C140.909 140.909 140.965 140.923 141.022 140.924Z" fill="#263238"/>
<path d="M168.037 176.894L164.186 179.082L160.184 187.69C160.184 187.69 164.048 190.148 167.097 188.157C170.146 186.166 168.037 176.894 168.037 176.894Z" fill="#6348EC"/>
<path opacity="0.5" d="M168.037 176.894L164.186 179.082L160.184 187.69C160.184 187.69 164.048 190.148 167.097 188.157C170.146 186.166 168.037 176.894 168.037 176.894Z" fill="white"/>
<path d="M100.702 179.556L105.256 180.87L109.573 189.8C109.573 189.8 106.104 193.013 102.345 189.945C99.5324 187.618 100.702 179.556 100.702 179.556Z" fill="#6348EC"/>
<g opacity="0.5">
<path d="M100.702 179.556L105.256 180.87L109.573 189.8C109.573 189.8 106.104 193.013 102.345 189.945C99.5324 187.618 100.702 179.556 100.702 179.556Z" fill="white"/>
</g>
<path d="M140.76 143.151C141.075 143.092 141.417 143.447 141.489 143.933C141.562 144.419 141.384 144.866 141.069 144.919C140.753 144.971 140.412 144.623 140.339 144.137C140.267 143.651 140.444 143.197 140.76 143.151Z" fill="#263238"/>
<path d="M141.733 142.672L140.622 143.217C141.292 143.69 141.733 142.672 141.733 142.672Z" fill="#263238"/>
<path d="M135.273 144.281C135.589 144.222 135.93 144.577 136.003 145.063C136.075 145.55 135.898 145.997 135.582 146.049C135.267 146.102 134.925 145.753 134.853 145.267C134.78 144.781 134.945 144.341 135.273 144.281Z" fill="#263238"/>
<path d="M136.232 143.802L135.122 144.347C135.792 144.82 136.232 143.802 136.232 143.802Z" fill="#263238"/>
<path d="M107.451 169.423C106.832 169.426 106.218 169.31 105.643 169.081C103.606 168.246 102.66 166.131 103.015 163.266C103.026 163.179 103.072 163.101 103.141 163.048C103.21 162.995 103.297 162.972 103.383 162.983C103.426 162.988 103.468 163.001 103.505 163.023C103.543 163.044 103.576 163.073 103.603 163.107C103.629 163.141 103.648 163.181 103.659 163.222C103.67 163.264 103.672 163.308 103.666 163.351C103.324 165.894 104.126 167.76 105.867 168.47C106.878 168.816 107.972 168.833 108.993 168.519C110.014 168.205 110.909 167.576 111.551 166.722C113.2 164.527 112.661 161.412 110.092 158.179C103.363 149.736 103.81 145.247 104.763 141.699C106.143 136.547 110.184 130.646 121.618 131.783C121.705 131.792 121.785 131.835 121.841 131.903C121.896 131.97 121.922 132.057 121.914 132.145C121.905 132.232 121.862 132.312 121.794 132.367C121.726 132.423 121.639 132.449 121.552 132.44C110.585 131.349 106.708 136.974 105.394 141.876C104.448 145.425 104.08 149.571 110.605 157.779C114.547 162.727 112.951 165.966 112.077 167.123C111.53 167.831 110.829 168.406 110.028 168.805C109.227 169.203 108.345 169.414 107.451 169.423Z" fill="#263238"/>
<path d="M280.444 171.537L279.209 173.953C278.776 174.74 278.335 175.597 277.879 176.408C276.966 178.037 276.038 179.65 275.062 181.216C273.199 184.3 271.066 187.213 268.688 189.919C268.098 190.509 267.46 191.217 267.051 191.54C266.479 192.001 265.869 192.412 265.226 192.768C263.693 193.576 262.099 194.26 260.457 194.814C256.92 195.988 253.317 196.957 249.668 197.717L249.92 202.053C254.018 202.293 258.13 202.053 262.172 201.337C264.326 200.964 266.435 200.371 268.468 199.566C269.598 199.115 270.68 198.548 271.694 197.875C272.219 197.525 272.719 197.138 273.189 196.718L274.432 195.624C277.435 192.711 280.101 189.469 282.38 185.961C283.521 184.253 284.599 182.522 285.583 180.744C286.079 179.855 286.566 178.957 287.031 178.053C287.495 177.148 287.936 176.266 288.4 175.243L280.444 171.537Z" fill="#E58A7B"/>
<path d="M251.242 197.717L247.741 195.246L245.891 202.392C245.891 202.392 248.976 203.477 251.297 201.912L251.242 197.717Z" fill="#E58A7B"/>
<path d="M242.909 193.625L241.666 199.606L245.899 202.392L247.749 195.246L242.909 193.625Z" fill="#E58A7B"/>
<path d="M257.994 147.135C258.088 147.591 257.923 148.008 257.624 148.071C257.325 148.134 257.002 147.82 256.908 147.363C256.814 146.907 256.979 146.482 257.278 146.419C257.577 146.356 257.9 146.679 257.994 147.135Z" fill="#263238"/>
<path d="M257.962 148.001C257.709 149.509 257.251 150.976 256.601 152.36C256.958 152.519 257.345 152.597 257.735 152.589C258.126 152.581 258.51 152.486 258.859 152.313L257.962 148.001Z" fill="#DF5753"/>
<path d="M256.751 144.341C256.804 144.341 256.856 144.324 256.9 144.294C257.202 144.131 257.539 144.041 257.882 144.033C258.225 144.025 258.566 144.098 258.875 144.247C258.941 144.277 259.016 144.279 259.084 144.254C259.151 144.229 259.206 144.179 259.237 144.113C259.253 144.08 259.261 144.045 259.263 144.008C259.264 143.972 259.258 143.936 259.244 143.902C259.231 143.868 259.211 143.837 259.185 143.811C259.16 143.785 259.129 143.765 259.096 143.751C258.703 143.564 258.272 143.475 257.838 143.49C257.404 143.505 256.979 143.624 256.601 143.838C256.571 143.857 256.544 143.882 256.524 143.912C256.503 143.941 256.489 143.975 256.481 144.01C256.474 144.045 256.474 144.082 256.481 144.117C256.488 144.152 256.502 144.186 256.522 144.216C256.547 144.254 256.58 144.286 256.62 144.308C256.66 144.33 256.705 144.342 256.751 144.341Z" fill="#263238"/>
<path d="M274.188 148.599C273.401 152.824 272.536 160.575 275.495 163.392C275.495 163.392 274.338 167.689 266.477 167.689C257.821 167.689 262.353 163.392 262.353 163.392C267.075 162.267 266.941 158.773 266.123 155.523L274.188 148.599Z" fill="#E58A7B"/>
<path d="M276.691 164.604C277.257 163.219 277.163 160.67 276.746 160.63C275.109 160.52 266.375 160.497 263.487 161.606C263.105 161.727 262.75 161.922 262.445 162.18C262.139 162.439 261.887 162.756 261.705 163.112C261.523 163.469 261.413 163.858 261.383 164.257C261.352 164.657 261.401 165.058 261.527 165.438L276.691 164.604Z" fill="#6348EC"/>
<path d="M295.993 322.882C296.501 322.88 297.008 322.824 297.504 322.717C297.53 322.713 297.553 322.7 297.572 322.682C297.59 322.664 297.602 322.64 297.607 322.615C297.61 322.588 297.607 322.562 297.597 322.537C297.588 322.512 297.572 322.49 297.551 322.473C297.481 322.426 295.883 321.34 295.041 321.529C294.95 321.549 294.865 321.588 294.79 321.643C294.715 321.699 294.653 321.77 294.608 321.851C294.54 321.947 294.503 322.061 294.503 322.178C294.503 322.295 294.54 322.409 294.608 322.505C294.802 322.657 295.025 322.768 295.263 322.833C295.501 322.898 295.749 322.915 295.993 322.882ZM297.119 322.52C296.253 322.662 295.073 322.662 294.821 322.331C294.821 322.331 294.726 322.206 294.821 321.985C294.846 321.937 294.882 321.895 294.926 321.863C294.969 321.83 295.019 321.807 295.073 321.796C295.813 321.833 296.526 322.091 297.119 322.536V322.52Z" fill="#6348EC"/>
<path d="M297.473 322.741H297.543C297.565 322.728 297.583 322.71 297.594 322.687C297.605 322.665 297.61 322.64 297.606 322.615C297.606 322.544 297.465 320.876 296.819 320.325C296.738 320.258 296.643 320.208 296.542 320.178C296.441 320.148 296.334 320.139 296.229 320.152C296.127 320.153 296.028 320.19 295.949 320.256C295.87 320.322 295.816 320.413 295.796 320.514C295.678 321.159 296.835 322.418 297.425 322.749L297.473 322.741ZM296.308 320.38C296.421 320.381 296.53 320.423 296.615 320.498C297.024 321.016 297.263 321.648 297.299 322.308C296.709 321.859 295.97 320.907 296.04 320.522C296.04 320.522 296.04 320.404 296.245 320.38H296.308Z" fill="#6348EC"/>
<path d="M304.146 322.599H298.362L293.035 309.214H298.811L304.146 322.599Z" fill="#E58A7B"/>
<path d="M297.906 321.93H304.398C304.514 321.931 304.626 321.971 304.716 322.044C304.806 322.117 304.868 322.218 304.893 322.331L306.034 327.47C306.06 327.595 306.058 327.724 306.027 327.848C305.996 327.972 305.938 328.088 305.856 328.186C305.774 328.285 305.672 328.363 305.555 328.416C305.439 328.469 305.312 328.496 305.185 328.493C302.918 328.453 301.817 328.32 298.96 328.32C297.205 328.32 293.586 328.509 291.154 328.509C288.722 328.509 288.416 326.148 289.407 325.888C293.861 324.912 295.537 323.567 296.961 322.292C297.22 322.058 297.557 321.929 297.906 321.93Z" fill="#263238"/>
<path d="M250.841 169.019C249.118 172.166 247.418 175.393 245.742 178.588L240.722 188.18L239.463 190.541C239.197 191.113 238.881 191.661 238.519 192.177C237.639 193.237 236.572 194.125 235.371 194.798C232.463 196.457 229.374 197.777 226.164 198.732L226.652 203.045C227.639 203.066 228.627 203.034 229.611 202.95C230.589 202.888 231.564 202.775 232.53 202.612C234.531 202.303 236.492 201.776 238.377 201.038C240.524 200.232 242.488 199.004 244.153 197.426C244.981 196.569 245.707 195.618 246.317 194.593L247.796 192.233C249.732 189.085 251.597 185.922 253.391 182.742C255.177 179.54 256.908 176.329 258.569 173.048L250.841 169.019Z" fill="#E58A7B"/>
<path d="M290.163 168.185C292.523 173.229 284.977 189.156 284.977 189.156L272.088 183.175C273.494 178.656 275.246 174.253 277.328 170.003C280.696 163.322 287.771 163.031 290.163 168.185Z" fill="#6348EC"/>
<path opacity="0.8" d="M290.163 168.185C292.523 173.229 284.977 189.156 284.977 189.156L272.088 183.175C273.494 178.656 275.246 174.253 277.328 170.003C280.696 163.322 287.771 163.031 290.163 168.185Z" fill="#EDEDED"/>
<path d="M283.246 169.216L286.157 186.488C285.465 188.117 284.977 189.156 284.977 189.156L272.087 183.175C272.087 183.175 277.91 173.111 283.246 169.216Z" fill="#6348EC"/>
<path opacity="0.7" d="M283.246 169.216L286.157 186.488C285.465 188.117 284.977 189.156 284.977 189.156L272.087 183.175C272.087 183.175 277.91 173.111 283.246 169.216Z" fill="#FAFAFA"/>
<path d="M253.461 164.998C253.461 164.998 247.308 171.954 253.115 214.966H284.032C284.253 210.245 281.27 187.07 285.842 164.699C282.425 164.041 278.968 163.604 275.494 163.392C271.118 163.14 266.73 163.14 262.353 163.392C259.352 163.699 256.38 164.236 253.461 164.998Z" fill="#6348EC"/>
<path opacity="0.8" d="M253.461 164.998C253.461 164.998 247.308 171.954 253.115 214.966H284.032C284.253 210.245 281.27 187.07 285.842 164.699C282.425 164.041 278.968 163.604 275.494 163.392C271.118 163.14 266.73 163.14 262.353 163.392C259.352 163.699 256.38 164.236 253.461 164.998Z" fill="#EDEDED"/>
<path d="M250.967 175.235L255.743 187.039L250.967 193.987C250.495 187.746 250.495 181.477 250.967 175.235Z" fill="#6348EC"/>
<path opacity="0.7" d="M250.967 175.235L255.743 187.039L250.967 193.987C250.495 187.746 250.495 181.477 250.967 175.235Z" fill="#FAFAFA"/>
<path d="M260.985 168.814C262.889 174.008 255.24 189.762 255.24 189.762L241.391 182.782C243.165 178.06 245.439 173.541 248.174 169.302C252.321 163.243 258.891 163.141 260.985 168.814Z" fill="#6348EC"/>
<path opacity="0.8" d="M260.985 168.814C262.889 174.008 255.24 189.762 255.24 189.762L241.391 182.782C243.165 178.06 245.439 173.541 248.174 169.302C252.321 163.243 258.891 163.141 260.985 168.814Z" fill="#EDEDED"/>
<path d="M227.313 198.937L221.647 196.671L220.073 203.501C220.073 203.501 224.574 205.13 227.848 202.761L227.313 198.937Z" fill="#E58A7B"/>
<path d="M215.399 196.741L216.272 202.848L220.081 203.501L221.647 196.671L215.399 196.741Z" fill="#E58A7B"/>
<path d="M298.819 309.222H293.035L296.867 318.838L302.218 317.752L298.819 309.222Z" fill="#CF6F64"/>
<path d="M273.016 142.996C273.803 148.67 274.59 151.951 272.379 155.421C269.019 160.638 261.567 159.513 259.065 154.194C256.806 149.409 255.838 140.926 260.859 137.551C261.966 136.812 263.242 136.367 264.568 136.256C265.894 136.145 267.227 136.372 268.441 136.916C269.656 137.46 270.713 138.303 271.513 139.366C272.313 140.43 272.83 141.678 273.016 142.996Z" fill="#E58A7B"/>
<path d="M251.203 133.459C256.098 128.934 252.226 127.785 252.226 127.785C252.226 127.785 257.593 125.566 255.468 130.319C252.501 136.945 260.811 134.907 264.793 130.319C267.248 127.486 273.709 130.39 273.394 133.152C273.079 135.914 283.23 133.773 278.635 139.801C278.548 146.096 276.101 152.218 272.851 153.879C267.279 156.72 263.101 148.772 261.543 142.406C253.139 146.443 246.135 138.141 251.203 133.459Z" fill="#263238"/>
<path d="M265.792 146.199C265.76 147.631 265.26 149.013 264.368 150.133C263.179 151.581 261.826 150.786 261.511 149.11C261.228 147.599 261.511 145.026 263.006 144.184C264.501 143.342 265.8 144.483 265.792 146.199Z" fill="#E58A7B"/>
<path d="M278.58 133.907C276.054 133.811 273.577 134.617 271.592 136.181C271.592 136.181 273.016 130.091 278.58 133.907Z" fill="#263238"/>
<path d="M266.658 214.966C266.658 214.966 265.501 238.384 261.228 259.033C259.867 265.572 260.756 272.575 264.588 278.044C275.849 294.105 293.704 315.493 293.704 315.493L303.06 314.447C303.06 314.447 287.912 286.362 280.153 272.41C278.391 269.263 276.833 266.383 278.162 262.967C291.013 230.35 284.064 214.966 284.064 214.966H266.658Z" fill="#6348EC"/>
<path opacity="0.3" d="M266.658 214.966C266.658 214.966 265.501 238.384 261.228 259.033C259.867 265.572 260.756 272.575 264.588 278.044C275.849 294.105 293.704 315.493 293.704 315.493L303.06 314.447C303.06 314.447 287.912 286.362 280.153 272.41C278.391 269.263 276.833 266.383 278.162 262.967C291.013 230.35 284.064 214.966 284.064 214.966H266.658Z" fill="#010101"/>
<path d="M264.918 235.205L273.873 224.519C274.212 229.311 271.316 247.237 261.385 258.254C262.967 250.487 264.108 242.295 264.918 235.205Z" fill="#6348EC"/>
<path opacity="0.4" d="M264.918 235.205L273.873 224.519C274.212 229.311 271.316 247.237 261.385 258.254C262.967 250.487 264.108 242.295 264.918 235.205Z" fill="#010101"/>
<path d="M291.068 314.069L292.901 317.862L304.178 314.966L303.281 311.449L291.068 314.069Z" fill="#6348EC"/>
<path opacity="0.1" d="M291.068 314.069L292.901 317.862L304.178 314.966L303.281 311.449L291.068 314.069Z" fill="#010101"/>
<path d="M257.467 322.599H251.691L249.999 309.214H255.775L257.467 322.599Z" fill="#E58A7B"/>
<path d="M249.157 322.882C249.754 322.882 250.349 322.827 250.936 322.717C250.963 322.712 250.989 322.699 251.009 322.68C251.028 322.66 251.041 322.634 251.046 322.607C251.051 322.579 251.046 322.55 251.034 322.524C251.021 322.499 251 322.478 250.975 322.465C250.889 322.418 248.874 321.269 247.906 321.529C247.816 321.55 247.731 321.59 247.656 321.645C247.582 321.701 247.52 321.771 247.473 321.851C247.412 321.939 247.379 322.043 247.379 322.15C247.379 322.257 247.412 322.362 247.473 322.449C247.702 322.796 248.418 322.882 249.157 322.882ZM250.495 322.52C249.409 322.67 247.946 322.646 247.686 322.284C247.686 322.237 247.615 322.158 247.686 321.985C247.715 321.937 247.753 321.895 247.799 321.862C247.846 321.83 247.898 321.807 247.953 321.796C248.575 321.647 249.787 322.174 250.456 322.536L250.495 322.52Z" fill="#6348EC"/>
<path d="M250.912 322.741C250.938 322.748 250.965 322.748 250.991 322.741C251.009 322.725 251.023 322.706 251.033 322.684C251.042 322.662 251.047 322.638 251.046 322.615C251.046 322.544 250.881 320.986 250.149 320.388C250.042 320.294 249.917 320.224 249.781 320.184C249.645 320.143 249.502 320.132 249.362 320.152C248.984 320.191 248.882 320.38 248.858 320.537C248.748 321.19 250.133 322.442 250.825 322.748L250.912 322.741ZM249.496 320.38C249.672 320.379 249.843 320.443 249.976 320.561C250.414 321.059 250.688 321.68 250.762 322.339C250.046 321.914 249.11 320.931 249.189 320.537C249.189 320.537 249.189 320.411 249.456 320.38H249.496Z" fill="#6348EC"/>
<path d="M251.526 321.93H257.821C257.936 321.93 258.048 321.97 258.137 322.043C258.226 322.116 258.287 322.218 258.309 322.331L259.458 327.47C259.485 327.594 259.484 327.722 259.455 327.846C259.425 327.969 259.368 328.085 259.288 328.183C259.208 328.281 259.106 328.36 258.991 328.414C258.876 328.468 258.751 328.495 258.624 328.493C256.342 328.453 253.052 328.32 250.196 328.32C246.844 328.32 243.956 328.509 240.029 328.509C237.668 328.509 237 326.148 237.991 325.888C242.516 324.897 246.206 324.794 250.117 322.386C250.533 322.102 251.022 321.944 251.526 321.93Z" fill="#263238"/>
<path d="M255.775 309.222H249.991L251.234 318.971L256.9 318.098L255.775 309.222Z" fill="#CF6F64"/>
<path d="M253.115 214.966C253.115 214.966 248.276 231.145 240.281 251.951C237.676 258.718 236.669 265.234 238.479 270.962C244.089 288.746 248.937 315.493 248.937 315.493L258.576 314.447C258.576 314.447 258.946 287.165 255.531 273.103C253.776 265.887 254.374 263.259 256.176 260.874C280.727 228.21 274.133 214.99 274.133 214.99L253.115 214.966Z" fill="#6348EC"/>
<path opacity="0.3" d="M253.115 214.966C253.115 214.966 248.276 231.145 240.281 251.951C237.676 258.718 236.669 265.234 238.479 270.962C244.089 288.746 248.937 315.493 248.937 315.493L258.576 314.447C258.576 314.447 258.946 287.165 255.531 273.103C253.776 265.887 254.374 263.259 256.176 260.874C280.727 228.21 274.133 214.99 274.133 214.99L253.115 214.966Z" fill="#010101"/>
<path d="M247.268 313.856L247.772 317.696L259.15 315.769L259.489 312.259L247.268 313.856Z" fill="#6348EC"/>
<path opacity="0.1" d="M247.268 313.856L247.772 317.696L259.15 315.769L259.489 312.259L247.268 313.856Z" fill="#010101"/>
</svg>
