<svg width="10" height="14" viewBox="0 0 10 14" fill="none" xmlns="http://www.w3.org/2000/svg">
<path d="M4.66667 6.33333C4.22464 6.33333 3.80072 6.15774 3.48816 5.84518C3.17559 5.53262 3 5.10869 3 4.66667C3 4.22464 3.17559 3.80072 3.48816 3.48816C3.80072 3.17559 4.22464 3 4.66667 3C5.10869 3 5.53262 3.17559 5.84518 3.48816C6.15774 3.80072 6.33333 4.22464 6.33333 4.66667C6.33333 4.88554 6.29022 5.10226 6.20647 5.30447C6.12271 5.50668 5.99994 5.69041 5.84518 5.84518C5.69041 5.99994 5.50668 6.12271 5.30447 6.20647C5.10226 6.29022 4.88554 6.33333 4.66667 6.33333ZM4.66667 0C3.42899 0 2.242 0.491665 1.36683 1.36683C0.491665 2.242 0 3.42899 0 4.66667C0 8.16667 4.66667 13.3333 4.66667 13.3333C4.66667 13.3333 9.33333 8.16667 9.33333 4.66667C9.33333 3.42899 8.84167 2.242 7.9665 1.36683C7.09133 0.491665 5.90434 0 4.66667 0Z" fill="currentColor" fill-opacity="0.2"/>
</svg>
