<svg width="389" height="389" viewBox="0 0 389 389" fill="none" xmlns="http://www.w3.org/2000/svg">
<path d="M319.805 144.451C321.952 130.338 322.139 116.358 315.137 102.642C289.463 52.2038 212.643 63.5626 173.875 89.5478C146.645 107.815 141.199 139.846 120.458 163.007C104.12 181.251 85.261 170.639 64.5428 171.977C35.1811 173.883 42.5954 203.696 52.6861 221.465C64.4183 242.121 86.8248 254.811 108.562 262.412C130.805 270.192 153.538 275.249 175.82 282.819C212.651 295.329 273.506 322.232 299.6 277.637C306.602 265.648 305.824 250.5 306.197 237.181C306.905 213.063 311.169 189.21 315.798 165.605C317.198 158.494 318.747 151.453 319.805 144.451Z" fill="#E3DFF1"/>
<path d="M194.5 332.642C111.19 332.642 43.6536 328.699 43.6536 323.835C43.6536 318.971 111.19 315.028 194.5 315.028C277.81 315.028 345.346 318.971 345.346 323.835C345.346 328.699 277.81 332.642 194.5 332.642Z" fill="#F5F5F5"/>
<path d="M184.207 83.7439H43.8403L170.359 87.1671L105.582 88.2018L181.196 92.652L184.207 83.7439Z" fill="#6348EC"/>
<path opacity="0.8" d="M184.207 83.7439H43.8403L170.359 87.1671L105.582 88.2018L181.196 92.652L184.207 83.7439Z" fill="white"/>
<path d="M178.364 94.7604L183.328 93.9824C183.512 93.9529 183.7 93.9686 183.876 94.0282C184.052 94.0879 184.211 94.1897 184.339 94.3247L187.817 97.9502C187.965 98.1057 188.153 98.2165 188.361 98.2699C188.569 98.3233 188.787 98.3172 188.992 98.2523C189.196 98.1874 189.379 98.0663 189.517 97.9028C189.656 97.7393 189.746 97.54 189.777 97.3278L190.555 92.3641C190.585 92.1806 190.658 92.0069 190.769 91.8578C190.88 91.7088 191.026 91.5889 191.193 91.5083L195.721 89.3221C195.913 89.2267 196.075 89.0797 196.187 88.8976C196.3 88.7155 196.36 88.5055 196.36 88.2913C196.36 88.0771 196.3 87.8671 196.187 87.685C196.075 87.5029 195.913 87.3559 195.721 87.2605L191.232 85.0043C191.067 84.9199 190.924 84.7964 190.817 84.6446C190.71 84.4928 190.642 84.3171 190.618 84.1329L189.933 79.1537C189.903 78.9421 189.815 78.743 189.678 78.5788C189.541 78.4146 189.361 78.2917 189.159 78.2238C188.956 78.156 188.738 78.1459 188.53 78.1947C188.322 78.2435 188.132 78.3493 187.98 78.5002L184.448 82.0634C184.317 82.1952 184.156 82.2937 183.978 82.3505C183.801 82.4074 183.613 82.421 183.429 82.3902L178.481 81.4955C178.27 81.4592 178.054 81.4823 177.856 81.562C177.658 81.6418 177.485 81.7751 177.359 81.947C177.232 82.119 177.156 82.3228 177.138 82.5357C177.121 82.7486 177.163 82.9622 177.259 83.1526L179.593 87.6183C179.68 87.7826 179.725 87.9656 179.725 88.1513C179.725 88.337 179.68 88.5199 179.593 88.6842L177.259 93.111C177.172 93.2917 177.134 93.492 177.148 93.6921C177.162 93.8921 177.228 94.0851 177.34 94.2517C177.452 94.4183 177.605 94.5529 177.785 94.6422C177.964 94.7314 178.164 94.7721 178.364 94.7604Z" fill="#6348EC"/>
<path opacity="0.4" d="M178.364 94.7604L183.328 93.9824C183.512 93.9529 183.7 93.9686 183.876 94.0282C184.052 94.0879 184.211 94.1897 184.339 94.3247L187.817 97.9502C187.965 98.1057 188.153 98.2165 188.361 98.2699C188.569 98.3233 188.787 98.3172 188.992 98.2523C189.196 98.1874 189.379 98.0663 189.517 97.9028C189.656 97.7393 189.746 97.54 189.777 97.3278L190.555 92.3641C190.585 92.1806 190.658 92.0069 190.769 91.8578C190.88 91.7088 191.026 91.5889 191.193 91.5083L195.721 89.3221C195.913 89.2267 196.075 89.0797 196.187 88.8976C196.3 88.7155 196.36 88.5055 196.36 88.2913C196.36 88.0771 196.3 87.8671 196.187 87.685C196.075 87.5029 195.913 87.3559 195.721 87.2605L191.232 85.0043C191.067 84.9199 190.924 84.7964 190.817 84.6446C190.71 84.4928 190.642 84.3171 190.618 84.1329L189.933 79.1537C189.903 78.9421 189.815 78.743 189.678 78.5788C189.541 78.4146 189.361 78.2917 189.159 78.2238C188.956 78.156 188.738 78.1459 188.53 78.1947C188.322 78.2435 188.132 78.3493 187.98 78.5002L184.448 82.0634C184.317 82.1952 184.156 82.2937 183.978 82.3505C183.801 82.4074 183.613 82.421 183.429 82.3902L178.481 81.4955C178.27 81.4592 178.054 81.4823 177.856 81.562C177.658 81.6418 177.485 81.7751 177.359 81.947C177.232 82.119 177.156 82.3228 177.138 82.5357C177.121 82.7486 177.163 82.9622 177.259 83.1526L179.593 87.6183C179.68 87.7826 179.725 87.9656 179.725 88.1513C179.725 88.337 179.68 88.5199 179.593 88.6842L177.259 93.111C177.172 93.2917 177.134 93.492 177.148 93.6921C177.162 93.8921 177.228 94.0851 177.34 94.2517C177.452 94.4183 177.605 94.5529 177.785 94.6422C177.964 94.7314 178.164 94.7721 178.364 94.7604Z" fill="white"/>
<path d="M126.526 268.029H41.1873L118.1 270.106L78.7258 270.736L124.69 273.444L126.526 268.029Z" fill="#6348EC"/>
<path opacity="0.8" d="M126.526 268.029H41.1873L118.1 270.106L78.7258 270.736L124.69 273.444L126.526 268.029Z" fill="white"/>
<path d="M122.971 274.727L125.989 274.237C126.1 274.219 126.214 274.228 126.321 274.263C126.428 274.298 126.525 274.359 126.604 274.439L128.712 276.641C128.802 276.736 128.917 276.803 129.043 276.836C129.17 276.868 129.303 276.865 129.427 276.826C129.552 276.787 129.663 276.715 129.748 276.616C129.834 276.517 129.89 276.397 129.91 276.268L130.377 273.249C130.394 273.138 130.438 273.033 130.504 272.942C130.571 272.851 130.658 272.778 130.758 272.728L133.513 271.397C133.629 271.339 133.727 271.25 133.795 271.139C133.863 271.029 133.9 270.901 133.9 270.771C133.9 270.641 133.863 270.514 133.795 270.403C133.727 270.292 133.629 270.203 133.513 270.145L130.79 268.776C130.688 268.724 130.601 268.65 130.534 268.558C130.468 268.466 130.425 268.359 130.408 268.247L129.996 265.22C129.978 265.091 129.924 264.969 129.841 264.869C129.757 264.769 129.648 264.694 129.524 264.652C129.4 264.611 129.267 264.605 129.14 264.636C129.014 264.666 128.898 264.731 128.806 264.823L126.658 266.986C126.578 267.067 126.48 267.127 126.372 267.163C126.263 267.198 126.148 267.207 126.036 267.189L123.033 266.644C122.903 266.614 122.767 266.622 122.641 266.667C122.516 266.712 122.406 266.792 122.324 266.898C122.242 267.003 122.192 267.13 122.18 267.263C122.168 267.395 122.194 267.529 122.255 267.648L123.655 270.363C123.709 270.463 123.737 270.575 123.737 270.69C123.737 270.804 123.709 270.916 123.655 271.016L122.216 273.708C122.153 273.825 122.124 273.958 122.134 274.091C122.143 274.223 122.19 274.351 122.269 274.458C122.349 274.565 122.457 274.647 122.581 274.695C122.705 274.742 122.84 274.754 122.971 274.727Z" fill="#6348EC"/>
<path opacity="0.4" d="M122.971 274.727L125.989 274.237C126.1 274.219 126.214 274.228 126.321 274.263C126.428 274.298 126.525 274.359 126.604 274.439L128.712 276.641C128.802 276.736 128.917 276.803 129.043 276.836C129.17 276.868 129.303 276.865 129.427 276.826C129.552 276.787 129.663 276.715 129.748 276.616C129.834 276.517 129.89 276.397 129.91 276.268L130.377 273.249C130.394 273.138 130.438 273.033 130.504 272.942C130.571 272.851 130.658 272.778 130.758 272.728L133.513 271.397C133.629 271.339 133.727 271.25 133.795 271.139C133.863 271.029 133.9 270.901 133.9 270.771C133.9 270.641 133.863 270.514 133.795 270.403C133.727 270.292 133.629 270.203 133.513 270.145L130.79 268.776C130.688 268.724 130.601 268.65 130.534 268.558C130.468 268.466 130.425 268.359 130.408 268.247L129.996 265.22C129.978 265.091 129.924 264.969 129.841 264.869C129.757 264.769 129.648 264.694 129.524 264.652C129.4 264.611 129.267 264.605 129.14 264.636C129.014 264.666 128.898 264.731 128.806 264.823L126.658 266.986C126.578 267.067 126.48 267.127 126.372 267.163C126.263 267.198 126.148 267.207 126.036 267.189L123.033 266.644C122.903 266.614 122.767 266.622 122.641 266.667C122.516 266.712 122.406 266.792 122.324 266.898C122.242 267.003 122.192 267.13 122.18 267.263C122.168 267.395 122.194 267.529 122.255 267.648L123.655 270.363C123.709 270.463 123.737 270.575 123.737 270.69C123.737 270.804 123.709 270.916 123.655 271.016L122.216 273.708C122.153 273.825 122.124 273.958 122.134 274.091C122.143 274.223 122.19 274.351 122.269 274.458C122.349 274.565 122.457 274.647 122.581 274.695C122.705 274.742 122.84 274.754 122.971 274.727Z" fill="white"/>
<path d="M295.523 54.4055H210.184L287.105 56.4828L247.723 57.113L293.687 59.8204L295.523 54.4055Z" fill="#6348EC"/>
<path opacity="0.8" d="M295.523 54.4055H210.184L287.105 56.4828L247.723 57.113L293.687 59.8204L295.523 54.4055Z" fill="white"/>
<path d="M291.968 61.1041L294.986 60.614C295.098 60.5951 295.212 60.6036 295.319 60.6389C295.426 60.6742 295.523 60.735 295.601 60.8162L297.717 63.018C297.808 63.1103 297.923 63.1755 298.049 63.2065C298.174 63.2375 298.306 63.233 298.43 63.1935C298.553 63.154 298.663 63.081 298.747 62.9827C298.832 62.8844 298.887 62.7647 298.908 62.6368L299.374 59.6181C299.391 59.507 299.435 59.4017 299.501 59.3109C299.568 59.2202 299.655 59.1468 299.756 59.0969L302.51 57.7665C302.626 57.7083 302.724 57.6189 302.792 57.5083C302.861 57.3977 302.897 57.2702 302.897 57.1402C302.897 57.0102 302.861 56.8827 302.792 56.7721C302.724 56.6614 302.626 56.5721 302.51 56.5139L299.787 55.1446C299.685 55.0934 299.598 55.0187 299.532 54.9266C299.465 54.8345 299.422 54.7279 299.405 54.6156L298.993 51.5892C298.977 51.4599 298.924 51.3379 298.842 51.2371C298.759 51.1364 298.65 51.0609 298.526 51.0195C298.403 50.978 298.27 50.9723 298.144 51.0029C298.017 51.0335 297.901 51.0991 297.811 51.1924L295.64 53.363C295.561 53.4437 295.464 53.5042 295.357 53.5394C295.25 53.5746 295.136 53.5835 295.025 53.5653L292.014 53.0207C291.884 52.9874 291.746 52.9931 291.619 53.0369C291.491 53.0808 291.379 53.1609 291.297 53.2675C291.214 53.3741 291.164 53.5025 291.154 53.6369C291.143 53.7714 291.172 53.906 291.236 54.0243L292.629 56.7395C292.683 56.84 292.711 56.9523 292.711 57.0663C292.711 57.1803 292.683 57.2925 292.629 57.393L291.182 60.0849C291.115 60.2046 291.085 60.3411 291.095 60.4777C291.105 60.6143 291.155 60.745 291.239 60.8535C291.323 60.9619 291.436 61.0435 291.566 61.0881C291.695 61.1326 291.835 61.1382 291.968 61.1041Z" fill="#6348EC"/>
<path opacity="0.4" d="M291.968 61.1041L294.986 60.614C295.098 60.5951 295.212 60.6036 295.319 60.6389C295.426 60.6742 295.523 60.735 295.601 60.8162L297.717 63.018C297.808 63.1103 297.923 63.1755 298.049 63.2065C298.174 63.2375 298.306 63.233 298.43 63.1935C298.553 63.154 298.663 63.081 298.747 62.9827C298.832 62.8844 298.887 62.7647 298.908 62.6368L299.374 59.6181C299.391 59.507 299.435 59.4017 299.501 59.3109C299.568 59.2202 299.655 59.1468 299.756 59.0969L302.51 57.7665C302.626 57.7083 302.724 57.6189 302.792 57.5083C302.861 57.3977 302.897 57.2702 302.897 57.1402C302.897 57.0102 302.861 56.8827 302.792 56.7721C302.724 56.6614 302.626 56.5721 302.51 56.5139L299.787 55.1446C299.685 55.0934 299.598 55.0187 299.532 54.9266C299.465 54.8345 299.422 54.7279 299.405 54.6156L298.993 51.5892C298.977 51.4599 298.924 51.3379 298.842 51.2371C298.759 51.1364 298.65 51.0609 298.526 51.0195C298.403 50.978 298.27 50.9723 298.144 51.0029C298.017 51.0335 297.901 51.0991 297.811 51.1924L295.64 53.363C295.561 53.4437 295.464 53.5042 295.357 53.5394C295.25 53.5746 295.136 53.5835 295.025 53.5653L292.014 53.0207C291.884 52.9874 291.746 52.9931 291.619 53.0369C291.491 53.0808 291.379 53.1609 291.297 53.2675C291.214 53.3741 291.164 53.5025 291.154 53.6369C291.143 53.7714 291.172 53.906 291.236 54.0243L292.629 56.7395C292.683 56.84 292.711 56.9523 292.711 57.0663C292.711 57.1803 292.683 57.2925 292.629 57.393L291.182 60.0849C291.115 60.2046 291.085 60.3411 291.095 60.4777C291.105 60.6143 291.155 60.745 291.239 60.8535C291.323 60.9619 291.436 61.0435 291.566 61.0881C291.695 61.1326 291.835 61.1382 291.968 61.1041Z" fill="white"/>
<path d="M296.931 294.232C296.931 294.232 297.39 287.541 296.006 285.969C294.621 284.398 284.11 278.633 284.11 278.633C284.11 278.633 283.332 279.971 285.261 281.2L282.982 280.741C282.982 280.741 282.515 282.126 284.725 283.2C284.725 283.2 282.772 283.713 284.157 286.996C285.542 290.28 296.931 294.232 296.931 294.232Z" fill="#6348EC"/>
<path opacity="0.4" d="M296.931 294.232C296.931 294.232 297.39 287.541 296.006 285.969C294.621 284.398 284.11 278.633 284.11 278.633C284.11 278.633 283.332 279.971 285.261 281.2L282.982 280.741C282.982 280.741 282.515 282.126 284.725 283.2C284.725 283.2 282.772 283.713 284.157 286.996C285.542 290.28 296.931 294.232 296.931 294.232Z" fill="white"/>
<path d="M305.248 292.528C305.248 288.685 300.417 288.638 294.776 291.314C292.442 292.411 288.459 288.296 285.261 286.514C280.259 283.737 271.592 283.309 262.769 282.282C262.769 282.282 261.704 283.635 264.699 284.616L260.692 285.58C260.692 285.58 260.474 287.432 264.699 287.634C264.699 287.634 263.532 288.84 264.504 291.377C266.208 295.842 274.922 296.457 274.922 296.457C274.922 296.457 270.69 297.461 260.14 295.998C263.157 299.108 267.203 301.014 271.522 301.358L276.501 300.744C280.252 302.624 284.522 303.201 288.638 302.385C295.204 300.946 299.53 296.434 301.358 295.819C303.187 295.204 305.248 293.749 305.248 292.528Z" fill="#6348EC"/>
<path opacity="0.6" d="M260.148 295.975C263.159 299.092 267.202 301.006 271.522 301.358L276.501 300.744C280.252 302.624 284.522 303.201 288.638 302.385C289.523 302.184 290.394 301.925 291.244 301.607C296.356 299.748 299.802 296.332 301.358 295.803C303.202 295.189 305.248 293.734 305.248 292.505C305.248 288.661 300.417 288.615 294.776 291.291C292.442 292.388 288.459 288.272 285.261 286.491C280.259 283.713 271.592 283.285 262.769 282.258C262.769 282.258 261.704 283.612 264.699 284.592L260.692 285.557C260.692 285.557 260.474 287.409 264.699 287.611C264.699 287.611 263.532 288.817 264.504 291.353C265.189 293.143 266.994 294.31 268.916 295.064C270.846 295.793 272.867 296.253 274.922 296.434C274.922 296.434 270.69 297.437 260.148 295.975Z" fill="white"/>
<path d="M305.108 291.485C306.037 291.695 306.929 292.044 307.753 292.52C306.79 293.112 305.74 293.548 304.641 293.812L304.501 292.652L305.108 291.485Z" fill="#6348EC"/>
<path d="M303.07 291.369C303.07 291.54 303.156 291.68 303.257 291.68C303.358 291.68 303.451 291.54 303.451 291.369C303.451 291.198 303.366 291.05 303.257 291.05C303.148 291.05 303.07 291.19 303.07 291.369Z" fill="#263238"/>
<path opacity="0.2" d="M264.699 287.611C264.699 287.611 263.532 288.817 264.504 291.353C265.189 293.143 266.994 294.31 268.916 295.064L274.922 296.418C274.922 296.418 284.468 298.526 289.541 295.189C289.541 295.189 284.367 291.75 282.702 289.292C281.037 286.833 265.228 285.238 262.77 282.29C262.77 282.29 261.704 283.643 264.699 284.624L260.692 285.588C260.692 285.588 260.474 287.409 264.699 287.611Z" fill="black"/>
<path opacity="0.2" d="M260.147 295.975C263.159 299.092 267.202 301.006 271.522 301.358L276.501 300.744C280.252 302.624 284.522 303.201 288.638 302.385C289.523 302.185 290.394 301.925 291.244 301.607C288.302 302.094 285.297 302.038 282.375 301.444C279.502 300.804 276.831 299.468 274.595 297.554C274.595 297.554 263.936 298.075 260.147 295.975Z" fill="black"/>
<path d="M353.095 192.944C353.095 192.944 353.368 188.953 352.543 188.011C351.718 187.07 345.432 183.662 345.432 183.662C345.432 183.662 344.973 184.44 346.117 185.218L344.755 184.938C344.755 184.938 344.483 185.763 345.798 186.409C345.798 186.409 344.638 186.712 345.463 188.673C346.288 190.633 353.095 192.944 353.095 192.944Z" fill="#6348EC"/>
<path opacity="0.4" d="M353.095 192.944C353.095 192.944 353.368 188.953 352.543 188.011C351.718 187.07 345.432 183.662 345.432 183.662C345.432 183.662 344.973 184.44 346.117 185.218L344.755 184.938C344.755 184.938 344.483 185.763 345.798 186.409C345.798 186.409 344.638 186.712 345.463 188.673C346.288 190.633 353.095 192.944 353.095 192.944Z" fill="white"/>
<path d="M358.059 191.948C358.059 189.653 355.172 189.614 351.835 191.225C350.45 191.878 348.069 189.42 346.155 188.362C343.176 186.704 338.002 186.448 332.735 185.833C332.735 185.833 332.105 186.611 333.886 187.218L331.498 187.794C331.498 187.794 331.366 188.898 333.886 189.015C333.886 189.015 333.194 189.739 333.77 191.256C334.789 193.917 339.994 194.282 339.994 194.282C339.994 194.282 337.473 194.881 331.179 194.01C332.978 195.874 335.396 197.017 337.979 197.223L340.904 196.834C343.139 197.95 345.68 198.295 348.132 197.814C352.022 196.951 354.62 194.259 355.725 193.924C356.83 193.59 358.051 192.68 358.059 191.948Z" fill="#6348EC"/>
<path opacity="0.6" d="M331.14 194.01C332.939 195.874 335.357 197.017 337.94 197.223L340.912 196.834C343.144 197.95 345.683 198.295 348.132 197.814C348.659 197.694 349.179 197.541 349.688 197.355C352.737 196.243 354.776 194.243 355.725 193.893C356.822 193.528 358.059 192.656 358.059 191.925C358.059 189.63 355.172 189.591 351.835 191.201C350.45 191.855 348.069 189.396 346.155 188.338C343.176 186.681 338.002 186.424 332.735 185.81C332.735 185.81 332.097 186.588 333.886 187.195L331.498 187.77C331.498 187.77 331.366 188.875 333.886 188.992C333.886 188.992 333.194 189.715 333.77 191.225C334.034 191.755 334.405 192.225 334.859 192.607C335.312 192.988 335.839 193.272 336.407 193.442C337.558 193.875 338.761 194.15 339.986 194.259C339.986 194.259 337.434 194.881 331.14 194.01Z" fill="white"/>
<path d="M357.973 191.333C358.52 191.459 359.044 191.666 359.529 191.948C358.949 192.305 358.317 192.568 357.654 192.726L357.577 192.034L357.973 191.333Z" fill="#6348EC"/>
<path d="M356.752 191.256C356.752 191.365 356.806 191.45 356.869 191.45C356.931 191.45 356.985 191.365 356.985 191.256C356.985 191.147 356.931 191.069 356.869 191.069C356.806 191.069 356.752 191.155 356.752 191.256Z" fill="#263238"/>
<path opacity="0.2" d="M333.855 189.054C333.855 189.054 333.163 189.778 333.739 191.287C334.003 191.817 334.374 192.288 334.827 192.669C335.281 193.05 335.808 193.335 336.376 193.504L339.986 194.282C339.986 194.282 345.689 195.543 348.715 193.551C348.715 193.551 345.603 191.497 344.631 190.027C343.658 188.556 334.205 187.615 332.735 185.833C332.735 185.833 332.097 186.611 333.886 187.218L331.498 187.794C331.498 187.794 331.335 188.898 333.855 189.054Z" fill="black"/>
<path opacity="0.2" d="M331.14 194.01C332.939 195.874 335.357 197.017 337.94 197.223L340.912 196.834C343.144 197.95 345.683 198.295 348.132 197.814C348.659 197.694 349.179 197.541 349.688 197.355C347.933 197.645 346.14 197.613 344.397 197.262C342.673 196.879 341.07 196.077 339.729 194.928C339.729 194.928 333.404 195.278 331.14 194.01Z" fill="black"/>
<path d="M348.544 111.098L356.643 107.115C356.643 107.115 359.591 103.225 361 102.26C362.408 101.296 365.987 104.672 366.189 105.66C366.391 106.648 360.276 110.966 360.276 110.966L358.502 111.036L349.322 116.801L348.544 111.098Z" fill="#EEC1BB"/>
<path d="M315.23 118.933C315.23 118.933 325.608 118.723 330.432 117.377C335.256 116.031 354.464 107.691 354.464 107.691L355.406 113.705C355.406 113.705 337.403 125.009 333.093 126.153C328.783 127.296 314.032 128.977 314.032 128.977L315.23 118.933Z" fill="#263238"/>
<path opacity="0.1" d="M314.032 128.992C314.032 128.992 319.478 128.37 324.753 127.623C328.121 127.141 331.404 126.612 333.093 126.168C337.403 125.032 355.406 113.72 355.406 113.72L354.464 107.706C354.464 107.706 335.248 116.07 330.432 117.392C325.616 118.715 315.23 118.948 315.23 118.948L314.514 124.986L314.032 128.992Z" fill="white"/>
<path opacity="0.2" d="M314.032 128.992C314.032 128.992 319.478 128.37 324.753 127.623C322.419 126.285 318.529 124.511 314.514 124.97L314.032 128.992Z" fill="black"/>
<path d="M237.671 116.373L241.647 114.467L244.946 119.688L247.972 124.48L243.623 127.506L240.472 121.609L237.671 116.373Z" fill="#EEC1BB"/>
<path d="M242.619 114.319C242.821 114.763 237.274 116.996 237.274 116.996C237.274 116.996 232.35 115.214 228.771 115.992C225.192 116.77 226.063 113.985 229.658 112.265L238.55 108.01C241.102 106.788 240.55 109.698 242.619 114.319Z" fill="#263238"/>
<path d="M233.781 116.972C233.607 117.041 233.462 117.168 233.369 117.33C233.324 117.437 233.314 117.555 233.339 117.668C233.364 117.78 233.423 117.883 233.509 117.96C233.566 118.03 233.637 118.086 233.718 118.126C233.798 118.167 233.886 118.19 233.976 118.194C234.432 118.164 234.871 118.008 235.244 117.743C234.917 118.186 234.668 118.653 234.793 118.948C234.917 119.244 235.057 119.229 235.36 119.229C235.494 119.23 235.626 119.203 235.748 119.15C235.87 119.096 235.98 119.017 236.068 118.917C236.644 118.264 236.504 116.801 236.496 116.723C236.502 116.706 236.502 116.687 236.496 116.669H236.442C235.544 116.611 234.643 116.713 233.781 116.972ZM234.691 117.688C234.479 117.806 234.242 117.87 233.999 117.875C233.952 117.874 233.905 117.863 233.862 117.843C233.819 117.822 233.781 117.794 233.75 117.758C233.602 117.579 233.641 117.486 233.657 117.462C233.804 117.128 234.933 116.957 235.89 116.91C235.519 117.211 235.117 117.472 234.691 117.688ZM235.633 118.855C235.547 118.894 235.454 118.913 235.36 118.91C235.267 118.91 235.112 118.91 235.08 118.824C234.979 118.575 235.547 117.789 236.201 117.105C236.252 117.664 236.124 118.225 235.835 118.707C235.776 118.767 235.708 118.817 235.633 118.855Z" fill="#6348EC"/>
<path opacity="0.2" d="M240.41 121.492L244.899 119.579L247.941 124.426L243.607 127.483L240.41 121.492Z" fill="black"/>
<path d="M240.729 123.593C240.729 123.593 243.296 128.261 246.735 133.979C249.675 138.979 252.885 143.815 256.351 148.466L256.545 148.715C257.699 150.26 259.002 151.688 260.435 152.978C263.719 155.709 269.157 156.09 274.579 155.312C280.181 154.472 285.759 152.364 288.918 150.263C291.509 148.579 293.864 146.556 295.92 144.249L291.991 133.552C291.991 133.552 282.227 136.15 266.076 142.693L265.664 142.864L258.086 133.917L247.404 121.282L240.729 123.593Z" fill="#6348EC"/>
<path d="M248.12 121.633L240.472 124.465L239.803 123.041L247.038 120.473L248.12 121.633Z" fill="#6348EC"/>
<path opacity="0.2" d="M256.545 148.715C257.699 150.26 259.002 151.688 260.435 152.978C263.719 155.709 269.157 156.09 274.579 155.312C277.246 153.156 279.588 150.628 281.535 147.804L288.148 146.801L281.636 145.245L256.545 148.715Z" fill="black"/>
<path opacity="0.2" d="M248.12 121.633L240.472 124.465L239.803 123.041L247.038 120.473L248.12 121.633Z" fill="black"/>
<path opacity="0.2" d="M246.735 133.979C249.675 138.979 252.885 143.815 256.351 148.466L266.683 143.876L266.076 142.693L265.663 142.864L258.086 133.917C255.277 133.855 251.107 133.816 246.735 133.979Z" fill="black"/>
<path d="M211.733 135.31L213.927 131.498L219.606 133.94L224.811 136.181L222.928 141.137L217 138.056L211.733 135.31Z" fill="#EEC1BB"/>
<path d="M214.65 130.821C215.062 131.07 211.748 136.049 211.748 136.049C211.748 136.049 206.683 137.364 204.17 140.032C201.657 142.701 200.802 139.908 202.793 136.453C204.785 132.999 206.31 130.369 207.726 127.895C209.142 125.421 210.348 128.199 214.65 130.821Z" fill="#263238"/>
<path d="M208.854 138.002C208.751 138.158 208.702 138.344 208.714 138.531C208.741 138.644 208.801 138.747 208.887 138.827C208.973 138.906 209.081 138.957 209.196 138.974C209.281 138.997 209.369 139.003 209.456 138.991C209.543 138.979 209.627 138.95 209.702 138.904C210.056 138.619 210.326 138.243 210.48 137.815C210.48 138.367 210.519 138.889 210.783 139.068C210.885 139.119 211 139.138 211.113 139.121C211.226 139.104 211.331 139.053 211.414 138.974C211.524 138.901 211.617 138.804 211.687 138.691C211.757 138.579 211.801 138.452 211.818 138.321C211.927 137.449 210.986 136.329 210.931 136.267C210.877 136.204 210.931 136.267 210.885 136.228H210.838C210.818 136.221 210.796 136.221 210.776 136.228C210.038 136.705 209.388 137.305 208.854 138.002ZM210.013 138.087C209.902 138.303 209.742 138.489 209.546 138.632C209.508 138.657 209.464 138.673 209.418 138.68C209.373 138.686 209.326 138.683 209.282 138.671C209.048 138.608 209.033 138.515 209.025 138.484C208.971 138.126 209.803 137.34 210.581 136.765C210.434 137.222 210.243 137.665 210.013 138.087ZM211.452 138.507C211.405 138.592 211.338 138.663 211.258 138.717C211.18 138.764 211.048 138.85 210.978 138.803C210.752 138.655 210.776 137.683 210.931 136.749C211.293 137.19 211.503 137.735 211.53 138.305C211.514 138.368 211.488 138.429 211.452 138.484V138.507Z" fill="#6348EC"/>
<path opacity="0.2" d="M216.883 137.986L219.497 133.878L224.756 136.15L222.905 141.121L216.883 137.986Z" fill="black"/>
<path d="M292.022 131.326C292.022 131.326 278.135 126.145 249.792 141.347L222.516 133.878L218.33 139.542C218.33 139.542 242.573 151.827 251.208 152.644C259.844 153.461 281.224 146.007 281.224 146.007L298.386 141.596L292.022 131.326Z" fill="#6348EC"/>
<path d="M223.768 133.528H222.135L217.498 139.628L219.131 140.577L223.768 133.528Z" fill="#6348EC"/>
<path opacity="0.2" d="M223.768 133.528H222.135L217.498 139.628L219.131 140.577L223.768 133.528Z" fill="black"/>
<path d="M278.734 129.755C278.734 129.755 281.309 143.043 291.439 145.074C293.041 145.417 294.693 145.454 296.309 145.183C297.848 144.891 299.315 144.298 300.625 143.438C301.934 142.578 303.061 141.469 303.941 140.172C304.478 139.446 304.935 138.663 305.303 137.838L290.599 130.393L289.385 129.77C287.482 129.38 285.552 129.133 283.612 129.031C281.722 128.938 279.831 129.078 278.734 129.755Z" fill="#263238"/>
<path opacity="0.2" d="M278.734 129.755C278.734 129.755 281.309 143.043 291.439 145.074C293.041 145.417 294.693 145.454 296.309 145.183C297.848 144.891 299.315 144.298 300.625 143.438C301.934 142.578 303.061 141.469 303.941 140.172C304.478 139.446 304.935 138.663 305.303 137.838L290.599 130.393L289.385 129.77C287.482 129.38 285.552 129.133 283.612 129.031C281.722 128.938 279.831 129.078 278.734 129.755Z" fill="white"/>
<path opacity="0.2" d="M287.751 138.336C290.668 141.448 293.391 143.782 296.309 145.183C297.848 144.891 299.315 144.298 300.625 143.438C301.934 142.578 303.061 141.469 303.941 140.172C299.674 136.668 295.22 133.398 290.598 130.377L289.385 129.755C287.482 129.365 285.552 129.118 283.612 129.016C282.935 130.914 283.682 133.987 287.751 138.336Z" fill="black"/>
<path d="M317.424 118.956C308.501 116.472 299.114 116.16 290.046 118.046C290.046 118.046 285.067 126.316 283.519 132.828C283.519 132.828 291.353 144.335 302.035 143.992C312.717 143.65 317.424 118.956 317.424 118.956Z" fill="#263238"/>
<path opacity="0.2" d="M283.542 132.844C283.542 132.844 291.376 144.35 302.058 144.008C312.74 143.665 317.424 118.956 317.424 118.956C308.501 116.472 299.114 116.16 290.046 118.046C287.707 122.001 285.748 126.169 284.195 130.494C283.97 131.28 283.721 132.073 283.542 132.844Z" fill="white"/>
<path opacity="0.2" d="M284.219 130.478C288.887 128.191 290.98 120.691 290.069 118.03C287.73 121.986 285.771 126.154 284.219 130.478Z" fill="black"/>
<path d="M318.708 107.278C318.708 107.278 319.486 92.9632 306.96 96.3864C291.19 100.728 300.549 119.649 308.306 117.136C316.062 114.623 318.708 107.278 318.708 107.278Z" fill="#263238"/>
<path d="M298.386 118.715C298.386 118.715 301.234 126.658 306.166 126.145C307.474 126.004 308.722 125.52 309.783 124.741C310.843 123.962 311.678 122.917 312.204 121.71C312.314 121.478 312.41 121.239 312.491 120.995C312.491 120.995 309.979 120.217 311.573 118.046L305.388 113.246C305.397 113.908 305.366 114.571 305.295 115.23C305.147 116.404 304.836 117.711 304.112 118.046C302.735 118.676 298.386 118.715 298.386 118.715Z" fill="#EEC1BB"/>
<path opacity="0.2" d="M305.303 115.23C305.801 118.054 307.357 122.372 312.211 121.71C312.322 121.478 312.418 121.239 312.499 120.995C312.499 120.995 309.986 120.217 311.581 118.046L305.396 113.246C305.405 113.908 305.374 114.571 305.303 115.23Z" fill="black"/>
<path d="M310.422 99.9497C315.953 99.5218 317.961 102.346 318.809 108.025C319.859 115.113 318.669 120.294 311.628 119.306C302.097 117.96 301.249 100.65 310.422 99.9497Z" fill="#EEC1BB"/>
<path d="M315.23 107.986C315.736 108.778 316.334 109.506 317.011 110.157C316.869 110.399 316.661 110.597 316.413 110.727C316.164 110.858 315.884 110.916 315.603 110.896L315.23 107.986Z" fill="#D4827D"/>
<path d="M311.807 107.792C311.853 108.251 311.643 108.64 311.34 108.671C311.037 108.702 310.756 108.36 310.71 107.893C310.663 107.426 310.873 107.053 311.177 107.022C311.48 106.991 311.76 107.364 311.807 107.792Z" fill="#263238"/>
<path d="M311.052 107.061L311.978 106.586C311.978 106.586 311.589 107.457 311.052 107.061Z" fill="#263238"/>
<path d="M317.424 107.131C317.471 107.59 317.261 107.979 316.957 108.01C316.654 108.041 316.374 107.699 316.327 107.232C316.28 106.765 316.49 106.384 316.794 106.353C317.097 106.321 317.424 106.679 317.424 107.131Z" fill="#263238"/>
<path d="M316.646 106.399L317.595 105.917C317.595 105.917 317.222 106.796 316.646 106.399Z" fill="#263238"/>
<path d="M311.457 103.972C311.015 103.954 310.575 104.037 310.17 104.215C309.766 104.393 309.407 104.661 309.123 104.999" stroke="#263238" stroke-width="0.72468" stroke-linecap="round" stroke-linejoin="round"/>
<path d="M315.463 103.474C315.834 103.35 316.229 103.311 316.617 103.361C317.005 103.411 317.377 103.548 317.704 103.762" stroke="#263238" stroke-width="0.72468" stroke-linecap="round" stroke-linejoin="round"/>
<path d="M305.108 109.737C305.108 109.737 307.349 104.991 306.664 101.513C306.664 101.513 317.292 96.1919 318.684 107.278C318.684 107.278 318.996 97.3122 309.465 97.8257C299.935 98.3392 299.927 112.219 305.155 115.992C305.178 115.992 303.723 112.709 305.108 109.737Z" fill="#263238"/>
<path d="M306.104 110.842C306.001 110.205 305.65 109.635 305.128 109.256C304.607 108.877 303.956 108.72 303.319 108.819C301.615 109.138 301.07 112.709 305.404 113.246C306.026 113.316 306.322 112.693 306.104 110.842Z" fill="#EEC1BB"/>
<path d="M316.272 113.075C316.04 113.712 315.853 114.364 315.712 115.027H315.354C313.736 114.934 313.02 114.358 312.701 113.744C312.557 113.44 312.488 113.107 312.499 112.771C312.498 112.582 312.524 112.393 312.577 112.211C313.544 112.705 314.604 112.991 315.689 113.051L316.272 113.075Z" fill="#263238"/>
<path d="M315.72 113.036L315.541 113.604C313.985 113.518 312.95 113.246 312.499 112.756C312.498 112.566 312.524 112.377 312.577 112.195C313.554 112.694 314.625 112.98 315.72 113.036Z" fill="white"/>
<path d="M315.354 115.012C313.736 114.918 313.02 114.343 312.702 113.728C313.318 113.776 313.921 113.931 314.483 114.187C314.853 114.364 315.157 114.653 315.354 115.012Z" fill="#DE5753"/>
<path d="M300.93 101.14C300.93 101.14 300.152 96.7288 294.978 96.7288C289.805 96.7288 289.136 99.5762 284.771 99.8952C280.407 100.214 277.948 97.1878 277.948 94.8304C277.948 94.8304 276.563 95.9585 277.287 98.3159C276.771 97.651 276.514 96.8218 276.563 95.9819C276.563 95.9819 274.517 98.915 277.489 103.528C280.461 108.142 287.331 108.337 290.069 107.037C297.071 103.739 299.958 106.259 299.958 106.259L300.93 101.14Z" fill="#263238"/>
<path d="M299.53 105.512C299.53 105.512 297.118 103.443 291.75 106.5C286.382 109.558 280.158 109.612 278.36 106.368" stroke="#263238" stroke-width="0.5" stroke-linecap="round" stroke-linejoin="round"/>
<path d="M277.24 113.285L286.125 111.729C286.125 111.729 290.015 108.85 291.672 108.305C293.329 107.761 295.788 112.016 295.702 113.02C295.617 114.024 288.529 116.451 288.529 116.451L286.81 116.023L276.33 118.956L277.24 113.285Z" fill="#EEC1BB"/>
<path d="M281.231 112.195L281.846 118.357L290.069 118.046C290.069 118.046 289.789 126.814 284.748 128.992C284.748 128.992 264.006 125.631 262.855 121.78C261.703 117.929 265.998 114.008 281.231 112.195Z" fill="#263238"/>
<path opacity="0.1" d="M262.847 121.78C263.999 125.631 284.74 128.992 284.74 128.992C289.789 126.83 290.069 118.046 290.069 118.046L284.973 118.24L281.861 118.357L281.247 112.195C265.998 114.008 261.688 117.922 262.847 121.78Z" fill="white"/>
<path opacity="0.2" d="M273.296 120.59C273.296 120.59 278.929 121.368 281.854 120.59C282.51 120.448 283.127 120.165 283.665 119.763C284.202 119.36 284.645 118.846 284.966 118.256L281.854 118.373L273.296 120.59Z" fill="black"/>
<path d="M174.754 265.088L175.276 259.852L182.651 259.712L189.42 259.603L189.809 265.92L181.842 265.485L174.754 265.088Z" fill="#EEC1BB"/>
<path d="M175.719 258.763C176.295 258.833 175.135 265.881 175.135 265.881C175.135 265.881 170.265 269.771 168.849 273.941C167.433 278.112 165.123 275.459 165.589 270.721C166.056 265.983 166.422 262.373 166.756 259.004C167.091 255.635 169.752 258.024 175.719 258.763Z" fill="#263238"/>
<path d="M172.949 269.429C172.915 269.65 172.953 269.877 173.058 270.075C173.142 270.186 173.258 270.269 173.389 270.313C173.521 270.358 173.663 270.361 173.797 270.324C173.903 270.307 174.003 270.268 174.093 270.211C174.182 270.153 174.259 270.078 174.319 269.989C174.569 269.511 174.682 268.972 174.645 268.433C174.902 269.04 175.221 269.585 175.595 269.639C175.836 269.678 176.054 269.538 176.24 269.235C176.325 269.099 176.378 268.946 176.397 268.788C176.416 268.629 176.399 268.468 176.349 268.317C176.046 267.321 174.466 266.566 174.389 266.527C174.363 266.52 174.336 266.52 174.311 266.527H174.272H174.217L174.163 266.582C173.6 267.455 173.189 268.418 172.949 269.429ZM174.272 268.955C174.26 269.243 174.177 269.523 174.031 269.771C174.002 269.819 173.964 269.859 173.918 269.89C173.872 269.921 173.821 269.941 173.766 269.95C173.478 269.997 173.416 269.896 173.393 269.865C173.152 269.507 173.673 268.247 174.217 267.243C174.295 267.81 174.313 268.384 174.272 268.955ZM176.046 268.706C176.036 268.819 175.998 268.929 175.937 269.025C175.882 269.118 175.773 269.274 175.672 269.258C175.361 269.204 174.894 268.138 174.614 267.048C175.081 267.313 175.843 267.826 176.015 268.41C176.04 268.507 176.042 268.608 176.022 268.706H176.046Z" fill="#6348EC"/>
<path opacity="0.2" d="M181.678 265.461L182.503 259.704L189.342 259.595L189.777 265.913L181.678 265.461Z" fill="black"/>
<path d="M260.187 221.248C260.187 221.248 242.526 222.43 219.155 252.928L185.786 258.218L184.02 266.442C184.02 266.442 216.455 267.881 226.25 264.52C236.045 261.159 255.659 242.526 255.659 242.526L272.168 229.3L260.187 221.248Z" fill="#6348EC"/>
<path opacity="0.6" d="M184.02 266.442C184.02 266.442 216.455 267.881 226.25 264.52C236.045 261.159 255.659 242.526 255.659 242.526L272.168 229.3L260.187 221.271C260.187 221.271 246.517 222.189 227.316 243.179C225.488 245.179 223.605 247.35 221.683 249.73C220.853 250.768 220.011 251.841 219.155 252.951L185.786 258.242L184.02 266.442Z" fill="white"/>
<path opacity="0.2" d="M221.683 249.738C226.818 250.609 233.836 250.189 242.331 245.731L231.284 242.526L227.316 243.187C225.488 245.155 223.605 247.326 221.683 249.738Z" fill="black"/>
<path d="M186.595 257.681L184.752 267.243L182.884 267.048L184.752 258.063L186.595 257.681Z" fill="#6348EC"/>
<path d="M154.542 229.72L157.179 225.161L163.956 228.078L170.172 230.762L167.923 236.683L160.844 233.003L154.542 229.72Z" fill="#EEC1BB"/>
<path d="M158.035 224.36C158.525 224.655 154.573 230.584 154.573 230.584C154.573 230.584 148.512 232.14 145.517 235.337C142.522 238.535 141.495 235.182 143.875 231.058C146.256 226.935 148.077 223.792 149.765 220.859C151.453 217.926 152.892 221.224 158.035 224.36Z" fill="#263238"/>
<path d="M151.119 232.941C150.991 233.125 150.931 233.348 150.948 233.571C150.98 233.707 151.052 233.829 151.155 233.924C151.257 234.018 151.386 234.079 151.523 234.1C151.625 234.127 151.732 234.132 151.836 234.116C151.941 234.1 152.041 234.063 152.13 234.007C152.56 233.672 152.888 233.225 153.079 232.715C153.079 233.369 153.126 233.999 153.445 234.201C153.647 234.341 153.904 234.302 154.223 234.1C154.353 234.011 154.463 233.896 154.546 233.762C154.629 233.628 154.683 233.478 154.705 233.322C154.838 232.287 153.709 230.942 153.647 230.872L153.585 230.825H153.531H153.468H153.398C152.52 231.391 151.748 232.107 151.119 232.941ZM152.496 233.034C152.366 233.293 152.176 233.517 151.943 233.688C151.896 233.718 151.844 233.737 151.789 233.745C151.734 233.753 151.678 233.75 151.624 233.735C151.344 233.657 151.329 233.548 151.321 233.509C151.251 233.081 152.239 232.147 153.149 231.455C152.984 232.003 152.762 232.532 152.488 233.034H152.496ZM154.215 233.54C154.159 233.641 154.079 233.726 153.982 233.789C153.896 233.851 153.733 233.945 153.647 233.89C153.383 233.711 153.414 232.552 153.593 231.439C154.021 231.954 154.272 232.592 154.309 233.26C154.296 233.358 154.264 233.453 154.215 233.54Z" fill="#6348EC"/>
<path opacity="0.2" d="M160.704 232.918L163.831 228.008L170.11 230.724L167.892 236.66L160.704 232.918Z" fill="black"/>
<path d="M283.729 218.805C283.729 218.805 284.686 232.933 285.666 233.696C286.646 234.458 303.272 246.315 303.272 246.315C303.272 246.315 309.014 247.241 310.842 248.166C312.67 249.092 311.122 254.779 310.196 255.55C309.27 256.32 301.273 252.321 301.273 252.321L300.199 250.493C300.199 250.493 282.173 240.161 280.492 239.243C278.812 238.325 274.922 222.197 274.922 222.197L283.729 218.805Z" fill="#EEC1BB"/>
<path d="M281.052 211.079C286.498 212.923 285.619 226.312 285.619 226.312L275.824 229.424L273.677 225.27L281.052 211.079Z" fill="#6348EC"/>
<path opacity="0.2" d="M281.052 211.079C286.498 212.923 285.619 226.312 285.619 226.312L275.824 229.424L273.677 225.27L281.052 211.079Z" fill="black"/>
<path d="M250.461 224.966C250.461 224.966 233.867 218.742 200.016 236.932L167.426 228.008L162.431 234.777C162.431 234.777 191.388 249.45 201.704 250.423C212.02 251.395 237.562 242.495 237.562 242.495L258.062 237.22L250.461 224.966Z" fill="#6348EC"/>
<path opacity="0.6" d="M250.461 224.966C250.461 224.966 233.867 218.742 200.016 236.932L167.426 228.008L162.431 234.777C162.431 234.777 191.388 249.45 201.704 250.423C212.02 251.395 237.562 242.495 237.562 242.495L258.062 237.22L250.461 224.966Z" fill="white"/>
<path d="M168.927 227.596H166.982L161.443 234.878L163.388 236.006L168.927 227.596Z" fill="#6348EC"/>
<path d="M275.824 183.126C275.824 183.126 267.367 179.835 261.19 185.46C257.3 188.992 248.182 197.55 243.413 194.632C238.644 191.715 230.965 189.077 227.409 192.703C227.409 192.703 233.252 192.314 236.177 194.632C236.177 194.632 230.638 193.076 228.639 194.632C226.639 196.188 223.558 195.496 223.558 195.496C223.558 195.496 220.991 203.743 234.59 204.731C234.59 204.731 227.588 206.139 224.328 203.392C224.328 203.392 223.403 209.266 239.258 211.102C255.114 212.939 268.923 210.239 272.168 205.516C275.412 200.794 275.824 183.126 275.824 183.126Z" fill="#263238"/>
<path d="M234.59 223.084C234.59 223.084 237.663 238.955 249.769 241.382C251.681 241.791 253.652 241.836 255.581 241.515C259.293 240.808 262.573 238.656 264.699 235.532C265.343 234.658 265.888 233.717 266.325 232.723L248.758 223.823L247.311 223.084C245.033 222.615 242.724 222.318 240.402 222.197C238.161 222.103 235.897 222.275 234.59 223.084Z" fill="#6348EC"/>
<path opacity="0.2" d="M245.358 233.338C248.843 237.072 252.095 239.818 255.581 241.515C259.293 240.808 262.573 238.656 264.699 235.532C259.603 231.34 254.282 227.431 248.758 223.823L247.311 223.084C245.033 222.615 242.724 222.318 240.402 222.197C239.624 224.469 240.503 228.141 245.358 233.338Z" fill="black"/>
<path d="M281.052 211.079C270.441 207.543 259.087 206.859 248.128 209.095C248.128 209.095 242.184 218.976 240.348 226.771C240.348 226.771 249.684 240.519 262.466 240.114C275.249 239.71 281.052 211.079 281.052 211.079Z" fill="#6348EC"/>
<path d="M253.363 211.491C253.363 211.491 265.088 203.19 274.105 211.079" stroke="#263238" stroke-width="0.5" stroke-linecap="round" stroke-linejoin="round"/>
<path d="M282.336 196.243C282.336 196.243 283.309 179.127 268.332 183.266C249.504 188.447 260.677 211.048 269.942 208.053C279.208 205.057 282.336 196.243 282.336 196.243Z" fill="#263238"/>
<path d="M258.062 209.897C258.062 209.897 261.47 219.388 267.398 218.774C268.961 218.605 270.451 218.026 271.718 217.096C272.985 216.165 273.983 214.916 274.611 213.475C274.743 213.198 274.857 212.912 274.953 212.62C274.953 212.62 271.95 211.725 273.856 209.095L266.473 203.361C266.48 204.154 266.441 204.946 266.356 205.734C266.185 207.135 265.811 208.698 264.94 209.095C263.26 209.85 258.062 209.897 258.062 209.897Z" fill="#EEC1BB"/>
<path opacity="0.2" d="M266.325 205.734C266.924 209.103 268.783 214.292 274.58 213.475C274.712 213.198 274.826 212.912 274.922 212.62C274.922 212.62 271.919 211.725 273.825 209.095L266.442 203.361C266.449 204.154 266.41 204.946 266.325 205.734Z" fill="black"/>
<path d="M272.463 187.498C279.076 186.992 281.48 190.369 282.484 197.145C283.744 205.618 282.321 211.81 273.926 210.628C262.497 208.994 261.486 188.315 272.463 187.498Z" fill="#EEC1BB"/>
<path d="M278.182 197.083C278.787 198.03 279.505 198.9 280.321 199.674C280.148 199.962 279.899 200.197 279.601 200.353C279.303 200.51 278.968 200.581 278.633 200.561L278.182 197.083Z" fill="#D4827D"/>
<path d="M274.097 196.834C274.151 197.379 273.903 197.845 273.537 197.884C273.171 197.923 272.837 197.511 272.759 196.966C272.681 196.422 272.953 195.955 273.319 195.916C273.685 195.877 274.043 196.305 274.097 196.834Z" fill="#263238"/>
<path d="M273.195 195.978L274.323 195.395C274.323 195.395 273.856 196.445 273.195 195.978Z" fill="#263238"/>
<path d="M280.858 196.056C280.912 196.593 280.664 197.067 280.298 197.098C279.932 197.13 279.598 196.725 279.52 196.188C279.442 195.651 279.714 195.177 280.08 195.138C280.446 195.099 280.772 195.519 280.858 196.056Z" fill="#263238"/>
<path d="M279.924 195.185L281.052 194.609C281.052 194.609 280.57 195.659 279.924 195.185Z" fill="#263238"/>
<path d="M273.677 192.29C273.149 192.266 272.622 192.364 272.138 192.576C271.654 192.787 271.225 193.108 270.884 193.512" stroke="#263238" stroke-width="0.72468" stroke-linecap="round" stroke-linejoin="round"/>
<path d="M278.462 191.645C278.904 191.496 279.375 191.449 279.838 191.507C280.301 191.565 280.746 191.726 281.138 191.979" stroke="#263238" stroke-width="0.72468" stroke-linecap="round" stroke-linejoin="round"/>
<path d="M266.076 199.168C266.076 199.168 268.752 193.496 267.966 189.342C267.966 189.342 280.656 182.978 282.321 196.235C282.321 196.235 282.702 184.324 271.312 184.931C259.922 185.537 259.914 202.132 266.169 206.637C266.185 206.644 264.442 202.716 266.076 199.168Z" fill="#263238"/>
<path d="M267.282 200.491C267.222 200.113 267.089 199.751 266.889 199.426C266.689 199.1 266.427 198.817 266.118 198.593C265.808 198.369 265.458 198.208 265.086 198.12C264.714 198.032 264.329 198.018 263.952 198.079C261.921 198.46 261.268 202.747 266.441 203.361C267.188 203.447 267.546 202.7 267.282 200.491Z" fill="#EEC1BB"/>
<path d="M279.434 203.159C279.153 203.919 278.929 204.699 278.765 205.493H278.329C276.392 205.384 275.536 204.715 275.163 203.937C274.992 203.575 274.91 203.178 274.922 202.778C274.92 202.551 274.952 202.326 275.015 202.109C276.182 202.706 277.463 203.046 278.773 203.105C279.177 203.151 279.434 203.159 279.434 203.159Z" fill="#263238"/>
<path d="M278.773 203.105L278.555 203.789C276.735 203.68 275.443 203.361 274.922 202.778C274.92 202.551 274.952 202.326 275.015 202.109C276.182 202.706 277.463 203.046 278.773 203.105Z" fill="white"/>
<path d="M278.329 205.47C276.392 205.361 275.536 204.692 275.163 203.914C275.9 203.969 276.622 204.153 277.295 204.458C277.738 204.677 278.1 205.032 278.329 205.47Z" fill="#DE5753"/>
<path d="M272.37 187.988C272.37 187.988 270.542 199.067 263.68 199.456C256.818 199.845 266.333 185.257 266.333 185.257C266.333 185.257 277.186 180.177 283.161 185.693C289.136 191.209 282.336 196.243 282.336 196.243C282.336 196.243 282.118 187.778 272.37 187.988Z" fill="#263238"/>
<path d="M272.245 187.218C272.245 187.218 273.622 194.586 268.41 197.612" stroke="#263238" stroke-width="0.5" stroke-linecap="round" stroke-linejoin="round"/>
<path d="M274.105 211.079C276.976 213.6 261.875 219.077 253.363 211.491" stroke="#263238" stroke-width="0.5" stroke-linecap="round" stroke-linejoin="round"/>
<path d="M253.737 211.484L250.85 210.309L249.893 211.079L250.64 212.052L253.737 211.484Z" fill="#6348EC"/>
<path opacity="0.6" d="M253.737 211.484L250.85 210.309L249.893 211.079L250.64 212.052L253.737 211.484Z" fill="white"/>
<path d="M239.235 211.468C239.235 211.468 224.313 214.891 221.598 215.607C218.883 216.323 199.619 224.593 199.619 224.593C199.619 224.593 192.734 221.979 191.948 222.749C191.162 223.519 189.443 227.417 189.614 228.374C189.785 229.331 199.479 231.198 199.954 230.879C200.63 230.214 201.251 229.496 201.813 228.732C201.813 228.732 220.921 222.033 224.515 221.232C228.11 220.431 240.332 219.365 240.332 219.365L239.235 211.468Z" fill="#EEC1BB"/>
<path d="M248.127 209.095C248.127 209.095 248.127 218.805 242.331 222.173L232.007 221.248L229.253 212.464C229.253 212.464 238.846 209.282 248.127 209.095Z" fill="#6348EC"/>
<path opacity="0.2" d="M248.127 209.095C248.127 209.095 248.127 218.805 242.331 222.173L232.007 221.248L229.253 212.464C229.253 212.464 238.846 209.282 248.127 209.095Z" fill="black"/>
<path d="M176.194 135.792V132.003C176.193 131.414 176.331 130.833 176.596 130.307C176.861 129.781 177.246 129.325 177.72 128.975C178.194 128.625 178.744 128.391 179.325 128.293C179.905 128.195 180.501 128.235 181.064 128.409C184.223 129.42 191.956 158.253 191.956 158.253C191.956 158.253 197.215 164.065 197.208 165.255C197.2 166.445 192.158 170.063 191.373 168.982C190.587 167.9 185.927 164.991 185.693 163.046C185.46 161.101 187.319 159.047 187.319 159.047C187.319 159.047 178.481 140.39 176.194 135.792Z" fill="#B97964"/>
<path opacity="0.1" d="M176.194 135.792V132.003C176.193 131.414 176.331 130.833 176.596 130.307C176.861 129.781 177.246 129.325 177.72 128.975C178.194 128.625 178.744 128.391 179.325 128.293C179.905 128.195 180.501 128.235 181.064 128.409C184.223 129.42 191.956 158.253 191.956 158.253C191.956 158.253 197.215 164.065 197.208 165.255C197.2 166.445 192.158 170.063 191.373 168.982C190.587 167.9 185.927 164.991 185.693 163.046C185.46 161.101 187.319 159.047 187.319 159.047C187.319 159.047 178.481 140.39 176.194 135.792Z" fill="black"/>
<path d="M177.158 152.683L180.963 144.957C180.963 144.957 181.819 138.157 175.789 137.231L171.378 138.787L177.158 152.683Z" fill="#6348EC"/>
<path opacity="0.5" d="M177.158 152.683L180.963 144.957C180.963 144.957 181.819 138.157 175.789 137.231L171.378 138.787L177.158 152.683Z" fill="white"/>
<path d="M80.8265 236.862L83.0982 242.752L96.9155 237.975L94.6438 232.085L80.8265 236.862Z" fill="#B97964"/>
<path d="M83.5105 243.016L85.2532 235.555C85.2803 235.433 85.266 235.306 85.2124 235.193C85.1589 235.08 85.0692 234.989 84.9576 234.933L79.7683 232.443C79.5444 232.34 79.2885 232.329 79.0567 232.413C78.8249 232.498 78.636 232.671 78.5313 232.894C78.4999 232.956 78.4764 233.021 78.4613 233.089C77.94 235.508 77.6833 237.306 76.9675 240.332C76.5318 242.207 75.0147 247.793 74.4157 250.368C73.8166 252.943 76.2829 253.877 76.7497 252.881C78.8892 248.384 81.1454 245.156 82.8648 243.957C83.1915 243.737 83.4223 243.4 83.5105 243.016Z" fill="#263238"/>
<path d="M81.9545 244.798C81.8228 245.207 81.8366 245.65 81.9935 246.05C82.0607 246.185 82.1608 246.3 82.2846 246.386C82.4083 246.472 82.5517 246.525 82.7014 246.54C82.7859 246.564 82.8753 246.561 82.9584 246.533C83.0415 246.506 83.1145 246.454 83.1682 246.385C83.6817 245.786 82.927 243.514 82.8337 243.273C82.8269 243.245 82.811 243.22 82.7885 243.201C82.766 243.183 82.7382 243.173 82.7092 243.172C82.6795 243.167 82.649 243.172 82.6224 243.186C82.5958 243.2 82.5744 243.222 82.5614 243.25C82.3063 243.743 82.103 244.262 81.9545 244.798ZM83.0126 246.011C83.0051 246.077 82.978 246.14 82.9348 246.19C82.9348 246.229 82.857 246.26 82.7403 246.245C82.6405 246.233 82.5447 246.199 82.4609 246.143C82.3771 246.088 82.3076 246.013 82.258 245.926C82.111 245.162 82.2554 244.371 82.6625 243.709C82.9261 244.447 83.045 245.228 83.0126 246.011Z" fill="#6348EC"/>
<path d="M82.5458 243.281V243.351C82.7481 244.059 83.814 245.607 84.4908 245.63C84.6043 245.635 84.7157 245.599 84.8054 245.529C84.8951 245.459 84.9572 245.36 84.981 245.249C85.0194 245.142 85.035 245.027 85.027 244.913C85.019 244.8 84.9874 244.689 84.9343 244.588C84.522 243.747 82.7948 243.187 82.7092 243.156C82.6867 243.143 82.6612 243.136 82.6353 243.136C82.6093 243.136 82.5838 243.143 82.5614 243.156C82.5463 243.173 82.5367 243.194 82.5339 243.216C82.5311 243.238 82.5353 243.261 82.5458 243.281ZM84.7476 245.07V245.14C84.7009 245.327 84.592 245.319 84.5453 245.319C84.133 245.319 83.2927 244.284 82.9893 243.537C83.6801 243.743 84.2928 244.153 84.7476 244.712C84.7861 244.828 84.7861 244.954 84.7476 245.07Z" fill="#6348EC"/>
<path opacity="0.2" d="M94.636 232.085L96.9077 237.975L89.7812 240.433L87.5095 234.544L94.636 232.085Z" fill="black"/>
<path d="M88.124 233.097L92.8543 240.83C92.8543 240.83 125.452 233.314 132.112 221.03C137.068 211.896 138.663 195.115 139.153 187.101C139.324 184.332 139.363 182.612 139.363 182.612L143.479 165.714L114.024 169.052C114.024 169.052 119.516 186.689 120.629 200.218C121.065 205.555 120.823 210.247 119.291 212.97C113.876 222.578 88.124 233.097 88.124 233.097Z" fill="#263238"/>
<path opacity="0.2" d="M114.024 169.028C114.024 169.028 119.516 186.666 120.629 200.195C123.047 196.683 124.715 192.71 125.53 188.525C129.42 189.031 135.045 188.027 139.153 187.078C139.324 184.308 139.363 182.589 139.363 182.589L143.479 165.714L114.024 169.028Z" fill="black"/>
<path d="M43.6459 238.846L47.9483 243.46L58.9958 233.882L54.6935 229.261L43.6459 238.846Z" fill="#B97964"/>
<path d="M48.4305 243.553L47.2713 235.983C47.2533 235.858 47.1922 235.742 47.0985 235.657C47.0048 235.572 46.8843 235.522 46.7578 235.516L41.024 235.135C40.7768 235.122 40.5345 235.207 40.3495 235.372C40.1646 235.536 40.0519 235.767 40.0359 236.014C40.0284 236.081 40.0284 236.149 40.0359 236.216C40.4482 238.659 40.8761 240.425 41.3429 243.498C41.6308 245.397 42.3154 251.146 42.7122 253.76C43.109 256.374 45.7542 256.328 45.8242 255.215C46.1354 250.251 47.0301 246.416 48.1582 244.665C48.3871 244.343 48.4845 243.945 48.4305 243.553Z" fill="#263238"/>
<path d="M47.6526 245.786C47.6856 246.214 47.8609 246.62 48.1505 246.937C48.2636 247.037 48.3998 247.106 48.5467 247.138C48.6935 247.171 48.8463 247.166 48.9907 247.124C49.0775 247.114 49.1592 247.078 49.2256 247.021C49.2921 246.964 49.3403 246.889 49.3642 246.805C49.6209 246.027 48.0727 244.238 47.8937 244.035C47.8761 244.012 47.852 243.994 47.8242 243.984C47.7965 243.975 47.7665 243.973 47.7381 243.981C47.71 243.991 47.6851 244.009 47.6659 244.032C47.6468 244.056 47.6342 244.083 47.6292 244.113C47.5747 244.67 47.5825 245.231 47.6526 245.786ZM49.0841 246.517C49.1033 246.581 49.1033 246.648 49.0841 246.712C49.0841 246.751 49.0452 246.805 48.9207 246.836C48.8247 246.862 48.724 246.865 48.6266 246.845C48.5292 246.825 48.4381 246.782 48.3605 246.719C47.9392 246.065 47.7782 245.277 47.9093 244.51C48.4274 245.096 48.8265 245.778 49.0841 246.517Z" fill="#6348EC"/>
<path d="M47.6293 244.152V244.23C48.0805 244.813 49.6443 245.848 50.2823 245.622C50.3859 245.577 50.4709 245.497 50.5232 245.397C50.5756 245.296 50.5921 245.181 50.5701 245.07C50.5682 244.956 50.5415 244.845 50.4917 244.742C50.442 244.64 50.3705 244.55 50.2823 244.479C49.5821 243.841 47.7693 243.965 47.676 243.973C47.6488 243.976 47.6231 243.987 47.6012 244.003C47.5794 244.019 47.5622 244.041 47.5515 244.066C47.5685 244.102 47.5956 244.132 47.6293 244.152ZM50.3523 245.023V245.07C50.3523 245.257 50.2745 245.296 50.2356 245.303C49.8466 245.451 48.6796 244.813 48.1038 244.245C48.8194 244.177 49.5387 244.329 50.1656 244.681C50.2663 244.77 50.3324 244.891 50.3523 245.023Z" fill="#6348EC"/>
<path opacity="0.2" d="M54.6857 229.269L58.988 233.89L53.2853 238.823L48.9829 234.201L54.6857 229.269Z" fill="black"/>
<path d="M50.4066 230.755L57.7976 238.301C57.7976 238.301 86.5836 220.298 96.7521 208.737C101.054 203.844 116.98 181.904 120.785 176.653L121.609 175.517L141.199 161.046L126.946 138.78C126.946 138.78 120.722 140.592 113.72 146.832C112.686 147.75 111.635 148.769 110.608 149.897C106.564 154.286 103.294 159.329 100.938 164.812C100.315 166.222 99.7318 167.706 99.1872 169.262C87.2294 203.447 50.4066 230.755 50.4066 230.755Z" fill="#263238"/>
<path d="M178.325 148.466C178.325 148.466 171.502 136.796 149.672 135.006C127.841 133.217 110.896 146.062 110.896 146.062C110.896 146.062 106.563 173.346 128.627 180.908C136.594 183.639 145.548 179.212 145.548 179.212L147.517 170.071C147.517 170.071 175.672 157.063 178.325 148.466Z" fill="#6348EC"/>
<path opacity="0.8" d="M111.721 161.645C113.012 166.935 115.611 172.537 120.785 176.66C123.13 178.524 125.784 179.962 128.627 180.908C136.594 183.639 145.548 179.212 145.548 179.212L147.517 170.071C147.517 170.071 175.672 157.063 178.325 148.466C178.325 148.466 171.502 136.796 149.672 135.006C127.841 133.217 110.896 146.062 110.896 146.062C110.896 146.062 110.896 146.233 110.834 146.552C110.756 147.174 110.632 148.349 110.585 149.905C110.427 153.852 110.809 157.802 111.721 161.645Z" fill="white"/>
<path d="M127.592 132.704C127.592 132.704 110.881 125.359 106.998 124.208C103.116 123.056 75.5516 146.816 75.5516 146.816C75.5516 146.816 66.2623 149.049 65.4376 150.232C64.6129 151.414 67.227 158.549 68.7519 158.012C70.2768 157.475 76.9676 157.716 78.5625 155.927C80.1574 154.137 79.6672 150.784 79.6672 150.784C79.6672 150.784 106.454 135.1 108.01 134.384C109.192 133.816 124.48 141.907 124.48 141.907L127.592 132.704Z" fill="#B97964"/>
<path opacity="0.2" d="M100.914 164.819C104.571 163.955 108.178 162.896 111.721 161.645C128.207 155.771 132.423 148.691 132.423 148.691L113.751 146.84L110.865 146.552C110.787 147.174 110.663 148.349 110.616 149.905C106.561 154.291 103.281 159.335 100.914 164.819Z" fill="black"/>
<path d="M161.326 151.772C162.756 152.019 164.226 151.876 165.582 151.36C169.822 149.804 172.234 145.183 172.234 145.183C171.121 139.324 165.278 137.107 160.276 136.749C158.151 136.531 156.004 136.748 153.966 137.387C149.889 138.982 154.487 150.613 161.326 151.772Z" fill="#B97964"/>
<path opacity="0.2" d="M165.582 151.36C169.822 149.804 172.234 145.183 172.234 145.183C171.121 139.324 165.278 137.107 160.276 136.749C159.537 140.165 159.132 146.918 165.582 151.36Z" fill="black"/>
<path d="M173.595 148.512C173.307 152.511 165.955 160.711 155.779 165.924C155.779 165.924 168.562 163.59 174.933 155.748C181.305 147.906 178.971 145.556 173.634 143.3L173.595 148.512Z" fill="#6348EC"/>
<path opacity="0.4" d="M173.595 148.512C173.307 152.511 165.955 160.711 155.779 165.924C155.779 165.924 168.562 163.59 174.933 155.748C181.305 147.906 178.971 145.556 173.634 143.3L173.595 148.512Z" fill="white"/>
<path d="M160.634 135.917C151.632 135.201 152.519 138.663 147.913 144.288C138.523 155.748 88.1242 154.145 88.1242 154.145C88.1242 154.145 98.5183 140.149 115.144 135.372C131.77 130.595 160.634 135.917 160.634 135.917Z" fill="#6348EC"/>
<path opacity="0.4" d="M160.634 135.917C151.632 135.201 152.519 138.663 147.913 144.288C138.523 155.748 88.1242 154.145 88.1242 154.145C88.1242 154.145 98.5183 140.149 115.144 135.372C131.77 130.595 160.634 135.917 160.634 135.917Z" fill="white"/>
<path d="M178.94 148.512C178.94 148.512 179.026 139.589 166.718 134.835C154.41 130.082 143.44 141.518 143.44 141.518L148.03 141.098L147.875 144.288C147.875 144.288 155.655 138.142 162.929 138.787C170.203 139.433 173.556 148.512 173.556 148.512L176.668 145.4L178.94 148.512Z" fill="#6348EC"/>
<path opacity="0.5" d="M178.94 148.512C178.94 148.512 179.026 139.589 166.718 134.835C154.41 130.082 143.44 141.518 143.44 141.518L148.03 141.098L147.875 144.288C147.875 144.288 155.655 138.142 162.929 138.787C170.203 139.433 173.556 148.512 173.556 148.512L176.668 145.4L178.94 148.512Z" fill="white"/>
<path d="M178.769 125.11C178.769 125.11 180.325 133.769 175.789 137.231C171.253 140.694 170.841 124.519 170.841 124.519L178.769 125.11Z" fill="#263238"/>
<path d="M162.602 144.49C163.607 145.896 165.046 146.933 166.697 147.442C168.349 147.951 170.122 147.903 171.744 147.307C173.856 146.579 175.61 145.07 176.645 143.09C176.794 142.818 176.927 142.538 177.042 142.25C179.173 136.881 179.656 127.569 173.93 124.239C172.674 123.498 171.249 123.091 169.791 123.055C168.333 123.02 166.89 123.358 165.6 124.037C164.309 124.716 163.213 125.713 162.416 126.934C161.619 128.156 161.148 129.56 161.046 131.015C160.509 137.247 159.902 140.88 162.602 144.49Z" fill="#B97964"/>
<path d="M170.172 134.096C170.063 134.594 170.304 135.045 170.639 135.092C170.973 135.139 171.292 134.765 171.37 134.267C171.448 133.769 171.23 133.318 170.903 133.271C170.577 133.225 170.25 133.59 170.172 134.096Z" fill="#263238"/>
<path d="M175.828 134.921C175.719 135.411 175.968 135.87 176.295 135.917C176.622 135.963 176.948 135.59 177.019 135.084C177.089 134.578 176.878 134.135 176.552 134.088C176.225 134.042 175.937 134.438 175.828 134.921Z" fill="#263238"/>
<path d="M174.023 134.905C174.396 136.537 174.995 138.108 175.805 139.573C175.425 139.773 175.005 139.886 174.576 139.905C174.147 139.924 173.719 139.848 173.323 139.682L174.023 134.905Z" fill="#A24E3F"/>
<path d="M168.67 132.003C168.723 132.018 168.779 132.019 168.833 132.005C168.886 131.992 168.935 131.964 168.974 131.925C169.235 131.657 169.555 131.452 169.909 131.328C170.263 131.204 170.64 131.164 171.012 131.21C171.09 131.226 171.17 131.211 171.237 131.168C171.303 131.125 171.35 131.058 171.366 130.98C171.383 130.903 171.368 130.822 171.325 130.756C171.282 130.689 171.214 130.643 171.137 130.626C170.668 130.558 170.19 130.601 169.741 130.753C169.292 130.904 168.885 131.159 168.554 131.498C168.526 131.525 168.504 131.558 168.489 131.594C168.474 131.63 168.466 131.669 168.466 131.708C168.466 131.747 168.474 131.785 168.489 131.821C168.504 131.857 168.526 131.89 168.554 131.918L168.67 132.003Z" fill="#263238"/>
<path d="M178.59 133.31C178.648 133.329 178.711 133.329 178.769 133.31C178.843 133.287 178.905 133.236 178.941 133.167C178.977 133.099 178.985 133.019 178.963 132.945C178.829 132.489 178.586 132.073 178.258 131.731C177.929 131.388 177.522 131.13 177.073 130.976C176.997 130.957 176.916 130.968 176.848 131.007C176.779 131.047 176.729 131.111 176.707 131.186C176.69 131.263 176.702 131.343 176.741 131.41C176.78 131.478 176.843 131.529 176.917 131.552C177.266 131.68 177.58 131.887 177.835 132.157C178.09 132.427 178.28 132.753 178.388 133.108C178.404 133.155 178.431 133.197 178.466 133.232C178.501 133.267 178.543 133.294 178.59 133.31Z" fill="#263238"/>
<path d="M166.679 123.959L166.757 126.728C166.272 126.905 165.872 127.258 165.636 127.716C165.399 128.175 165.344 128.705 165.481 129.202C166.15 131.599 164.493 135.045 162.587 136.306C162.587 136.306 162.633 135.302 161.762 135.458C160.89 135.613 159.972 140.297 159.972 140.297C159.972 140.297 157.848 139.604 156.962 134.01C156.145 128.837 158.315 125.997 159.537 124.145L166.679 123.959Z" fill="#263238"/>
<path d="M173.595 141.238C173.248 141.923 172.955 142.633 172.716 143.362L172.312 143.3C170.499 142.989 169.76 142.25 169.495 141.518C169.369 141.162 169.332 140.78 169.386 140.406C169.411 140.192 169.466 139.982 169.55 139.783C170.583 140.466 171.75 140.922 172.973 141.121C173.354 141.207 173.595 141.238 173.595 141.238Z" fill="#263238"/>
<path d="M172.973 141.121L172.701 141.744C170.997 141.448 169.838 141.013 169.386 140.406C169.411 140.192 169.466 139.982 169.55 139.783C170.583 140.466 171.75 140.922 172.973 141.121Z" fill="white"/>
<path d="M172.312 143.3C170.499 142.989 169.76 142.25 169.495 141.518C170.182 141.649 170.84 141.899 171.44 142.257C171.831 142.507 172.135 142.871 172.312 143.3Z" fill="#DE5753"/>
<path d="M166.757 126.728C168.811 126.254 173.844 126.55 177.439 128.417C177.439 128.417 179.088 128.269 179.936 124.651C180.784 121.033 178.333 119.127 177.602 119.586C176.871 120.045 178.512 120.691 178.582 121.71C178.582 121.71 174.303 119.905 173.735 117.517C173.167 115.128 171.471 114.405 170.748 115.323C170.024 116.241 172.716 118.723 172.716 118.723C172.716 118.723 169.604 118.84 167.978 116.482C166.352 114.125 163.614 113.012 162.921 113.954C162.229 114.895 165.699 115.689 166.648 116.879C166.648 116.879 161.381 114.887 159.117 116.412C156.853 117.937 157.312 118.606 158.907 118.24C160.108 118.1 161.323 118.319 162.4 118.871C162.4 118.871 158.37 118.871 156.86 120.567C155.351 122.263 153.601 121.306 153.188 122.216C152.776 123.126 155.997 123.414 155.997 123.414C155.997 123.414 154.2 124.916 152.255 124.301C150.31 123.686 149.664 126.682 154.254 125.787C154.254 125.787 154.137 128.899 152.465 129.288C150.792 129.677 151.492 131.031 152.683 130.782C153.873 130.533 154.978 128.961 154.978 128.961C154.978 128.961 152.963 132.439 153.826 133.629C154.69 134.82 155.382 131.988 155.382 131.988C155.382 131.988 154.41 136.446 155.087 136.656C155.763 136.866 156.565 135.216 156.565 135.216C156.565 135.216 155.616 138.328 156.899 138.873C157.903 139.198 158.961 139.317 160.011 139.223C160.011 139.223 163.116 127.592 166.757 126.728Z" fill="#263238"/>
<path d="M157.599 135.699C158.086 137.197 159.146 138.442 160.548 139.161C162.408 140.102 163.738 138.531 163.567 136.562C163.388 134.812 162.229 132.159 160.19 132.066C158.152 131.972 157.032 133.855 157.599 135.699Z" fill="#B97964"/>
<path d="M138.99 133.684C138.99 133.684 139.768 143.619 127.6 146.529L112.04 138.616L115.79 127.125L138.99 133.684Z" fill="#6348EC"/>
<path opacity="0.5" d="M138.99 133.684C138.99 133.684 139.768 143.619 127.6 146.529L112.04 138.616L115.79 127.125L138.99 133.684Z" fill="white"/>
</svg>
