<svg width="19" height="19" viewBox="0 0 19 19" fill="none" xmlns="http://www.w3.org/2000/svg">
<path d="M16.7917 10.3333H10.3333V16.7917C10.3333 17.1342 10.1972 17.4628 9.95501 17.705C9.71278 17.9472 9.38424 18.0833 9.04167 18.0833C8.6991 18.0833 8.37056 17.9472 8.12832 17.705C7.88609 17.4628 7.75 17.1342 7.75 16.7917V10.3333H1.29167C0.949095 10.3333 0.620555 10.1972 0.378321 9.95501C0.136086 9.71278 0 9.38424 0 9.04167C0 8.69909 0.136086 8.37055 0.378321 8.12832C0.620555 7.88609 0.949095 7.75 1.29167 7.75H7.75V1.29167C7.75 0.949095 7.88609 0.620555 8.12832 0.37832C8.37056 0.136086 8.6991 0 9.04167 0C9.38424 0 9.71278 0.136086 9.95501 0.37832C10.1972 0.620555 10.3333 0.949095 10.3333 1.29167V7.75H16.7917C17.1342 7.75 17.4628 7.88609 17.705 8.12832C17.9473 8.37055 18.0833 8.69909 18.0833 9.04167C18.0833 9.38424 17.9473 9.71278 17.705 9.95501C17.4628 10.1972 17.1342 10.3333 16.7917 10.3333Z" fill="white"/>
</svg>
