<svg width="116" height="104" viewBox="0 0 116 104" fill="none" xmlns="http://www.w3.org/2000/svg">
<path d="M85.3977 5.70237C85.0021 5.31956 84.2094 -0.0418143 83.4906 0.000246165C82.7687 0.0444363 82.1415 5.36162 81.8045 5.71195C81.1288 6.41473 76.1854 6.912 76.2253 7.59349C76.2663 8.27285 81.1209 8.59549 81.8061 9.25887C82.1889 9.62943 82.9933 15.0052 83.7137 14.9631C84.4346 14.9211 85.0506 9.61878 85.4004 9.25621C86.0536 8.57792 91.0343 8.05349 90.9944 7.36988C90.9545 6.68626 86.0568 6.34339 85.3977 5.70237Z" fill="#FD6085"/>
<path d="M32.6194 88.5908C32.2239 88.2085 31.4306 82.8471 30.7123 82.8892C29.9904 82.9339 29.3627 88.2505 29.0257 88.6014C28.35 89.3031 23.4066 89.8009 23.4465 90.4824C23.4875 91.1623 28.342 91.4839 29.0273 92.1478C29.4106 92.5183 30.2151 97.8936 30.936 97.852C31.6563 97.8094 32.2723 92.5072 32.6221 92.1446C33.2748 91.4663 38.2561 90.9419 38.2161 90.2588C38.1762 89.5752 33.2791 89.2318 32.6194 88.5908Z" fill="#FD6085"/>
<path d="M101.103 95.6574C100.276 95.6644 99.5729 95.2246 99.4355 94.5559C99.2987 93.8872 99.7709 93.2052 100.534 92.8862L100.241 91.4626C99.4148 91.4695 98.7109 91.0297 98.5735 90.361C98.4367 89.6929 98.909 89.0108 99.6719 88.6914L99.3796 87.2682C98.5539 87.2746 97.8505 86.8349 97.7126 86.1662C97.5758 85.498 98.0481 84.816 98.811 84.4965L98.5187 83.0729C97.6919 83.0798 96.9886 82.6395 96.8517 81.9713C96.7144 81.3026 97.1872 80.6211 97.9501 80.3022L97.5976 78.5857L65.8691 85.0992L66.2237 86.8269C67.0266 86.8397 67.7017 87.2746 67.8359 87.9279C67.97 88.5822 67.5212 89.2478 66.7886 89.5757L67.0857 91.0223C67.8875 91.0345 68.5631 91.4695 68.6978 92.1228C68.832 92.7766 68.3821 93.4426 67.6501 93.7711L67.9471 95.2171C68.7495 95.2294 69.4251 95.6644 69.5588 96.3187C69.6929 96.9725 69.2441 97.6385 68.511 97.966L68.8086 99.4125C69.6104 99.4248 70.2866 99.8603 70.4207 100.514C70.5544 101.167 70.105 101.833 69.3729 102.161L69.7509 104.004L101.479 97.49L101.103 95.6574Z" fill="#29AEFD"/>
<path fill-rule="evenodd" clip-rule="evenodd" d="M75.7655 87.6377C75.8246 87.4024 75.996 87.3652 76.1472 87.5547L77.7631 89.5848C77.9137 89.7743 78.2358 89.9159 78.4781 89.8989L81.0656 89.7184C81.3073 89.7014 81.3968 89.8536 81.2626 90.0554L79.8315 92.2191C79.6984 92.4215 79.6638 92.7718 79.7538 92.9965L80.7254 95.4024C80.8164 95.6276 80.6993 95.7586 80.4656 95.6942L77.9648 95.0015C77.7311 94.9366 77.3877 95.0116 77.2014 95.1676L75.2139 96.8352C75.0281 96.9911 74.8678 96.9203 74.8566 96.6781L74.7416 94.0858C74.731 93.8435 74.5537 93.5395 74.3487 93.4107L72.1493 92.036C71.9433 91.9072 71.9603 91.7325 72.1882 91.6473L74.6176 90.738C74.8444 90.6533 75.0792 90.3903 75.1372 90.1555L75.7655 87.6377Z" fill="#7BEFE5"/>
<path fill-rule="evenodd" clip-rule="evenodd" d="M88.9578 84.6962C89.0169 84.4609 89.1883 84.4231 89.3395 84.6131L90.9549 86.6427C91.1061 86.8328 91.4277 86.9739 91.6704 86.9574L94.2579 86.7769C94.5002 86.7598 94.5891 86.9116 94.4549 87.1139L93.0244 89.2776C92.8907 89.4799 92.855 89.8297 92.9466 90.0549L93.9177 92.4614C94.0088 92.6866 93.8917 92.8176 93.6579 92.7532L91.1572 92.0605C90.9229 91.9961 90.5806 92.0712 90.3942 92.2272L88.4068 93.8947C88.2204 94.0507 88.0602 93.9798 88.05 93.7376L87.935 91.1453C87.9244 90.903 87.7466 90.599 87.5411 90.4707L85.3411 89.0955C85.1356 88.9672 85.1532 88.7915 85.38 88.7069L87.8094 87.7975C88.0362 87.7123 88.2715 87.4498 88.3301 87.2145L88.9578 84.6962Z" fill="#7BEFE5"/>
<path fill-rule="evenodd" clip-rule="evenodd" d="M4.94434 43.9827C4.94434 43.9827 43.8279 92.5556 55.6416 92.069C72.2475 91.3854 67.7097 23.6563 67.7097 23.6563L30.8834 16.62L5.78395 43.4886" fill="#F1854F"/>
<path fill-rule="evenodd" clip-rule="evenodd" d="M9.24023 42.6064C9.24023 42.6064 45.646 90.7257 57.4554 91.2896C69.2658 91.8539 72.0056 22.2795 72.0056 22.2795L35.1793 15.2432L10.0809 42.1118" fill="#F9D555"/>
<path fill-rule="evenodd" clip-rule="evenodd" d="M40.9174 23.1458C40.2977 22.994 39.7323 23.1921 39.1493 23.3566C35.0923 24.4981 31.2408 26.2103 27.5523 28.185C25.2677 29.4085 22.8783 30.6746 21.1069 32.7505C23.0609 38.747 27.8132 42.1922 33.4099 41.6689C38.1254 41.228 42.0222 37.3601 42.8229 33.1018C43.1471 31.3736 43.2254 29.589 42.923 27.8832C42.7803 27.0787 42.5524 26.2769 42.2271 25.5272C42.0451 25.1061 41.8321 24.6951 41.6106 24.2915C41.5057 24.0993 41.1453 23.2022 40.9174 23.1458Z" fill="#074785"/>
<path fill-rule="evenodd" clip-rule="evenodd" d="M59.1769 65.4314C57.3029 68.3325 57.7623 72.3107 59.8419 74.69C60.6858 75.6553 61.6734 76.505 62.7878 77.1003C63.3127 77.3814 63.876 77.6124 64.4515 77.7642C64.7758 77.8499 65.1069 77.9127 65.4381 77.9681C65.4482 77.9697 65.4605 77.9723 65.4738 77.9755C66.6738 73.2834 67.6694 67.7394 68.4909 61.9974C64.6783 61.0885 61.1682 62.3477 59.1769 65.4314Z" fill="#074785"/>
<path fill-rule="evenodd" clip-rule="evenodd" d="M45.5389 68.3528C40.9543 67.0904 36.1136 68.0083 34.2661 72.7052C39.3831 78.2647 44.547 83.3982 48.9607 86.8562C49.1896 86.7454 49.3813 86.6507 49.6666 86.5271C53.353 84.9331 55.3485 81.0875 54.4658 77.2706C53.4782 73.0023 50.0446 69.5938 45.5389 68.3528Z" fill="#074785"/>
<path fill-rule="evenodd" clip-rule="evenodd" d="M70.8288 40.644C64.8706 42.9775 59.2393 39.7378 56.9329 34.8721C54.6999 30.1624 55.325 24.6493 58.6089 20.4949C61.5467 16.7808 66.684 15.4354 70.9736 17.252C71.4405 17.4495 71.9186 17.6172 72.3919 17.7982C71.8734 25.4138 71.6141 33.0497 70.8288 40.644Z" fill="#074785"/>
<path fill-rule="evenodd" clip-rule="evenodd" d="M0.55957 35.002C0.55957 35.002 7.09651 20.7525 36.4686 11.586C65.8406 2.41895 72.2711 11.4699 72.2711 11.4699C72.2711 11.4699 77.6788 16.0348 72.0432 23.8506C72.0432 23.8506 63.5342 17.7007 42.094 24.9367C20.6549 32.1738 9.75963 44.3953 9.75963 44.3953" fill="#F1854F"/>
<path fill-rule="evenodd" clip-rule="evenodd" d="M7.56101 37.8275C10.0042 41.0565 10.559 44.2074 9.05177 45.3478C7.54504 46.4871 4.85051 45.7812 2.40781 42.5526C-0.0348916 39.3235 -0.707328 35.9023 0.79833 34.7619C2.30505 33.6225 5.11725 34.5989 7.56101 37.8275Z" fill="#FFA4AC"/>
<path d="M27.9967 18.5825C34.7583 15.4695 42.4522 13.4511 49.7563 12.0578C51.1246 11.7964 50.4479 9.74019 49.0967 9.99788C41.7941 11.3912 34.0987 13.4101 27.3371 16.5226C26.0864 17.0986 26.7317 19.1649 27.9967 18.5825Z" fill="white"/>
<path fill-rule="evenodd" clip-rule="evenodd" d="M69.0999 41.3169C67.8754 37.6209 66.6135 33.8845 65.3113 30.1176C65.3139 30.0948 59.2892 31.2464 53.3613 32.9442C47.4228 34.5665 41.6078 36.7313 41.6099 36.7094C33.9011 39.6249 26.3851 43.0206 19.0703 46.5846C20.5094 50.0474 21.9219 53.5655 23.3072 57.1322C23.3136 57.129 23.32 57.1268 23.3259 57.1242C23.4691 57.4788 23.6086 57.8365 23.7523 58.1911C24.1639 59.2027 24.8278 59.3949 25.915 58.9339C30.54 56.9724 35.2072 54.9695 39.9973 53.22C41.9826 52.4965 42.8196 51.2357 43.1209 49.4788C43.287 48.5124 43.5671 47.3853 44.4024 46.6591C44.6282 46.4621 45.061 46.2928 45.3506 46.2066C45.5892 46.1347 45.8218 46.132 46.0593 46.1693C46.6332 46.2587 47.1656 46.4648 47.6224 46.7736C47.9595 47.0009 48.2896 47.256 48.5893 47.5227C49.9171 48.6983 51.3451 49.1487 53.3565 48.4549C58.2094 46.7848 63.18 45.4415 68.173 44.292C69.3469 44.0221 69.7628 43.4881 69.4364 42.4323C69.3219 42.0628 69.1989 41.6917 69.0818 41.3212C69.0871 41.3201 69.093 41.3185 69.0999 41.3169Z" fill="white"/>
<path fill-rule="evenodd" clip-rule="evenodd" d="M64.5124 35.4668C64.9069 36.8239 65.4489 38.1608 65.6433 39.5312C65.8435 40.9378 65.0491 42.0511 63.4194 42.5154C59.8783 43.5227 56.3452 44.612 52.8345 45.7567C50.9503 46.3732 49.7439 45.6997 49.1013 44.111C48.8154 43.4082 48.4986 42.7177 48.2132 42.0138C46.9658 38.9562 47.5621 37.6289 51.1612 36.4028C54.0548 35.4274 57.0001 34.5675 60.0024 34.0138C61.6246 33.7114 63.3842 33.8914 64.5124 35.4668Z" fill="#FFA4AC"/>
<path fill-rule="evenodd" clip-rule="evenodd" d="M39.6117 43.1522C40.1191 44.5455 40.7686 45.9058 41.0747 47.3497C41.3889 48.832 40.6839 50.114 39.0899 50.7683C35.6266 52.1899 32.1808 53.6253 28.7558 55.0479C26.9174 55.8097 25.6588 55.2054 24.8905 53.662C24.5514 52.9789 24.1808 52.3113 23.8406 51.6314C22.3568 48.6786 22.8535 47.329 26.3456 45.6976C29.1551 44.3975 32.0259 43.1623 34.9813 42.1981C36.5775 41.6758 38.3536 41.6215 39.6117 43.1522Z" fill="#7BEFE5"/>
<path fill-rule="evenodd" clip-rule="evenodd" d="M34.9757 42.1996C32.0208 43.1633 29.1501 44.3985 26.3411 45.6997C22.8474 47.331 22.3523 48.6796 23.8361 51.6329C24.1758 52.3128 24.5469 52.9799 24.8865 53.664C25.2076 54.3109 25.6154 54.7895 26.1175 55.0744C30.1521 50.8327 34.3102 46.5207 38.6131 42.3072C37.4993 41.6778 36.187 41.804 34.9757 42.1996Z" fill="#29AEFD"/>
<path fill-rule="evenodd" clip-rule="evenodd" d="M59.997 34.015C56.9953 34.5687 54.0505 35.4285 51.1564 36.4044C47.5573 37.6311 46.9615 38.9573 48.2089 42.0155C48.4948 42.7188 48.8132 43.4099 49.097 44.1127C49.4345 44.948 49.9318 45.5284 50.5978 45.8025C54.9019 41.909 59.3395 38.1843 63.8847 34.788C62.7879 33.8473 61.3456 33.7631 59.997 34.015Z" fill="#FD6085"/>
<path d="M30.2339 49.6434C30.1152 47.4376 30.5497 44.8852 32.9647 44.1835C35.2146 43.5291 36.8481 45.8851 37.7164 47.568C38.2968 48.6951 36.5691 49.6316 35.9888 48.5061C35.5043 47.5686 34.7019 45.8877 33.4092 46.0975C32.0031 46.3243 32.1432 48.709 32.1975 49.7238C32.2672 50.9872 30.3021 50.8998 30.2339 49.6434Z" fill="#074785"/>
<path d="M53.4049 43.0654C53.3261 40.8586 53.8068 38.3142 56.2352 37.6561C58.4974 37.0438 60.0866 39.4296 60.9246 41.128C61.4847 42.2657 59.7395 43.1703 59.1794 42.0341C58.7119 41.0875 57.941 39.3928 56.6441 39.5786C55.2342 39.7804 55.3311 42.1667 55.3679 43.182C55.4136 44.446 53.4507 44.323 53.4049 43.0654Z" fill="#074785"/>
<path d="M44.4876 54.0006C45.6845 54.0091 46.8158 54.3467 47.9531 53.8739C48.8954 53.481 49.7494 52.6579 50.5581 52.0515C51.3046 51.4919 52.182 51.1331 53.0243 51.707C54.1977 52.5083 54.9186 54.2844 54.9165 55.6703C54.9138 57.0492 54.375 58.4654 53.521 59.5414C53.0775 60.1015 52.4919 60.7074 51.8844 61.0907C49.1121 62.8365 45.6786 62.1023 43.3355 59.9301C41.233 58.0608 40.9029 53.9777 44.4876 54.0006Z" fill="#074785"/>
<path d="M43.915 60.4145C44.5007 59.3981 45.4691 58.5596 46.5643 58.0974C49.2226 56.9432 51.0419 58.978 51.5035 61.3063C49.0262 62.6405 46.1064 62.1108 43.915 60.4145Z" fill="#FD6085"/>
<path d="M108.695 34.1735C108.417 33.1582 108.2 32.358 107.981 31.5588C107.764 30.7693 107.545 29.9797 107.314 29.1406C97.8159 30.2289 88.9236 28.7168 80.5227 24.2925C79.477 25.7502 78.5117 27.0956 77.4688 28.5491C78.2727 29.098 79.082 29.6129 79.8955 30.0958L106.649 34.6228C107.328 34.4897 108.009 34.3401 108.695 34.1735Z" fill="#DF804F"/>
<path d="M106.65 34.6229C97.0913 36.4975 88.2261 35.0344 79.896 30.0958L77.6887 29.722C78.2168 30.1868 78.6917 31.1026 78.6417 31.775L74.6773 66.0405C74.4532 67.3305 74.7338 69.0997 75.7438 69.7636C79.3189 72.1169 83.2779 73.4143 87.4648 74.0474C90.9143 74.5686 94.3691 74.8375 97.7877 73.7322C99.5963 73.1471 100.644 72.1227 101.017 70.123C103.092 58.9919 105.268 47.8799 107.482 36.776C107.613 36.1206 108.419 35.6185 108.828 34.9908L106.65 34.6229Z" fill="#FD6085"/>
<path fill-rule="evenodd" clip-rule="evenodd" d="M107.115 38.6426C107.232 38.0554 107.349 37.4676 107.465 36.8798C107.582 36.2936 108.238 35.8304 108.668 35.2916C108.65 35.2144 108.631 35.1372 108.612 35.0606L106.633 34.7257C97.075 36.6003 88.2098 35.1367 79.8797 30.1986L77.6729 29.8248C78.2015 30.2896 78.6754 31.2054 78.6253 31.8778L78.3969 33.852C87.2962 39.405 96.8151 40.949 107.115 38.6426Z" fill="#074785"/>
<path fill-rule="evenodd" clip-rule="evenodd" d="M91.342 45.1497C86.0967 44.0753 82.0238 42.8103 77.6415 40.4235L75.6694 57.4611C75.7626 57.5756 75.8648 57.6736 75.9697 57.738C83.9963 62.6628 92.6794 64.843 102.142 63.5163C102.182 63.5104 102.224 63.5003 102.267 63.488C103.374 57.656 104.506 51.8282 105.653 46.0037C100.729 45.7497 95.9468 46.092 91.342 45.1497Z" fill="#FFA4AC"/>
<path fill-rule="evenodd" clip-rule="evenodd" d="M108.881 33.2195C108.658 32.2963 108.43 31.3741 108.191 30.3934C97.8705 31.799 87.8149 29.8158 78.7623 24.7424C77.608 26.4658 76.425 28.1073 75.2739 29.8254C85.616 37.3941 97.3381 39.6457 109.621 36.2755C109.333 35.0888 109.109 34.1544 108.881 33.2195Z" fill="#7BEFE5"/>
<path fill-rule="evenodd" clip-rule="evenodd" d="M79.8354 22.0116C85.4897 18.5557 102.76 19.0498 108.167 27.2426C104.533 31.0578 84.6543 27.2782 79.8354 22.0116Z" fill="#7BEFE5"/>
<path fill-rule="evenodd" clip-rule="evenodd" d="M79.8357 22.0117C84.2808 24.6658 88.6711 26.6176 93.5144 27.4817C98.3524 28.3442 103.153 28.2612 108.167 27.2427C108.142 28.4225 108.211 29.1764 108.288 30.7869C105.469 30.8801 102.521 31.1053 99.774 31.0441C92.9282 30.8918 86.5185 28.9272 80.3607 26.0532C78.1645 25.0284 78.4184 25.22 79.8357 22.0117Z" fill="#29AEFD"/>
<path d="M77.8872 30.5685C77.8872 30.5685 77.8925 30.5015 77.9138 30.3886C77.9341 30.2757 77.9692 30.1176 78.0214 29.9334C78.1257 29.5644 78.3105 29.0959 78.5378 28.6481C78.5927 28.5363 78.6432 28.4235 78.7007 28.3154C78.7556 28.2062 78.8141 28.1013 78.8722 28.0002C78.9882 27.7973 79.1086 27.6131 79.2204 27.4577C79.3322 27.3027 79.4344 27.1771 79.5111 27.0903C79.5872 27.0035 79.6367 26.9567 79.6367 26.9567C79.6367 26.9567 79.6346 27.0232 79.6191 27.1361C79.6042 27.2495 79.576 27.4087 79.5313 27.5956C79.4424 27.9704 79.2752 28.4533 79.0622 28.9143C78.8338 29.3605 78.5618 29.7854 78.3238 30.0867C78.204 30.2374 78.097 30.3588 78.0171 30.4413C77.9389 30.5249 77.8872 30.5685 77.8872 30.5685Z" fill="#29AEFD"/>
<path d="M80.1577 31.6946C80.1577 31.6946 80.1636 31.6269 80.1849 31.5146C80.2046 31.4017 80.2397 31.2436 80.2924 31.0589C80.3968 30.6899 80.581 30.2208 80.8089 29.7736C80.8637 29.6613 80.9148 29.5495 80.9718 29.4414C81.0266 29.3323 81.0857 29.2268 81.1432 29.1257C81.2603 28.9234 81.3801 28.7386 81.4919 28.5837C81.6037 28.4288 81.706 28.3031 81.7832 28.2163C81.8593 28.1295 81.9083 28.0822 81.9083 28.0822C81.9083 28.0822 81.9062 28.1487 81.8907 28.2616C81.8758 28.3744 81.8476 28.5336 81.8029 28.721C81.7139 29.0959 81.5473 29.5793 81.3333 30.0393C81.1049 30.486 80.8328 30.9109 80.5943 31.2122C80.475 31.3623 80.368 31.4843 80.2882 31.5668C80.2088 31.6498 80.1577 31.6946 80.1577 31.6946Z" fill="#29AEFD"/>
<path d="M82.667 32.777C82.667 32.777 82.675 32.71 82.7 32.5981C82.7245 32.4858 82.766 32.3298 82.8246 32.1472C82.9428 31.7825 83.1446 31.3209 83.39 30.8827C83.4491 30.773 83.5039 30.6628 83.5657 30.5569C83.6248 30.4499 83.6871 30.3471 83.7488 30.2481C83.8734 30.05 84.0001 29.8701 84.1178 29.7194C84.236 29.5693 84.342 29.4473 84.4223 29.3638C84.5017 29.2796 84.5539 29.2344 84.5539 29.2344C84.5539 29.2344 84.5485 29.3009 84.5288 29.4133C84.5091 29.5251 84.4751 29.6832 84.4234 29.8685C84.3207 30.239 84.1354 30.7161 83.9048 31.1676C83.6594 31.6052 83.3708 32.0194 83.1217 32.3106C82.9971 32.4565 82.8853 32.5742 82.8022 32.6535C82.7192 32.7344 82.667 32.777 82.667 32.777Z" fill="#29AEFD"/>
<path d="M84.8921 33.9881C84.8921 33.9881 84.9006 33.9211 84.9262 33.8093C84.9501 33.6969 84.9917 33.5409 85.0508 33.3578C85.1689 32.9931 85.3718 32.5315 85.6167 32.0938C85.6753 31.9836 85.7306 31.8729 85.7919 31.7669C85.851 31.6599 85.9133 31.5572 85.9755 31.4581C86.0991 31.2601 86.2258 31.0806 86.3434 30.93C86.4616 30.7798 86.5686 30.6574 86.6485 30.5743C86.7273 30.4902 86.78 30.4449 86.78 30.4449C86.78 30.4449 86.7747 30.5115 86.7545 30.6238C86.7353 30.7356 86.7012 30.8943 86.649 31.0796C86.5463 31.4501 86.361 31.9272 86.1305 32.3787C85.885 32.8163 85.5965 33.2305 85.3473 33.5223C85.2232 33.6682 85.1109 33.7858 85.0279 33.8646C84.9453 33.9461 84.8921 33.9881 84.8921 33.9881Z" fill="#29AEFD"/>
<path d="M87.7022 35.3368C87.7022 35.3368 87.6995 35.2692 87.7064 35.1553C87.7128 35.0408 87.7288 34.88 87.7581 34.6905C87.8172 34.3119 87.9428 33.8237 88.1148 33.352C88.1558 33.2343 88.1925 33.1167 88.2356 33.0022C88.2772 32.8872 88.3224 32.7759 88.3677 32.6679C88.4582 32.4528 88.5551 32.2547 88.6472 32.0875C88.7398 31.9209 88.8261 31.783 88.8921 31.6882C88.9571 31.5924 89.0007 31.5397 89.0007 31.5397C89.0007 31.5397 89.0066 31.6062 89.005 31.7202C89.0034 31.8341 88.9949 31.9954 88.9741 32.1866C88.931 32.5694 88.824 33.0688 88.6685 33.5522C88.496 34.0228 88.2772 34.4775 88.077 34.8055C87.9769 34.9695 87.8853 35.1031 87.8161 35.1947C87.7474 35.2862 87.7022 35.3368 87.7022 35.3368Z" fill="#29AEFD"/>
<path d="M90.5523 36.047C90.5523 36.047 90.5421 35.9799 90.5347 35.866C90.5267 35.7515 90.5235 35.5902 90.5294 35.3985C90.5416 35.0152 90.6071 34.5158 90.721 34.0265C90.7466 33.9046 90.769 33.7832 90.7988 33.6644C90.8254 33.5452 90.8568 33.4291 90.8888 33.3162C90.9532 33.0921 91.0256 32.8839 91.0953 32.7061C91.1677 32.5293 91.2369 32.3824 91.2902 32.2802C91.3424 32.1774 91.3796 32.1194 91.3796 32.1194C91.3796 32.1194 91.3935 32.1849 91.4052 32.2988C91.4185 32.4122 91.4291 32.573 91.4313 32.7652C91.4355 33.1507 91.3897 33.6597 91.2944 34.158C91.1805 34.6467 91.0187 35.1238 90.86 35.4741C90.7801 35.6487 90.7056 35.7925 90.6481 35.8926C90.5917 35.9916 90.5523 36.047 90.5523 36.047Z" fill="#29AEFD"/>
<path d="M93.2034 36.5486C93.2034 36.5486 93.1907 36.4815 93.1789 36.3686C93.1667 36.2541 93.156 36.0928 93.1545 35.9017C93.1513 35.5178 93.1976 35.0157 93.2907 34.5233C93.3126 34.4008 93.3291 34.2784 93.3546 34.1586C93.3759 34.0382 93.4031 33.9211 93.4308 33.8072C93.4861 33.5798 93.549 33.3695 93.6134 33.189C93.6778 33.0091 93.7412 32.86 93.7907 32.7557C93.8386 32.6513 93.8732 32.5917 93.8732 32.5917C93.8732 32.5917 93.8902 32.6566 93.9067 32.769C93.9238 32.8818 93.9408 33.0426 93.9509 33.2348C93.9701 33.6198 93.9451 34.1298 93.8689 34.6313C93.7747 35.1238 93.6326 35.6083 93.4877 35.9634C93.4159 36.1418 93.3466 36.2882 93.2929 36.3904C93.2402 36.4916 93.2034 36.5486 93.2034 36.5486Z" fill="#29AEFD"/>
<path d="M95.8494 36.7749C95.8494 36.7749 95.8334 36.7089 95.8175 36.596C95.7999 36.4826 95.7845 36.3218 95.7743 36.1302C95.7557 35.7474 95.7818 35.2442 95.8558 34.7475C95.8723 34.6245 95.8846 34.501 95.9043 34.3801C95.9213 34.2593 95.9431 34.1411 95.966 34.0261C96.0113 33.7966 96.0672 33.5842 96.1236 33.401C96.1806 33.2189 96.2375 33.0667 96.2823 32.9607C96.3265 32.8542 96.3589 32.7941 96.3589 32.7941C96.3589 32.7941 96.3786 32.858 96.3989 32.9698C96.4207 33.0816 96.4447 33.2413 96.4628 33.4335C96.4979 33.8168 96.4931 34.3285 96.4377 34.8321C96.3632 35.3289 96.2402 35.8182 96.1108 36.1791C96.0448 36.3596 95.982 36.5092 95.933 36.613C95.8846 36.7163 95.8494 36.7749 95.8494 36.7749Z" fill="#29AEFD"/>
<path d="M98.8439 37.0415C98.8439 37.0415 98.82 36.9787 98.7886 36.869C98.7566 36.7588 98.7188 36.6017 98.6831 36.4133C98.6139 36.0358 98.5719 35.5337 98.5783 35.0317C98.5777 34.9076 98.5735 34.7836 98.5772 34.6616C98.5783 34.5397 98.5841 34.4194 98.5916 34.3028C98.6059 34.0696 98.632 33.8508 98.664 33.6628C98.6965 33.4744 98.7321 33.3157 98.7625 33.2044C98.7923 33.0926 98.8157 33.0282 98.8157 33.0282C98.8157 33.0282 98.8434 33.0894 98.8791 33.1975C98.9158 33.3056 98.9611 33.461 99.0042 33.6485C99.0899 34.0238 99.1533 34.5312 99.166 35.038C99.1586 35.5396 99.1027 36.0411 99.0218 36.4159C98.9813 36.6044 98.9387 36.7604 98.9041 36.8701C98.8711 36.9792 98.8439 37.0415 98.8439 37.0415Z" fill="#29AEFD"/>
<path d="M101.544 36.614C101.544 36.614 101.513 36.5538 101.471 36.4468C101.428 36.3409 101.375 36.1881 101.321 36.0039C101.214 35.636 101.123 35.1398 101.079 34.6398C101.067 34.5163 101.05 34.3933 101.042 34.2714C101.031 34.1495 101.025 34.0297 101.02 33.9131C101.012 33.6793 101.016 33.4595 101.028 33.2689C101.042 33.0783 101.062 32.9169 101.081 32.8035C101.099 32.6896 101.116 32.623 101.116 32.623C101.116 32.623 101.15 32.6811 101.196 32.7854C101.244 32.8887 101.304 33.0389 101.366 33.2215C101.489 33.5862 101.603 34.0845 101.665 34.5876C101.708 35.0881 101.702 35.5918 101.658 35.9735C101.637 36.1646 101.611 36.3244 101.587 36.4372C101.564 36.549 101.544 36.614 101.544 36.614Z" fill="#29AEFD"/>
<path d="M104.344 36.3362C104.344 36.3362 104.312 36.2771 104.266 36.1717C104.221 36.0668 104.162 35.9156 104.104 35.733C103.987 35.3677 103.88 34.8753 103.822 34.3769C103.806 34.2539 103.786 34.1315 103.773 34.0101C103.758 33.8887 103.749 33.7684 103.741 33.6523C103.726 33.4191 103.723 33.1992 103.731 33.0081C103.739 32.8175 103.753 32.6556 103.769 32.5406C103.784 32.4262 103.8 32.3596 103.8 32.3596C103.8 32.3596 103.835 32.4166 103.884 32.5193C103.936 32.6216 104 32.7701 104.067 32.9506C104.2 33.3116 104.329 33.8062 104.406 34.3072C104.464 34.806 104.473 35.3102 104.441 35.693C104.425 35.8847 104.402 36.0455 104.382 36.1584C104.363 36.2712 104.344 36.3362 104.344 36.3362Z" fill="#29AEFD"/>
<path d="M107.007 36.047C107.007 36.047 106.974 35.9879 106.929 35.8825C106.883 35.7776 106.825 35.6264 106.766 35.4438C106.649 35.0786 106.543 34.5861 106.485 34.0883C106.468 33.9648 106.448 33.8429 106.435 33.7209C106.42 33.6001 106.411 33.4798 106.403 33.3632C106.388 33.13 106.386 32.9101 106.392 32.7195C106.4 32.5289 106.416 32.3665 106.431 32.2526C106.446 32.1381 106.462 32.0715 106.462 32.0715C106.462 32.0715 106.497 32.128 106.546 32.2307C106.597 32.3335 106.661 32.4815 106.728 32.6625C106.862 33.0235 106.991 33.5181 107.069 34.0191C107.126 34.5185 107.135 35.0222 107.103 35.405C107.088 35.5966 107.065 35.7569 107.045 35.8698C107.025 35.9816 107.007 36.047 107.007 36.047Z" fill="#29AEFD"/>
<path fill-rule="evenodd" clip-rule="evenodd" d="M103.84 25.6108C103.735 26.46 102.783 27.0414 101.713 26.9088L100.383 26.7448C99.3126 26.6123 98.5305 25.8168 98.6348 24.9676C98.7397 24.1184 99.6922 23.537 100.762 23.6691L102.093 23.8336C103.162 23.9662 103.945 24.7616 103.84 25.6108Z" fill="#074785"/>
<path fill-rule="evenodd" clip-rule="evenodd" d="M115.059 17.2621C115.112 16.2979 114.019 16.0631 113.165 15.9869C111.72 15.8565 110.274 15.717 108.824 15.6499C107.559 15.5919 106.179 15.4955 105.005 15.9635C103.504 16.5609 102.958 17.9372 102.386 19.2043C101.633 20.8723 100.993 22.5691 100.356 24.2771C100.103 24.9554 99.9358 25.4473 100.982 25.7838C101.962 26.099 102.675 25.4138 102.909 24.5774C103.29 23.2171 103.667 21.8376 104.316 20.5603C104.842 19.5264 105.489 18.1842 107.005 18.1996C109.169 18.2215 111.335 18.3838 113.501 18.493L113.575 18.5127L113.621 18.4547L113.63 18.493C114.648 18.5835 115.021 17.976 115.059 17.2621Z" fill="#FFA4AC"/>
<path d="M84.6482 47.6185C83.0206 47.3315 81.7902 48.5151 81.4208 50.2332C81.2317 51.1127 82.4483 51.4545 82.6378 50.5712C82.8455 49.6081 83.3172 48.9266 84.2617 48.9703C85.2988 49.0192 85.6768 49.9259 85.3686 50.9423C85.1061 51.8048 86.3259 52.1386 86.5862 51.2799C87.1186 49.5266 86.2896 47.9076 84.6482 47.6185Z" fill="#074785"/>
<path d="M97.6219 49.729C95.9853 49.4937 94.7853 50.7145 94.46 52.4422C94.2928 53.3265 95.5194 53.6289 95.6866 52.7408C95.8698 51.7729 96.3234 51.0776 97.27 51.0914C98.3087 51.1074 98.7102 52.0013 98.4285 53.0257C98.189 53.8956 99.4172 54.1906 99.6552 53.3249C100.142 51.5573 99.2703 49.9665 97.6219 49.729Z" fill="#074785"/>
<path d="M92.5465 55.1819C92.6322 54.8097 92.5481 54.4301 92.1972 54.2853C91.9087 54.1666 91.4599 54.3268 91.3731 54.6995C91.2496 55.2346 91.0286 56.1647 90.443 56.2935C89.6129 56.4756 89.3819 55.3666 89.4175 54.6984C89.4639 53.8029 88.2068 53.6783 88.1594 54.5813C88.0817 56.0731 88.686 57.5378 90.1576 57.6858C91.4828 57.8189 92.2585 56.4261 92.5465 55.1819Z" fill="#074785"/>
<path d="M101.272 57.3845C101.14 58.5888 99.8531 59.4471 98.3981 59.3022C96.943 59.1569 95.8702 58.0639 96.0022 56.8601C96.1337 55.6558 97.42 54.7975 98.8751 54.9423C100.331 55.0871 101.404 56.1802 101.272 57.3845Z" fill="#FD6085"/>
<path d="M84.1788 54.7683C84.0462 55.972 82.7604 56.8308 81.3054 56.6855C79.8498 56.5401 78.7769 55.4471 78.9095 54.2433C79.0405 53.0395 80.3273 52.1807 81.7824 52.3261C83.2375 52.4704 84.3108 53.5639 84.1788 54.7683Z" fill="#FD6085"/>
<path fill-rule="evenodd" clip-rule="evenodd" d="M91.6636 20.7483C90.0882 20.6663 88.5149 20.5535 86.9497 20.8138C86.0632 20.9608 86.3672 22.3211 87.2515 22.1741C88.6896 21.9351 90.1463 22.0645 91.5928 22.1395C92.4899 22.1864 92.5602 20.7947 91.6636 20.7483Z" fill="white"/>
<path fill-rule="evenodd" clip-rule="evenodd" d="M93.5979 21.0939C92.7013 21.0486 92.6305 22.4398 93.5282 22.4845C94.4253 22.5303 94.495 21.1391 93.5979 21.0939Z" fill="white"/>
<path fill-rule="evenodd" clip-rule="evenodd" d="M78.6302 45.3451C78.2016 45.2663 77.633 45.5714 77.6032 46.0516C77.5265 47.3103 77.3583 48.5593 77.1613 49.8041C76.9829 50.9259 78.717 51.2458 78.8948 50.1246C79.0923 48.8798 79.2601 47.6308 79.3367 46.3722C79.3655 45.893 79.1445 45.4399 78.6302 45.3451Z" fill="white"/>
<path fill-rule="evenodd" clip-rule="evenodd" d="M77.8005 52.1062C76.6686 52.2042 76.8198 53.9596 77.9517 53.8616C79.0842 53.7631 78.9319 52.0083 77.8005 52.1062Z" fill="white"/>
<path fill-rule="evenodd" clip-rule="evenodd" d="M78.872 42.698C77.7401 42.7965 77.8919 44.5513 79.0243 44.4539C80.1562 44.3559 80.005 42.6006 78.872 42.698Z" fill="white"/>
<path d="M53.4224 9.07312C51.9998 9.07312 51.9998 11.2794 53.4224 11.2794C54.8461 11.2794 54.8461 9.07312 53.4224 9.07312Z" fill="white"/>
<path d="M23.7833 18.4137C22.3607 18.4137 22.3607 20.62 23.7833 20.62C25.2059 20.62 25.2059 18.4137 23.7833 18.4137Z" fill="white"/>
<path d="M47.709 78.7236C46.2864 78.7236 46.2864 80.9299 47.709 80.9299C49.1322 80.9294 49.1322 78.7236 47.709 78.7236Z" fill="#29AEFD"/>
<path d="M39.9102 71.5887C38.4876 71.5887 38.4876 73.7951 39.9102 73.7951C41.3328 73.7951 41.3328 71.5887 39.9102 71.5887Z" fill="#29AEFD"/>
<path d="M46.0484 71.5887C44.6258 71.5887 44.6258 73.7951 46.0484 73.7951C47.471 73.7951 47.471 71.5887 46.0484 71.5887Z" fill="#29AEFD"/>
<path d="M62.2488 71.2948C60.8246 71.2948 60.8246 73.5011 62.2488 73.5011C63.6709 73.5011 63.6709 71.2948 62.2488 71.2948Z" fill="#29AEFD"/>
<path d="M63.7197 66.7347C62.2966 66.7347 62.2966 68.9411 63.7197 68.9411C65.1428 68.9411 65.1428 66.7347 63.7197 66.7347Z" fill="#29AEFD"/>
<path d="M68.5739 28.1951C67.1518 28.1951 67.1518 30.4019 68.5739 30.4019C69.9975 30.4019 69.9975 28.1951 68.5739 28.1951Z" fill="#29AEFD"/>
<path d="M62.1015 25.4005C60.6784 25.4005 60.6784 27.6068 62.1015 27.6068C63.5247 27.6074 63.5247 25.4005 62.1015 25.4005Z" fill="#29AEFD"/>
<path d="M38.5664 30.8434C37.1432 30.8434 37.1432 33.0497 38.5664 33.0497C39.9895 33.0497 39.9895 30.8434 38.5664 30.8434Z" fill="#29AEFD"/>
<path d="M32.2411 33.4905C30.8174 33.4905 30.8174 35.6973 32.2411 35.6973C33.6637 35.6973 33.6637 33.4905 32.2411 33.4905Z" fill="#29AEFD"/>
<path d="M66.5785 51.9524C66.2878 53.6928 65.9768 55.4274 65.5972 57.1498C65.2922 58.5367 67.4191 59.1261 67.7253 57.7365C68.1033 56.0141 68.4147 54.2785 68.7054 52.5396C68.9392 51.1473 66.8127 50.5516 66.5785 51.9524Z" fill="white"/>
<path d="M67.8388 47.4163C66.4157 47.4163 66.4157 49.6231 67.8388 49.6231C69.2609 49.6226 69.2609 47.4163 67.8388 47.4163Z" fill="white"/>
<path d="M29.6516 65.0598C30.6329 66.2439 31.5992 67.4391 32.5192 68.6722C33.2592 69.6641 34.8613 68.5976 34.1202 67.6042C33.2001 66.3711 32.2338 65.1758 31.2521 63.9918C30.4683 63.0446 28.8621 64.1062 29.6516 65.0598Z" fill="white"/>
<path d="M27.8459 61.1998C27.0345 62.1374 28.4885 63.3965 29.3004 62.459C30.1124 61.5203 28.6578 60.2617 27.8459 61.1998Z" fill="white"/>
<path fill-rule="evenodd" clip-rule="evenodd" d="M53.0178 77.0251C52.8612 76.5806 52.1505 76.7717 52.3081 77.2205C52.9986 79.1825 52.8346 81.6417 51.2262 83.1149C50.8754 83.4354 51.3971 83.9545 51.7464 83.635C53.5369 81.9947 53.7914 79.2229 53.0178 77.0251Z" fill="white"/>
<path fill-rule="evenodd" clip-rule="evenodd" d="M52.2947 75.4312C51.8204 75.4312 51.8204 76.1664 52.2947 76.1664C52.7691 76.1664 52.7691 75.4312 52.2947 75.4312Z" fill="white"/>
<path fill-rule="evenodd" clip-rule="evenodd" d="M64.897 62.5053C63.2029 62.517 61.8053 63.4104 60.6287 64.5625C60.289 64.8947 60.8091 65.4144 61.1483 65.0827C62.1854 64.0674 63.3983 63.2512 64.897 63.2411C65.3708 63.2379 65.3708 62.5026 64.897 62.5053Z" fill="white"/>
<path fill-rule="evenodd" clip-rule="evenodd" d="M66.0736 62.3956C65.5992 62.3956 65.5992 63.1309 66.0736 63.1309C66.5479 63.1309 66.5479 62.3956 66.0736 62.3956Z" fill="white"/>
<path fill-rule="evenodd" clip-rule="evenodd" d="M58.3603 23.5961C57.1443 25.0113 56.5192 26.7107 56.3888 28.563C56.3553 29.0363 57.0916 29.0336 57.1246 28.563C57.2401 26.9168 57.7986 25.3754 58.88 24.1158C59.1872 23.7585 58.6697 23.2357 58.3603 23.5961Z" fill="white"/>
<path fill-rule="evenodd" clip-rule="evenodd" d="M57.0024 30.0586C56.5285 30.0586 56.5285 30.7939 57.0024 30.7939C57.4762 30.7939 57.4762 30.0586 57.0024 30.0586Z" fill="white"/>
<path fill-rule="evenodd" clip-rule="evenodd" d="M27.0824 38.6895C25.8685 38.0623 24.8069 37.1215 24.3096 35.8203C24.1424 35.3821 23.4317 35.5717 23.6004 36.0157C24.1664 37.499 25.3159 38.6027 26.7113 39.3247C27.1319 39.5424 27.5035 38.9072 27.0824 38.6895Z" fill="white"/>
<path fill-rule="evenodd" clip-rule="evenodd" d="M28.1726 39.2767C27.6977 39.2767 27.6977 40.012 28.1726 40.012C28.6459 40.012 28.6459 39.2767 28.1726 39.2767Z" fill="white"/>
<path fill-rule="evenodd" clip-rule="evenodd" d="M94.2327 96.5188C92.6163 96.9102 90.9637 97.1018 89.3292 97.4016C88.3975 97.5725 88.7931 98.9898 89.7206 98.8199C91.3545 98.5202 93.0077 98.3285 94.6241 97.9372C95.5457 97.7136 95.1549 96.2958 94.2327 96.5188Z" fill="white"/>
<path fill-rule="evenodd" clip-rule="evenodd" d="M86.9753 97.7673C86.0271 97.7673 86.0271 99.2379 86.9753 99.2379C87.9246 99.2379 87.9246 97.7673 86.9753 97.7673Z" fill="white"/>
<path fill-rule="evenodd" clip-rule="evenodd" d="M94.9784 71.7197C92.984 71.7277 90.9566 71.9109 88.9963 71.4519C88.0736 71.2358 87.6817 72.6536 88.6049 72.8703C90.7021 73.3606 92.8451 73.1993 94.9784 73.1908C95.9267 73.187 95.9277 71.7165 94.9784 71.7197Z" fill="white"/>
<path fill-rule="evenodd" clip-rule="evenodd" d="M86.3488 70.8375C85.4 70.8375 85.4 72.3086 86.3488 72.3086C87.297 72.308 87.297 70.8375 86.3488 70.8375Z" fill="white"/>
</svg>
