<svg width="14" height="13" viewBox="0 0 14 13" fill="none" xmlns="http://www.w3.org/2000/svg">
<path d="M6.09527 0.345604C6.24495 -0.115052 6.89665 -0.11505 7.04633 0.345605L8.25466 4.06445C8.32159 4.27046 8.51357 4.40994 8.73018 4.40994H12.6404C13.1248 4.40994 13.3262 5.02975 12.9343 5.31445L9.77086 7.61283C9.59562 7.74015 9.52229 7.96583 9.58923 8.17184L10.7976 11.8907C10.9472 12.3513 10.42 12.7344 10.0281 12.4497L6.86469 10.1513C6.68945 10.024 6.45215 10.024 6.27691 10.1513L3.11347 12.4497C2.72161 12.7344 2.19437 12.3513 2.34405 11.8907L3.55237 8.17184C3.61931 7.96583 3.54598 7.74015 3.37074 7.61283L0.207296 5.31445C-0.184561 5.02975 0.0168287 4.40994 0.50119 4.40994H4.41142C4.62803 4.40994 4.82001 4.27046 4.88695 4.06445L6.09527 0.345604Z" fill="#FFD234"/>
</svg>
