<svg width="391" height="391" viewBox="0 0 391 391" fill="none" xmlns="http://www.w3.org/2000/svg">
<path d="M58.5171 74.5559C-16.3359 123.04 107.079 145.82 138.938 172.103C161.796 190.957 153.663 231.793 188.9 254.494C225.928 278.345 280.394 277.954 307.991 264.488C349.648 244.156 348.819 152.936 280.918 120.452C229.423 95.8185 190.824 132.486 137.921 112.819C104.655 100.464 99.2672 48.1634 58.5171 74.5559Z" fill="#E3DFF1"/>
<path d="M195.5 334.352C279.238 334.352 347.122 330.389 347.122 325.5C347.122 320.611 279.238 316.647 195.5 316.647C111.761 316.647 43.8779 320.611 43.8779 325.5C43.8779 330.389 111.761 334.352 195.5 334.352Z" fill="#F5F5F5"/>
<path d="M183.058 322.685C182.413 322.685 181.78 322.508 181.228 322.173C180.676 321.838 180.227 321.357 179.93 320.784C176.802 314.716 172.838 307.592 165.737 299.881C165.328 299.439 165.041 298.898 164.904 298.311C164.767 297.725 164.785 297.112 164.955 296.534C167.59 287.377 171.735 274.857 171.774 274.732C171.907 274.28 172.129 273.859 172.427 273.494C172.726 273.129 173.095 272.829 173.513 272.61C173.93 272.391 174.387 272.258 174.857 272.219C175.327 272.181 175.8 272.237 176.247 272.386C176.695 272.534 177.108 272.77 177.462 273.082C177.816 273.393 178.104 273.772 178.308 274.197C178.512 274.622 178.629 275.083 178.651 275.554C178.673 276.025 178.6 276.495 178.437 276.938C178.398 277.055 174.824 287.839 172.235 296.605C177.754 302.969 182.437 310.012 186.171 317.562C186.445 318.099 186.577 318.696 186.555 319.298C186.532 319.9 186.355 320.486 186.041 321C185.727 321.514 185.287 321.938 184.762 322.233C184.237 322.528 183.645 322.684 183.043 322.685H183.058Z" fill="#6348EC"/>
<path d="M188.9 325.5H161.694L176.114 317.32L188.196 317.789L188.9 325.5Z" fill="#263238"/>
<path d="M186.303 292.54C198.686 288.669 206.123 277.21 202.914 266.946C199.705 256.682 187.066 251.5 174.683 255.371C162.3 259.242 154.863 270.701 158.072 280.965C161.28 291.229 173.92 296.411 186.303 292.54Z" fill="#263238"/>
<path d="M118.59 261.188C117.781 261.185 116.997 260.902 116.372 260.387C115.747 259.872 115.319 259.157 115.161 258.363C115.002 257.569 115.124 256.745 115.503 256.03C115.883 255.314 116.499 254.753 117.245 254.439C117.853 254.185 118.387 253.782 118.797 253.266C119.207 252.751 119.48 252.14 119.591 251.491C119.661 250.728 119.98 250.008 120.498 249.443C121.017 248.878 121.706 248.499 122.461 248.363C123.332 248.185 124.193 247.964 125.042 247.698C129.796 246.314 135.685 244.57 154.218 249.779C172.501 239.558 172.712 220.383 172.712 219.554C172.712 218.625 173.08 217.734 173.735 217.074C174.39 216.415 175.279 216.041 176.208 216.035C177.134 216.035 178.022 216.401 178.68 217.053C179.337 217.704 179.711 218.589 179.719 219.515C179.719 220.54 179.61 244.61 156.259 256.66C155.463 257.073 154.539 257.163 153.679 256.91C136.005 251.812 131.001 253.266 127.036 254.431L125.957 254.744C125.435 256.126 124.636 257.387 123.608 258.448C122.581 259.509 121.347 260.348 119.982 260.914C119.542 261.099 119.068 261.192 118.59 261.188Z" fill="#263238"/>
<path d="M159.59 236.078C152.936 209.631 135.208 141.409 192.02 137.241C242.991 133.495 256.973 201.365 260.375 224.825C262.078 236.696 263.002 248.665 263.143 260.656C263.208 266.722 261.152 272.62 257.332 277.332C253.511 282.043 248.165 285.273 242.216 286.462C214.448 292.108 188.172 292.906 170.468 285.923C168.143 284.984 166.183 283.319 164.882 281.175C163.581 279.031 163.009 276.524 163.25 274.028C163.93 266.459 163.946 253.368 159.59 236.078Z" fill="#6348EC"/>
<path opacity="0.1" d="M260.406 224.841C257.2 202.694 244.594 141.167 200.458 137.257C197.94 137.001 195.403 137.497 193.167 138.681C190.931 139.866 189.095 141.686 187.891 143.911C185.92 147.728 185.983 152.349 188.931 156.924C198.628 172.04 221.83 224.176 218.326 252.586C216.762 265.512 208.622 275.835 215.675 290.364C224.592 289.584 233.454 288.278 242.217 286.454C248.165 285.265 253.511 282.035 257.332 277.324C261.152 272.612 263.208 266.714 263.143 260.648C263.012 248.666 262.097 236.704 260.406 224.841Z" fill="black"/>
<path d="M252.774 261.024C252.682 261.024 252.593 260.988 252.528 260.924C252.462 260.859 252.424 260.772 252.422 260.68C252.289 248.704 251.367 236.75 249.661 224.895C241.216 166.511 218.483 136.991 183.895 139.54C183.849 139.543 183.802 139.537 183.758 139.523C183.715 139.508 183.674 139.484 183.639 139.454C183.604 139.423 183.576 139.386 183.555 139.345C183.535 139.303 183.523 139.258 183.52 139.212C183.515 139.119 183.547 139.028 183.608 138.958C183.67 138.888 183.755 138.844 183.848 138.836C218.843 136.256 241.849 165.987 250.318 224.794C252.022 236.68 252.947 248.665 253.086 260.672C253.086 260.765 253.049 260.855 252.983 260.921C252.917 260.987 252.828 261.024 252.735 261.024H252.774Z" fill="#263238"/>
<path d="M252.243 294.403C264.626 290.532 272.063 279.073 268.854 268.809C265.645 258.545 253.006 253.363 240.623 257.234C228.24 261.105 220.803 272.564 224.012 282.828C227.22 293.092 239.86 298.274 252.243 294.403Z" fill="#263238"/>
<path d="M254.385 322.684C253.739 322.686 253.105 322.509 252.553 322.174C252.002 321.839 251.553 321.358 251.257 320.784C248.129 314.716 244.164 307.592 237.055 299.881C236.65 299.437 236.365 298.896 236.228 298.31C236.091 297.724 236.107 297.113 236.273 296.534C238.917 287.377 243.053 274.857 243.1 274.732C243.245 274.295 243.475 273.891 243.776 273.543C244.077 273.194 244.443 272.909 244.855 272.702C245.266 272.496 245.714 272.372 246.173 272.339C246.632 272.305 247.093 272.363 247.53 272.507C247.967 272.652 248.371 272.882 248.72 273.183C249.068 273.484 249.354 273.85 249.56 274.262C249.767 274.673 249.89 275.121 249.924 275.58C249.957 276.039 249.9 276.5 249.755 276.937C249.716 277.055 246.15 287.839 243.562 296.605C249.08 302.967 253.761 310.01 257.489 317.562C257.763 318.098 257.896 318.696 257.873 319.298C257.85 319.9 257.674 320.486 257.36 320.999C257.046 321.513 256.605 321.938 256.08 322.233C255.555 322.528 254.963 322.684 254.361 322.684H254.385Z" fill="#6348EC"/>
<path d="M247.018 215.762C246.234 215.762 245.472 215.5 244.854 215.017C244.236 214.534 243.797 213.858 243.608 213.096C243.419 212.335 243.491 211.532 243.811 210.816C244.131 210.1 244.682 209.512 245.376 209.146C246.048 208.786 261.321 200.442 265.606 180.392C255.44 176.138 237.126 166.527 233.122 161.694C232.728 161.227 232.459 160.667 232.34 160.068C231.877 157.18 232.146 154.222 233.122 151.466L231.276 147.9C230.849 147.07 230.769 146.105 231.054 145.216C231.338 144.327 231.964 143.588 232.794 143.161C233.623 142.733 234.588 142.653 235.477 142.938C236.366 143.222 237.105 143.848 237.532 144.678L240.183 149.808C240.469 150.345 240.609 150.947 240.589 151.554C240.57 152.162 240.393 152.754 240.074 153.272C239.358 154.701 239.055 156.302 239.198 157.894C243.71 161.968 261.876 171.61 270.814 174.918C271.572 175.199 272.209 175.733 272.618 176.429C273.027 177.126 273.183 177.943 273.059 178.742C269.094 204.368 249.489 214.925 248.66 215.363C248.154 215.628 247.59 215.765 247.018 215.762Z" fill="#263238"/>
<path d="M235.828 161.209C235.512 161.208 235.203 161.122 234.932 160.959C234.661 160.797 234.439 160.565 234.289 160.288C234.139 160.011 234.066 159.698 234.078 159.382C234.09 159.067 234.186 158.761 234.358 158.496C234.483 158.308 237.376 153.937 241.787 152.756C242.009 152.696 242.241 152.681 242.469 152.711C242.697 152.741 242.917 152.816 243.117 152.931C243.316 153.046 243.491 153.199 243.631 153.382C243.771 153.565 243.874 153.773 243.933 153.995C243.993 154.218 244.008 154.45 243.978 154.678C243.948 154.906 243.873 155.126 243.758 155.325C243.643 155.525 243.49 155.699 243.307 155.839C243.124 155.98 242.916 156.082 242.694 156.142C239.62 156.971 237.314 160.38 237.298 160.412C237.139 160.657 236.921 160.858 236.664 160.997C236.407 161.137 236.12 161.209 235.828 161.209Z" fill="#263238"/>
<path d="M260.226 325.5H233.02L247.44 317.32L259.522 317.789L260.226 325.5Z" fill="#263238"/>
<path d="M203.255 220.722C213.546 219.811 221.223 211.564 220.403 202.302C219.583 193.039 210.576 186.269 200.285 187.181C189.995 188.092 182.318 196.339 183.138 205.601C183.958 214.863 192.965 221.633 203.255 220.722Z" fill="white"/>
<path d="M199.76 214.617C202.489 213.84 203.554 209.182 202.139 204.215C200.724 199.247 197.364 195.85 194.636 196.627C191.907 197.405 190.842 202.062 192.257 207.03C193.672 211.997 197.031 215.394 199.76 214.617Z" fill="#263238"/>
<path d="M180.485 207.12C192.294 205.603 215.676 198.933 219.531 196.243C216.497 187.359 202.327 179.758 189.721 184.044C178.296 187.899 180.485 207.12 180.485 207.12Z" fill="#263238"/>
<path d="M182.777 212.829C197.439 210.045 216.497 205.369 221.947 202.374C221.611 211.93 218.819 221.619 203.867 224.895C191.637 227.562 182.777 212.829 182.777 212.829Z" fill="#263238"/>
<path d="M170.699 222.015C176.001 218.507 176.7 210.223 172.26 203.513C167.82 196.803 159.923 194.207 154.621 197.715C149.319 201.223 148.62 209.506 153.06 216.217C157.5 222.927 165.397 225.523 170.699 222.015Z" fill="white"/>
<path d="M162.922 210.108C163.805 214.299 163.039 217.795 161.201 217.928C159.364 218.061 157.158 214.753 156.267 210.561C155.375 206.37 156.15 202.882 157.98 202.741C159.809 202.601 162.03 205.916 162.922 210.108Z" fill="#263238"/>
<path d="M148.384 208.505C156.306 209.435 172.04 208.395 174.652 206.941C172.72 199.41 163.352 190.808 154.836 191.903C147.157 192.888 148.384 208.505 148.384 208.505Z" fill="#263238"/>
<path d="M149.854 213.439C159.7 213.885 172.532 213.635 176.192 212.25C175.856 219.766 173.885 226.929 163.829 226.811C155.618 226.717 149.854 213.439 149.854 213.439Z" fill="#263238"/>
<path d="M206.518 179.313C197.57 179.362 188.818 176.689 181.424 171.649C180.682 171.088 180.194 170.255 180.067 169.334C179.939 168.413 180.183 167.48 180.744 166.738C181.305 165.997 182.137 165.508 183.058 165.381C183.979 165.253 184.913 165.497 185.655 166.058C193.931 171.455 203.972 173.447 213.681 171.618C214.134 171.532 214.599 171.536 215.049 171.63C215.5 171.724 215.928 171.906 216.308 172.165C216.689 172.424 217.015 172.756 217.267 173.141C217.519 173.526 217.693 173.957 217.779 174.41C217.865 174.862 217.861 175.327 217.767 175.777C217.673 176.228 217.491 176.656 217.232 177.037C216.973 177.417 216.641 177.743 216.256 177.995C215.871 178.247 215.44 178.421 214.987 178.507C212.196 179.039 209.36 179.308 206.518 179.313Z" fill="#263238"/>
<path d="M143.794 173.268C143.233 173.265 142.68 173.128 142.182 172.868C141.685 172.608 141.256 172.232 140.933 171.773C140.61 171.314 140.402 170.784 140.325 170.228C140.249 169.672 140.307 169.105 140.494 168.576C142.347 163.399 145.436 160.044 149.659 158.59C157.307 155.954 165.549 161.076 165.901 161.295C166.669 161.8 167.209 162.586 167.404 163.484C167.599 164.382 167.435 165.321 166.945 166.099C166.456 166.877 165.681 167.432 164.787 167.645C163.893 167.858 162.951 167.712 162.163 167.238C160.599 166.245 155.618 163.946 151.919 165.229C149.792 165.972 148.212 167.841 147.094 170.953C146.848 171.631 146.4 172.217 145.809 172.631C145.219 173.045 144.515 173.268 143.794 173.268Z" fill="#263238"/>
<path d="M171.438 232.45C171.339 232.449 171.242 232.433 171.148 232.403C170.883 232.328 170.658 232.151 170.523 231.91C170.388 231.67 170.354 231.386 170.429 231.12C170.74 230.274 171.215 229.498 171.827 228.836C172.439 228.175 173.176 227.641 173.995 227.265C178.014 225.193 184.161 225.623 192.223 228.54C192.354 228.587 192.473 228.659 192.576 228.753C192.678 228.846 192.76 228.96 192.819 229.085C192.877 229.211 192.909 229.347 192.915 229.486C192.92 229.624 192.897 229.763 192.849 229.892C192.803 230.023 192.731 230.142 192.638 230.244C192.545 230.346 192.433 230.429 192.307 230.487C192.182 230.545 192.047 230.578 191.909 230.583C191.771 230.589 191.633 230.566 191.504 230.518C182.253 227.171 177.428 227.89 175.082 229.095C173.91 229.592 172.979 230.526 172.486 231.699C172.418 231.922 172.279 232.117 172.09 232.253C171.9 232.389 171.671 232.458 171.438 232.45Z" fill="#263238"/>
<path d="M138.32 228.594C126.084 229.681 114.183 233.176 103.302 238.878C109.339 237.736 130.946 264.472 136.498 285.086C146.75 281.293 158.699 278.705 171.438 276.679C163.719 255.432 149.604 231.355 138.32 228.594Z" fill="#6348EC"/>
<path opacity="0.6" d="M138.32 228.594C126.084 229.681 114.183 233.176 103.302 238.878C109.339 237.736 130.946 264.472 136.498 285.086C146.75 281.293 158.699 278.705 171.438 276.679C163.719 255.432 149.604 231.355 138.32 228.594Z" fill="white"/>
<path d="M138.32 228.594C124.964 227.085 103.279 238.268 103.279 238.268C99.439 240.715 100.479 245.306 102.575 247.253C104.585 244.367 126.997 236.86 135.419 235.851C131.235 231.972 135.13 229.126 138.32 228.594Z" fill="#6348EC"/>
<path opacity="0.2" d="M138.32 228.594C124.964 227.085 103.279 238.268 103.279 238.268C99.439 240.715 100.479 245.306 102.575 247.253C104.585 244.367 126.997 236.86 135.419 235.851C131.235 231.972 135.13 229.126 138.32 228.594Z" fill="white"/>
<path d="M118.598 261.188C118.016 261.19 117.442 261.049 116.928 260.776C116.413 260.503 115.974 260.107 115.65 259.624C113.108 255.714 114.696 249.779 115.04 248.621C115.333 247.763 115.947 247.051 116.753 246.635C117.559 246.219 118.495 246.132 119.364 246.39C120.234 246.649 120.969 247.234 121.417 248.024C121.864 248.813 121.989 249.744 121.765 250.623C121.194 252.586 121.077 255.096 121.53 255.784C122.038 256.564 122.215 257.514 122.023 258.425C121.831 259.335 121.285 260.132 120.506 260.641C119.938 261.007 119.274 261.198 118.598 261.188Z" fill="#263238"/>
<path d="M81.0515 198.375L98.1189 227.938C98.2762 228.21 98.3589 228.519 98.3589 228.833C98.3589 229.148 98.2762 229.457 98.1189 229.729C97.9617 230.002 97.7355 230.228 97.4631 230.385C97.1908 230.542 96.8818 230.625 96.5673 230.625H62.4325C62.118 230.625 61.809 230.542 61.5367 230.385C61.2643 230.228 61.0381 230.002 60.8809 229.729C60.7236 229.457 60.6409 229.148 60.6409 228.833C60.6409 228.519 60.7237 228.21 60.8809 227.938L77.9483 198.375C78.1056 198.103 78.3318 197.876 78.6041 197.719C78.8765 197.562 79.1854 197.479 79.4999 197.479C79.8144 197.479 80.1233 197.562 80.3957 197.719C80.6681 197.876 80.8942 198.103 81.0515 198.375ZM77.7082 221.667V225.25H81.2916V221.667H77.7082ZM77.7082 209.125V218.083H81.2916V209.125H77.7082Z" fill="#FD6085"/>
</svg>
